<?xml version="1.0" encoding="UTF-8" standalone="no"?>
<svg
     xmlns:dc="http://purl.org/dc/elements/1.1/"
     xmlns:cc="http://creativecommons.org/ns#"
     xmlns:rdf="http://www.w3.org/1999/02/22-rdf-syntax-ns#"
     xmlns:svg="http://www.w3.org/2000/svg"
     xmlns="http://www.w3.org/2000/svg"
     width="275.0477"
     height="70.356384"
     viewBox="0 0 275.0477 70.356385"
     id="svg4166"
     version="1.1">
    <title
         id="title4135">Allan Pettersson - Signature</title>
    <defs
         id="defs4168" />
    <metadata
         id="metadata4171">
        <rdf:RDF>
            <cc:Work
                 rdf:about="">
                <dc:format>image/svg+xml</dc:format>
                <dc:type
                     rdf:resource="http://purl.org/dc/dcmitype/StillImage" />
                <dc:title>Allan Pettersson - Signature</dc:title>
                <cc:license
                     rdf:resource="http://creativecommons.org/publicdomain/zero/1.0/" />
            </cc:Work>
            <cc:License
                 rdf:about="http://creativecommons.org/publicdomain/zero/1.0/">
                <cc:permits
                     rdf:resource="http://creativecommons.org/ns#Reproduction" />
                <cc:permits
                     rdf:resource="http://creativecommons.org/ns#Distribution" />
                <cc:permits
                     rdf:resource="http://creativecommons.org/ns#DerivativeWorks" />
            </cc:License>
        </rdf:RDF>
    </metadata>
    <g
         id="layer1"
         transform="translate(634.66671,-477.18402)">
        <path
             style="fill:#000000"
             d="m -614.4688,527.14898 c -0.41548,-0.50062 -0.14494,-1.89661 0.51464,-2.65554 0.25183,-0.28976 0.37078,-0.61393 0.26434,-0.72037 -0.10644,-0.10644 0.19509,-0.94936 0.67007,-1.87316 0.96928,-1.88518 1.07399,-2.13747 2.90742,-7.00463 0.26415,-0.70125 0.66785,-1.71561 0.89711,-2.25413 0.22926,-0.53852 0.50336,-1.52026 0.60912,-2.18165 0.10576,-0.66138 0.30956,-1.27499 0.45289,-1.36357 0.14333,-0.0886 0.26059,-0.44621 0.26059,-0.79473 0,-0.34852 0.18156,-0.8468 0.40347,-1.1073 0.50723,-0.59543 1.39653,-2.86327 1.39653,-3.56134 0,-0.55306 1.66942,-2.76228 2.08734,-2.76228 0.13401,0 0.46369,0.33581 0.73262,0.74624 0.45651,0.69673 0.44841,0.8709 -0.12216,2.625 -0.33611,1.03332 -0.89391,2.75626 -1.23956,3.82876 -0.34565,1.0725 -0.82093,2.16951 -1.05617,2.43779 -0.5619,0.64083 -0.89831,2.66221 -0.44306,2.66221 0.32044,0 1.94654,-1.52634 3.68925,-3.46294 0.43904,-0.48788 1.30501,-1.22456 1.92438,-1.63706 0.61938,-0.4125 1.61312,-1.25625 2.20831,-1.875 0.5952,-0.61875 1.2036,-1.125 1.352,-1.125 0.14839,0 0.48294,-0.18676 0.74343,-0.41502 0.61539,-0.53924 3.87056,-1.46954 4.41329,-1.26127 0.75334,0.28908 1.02065,1.573 0.67765,3.2548 -0.49817,2.44261 -1.22022,4.80653 -1.68967,5.5318 -0.23507,0.36317 -0.34645,0.91538 -0.2475,1.22714 0.0989,0.31175 -0.0805,1.43211 -0.39875,2.48968 -0.84398,2.80455 -1.28144,5.14283 -1.01247,5.4118 0.24176,0.24176 3.22267,-1.03202 6.00856,-2.56753 1.47184,-0.81123 2.47252,-2.04908 2.47252,-3.05852 0,-0.50797 1.73996,-3.94037 2.11495,-4.17212 0.15677,-0.0969 0.28505,-0.37617 0.28505,-0.62061 0,-1.16736 2.34803,-3.12015 3.75166,-3.12015 0.56391,0 0.72475,1.40017 0.24029,2.09183 -0.23244,0.33186 -0.68009,1.35171 -0.99476,2.26633 -0.31468,0.91461 -0.96229,2.05309 -1.43916,2.52996 -0.68824,0.68824 -0.97209,1.39609 -1.37659,3.43289 -0.59225,2.98215 -0.38467,3.77899 0.98443,3.77899 0.93847,0 3.49994,-1.25482 4.30036,-2.10668 0.28393,-0.30218 0.97844,-0.90195 1.54335,-1.33283 1.02935,-0.78512 1.27823,-1.2487 2.01893,-3.76049 0.21895,-0.7425 0.84211,-1.98986 1.38479,-2.77192 0.54268,-0.78206 0.9867,-1.49081 0.9867,-1.575 0,-0.48823 1.33094,-1.35308 2.08229,-1.35308 1.5807,0 1.5464,0.26827 -0.57538,4.5 -1.19868,2.39068 -1.6453,4.5217 -1.21861,5.81456 0.29425,0.8916 0.51099,1.06637 1.5375,1.2398 0.6654,0.11242 1.35653,0.0714 1.55957,-0.0926 0.20054,-0.16199 1.10713,-0.39349 2.01463,-0.51443 0.9075,-0.12095 1.7176,-0.30481 1.80022,-0.40859 0.30081,-0.37783 2.16225,-1.23869 2.67842,-1.23869 0.29151,0 1.25932,-0.82533 2.15068,-1.83405 1.83142,-2.07254 2.70628,-2.95714 2.95224,-2.9851 1.85967,-0.21145 2.33303,-0.17046 2.79344,0.24192 0.64153,0.57459 0.65834,0.88674 0.0789,1.46614 -0.39474,0.39474 -0.38096,0.53895 0.11977,1.25357 0.31121,0.44413 0.64337,1.53984 0.73813,2.43491 0.0948,0.89507 0.34461,1.74045 0.55522,1.87863 0.64702,0.4245 2.22363,0.0579 3.30805,-0.76925 1.50777,-1.15003 2.48792,-1.03497 3.86193,0.45336 1.0403,1.12684 1.22109,1.21291 1.97892,0.94206 0.45872,-0.16395 1.50903,-0.28326 2.33403,-0.26514 1.46129,0.0321 1.51549,0.066 2.1,1.31334 0.67965,1.45036 1.4568,1.80023 2.88947,1.3008 1.54915,-0.54004 1.80948,-0.44333 1.70454,0.63321 -0.10043,1.03023 -0.58855,1.26987 -3.35511,1.64716 -1.23415,0.1683 -2.75535,-0.48337 -4.5114,-1.93267 -0.6007,-0.49578 -1.09021,-0.66545 -1.57137,-0.54469 -0.38438,0.0965 -0.93676,0.0545 -1.2275,-0.0932 -1.47241,-0.74809 -3.61502,-1.2123 -4.81094,-1.04232 -0.70528,0.10024 -1.34243,0.27952 -1.41591,0.39841 -0.18061,0.29223 -3.12931,-0.18912 -4.00237,-0.65337 -0.38533,-0.20489 -0.89505,-0.74856 -1.13271,-1.20814 -0.47458,-0.91774 -0.85893,-1.05227 -1.22679,-0.42941 -0.63324,1.07218 -3.82827,1.56411 -4.18142,0.6438 -0.20542,-0.5353 -0.96735,-0.5758 -2.11937,-0.11265 -0.46152,0.18555 -1.10912,0.43874 -1.43912,0.56265 -0.33,0.12391 -0.95766,0.36802 -1.3948,0.54246 -0.43715,0.17444 -1.0784,0.243 -1.425,0.15236 -0.34661,-0.0906 -0.6302,-0.0357 -0.6302,0.1222 0,0.15847 -0.76666,0.25121 -1.7119,0.20709 -1.52148,-0.071 -1.87279,-0.21849 -3.1583,-1.3258 l -1.4464,-1.24589 -1.05277,0.92435 c -1.63542,1.43591 -3.67539,2.32832 -6.19563,2.71034 -2.18493,0.3312 -2.35604,0.31529 -3.18275,-0.29592 -0.4969,-0.36737 -1.02465,-1.14983 -1.22375,-1.81437 -0.29226,-0.97547 -0.43499,-1.12123 -0.86428,-0.8826 -1.24681,0.69306 -4.57769,2.10578 -4.96498,2.10578 -0.23418,0 -0.59275,0.20119 -0.79683,0.4471 -0.23973,0.28885 -0.63256,0.38147 -1.10985,0.26168 -0.40633,-0.10199 -1.05977,-0.0136 -1.45207,0.19631 -0.59899,0.32057 -0.83396,0.30267 -1.46633,-0.11168 -0.41418,-0.27137 -0.97322,-0.49341 -1.24232,-0.49341 -0.54914,0 -2.26404,-0.88966 -2.60225,-1.35 -0.12122,-0.165 -0.22247,-0.7324 -0.225,-1.26088 -0.003,-0.52849 -0.15707,-1.29555 -0.34344,-1.70457 -0.38101,-0.83624 0.29503,-3.96264 1.27246,-5.88455 1.01521,-1.9962 4.39005,-4.39634 5.13468,-3.65171 0.92239,0.92239 1.84016,-0.26513 2.10467,-2.72329 0.14455,-1.34337 0.11248,-1.425 -0.55981,-1.425 -0.43391,0 -0.71315,0.1762 -0.71315,0.45 0,0.50945 -0.46978,0.60341 -0.75,0.15 -0.30893,-0.49985 -0.68613,-0.33913 -0.95001,0.40478 -0.24337,0.68612 -3.70392,4.09521 -4.15702,4.09521 -0.32114,0 -0.98325,0.8924 -1.45717,1.96401 -0.22232,0.5027 -0.79383,1.24643 -1.27001,1.65273 -0.47619,0.4063 -1.05659,1.10731 -1.28978,1.5578 -0.23319,0.45048 -1.14257,1.66425 -2.02084,2.69726 -0.87828,1.03301 -1.59873,2.1617 -1.60102,2.50819 -0.002,0.34649 -0.40916,1.18907 -0.90416,1.8724 -0.495,0.68333 -0.9,1.40508 -0.9,1.60389 0,0.67759 -1.57567,2.63753 -2.48517,3.09125 -1.11626,0.55686 -1.25264,0.55937 -1.69101,0.0312 z m 17.30764,-8.13924 c 0.1322,-0.8192 0.23546,-2.70255 0.22946,-4.18522 -0.009,-2.22268 -0.0948,-2.71194 -0.48912,-2.78798 -0.77885,-0.15021 -2.03087,3.03991 -1.91671,4.88374 0.13721,2.21633 1.1047,4.41022 1.68774,3.82717 0.13654,-0.13654 0.35642,-0.91851 0.48863,-1.73771 z m 83.16854,7.61984 c -2.34213,-0.63927 -2.97713,-2.71235 -1.83411,-5.98773 1.08691,-3.11459 1.187,-3.4338 1.63724,-5.22157 0.24933,-0.99 0.67,-2.38839 0.93483,-3.10753 0.5561,-1.51008 0.33274,-1.99141 -1.0667,-2.29878 -1.37154,-0.30124 -3.37347,-1.52878 -4.10347,-2.51616 -1.12612,-1.52316 -2.21542,-4.2947 -2.0136,-5.12326 0.26428,-1.08501 1.65015,-3.00427 2.16933,-3.00427 0.24305,0 0.73094,-0.27793 1.0842,-0.61763 0.4766,-0.45831 1.12786,-0.64388 2.52465,-0.71938 1.0353,-0.056 2.0478,-0.22836 2.25,-0.38312 0.2022,-0.15476 1.31263,-0.25314 2.46763,-0.21862 1.155,0.0345 2.38181,-0.0435 2.72624,-0.17328 0.68436,-0.25794 3.35093,0.20185 3.94495,0.68023 0.20414,0.16441 0.56735,0.22365 0.80712,0.13164 0.23976,-0.092 0.92248,0.16289 1.51714,0.56644 0.59466,0.40355 1.34954,0.73372 1.67751,0.73372 0.32798,0 1.06448,0.19561 1.63668,0.43469 0.94826,0.39621 1.19783,0.74306 1.06337,1.47786 -0.0264,0.1444 0.17365,0.50751 0.4446,0.8069 0.45713,0.50513 0.45506,0.65748 -0.0286,2.11383 -0.29118,0.87664 -1.03284,2.12443 -1.68012,2.82664 -0.63741,0.69145 -1.15889,1.3873 -1.15889,1.54634 0,0.46445 -1.34227,1.59374 -1.89433,1.59374 -0.29573,0 -0.50567,0.23524 -0.50567,0.56661 0,0.63792 1.26249,1.01336 3.975,1.18208 0.9818,0.0611 1.08764,0.77323 0.33205,2.23437 l -0.49295,0.95326 -0.44364,-0.66816 c -0.244,-0.36749 -0.60267,-0.66816 -0.79705,-0.66816 -0.19437,0 -0.51174,-0.15833 -0.70526,-0.35186 -0.19943,-0.19943 -1.49256,-0.39134 -2.985,-0.44302 -3.12521,-0.10819 -4.20773,-0.2297 -4.48097,-0.50295 -0.1112,-0.11119 -0.77064,-0.20217 -1.46544,-0.20217 -1.29336,0 -2.16437,0.58897 -1.78317,1.20576 0.11286,0.18263 9e-4,0.55979 -0.24879,0.83814 -0.24971,0.27836 -0.55118,1.0461 -0.66995,1.7061 -0.11877,0.66 -0.48868,1.74 -0.82201,2.4 -1.02622,2.03193 -1.7454,5.39223 -1.37078,6.40491 0.19224,0.51969 0.40001,0.60168 1.14638,0.45241 0.78929,-0.15786 0.91158,-0.0958 0.91158,0.46261 0,0.41624 -0.27286,0.74866 -0.76953,0.9375 -0.42324,0.16091 -0.79449,0.2804 -0.825,0.26551 -0.0305,-0.0149 -0.52797,-0.15602 -1.10547,-0.31364 z m 10.725,-15.352 c 0.20625,-0.13349 0.375,-0.62924 0.375,-1.10166 0,-0.63987 0.33529,-1.15186 1.31451,-2.0073 2.41893,-2.11314 3.63536,-5.3725 2.4811,-6.64795 -0.28874,-0.31905 -1.09212,-0.77788 -1.78529,-1.01962 -3.86912,-1.34935 -4.91204,-1.60676 -5.76032,-1.42175 -0.495,0.10796 -1.52434,0.1333 -2.28743,0.0563 -1.89108,-0.19081 -4.92566,0.37809 -6.77461,1.27005 -1.35823,0.65523 -1.55277,0.86854 -1.72571,1.89217 -0.15226,0.9012 -0.0436,1.41527 0.49642,2.34887 1.0297,1.78014 2.43376,3.42357 2.92492,3.42358 0.23847,1e-5 0.80161,0.3526 1.25141,0.78354 0.77458,0.7421 0.85434,0.75796 1.50817,0.3 0.96764,-0.67775 1.42579,-0.60423 1.7631,0.28294 0.53509,1.40741 4.89454,2.69786 6.21873,1.84083 z m 121.63166,14.27858 c -0.38133,-0.0728 -0.76386,-0.31619 -0.85006,-0.54081 -0.0862,-0.22462 -0.51669,-0.48763 -0.95665,-0.58446 -0.63305,-0.13932 -1.00618,-0.61132 -1.78846,-2.26232 l -0.98852,-2.08626 -1.71148,0.16342 c -1.49935,0.14316 -1.916,0.0536 -3.36148,-0.72277 -0.9075,-0.4874 -1.78586,-1.14789 -1.95191,-1.46776 -0.59776,-1.1515 -1.29202,-1.58492 -2.53881,-1.58492 -1.14348,0 -3.00928,0.94534 -3.00928,1.5247 0,0.11652 -0.38716,0.62631 -0.86036,1.13287 -0.4732,0.50656 -0.94232,1.33083 -1.0425,1.83172 -0.13237,0.66184 -0.35161,0.91071 -0.8023,0.91071 -0.61873,0 -1.11973,0.31054 -2.00508,1.24284 -0.57697,0.60755 -1.93826,0.29803 -2.97571,-0.6766 l -0.68987,-0.6481 0.88791,-0.82943 c 0.60271,-0.56301 0.88791,-1.11887 0.88791,-1.73052 0,-0.88086 -0.0286,-0.89812 -1.275,-0.76879 -1.45216,0.15069 -1.34532,0.0268 1.23488,-1.43148 0.88544,-0.50044 1.67743,-1.1682 1.75999,-1.48391 0.11053,-0.42266 0.41773,-0.57401 1.16512,-0.57401 0.66758,0 1.01501,-0.14304 1.01501,-0.4179 0,-0.47423 0.56654,-0.75771 1.125,-0.5629 0.56827,0.19822 0.44854,1.22034 -0.18252,1.55807 -1.13257,0.60613 -2.61036,3.93749 -1.73589,3.91319 0.49765,-0.0138 1.24958,-0.65781 1.47759,-1.26546 0.10834,-0.28875 0.32713,-0.525 0.48619,-0.525 0.15906,0 0.38176,-0.30375 0.4949,-0.675 0.32454,-1.06497 1.05964,-1.725 1.92123,-1.725 0.43642,0 0.92175,-0.1272 1.0785,-0.28268 0.47148,-0.46766 2.82133,-0.003 3.15696,0.62372 0.16453,0.30743 0.47042,0.55896 0.67974,0.55896 0.4993,0 2.2983,1.86348 2.2983,2.38067 0,0.40228 0.24108,0.39722 5.52251,-0.11587 0.92238,-0.0896 1.28825,0.0247 1.71502,0.53565 0.29838,0.35725 0.547,0.93334 0.55249,1.28019 0.014,0.88775 1.20768,2.5593 2.33462,3.26936 1.00207,0.6314 1.21622,1.28914 0.61536,1.89 -0.36753,0.36753 -0.47429,0.37679 -1.68335,0.14588 z m -71.91088,-1.40023 c -0.25743,-0.39289 -0.51228,-1.20712 -0.56632,-1.8094 -0.054,-0.60228 -0.17128,-1.16807 -0.26051,-1.25731 -0.0892,-0.0892 -0.68484,0.16764 -1.32355,0.57084 -1.5985,1.00909 -2.79832,1.21443 -4.74031,0.81127 -1.70299,-0.35353 -2.25508,-0.86491 -2.25508,-2.08875 0,-0.86418 -1.4839,-1.45047 -1.97416,-0.78 -0.18809,0.25724 -0.53335,0.4677 -0.76724,0.4677 -0.2339,0 -0.65404,0.26719 -0.93365,0.59376 -0.27962,0.32657 -0.70372,0.51881 -0.94244,0.42721 -0.23872,-0.0916 -0.7487,0.035 -1.13328,0.28143 -1.14341,0.73256 -3.98464,0.60903 -5.31551,-0.23111 -1.07267,-0.67715 -1.83372,-2.16341 -1.83372,-3.5811 0,-0.72964 -0.57594,-0.59254 -0.88096,0.20971 -0.25934,0.68214 -2.41354,2.62211 -3.91904,3.52931 -0.4125,0.24857 -1.3575,0.638 -2.1,0.8654 -0.7425,0.22741 -1.485,0.50719 -1.65,0.62174 -0.88736,0.61604 -4.01819,0.77998 -5.25,0.27491 -0.86079,-0.35294 -2.15649,-2.17951 -1.95397,-2.75455 0.0749,-0.21269 -0.1326,-0.70886 -0.46112,-1.1026 -0.55719,-0.66781 -0.63374,-0.68292 -1.13973,-0.225 -0.59548,0.5389 -1.24518,0.64968 -1.24518,0.21232 0,-0.37932 0.86091,-1.21341 1.29642,-1.25603 0.19447,-0.019 0.48858,-0.066 0.65358,-0.10431 0.165,-0.0383 0.45336,-0.0903 0.6408,-0.11539 0.18745,-0.0251 0.88548,-0.95695 1.55117,-2.0707 0.6657,-1.11375 1.49269,-2.1959 1.83776,-2.40477 1.09619,-0.66353 3.39366,-1.33566 3.58655,-1.04926 0.10104,0.15004 0.41997,0.35996 0.70872,0.4665 0.8833,0.3259 0.66549,3.51253 -0.24009,3.51253 -0.22049,0 -0.61034,0.30375 -0.86633,0.675 -0.25599,0.37125 -1.0399,0.88241 -1.74201,1.13592 -1.26874,0.45808 -1.27657,0.47006 -1.27657,1.95 l 0,1.48908 1.35,0.0149 c 0.7425,0.008 1.649,-0.16055 2.01444,-0.375 0.36545,-0.21445 0.93284,-0.3899 1.26088,-0.3899 0.75003,0 2.12468,-0.61345 2.12468,-0.94815 0,-0.13852 0.24907,-0.25185 0.5535,-0.25185 0.30443,0 0.79785,-0.27 1.0965,-0.6 0.29864,-0.33 0.73084,-0.6 0.96045,-0.6 0.2296,0 0.64742,-0.40415 0.9285,-0.8981 0.28107,-0.49396 0.64262,-0.89896 0.80343,-0.9 0.39204,-0.002 2.20369,-2.0594 2.42329,-2.75129 0.0961,-0.30284 0.29019,-0.55061 0.43128,-0.55061 0.14108,0 0.41245,-0.4725 0.60305,-1.05 0.19059,-0.5775 0.47697,-1.05 0.63641,-1.05 0.15944,0 0.25654,-0.16875 0.21579,-0.375 -0.0976,-0.49413 0.91711,-2.40938 1.43844,-2.71491 0.22515,-0.13195 0.40936,-0.42435 0.40936,-0.64979 0,-0.503 2.16573,-2.2603 2.78565,-2.2603 0.24711,0 0.53391,0.33711 0.63732,0.74913 0.1858,0.7403 -0.26989,1.78942 -2.08532,4.80087 -1.35274,2.24394 -2.23401,4.3015 -2.73314,6.38118 -0.49214,2.05058 -0.49038,2.08296 0.1478,2.72114 0.59388,0.59387 0.76065,0.61788 2.07178,0.29829 1.90685,-0.4648 3.77631,-1.33282 4.43276,-2.05818 0.29487,-0.32584 0.75147,-0.59692 1.01464,-0.60241 0.26318,-0.006 0.75296,-0.24174 1.08841,-0.525 0.56783,-0.47948 3.50359,-4.76845 4.30548,-6.29002 0.26438,-0.50168 0.62263,-0.675 1.39517,-0.675 0.83945,0 1.03945,-0.11545 1.03945,-0.6 0,-0.70009 0.37927,-0.77744 0.87618,-0.1787 0.50836,0.61254 0.0874,1.95652 -0.9957,3.1787 -0.51177,0.5775 -1.18507,1.6575 -1.49623,2.4 -0.31116,0.7425 -0.75754,1.79148 -0.99195,2.33106 -0.23442,0.53959 -0.38483,1.55209 -0.33426,2.25 l 0.092,1.26894 1.38651,-0.0453 c 2.16261,-0.0706 4.67803,-1.88578 5.35552,-3.86463 0.37037,-1.08176 1.81179,-1.78968 2.51187,-1.23364 0.60005,0.4766 0.79881,2.29119 0.34981,3.19354 -0.20526,0.4125 -0.53661,1.44554 -0.73634,2.29565 -0.30077,1.28022 -0.289,1.69237 0.0686,2.4 0.62495,1.23674 0.36052,1.60435 -1.15404,1.60435 -1.05737,0 -1.41066,-0.1413 -1.78614,-0.71435 z m -31.53915,-8.57228 c 0.33962,-0.33961 -0.21174,-1.81337 -0.67842,-1.81337 -0.43696,0 -1.5282,1.51348 -1.5282,2.11952 0,0.46267 0.1346,0.49999 0.95476,0.26477 0.52512,-0.1506 1.08846,-0.40751 1.25186,-0.57092 z m 41.22287,7.76851 c -1.25543,-0.66284 -1.58905,-1.48131 -1.34511,-3.3 0.0872,-0.65003 0.0364,-1.18188 -0.11293,-1.18188 -0.1493,0 -0.27145,-0.2025 -0.27145,-0.45 0,-0.2475 0.25534,-0.45 0.56742,-0.45 0.38029,0 0.72301,-0.38884 1.03919,-1.17904 0.25946,-0.64847 0.66407,-1.28972 0.89913,-1.425 0.23506,-0.13528 0.47728,-0.51596 0.53827,-0.84596 0.0791,-0.42782 0.38998,-0.62698 1.08344,-0.69401 0.86078,-0.0832 0.97255,-0.008 0.97255,0.65069 0,0.40958 -0.18599,1.12689 -0.41332,1.59401 -1.0446,2.14652 -1.35138,3.06005 -1.52517,4.54163 -0.17806,1.51802 -0.15911,1.5775 0.40613,1.275 0.32611,-0.17453 0.93132,-0.31732 1.34493,-0.31732 0.41361,0 0.83545,-0.135 0.93743,-0.3 0.10197,-0.165 0.55544,-0.3 1.0077,-0.3 0.45227,0 0.98205,-0.15975 1.1773,-0.355 0.19525,-0.19525 0.45372,-0.25627 0.57439,-0.13561 0.30767,0.30767 -0.29035,1.17572 -1.08909,1.58087 -0.36895,0.18714 -0.82145,0.49089 -1.00556,0.675 -0.18411,0.18411 -0.68694,0.33474 -1.1174,0.33474 -0.43047,0 -1.04472,0.19821 -1.365,0.44046 -0.75001,0.56728 -0.95477,0.55318 -2.30285,-0.15858 z m 13.64551,-10e-4 c -0.37125,-0.14367 -0.675,-0.41838 -0.675,-0.61047 0,-0.61043 1.20919,-2.33256 1.76071,-2.50761 0.91523,-0.29048 1.86343,-1.91798 2.15518,-3.69917 0.45039,-2.74971 0.35798,-3.60648 -0.51205,-4.74715 -0.88862,-1.16504 -0.6695,-1.77289 0.52777,-1.46405 1.58328,0.40842 2.41588,1.70141 2.50998,3.8979 0.0947,2.20964 0.17431,2.55 0.59672,2.55 0.24107,0 0.67982,-0.25343 0.975,-0.56318 0.29518,-0.30975 1.10128,-0.84782 1.79133,-1.19572 0.69006,-0.34789 1.34064,-0.77166 1.44573,-0.9417 0.1051,-0.17005 0.32267,-0.22786 0.4835,-0.12846 0.16082,0.0994 0.47649,0.028 0.70148,-0.15878 0.53607,-0.4449 4.4817,-0.74425 4.21958,-0.32013 -0.10469,0.16938 -0.49407,0.30797 -0.8653,0.30797 -0.37123,0 -0.93701,0.19821 -1.25729,0.44046 -0.32029,0.24225 -1.00665,0.44475 -1.52525,0.45 -0.55442,0.006 -1.01405,0.19495 -1.11558,0.45954 -0.095,0.2475 -0.44692,0.45 -0.7821,0.45 -0.33518,0 -0.60941,0.10808 -0.60941,0.24018 0,0.13209 -0.63467,0.63834 -1.41037,1.125 -0.7757,0.48665 -2.49695,1.98262 -3.825,3.32437 -2.90796,2.93797 -3.66594,3.44846 -4.58963,3.091 z m 15.15,-1.65214 c -1.04714,-0.56808 -1.04288,-1.09174 0.0161,-1.98284 1.08761,-0.91517 1.91774,-3.75153 1.71653,-5.86505 -0.11817,-1.24127 -0.0508,-1.55732 0.36584,-1.71721 0.30511,-0.11709 0.64792,-0.008 0.85165,0.27036 0.18754,0.25648 0.48041,0.46633 0.65081,0.46633 0.92673,0 0.88099,2.98906 -0.0756,4.94251 -0.66398,1.35588 -0.69029,1.55447 -0.28747,2.16925 0.42193,0.64395 0.38541,0.71336 -0.75377,1.43249 -1.38496,0.87428 -1.39436,0.87536 -2.48411,0.28416 z m 4.275,-1.59167 c 0,-0.1448 0.19048,-0.42136 0.42329,-0.61457 0.47012,-0.39017 0.95097,0.0532 0.62671,0.57783 -0.22847,0.36967 -1.05,0.39841 -1.05,0.0367 z m -43.065,-13.79889 c -0.80547,-0.74081 -8.535,-1.886 -8.535,-1.26453 0,0.55509 -0.76282,0.36135 -1.44771,-0.36768 -0.77842,-0.82859 -0.78982,-0.92529 -0.18086,-1.53424 0.61072,-0.61073 2.50518,-0.60683 5.46621,0.0112 1.2718,0.26547 2.61857,0.48484 2.99283,0.4875 0.37426,0.003 0.75348,0.12296 0.8427,0.26733 0.0892,0.14438 0.40874,0.2625 0.71003,0.2625 0.80179,0 1.66252,1.41293 1.20013,1.97008 -0.41193,0.49635 -0.64973,0.53441 -1.04833,0.1678 z"
             id="path4146" />
    </g>
</svg>
