<?xml version="1.0" encoding="UTF-8" standalone="no"?>
<!-- Created with Inkscape (http://www.inkscape.org/) -->

<svg
	xmlns:dc="http://purl.org/dc/elements/1.1/"
	xmlns:cc="http://creativecommons.org/ns#"
	xmlns:rdf="http://www.w3.org/1999/02/22-rdf-syntax-ns#"
	xmlns:svg="http://www.w3.org/2000/svg"
	xmlns="http://www.w3.org/2000/svg"
	version="1.1"
	width="1014.8683"
	height="151.15741"
	viewBox="0 0 1014.8683 151.15741"
	id="svg4879">
	<title
		id="title5529">Allan Pettersson - Beginning 8th Symphony</title>
	<defs
		id="defs4881" />
	<metadata
		id="metadata4884">
		<rdf:RDF>
			<cc:Work
				rdf:about="">
				<dc:format>image/svg+xml</dc:format>
				<dc:type
					rdf:resource="http://purl.org/dc/dcmitype/StillImage" />
				<dc:title>Allan Pettersson - Beginning 8th Symphony</dc:title>
				<dc:date>March 11, 2014</dc:date>
			</cc:Work>
		</rdf:RDF>
	</metadata>
	<g
		transform="translate(804.57704,346.07367)"
		id="layer1">
		<rect
			width="2.1413667"
			height="45.081402"
			x="187.69794"
			y="-283.12442"
			id="rect8"
			style="fill:currentColor" />
		<rect
			width="2.1413667"
			height="45.081402"
			x="-13.340205"
			y="-283.12442"
			id="rect10"
			style="fill:currentColor" />
		<rect
			width="2.1413667"
			height="45.081402"
			x="-433.4595"
			y="-283.12442"
			id="rect12"
			style="fill:currentColor" />
		<rect
			width="2.1413667"
			height="45.081402"
			x="-105.39764"
			y="-283.12442"
			id="rect14"
			style="fill:currentColor" />
		<rect
			width="2.1413667"
			height="45.081402"
			x="-525.51575"
			y="-283.12442"
			id="rect16"
			style="fill:currentColor" />
		<rect
			width="2.1413667"
			height="45.081402"
			x="-323.41241"
			y="-283.12442"
			id="rect18"
			style="fill:currentColor" />
		<rect
			width="2.1413667"
			height="45.081402"
			x="-617.57306"
			y="-283.12442"
			id="rect20"
			style="fill:currentColor" />
		<rect
			width="33.472942"
			height="2.25407"
			rx="0.62266487"
			ry="0.62266487"
			x="-691.65308"
			y="-227.8997"
			id="rect22"
			style="fill:currentColor" />
		<line
			x1="-783.56281"
			y1="-238.04301"
			x2="189.27704"
			y2="-238.04301"
			id="line24"
			style="stroke:currentColor;stroke-width:1.99999988;stroke-linecap:round;stroke-linejoin:round;stroke-miterlimit:4;stroke-dasharray:none" />
		<line
			x1="-783.56281"
			y1="-249.31337"
			x2="189.27704"
			y2="-249.31337"
			id="line26"
			style="stroke:currentColor;stroke-width:1.99999988;stroke-linecap:round;stroke-linejoin:round;stroke-miterlimit:4;stroke-dasharray:none" />
		<line
			x1="-783.56281"
			y1="-260.58371"
			x2="189.27704"
			y2="-260.58371"
			id="line28"
			style="stroke:currentColor;stroke-width:1.99999988;stroke-linecap:round;stroke-linejoin:round;stroke-miterlimit:4;stroke-dasharray:none" />
		<line
			x1="-783.56281"
			y1="-271.85406"
			x2="189.27704"
			y2="-271.85406"
			id="line30"
			style="stroke:currentColor;stroke-width:1.99999988;stroke-linecap:round;stroke-linejoin:round;stroke-miterlimit:4;stroke-dasharray:none" />
		<line
			x1="-783.56281"
			y1="-283.12442"
			x2="189.27704"
			y2="-283.12442"
			id="line32"
			style="stroke:currentColor;stroke-width:1.99999988;stroke-linecap:round;stroke-linejoin:round;stroke-miterlimit:4;stroke-dasharray:none" />
		<rect
			width="2.1413667"
			height="45.081402"
			x="-214.29846"
			y="-283.12442"
			id="rect34"
			style="fill:currentColor" />
		<rect
			width="2.1413667"
			height="45.081402"
			x="78.71595"
			y="-283.12442"
			id="rect36"
			style="fill:currentColor" />
		<path
			d="m 106.64391,-269.14919 c 0,-1.08195 -0.9467,-1.84833 -1.89346,-1.84833 -0.18058,0 -0.36053,0 -0.5411,0.0448 -1.39751,0.40572 -3.47129,1.80325 -5.139292,2.88521 -1.66806,1.08195 -3.78686,2.38931 -4.68848,3.51635 -0.31569,0.36065 -0.49564,0.81147 -0.49564,1.26228 0,1.08201 0.9467,1.84833 1.89346,1.84833 0.18058,0 0.36053,0 0.5411,-0.0448 1.39744,-0.40573 3.51637,-1.80325 5.184372,-2.88521 1.66799,-1.08201 3.7868,-2.38931 4.68848,-3.51635 0.31569,-0.36065 0.45081,-0.81145 0.45081,-1.26227 z m -2.29919,-3.24585 c 2.1188,0 3.74178,0.94671 3.74178,3.24585 0,0.85656 -0.17995,1.66802 -0.45081,2.52456 -0.5411,1.71309 -1.44259,3.33603 -2.93032,4.32782 -2.43438,1.62292 -5.094152,2.29915 -8.475282,2.29915 -2.11881,0 -3.78686,-0.99173 -3.78686,-3.29094 0,-0.85654 0.2254,-1.66802 0.49564,-2.52455 0.54109,-1.7131 1.39744,-3.33604 2.88518,-4.32783 2.43443,-1.62293 5.139292,-2.25406 8.520422,-2.25406 z"
			id="path38"
			style="fill:currentColor" />
		<rect
			width="1.4651455"
			height="36.500156"
			rx="0.24906591"
			ry="0.24906591"
			x="92.443245"
			y="-263.27283"
			id="rect40"
			style="fill:currentColor" />
		<path
			d="m -246.22064,-274.78436 c 0,-1.08195 -0.9467,-1.84834 -1.89346,-1.84834 -0.18057,0 -0.36052,0 -0.54109,0.0448 -1.39745,0.40573 -3.47127,1.80326 -5.13929,2.88521 -1.66801,1.08196 -3.78684,2.38931 -4.68846,3.51635 -0.31563,0.36065 -0.49589,0.81146 -0.49589,1.26228 0,1.08195 0.94668,1.84833 1.89342,1.84833 0.18026,0 0.36065,0 0.54091,-0.0448 1.39748,-0.40573 3.51635,-1.80325 5.18436,-2.88521 1.66802,-1.08195 3.78683,-2.38931 4.68844,-3.51635 0.3157,-0.36064 0.45081,-0.81145 0.45081,-1.26228 z m -2.29919,-3.24586 c 2.11887,0 3.74178,0.94671 3.74178,3.24586 0,0.85654 -0.17995,1.66801 -0.45081,2.52456 -0.54109,1.71309 -1.44259,3.33602 -2.93032,4.32781 -2.43438,1.62293 -5.09417,2.29915 -8.47528,2.29915 -2.11883,0 -3.78685,-0.99173 -3.78685,-3.29094 0,-0.85655 0.22547,-1.66801 0.49589,-2.52456 0.54091,-1.71309 1.39748,-3.33602 2.88522,-4.32781 2.43438,-1.62293 5.13928,-2.25407 8.52037,-2.25407 z"
			id="path42"
			style="fill:currentColor" />
		<rect
			width="1.4651455"
			height="36.500156"
			rx="0.24906591"
			ry="0.24906591"
			x="-260.42126"
			y="-268.90802"
			id="rect44"
			style="fill:currentColor" />
		<path
			d="m -186.04936,-274.78436 c 0,-1.08195 -0.9467,-1.84834 -1.89346,-1.84834 -0.18057,0 -0.36052,0 -0.5411,0.0448 -1.3975,0.40573 -3.47129,1.80326 -5.13928,2.88521 -1.668,1.08196 -3.78686,2.38931 -4.68848,3.51635 -0.31569,0.36065 -0.49564,0.81146 -0.49564,1.26228 0,1.08195 0.94663,1.84833 1.89339,1.84833 0.17995,0 0.36053,0 0.5411,-0.0448 1.39751,-0.40573 3.51638,-1.80325 5.18437,-2.88521 1.66799,-1.08195 3.78686,-2.38931 4.68848,-3.51635 0.31569,-0.36064 0.45081,-0.81145 0.45081,-1.26228 z m -2.29919,-3.24586 c 2.11881,0 3.74178,0.94671 3.74178,3.24586 0,0.85654 -0.18057,1.66801 -0.45081,2.52456 -0.54109,1.71309 -1.44259,3.33602 -2.93032,4.32781 -2.43437,1.62293 -5.09421,2.29915 -8.47528,2.29915 -2.11886,0 -3.78686,-0.99173 -3.78686,-3.29094 0,-0.85655 0.22541,-1.66801 0.49564,-2.52456 0.5411,-1.71309 1.39745,-3.33602 2.88518,-4.32781 2.43443,-1.62293 5.13929,-2.25407 8.52042,-2.25407 z"
			id="path46"
			style="fill:currentColor" />
		<rect
			width="1.4651455"
			height="36.500156"
			rx="0.24906591"
			ry="0.24906591"
			x="-200.25006"
			y="-268.90802"
			id="rect48"
			style="fill:currentColor" />
		<path
			d="m -242.50165,-274.18804 c 8.20561,-8.4013 31.79209,-8.4013 39.99763,0 -8.20554,-7.04886 -31.79202,-7.04886 -39.99763,0 z"
			id="path50"
			style="fill:currentColor;stroke:currentColor;stroke-width:0.49813187;stroke-linecap:round;stroke-linejoin:round" />
		<path
			d="m 19.907258,-276.90319 c -2.25405,0 -3.11065,1.9385 -3.11065,3.96717 0,3.47127 2.56967,6.13107 6.04097,6.13107 2.25405,0 3.11058,-1.9385 3.11058,-3.96717 0,-3.47126 -2.56961,-6.13107 -6.0409,-6.13107 z m 12.62278,5.04912 c 0,1.9385 -1.57783,3.42618 -3.29091,4.3729 -2.38935,1.35244 -5.0942,1.84833 -7.8442,1.84833 -2.74994,0 -5.49994,-0.49589 -7.88923,-1.84833 -1.71307,-0.94672 -3.29097,-2.4344 -3.29097,-4.3729 0,-1.9385 1.5779,-3.42619 3.29097,-4.3729 2.38929,-1.35243 5.13929,-1.84833 7.88923,-1.84833 2.75,0 5.45485,0.49589 7.8442,1.84833 1.71308,0.94672 3.29091,2.4344 3.29091,4.3729 z"
			id="path52"
			style="fill:currentColor" />
		<path
			d="m -676.38176,-226.18661 c -2.25408,0 -3.11063,1.9385 -3.11063,3.96716 0,3.47127 2.56965,6.13107 6.04092,6.13107 2.25407,0 3.11061,-1.93849 3.11061,-3.96716 0,-3.47127 -2.56964,-6.13107 -6.0409,-6.13107 z m 12.62278,5.04911 c 0,1.93851 -1.57784,3.42619 -3.29093,4.3729 -2.38932,1.35241 -5.0942,1.84834 -7.84417,1.84834 -2.74996,0 -5.49993,-0.49589 -7.88924,-1.84834 -1.71309,-0.94667 -3.29095,-2.43439 -3.29095,-4.3729 0,-1.9385 1.57786,-3.42619 3.29095,-4.37288 2.38931,-1.35242 5.13928,-1.84834 7.88924,-1.84834 2.74997,0 5.45485,0.49589 7.84417,1.84834 1.71309,0.94666 3.29093,2.43438 3.29093,4.37288 z"
			id="path54"
			style="fill:currentColor" />
		<text
			x="-686.07428"
			y="-289.70743"
			id="text56"
			style="font-size:31.22789001px;text-anchor:start;fill:currentColor;font-family:droid_serifbold,Times,serif">
			<tspan
				id="tspan58">Tone B</tspan>
		</text>
		<path
			d="m -677.95133,-232.97142 c 10.80774,-22.12509 68.36452,-47.84508 92.05683,-41.13678 -23.14053,-5.47353 -80.69732,20.24645 -92.05683,41.13678 z"
			id="path60"
			style="fill:currentColor;stroke:currentColor;stroke-width:0.49813187;stroke-linecap:round;stroke-linejoin:round" />
		<path
			d="m -584.32554,-265.63284 c -2.25407,0 -3.11063,1.9385 -3.11063,3.96717 0,3.47127 2.56965,6.13106 6.04092,6.13106 2.25408,0 3.11061,-1.93849 3.11061,-3.96716 0,-3.47125 -2.56963,-6.13107 -6.0409,-6.13107 z m 12.62278,5.04912 c 0,1.9385 -1.57784,3.42619 -3.29093,4.37289 -2.38931,1.35241 -5.0942,1.84834 -7.84417,1.84834 -2.74996,0 -5.49992,-0.49589 -7.88924,-1.84834 -1.71309,-0.94667 -3.29094,-2.43439 -3.29094,-4.37289 0,-1.9385 1.57785,-3.42618 3.29094,-4.3729 2.38932,-1.35241 5.13928,-1.84833 7.88924,-1.84833 2.74997,0 5.45486,0.49589 7.84417,1.84833 1.71309,0.94668 3.29093,2.4344 3.29093,4.3729 z"
			id="path62"
			style="fill:currentColor" />
		<path
			d="m 154.97117,-263.51401 c 0,-1.08201 -0.9467,-1.84834 -1.89346,-1.84834 -0.18058,0 -0.36053,0 -0.5411,0.0448 -1.39751,0.40573 -3.47129,1.80325 -5.13929,2.88519 -1.66799,1.08201 -3.78686,2.38933 -4.68848,3.51635 -0.31569,0.36065 -0.49564,0.81148 -0.49564,1.26228 0,1.08201 0.94664,1.84833 1.8934,1.84833 0.18057,0 0.36052,0 0.5411,-0.0448 1.3975,-0.40573 3.51637,-1.80325 5.18437,-2.8852 1.66799,-1.08202 3.78686,-2.38932 4.68847,-3.51635 0.3157,-0.36065 0.45081,-0.81148 0.45081,-1.26228 z m -2.29919,-3.24586 c 2.1188,0 3.74178,0.94667 3.74178,3.24586 0,0.85655 -0.17995,1.668 -0.45081,2.52456 -0.5411,1.71309 -1.44259,3.33603 -2.93032,4.32781 -2.43438,1.62293 -5.09415,2.29915 -8.47528,2.29915 -2.11881,0 -3.78686,-0.99174 -3.78686,-3.29093 0,-0.85654 0.2254,-1.66802 0.49564,-2.52457 0.54109,-1.7131 1.39744,-3.33602 2.88524,-4.32781 2.43437,-1.62293 5.13923,-2.25407 8.52036,-2.25407 z"
			id="path64"
			style="fill:currentColor" />
		<rect
			width="1.4651455"
			height="34.621387"
			rx="0.24906591"
			ry="0.24906591"
			x="140.77045"
			y="-257.63763"
			id="rect66"
			style="fill:currentColor" />
		<path
			d="m -758.15944,-261.12469 c 0.18039,0 0.40573,-0.0448 0.58599,-0.0448 6.98762,0 11.54084,5.77042 11.54084,11.76624 0,3.42619 -1.48768,6.94254 -4.8237,9.46709 -0.99174,0.76641 -2.11883,1.26228 -3.29095,1.62294 0.13518,1.57785 0.22547,3.15569 0.22547,4.73354 0,0.85654 -0.0448,1.75817 -0.0902,2.61472 -0.31563,5.40977 -4.05732,10.27856 -9.37693,10.27856 -4.86878,0 -8.79087,-3.96717 -8.79087,-8.88103 0,-2.61473 2.38931,-4.64339 5.04912,-4.64339 2.43439,0 4.28273,2.11883 4.28273,4.64339 0,2.34423 -1.9385,4.28273 -4.28273,4.28273 -0.49589,0 -0.94667,-0.0902 -1.39748,-0.27055 1.17214,1.75818 3.06554,2.93029 5.27453,2.93029 4.32781,0 7.07777,-4.14749 7.34826,-8.61055 0.0448,-0.81148 0.0902,-1.66801 0.0902,-2.47947 0,-1.39748 -0.0448,-2.74998 -0.18026,-4.14749 -1.30734,0.22534 -2.61472,0.36065 -4.01225,0.36065 -8.4753,0 -15.01211,-7.754 -15.01211,-16.86045 0,-7.9794 5.90568,-13.79491 11.1802,-19.88089 -0.85654,-2.79505 -1.66801,-5.63518 -2.02867,-8.56547 -0.27054,-2.34423 -0.31563,-4.68847 -0.31563,-7.0327 0,-5.18436 2.47947,-10.09823 6.71713,-13.16377 0.13518,-0.0901 0.31563,-0.1352 0.45081,-0.1352 0.18026,0 0.31562,0 0.4508,0.1352 3.20078,3.78684 5.99583,11.04495 5.99583,16.13914 0,6.44665 -3.87701,11.49576 -8.11466,16.40963 0.94667,3.06554 1.75817,6.22123 2.52456,9.33186 z m 3.83193,20.96285 c 3.06553,-1.08201 5.0942,-4.28274 5.0942,-7.39335 0,-4.05733 -2.97537,-8.06958 -7.79909,-8.56548 1.08201,5.22945 2.07375,10.41381 2.70489,15.95883 z m -17.44651,-10.4138 c 0,6.08598 5.81551,11.1351 11.90149,11.1351 1.26228,0 2.47949,-0.0902 3.69668,-0.27055 -0.63107,-5.72533 -1.66802,-11.04494 -2.84013,-16.40963 -3.56143,0.36065 -5.5901,2.74997 -5.5901,5.36469 0,1.98359 1.12708,4.10242 3.65161,5.54502 0.22534,0.22534 0.31562,0.45081 0.31562,0.67628 0,0.49589 -0.4508,0.99173 -0.99173,0.99173 -0.13518,0 -0.27055,-0.0448 -0.40573,-0.0901 -3.60656,-1.93851 -5.27456,-5.18436 -5.27456,-8.34006 0,-3.96716 2.61472,-7.84416 7.21302,-8.88104 -0.63107,-2.61471 -1.30734,-5.27452 -2.07375,-7.88924 -4.82371,5.45485 -9.60233,10.95477 -9.60233,18.1678 z m 15.0572,-45.84779 c -4.46307,2.1639 -7.3032,6.71713 -7.3032,11.67608 0,3.33602 0.81147,5.99582 1.62293,8.74579 3.60651,-4.37289 6.58189,-8.92612 6.58189,-14.60637 0,-2.47948 -0.18027,-3.56143 -0.90161,-5.8155 z"
			id="path68"
			style="fill:currentColor" />
		<path
			d="m -711.59034,-261.80091 c -2.209,0 -3.38111,-1.89343 -3.38111,-3.38111 0,-1.71309 1.21721,-3.47127 3.24586,-3.47127 0.18026,0 0.40573,0 0.63107,0.0448 -1.26221,-1.66799 -3.24578,-2.65979 -5.4097,-2.65979 l -0.58599,0 0,21.36859 c 0.18027,0 0.40573,0.0448 0.58599,0.0448 3.60652,0 6.26632,-3.1557 7.12287,-6.8073 0.0901,-0.31563 0.31562,-0.45081 0.5409,-0.45081 0.27055,0 0.58599,0.18027 0.58599,0.54091 0,4.23765 -4.73354,7.84416 -8.24989,7.84416 -0.18026,0 -0.40573,-0.0448 -0.58599,-0.0448 l 0,3.51634 c 0,0.27055 -0.18026,0.45081 -0.45081,0.45081 l -0.7664,0 c -0.27055,0 -0.45081,-0.18038 -0.45081,-0.45081 l 0,-3.65158 c -2.29912,-0.36071 -4.46303,-1.30736 -6.04087,-2.97539 -2.20899,-2.29915 -2.97539,-5.49993 -2.97539,-8.70071 0,-3.20079 0.76641,-6.40156 2.97539,-8.70072 1.57784,-1.66801 3.74175,-2.61471 6.0409,-2.97537 l 0,-3.65159 c 0,-0.27049 0.18027,-0.45081 0.45081,-0.45081 l 0.76641,0 c 0.27055,0 0.45081,0.18032 0.45081,0.45081 l 0,3.51635 0.58599,0 c 3.92209,0 7.21302,2.88521 7.88923,6.76221 0.0448,0.22546 0.0448,0.40573 0.0448,0.58599 0,1.80325 -1.35241,3.24587 -3.02045,3.24587 z m -7.16795,11.58591 0,-20.73744 c -2.61472,0.99179 -2.84013,3.92209 -2.84013,8.06957 l 0,2.29915 0,2.29916 c 0,4.14749 0.22534,7.07778 2.84013,8.06956 z"
			id="path70"
			style="fill:currentColor" />
		<path
			d="m -492.26819,-282.53836 c -2.25407,0 -3.11063,1.9385 -3.11063,3.96716 0,3.47127 2.56965,6.13107 6.04092,6.13107 2.25407,0 3.11061,-1.9385 3.11061,-3.96716 0,-3.47127 -2.56963,-6.13107 -6.0409,-6.13107 z m 12.62278,5.04911 c 0,1.9385 -1.57784,3.42619 -3.29093,4.3729 -2.38931,1.35244 -5.09421,1.84834 -7.84417,1.84834 -2.74996,0 -5.49993,-0.49589 -7.88924,-1.84834 -1.7131,-0.94671 -3.29095,-2.4344 -3.29095,-4.3729 0,-1.9385 1.57785,-3.42618 3.29095,-4.37289 2.38931,-1.35244 5.13928,-1.84834 7.88924,-1.84834 2.74996,0 5.45486,0.49589 7.84417,1.84834 1.71309,0.94671 3.29093,2.43439 3.29093,4.37289 z"
			id="path72"
			style="fill:currentColor" />
		<text
			x="-501.96066"
			y="-302.73709"
			id="text74"
			style="font-size:31.22789001px;text-anchor:start;fill:currentColor;font-family:droid_serifbold,Times,serif">
			<tspan
				id="tspan76">G-Hypoionian</tspan>
		</text>
		<path
			d="m -137.72209,-269.14919 c 0,-1.08195 -0.9467,-1.84833 -1.89346,-1.84833 -0.17995,0 -0.36053,0 -0.5411,0.0448 -1.39751,0.40572 -3.47129,1.80325 -5.13929,2.88521 -1.66799,1.08195 -3.78686,2.38931 -4.68848,3.51635 -0.31569,0.36065 -0.49564,0.81147 -0.49564,1.26228 0,1.08201 0.9467,1.84833 1.89346,1.84833 0.17995,0 0.36053,0 0.5411,-0.0448 1.39751,-0.40573 3.51637,-1.80325 5.18437,-2.88521 1.66799,-1.08201 3.78686,-2.38931 4.68848,-3.51635 0.31569,-0.36065 0.45081,-0.81145 0.45081,-1.26227 z m -2.29919,-3.24585 c 2.11886,0 3.74178,0.94671 3.74178,3.24585 0,0.85656 -0.17995,1.66802 -0.45081,2.52456 -0.5411,1.71309 -1.44259,3.33603 -2.93032,4.32782 -2.43437,1.62292 -5.09415,2.29915 -8.47528,2.29915 -2.11881,0 -3.78686,-0.99173 -3.78686,-3.29094 0,-0.85654 0.2254,-1.66802 0.49564,-2.52455 0.54109,-1.7131 1.39751,-3.33604 2.88524,-4.32783 2.43437,-1.62293 5.13923,-2.25406 8.52036,-2.25406 z"
			id="path78"
			style="fill:currentColor" />
		<rect
			width="1.4651455"
			height="36.500156"
			rx="0.24906591"
			ry="0.24906591"
			x="-151.92273"
			y="-263.27283"
			id="rect80"
			style="fill:currentColor" />
		<path
			d="m -72.150072,-282.53836 c -2.25411,0 -3.11064,1.9385 -3.11064,3.96716 0,3.47127 2.56967,6.13107 6.0409,6.13107 2.25411,0 3.11065,-1.9385 3.11065,-3.96716 0,-3.47127 -2.56968,-6.13107 -6.04091,-6.13107 z m 12.62279,5.04911 c 0,1.9385 -1.57783,3.42619 -3.29097,4.3729 -2.38929,1.35244 -5.09421,1.84834 -7.84415,1.84834 -2.74993,0 -5.49993,-0.49589 -7.88922,-1.84834 -1.71314,-0.94671 -3.29097,-2.4344 -3.29097,-4.3729 0,-1.9385 1.57783,-3.42618 3.29097,-4.37289 2.38929,-1.35244 5.13929,-1.84834 7.88922,-1.84834 2.74994,0 5.45486,0.49589 7.84415,1.84834 1.71314,0.94671 3.29097,2.43439 3.29097,4.37289 z"
			id="path82"
			style="fill:currentColor" />
		<text
			x="-81.842583"
			y="-303.52713"
			id="text84"
			style="font-size:31.22789001px;text-anchor:start;fill:currentColor;font-family:droid_serifbold,Times,serif">
			<tspan
				id="tspan86">B-Locrian</tspan>
		</text>
		<path
			d="m -70.169992,-289.32317 c 28.84015,-17.59384 193.002252,-6.1957 219.134252,15.21497 -26.22565,-20.06147 -190.387812,-31.45961 -219.134252,-15.21497 z"
			id="path88"
			style="fill:currentColor;stroke:currentColor;stroke-width:0.49813187;stroke-linecap:round;stroke-linejoin:round" />
		<path
			d="m -359.74352,-252.24366 c 0,-1.08201 -0.94667,-1.84833 -1.89342,-1.84833 -0.18038,0 -0.36064,0 -0.54097,0.0448 -1.39747,0.40573 -3.47126,1.80325 -5.13928,2.88521 -1.66801,1.08201 -3.78684,2.38931 -4.68846,3.51634 -0.31563,0.36065 -0.49589,0.81148 -0.49589,1.26228 0,1.08201 0.94667,1.84834 1.89342,1.84834 0.18026,0 0.36064,0 0.54091,-0.0448 1.39747,-0.40573 3.51635,-1.80326 5.18436,-2.88521 1.66801,-1.08201 3.78683,-2.38932 4.68847,-3.51635 0.31563,-0.36065 0.45081,-0.81148 0.45081,-1.26228 z m -2.29916,-3.24587 c 2.11882,0 3.74176,0.94668 3.74176,3.24587 0,0.85654 -0.18026,1.66802 -0.45081,2.52456 -0.54097,1.71309 -1.44262,3.33602 -2.93031,4.32781 -2.43439,1.62292 -5.09418,2.29916 -8.47529,2.29916 -2.11884,0 -3.78685,-0.99174 -3.78685,-3.29095 0,-0.85654 0.22547,-1.66801 0.49589,-2.52455 0.54091,-1.71309 1.39747,-3.33603 2.88521,-4.32782 2.43439,-1.62294 5.13928,-2.25408 8.52039,-2.25408 z"
			id="path90"
			style="fill:currentColor" />
		<rect
			width="1.4651455"
			height="36.500156"
			rx="0.24906591"
			ry="0.24906591"
			x="-359.74463"
			y="-288.75961"
			id="rect92"
			style="fill:currentColor" />
		<path
			d="m -296.92709,-252.24366 c 0,-1.08201 -0.94667,-1.84833 -1.89341,-1.84833 -0.18039,0 -0.36065,0 -0.54098,0.0448 -1.39747,0.40573 -3.47126,1.80325 -5.13927,2.88521 -1.66802,1.08201 -3.78684,2.38931 -4.68847,3.51634 -0.31563,0.36065 -0.49589,0.81148 -0.49589,1.26228 0,1.08201 0.94668,1.84834 1.89342,1.84834 0.18038,0 0.36065,0 0.54091,-0.0448 1.39748,-0.40573 3.51635,-1.80326 5.18436,-2.88521 1.66801,-1.08201 3.78684,-2.38932 4.68847,-3.51635 0.31563,-0.36065 0.45081,-0.81148 0.45081,-1.26228 z m -2.29916,-3.24587 c 2.11884,0 3.74176,0.94668 3.74176,3.24587 0,0.85654 -0.18026,1.66802 -0.45081,2.52456 -0.54091,1.71309 -1.44261,3.33602 -2.93029,4.32781 -2.4344,1.62292 -5.0942,2.29916 -8.47531,2.29916 -2.11882,0 -3.78683,-0.99174 -3.78683,-3.29095 0,-0.85654 0.22534,-1.66801 0.49589,-2.52455 0.54091,-1.71309 1.39748,-3.33603 2.88521,-4.32782 2.43441,-1.62294 5.13928,-2.25408 8.52039,-2.25408 z"
			id="path94"
			style="fill:currentColor" />
		<rect
			width="1.4651455"
			height="36.500156"
			rx="0.24906591"
			ry="0.24906591"
			x="-296.92709"
			y="-288.75961"
			id="rect96"
			style="fill:currentColor" />
		<path
			d="m -356.02449,-247.01552 c 8.5426,8.58974 34.1006,8.58974 42.6432,0 -8.5426,7.23731 -34.1006,7.23731 -42.6432,0 z"
			id="path98"
			style="fill:currentColor;stroke:currentColor;stroke-width:0.49813187;stroke-linecap:round;stroke-linejoin:round" />
		<path
			d="m -404.88804,-280.41954 c 0,-1.08195 -0.94667,-1.84834 -1.89342,-1.84834 -0.18038,0 -0.36064,0 -0.54091,0.0448 -1.39747,0.40573 -3.47127,1.80326 -5.13928,2.88522 -1.66801,1.08195 -3.78684,2.38931 -4.68847,3.51635 -0.31562,0.36064 -0.49589,0.81146 -0.49589,1.26227 0,1.08196 0.94667,1.84834 1.89342,1.84834 0.18038,0 0.36064,0 0.5409,-0.0448 1.39748,-0.40573 3.51635,-1.80325 5.18436,-2.88521 1.66802,-1.08195 3.78685,-2.38931 4.68847,-3.51635 0.31563,-0.36065 0.45081,-0.81146 0.45081,-1.26227 z m -2.29915,-3.24586 c 2.11883,0 3.74175,0.94672 3.74175,3.24586 0,0.85656 -0.18026,1.66801 -0.45081,2.52457 -0.54091,1.71309 -1.44261,3.33602 -2.93029,4.32781 -2.43441,1.62292 -5.09421,2.29915 -8.47531,2.29915 -2.11883,0 -3.78683,-0.9918 -3.78683,-3.29094 0,-0.85654 0.22534,-1.66802 0.49589,-2.52456 0.54091,-1.7131 1.39747,-3.33603 2.88521,-4.32782 2.4344,-1.62293 5.13928,-2.25407 8.52039,-2.25407 z"
			id="path100"
			style="fill:currentColor" />
		<rect
			width="1.4651455"
			height="36.500156"
			rx="0.24906591"
			ry="0.24906591"
			x="-419.08865"
			y="-274.54318"
			id="rect102"
			style="fill:currentColor" />
		<path
			d="m -477.39123,-283.12441 c 10.03277,-9.31334 46.01589,-9.31334 56.04867,0 -10.03278,-7.9609 -46.0159,-7.9609 -56.04867,0 z"
			id="path104"
			style="fill:currentColor;stroke:currentColor;stroke-width:0.49813187;stroke-linecap:round;stroke-linejoin:round" />
	</g>
</svg>
