<?xml version="1.0" encoding="UTF-8" standalone="no"?>
<!-- Created with Inkscape (http://www.inkscape.org/) -->

<svg
	xmlns:dc="http://purl.org/dc/elements/1.1/"
	xmlns:cc="http://creativecommons.org/ns#"
	xmlns:rdf="http://www.w3.org/1999/02/22-rdf-syntax-ns#"
	xmlns:svg="http://www.w3.org/2000/svg"
	xmlns="http://www.w3.org/2000/svg"
	version="1.2"
	width="876.69568"
	height="180.56195"
	viewBox="0 0 876.69569 180.56195"
	id="svg2">
	<title
		id="title3019">Allan Pettersson Motive 6th Symphony</title>
	<metadata
		id="metadata92">
		<rdf:RDF>
			<cc:Work
				rdf:about="">
				<dc:format>image/svg+xml</dc:format>
				<dc:type
					rdf:resource="http://purl.org/dc/dcmitype/StillImage" />
				<dc:title>Allan Pettersson Motive 6th Symphony</dc:title>
				<dc:creator>
					<cc:Agent>
						<dc:title>Jürgen Lange</dc:title>
					</cc:Agent>
				</dc:creator>
				<dc:date>April 22, 2012</dc:date>
			</cc:Work>
		</rdf:RDF>
	</metadata>
	<defs
		id="defs90" />
	<rect
		width="4.0201888"
		height="84.943291"
		x="523.10693"
		y="47.714916"
		id="rect8"
		style="fill:currentColor" />
	<rect
		width="4.0201888"
		height="84.943291"
		x="862.67548"
		y="47.714916"
		id="rect10"
		style="fill:currentColor" />
	<line
		x1="10.202848"
		y1="132.6582"
		x2="865.6377"
		y2="132.6582"
		id="line12"
		style="stroke:currentColor;stroke-width:2;stroke-linecap:round;stroke-linejoin:round;stroke-miterlimit:4;stroke-dasharray:none" />
	<line
		x1="10.202848"
		y1="111.42239"
		x2="865.6377"
		y2="111.42239"
		id="line14"
		style="stroke:currentColor;stroke-width:2;stroke-linecap:round;stroke-linejoin:round;stroke-miterlimit:4;stroke-dasharray:none" />
	<line
		x1="10.202848"
		y1="90.186569"
		x2="865.6377"
		y2="90.186569"
		id="line16"
		style="stroke:currentColor;stroke-width:2;stroke-linecap:round;stroke-linejoin:round;stroke-miterlimit:4;stroke-dasharray:none" />
	<line
		x1="10.202848"
		y1="68.950729"
		x2="865.6377"
		y2="68.950729"
		id="line18"
		style="stroke:currentColor;stroke-width:2;stroke-linecap:round;stroke-linejoin:round;stroke-miterlimit:4;stroke-dasharray:none" />
	<line
		x1="10.202848"
		y1="47.714916"
		x2="865.6377"
		y2="47.714916"
		id="line20"
		style="stroke:currentColor;stroke-width:2;stroke-linecap:round;stroke-linejoin:round;stroke-miterlimit:4;stroke-dasharray:none" />
	<rect
		width="2.7506554"
		height="70.337296"
		rx="0.16000001"
		ry="0.16"
		x="747.74036"
		y="58.332825"
		id="rect22"
		style="fill:currentColor" />
	<path
		d="m 760.01245,122.04021 c 0,-2.63324 2.11591,-4.75682 4.73963,-4.75682 2.62367,0 4.73958,2.12358 4.73958,4.75682 0,2.63324 -2.11591,4.75683 -4.73958,4.75683 -2.62372,0 -4.73963,-2.12359 -4.73963,-4.75683 z"
		id="path24"
		style="fill:currentColor" />
	<path
		d="m 741.26359,120.93595 c 4.73957,0 9.22526,2.46336 9.22526,7.72984 0,6.11592 -4.73961,10.27814 -8.71745,12.65655 -3.04686,1.78381 -6.43232,3.05796 -9.90235,3.05796 -4.73961,0 -9.22529,-2.46336 -9.22529,-7.72984 0,-6.11592 4.7396,-10.27814 8.71748,-12.65655 3.04686,-1.78381 6.43228,-3.05796 9.90235,-3.05796 z"
		id="path26"
		style="fill:currentColor" />
	<path
		d="m 607.11198,129.17545 -0.0846,5.60626 0,0.93438 c 0,1.86875 0.0846,3.7375 0.33866,5.60625 3.80859,-3.22785 7.8711,-6.79546 7.8711,-11.80712 0,-2.80313 -1.1849,-5.6912 -3.63934,-5.6912 -2.62372,0 -4.40105,2.5483 -4.48569,5.35143 z m -3.5547,15.20485 -1.01562,-50.54126 c 0.67709,-0.424717 1.52343,-0.679547 2.28519,-0.679547 0.7617,0 1.60807,0.254848 2.28513,0.679547 l -0.59245,29.30543 c 2.11589,-1.7838 4.90889,-2.88807 7.70186,-2.88807 4.40105,0 7.53258,4.07728 7.53258,8.66422 0,6.79547 -7.27869,9.93837 -12.44143,14.35542 -1.26957,1.10426 -2.03128,3.22784 -3.8086,3.22784 -1.10026,0 -1.94666,-0.93437 -1.94666,-2.12358 z"
		id="path28"
		style="fill:currentColor" />
	<rect
		width="2.7506554"
		height="70.337296"
		rx="0.16000001"
		ry="0.16"
		x="654.25824"
		y="58.332825"
		id="rect30"
		style="fill:currentColor" />
	<path
		d="m 666.53041,122.04021 c 0,-2.63324 2.11585,-4.75682 4.73957,-4.75682 2.6237,0 4.73958,2.12358 4.73958,4.75682 0,2.63324 -2.11588,4.75683 -4.73958,4.75683 -2.62372,0 -4.73957,-2.12359 -4.73957,-4.75683 z"
		id="path32"
		style="fill:currentColor" />
	<path
		d="m 643.08403,154.95587 c 22.23381,20.59477 71.24894,20.59477 93.48276,0 -22.23382,18.04648 -71.24895,18.04648 -93.48276,0 z"
		id="path34"
		style="fill:currentColor;stroke:currentColor;stroke-width:0.31999999;stroke-linecap:round;stroke-linejoin:round" />
	<path
		d="m 647.77939,120.93595 c 4.73957,0 9.22526,2.46336 9.22526,7.72984 0,6.11592 -4.73958,10.27814 -8.71745,12.65655 -3.04686,1.78381 -6.43229,3.05796 -9.90235,3.05796 -4.73961,0 -9.22529,-2.46336 -9.22529,-7.72984 0,-6.11592 4.7396,-10.27814 8.71748,-12.65655 3.04683,-1.78381 6.43228,-3.05796 9.90235,-3.05796 z"
		id="path36"
		style="fill:currentColor" />
	<path
		d="m 145.3235,87.893013 c -4.14714,0 -6.34766,-3.567616 -6.34766,-6.370744 0,-3.227846 2.28516,-6.540635 6.09376,-6.540635 0.33853,0 0.76172,0 1.1849,0.08495 -2.3698,-3.142902 -6.09376,-5.011656 -10.15627,-5.011656 l -1.10026,0 0,40.263122 c 0.33853,0 0.76172,0.085 1.10026,0.085 6.77084,0 11.76434,-5.94603 13.37242,-12.826443 0.16928,-0.594605 0.59245,-0.849432 1.01562,-0.849432 0.50782,0 1.10027,0.339762 1.10027,1.019319 0,7.984666 -8.88674,14.780136 -15.48831,14.780136 -0.33853,0 -0.76172,-0.0849 -1.10026,-0.0849 l 0,6.62557 c 0,0.50966 -0.33853,0.84943 -0.84636,0.84943 l -1.4388,0 c -0.50781,0 -0.84636,-0.33976 -0.84636,-0.84943 l 0,-6.88041 c -4.31641,-0.67954 -8.37892,-2.46335 -11.34116,-5.60625 -4.14714,-4.33211 -5.58595,-10.363088 -5.58595,-16.394058 0,-6.030968 1.43881,-12.061942 5.58595,-16.394049 2.96224,-3.142902 7.02475,-4.926712 11.34116,-5.60626 l 0,-6.880405 c 0,-0.509661 0.33853,-0.849435 0.84636,-0.849435 l 1.4388,0 c 0.50782,0 0.84636,0.339774 0.84636,0.849435 l 0,6.625575 1.10026,0 c 7.36329,0 13.54169,5.436372 14.81122,12.741495 0.0846,0.424717 0.0846,0.764491 0.0846,1.104262 0,3.397732 -2.53906,6.115914 -5.67058,6.115914 z m -13.45705,21.830427 0,-39.073913 c -4.90886,1.868753 -5.33204,7.390066 -5.33204,15.204849 l 0,4.332102 0,4.33211 c 0,7.814782 0.42318,13.336092 5.33204,15.204852 z"
		id="path38"
		style="fill:currentColor" />
	<path
		d="m 57.894984,89.167162 c 0.33853,0 0.76172,-0.08495 1.10026,-0.08495 13.11851,0 21.6667,10.872742 21.6667,22.170198 0,6.45569 -2.79297,13.08127 -9.056,17.83809 -1.86198,1.44404 -3.97787,2.37841 -6.1784,3.05796 0.2539,2.97301 0.42318,5.94603 0.42318,8.91905 0,1.61392 -0.0846,3.31278 -0.16928,4.9267 -0.59245,10.1932 -7.6172,19.36708 -17.60419,19.36708 -9.14064,0 -16.50394,-7.47501 -16.50394,-16.73383 0,-4.92671 4.48569,-8.74916 9.47919,-8.74916 4.57032,0 8.04037,3.99233 8.04037,8.74916 0,4.41705 -3.63932,8.06961 -8.04037,8.06961 -0.931,0 -1.77735,-0.16987 -2.6237,-0.50966 2.20052,3.31279 5.75521,5.52131 9.90235,5.52131 8.12502,0 13.28779,-7.81478 13.7956,-16.22416 0.0846,-1.52898 0.16928,-3.14291 0.16928,-4.67189 0,-2.63324 -0.0846,-5.18153 -0.33853,-7.81478 -2.45443,0.42472 -4.90886,0.67955 -7.53257,0.67955 -15.91148,0 -28.18363,-14.61025 -28.18363,-31.76879 0,-15.034965 11.08726,-25.992645 20.98962,-37.459988 -1.60809,-5.26647 -3.13153,-10.617899 -3.80862,-16.139212 -0.50781,-4.417051 -0.59244,-8.834103 -0.59244,-13.251153 0,-9.768477 4.65495,-19.0273 12.61069,-24.80344 C 55.694444,10.084979 56.033004,10 56.286914,10 c 0.33853,0 0.59245,0 0.84635,0.254848 6.00913,7.135236 11.25653,20.811103 11.25653,30.409696 0,12.146891 -7.27866,21.660541 -15.2344,30.91936 1.77735,5.776143 3.30079,11.722173 4.73959,17.583257 z m 7.19402,39.498628 c 5.75522,-2.03864 9.56382,-8.06961 9.56382,-13.9307 0,-7.6449 -5.58595,-15.20485 -14.64195,-16.139225 2.03125,9.853425 3.89323,19.621895 5.07813,30.069925 z m -32.75396,-19.6219 c 0,11.46734 10.91799,20.98099 22.34379,20.98099 2.36979,0 4.65495,-0.16987 6.94011,-0.50966 -1.18489,-10.78779 -3.13151,-20.8111 -5.33204,-30.919355 -6.6862,0.679548 -10.4948,5.181545 -10.4948,10.108255 0,3.7375 2.11589,7.72984 6.85548,10.44802 0.42317,0.42472 0.59244,0.84944 0.59244,1.27415 0,0.93438 -0.84635,1.86875 -1.86198,1.86875 -0.25389,0 -0.50781,-0.085 -0.76172,-0.16987 -6.77084,-3.65256 -9.90236,-9.76847 -9.90236,-15.71451 0,-7.475003 4.90886,-14.780126 13.54169,-16.733822 -1.1849,-4.926724 -2.45443,-9.938379 -3.89324,-14.865088 -9.056,10.278138 -18.02737,20.641213 -18.02737,34.23214 z m 28.26827,-86.387323 c -8.37891,4.07728 -13.71095,12.656549 -13.71095,22.000312 0,6.285804 1.52344,11.297459 3.04688,16.479001 6.77084,-8.239501 12.35679,-16.818775 12.35679,-27.52163 0,-4.671879 -0.33853,-6.710516 -1.69272,-10.957683 z"
		id="path40"
		style="fill:currentColor" />
	<path
		d="m 822.21962,111.4223 9.90235,-27.691504 c -2.87765,1.019318 -5.83987,1.86875 -8.88673,1.86875 -3.89327,0 -7.36333,-2.803129 -7.36333,-6.710519 0,-3.397732 2.793,-6.115917 6.17843,-6.115917 2.11588,0 4.06251,1.274149 4.73957,3.312789 0.84637,2.378411 0.50781,5.011652 2.96225,5.011652 1.35418,0 4.57033,-4.077277 5.16278,-5.351426 0.50781,-1.019318 1.9466,-1.019318 2.36977,0 L 826.87455,111.4223 c -0.67706,0.59461 -1.43879,0.84944 -2.28513,0.84944 -0.84637,0 -1.69274,-0.25485 -2.3698,-0.84944 z"
		id="path42"
		style="fill:currentColor" />
	<rect
		width="2.7506554"
		height="70.337296"
		rx="0.16000001"
		ry="0.16"
		x="305.1218"
		y="37.097004"
		id="rect44"
		style="fill:currentColor" />
	<path
		d="m 317.39394,100.80439 c 0,-2.633242 2.11588,-4.756823 4.7396,-4.756823 2.62369,0 4.73958,2.123581 4.73958,4.756823 0,2.63324 -2.11589,4.75682 -4.73958,4.75682 -2.62372,0 -4.7396,-2.12358 -4.7396,-4.75682 z"
		id="path46"
		style="fill:currentColor" />
	<path
		d="m 293.94965,136.90542 c 22.23381,20.59477 71.24898,20.59477 93.48279,0 -22.23381,18.04648 -71.24898,18.04648 -93.48279,0 z"
		id="path48"
		style="fill:currentColor;stroke:currentColor;stroke-width:0.31999999;stroke-linecap:round;stroke-linejoin:round" />
	<path
		d="m 298.64505,99.70013 c 4.7396,0 9.22529,2.46336 9.22529,7.72984 0,6.11591 -4.73961,10.27814 -8.71748,12.65655 -3.0469,1.78381 -6.43232,3.05795 -9.90235,3.05795 -4.73961,0 -9.22529,-2.46335 -9.22529,-7.72984 0,-6.11591 4.7396,-10.27813 8.71745,-12.65654 3.04689,-1.78381 6.43231,-3.05796 9.90238,-3.05796 z"
		id="path50"
		style="fill:currentColor" />
	<path
		d="m 221.07445,69.800095 c 0,16.818766 17.68882,28.455996 17.68882,45.274765 0,6.03097 -1.35417,11.97701 -3.55469,17.58326 -0.42318,0.67955 -1.01563,1.01933 -1.60808,1.01933 -1.10025,0 -2.20052,-0.93438 -1.94661,-2.29347 2.20052,-5.18155 3.55469,-10.70286 3.55469,-16.30912 0,-8.8341 -8.04038,-17.6682 -14.13413,-24.038948 l -1.35417,0 0,-21.235817 1.35417,0 z"
		id="path52"
		style="fill:currentColor" />
	<rect
		width="2.7506554"
		height="70.337296"
		rx="0.16000001"
		ry="0.16"
		x="218.32379"
		y="68.950722"
		id="rect54"
		style="fill:currentColor" />
	<path
		d="m 211.84705,131.55386 c 4.73959,0 9.22528,2.46336 9.22528,7.72984 0,6.11592 -4.73959,10.27814 -8.71746,12.65655 -3.04688,1.78381 -6.43231,3.05796 -9.90236,3.05796 -4.73959,0 -9.22528,-2.46335 -9.22528,-7.72984 0,-6.11591 4.73959,-10.27813 8.71746,-12.65655 3.04688,-1.78381 6.4323,-3.05796 9.90236,-3.05796 z"
		id="path56"
		style="fill:currentColor" />
	<path
		d="m 574.01948,59.182184 c 0,16.818772 17.68882,28.455996 17.68882,45.274766 0,6.03098 -1.35415,11.97701 -3.55465,17.58326 -0.4232,0.67955 -1.01562,1.01932 -1.6081,1.01932 -1.10026,0 -2.20052,-0.93437 -1.9466,-2.29347 2.20049,-5.18154 3.5547,-10.70285 3.5547,-16.30911 0,-8.8341 -8.04038,-17.668202 -14.13417,-24.038943 l -1.35415,0 0,-21.235823 1.35415,0 z"
		id="path58"
		style="fill:currentColor" />
	<rect
		width="2.7506554"
		height="70.337296"
		rx="0.16000001"
		ry="0.16"
		x="571.2688"
		y="58.332825"
		id="rect60"
		style="fill:currentColor" />
	<path
		d="m 564.78999,120.93595 c 4.7396,0 9.22529,2.46336 9.22529,7.72984 0,6.11592 -4.73961,10.27814 -8.71748,12.65655 -3.04686,1.78381 -6.43232,3.05796 -9.90238,3.05796 -4.73958,0 -9.22526,-2.46336 -9.22526,-7.72984 0,-6.11592 4.73957,-10.27814 8.71745,-12.65655 3.04689,-1.78381 6.43231,-3.05796 9.90238,-3.05796 z"
		id="path62"
		style="fill:currentColor" />
	<path
		d="m 444.80215,79.568572 c 0.67712,-0.339774 1.43885,-0.594601 2.20056,-0.594601 0.7617,0 1.43879,0.254818 2.11591,0.594601 l -0.25392,15.544617 8.97137,-1.698866 0.25392,0 c 0.84634,0 1.52343,0.594604 1.52343,1.444039 l 0.59242,48.417678 c -0.67706,0.33976 -1.35415,0.5946 -2.11585,0.5946 -0.76176,0 -1.43885,-0.25485 -2.11592,-0.5946 l 0.25393,-15.54462 -8.97137,1.69886 -0.25392,0 c -0.84635,0 -1.52344,-0.5946 -1.52344,-1.44403 z m 11.76438,22.340078 -7.7865,1.44404 -0.25392,17.58326 7.78647,-1.44404 z"
		id="path64"
		style="fill:currentColor" />
	<path
		d="m 494.83873,37.94636 c 0,16.818773 17.68882,28.456003 17.68882,45.274775 0,6.030968 -1.35415,11.977001 -3.5547,17.583255 -0.42317,0.67955 -1.01562,1.01932 -1.60807,1.01932 -1.10023,0 -2.20053,-0.93437 -1.94663,-2.29347 2.20055,-5.181542 3.5547,-10.702852 3.5547,-16.309105 0,-8.834102 -8.04039,-17.668204 -14.13412,-24.038951 l -1.35421,0 0,-21.235824 1.35421,0 z"
		id="path66"
		style="fill:currentColor" />
	<rect
		width="2.7506554"
		height="70.337296"
		rx="0.16000001"
		ry="0.16"
		x="492.08804"
		y="37.097004"
		id="rect68"
		style="fill:currentColor" />
	<path
		d="m 485.60921,99.70013 c 4.73958,0 9.22526,2.46336 9.22526,7.72984 0,6.11591 -4.73957,10.27814 -8.71745,12.65655 -3.04689,1.78381 -6.43228,3.05795 -9.90235,3.05795 -4.73957,0 -9.22526,-2.46335 -9.22526,-7.72984 0,-6.11591 4.73958,-10.27813 8.71745,-12.65654 3.04686,-1.78381 6.43229,-3.05796 9.90235,-3.05796 z"
		id="path70"
		style="fill:currentColor" />
	<rect
		width="2.7506554"
		height="70.337296"
		rx="0.16000001"
		ry="0.16"
		x="398.60596"
		y="37.097004"
		id="rect72"
		style="fill:currentColor" />
	<path
		d="m 410.87813,100.80439 c 0,-2.633242 2.11589,-4.756823 4.73961,-4.756823 2.62369,0 4.73957,2.123581 4.73957,4.756823 0,2.63324 -2.11588,4.75682 -4.73957,4.75682 -2.62372,0 -4.73961,-2.12358 -4.73961,-4.75682 z"
		id="path74"
		style="fill:currentColor" />
	<path
		d="m 392.12711,99.70013 c 4.73964,0 9.22532,2.46336 9.22532,7.72984 0,6.11591 -4.73963,10.27814 -8.71751,12.65655 -3.04686,1.78381 -6.43228,3.05795 -9.90234,3.05795 -4.73958,0 -9.22526,-2.46335 -9.22526,-7.72984 0,-6.11591 4.73957,-10.27813 8.71745,-12.65654 3.04689,-1.78381 6.43228,-3.05796 9.90234,-3.05796 z"
		id="path76"
		style="fill:currentColor" />
	<path
		d="m 267.62611,137.92461 c 0,0.84943 -0.67709,1.61392 -1.52343,1.61392 -0.84637,0 -1.60807,-0.76449 -1.60807,-1.61392 l 0,-12.31678 -7.02477,2.63324 0,13.42104 c 0,0.84943 -0.7617,1.61393 -1.60807,1.61393 -0.84634,0 -1.52343,-0.7645 -1.52343,-1.61393 l 0,-12.31677 -2.70834,1.01931 c -0.16928,0.0849 -0.42317,0.0849 -0.59245,0.0849 -0.93098,0 -1.69272,-0.76448 -1.69272,-1.69886 l 0,-5.0966 c 0,-0.67954 0.42318,-1.35909 1.10027,-1.61392 l 3.89324,-1.35909 0,-13.59093 -2.70834,0.93438 c -0.16928,0.085 -0.42317,0.085 -0.59245,0.085 -0.93098,0 -1.69272,-0.76449 -1.69272,-1.69887 l 0,-5.0966 c 0,-0.67954 0.42318,-1.27415 1.10027,-1.528979 l 3.89324,-1.444033 0,-13.421037 c 0,-0.849432 0.67709,-1.613923 1.52343,-1.613923 0.84637,0 1.60807,0.764491 1.60807,1.613923 l 0,12.316772 7.02477,-2.633238 0,-13.421037 c 0,-0.849435 0.7617,-1.613923 1.60807,-1.613923 0.84634,0 1.52343,0.764488 1.52343,1.613923 l 0,12.316772 2.70833,-1.019322 c 0.16928,-0.08495 0.4232,-0.08495 0.59245,-0.08495 0.93101,0 1.69271,0.764491 1.69271,1.698869 l 0,5.096595 c 0,0.679548 -0.42317,1.359098 -1.10026,1.613928 l -3.89323,1.35909 0,13.59092 2.70833,-0.93437 c 0.16928,-0.085 0.4232,-0.085 0.59245,-0.085 0.93101,0 1.69271,0.76449 1.69271,1.69887 l 0,5.09659 c 0,0.67955 -0.42317,1.27415 -1.10026,1.52898 l -3.89323,1.44404 0,13.42104 z m -10.15627,-32.02362 0,13.59092 7.02477,-2.5483 0,-13.59092 z"
		id="path78"
		style="fill:currentColor" />
</svg>
