<?xml version="1.0" encoding="UTF-8" standalone="no"?>
<svg
     xmlns:dc="http://purl.org/dc/elements/1.1/"
     xmlns:cc="http://creativecommons.org/ns#"
     xmlns:rdf="http://www.w3.org/1999/02/22-rdf-syntax-ns#"
     xmlns:svg="http://www.w3.org/2000/svg"
     xmlns="http://www.w3.org/2000/svg"
     viewBox="0 0 400.7128 602.51214"
     height="602.51215"
     width="400.7128"
     version="1.1"
     id="svg4185">
    <metadata
         id="metadata4191">
        <rdf:RDF>
            <cc:Work
                 rdf:about="">
                <dc:format>image/svg+xml</dc:format>
                <dc:type
                     rdf:resource="http://purl.org/dc/dcmitype/StillImage" />
                <dc:title></dc:title>
                <cc:license
                     rdf:resource="http://creativecommons.org/publicdomain/zero/1.0/" />
            </cc:Work>
            <cc:License
                 rdf:about="http://creativecommons.org/publicdomain/zero/1.0/">
                <cc:permits
                     rdf:resource="http://creativecommons.org/ns#Reproduction" />
                <cc:permits
                     rdf:resource="http://creativecommons.org/ns#Distribution" />
                <cc:permits
                     rdf:resource="http://creativecommons.org/ns#DerivativeWorks" />
            </cc:License>
        </rdf:RDF>
    </metadata>
    <defs
         id="defs4189" />
    <path
         id="path4735"
         d="m 20.288931,537.69959 0.290069,-44.81244 5.593727,0 c 4.947718,0 5.442086,-0.48419 4.280692,-4.19255 -0.722182,-2.30591 -1.448854,-7.12735 -1.614861,-10.71431 -0.266534,-5.75985 0.242423,-6.53894 4.356606,-6.66889 10.117028,-0.31951 13.995626,-1.07081 11.180148,-2.16563 -3.831921,-1.49005 -7.322773,-6.3362 -7.394177,-10.2649 -0.04509,-2.47821 1.394276,-3.22557 5.996659,-3.11377 3.330752,0.0809 4.798147,0.62589 3.260876,1.21107 -6.504032,2.47587 -7.237562,7.95861 -1.064778,7.95861 4.383456,0 10.381569,4.26804 10.381569,7.38717 0,0.842 -1.443898,2.08499 -3.208666,2.76219 -2.748658,1.05475 -2.815441,1.47993 -0.465839,2.96585 2.228408,1.40928 2.257141,1.73995 0.153168,1.76313 -1.424295,0.0149 -3.602989,-1.35735 -4.841563,-3.05119 -1.238556,-1.69383 -3.217647,-2.48285 -4.397973,-1.75339 -3.529349,2.18127 -2.446682,4.68665 2.569292,5.94557 3.713672,0.93207 4.486407,2.02811 3.63774,5.15973 -0.948933,3.50155 -0.833442,3.58696 0.967344,0.7154 1.225642,-1.95444 4.338829,-3.26088 7.770557,-3.26088 4.878197,0 5.38231,-0.4137 3.405976,-2.79503 -1.275822,-1.53728 -1.695078,-2.79504 -0.931679,-2.79504 0.7634,0 0.344144,-1.25777 -0.931679,-2.79504 -1.671264,-2.01375 -1.718687,-2.79504 -0.169752,-2.79504 1.182487,0 2.624373,1.23623 3.204175,2.74715 0.922642,2.40437 1.407338,2.39399 3.884524,-0.0831 3.079162,-3.07918 7.339767,-2.5427 6.590325,0.82982 -0.256212,1.15296 1.840066,2.19355 4.658395,2.31243 3.63202,0.15317 4.095884,0.47948 1.592891,1.1204 -2.837372,0.72654 -3.020466,1.22773 -0.931679,2.55034 1.953489,1.23696 1.557544,1.65321 -1.592891,1.67466 -2.305906,0.0149 -4.192556,0.96483 -4.192556,2.10921 0,1.16329 1.643128,1.65099 3.726716,1.10612 2.049694,-0.53601 3.726716,-0.21454 3.726716,0.71436 0,0.9289 1.257767,1.68891 2.795037,1.68891 1.537271,0 2.795037,1.20828 2.795037,2.68506 0,1.47679 0.970437,3.28484 2.156539,4.01789 3.658462,2.26105 0.197348,-16.18189 -3.551188,-18.92289 -4.3395,-3.17311 -1.835985,-5.41315 3.098411,-2.77234 2.581701,1.38162 3.886313,1.43229 3.886313,0.15093 0,-1.0609 0.928213,-1.92891 2.062718,-1.92891 1.237866,0 1.521469,1.30396 0.709194,3.26088 -0.74443,1.79348 -1.216381,7.14687 -1.048753,11.89644 0.195466,5.53864 -0.697791,9.63813 -2.490826,11.43116 -2.485216,2.48522 -2.395794,3.1574 0.805455,6.05448 1.980564,1.7924 3.040591,4.19498 2.35562,5.33908 -0.684989,1.14408 0.173293,0.92935 1.907296,-0.47719 2.848535,-2.31062 3.941301,-1.66407 3.399995,2.01165 -0.10677,0.72471 2.740549,1.14397 6.327259,0.93167 7.46232,-0.44167 8.84739,-3.60567 1.98095,-4.5252 -5.51746,-0.73889 -16.26307,-6.08144 -12.264584,-6.09776 3.639493,-0.0149 8.607414,-7.3947 5.122409,-7.60932 -1.289742,-0.0794 1.847575,-1.6192 6.971815,-3.42172 5.12423,-1.80252 9.10716,-3.83381 8.85095,-4.51399 -0.25622,-0.68016 -0.46584,-2.01686 -0.46584,-2.97043 0,-0.95358 -1.88665,-2.09714 -4.19256,-2.54129 l -4.19255,-0.80752 4.30251,-0.25375 c 2.36639,-0.13957 3.78431,-1.09227 3.15092,-2.11711 -0.63339,-1.02485 -0.36535,-1.86336 0.59564,-1.86336 0.96099,0 2.78922,-2.51554 4.06275,-5.59008 1.27352,-3.07454 3.14198,-5.59007 4.15214,-5.59007 1.01015,0 1.33728,-1.30131 0.72695,-2.89182 -0.61032,-1.59049 -0.37611,-2.43843 0.52048,-1.88432 2.69277,1.66424 4.04876,-6.20528 4.87603,-28.29847 l 0.78496,-20.96277 -11.90102,0 c -7.90949,0 -13.82262,-1.09368 -17.63033,-3.26088 l -5.72931,-3.26088 -0.01118,-19.09942 -0.01118,-19.09942 -6.351666,0 c -5.579509,0 -7.475233,1.42972 -15.593996,11.76066 -10.774234,13.70994 -19.782881,19.17766 -25.569968,15.51948 -2.049694,-1.29567 -7.981433,-8.73954 -13.181637,-16.5419 -11.665478,-17.50287 -14.720771,-29.36056 -12.891046,-50.03064 1.106741,-12.50276 2.37785,-16.47015 8.561944,-26.72352 3.994257,-6.62254 7.26227,-12.62943 7.26227,-13.34865 0,-0.71922 3.033416,-5.00956 6.74094,-9.53411 4.315649,-5.26669 7.735023,-7.84496 9.503946,-7.16616 1.634202,0.6271 4.276332,-0.86357 6.467101,-3.6487 2.037246,-2.58993 6.201143,-6.00025 9.253137,-7.5785 4.874359,-2.52062 5.397422,-3.55994 4.301879,-8.54791 -1.025294,-4.6681 -0.760977,-5.39414 1.4856,-4.08083 4.166394,2.43563 17.689193,18.68823 22.369296,26.88492 3.28838,5.75923 5.26719,7.29572 9.41069,7.30705 7.78358,0.0212 12.45517,-3.17585 12.45517,-8.5241 0,-7.01275 -14.40488,-31.88289 -21.681257,-37.43283 -6.046112,-4.61161 -6.212678,-5.03999 -3.237733,-8.32727 4.184207,-4.6235 2.096669,-4.36768 -7.337196,0.8992 -4.299904,2.40062 -11.16936,4.98262 -15.265449,5.73778 -4.280935,0.78926 -9.031958,3.25137 -11.174149,5.79079 -2.143364,2.5408 -6.823207,4.96513 -11.014887,5.70613 -6.65571,1.17656 -7.15945,0.98251 -5.804919,-2.23627 6.893083,-16.38011 7.962837,-28.594 3.743971,-42.74656 -0.947033,-3.17695 0.368181,-4.49197 7.832197,-7.83102 4.933687,-2.20709 11.583136,-4.51382 14.776522,-5.12604 4.276239,-0.81982 8.449733,-4.39913 15.838544,-13.58366 11.17057,-13.88534 17.504426,-21.15897 29.000746,-33.30373 l 7.78822,-8.22752 0.63118,5.19963 0.63115,5.19964 3.86289,-6.06319 c 3.835,-6.01938 3.88732,-6.0362 7.24211,-2.3292 1.85857,2.0537 4.76213,3.73399 6.45233,3.73399 8.956,0 37.62764,-25.07817 44.84421,-39.223795 2.06517,-4.04808 3.27828,-7.36015 2.69579,-7.36015 -0.58247,0 -5.60267,2.90652 -11.156,6.45894 -12.41803,7.943715 -27.05655,15.432295 -37.07928,18.968525 -6.55933,2.31426 -7.81667,2.31385 -9.51088,-0.003 -1.07376,-1.46846 -6.95576,-4.80063 -13.07112,-7.40483 l -11.11882,-4.73484 0.55107,-8.031135 c 0.30307,-4.41713 1.7997,-9.9368 3.32581,-12.26595 2.46763,-3.76608 2.4582,-4.35628 -0.0851,-5.33228 -1.57299,-0.60362 -2.85998,-2.28629 -2.85998,-3.73928 0,-1.45299 -2.09628,-3.4388 -4.65839,-4.41292 -2.56212,-0.97411 -4.658399,-2.92383 -4.658399,-4.3327 0,-3.35511 10.654379,-18.02759 13.090689,-18.02759 1.05451,0 1.3985,-1.947 0.77965,-4.41276 -0.85271,-3.39742 0.10379,-5.32208 4.15705,-8.36483 2.89551,-2.17364 6.40815,-4.92191 7.80584,-6.10726 8.22696,-6.97716 17.82956,-9.54427 31.40796,-8.39648 19.5475,1.65237 24.9057,4.4793 34.07064,17.97528 7.70482,11.34585 7.82346,11.76358 7.14678,25.16376 -0.51876,10.27323 -1.5922,14.62542 -4.36218,17.68621 -3.6571,4.04104 -3.65697,4.07197 0.028,6.68367 8.67861,6.15114 19.54052,18.555215 19.54052,22.314905 0,2.22004 5.68719,11.68283 12.63819,21.02843 14.24228,19.14869 20.39889,33.33718 35.69737,82.26794 5.287,16.90997 12.89481,40.80754 16.90623,53.1057 7.96921,24.43189 20.47268,71.68519 20.47268,77.37062 0,3.84155 -15.69128,16.87903 -28.05945,23.31392 -4.00643,2.08446 -8.09169,4.59999 -9.07834,5.59007 -2.99457,3.00498 -5.39232,35.52239 -3.71932,50.44036 1.31784,11.75119 1.0203,15.121 -1.94605,22.04125 -1.92595,4.49306 -3.08677,8.58417 -2.5796,9.09134 0.50719,0.50717 -0.68038,4.14782 -2.63903,8.09029 -5.01391,10.09229 -3.1079,33.75155 2.54432,31.5826 1.69562,-0.65069 2.3302,-0.29728 1.59686,0.88929 -0.66932,1.08296 -2.38989,1.51893 -3.8235,0.96881 -2.05171,-0.7873 -2.60656,1.3405 -2.60656,9.99587 0,13.45589 -0.98849,13.97905 -25.53602,13.51507 -9.54863,-0.18056 -17.65038,0.48397 -18.27771,1.49904 -0.61974,1.00276 -0.26512,1.8232 0.78803,1.8232 1.05317,0 1.43221,1.25776 0.84229,2.79504 -0.69859,1.82048 0.0511,2.79503 2.15002,2.79503 2.65322,0 2.81272,0.49381 0.90287,2.79504 -1.27582,1.53727 -4.403,2.79504 -6.94928,2.79504 -3.37564,0 -4.32323,-0.75705 -3.49855,-2.79504 1.46389,-3.6176 2.57341,-7.74868 1.72791,-6.43351 -0.36063,0.56095 -3.78688,0.80975 -7.61388,0.55288 -3.82701,-0.25688 -5.49078,-0.0255 -3.6973,0.51423 5.83593,1.75614 4.01226,3.82188 -8.58065,9.71963 -0.87619,0.41035 -1.0396,-0.9977 -0.36317,-3.12897 1.11267,-3.5057 0.6162,-3.79648 -5.20868,-3.05071 -4.78199,0.61225 -6.74183,0.0341 -7.6172,-2.24706 -0.88439,-2.30471 -1.71055,-2.53947 -3.30953,-0.94051 -1.59899,1.59899 -1.3056,3.04288 1.17531,5.78426 1.81842,2.00933 2.75533,4.54467 2.08203,5.6341 -0.7114,1.15105 0.36495,1.98077 2.56955,1.98077 2.08655,0 5.11915,2.02284 6.73909,4.4952 2.27201,3.46754 4.30527,4.36848 8.8939,3.94087 8.98361,-0.83716 12.16749,-2.66976 11.18248,-6.43644 -1.07743,-4.12009 2.94182,-5.37441 15.43736,-4.81764 5.02835,0.22405 9.83516,-0.51764 10.68182,-1.6482 1.09843,-1.46674 1.8101,-1.38837 2.48447,0.27366 0.51982,1.28105 2.133,2.32919 3.58486,2.32919 1.45187,0 2.54046,0.62889 2.4191,1.39752 -0.70742,4.48032 0.5024,9.78263 2.23208,9.78263 1.26652,0 1.57905,-2.24264 0.84388,-6.05591 -0.99148,-5.14268 -0.80305,-5.61294 1.24945,-3.11839 2.81502,3.42124 10.80211,5.90834 10.80211,3.36366 0,-2.93531 9.4735,-5.69576 12.09126,-3.52322 1.63701,1.3586 2.95657,1.16074 4.47705,-0.67131 2.30095,-2.77249 10.71099,-3.05054 14.76691,-0.48822 1.34924,0.85238 2.95823,1.04473 3.5755,0.42744 0.61728,-0.61728 2.65779,0.26722 4.53443,1.96558 2.03986,1.84603 3.41209,2.22237 3.41209,0.93574 0,-1.1837 1.23145,-2.15216 2.73656,-2.15216 1.66007,0 2.31701,1.09331 1.67002,2.77933 -0.61517,1.60312 0.23215,3.27768 2.0022,3.95691 3.91791,1.50344 6.41066,-0.84477 3.08115,-2.90251 -3.96612,-2.45121 -0.63153,-6.07352 3.53725,-3.84247 2.52588,1.35181 4.20312,1.14582 6.09782,-0.74886 1.43745,-1.43747 4.77789,-2.48395 7.42319,-2.32551 3.93655,0.23579 4.41579,0.77581 2.64004,2.97496 -1.68233,2.0835 -1.64648,2.37263 0.15969,1.28754 1.3207,-0.79345 2.3292,-0.47769 2.3292,0.72929 0,1.17072 1.04814,1.7621 2.3292,1.31417 1.28106,-0.44794 2.0987,-2.40446 1.81696,-4.34783 -0.47545,-3.27974 -0.36848,-3.2993 1.49011,-0.27254 2.81387,4.58248 11.21945,4.26817 12.4574,-0.46584 1.20208,-4.59675 3.67868,-4.83113 4.92249,-0.46584 0.51103,1.79349 0.78213,0.32609 0.60248,-3.26087 -0.20513,-4.09548 -1.1932,-6.34845 -2.65586,-6.05592 -1.28106,0.25621 -2.3292,-0.37267 -2.3292,-1.39752 0,-3.67989 5.71187,-1.77142 7.68962,2.56928 1.4181,3.11242 3.09803,4.15063 5.64036,3.4858 1.99139,-0.52077 3.37048,-2.23635 3.06463,-3.81239 -0.81293,-4.18926 -5.18908,-5.00584 -5.36157,-1.00044 -0.10472,2.43304 -0.44669,2.65855 -1.18808,0.7836 -1.22521,-3.09849 4.27356,-7.61592 9.27034,-7.61592 2.64817,0 3.20924,0.9039 2.31332,3.72672 -1.42916,4.50288 0.60967,4.87937 3.68056,0.67967 2.38665,-3.26393 1.56798,-12.44449 -0.96984,-10.87602 -0.83683,0.51719 -2.04822,0.0881 -2.69194,-0.95341 -0.64371,-1.04156 -0.0729,-1.90659 1.26876,-1.92228 1.77241,-0.0207 1.67514,-0.5223 -0.35586,-1.83483 -1.67943,-1.08533 -1.90925,-1.81769 -0.57582,-1.83483 1.22058,-0.0149 2.73746,0.80999 3.37086,1.83483 0.63339,1.02485 2.15027,1.85052 3.37085,1.83483 1.47712,-0.019 1.36985,-0.56666 -0.32082,-1.6378 -2.14448,-1.35865 -2.14448,-1.77265 0,-2.65836 2.02136,-0.83486 1.90954,-1.45079 -0.54754,-3.0162 -1.69818,-1.08192 -2.86665,-3.43649 -2.59663,-5.23238 0.27002,-1.7959 0.13062,-2.21713 -0.30993,-0.93608 -0.44048,1.28106 -2.20678,2.35587 -3.92511,2.38846 -2.70929,0.0514 -2.64385,0.42262 0.49276,2.79503 3.44533,2.60593 3.35688,2.73715 -1.86335,2.76431 -3.78314,0.0198 -4.69729,0.52473 -2.95179,1.63074 3.06258,1.94054 1.15512,9.52088 -2.39577,9.52088 -1.59328,0 -2.09617,-1.64726 -1.48268,-4.8566 0.56991,-2.98129 -0.0695,-5.48854 -1.65591,-6.4932 -2.05629,-1.30225 -1.91806,-1.64246 0.67657,-1.66517 1.79348,-0.0149 3.26088,-0.86704 3.26088,-1.89189 0,-1.02485 -1.16807,-1.86336 -2.59568,-1.86336 -1.42763,0 -3.06194,-1.21506 -3.63181,-2.70013 -0.69254,-1.8047 -0.14069,-2.35654 1.66399,-1.664 1.48508,0.56987 2.70014,0.10789 2.70014,-1.02658 0,-1.13451 2.42583,-2.06272 5.39071,-2.06272 3.20878,0 5.85097,-1.19937 6.52781,-2.96319 1.69156,-4.40816 -0.41733,-6.50518 -5.30768,-5.27777 -2.3875,0.59922 -4.90114,0.18298 -5.58585,-0.92484 -0.71552,-1.15776 0.1885,-2.02517 2.12591,-2.03978 1.85397,-0.0149 5.19398,-0.51444 7.42224,-1.11209 3.36133,-0.90157 4.18656,-0.18317 4.84503,4.21799 0.77219,5.16103 0.80122,5.1407 1.07286,-0.75127 0.27744,-6.01785 0.22355,-6.0561 -8.57176,-6.08444 -4.86802,-0.0149 -8.01244,-0.64458 -6.98759,-1.39752 2.71217,-1.9926 2.43625,-10.43365 -0.39828,-12.18415 -1.33446,-0.8241 -3.46778,-0.97155 -4.74071,-0.32765 -1.27294,0.64388 -0.68678,-0.14925 1.30258,-1.76251 3.53203,-2.8643 3.51496,-2.93323 -0.72627,-2.93323 -2.3888,0 -5.51736,1.4674 -6.95239,3.26088 -2.45661,3.07029 -2.57753,3.05091 -2.06877,-0.33183 0.64906,-4.31559 9.87658,-7.27509 14.67549,-4.7068 4.3392,2.32228 7.82098,2.27544 6.36178,-0.0855 -1.28903,-2.08571 4.13492,-2.37299 13.97519,-0.74018 l 6.52175,1.08216 -0.28892,49.67383 c -0.15894,27.32061 -0.36853,55.15942 -0.46583,61.86401 l -0.17702,12.19018 -179.89047,0.47933 -179.890551,0.47915 0.290088,-44.81244 z m 327.309089,39.77625 c -0.61919,-0.61918 -2.22634,-0.68536 -3.57144,-0.14702 -1.48646,0.59482 -1.04494,1.03636 1.12578,1.12576 1.96428,0.0809 3.06484,-0.35949 2.44566,-0.97867 z m -115.02354,-2.60093 c 2.40874,-1.55665 2.35955,-1.81024 -0.35587,-1.83483 -1.733,-0.0149 -3.66914,0.80998 -4.30253,1.83483 -1.45748,2.35826 1.00925,2.35826 4.6584,0 z m 70.8076,0 c 0,-1.02485 -0.36976,-1.86336 -0.8217,-1.86336 -0.45194,0 -1.33994,0.83851 -1.97334,1.86336 -0.63339,1.02484 -0.26362,1.86335 0.82171,1.86335 1.08533,0 1.97333,-0.83851 1.97333,-1.86335 z m 31.67709,0 c 0,-1.02485 -0.36977,-1.86336 -0.82171,-1.86336 -0.45193,0 -1.33994,0.83851 -1.97333,1.86336 -0.63339,1.02484 -0.26363,1.86335 0.8217,1.86335 1.08534,0 1.97334,-0.83851 1.97334,-1.86335 z m -229.19304,-2.90502 c 0,-1.59775 -0.85219,-2.37831 -1.89377,-1.7346 -1.04156,0.64372 -1.41133,1.95098 -0.8217,2.90502 1.59734,2.58455 2.71547,2.10263 2.71547,-1.17042 z m 108.5406,-0.19241 c -1.28105,-0.51691 -3.37733,-0.51691 -4.65839,0 -1.28106,0.51692 -0.23292,0.93986 2.3292,0.93986 2.56211,0 3.61025,-0.42294 2.32919,-0.93986 z m 109.04526,-2.14327 c 1.11794,-3.35378 -2.73354,-2.64904 -4.03327,0.738 -0.69639,1.81475 -0.27995,2.66662 1.0817,2.21274 1.2177,-0.40589 2.5459,-1.73374 2.95157,-2.95074 z m 6.99809,0.0112 c -0.57371,-0.57371 -2.07726,-10e-4 -3.34125,1.27227 -1.82657,1.84029 -1.61255,2.05431 1.04311,1.0431 1.83768,-0.69974 2.87185,-1.74166 2.29814,-2.31537 z m -164.95649,-3.04562 c 0,-0.45194 -0.83852,-1.33994 -1.86336,-1.97333 -1.02485,-0.6334 -1.86336,-0.26363 -1.86336,0.8217 0,1.08533 0.83851,1.97333 1.86336,1.97333 1.02484,0 1.86336,-0.36976 1.86336,-0.8217 z m 19.2537,-7.18013 c 1.00048,0.61832 1.25259,0.20769 0.56026,-0.91253 -0.69231,-1.12021 0.21928,-2.8639 2.02577,-3.87487 1.8065,-1.01096 2.59409,-2.52858 1.75019,-3.37245 -0.84388,-0.8439 -2.60423,-0.0712 -3.91189,1.71716 -1.30765,1.78832 -5.0124,3.77846 -8.23277,4.42253 -3.22036,0.64407 -5.85519,1.76499 -5.85519,2.49092 0,2.98709 2.39965,3.30511 6.98571,0.92584 2.67239,-1.38645 5.67747,-2.01492 6.67792,-1.3966 z m 19.87681,3.45341 c 0,-0.45193 -0.83851,-1.33994 -1.86335,-1.97333 -1.02485,-0.63339 -1.86336,-0.26363 -1.86336,0.8217 0,1.08534 0.83851,1.97334 1.86336,1.97334 1.02484,0 1.86335,-0.36977 1.86335,-0.82171 z m 128.82146,-5.98629 c -1.09989,-1.89226 -2.02529,-2.39233 -2.05644,-1.11127 -0.0311,1.28105 -1.4747,2.32919 -3.20785,2.32919 -2.74256,0 -2.68215,0.34618 0.46584,2.6696 4.44996,3.28435 7.52098,0.79634 4.79845,-3.88752 z m -121.69003,0.74277 c -2.91384,-1.9812 -2.91384,-2.2739 0,-4.48956 2.7628,-2.10082 2.53467,-2.37694 -2.00719,-2.42946 -3.12148,-0.0362 -4.94217,0.84846 -4.6584,2.26319 0.55979,2.79092 5.3223,6.89564 7.91928,6.8255 1.02484,-0.0276 0.46067,-1.00403 -1.25369,-2.16967 z m 96.08685,-0.61223 c 0.6964,-1.81474 0.27995,-2.66661 -1.0817,-2.21274 -2.78542,0.92848 -4.31905,5.16348 -1.86987,5.16348 1.0006,0 2.3288,-1.32783 2.95157,-2.95074 z m -84.34652,-1.66107 c 0.0227,-0.99923 -1.0697,-2.1112 -2.42762,-2.47105 -1.86753,-0.49491 -1.83569,-0.21179 0.13062,1.16221 2.1238,1.48401 1.95327,2.00201 -0.93168,2.82992 -3.01174,0.86428 -3.03705,0.9606 -0.17199,0.65454 1.84762,-0.19737 3.3779,-1.17639 3.40063,-2.17562 z m 19.75411,1.62267 c -0.61919,-0.61918 -2.22634,-0.68536 -3.57144,-0.14702 -1.48646,0.59482 -1.04494,1.03636 1.12578,1.12577 1.96428,0.0809 3.06484,-0.3595 2.44566,-0.97868 z m 123.48628,-9.23266 c 0,-1.59776 -0.85218,-2.37832 -1.89374,-1.7346 -1.04157,0.64371 -1.41135,1.95097 -0.82171,2.90501 1.59733,2.58455 2.71545,2.10263 2.71545,-1.17041 z m -201.24266,-0.8217 c 0,-1.02485 -0.88801,-1.86336 -1.97334,-1.86336 -1.08533,0 -1.45509,0.83851 -0.8217,1.86336 0.63339,1.02484 1.52137,1.86335 1.97331,1.86335 0.45194,0 0.82173,-0.83851 0.82173,-1.86335 z m 48.44731,0.22815 c 0,-2.83643 -5.65256,-6.46785 -10.3905,-6.67526 -2.50691,-0.10975 -4.24657,0.66708 -3.86595,1.72627 0.38063,1.05919 2.53499,1.71742 4.78746,1.46275 2.25248,-0.25468 3.62221,0.30259 3.04387,1.23837 -0.57835,0.93578 0.002,2.12609 1.28927,2.64513 3.67857,1.48305 5.13585,1.37034 5.13585,-0.39726 z m 135.09345,-0.22815 c -0.63339,-1.02485 -2.15027,-1.85052 -3.37085,-1.83483 -1.33344,0.0168 -1.10361,0.74949 0.57582,1.83483 3.57973,2.31341 4.22479,2.31341 2.79503,0 z m -129.50338,-2.79504 c 0,-1.53727 -0.83851,-2.79504 -1.86336,-2.79504 -1.02485,0 -1.86336,1.25777 -1.86336,2.79504 0,1.53727 0.83851,2.79504 1.86336,2.79504 1.02485,0 1.86336,-1.25777 1.86336,-2.79504 z m 93.1679,0.93168 c 0,-1.02485 -1.67702,-1.86336 -3.72671,-1.86336 -2.0497,0 -3.72672,0.83851 -3.72672,1.86336 0,1.02484 1.67702,1.86336 3.72672,1.86336 2.04969,0 3.72671,-0.83852 3.72671,-1.86336 z m -44.72059,-2.06272 c 0,-1.19518 1.37145,-1.54059 3.26088,-0.82128 2.45568,0.93489 2.7346,0.71091 1.1296,-0.90706 -1.1722,-1.18169 -3.61825,-1.86025 -5.43566,-1.50792 -4.2148,0.81708 -5.82618,5.29898 -1.90513,5.29898 1.62267,0 2.95031,-0.92822 2.95031,-2.06272 z m 16.77022,0.19936 c 0,-1.02485 -0.36976,-1.86336 -0.8217,-1.86336 -0.45194,0 -1.33994,0.83851 -1.97334,1.86336 -0.63339,1.02485 -0.26362,1.86336 0.82171,1.86336 1.08533,0 1.97333,-0.83851 1.97333,-1.86336 z m 79.93756,-4.19256 c -3.20826,-6.16637 -3.53988,-6.2391 -3.53988,-0.7764 0,3.22523 1.00385,4.96896 2.86059,4.96896 2.37064,0 2.48699,-0.71812 0.67929,-4.19256 z m -218.05318,0.64564 c 1.41237,-0.89458 1.99176,-2.55875 1.28754,-3.69819 -0.73028,-1.18163 -0.0322,-2.07168 1.62465,-2.07168 1.59775,0 2.90501,0.76001 2.90501,1.68891 0,0.9289 1.80813,1.21606 4.01809,0.63816 2.62361,-0.68609 3.58307,-0.3469 2.76464,0.97737 -0.6894,1.11546 -0.34548,2.58929 0.76428,3.27515 3.45813,2.13724 3.86393,-0.26165 0.99151,-5.86138 -1.51688,-2.95713 -3.28474,-7.05363 -3.92857,-9.10332 -1.08157,-3.44325 -1.37902,-3.33275 -3.91045,1.4528 -1.50689,2.84874 -3.55219,4.67746 -4.5451,4.0638 -0.99289,-0.61364 -1.32285,-1.89628 -0.73323,-2.85032 0.58962,-0.95402 -0.57596,-1.7346 -2.5902,-1.7346 -2.74808,0 -3.41833,0.93272 -2.68508,3.73664 0.53743,2.05516 0.047,4.85746 -1.08995,6.22737 -3.32732,4.00916 0.3011,6.31587 5.12686,3.25929 z m 79.84687,0.55778 c -0.6192,-0.61918 -2.22634,-0.68537 -3.57144,-0.14702 -1.48646,0.59482 -1.04494,1.03636 1.12578,1.12576 1.96428,0.0809 3.06483,-0.35949 2.44566,-0.97867 z m -88.00486,-8.19101 c 0.6334,-1.02485 0.26361,-1.86336 -0.82172,-1.86336 -1.08533,0 -1.97331,0.83851 -1.97331,1.86336 0,1.02485 0.36976,1.86336 0.8217,1.86336 0.45194,0 1.33994,-0.83851 1.97333,-1.86336 z m -2.05949,-8.45517 c 1.5758,-1.57581 5.40733,-3.0432 8.5145,-3.26088 5.11498,-0.35834 8.3848,-3.19081 3.68349,-3.19081 -1.08533,0 -1.4551,-0.83851 -0.82171,-1.86336 0.6334,-1.02485 0.12392,-1.86336 -1.13226,-1.86336 -1.25615,0 -1.74515,-0.53875 -1.0867,-1.19721 0.65848,-0.65847 2.53916,-0.0835 4.17931,1.27771 2.48654,2.06365 3.24768,2.04515 4.58047,-0.11143 3.35354,-5.42614 -2.25081,-6.8433 -17.25512,-4.36322 -6.0807,1.00508 -6.95955,1.78839 -6.77145,6.0354 0.13975,3.1568 0.5171,3.72878 1.0683,1.61955 0.8832,-3.37966 3.74584,-4.07376 8.80092,-2.13395 4.30656,1.65259 1.78363,4.2944 -2.92517,3.06302 -2.82578,-0.73897 -3.60616,-0.38676 -2.63278,1.18823 0.76092,1.23118 0.37012,3.45955 -0.86845,4.95191 -2.98846,3.60087 -0.97115,3.48612 2.66665,-0.15168 z m -69.679791,-6.45169 c 1.863358,-1.2042 2.018631,-1.81581 0.465839,-1.83483 -1.281058,-0.0149 -2.329197,-0.84073 -2.329197,-1.83342 0,-0.99266 1.257766,-1.32222 2.795037,-0.73232 1.53727,0.58993 2.795037,0.14441 2.795037,-0.99015 0,-1.1345 -1.677022,-2.06272 -3.726716,-2.06272 -2.049694,0 -3.726716,0.76994 -3.726716,1.71096 0,0.94103 -0.508977,3.03731 -1.13104,4.65839 -1.27627,3.32591 0.704703,3.76799 4.857756,1.08409 z m -35.916152,-7.45344 c -0.309019,-4.10251 -3.214367,-5.22532 -3.214367,-1.24224 0,2.22306 1.652184,4.96896 2.989776,4.96896 0.277939,0 0.378989,-1.67702 0.224591,-3.72672 z m 17.282571,-1.86335 c 0,-1.02485 -0.369783,-1.86336 -0.821722,-1.86336 -0.451939,0 -1.339922,0.83851 -1.973315,1.86336 -0.633392,1.02484 -0.263628,1.86335 0.821704,1.86335 1.085331,0 1.973333,-0.83851 1.973333,-1.86335 z m 29.813729,-5.4801 c 0,-1.98921 0.801878,-4.11234 1.781967,-4.71808 1.854805,-1.14634 0.582187,-6.616 -1.515488,-6.5135 -0.658995,0.0322 -2.734944,2.1686 -4.613246,4.74752 -2.715789,3.72878 -2.95523,5.24302 -1.169369,7.39487 3.128112,3.76914 5.516136,3.37484 5.516136,-0.91081 z m -18.63358,-4.55105 c 0,-4.73733 0.926349,-6.54667 3.726716,-7.27898 2.422104,-0.6334 3.726716,-0.0572 3.726716,1.64603 0,1.44133 1.347469,2.62059 2.994398,2.62059 1.964948,0 2.605552,-1.01329 1.863358,-2.94744 -0.622083,-1.62109 -1.13104,-3.29811 -1.13104,-3.72672 0,-0.42859 -2.934789,-0.77927 -6.521753,-0.77927 -3.586965,0 -6.521753,0.82254 -6.521753,1.82786 0,3.57591 -8.878864,4.13507 -13.857831,0.87272 -2.690634,-1.76296 -4.444799,-3.65265 -3.898164,-4.1993 0.546635,-0.54663 -0.395666,-2.52934 -2.094005,-4.40598 -2.011103,-2.22224 -2.299067,-3.41209 -0.825765,-3.41209 1.244164,0 1.743898,-0.83851 1.110505,-1.86336 -2.255912,-3.65011 -4.658395,-1.77703 -4.658395,3.63189 0,4.04183 1.648215,6.7524 6.231796,10.24847 3.427479,2.61427 7.829663,4.81943 9.78263,4.90033 1.967203,0.0814 2.51203,0.56628 1.221636,1.08696 -3.179858,1.2831 -2.947628,4.356 0.329199,4.356 1.462122,0 3.041876,-1.46739 3.510567,-3.26087 0.524274,-2.00621 0.935331,-1.28926 1.068319,1.86336 0.312392,7.40606 3.942866,6.31939 3.942866,-1.1802 z m 5.590074,1.64604 c 0,-1.53727 -0.838511,-2.79504 -1.863358,-2.79504 -1.024847,0 -1.863358,1.25777 -1.863358,2.79504 0,1.53727 0.838511,2.79503 1.863358,2.79503 1.024847,0 1.863358,-1.25776 1.863358,-2.79503 z m -35.908475,-3.92085 c -0.619175,-0.61917 -2.226322,-0.68536 -3.571424,-0.14702 -1.486475,0.59483 -1.044934,1.03637 1.125767,1.12577 1.964296,0.0809 3.064832,-0.3595 2.445657,-0.97867 z M 374.18969,491.8455 c 0,-1.59776 -0.85219,-2.37832 -1.89375,-1.7346 -1.04156,0.64371 -1.41135,1.95097 -0.82171,2.90501 1.59733,2.58455 2.71546,2.10263 2.71546,-1.17041 z M 72.325683,480.558 c 0,-0.39289 -1.677022,-0.71435 -3.726716,-0.71435 -2.049694,0 -3.726716,0.76 -3.726716,1.68891 0,0.9289 1.677022,1.25037 3.726716,0.71435 2.049694,-0.53601 3.726716,-1.29602 3.726716,-1.68891 z m 294.962837,-6.49751 c -1.47383,-1.47382 -3.0312,-1.48988 -5.49691,-0.0566 -3.01609,1.75311 -2.76241,2.00677 2.05644,2.05644 4.0087,0.0414 4.94015,-0.50008 3.44047,-1.99977 z m 3.21183,-10.10042 c 1.29638,-1.56204 1.83856,-3.35854 1.20487,-3.99225 -1.35334,-1.35334 -6.83232,2.81434 -6.83232,5.19711 0,2.56668 3.03699,1.91645 5.62745,-1.20486 z M 96.520791,289.16002 c 0.01491,-2.90375 -0.600337,-4.97312 -1.368972,-4.59862 -13.687203,6.66879 -13.765707,6.80055 -6.518436,10.93895 5.892273,3.36467 7.843433,1.79621 7.887408,-6.34033 z m 83.258529,254.65891 c -2.14404,-2.14403 -1.35697,-4.34783 1.55281,-4.34783 1.53727,0 2.86122,-1.46739 2.94213,-3.26087 0.11702,-2.59475 0.36321,-2.68991 1.20492,-0.46584 0.58178,1.53727 2.29322,3.52187 3.80317,4.41025 2.2964,1.35108 2.32789,1.87968 0.1926,3.23235 -3.056,1.93591 -7.97262,2.15495 -9.69563,0.43194 z m 48.25656,-13.11841 c -1.01121,-2.65566 -0.79719,-2.86968 1.0431,-1.04311 1.27346,1.26399 1.84598,2.76754 1.27227,3.34124 -0.57371,0.57371 -1.61563,-0.46045 -2.31537,-2.29813 z m 32.95481,-0.11441 c -6.04697,-0.99662 -5.14828,-3.19259 1.40176,-3.42524 3.07221,-0.1092 5.58583,0.47027 5.58583,1.28754 0,2.21048 -2.29184,2.91161 -6.98759,2.1377 z m -43.66228,-6.42801 c 0.99369,-0.99369 3.36317,-1.4768 5.26551,-1.07357 2.56178,0.54302 2.09322,1.01158 -1.80671,1.80673 -3.40029,0.69326 -4.62553,0.43356 -3.4588,-0.73316 z m 26.73581,-1.22644 c -2.00112,-1.26852 -1.91035,-1.79619 0.46584,-2.70802 1.86718,-0.7165 2.95128,-0.12727 2.95128,1.60403 0,3.16715 -0.10752,3.20191 -3.41712,1.10399 z m 5.28048,-3.73756 c 0,-1.02485 0.83851,-2.38158 1.86336,-3.01497 1.02484,-0.63339 1.86335,-0.3131 1.86335,0.71174 0,1.02485 -0.83851,2.38158 -1.86335,3.01497 -1.02485,0.6334 -1.86336,0.3131 -1.86336,-0.71174 z m 21.4474,-3.97704 c 0.64371,-1.04156 1.95097,-1.41135 2.90501,-0.82171 2.58455,1.59733 2.10263,2.71546 -1.17041,2.71546 -1.59776,0 -2.37832,-0.85219 -1.7346,-1.89375 z m -15.72635,-9.75224 c -0.0721,-2.81833 0.70753,-5.12424 1.73238,-5.12424 2.18704,0 2.18704,1.43222 0,6.52176 -1.41906,3.30233 -1.61633,3.14318 -1.73238,-1.39752 z m 91.17357,-15.43118 c 0,-3.01377 2.91172,-3.69938 4.53772,-1.06845 0.56702,0.91745 -0.222,2.1489 -1.75338,2.73655 -1.6913,0.64901 -2.78434,-0.006 -2.78434,-1.6681 z m -73.60265,-0.8732 c -0.63339,-1.02485 -0.26362,-1.86336 0.82171,-1.86336 1.08533,0 1.97333,0.83851 1.97333,1.86336 0,1.02484 -0.36976,1.86335 -0.8217,1.86335 -0.45194,0 -1.33994,-0.83851 -1.97334,-1.86335 z M 21.083337,487.29708 c -0.633393,-1.02485 0.15559,-1.86336 1.753382,-1.86336 1.597755,0 2.905013,0.83851 2.905013,1.86336 0,1.02485 -0.789039,1.86336 -1.753401,1.86336 -0.964363,0 -2.271602,-0.83851 -2.904994,-1.86336 z m 78.340603,0.12876 c -1.378028,-2.2297 2.12727,-4.43895 4.60922,-2.90502 2.08391,1.28792 0.71585,4.63962 -1.89375,4.63962 -0.90388,0 -2.12585,-0.78058 -2.71547,-1.7346 z m 199.69152,-1.99212 c -0.6334,-2.4221 -0.0572,-3.72672 1.64603,-3.72672 1.44133,0 2.62059,1.67703 2.62059,3.72672 0,2.04969 -0.74072,3.72672 -1.64603,3.72672 -0.90532,0 -2.08458,-1.67703 -2.62059,-3.72672 z M 20.151658,476.00695 c 0,-3.32553 0.776219,-5.2203 1.863358,-4.54842 1.024847,0.6334 1.863358,3.19842 1.863358,5.70005 0,2.50164 -0.838511,4.54842 -1.863358,4.54842 -1.024847,0 -1.863358,-2.56502 -1.863358,-5.70005 z m 78.687635,1.62523 c 0.928474,-2.78543 5.163477,-4.31906 5.163477,-1.86988 0,1.0006 -1.32785,2.3288 -2.95074,2.95157 -1.814761,0.6964 -2.666633,0.27995 -2.212737,-1.08169 z m 225.039727,-5.35194 c 0,-1.08533 0.83851,-1.4551 1.86336,-0.82171 1.02484,0.6334 1.86336,1.5214 1.86336,1.97334 0,0.45194 -0.83852,0.8217 -1.86336,0.8217 -1.02485,0 -1.86336,-0.888 -1.86336,-1.97333 z M 98.412696,469.65365 c 0,-1.66694 1.092468,-2.31733 2.795034,-1.664 1.53727,0.58992 2.79504,1.82136 2.79504,2.73657 0,0.91518 -1.25777,1.66399 -2.79504,1.66399 -1.537268,0 -2.795034,-1.23145 -2.795034,-2.73656 z m -29.456598,-2.99326 c 0.367249,-1.10171 1.464301,-2.00311 2.437906,-2.00311 0.973604,0 2.070657,0.9014 2.437887,2.00311 0.367231,1.10171 -0.729821,2.00311 -2.437887,2.00311 -1.708085,0 -2.805137,-0.9014 -2.437906,-2.00311 z m 181.399862,0.26851 c -0.58964,-0.95404 -0.21986,-2.2613 0.8217,-2.90501 1.04157,-0.64372 1.89375,0.13677 1.89375,1.7346 0,3.27304 -1.11812,3.75496 -2.71545,1.17041 z M 24.810053,464.93678 c 3.445722,-1.48068 3.375473,-1.6276 -0.931679,-1.94855 -3.438883,-0.25625 -3.776244,-0.57568 -1.28868,-1.22022 1.853352,-0.48022 4.764644,-0.33784 6.469523,0.31638 2.670677,1.02483 2.720093,1.42964 0.357001,2.92409 -1.508537,0.95402 -4.000574,1.6885 -5.537844,1.63216 -1.842973,-0.0675 -1.525606,-0.64793 0.931679,-1.70386 z M 330.98307,463.6639 c 1.3451,-0.53827 2.95225,-0.47208 3.57144,0.14702 0.61918,0.61918 -0.48138,1.05958 -2.44565,0.97867 -2.17072,-0.0894 -2.61224,-0.53094 -1.12579,-1.12576 z M 27.13925,459.85267 c -9.319902,-0.9749 -8.961354,-4.23268 0.46584,-4.23268 5.383036,0 7.453432,0.77641 7.453432,2.79504 0,1.53727 -0.209628,2.65407 -0.465839,2.48181 -0.256212,-0.17237 -3.610257,-0.64216 -7.453433,-1.04417 z m 25.621173,-2.36932 c 5.200745,-2.23484 10.697986,-2.23484 9.316791,0 -0.633393,1.02485 -3.8273,1.80442 -7.097568,1.73238 -5.012079,-0.11031 -5.360639,-0.38247 -2.219223,-1.73238 z m 209.161937,-1.23407 c 1.28106,-0.51691 3.37734,-0.51691 4.6584,0 1.28106,0.51692 0.23292,0.93986 -2.3292,0.93986 -2.56211,0 -3.61025,-0.42294 -2.3292,-0.93986 z M 30.865966,243.77607 c -1.793482,-0.46867 -3.260876,-1.62917 -3.260876,-2.57887 0,-2.43962 2.209514,-2.05107 6.412057,1.12755 3.620747,2.73862 2.952491,3.04639 -3.151181,1.45132 z M 20.208322,219.43936 c 0.04491,-12.9112 0.489188,-15.55915 2.135036,-12.72347 1.143114,1.96951 2.488068,9.30649 2.988752,16.30438 0.780169,10.90378 0.474802,12.72348 -2.135054,12.72348 -2.59059,0 -3.036939,-2.43498 -2.988734,-16.30439 z"
         style="fill:#000000" />
</svg>
