<?xml version="1.0" encoding="UTF-8" standalone="no"?>
<svg
     xmlns:dc="http://purl.org/dc/elements/1.1/"
     xmlns:cc="http://creativecommons.org/ns#"
     xmlns:rdf="http://www.w3.org/1999/02/22-rdf-syntax-ns#"
     xmlns:svg="http://www.w3.org/2000/svg"
     xmlns="http://www.w3.org/2000/svg"
     viewBox="0 0 395.18238 647.24482"
     height="647.24481"
     width="395.18237"
     version="1.1"
     id="svg4737">
    <metadata
         id="metadata4743">
        <rdf:RDF>
            <cc:Work
                 rdf:about="">
                <dc:format>image/svg+xml</dc:format>
                <dc:type
                     rdf:resource="http://purl.org/dc/dcmitype/StillImage" />
                <dc:title></dc:title>
                <cc:license
                     rdf:resource="http://creativecommons.org/publicdomain/zero/1.0/" />
            </cc:Work>
            <cc:License
                 rdf:about="http://creativecommons.org/publicdomain/zero/1.0/">
                <cc:permits
                     rdf:resource="http://creativecommons.org/ns#Reproduction" />
                <cc:permits
                     rdf:resource="http://creativecommons.org/ns#Distribution" />
                <cc:permits
                     rdf:resource="http://creativecommons.org/ns#DerivativeWorks" />
            </cc:License>
        </rdf:RDF>
    </metadata>
    <defs
         id="defs4741" />
    <path
         id="path5287"
         d="m 21.19611,595.52576 c -1.705423,-45.20755 -1.482258,-68.87488 0.689416,-73.11717 1.299754,-2.539 1.299754,-3.68332 0,-3.68332 C 20.83614,518.72527 20,514.48524 20,509.16375 l 0,-9.56153 14.116229,0.36175 c 7.763923,0.19896 23.43506,-0.6153 34.824741,-1.80946 13.504147,-1.41583 21.854397,-1.53004 24.002249,-0.32828 1.811539,1.01357 4.499662,1.35906 5.973593,0.76774 1.473948,-0.59131 3.224578,-0.15366 3.890288,0.97241 0.66573,1.12614 -0.13969,2.58918 -1.78991,3.25121 -2.354021,0.94438 -2.486426,1.53574 -0.61467,2.74513 1.75267,1.13246 1.18905,2.04566 -2.124076,3.44165 -4.018284,1.69311 -3.715763,1.8594 2.776006,1.52598 4.00719,-0.20582 7.81252,-1.13281 8.45629,-2.05997 0.66795,-0.96203 3.5542,-0.81702 6.72273,0.33775 4.11248,1.4988 5.78667,1.44214 6.45623,-0.21849 0.63046,-1.56358 1.6281,-1.31978 3.29688,0.8057 1.40755,1.79272 3.71386,2.56323 5.60092,1.8712 2.96867,-1.08869 2.92824,-1.42695 -0.54201,-4.53333 -2.06254,-1.84629 -4.58312,-2.81862 -5.60126,-2.16073 -1.01818,0.65785 -3.23397,-0.0848 -4.92397,-1.65022 -1.69004,-1.56548 -4.71208,-3.19794 -6.71567,-3.62767 -2.62605,-0.56323 -1.99054,-1.0576 2.27681,-1.77103 4.1799,-0.69883 5.91971,-0.24714 5.91971,1.53687 0,1.38962 0.81965,2.52658 1.82144,2.52658 1.00181,0 1.82145,-1.16723 1.82145,-2.59381 0,-1.93855 2.64579,-2.48399 10.47334,-2.15919 14.67143,0.60878 16.84839,-0.98037 16.84839,-12.29925 l 0,-9.30122 -9.5626,-3.24208 c -10.06358,-3.41192 -24.36459,-12.38675 -32.78608,-20.5754 -5.33476,-5.18728 -6.10936,-9.39562 -3.20128,-17.39217 0.99424,-2.73393 3.45613,-15.42919 5.47087,-28.21169 7.33699,-46.54958 11.35276,-69.25141 14.84982,-83.9487 7.78058,-32.69968 11.36886,-55.81802 15.39907,-99.2115 3.61345,-38.90666 4.83863,-42.44318 24.53321,-70.81652 5.9385,-8.55541 10.79728,-16.38222 10.79728,-17.39292 0,-1.0107 3.61111,-7.35127 8.02468,-14.09017 6.12836,-9.35708 8.26868,-14.61653 9.05703,-22.256026 1.4784,-14.326135 10.49114,-32.249984 19.73525,-39.24792 21.38353,-16.187675 30.96331,-16.187675 50.71723,0 10.78935,8.841496 16.05493,18.323382 17.56165,31.623687 0.91795,8.102863 1.59967,9.385273 4.73913,8.914943 2.0168,-0.30214 4.03409,0.57749 4.48285,1.954756 0.61473,1.8866 -0.69106,2.20855 -5.29505,1.30557 l -6.11095,-1.19854 0,11.65691 c 0,9.69075 -0.66512,12.20064 -3.94332,14.88057 -8.93522,7.30452 -8.44132,25.74581 0.73862,27.58046 10.3315,2.06477 19.43206,-5.3911 33.76522,-27.663 l 4.57868,-7.1147 -0.26583,5.81883 c -0.21773,4.76537 1.08893,6.85536 7.21747,11.54431 4.18339,3.20071 10.80986,6.19196 15.02694,6.78331 4.149,0.58179 7.54364,1.44344 7.54364,1.91478 0,0.47134 -2.781,4.42885 -6.18001,8.79446 -3.399,4.36562 -9.7513,14.68429 -14.11623,22.93036 -5.26473,9.94599 -10.38876,16.8304 -15.22201,20.45162 -8.98636,6.73287 -21.90094,8.93842 -31.97851,5.46133 -3.96039,-1.36647 -7.69867,-1.96391 -8.30726,-1.32764 -0.60858,0.63626 0.21514,5.21204 1.8305,10.16839 1.61537,4.95637 2.93703,13.8704 2.93703,19.809 0,10.65743 0.0885,10.83755 6.83043,13.8917 3.75674,1.70185 11.74834,5.96226 17.75912,9.46756 6.01078,3.50529 12.75348,6.87035 14.98379,7.47789 3.93916,1.07302 3.86895,1.31416 -2.45686,8.43563 -6.47631,7.29091 -6.50628,7.40432 -5.47767,20.72539 l 1.03426,13.39438 -14.05972,-1.44229 c -7.73285,-0.79328 -15.69903,-1.67925 -17.70262,-1.96887 -2.88777,-0.41742 -3.56072,0.46023 -3.24642,4.23408 0.21806,2.61834 1.63724,17.35945 3.15372,32.75801 1.51648,15.39859 3.28324,45.81902 3.92611,67.60095 l 1.16888,39.60354 -9.39365,7.22631 c -5.16649,3.97446 -11.13614,7.90019 -13.26584,8.72385 -2.66645,1.03124 -4.6072,4.41418 -6.23263,10.86409 -2.77756,11.02189 -3.20669,21.74417 -0.87025,21.74417 0.90801,0 1.22224,1.71384 0.69829,3.80851 -0.67274,2.68951 -0.0559,3.80851 2.09947,3.80851 1.67865,0 2.54553,0.85691 1.92638,1.90425 -0.61915,1.04733 -0.23196,1.90425 0.8604,1.90425 1.09236,0 2.4579,-1.28536 3.03454,-2.85638 0.57665,-1.57101 2.39513,-2.84326 4.04109,-2.82722 2.25221,0.022 2.41195,0.41435 0.64563,1.58593 -1.6478,1.09301 -1.98425,3.92844 -1.12938,9.51765 1.08493,7.09313 1.47547,7.59484 3.58303,4.60288 2.24442,-3.18627 2.42836,-3.18813 3.59705,-0.0365 0.67744,1.82682 1.9088,2.88398 2.73641,2.34923 0.82759,-0.53473 2.01957,-0.10131 2.6488,0.96308 0.62924,1.06442 -0.13369,1.93531 -1.69557,1.93531 -1.56183,0 -2.83969,1.28536 -2.83969,2.85638 0,4.47046 3.50604,3.3496 5.76976,-1.84454 1.1268,-2.58552 2.74853,-4.24876 3.60384,-3.69614 0.85529,0.55275 1.55509,-0.38161 1.55509,-2.07623 0,-1.69464 0.83302,-2.54291 1.85116,-1.88506 1.01815,0.65783 1.3796,1.99379 0.80322,2.96875 -0.57636,0.97497 -0.17995,1.77269 0.88102,1.77269 1.06092,0 1.92896,-1.71384 1.92896,-3.80852 0,-2.09467 0.68304,-3.80849 1.51785,-3.80849 0.83486,0 1.5179,2.9992 1.5179,6.66487 0,3.66569 -0.73143,6.66488 -1.62537,6.66488 -0.89398,0 -1.12918,0.83936 -0.52272,1.86525 1.87847,3.17759 8.32523,-2.32581 7.17249,-6.12292 -0.56092,-1.84763 -0.61482,-3.35933 -0.11984,-3.35933 1.47044,0 6.63122,11.75424 6.63122,15.10338 0,1.701 1.62226,4.54489 3.605,6.31977 2.33228,2.08775 3.17648,4.42208 2.39115,6.61203 -1.07078,2.98596 -0.8467,3.07264 1.90103,0.73532 2.67904,-2.27891 2.97238,-2.26138 2.09639,0.12511 -0.5602,1.52619 0.23563,5.28927 1.76852,8.36241 2.48241,4.97682 3.83005,4.97569 2.91255,-0.002 -0.18068,-0.97981 0.16593,-3.8404 0.77007,-6.35687 0.90194,-3.75702 1.57367,-4.16302 3.75553,-2.26992 1.46143,1.26803 2.65713,1.7109 2.65713,0.98417 0,-0.72672 1.31088,0.0491 2.91307,1.72417 2.23659,2.33827 2.42753,3.65709 0.82227,5.67923 -1.32206,1.66541 -1.43438,3.05788 -0.30551,3.78729 0.98188,0.63443 3.0733,-0.76901 4.64756,-3.11875 2.67343,-3.99038 2.61152,-4.36928 -0.93863,-5.74226 -2.09052,-0.80849 -3.4637,-2.52768 -3.05154,-3.82042 0.4122,-1.29277 -1.34697,-3.48754 -3.90925,-4.87729 -3.10787,-1.68568 -4.87294,-1.85489 -5.3023,-0.50829 -0.97286,3.05079 -3.9829,2.41758 -3.9829,-0.83829 0,-1.57099 0.81965,-2.85636 1.82144,-2.85636 1.0018,0 1.82144,-1.28538 1.82144,-2.85638 0,-1.57101 -0.81964,-2.85638 -1.82144,-2.85638 -1.00179,0 -1.82144,0.85691 -1.82144,1.90425 0,1.04733 -1.22948,1.90425 -2.73218,1.90425 -3.22795,0 -3.2585,-0.20905 -0.95581,-6.54091 1.40928,-3.87517 1.22106,-4.88461 -0.91071,-4.88461 -3.6889,0 -3.38798,-3.11984 0.44937,-4.65934 2.64346,-1.06047 2.72333,-1.52526 0.50813,-2.95655 -1.44561,-0.93406 -2.09191,-2.25913 -1.43622,-2.94463 2.30496,-2.40975 4.61075,1.03233 5.77042,8.61408 0.84394,5.51761 2.05674,7.66736 4.3375,7.68836 1.74131,0.0152 4.34278,0.80765 5.78106,1.75912 2.1851,1.44555 2.21732,2.231 0.1958,4.77749 -1.33058,1.67614 -1.84805,3.6447 -1.14993,4.37457 0.69813,0.72985 2.00033,0.0905 2.89376,-1.42087 1.38783,-2.34764 1.78699,-2.30494 2.74064,0.2932 0.63083,1.71865 3.1995,3.04104 5.90712,3.04104 4.51169,0 4.59125,-0.15272 1.36533,-2.61871 -4.23455,-3.23714 -5.04319,-7.72534 -1.63798,-9.09144 1.40389,-0.56321 2.55253,-0.17766 2.55253,0.85674 0,1.05527 1.99864,1.35633 4.55361,0.68593 2.80576,-0.73621 4.55363,-0.38468 4.55363,0.91584 0,1.16089 -1.22947,2.11069 -2.73218,2.11069 -4.73572,0 -3.18824,7.42478 1.82145,8.7393 2.5045,0.65715 4.55362,1.95884 4.55362,2.89266 0,0.93379 0.81966,1.69781 1.82145,1.69781 1.00179,0 1.82145,-1.07924 1.82145,-2.39831 0,-1.31908 1.70161,-3.50932 3.78135,-4.86718 3.03795,-1.98347 3.35218,-3.00946 1.59841,-5.2187 -1.78305,-2.24609 -1.49329,-2.74983 1.58171,-2.74983 3.3039,0 3.66049,-0.90307 2.91381,-7.37929 -0.85059,-7.37767 2.55508,-20.45106 4.15448,-15.94779 0.46498,1.30916 2.00657,2.38031 3.42578,2.38031 1.41923,0 2.58039,0.85691 2.58039,1.90424 0,1.04735 -0.92002,1.90426 -2.04446,1.90426 -1.41931,0 -1.47227,0.72788 -0.17322,2.38032 1.95499,2.48681 1.81253,9.50454 -0.40588,19.99465 -0.847,4.00511 -0.61506,6.18881 0.65736,6.18881 1.2412,0 1.96618,5.54203 1.96618,15.03027 0,12.55293 -0.52538,15.24322 -3.18752,16.32214 -3.03577,1.23037 -3.03577,1.40874 0,3.74612 2.71855,2.09317 3.18752,5.71364 3.18752,24.60788 l 0,22.15365 -176.39511,-0.006 -176.395126,-0.006 -1.196092,-31.7067 z m 9.732584,12.58697 c 0,-0.98553 -0.819655,-1.79186 -1.821451,-1.79186 -1.001794,0 -1.82145,1.33594 -1.82145,2.96876 0,1.63282 0.819656,2.43916 1.82145,1.79186 1.001796,-0.64729 1.821451,-1.98324 1.821451,-2.96876 z m 229.487266,-5.65051 c -4.41751,-2.91981 -5.71564,-2.12435 -3.52301,2.15884 1.5471,3.0222 2.57096,3.47276 4.14712,1.82494 1.57615,-1.6478 1.42207,-2.63131 -0.62411,-3.98378 z m 71.05171,-3.75837 c 0,-1.04733 -0.36144,-1.90424 -0.80322,-1.90424 -0.44177,0 -1.3098,0.85691 -1.92896,1.90424 -0.61913,1.04735 -0.25768,1.90426 0.80322,1.90426 1.06094,0 1.92896,-0.85691 1.92896,-1.90426 z m 9.10725,-3.8085 c 0,-1.04735 -0.86803,-1.90425 -1.92896,-1.90425 -1.06092,0 -1.42237,0.8569 -0.80322,1.90425 0.61915,1.04733 1.48718,1.90426 1.92896,1.90426 0.44177,0 0.80322,-0.85693 0.80322,-1.90426 z M 133.9764,591.3167 c -1.36095,-2.30218 -8.3324,-4.05538 -8.3324,-2.09546 0,0.8725 1.4344,1.97824 3.18754,2.4572 5.30228,1.44864 6.17866,1.38701 5.14486,-0.36174 z m 75.45422,-0.0515 c 0,-0.9493 -1.63929,-1.27781 -3.64289,-0.73003 -2.00358,0.54777 -3.64289,1.32447 -3.64289,1.72597 0,0.40151 1.63931,0.73004 3.64289,0.73004 2.0036,0 3.64289,-0.77669 3.64289,-1.72598 z m 142.07298,-2.08254 c 0,-1.04732 -0.81964,-1.90424 -1.82144,-1.90424 -1.0018,0 -1.82146,0.85692 -1.82146,1.90424 0,1.04735 0.81966,1.90426 1.82146,1.90426 1.0018,0 1.82144,-0.85691 1.82144,-1.90426 z m -152.5463,-1.26113 c -1.25224,-0.52827 -3.30137,-0.52827 -4.55362,0 -1.25223,0.52825 -0.22768,0.96047 2.2768,0.96047 2.5045,0 3.52907,-0.43222 2.27682,-0.96047 z m 123.40312,-2.78052 c 0,-3.3634 -0.45514,-3.64678 -2.71211,-1.6885 -2.74126,2.37848 -2.1574,5.73015 0.99818,5.73015 0.94267,0 1.71393,-1.81873 1.71393,-4.04165 z m 20.94666,2.13741 c 0.61915,-1.04734 -0.20049,-1.90426 -1.82144,-1.90426 -1.62094,0 -2.4406,0.85692 -1.82144,1.90426 0.61913,1.04734 1.43879,1.90424 1.82144,1.90424 0.38264,0 1.2023,-0.8569 1.82144,-1.90424 z m -204.91294,-1.61736 c 0,-0.75937 -1.6393,-1.50979 -3.64289,-1.66757 -2.00359,-0.15787 -3.6429,0.33443 -3.6429,1.09378 0,0.75938 1.63931,1.50979 3.6429,1.66757 2.00359,0.15787 3.64289,-0.33442 3.64289,-1.09378 z m 217.41105,-1.23902 c -1.10853,-3.02011 -4.30159,-3.96244 -4.30159,-1.26951 0,2.01379 1.99101,4.12589 3.88931,4.12589 0.80339,0 0.98892,-1.28538 0.41228,-2.85638 z m -227.44191,-2.83455 c 0.63813,-1.07944 -0.093,-1.39868 -1.71395,-0.74839 -3.15551,1.26592 -3.73285,2.63084 -1.11283,2.63084 0.94267,0 2.21474,-0.84712 2.82678,-1.88245 z m 230.76004,-2.33865 c -1.30699,-1.36642 -2.15537,-1.47885 -2.15537,-0.28564 0,2.54176 2.15406,4.79374 3.36967,3.52286 0.51761,-0.54111 -0.0289,-1.99786 -1.2143,-3.23722 z m -250.44954,-1.84873 c -0.58145,-1.51908 -1.01307,-1.06787 -1.10046,1.15049 -0.0791,2.00739 0.35139,3.13209 0.95667,2.49933 0.60524,-0.63275 0.66994,-2.2752 0.14389,-3.64982 z m 31.0448,0.35706 c 3.2333,-2.65896 3.77163,-3.80852 1.78348,-3.80852 -1.56624,0 -4.13575,1.34657 -5.70998,2.9924 -5.54236,5.79432 -2.81612,6.36098 3.9265,0.81612 z m 147.12361,1.90424 c 0.61914,-1.04734 0.25769,-1.90424 -0.80323,-1.90424 -1.06091,0 -1.92895,0.8569 -1.92895,1.90424 0,1.04734 0.36145,1.90425 0.80322,1.90425 0.44178,0 1.30981,-0.85691 1.92896,-1.90425 z m 50.08982,-2.01664 c 0,-1.10916 -0.73377,-1.54252 -1.6306,-0.96306 -0.8968,0.57947 -2.10056,-0.22687 -2.67499,-1.79186 -0.67521,-1.83958 0.062,-2.85574 2.08594,-2.87461 2.47082,-0.023 2.60538,-0.37688 0.63858,-1.67949 -1.60535,-1.06322 -3.5757,-0.54476 -5.53856,1.45735 -2.73174,2.78634 -2.7566,3.34754 -0.24038,5.42745 3.48882,2.88382 7.36001,3.10696 7.36001,0.42422 z m -222.21669,-1.79186 c 0,-1.04734 -0.36145,-1.90426 -0.80323,-1.90426 -0.44177,0 -1.3098,0.85692 -1.92895,1.90426 -0.61915,1.04734 -0.2577,1.90426 0.80322,1.90426 1.06093,0 1.92896,-0.85692 1.92896,-1.90426 z m 238.87534,-8.65894 c -1.20947,-4.7279 -1.58122,-4.98708 -2.71655,-1.89396 -0.79712,2.1717 -0.39402,4.2633 1.02317,5.30893 1.86268,1.37434 1.87293,1.92273 0.0503,2.6952 -1.2585,0.53338 -1.75981,1.86357 -1.11404,2.95596 2.11819,3.58311 4.22264,-3.33698 2.75707,-9.06613 z m -220.21507,1.99406 c 0.47878,-2.61835 0.16448,-4.76063 -0.69836,-4.76063 -0.86288,0 -1.56888,2.14228 -1.56888,4.76063 0,2.61835 0.31427,4.76062 0.69838,4.76062 0.38411,0 1.0901,-2.14227 1.56886,-4.76062 z m 238.16395,1.90425 c 0,-1.57101 -0.81965,-2.85637 -1.82145,-2.85637 -1.0018,0 -1.82145,1.28536 -1.82145,2.85637 0,1.571 0.81965,2.85637 1.82145,2.85637 1.0018,0 1.82145,-1.28537 1.82145,-2.85637 z m -51.00055,-0.95213 c 0,-1.04733 -1.22947,-1.90424 -2.73218,-1.90424 -1.5027,0 -2.73218,0.85691 -2.73218,1.90424 0,1.04734 1.22948,1.90425 2.73218,1.90425 1.50271,0 2.73218,-0.85691 2.73218,-1.90425 z M 34.947097,563.7537 c -0.294361,-1.72417 0.224787,-3.13488 1.153653,-3.13488 2.635617,0 3.659593,-6.701 1.609297,-10.53126 -1.445628,-2.70064 -0.995837,-4.17787 2.059628,-6.76452 5.039145,-4.26596 4.923794,-5.07919 -0.720365,-5.07919 -2.653776,0 -4.3135,0.91426 -3.889012,2.14229 1.12234,3.24703 -2.186467,8.80717 -5.241125,8.80717 -1.977168,0 -2.394371,1.28471 -1.553973,4.78535 0.664614,2.7684 0.18599,5.99824 -1.135564,7.66302 -1.25643,1.58273 -1.713219,3.47485 -1.015089,4.2047 0.698122,0.72987 2.03186,0.0665 2.963839,-1.47421 1.404361,-2.32157 1.699302,-2.20343 1.72242,0.6899 0.0164,1.95962 1.026691,3.12602 2.304697,2.65883 1.252242,-0.45777 2.035961,-2.24301 1.741594,-3.9672 z m 110.732843,3.64238 c 0,-2.0099 -3.49556,-2.8543 -4.53527,-1.09557 -0.62923,1.06442 0.13369,1.93532 1.69559,1.93532 1.56181,0 2.83968,-0.37789 2.83968,-0.83975 z m 201.01801,-2.01664 c -1.17915,-3.2125 -3.5683,-3.73309 -5.11615,-1.11476 -0.56628,0.95786 9e-5,2.17561 1.25857,2.70604 4.03436,1.70043 4.93015,1.33091 3.85758,-1.59128 z m 19.37724,0.95213 c 0,-1.04735 -0.81965,-1.90425 -1.82144,-1.90425 -1.0018,0 -1.82146,0.8569 -1.82146,1.90425 0,1.04733 0.81966,1.90426 1.82146,1.90426 1.00179,0 1.82144,-0.85693 1.82144,-1.90426 z M 110.79176,558.5654 c 0.34653,-2.53631 -0.0632,-3.89737 -0.91074,-3.0246 -0.84743,0.8728 -1.55332,2.15817 -1.56866,2.85638 -0.0145,0.69823 -0.74417,2.45181 -1.61963,3.89686 -1.11675,1.84334 -0.83666,2.36709 0.9386,1.75509 1.3917,-0.47973 2.81389,-2.94741 3.16043,-5.48373 z m 9.3879,2.05342 c 0,-1.04734 -0.86803,-1.90426 -1.92895,-1.90426 -1.06092,0 -1.42237,0.85692 -0.80322,1.90426 0.61915,1.04733 1.48717,1.90424 1.92895,1.90424 0.44177,0 0.80322,-0.85691 0.80322,-1.90424 z m 11.33078,-2.9667 c -2.22826,-1.6317 -5.02009,-2.34077 -6.20409,-1.57577 -1.47738,0.95459 -1.04783,1.84328 1.36928,2.83287 6.37503,2.60996 9.13556,1.8922 4.83481,-1.2571 z m 8.82614,-6.55456 c 2.90534,0 1.8645,-5.23949 -1.29242,-6.50598 -4.08831,-1.64015 -5.29467,0.0931 -2.508,3.60357 1.26722,1.59634 1.49769,2.90241 0.51215,2.90241 -1.00319,0 -1.31492,2.3049 -0.70824,5.23669 l 1.08369,5.2367 0.60618,-5.2367 c 0.33339,-2.88018 1.37138,-5.23669 2.30664,-5.23669 z m 202.9705,7.617 c 0.61915,-1.04734 -0.15208,-1.90425 -1.71394,-1.90425 -1.56181,0 -2.83968,0.85691 -2.83968,1.90425 0,1.04734 0.77129,1.90426 1.71396,1.90426 0.94267,0 2.22052,-0.85692 2.83966,-1.90426 z m 8.14377,-2.00779 c -2.35181,-1.58054 -2.34537,-2.02997 0.0529,-3.67581 2.33901,-1.60526 2.27348,-1.87928 -0.45537,-1.90425 -1.75314,-0.0152 -3.18753,1.08483 -3.18753,2.44637 0,2.98602 3.91524,7.39575 5.29017,5.95833 0.53866,-0.56317 -0.22634,-1.83425 -1.70002,-2.82464 z m -206.11244,-1.6817 c 0.45537,-1.42818 -0.22767,-2.14228 -1.59377,-1.66623 -1.31485,0.45824 -2.74925,1.95781 -3.18753,3.33246 -0.45536,1.42819 0.22769,2.14228 1.59377,1.66621 1.31485,-0.45822 2.74925,-1.95781 3.18753,-3.33244 z m 104.16409,1.78524 c 0,-1.04734 -0.86803,-1.90426 -1.92896,-1.90426 -1.06092,0 -1.42237,0.85692 -0.80322,1.90426 0.61915,1.04733 1.48718,1.90425 1.92895,1.90425 0.44178,0 0.80323,-0.85692 0.80323,-1.90425 z m 7.4224,-2.42792 c -0.22529,-2.27692 -2.7236,-1.83597 -3.5063,0.61889 -0.40071,1.2568 0.25501,1.94233 1.45717,1.52339 1.20215,-0.41894 2.12426,-1.38296 2.04913,-2.14228 z M 47.321723,553.00181 c 0,-1.04733 -0.771267,-1.90425 -1.713947,-1.90425 -0.942673,0 -2.220522,0.85692 -2.83967,1.90425 -0.61915,1.04733 0.152091,1.90424 1.713947,1.90424 1.56182,0 2.83967,-0.85691 2.83967,-1.90424 z m 72.857937,0 c 0,-1.04733 -2.25404,-1.89113 -5.00898,-1.8751 -3.90326,0.0226 -4.40587,0.43665 -2.27681,1.8751 3.56371,2.40775 7.28579,2.40775 7.28579,0 z m -39.770487,-1.66923 c -1.816187,-1.20359 -1.363586,-1.90265 1.79005,-2.76485 2.986932,-0.81661 3.653454,-1.74709 2.279991,-3.18299 -1.06744,-1.11597 -3.307341,-1.48083 -4.977558,-0.81076 -4.668795,1.87303 -3.59623,8.47199 1.365086,8.39867 1.085269,-0.0152 0.879377,-0.75406 -0.457569,-1.64007 z m 26.564977,0.23862 c -1.75313,-0.41411 -3.18752,-1.52009 -3.18752,-2.45776 0,-0.93768 1.14655,-1.24488 2.54793,-0.68267 1.40137,0.56218 3.08902,0.10682 3.7504,-1.01191 0.66135,-1.11873 3.61304,-2.03406 6.55931,-2.03406 4.46513,0 5.35684,-0.77375 5.35684,-4.64825 0,-4.96983 -2.69594,-8.01545 -4.45747,-5.03565 -0.58647,0.99204 -0.14571,2.39851 0.97931,3.12546 1.4494,0.9365 1.32532,1.79891 -0.42564,2.95882 -3.92815,2.60216 -8.84634,1.95669 -8.84634,-1.16102 0,-1.571 -1.00203,-2.85637 -2.22674,-2.85637 -1.22471,0 -0.40505,-1.33396 1.82145,-2.96435 2.2265,-1.6304 4.11291,-4.84382 4.19199,-7.14094 0.0791,-2.29715 0.55721,-3.10546 1.06251,-1.79628 0.50528,1.30918 2.091,2.38031 3.5238,2.38031 1.43282,0 4.28667,1.07114 6.34193,2.38032 3.2338,2.0599 4.21119,1.77518 7.26106,-2.11521 4.35669,-5.55737 4.43129,-7.39962 0.33675,-8.31714 -5.1677,-1.15801 -9.55411,0.65019 -9.67808,3.98957 -0.0787,2.11889 -0.64052,1.74458 -1.76274,-1.17423 -0.90602,-2.35652 -2.69828,-4.27146 -3.98282,-4.25541 -1.63502,0.0204 -1.51607,0.58277 0.39668,1.8751 1.892,1.27827 2.01815,1.85489 0.41029,1.8751 -1.27704,0.0152 -3.10099,-2.11314 -4.05318,-4.73148 -1.80019,-4.95013 -4.43851,-6.13225 -6.37508,-2.85639 -0.61913,1.04735 -3.07736,1.90426 -5.4627,1.90426 -3.566595,0 -4.271344,0.89309 -3.967364,5.0276 0.242578,3.2996 1.810718,5.58493 4.562454,6.64913 3.70864,1.43431 4.05149,1.15605 2.969,-2.40968 -0.7472,-2.46121 -0.52314,-3.57849 0.57526,-2.86879 2.65862,1.71781 3.90109,10.69116 1.52614,11.02195 -1.11333,0.155 -3.63454,0.36929 -5.60266,0.47607 -1.968148,0.10683 -4.552623,2.22688 -5.743288,4.71141 -1.956269,4.08202 -2.249232,4.17376 -3.040705,0.95212 -0.48172,-1.96086 -0.97094,-0.30116 -1.08715,3.68816 -0.128228,4.39868 0.505558,6.79015 1.610156,6.07644 1.001796,-0.6473 1.821451,-0.46913 1.821451,0.39591 0,0.86506 3.483522,1.62007 7.741146,1.6778 4.25764,0.0576 6.30678,-0.23384 4.55362,-0.64794 z m -8.651869,-5.23426 c 0,-1.57102 -0.06141,-3.47765 -0.136608,-4.23697 -0.07501,-0.75933 0.744513,-1.68765 1.821457,-2.06294 1.07692,-0.3753 1.95805,1.53132 1.95805,4.23696 0,2.70562 -0.81966,4.91932 -1.82145,4.91932 -1.001799,0 -1.821449,-1.28538 -1.821449,-2.85637 z m 269.073559,2.85637 c 0.16137,-2.24008 -0.84843,-3.80851 -2.45208,-3.80851 -1.49954,0 -2.21989,0.8569 -1.60074,1.90425 0.61914,1.04734 -0.35704,1.98968 -2.16932,2.09408 -2.33418,0.13443 -1.96719,0.63439 1.25859,1.71443 2.5045,0.83854 4.58411,1.61005 4.62138,1.71443 0.0371,0.10436 0.19124,-1.524 0.34217,-3.61868 z m -26.82092,-0.95214 c 0,-1.77729 -1.72025,-2.85637 -4.55363,-2.85637 -5.19737,0 -6.15708,3.09117 -1.36608,4.4001 5.48678,1.49904 5.91971,1.38615 5.91971,-1.54373 z M 48.677973,543.98743 c 0.409954,-1.28575 -0.784059,-1.71304 -3.053202,-1.09266 -2.049524,0.56032 -3.250698,1.82348 -2.669253,2.80704 1.301184,2.20108 4.809146,1.15011 5.722455,-1.71438 z m -15.927837,-1.45901 c 0,-1.57101 -0.322136,-2.85638 -0.715846,-2.85638 -0.393721,0 -1.187638,1.28537 -1.764287,2.85638 -0.57664,1.57102 -0.254497,2.85638 0.715847,2.85638 0.97036,0 1.764286,-1.28536 1.764286,-2.85638 z m -5.822526,-10.1957 c -2.647593,-1.05595 -3.487183,0.76346 -2.098346,4.54724 1.20871,3.29305 1.334806,3.28291 2.530681,-0.20351 0.692225,-2.01811 0.497675,-3.97279 -0.432335,-4.34373 z m 55.001637,4.26085 c 0,-0.40151 -1.63931,-0.73003 -3.642901,-0.73003 -2.00359,0 -3.642891,0.77668 -3.642891,1.72598 0,0.94928 1.639301,1.2778 3.642891,0.73002 2.003591,-0.54776 3.642901,-1.32446 3.642901,-1.72597 z m 59.500653,-3.11034 c 0,-6.21049 -2.82242,-6.73267 -7.23954,-1.33932 -3.86229,4.71589 -3.06589,6.57601 2.81556,6.57601 3.61185,0 4.42398,-0.96131 4.42398,-5.23669 z m 136.30505,2.38031 c 0.61914,-1.04734 0.2577,-1.90426 -0.80323,-1.90426 -1.06091,0 -1.92895,0.85692 -1.92895,1.90426 0,1.04734 0.36145,1.90425 0.80322,1.90425 0.44177,0 1.30981,-0.85691 1.92896,-1.90425 z M 47.293844,527.77046 c -0.02168,-3.3452 -0.39477,-3.67825 -1.70127,-1.51912 -0.92036,1.52101 -1.269264,3.44907 -0.775343,4.28458 1.579875,2.67248 2.505282,1.63914 2.476613,-2.76546 z m 209.494436,0.47607 c -1.44466,-0.93345 -3.0365,-1.26871 -3.5374,-0.74504 -0.50089,0.52367 0.2713,1.71584 1.71596,2.64929 1.44467,0.93345 3.03651,1.26872 3.5374,0.74504 0.5009,-0.52368 -0.27129,-1.71586 -1.71596,-2.64929 z m -221.383762,0.13158 c 0.576381,-0.97498 0.214911,-2.31092 -0.803222,-2.96876 -1.018132,-0.65784 -1.85116,0.13977 -1.85116,1.77267 0,3.34487 1.092961,3.83736 2.654382,1.19609 z m 47.286475,0.61681 c 3.104295,-1.24538 3.9342,-7.46023 1.229566,-9.20776 -0.908376,-0.58693 -1.222611,0.64786 -0.698286,2.74398 0.663191,2.65138 0.05723,3.81113 -1.99132,3.81113 -1.619539,0 -2.944607,0.85693 -2.944607,1.90426 0,2.21979 0.517709,2.30775 4.404647,0.74839 z m 184.115267,-0.74839 c 0.61914,-1.04733 -0.1521,-1.90426 -1.71395,-1.90426 -1.56183,0 -2.83969,0.85693 -2.83969,1.90426 0,1.04734 0.77128,1.90425 1.71395,1.90425 0.94268,0 2.22054,-0.85691 2.83969,-1.90425 z M 70.089828,524.43802 c 0.619149,-1.04733 0.257705,-1.90424 -0.803222,-1.90424 -1.060919,0 -1.928945,0.85691 -1.928945,1.90424 0,1.04736 0.361444,1.90425 0.803222,1.90425 0.441771,0 1.309796,-0.85689 1.928945,-1.90425 z m -40.071859,-1.90424 c 0.61914,-1.04734 -0.152093,-1.90425 -1.713948,-1.90425 -1.56182,0 -2.839678,0.85691 -2.839678,1.90425 0,1.04733 0.771277,1.90424 1.713948,1.90424 0.942672,0 2.220529,-0.85691 2.839678,-1.90424 z m 29.020044,0.20828 c 0.974454,-1.64837 -6.476942,-7.76904 -10.584602,-8.69426 -1.123328,-0.25302 -3.512158,-1.12379 -5.308505,-1.93505 -5.709855,-2.57862 -5.405679,0.39095 0.407821,3.98117 3.074733,1.89887 5.590447,4.1824 5.590447,5.07451 0,0.89209 1.639302,1.07806 3.6429,0.41322 2.089762,-0.69342 3.642893,-0.34219 3.642893,0.8238 0,2.47415 1.250057,2.63545 2.609046,0.33661 z m 79.673537,-6.3509 c -1.0018,-1.04736 -2.80001,-1.27195 -3.99606,-0.49917 -1.6522,1.06754 -1.60181,1.7752 0.20968,2.94567 3.10729,2.00769 6.16012,0.0352 3.78638,-2.4465 z m -105.961414,0.42986 c 0,-1.04734 -0.361443,-1.90426 -0.803222,-1.90426 -0.441771,0 -1.309805,0.85692 -1.928945,1.90426 -0.619149,1.04735 -0.257705,1.90425 0.803222,1.90425 1.06092,0 1.928945,-0.8569 1.928945,-1.90425 z m 94.715324,0 c 0,-1.04734 -0.81966,-1.90426 -1.82146,-1.90426 -1.00178,0 -1.82145,0.85692 -1.82145,1.90426 0,1.04735 0.81967,1.90425 1.82145,1.90425 1.0018,0 1.82146,-0.8569 1.82146,-1.90425 z m -67.393592,-7.61701 c 0,-1.04733 -0.819655,-1.90425 -1.821451,-1.90425 -1.001794,0 -1.82145,0.85692 -1.82145,1.90425 0,1.04734 0.819656,1.90425 1.82145,1.90425 1.001796,0 1.821451,-0.85691 1.821451,-1.90425 z m 19.542624,-3.05475 c -0.605266,-0.63275 -2.176261,-0.7004 -3.491112,-0.15024 -1.453026,0.60787 -1.021436,1.05911 1.100461,1.15047 1.9201,0.0827 2.995899,-0.36738 2.390651,-1.00015 z m 65.204028,-0.83716 c 0.64627,-1.09322 0.14153,-3.28964 -1.12177,-4.88096 -2.05055,-2.58309 -2.46851,-2.57255 -3.89829,0.0985 -2.65142,4.95323 2.1916,9.56704 5.02006,4.78248 z M 39.542633,504.24503 c -0.605274,-0.63278 -2.17627,-0.70041 -3.491121,-0.15025 -1.453025,0.60787 -1.021428,1.05909 1.100471,1.15046 1.92009,0.0827 2.995898,-0.36739 2.39065,-1.00015 z m 95.867307,-1.7059 c -0.57665,-1.57101 -1.37058,-2.85638 -1.7643,-2.85638 -0.39372,0 -0.71584,1.28537 -0.71584,2.85638 0,1.57101 0.79393,2.85638 1.76427,2.85638 0.97036,0 1.29251,-1.28537 0.71587,-2.85638 z m -84.938622,-0.19837 c -0.605265,-0.63276 -2.176269,-0.7004 -3.491112,-0.15024 -1.453025,0.60788 -1.021436,1.0591 1.100461,1.15047 1.9201,0.0827 2.995899,-0.36739 2.390651,-1.00015 z M 242.2167,165.74334 c 0,-1.42977 1.69879,-4.85742 3.7751,-7.617 2.86016,-3.80141 3.14063,-5.01744 1.15722,-5.01744 -1.43984,0 -11.72886,-8.14068 -22.86447,-18.09039 -20.22818,-18.07394 -22.13971,-19.49757 -22.13971,-16.48867 0,3.22579 36.10358,49.63166 38.70578,49.75062 0.75134,0.0344 1.36608,-1.10734 1.36608,-2.53712 z m 20.94665,-10.7302 c -0.61914,-1.04734 -2.51173,-1.84401 -4.20576,-1.7704 -2.51084,0.10912 -2.40683,0.43627 0.56288,1.7704 4.87402,2.18967 4.93732,2.18967 3.64288,0 z m 2.15497,-13.6868 c -0.58143,-1.51909 -1.01304,-1.06787 -1.10044,1.15049 -0.0791,2.00739 0.3514,3.13209 0.95667,2.49933 0.60526,-0.63277 0.66994,-2.27519 0.14371,-3.64982 z m 44.29197,399.18543 c 0,-1.6328 0.83302,-2.4305 1.85116,-1.77265 1.01813,0.65783 1.3796,1.99378 0.80322,2.96876 -1.5614,2.64127 -2.65438,2.14878 -2.65438,-1.19611 z m 43.71477,-0.83973 c -2.33492,-1.57754 -2.26871,-1.85017 0.45536,-1.8751 1.75315,-0.0152 3.18753,0.82776 3.18753,1.8751 0,2.32245 -0.20544,2.32245 -3.64289,0 z M 304.17759,529.2989 c -1.21888,-3.86116 -1.78508,-7.47098 -1.2582,-8.02181 1.78097,-1.86192 6.45834,9.99446 4.94963,12.54658 -1.02166,1.72822 -2.15666,0.337 -3.69143,-4.52477 z m 48.10119,3.39088 c 0.5159,-1.40555 -0.26222,-2.539 -1.74306,-2.539 -1.47125,0 -2.67502,-0.80634 -2.67502,-1.79186 0,-2.75569 3.24942,-4.22281 4.53526,-2.0477 0.62925,1.06442 3.27188,1.93531 5.8725,1.93531 4.46978,0 4.56311,0.19097 1.70639,3.49113 -3.49873,4.0418 -9.08374,4.73278 -7.69607,0.95212 z m -30.18149,-6.51753 c -2.9938,-1.93439 1.4498,-4.10575 5.59049,-2.7318 4.0281,1.3366 7.10712,-2.32637 3.25465,-3.87189 -1.60986,-0.64585 -2.26003,-2.77092 -1.73172,-5.66024 0.63476,-3.47147 1.90634,-4.53439 5.09451,-4.25852 3.36556,0.29119 3.82048,0.90691 2.18874,2.96243 -2.26516,2.8534 0.77654,6.00362 5.9024,6.11304 2.34364,0.05 2.36029,0.30434 0.11713,1.78829 -1.98093,1.31044 -2.11583,2.35883 -0.55626,4.3234 1.69468,2.1348 0.29279,2.59347 -7.92697,2.59347 -5.49216,0 -10.862,-0.56617 -11.93297,-1.25818 z m 28.49559,-3.71714 -5.46434,-1.37498 6.37506,-0.48463 c 4.55831,-0.34653 5.20714,-0.71981 2.27682,-1.30987 -2.25405,-0.45389 -4.09826,-2.05101 -4.09826,-3.54917 0,-3.12583 2.88348,-3.64488 4.55362,-0.8197 0.61914,1.04735 2.71665,1.90426 4.66112,1.90426 2.18076,0 3.53539,1.304 3.53539,3.40327 0,3.73294 -3.35644,4.36536 -11.83941,2.23082 z m -54.5255,-9.24307 c -0.55427,-0.93758 0.13681,-2.16391 1.53589,-2.72515 2.67077,-1.07147 4.72123,0.16319 4.72123,2.843 0,2.1266 -4.9858,2.0327 -6.25712,-0.11787 z m 24.47161,-1.27683 c 0,-0.59252 0.83247,-2.70353 1.84992,-4.69109 1.67217,-3.26654 0.9754,-3.73507 -7.25111,-4.87597 -10.7659,-1.49306 -10.42524,-4.60222 0.49971,-4.5605 5.69854,0.0217 6.94105,0.51136 4.90148,1.93129 -1.91623,1.33405 -0.2843,1.54869 5.46434,0.71875 8.072,-1.1654 8.1324,-1.13389 3.97591,2.07479 -2.32135,1.79201 -3.80748,4.38373 -3.30257,5.7594 0.50495,1.37565 -0.32666,3.00056 -1.84805,3.61092 -3.45778,1.38719 -4.28963,1.39347 -4.28963,0.0324 z m -40.07187,-2.7312 c 0,-1.04733 1.27785,-1.90425 2.83967,-1.90425 1.56181,0 2.3331,0.85692 1.71395,1.90425 -0.61914,1.04734 -1.89701,1.90425 -2.83968,1.90425 -0.94267,0 -1.71394,-0.85691 -1.71394,-1.90425 z m -12.75014,-1.90425 c 0,-1.04734 0.81965,-1.90425 1.82144,-1.90425 1.00182,0 1.82145,0.85691 1.82145,1.90425 0,1.04734 -0.81963,1.90425 -1.82145,1.90425 -1.00179,0 -1.82144,-0.85691 -1.82144,-1.90425 z m 29.52672,-2.92882 c -2.68543,-3.18317 -13.55234,-3.70281 -18.58213,-0.88857 -2.14624,1.20085 -4.93887,1.24506 -7.6214,0.12072 -2.32866,-0.97604 -3.16097,-1.82895 -1.8496,-1.89534 1.31137,-0.0665 1.87772,-0.97762 1.25858,-2.02496 -0.61914,-1.04733 0.20051,-1.90426 1.82145,-1.90426 1.62095,0 2.44059,0.85693 1.82146,1.90426 -0.61916,1.04734 0.61032,1.90425 2.73215,1.90425 2.12186,0 3.44858,-0.69241 2.9483,-1.53867 -0.9262,-1.56677 17.97122,-1.14199 22.06591,0.49601 1.23536,0.49418 1.7624,2.21631 1.17122,3.82696 -1.3233,3.60523 -2.72421,3.60516 -5.76594,-3.6e-4 z m 38.5316,0.60844 c -0.48387,-0.81847 0.75958,-1.48812 2.76318,-1.48812 2.00359,0 4.11881,0.80506 4.70049,1.789 0.58165,0.98395 -0.66178,1.6536 -2.7632,1.48811 -2.10143,-0.16547 -4.21666,-0.97055 -4.70047,-1.78899 z m -230.16723,-1.48812 c 0,-1.04735 0.86803,-1.90425 1.92896,-1.90425 1.0609,0 1.42236,0.8569 0.80322,1.90425 -0.61915,1.04733 -1.48718,1.90425 -1.92896,1.90425 -0.44177,0 -0.80322,-0.85692 -0.80322,-1.90425 z m 244.78117,-0.34448 c -0.42158,-0.71314 -0.0757,-1.74295 0.76856,-2.28846 1.87121,-1.20904 9.45305,0.69902 9.45305,2.37896 0,1.62757 -9.2544,1.54561 -10.22161,-0.0905 z m 15.68595,-2.23729 c 0,-1.19836 2.04913,-2.17886 4.55362,-2.17886 5.9389,0 5.93773,3.72485 -8.6e-4,4.08311 -2.50378,0.15101 -4.55234,-0.70587 -4.55234,-1.90425 z m -5.80586,-2.52755 c 1.31484,-0.55008 2.88584,-0.48244 3.49111,0.15024 0.60525,0.63277 -0.47056,1.08283 -2.39065,1.00015 -2.12189,-0.0915 -2.55349,-0.54259 -1.10046,-1.15047 z M 328.73549,304.06339 c -11.85707,-2.17058 -11.47216,-1.76099 -9.85738,-10.48923 0.82623,-4.46588 1.55048,-11.11895 1.60944,-14.78463 0.1723,-10.70716 1.24408,-11.33634 14.62302,-8.58389 6.51167,1.33965 15.05529,3.60484 18.98581,5.03376 7.28887,2.6498 10.97186,7.35863 5.75552,7.35863 -3.65718,0 -3.76011,3.04954 -0.15172,4.49714 1.50269,0.60284 2.73216,2.40835 2.73216,4.01224 0,1.60388 -1.22947,2.91613 -2.73216,2.91613 -1.5027,0 -2.73218,1.60891 -2.73218,3.57535 0,1.96642 -1.02456,4.43318 -2.2768,5.48165 -2.16129,1.80962 -18.13518,2.41448 -25.95565,0.98285 z m 10.8756,-167.0237 c -3.0346,-1.33969 -8.62486,-5.49972 -12.42283,-9.24449 -5.85953,-5.77745 -6.61011,-7.38546 -4.95588,-10.61694 1.07222,-2.09455 1.94949,-6.31023 1.94949,-9.36815 0,-3.31753 1.8697,-7.66903 4.6359,-10.789496 l 4.6359,-5.229598 -6.91271,-11.267102 C 321.5834,72.443522 314.09021,64.677605 300.04769,53.066318 289.27837,44.161555 280.46712,35.698727 280.46712,34.260042 c 0,-3.981631 4.04284,-4.782765 13.49733,-2.674655 7.77562,1.73377 9.21203,1.468901 15.30105,-2.821478 9.8913,-6.969495 19.30191,-9.468126 32.38069,-8.597475 13.19662,0.878503 18.85063,4.279826 26.61902,16.013393 5.89662,8.90644 8.04093,20.98461 5.26686,29.666766 -1.11266,3.482395 -5.22533,10.554424 -9.13925,15.715624 l -7.11623,9.384022 3.5557,9.430991 c 3.25391,8.63044 3.31059,9.71418 0.66794,12.76701 -1.92627,2.22528 -2.48932,4.99564 -1.69112,8.32058 0.998,4.15708 0.5795,4.98455 -2.52094,4.98455 -2.04471,0 -4.20362,1.60081 -4.7976,3.55737 -0.59398,1.95655 -2.49342,4.88743 -4.221,6.51306 -2.66421,2.50702 -3.97859,2.58595 -8.65848,0.51989 z"
         style="fill:#000000" />
</svg>
