<?xml version="1.0" encoding="UTF-8" standalone="no"?>
<svg
     xmlns:dc="http://purl.org/dc/elements/1.1/"
     xmlns:cc="http://creativecommons.org/ns#"
     xmlns:rdf="http://www.w3.org/1999/02/22-rdf-syntax-ns#"
     xmlns:svg="http://www.w3.org/2000/svg"
     xmlns="http://www.w3.org/2000/svg"
     viewBox="0 0 786.16711 1063.8815"
     height="1063.8815"
     width="786.16711"
     version="1.1"
     id="svg5834">
    <metadata
         id="metadata5840">
        <rdf:RDF>
            <cc:Work
                 rdf:about="">
                <dc:format>image/svg+xml</dc:format>
                <dc:type
                     rdf:resource="http://purl.org/dc/dcmitype/StillImage" />
                <dc:title></dc:title>
            </cc:Work>
        </rdf:RDF>
    </metadata>
    <defs
         id="defs5838" />
    <path
         id="path6386"
         d="m 27.743734,979.65558 c -0.121791,-31.52132 -0.47996,-65.53807 -0.795923,-75.5928 -1.239566,-39.44598 -1.30298,-112.61066 -0.309683,-357.29215 0.285527,-70.33522 0.436733,-168.99203 0.336008,-219.23732 -0.100723,-50.24532 0.428329,-137.47592 1.17567,-193.8458 L 29.50861,31.196837 63.820702,31.374084 c 66.174168,-0.344662 -16.423304,1.004551 7.808692,16.275866 1.88603,1.10355 22.70651,6.350788 46.267746,11.660532 23.5612,5.309741 57.84445,13.149608 76.185,17.421927 18.34053,4.272319 52.44484,12.216979 75.78732,17.654806 23.34249,5.437811 42.71747,9.625355 43.05548,9.305625 0.33801,-0.3197 0.19701,-16.761632 -0.31349,-36.537576 -0.51041,-19.775943 -0.54019,-36.328898 -0.0663,-36.784342 0.47396,-0.455445 14.63199,-0.379843 31.46234,0.168011 24.52677,1.165253 19.43938,1.27239 -0.87996,1.775395 l -0.73963,38.52132 -0.73966,38.521322 4.73544,1.90524 c 2.60453,1.04791 22.83615,5.94845 44.9592,10.89015 22.12307,4.94168 72.75687,16.49379 112.5196,25.67136 39.76275,9.17755 73.64653,16.71239 75.29729,16.74409 2.58736,0.0496 3.17578,-9.02243 4.26514,-65.757446 1.23418,-64.276599 1.16831,-65.847372 -2.81544,-67.196499 -191.6324,-1.371597 103.19737,-4.402244 154.15187,-4.623477 l 23.08174,-0.07912 0.40739,14.218069 c 0.58359,20.366976 0.68395,303.986773 0.16128,455.745973 -0.24417,70.89429 -0.32308,146.25782 -0.17535,167.47453 0.14773,21.21671 -0.0707,84.24508 -0.4855,140.06309 -0.41479,55.81802 -0.46814,105.14684 -0.11861,109.61963 0.34954,4.47278 0.23449,34.15984 -0.25607,65.97124 l -0.89161,57.8389 -5.72253,0.3414 c -3.14737,0.1878 -100.2632,-0.086 -215.81292,-0.6075 -240.51324,-1.0865 -424.25358,-1.4573 -473.230812,-0.9555 l -33.753212,0.346 -0.221441,-57.31151 z M 389.76451,735.38364 c 1.16416,-1.1203 4.23565,-2.40296 6.82553,-2.85034 2.58985,-0.44738 5.04579,-1.13766 5.45766,-1.53399 0.41182,-0.39633 -0.12896,-6.03746 -1.20162,-12.53583 -2.52326,-15.28584 -1.29626,-19.17894 9.10722,-28.89574 6.79979,-6.35099 9.48854,-7.68815 12.83667,-6.384 11.84445,4.61364 17.347,5.99739 17.37826,4.37017 0.0189,-0.99048 -2.67776,-3.27017 -5.99285,-5.06595 -3.31508,-1.79577 -6.01234,-4.04975 -5.99393,-5.00885 0.0334,-1.74448 7.72234,-7.26108 15.43794,-11.07646 3.33333,-1.64835 4.26008,-4.44903 4.96131,-14.99323 l 0.86235,-12.96622 -12.53934,-13.24076 c -6.89665,-7.2824 -16.23976,-15.53362 -20.76249,-18.33606 -4.52277,-2.80244 -11.99271,-9.74403 -16.59995,-15.42579 l -8.37676,-10.33043 -5.50682,3.77736 c -3.02872,2.07755 -8.35235,9.24768 -11.83029,15.93364 -4.61658,8.87489 -7.92272,12.70381 -12.24798,14.18465 -9.22185,3.1573 -10.86759,2.45285 -12.15196,-5.20147 l -1.19694,-7.13321 -4.85383,5.42854 c -4.14978,4.64111 -5.31546,5.03026 -8.03604,2.68274 -2.56468,-2.21303 -2.71238,-3.5818 -0.76105,-7.05378 1.33162,-2.36935 3.63915,-9.61862 5.12784,-16.10949 2.67041,-11.64333 2.648,-11.7841 -1.67196,-10.50001 -9.65697,2.87057 -15.14899,3.0508 -16.63144,0.54587 -1.73903,-2.9385 6.83966,-10.4954 16.60826,-14.6301 3.37701,-1.42935 9.86106,-6.08787 14.40902,-10.35228 10.09447,-9.4651 33.7234,-22.35452 40.73364,-22.21991 2.82416,0.0542 8.57451,2.08857 12.77858,4.52074 6.86951,3.97422 7.16392,4.01149 2.90658,0.36795 -4.19198,-3.58765 -4.3369,-4.19903 -1.2592,-5.31274 8.1869,-2.96259 25.03785,5.99741 42.58321,22.64233 5.89272,5.59032 10.98268,9.79886 11.31103,9.35234 2.15404,-2.9291 5.70736,-12.69513 5.76799,-15.85286 0.0798,-4.15793 -9.44208,-13.4156 -16.12704,-15.67946 -4.529,-1.53377 -4.51201,-3.15849 0.23998,-22.94228 3.00577,-12.51411 -0.009,-21.91968 -7.55884,-23.58093 -4.04102,-0.88921 -5.76242,-2.49105 -5.70825,-5.31182 0.10573,-5.50359 11.35985,-17.44348 17.85358,-18.94141 4.17815,-0.9638 5.06802,-2.13798 4.23588,-5.58943 -0.82476,-3.42091 1.73024,-6.93005 11.77044,-16.16599 7.0531,-6.48814 14.67269,-12.93524 16.93245,-14.32686 5.86742,-3.6133 27.50098,-5.17386 36.7849,-2.65359 4.33715,1.17739 10.29768,2.73051 13.24565,3.45135 7.19151,1.75846 22.59693,17.62157 28.59504,29.44452 4.15024,8.18068 4.803,12.258 4.48929,28.04104 -0.24638,12.41429 -1.39745,20.35472 -3.51016,24.22269 -1.72866,3.16489 -3.1484,6.33492 -3.15499,7.04457 -0.0145,1.50315 11.51678,8.61671 14.04598,8.66527 1.81017,0.0349 3.44902,-113.57621 3.49042,-241.96616 0.0219,-67.9587 -0.34204,-76.6933 -3.23117,-77.54777 -1.79075,-0.52962 -13.7199,-3.11946 -26.50926,-5.75522 -12.78936,-2.63573 -31.43913,-6.66219 -41.44392,-8.94767 -17.65811,-4.03382 -53.77392,-11.64414 -90.98346,-19.17205 -10.00978,-2.02508 -40.94215,-8.64851 -68.73858,-14.71873 -27.79643,-6.07021 -66.46208,-14.3384 -85.92368,-18.37375 C 246.5758,131.34142 194.02361,119.30883 149.25476,108.63767 104.48588,97.966499 67.592027,89.583412 67.268396,90.008566 c -0.323631,0.425156 -0.161282,13.570434 0.360775,29.211744 1.365874,40.92264 2.528008,173.79729 1.835488,209.8641 3.161104,34.51209 1.68056,66.03935 1.122603,101.29557 0.107805,36.56809 0.462437,66.79682 0.788128,67.17501 0.935045,1.08581 8.822856,-16.67221 10.486545,-23.60859 0.827502,-3.45008 2.345176,-6.25678 3.372601,-6.23704 2.805395,0.0539 2.314589,-3.34398 -0.977111,-6.76456 -6.121375,-6.36106 -9.093013,-19.25229 -9.079174,-39.38628 0.01194,-17.37036 0.765017,-21.856 5.693531,-33.91316 5.603978,-13.70964 13.907353,-23.05894 20.502328,-23.0849 1.73546,-0.007 7.66623,-2.75312 13.17949,-6.1029 8.9529,-5.43962 11.66471,-6.05489 25.3759,-5.75732 18.82087,0.40848 35.84663,3.54924 44.42271,8.19491 3.54977,1.92291 11.27412,8.465 17.16517,14.53796 11.54836,11.90498 15.60858,22.97669 10.56811,28.81814 -2.0162,2.33664 -2.10509,4.21542 -0.38726,8.18599 3.16562,7.31689 2.44026,27.28023 -1.13103,31.12831 -3.90825,4.21116 -4.46753,8.17253 -2.02863,14.3686 1.11523,2.83333 2.41602,8.52047 2.89065,12.63812 l 0.86291,7.48661 -8.31866,0.45291 c -7.90883,0.43058 -8.4083,0.84831 -10.13681,8.47759 -1.19858,5.29021 -1.01943,10.06274 0.52574,14.00554 2.06997,5.28192 1.84513,6.36912 -1.92393,9.30312 -3.16352,2.4626 -3.79139,4.2133 -2.42661,6.76583 1.16446,2.17783 1.12042,3.42971 -0.11978,3.40588 -1.07859,-0.0203 -2.36919,-1.18736 -2.86806,-2.5926 -1.20891,-3.40523 -0.3813,9.41114 1.33432,20.66341 1.20165,7.88134 0.95944,8.82444 -1.9616,7.63871 -5.72202,-2.32274 -3.76013,1.84239 6.24479,13.25786 5.3056,6.05358 11.02908,13.83082 12.71887,17.2828 1.68978,3.45195 7.16581,11.00887 12.16892,16.79314 5.00313,5.78425 10.18464,13.13465 11.51449,16.33417 6.71835,16.16394 21.92797,42.11286 26.8019,45.72639 6.38862,4.73653 19.76364,10.2271 31.56312,12.95698 4.52463,1.0468 11.969,3.48468 16.54308,5.41753 8.24598,3.48451 8.37825,3.46901 15.60806,-1.82904 5.04778,-3.69902 7.98523,-7.91476 9.54559,-13.69958 1.23967,-4.59593 3.22712,-10.00234 4.41653,-12.0142 1.50694,-2.54898 1.49922,-5.80554 -0.0255,-10.74189 -3.43548,-11.12268 -1.29565,-13.76558 9.74484,-12.03577 17.92699,2.80877 25.29891,6.18795 27.93235,12.80379 1.62071,4.07154 4.74733,6.98183 9.21132,8.57399 4.78115,1.70526 6.93559,3.84824 7.36551,7.32633 0.33419,2.70381 1.5272,6.08053 2.65113,7.50382 2.65146,3.35759 0.3896,15.6748 -5.0075,27.26892 -3.80475,8.17343 -5.69601,10.15296 -10.83841,11.34422 -0.80498,0.18653 -6.75051,3.38595 -13.21231,7.1099 -6.46182,3.72396 -12.94395,6.74789 -14.40475,6.71984 -1.46079,-0.028 -2.67539,0.95987 -2.69913,2.1954 -0.0234,1.23551 1.30728,1.75774 2.95776,1.16048 1.65049,-0.59727 3.47183,-0.29023 4.04739,0.6823 0.57555,0.97256 4.58971,1.36208 8.92035,0.86566 4.70513,-0.53933 8.41883,0.0181 9.22795,1.38543 0.91968,1.55399 -1.61394,2.23104 -7.89746,2.11038 -5.08834,-0.0977 -9.26708,0.63192 -9.28607,1.62133 -0.0466,2.43078 -12.147,3.84271 -13.48961,1.57403 -0.5862,-0.99052 -0.006,-3.02954 1.28996,-4.53113 1.66126,-1.92525 1.72129,-3.13933 0.20358,-4.1181 -1.18373,-0.7634 -1.92185,-0.31435 -1.64028,0.99787 0.2816,1.31221 -1.55792,3.14238 -4.08785,4.06706 -2.67,0.97584 -4.58523,0.91968 -4.56501,-0.13396 0.0191,-0.99832 1.64094,-2.20204 3.60392,-2.67495 2.81525,-0.67827 2.65151,-0.92723 -0.77517,-1.17877 -3.90286,-0.28648 -6.8732,3.04032 -6.96459,7.80042 -0.0181,0.96073 1.79956,1.43013 4.04005,1.0431 2.44624,-0.42257 4.0526,0.38865 4.02106,2.03065 -0.0719,3.74645 15.86346,2.00209 21.20137,-2.32079 2.17975,-1.76522 3.27378,-2.08087 2.43122,-0.70141 -1.08547,1.77718 0.25864,2.54251 4.61198,2.62611 4.62756,0.0889 5.84125,0.86369 4.91744,3.13948 -0.6746,1.66181 -2.55248,2.99604 -4.17311,2.96492 -1.62061,-0.0311 -2.36466,-0.95894 -1.65345,-2.06178 0.71122,-1.10288 -0.10188,-2.03199 -1.80686,-2.06474 -1.92185,-0.037 -2.67829,1.10587 -1.99039,3.00685 1.67107,4.61788 7.6052,3.81324 13.46499,-1.82575 6.18882,-5.95563 8.73763,-12.97321 4.73982,-13.04999 -1.50381,-0.0289 -3.36553,-1.11927 -4.13717,-2.42312 -0.82923,-1.40118 -0.52628,-1.80526 0.74081,-0.98814 1.17907,0.76038 2.63086,0.24417 3.22619,-1.14693 0.79226,-1.85135 1.51996,-1.90373 2.71468,-0.19534 0.89773,1.28372 3.45174,2.72647 5.67558,3.20616 3.92979,0.84765 3.91297,0.9806 -0.59841,4.73457 -2.55296,2.12435 -4.66416,5.02928 -4.69153,6.45538 -0.0274,1.42613 -0.96297,2.57543 -2.07908,2.55398 -4.25765,-0.0818 -1.88094,4.03105 2.45594,4.24993 4.35406,0.21981 4.37566,0.30663 0.4711,1.8964 -3.5006,1.42527 -3.19785,1.70389 2.09453,1.92755 3.4026,0.14384 7.13908,-0.65513 8.30324,-1.77545 z m 5.17626,-15.07835 c 0.0212,-1.11612 0.95046,-3.38207 2.06455,-5.03545 1.11407,-1.65338 2.00803,-2.09298 1.98661,-0.97686 -0.0212,1.1161 -0.95047,3.38206 -2.06455,5.03543 -1.11408,1.65339 -2.00804,2.09298 -1.98661,0.97688 z m -80.6718,-136.5463 c 0.0212,-1.11613 0.95214,-2.01178 2.06826,-1.99034 1.11611,0.0212 2.01175,0.95215 1.99032,2.06826 -0.0212,1.1161 -0.95215,2.01174 -2.06825,1.99032 -1.11611,-0.0212 -2.01174,-0.95214 -1.99033,-2.06824 z m 83.81098,152.63538 c -0.66139,-0.68726 -2.41026,-0.79294 -3.8864,-0.23478 -1.63127,0.61669 -1.15966,1.10679 1.20249,1.24955 2.1375,0.12917 3.34526,-0.32742 2.68391,-1.01469 z m -45.49813,-5.03877 c -1.36321,-0.58225 -4.1021,-0.66867 -6.08642,-0.19218 -1.9843,0.47658 -0.86893,0.95297 2.47859,1.05863 3.34753,0.10568 4.97105,-0.28429 3.60784,-0.86655 z m -39.75554,-28.35977 c -1.5268,-17.00951 -2.54405,-17.32995 -2.85952,-0.90076 -0.1554,8.09289 0.59611,13.54504 1.8703,13.56949 1.40769,0.0269 1.74316,-4.26941 0.98922,-12.66873 z m 47.40323,-34.91076 c -0.62463,-0.64905 -4.70742,-2.30972 -9.07288,-3.69034 -7.30229,-2.30941 -7.94322,-2.19746 -8.01229,1.39969 -0.0966,5.03291 7.52825,8.09665 13.60635,5.46713 2.53795,-1.09797 4.10343,-2.52738 3.47882,-3.17648 z M 471.7557,627.79311 c 1.6069,-11.46733 2.40947,-21.38194 1.7835,-22.03244 -0.62598,-0.65049 -3.38815,-0.66367 -6.13813,-0.0294 -4.18738,0.96592 -5.25435,2.77212 -6.56525,11.1137 -1.47164,9.3645 -0.59004,28.82819 1.70439,37.63278 1.94889,7.47824 6.12134,-4.60369 9.21549,-26.68468 z M 367.08516,578.68298 c 0.052,-2.7057 -0.1666,-2.70991 -1.96711,-0.0379 -1.11408,1.65338 -2.05189,4.37594 -2.08402,6.05009 -0.052,2.70571 0.16658,2.7099 1.96712,0.0379 1.11409,-1.65339 2.05187,-4.37593 2.08401,-6.05011 z m 120.59661,1.32373 c 4.14624,-2.69893 10.50997,-6.34589 14.14163,-8.10431 6.26962,-3.03575 31.28719,-26.35469 29.86262,-27.83505 -0.37047,-0.38496 -4.20523,1.60206 -8.5217,4.41559 -10.49124,6.83831 -30.39982,14.3429 -37.67885,14.20313 -3.23386,-0.0621 -6.99024,-1.50448 -8.34752,-3.20532 -3.92064,-4.91304 -7.61309,-3.70701 -9.22491,3.0131 -1.69376,7.06179 -0.21025,9.85105 3.39425,6.38227 4.33761,-4.17417 5.69804,-2.48833 5.51895,6.83891 -0.0964,5.02249 0.6104,9.14688 1.57075,9.16533 0.96037,0.0181 5.1385,-2.17471 9.28478,-4.87365 z m -76.20873,-10.43305 c 3.70355,-4.10819 4.66331,-7.47418 4.65888,-16.33938 l -0.006,-11.16529 -1.90394,8.78708 c -2.37954,10.98201 -8.24481,20.78066 -14.10426,23.56276 -2.46692,1.17131 -3.92502,2.71188 -3.24025,3.42348 1.81603,1.88708 9.22233,-2.30884 14.5951,-8.26865 z M 164.52123,521.44369 c -0.62873,-2.72564 -5.50992,-7.95923 -11.175,-11.98181 -5.53227,-3.92824 -10.04819,-7.78016 -10.03539,-8.55977 0.0135,-0.77959 -2.21234,-3.92464 -4.9448,-6.98899 -2.73246,-3.06432 -4.95736,-6.13166 -4.94422,-6.81634 0.0363,-1.89064 -8.23417,-6.8708 -9.45664,-5.69437 -1.3694,1.31781 10.75703,16.74059 26.67733,33.92904 12.51898,13.5162 15.93348,15.01997 13.87872,6.11224 z"
         style="fill:#000000" />
</svg>
