<?xml version="1.0" encoding="UTF-8" standalone="no"?>
<svg
     xmlns:dc="http://purl.org/dc/elements/1.1/"
     xmlns:cc="http://creativecommons.org/ns#"
     xmlns:rdf="http://www.w3.org/1999/02/22-rdf-syntax-ns#"
     xmlns:svg="http://www.w3.org/2000/svg"
     xmlns="http://www.w3.org/2000/svg"
     version="1.1"
     width="200"
     height="200"
     viewBox="0 0 200 200"
     id="svg2985">
    <title
         id="title4155">foobar2000 Aliencat Logo</title>
    <metadata
         id="metadata2991">
        <rdf:RDF>
            <cc:Work
                 rdf:about="">
                <dc:format>image/svg+xml</dc:format>
                <dc:type
                     rdf:resource="http://purl.org/dc/dcmitype/StillImage" />
                <dc:title>foobar2000 Aliencat Logo</dc:title>
                <cc:license
                     rdf:resource="http://creativecommons.org/publicdomain/zero/1.0/" />
            </cc:Work>
            <cc:License
                 rdf:about="http://creativecommons.org/publicdomain/zero/1.0/">
                <cc:permits
                     rdf:resource="http://creativecommons.org/ns#Reproduction" />
                <cc:permits
                     rdf:resource="http://creativecommons.org/ns#Distribution" />
                <cc:permits
                     rdf:resource="http://creativecommons.org/ns#DerivativeWorks" />
            </cc:License>
        </rdf:RDF>
    </metadata>
    <defs
         id="defs2989">
        <filter
             id="filter4147"
             style="color-interpolation-filters:sRGB;">
            <feGaussianBlur
                 id="feGaussianBlur4149"
                 stdDeviation="4"
                 in="SourceAlpha"
                 result="result0" />
            <feOffset
                 id="feOffset4151"
                 result="result4"
                 dy="5"
                 dx="5" />
            <feComposite
                 id="feComposite4153"
                 result="result3"
                 operator="xor"
                 in2="result4"
                 in="SourceGraphic" />
        </filter>
    </defs>
    <text
         x="37.902905"
         y="192.14413"
         transform="scale(1.007473,0.99258244)"
         id="text3218"
         xml:space="preserve"
         style="font-size:53.7034874px;font-style:normal;font-variant:normal;font-weight:normal;font-stretch:normal;text-align:start;line-height:125%;letter-spacing:0px;word-spacing:0px;writing-mode:lr-tb;text-anchor:start;fill:#000000;fill-opacity:1;stroke:#000000;stroke-width:1.01999998;stroke-linecap:square;stroke-linejoin:bevel;stroke-miterlimit:4;stroke-opacity:1;stroke-dasharray:none;font-family:Open Sans,Liberation Sans,sans-serif">FB2K</text>
    <path
         d="m 105.21112,136.94162 c -1.64567,1.30948 -3.21899,2.78396 -5.05954,3.81632 C 88.612744,132.02009 78.354057,121.47677 69.494899,110.00506 62.296447,99.837463 53.327804,89.237984 53.564956,76.038384 c -1.150607,-15.14287 5.832672,-29.08779 11.976397,-42.43517 3.407473,-6.44199 6.075583,-13.64798 10.786315,-19.16771 5.523877,7.21144 10.591433,14.76245 15.863352,22.15982 5.326223,-0.0131 10.65243,-0.0262 15.97864,-0.0393 2.15713,-3.06328 4.31425,-6.12656 6.47137,-9.18983 3.25342,-4.21623 6.17075,-9.66365 9.83117,-12.88638 6.57802,10.11964 11.4416,21.29626 16.30143,32.32683 5.90143,13.90843 9.57572,30.46942 2.22333,44.61095 -9.4332,17.459196 -22.77972,32.651196 -37.78584,45.523986 z"
         id="path3051-4"
         style="fill:#ffffff;fill-opacity:1;stroke:#000000;stroke-width:1;stroke-linecap:square;stroke-linejoin:bevel;stroke-opacity:1;filter:url(#filter4147)" />
    <path
         d="m 68.604413,81.580721 a 22.249945,11.40955 51.756017 0 0 22.812264,10.82723 22.249945,11.40955 51.756017 0 0 -4.425383,-24.35701 22.249945,11.40955 51.756017 0 0 -22.812263,-10.82723 22.249945,11.40955 51.756017 0 0 4.425382,24.35701 z"
         id="path5804"
         style="fill:#000000;fill-opacity:1;fill-rule:evenodd;stroke:none" />
    <path
         d="m 132.24717,81.417421 a 11.40955,22.249945 38.243983 0 1 -22.81226,10.82723 11.40955,22.249945 38.243983 0 1 4.42538,-24.357 11.40955,22.249945 38.243983 0 1 22.81226,-10.82723 11.40955,22.249945 38.243983 0 1 -4.42538,24.357 z"
         id="path5804-59"
         style="fill:#000000;fill-opacity:1;fill-rule:evenodd;stroke:none" />
    <path
         d="m 101.29981,107.00651 a 2.1502151,2.1502151 0 0 1 1.54102,0.65234 l 9.99023,9.99024 a 2.1502151,2.1502151 0 1 1 -3.03906,3.04101 l -8.73242,-8.73242 -8.732425,8.73242 a 2.1503209,2.1503209 0 1 1 -3.041016,-3.04101 l 9.990235,-9.99024 a 2.1502151,2.1502151 0 0 1 1.478516,-0.65039 2.1502151,2.1502151 0 0 1 0.30078,0.0137 2.1502151,2.1502151 0 0 1 0.24414,-0.0156 z"
         id="path4088"
         style="fill:#000000;fill-opacity:1;fill-rule:evenodd;stroke:none" />
</svg>
