<?xml version="1.0" encoding="UTF-8" standalone="no"?>
<svg
     xmlns:dc="http://purl.org/dc/elements/1.1/"
     xmlns:cc="http://creativecommons.org/ns#"
     xmlns:rdf="http://www.w3.org/1999/02/22-rdf-syntax-ns#"
     xmlns:svg="http://www.w3.org/2000/svg"
     xmlns="http://www.w3.org/2000/svg"
     version="1.1"
     width="132.38129"
     height="171.58693"
     viewBox="0 0 132.38129 171.58693"
     id="svg2985">
    <title
         id="title4155">foobar2000 Aliencat Icon</title>
    <metadata
         id="metadata2991">
        <rdf:RDF>
            <cc:Work
                 rdf:about="">
                <dc:format>image/svg+xml</dc:format>
                <dc:type
                     rdf:resource="http://purl.org/dc/dcmitype/StillImage" />
                <dc:title>foobar2000 Aliencat Icon</dc:title>
                <cc:license
                     rdf:resource="http://creativecommons.org/publicdomain/zero/1.0/" />
            </cc:Work>
            <cc:License
                 rdf:about="http://creativecommons.org/publicdomain/zero/1.0/">
                <cc:permits
                     rdf:resource="http://creativecommons.org/ns#Reproduction" />
                <cc:permits
                     rdf:resource="http://creativecommons.org/ns#Distribution" />
                <cc:permits
                     rdf:resource="http://creativecommons.org/ns#DerivativeWorks" />
            </cc:License>
        </rdf:RDF>
    </metadata>
    <defs
         id="defs2989">
        <filter
             id="filter4174"
             style="color-interpolation-filters:sRGB">
            <feGaussianBlur
                 id="feGaussianBlur4176"
                 stdDeviation="4"
                 in="SourceAlpha"
                 result="result0" />
            <feOffset
                 id="feOffset4178"
                 result="result4"
                 dy="5"
                 dx="5" />
            <feComposite
                 id="feComposite4180"
                 result="result3"
                 operator="xor"
                 in2="result4"
                 in="SourceGraphic" />
        </filter>
    </defs>
    <path
         d="m 71.136713,145.13836 c -1.645667,1.30948 -3.218983,2.78396 -5.059541,3.81632 C 54.538344,140.21683 44.279657,129.67351 35.420499,118.2018 28.222047,108.03421 19.253404,97.434728 19.490556,84.235127 18.339949,69.092259 25.323228,55.147337 31.466953,41.799959 c 3.407473,-6.441987 6.075583,-13.647983 10.786315,-19.167715 5.523877,7.21144 10.591433,14.76245 15.863352,22.159819 5.326223,-0.01308 10.652424,-0.02617 15.978637,-0.03926 2.157126,-3.063276 4.314251,-6.126552 6.471367,-9.189828 3.253417,-4.216227 6.170755,-9.663652 9.831179,-12.886375 6.578021,10.119641 11.441597,21.296262 16.301427,32.326827 5.90143,13.908435 9.57572,30.469424 2.22333,44.610953 -9.433196,17.45919 -22.779726,32.65119 -37.785847,45.52398 z"
         id="path3051-4"
         style="fill:#ffffff;fill-opacity:1;stroke:#000000;stroke-width:1;stroke-linecap:square;stroke-linejoin:bevel;stroke-opacity:1;filter:url(#filter4174)" />
    <path
         d="M 34.382411,88.695052 A 22.249945,11.40955 51.756017 0 0 57.194675,99.522283 22.249945,11.40955 51.756017 0 0 52.769292,75.165278 22.249945,11.40955 51.756017 0 0 29.957029,64.338049 22.249945,11.40955 51.756017 0 0 34.382411,88.695052 Z"
         id="path5804"
         style="fill:#000000;fill-opacity:1;fill-rule:evenodd;stroke:none" />
    <path
         d="M 98.025174,88.531759 A 11.40955,22.249945 38.243983 0 1 75.212907,99.358988 11.40955,22.249945 38.243983 0 1 79.638289,75.001984 11.40955,22.249945 38.243983 0 1 102.45055,64.174755 11.40955,22.249945 38.243983 0 1 98.025174,88.531759 Z"
         id="path5804-59"
         style="fill:#000000;fill-opacity:1;fill-rule:evenodd;stroke:none" />
    <path
         d="m 67.077809,114.12085 a 2.1502151,2.1502151 0 0 1 1.541016,0.65234 l 9.990234,9.99023 a 2.1502151,2.1502151 0 1 1 -3.039063,3.04101 l -8.732421,-8.73242 -8.732422,8.73242 a 2.1503209,2.1503209 0 0 1 -3.041016,-3.04101 l 9.990235,-9.99023 a 2.1502151,2.1502151 0 0 1 1.478515,-0.65039 2.1502151,2.1502151 0 0 1 0.300781,0.0137 2.1502151,2.1502151 0 0 1 0.244141,-0.0156 z"
         id="path4088"
         style="fill:#000000;fill-opacity:1;fill-rule:evenodd;stroke:none" />
</svg>
