<?xml version="1.0" encoding="UTF-8" standalone="no"?>
<svg
     xmlns:dc="http://purl.org/dc/elements/1.1/"
     xmlns:cc="http://creativecommons.org/ns#"
     xmlns:rdf="http://www.w3.org/1999/02/22-rdf-syntax-ns#"
     xmlns:svg="http://www.w3.org/2000/svg"
     xmlns="http://www.w3.org/2000/svg"
     viewBox="0 0 812.41083 271.34457"
     height="271.34457"
     width="812.41083"
     version="1.1"
     id="svg3262">
    <title
         id="title5161">Studies of a Shipwreck No.4</title>
    <metadata
         id="metadata3268">
        <rdf:RDF>
            <cc:Work
                 rdf:about="">
                <dc:format>image/svg+xml</dc:format>
                <dc:type
                     rdf:resource="http://purl.org/dc/dcmitype/StillImage" />
                <dc:title>Studies of a Shipwreck No.4</dc:title>
                <dc:date>February 17, 2014</dc:date>
                <cc:license
                     rdf:resource="http://creativecommons.org/publicdomain/zero/1.0/" />
                <dc:creator>
                    <cc:Agent>
                        <dc:title>Joseph Mallord William Turner</dc:title>
                    </cc:Agent>
                </dc:creator>
                <dc:source>William Lionel Wyllie J. M. W. Turner</dc:source>
                <dc:description>Shipwreck (2) Sketchbook, Wreckage in Surf, 1805, Turner Bequest LXXXVIII 4</dc:description>
            </cc:Work>
            <cc:License
                 rdf:about="http://creativecommons.org/publicdomain/zero/1.0/">
                <cc:permits
                     rdf:resource="http://creativecommons.org/ns#Reproduction" />
                <cc:permits
                     rdf:resource="http://creativecommons.org/ns#Distribution" />
                <cc:permits
                     rdf:resource="http://creativecommons.org/ns#DerivativeWorks" />
            </cc:License>
        </rdf:RDF>
    </metadata>
    <defs
         id="defs3266" />
    <path
         id="path3272"
         d="m 18.98444,141.92685 c 4.94144,0.39346 9.42302,0.98645 9.95907,1.31775 0.53607,0.3313 3.94619,0.20431 7.57806,-0.28219 l 6.60343,-0.88456 -4.375,-1.80311 c -2.40625,-0.99172 -5.78125,-1.93462 -7.5,-2.09534 -9.71802,-0.90878 -15,-2.33337 -15,-4.04565 0,-1.42241 0.90894,-1.62686 4.0625,-0.91376 6.13674,1.38767 11.10576,1.66864 15.78409,0.89247 l 4.22158,-0.70038 -4.84658,-1.68722 c -2.66563,-0.92797 -6.14542,-1.69569 -7.73287,-1.70604 -1.60237,-0.0105 -2.54262,-0.57485 -2.11372,-1.26882 0.4249,-0.6875 2.40919,-1.25 4.40954,-1.25 2.64154,0 3.44911,-0.48963 2.95054,-1.7889 -0.57479,-1.49787 0.0417,-1.56543 3.78922,-0.41528 4.80981,1.47617 6.34581,4.12461 1.6632,2.86775 -2.28018,-0.61202 -2.16189,-0.38382 0.625,1.20569 3.90381,2.22655 4.43813,4.94654 1.31504,6.6943 -1.74229,0.97504 -1.18252,1.46941 3.125,2.75998 8.08412,2.42206 6.08919,5.96841 -3.50254,6.22637 -1.71875,0.0462 1.24514,1.37717 6.58641,2.95765 15.50535,4.58803 14.9892,6.22361 -0.67188,2.1291 C 40.94279,148.83683 32.65625,147.40587 27.5,146.95678 13.5807,145.74444 10,144.928 10,142.96661 c 0,-1.41043 1.76459,-1.61465 8.98444,-1.03976 z M 14.65796,153.75 c 5.98842,0 23.90219,3.50886 26.59204,5.20871 1.29699,0.81964 0.52631,0.97201 -2.5,0.49429 -2.40625,-0.37984 -9.60016,-1.46545 -15.98647,-2.41245 C 10.13024,155.1672 6.63928,153.75 14.65796,153.75 Z m 16.10898,-34.45147 c 1.29694,0.52079 6.29556,1.45867 11.10806,2.08418 11.58367,1.50559 15.96861,2.77313 16.6484,4.81249 0.4106,1.23179 -0.23876,1.46778 -2.41855,0.87892 -1.63891,-0.44274 -6.35485,-1.41099 -10.47985,-2.15167 -14.45186,-2.59495 -16.06461,-3.06111 -16.63813,-4.80914 -0.42415,-1.29275 0.0496,-1.50963 1.78007,-0.81479 z m 24.78742,39.51009 c 0.97726,-0.81106 5.33045,-1.98848 9.67374,-2.6165 9.93508,-1.43657 9.7719,-1.43753 9.7719,0.0579 0,0.6875 -2.39062,1.30607 -5.3125,1.3746 -2.92187,0.0685 -6.71875,0.5196 -8.4375,1.00239 -3.02474,0.84962 -3.04479,0.92462 -0.625,2.33739 2.28186,1.33224 2.15196,1.46292 -1.48872,1.49761 -4.60373,0.0439 -6.14394,-1.52708 -3.58192,-3.65337 z m 11.6081,-30.52688 c 4.01127,-0.96309 15.6096,0.78211 18.90849,2.84515 2.76035,1.72625 -0.64106,2.94114 -3.6804,1.31453 -1.46361,-0.7833 -6.39711,-1.82156 -10.96334,-2.30724 -7.42536,-0.78979 -7.87578,-0.98544 -4.26475,-1.85244 z M 86.25,141.54009 c 1.375,-0.8587 2.5,-2.36195 2.5,-3.34057 0,-2.2252 6.99569,-7.32835 9.08073,-6.62411 0.84935,0.28688 -0.28385,1.47046 -2.51823,2.63019 -4.9666,2.57786 -5.2254,4.50626 -0.625,4.65714 l 3.4375,0.11275 -3.88066,1.12589 c -2.13438,0.61923 -5.36875,2.61396 -7.1875,4.43271 -2.91675,2.91673 -3.30684,3.02728 -3.30684,0.93706 0,-1.30338 1.125,-3.07235 2.5,-3.93105 z m 4.1885,20.32852 c 0.92869,-0.68399 4.10683,-3.07174 7.06255,-5.30611 2.95573,-2.23438 5.93655,-4.0625 6.62405,-4.0625 0.6875,0 -1.16404,1.74871 -4.11452,3.88604 -2.95049,2.13732 -6.67337,5.3717 -8.27305,7.1875 -1.98829,2.25691 -2.92103,2.7062 -2.94803,1.42007 -0.0217,-1.03477 0.72033,-2.44102 1.649,-3.125 z m 4.71456,8.25708 c 4.11229,-3.83118 5.7802,-3.21804 1.87345,0.68871 -1.82291,1.82291 -3.62431,3.00448 -4.0031,2.62569 -0.37879,-0.37879 0.57955,-1.87028 2.12965,-3.3144 z m 15.20638,-5.19542 c 2.20856,-2.44459 5.09202,-5.25709 6.40771,-6.25 2.2547,-1.70155 2.30386,-1.63961 0.85574,1.07784 -0.84504,1.5857 -2.29994,3.17609 -3.23311,3.53419 -0.93318,0.35809 -2.61647,2.58937 -3.74065,4.9584 -1.12418,2.36904 -2.57388,3.97982 -3.22154,3.57955 -1.81675,-1.12281 -1.39875,-2.10656 2.93185,-6.89998 z m -0.047,-13.26722 c 4.83,-4.33236 8.89617,-6.66496 11.52814,-6.61324 1.75802,0.0345 1.00275,0.80294 -2.46564,2.50845 -2.75,1.35226 -6.02804,3.69609 -7.28454,5.20851 -2.05137,2.4692 -2.08525,2.89558 -0.33192,4.17764 2.70386,1.97711 1.01956,3.25045 -1.8933,1.43134 -3.09838,-1.93497 -2.98519,-3.63389 0.44726,-6.7127 z m 14.18999,-14.86848 c 21.39231,1.56402 23.51408,1.75314 29.26111,2.60823 3.08626,0.45919 6.90464,0.8392 8.48526,0.84446 1.58063,0.005 2.68758,0.37365 2.45989,0.81865 -0.22769,0.445 -1.15958,2.49659 -2.07086,4.55909 -0.91129,2.0625 -2.15887,4.72674 -2.77239,5.92054 -0.61353,1.1938 -1.1155,3.58442 -1.1155,5.3125 0,4.4569 -2.13508,3.89906 -3.17356,-0.82918 -0.62448,-2.84316 -0.3493,-4.35349 0.96877,-5.31729 2.4587,-1.79785 3.88071,-6.5508 2.25964,-7.55267 -1.1605,-0.71724 -7.53611,-1.41264 -36.64878,-3.9974 -4.6579,-0.41355 -8.81928,-1.31882 -9.24751,-2.01171 -0.51719,-0.83681 3.37546,-0.95608 11.59393,-0.35522 z M 122.5,153.125 c 3.52658,-1.17134 6.67863,-1.86305 7.00455,-1.53713 0.32593,0.32593 -2.3038,1.53995 -5.84384,2.69784 -3.54002,1.15789 -6.69207,1.84959 -7.00455,1.53713 -0.31246,-0.31248 2.31726,-1.5265 5.84384,-2.69784 z m 1.66474,20.30121 c 1.25935,-0.50941 4.3531,-0.87549 6.875,-0.81347 l 4.58526,0.11275 -4.19372,1.207 c -2.30655,0.66386 -5.4003,1.02992 -6.875,0.81347 -2.44528,-0.35889 -2.47974,-0.47505 -0.39154,-1.31973 z m 8.64776,-56.71407 c 1.54688,0.41455 3.62813,0.7614 4.625,0.77079 1.25163,0.0118 1.41131,0.41825 0.51605,1.31352 -0.88405,0.88404 -2.35528,0.89389 -4.625,0.0309 -4.04314,-1.5372 -4.44076,-3.16703 -0.51605,-2.11525 z m 2.89548,-5.7149 c 1.99652,-1.17021 15.96911,0.46332 14.09927,1.64834 -2.04166,1.29392 -9.52611,1.28355 -12.84927,-0.0178 -1.32938,-0.52059 -1.89188,-1.25433 -1.25,-1.63054 z m 4.38275,58.54633 c 1.4249,-1.81146 3.36678,-3.29357 4.31531,-3.29357 1.12832,0 0.66477,1.14356 -1.34073,3.30752 -1.79526,1.93713 -3.06531,4.8162 -3.06531,6.94878 0,2.10919 -0.52594,3.3162 -1.25,2.8687 -2.09046,-1.29198 -1.40131,-6.3455 1.34072,-9.83143 z m 11.77286,5.76893 c 0.97115,-2.23438 2.36982,-4.0625 3.10817,-4.0625 0.829,0 0.61303,1.41052 -0.56466,3.68792 -2.3089,4.46493 -2.48048,9.64897 -0.3446,10.41178 0.85938,0.30693 1.09464,1.05604 0.5228,1.6647 -1.24271,1.32275 -4.60652,-2.89711 -4.53638,-5.69081 0.0269,-1.07173 0.84352,-3.77671 1.81467,-6.01109 z m 5.94891,-52.18848 c 1.54688,-0.37049 8.15625,-1.40437 14.6875,-2.29751 l 11.875,-1.6239 -5.625,-1.6362 c -4.21305,-1.22548 -7.50761,-1.32365 -13.125,-0.39108 -7.15211,1.18735 -9.31679,1.09979 -7.89755,-0.31945 0.98914,-0.98913 14.46839,-4.33349 18.27104,-4.53326 2.4849,-0.13054 2.082,-0.3781 -1.52578,-0.9375 -2.69626,-0.41807 -5.13376,-1.46324 -5.41666,-2.32262 -0.77989,-2.369 9.06843,-2.00945 11.49764,0.41975 1.72703,1.72705 3.87092,1.82832 16.65177,0.78657 8.06825,-0.65762 14.8465,-0.73749 15.0628,-0.17747 0.21629,0.56001 1.20066,0.70838 2.1875,0.32969 0.98683,-0.37868 1.79424,-0.11052 1.79424,0.59591 0,1.60794 -7.88804,3.4443 -8.38501,1.95205 -0.2004,-0.6017 -5.56763,-0.72497 -11.92718,-0.27393 -6.35955,0.45104 -13.81281,0.91088 -16.56281,1.02187 l -5,0.20179 6.25,1.88234 c 3.4375,1.03529 8.08334,2.18448 10.32409,2.55375 5.88337,0.96957 6.28756,2.89518 0.60771,2.89518 -5.89515,0 -31.41535,3.29451 -34.40399,4.44136 C 155.9287,126.16109 155,125.93081 155,125.15755 c 0,-0.74796 1.26563,-1.66304 2.8125,-2.03353 z M 161.22973,157.5 c 0.51393,-1.03125 2.41598,-5.12131 4.22678,-9.08904 4.06809,-8.91377 7.17665,-10.68344 13.86064,-7.89069 2.60599,1.08885 5.82766,1.97973 7.15928,1.97973 1.33161,0 2.07347,0.5625 1.64857,1.25 -1.03509,1.67481 -8.5277,1.5973 -10.23082,-0.10588 -0.74572,-0.74571 -2.60573,-1.16758 -4.13338,-0.9375 -3.5413,0.53337 -7.50834,10.45497 -7.50979,18.78205 -5.5e-4,3.22505 -0.56351,6.21138 -1.25101,6.63628 -0.74535,0.46065 -1.25,-1.05328 -1.25,-3.75 0,-2.4874 -0.52364,-4.19893 -1.16363,-3.80339 -1.64516,1.01678 -2.46691,-0.84376 -1.35664,-3.07161 z m 7.40762,18.95499 c 3.47249,-1.80996 4.79529,-2.08244 4.33916,-0.89379 -0.71568,1.86505 -7.66242,5.16955 -8.69557,4.1364 -0.3514,-0.3514 1.60899,-1.81058 4.35641,-3.24261 z M 175,185 c 0.6875,0 1.25,1.40625 1.25,3.125 0,3.73909 2.0091,4.14091 3.125,0.625 1.1346,-3.57483 3.125,-3.08814 3.125,0.76411 0,3.05342 0.2824,3.21114 4.375,2.44336 3.50705,-0.65792 4.375,-0.42717 4.375,1.16315 0,1.09115 -1.07152,3.13407 -2.38117,4.5398 -2.79617,3.00133 -4.57031,10.8881 -2.83879,12.61962 2.24764,2.24764 5.61756,0.36185 7.20171,-4.03004 0.86793,-2.40625 1.64912,-3.8125 1.736,-3.125 0.0869,0.6875 0.35928,3.56814 0.60535,6.40142 0.24608,2.83328 1.8399,8.5989 3.54185,12.8125 1.70195,4.21359 2.6103,7.66108 2.01856,7.66108 -1.70839,0 -4.55519,-5.15151 -6.11392,-11.06368 -0.78864,-2.99127 -1.73183,-5.14074 -2.09596,-4.77661 -0.36414,0.36414 -0.8275,4.78029 -1.0297,9.81368 -0.2022,5.03338 -0.85168,8.87036 -1.44328,8.52661 -0.59161,-0.34375 -0.90026,-4.66241 -0.68591,-9.59701 l 0.38975,-8.97203 -3.51475,-0.40297 c -3.26154,-0.37396 -3.51474,-0.80064 -3.51474,-5.92295 0,-3.3044 -0.62715,-5.72937 -1.5625,-6.04166 -0.85937,-0.28694 -1.5625,-1.82011 -1.5625,-3.40704 0,-2.03519 -0.92075,-3.11641 -3.125,-3.66964 -2.58462,-0.6487 -3.125,-1.53674 -3.125,-5.13551 C 173.75,186.95804 174.3125,185 175,185 Z m 8.75,13.125 c 0.6875,-0.4249 1.25,-1.5831 1.25,-2.57378 0,-0.99067 -0.5625,-1.80122 -1.25,-1.80122 -0.6875,0 -1.25,1.1582 -1.25,2.57377 0,1.41558 0.5625,2.22613 1.25,1.80123 z m -3.4375,-28.82294 c 5.23758,-2.16461 5.30984,-2.27855 5.12396,-8.07826 -0.2337,-7.29139 2.92112,-14.61956 8.20947,-19.06941 3.73731,-3.14474 5.60917,-3.473 12.60407,-2.21029 0.34375,0.062 -1.0625,0.9498 -3.125,1.97277 -5.47694,2.71648 -9.34869,9.04546 -9.17321,14.99504 0.0805,2.7297 0.67897,5.64158 1.32991,6.47084 0.65094,0.82925 0.82065,2.09488 0.37714,2.8125 -0.44351,0.71761 -0.0294,1.30475 0.92017,1.30475 1.30099,0 1.60583,-1.51436 1.23678,-6.14384 -0.56665,-7.10796 1.50679,-12.01211 7.05105,-16.67729 3.64292,-3.06532 3.99302,-3.108 20.37314,-2.48294 l 16.66652,0.63596 4.11974,-8.19845 c 5.19691,-10.34213 7.12746,-12.11796 9.6552,-8.88142 1.13995,1.45959 1.60226,3.81641 1.20108,6.12298 -2.14986,12.36071 -2.22573,14.5637 -0.49324,14.32147 3.66126,-0.5119 11.49092,0.09 10.75421,0.82672 -0.42527,0.42525 -2.93604,0.74333 -5.57951,0.70685 -2.64348,-0.0365 -5.51394,0.371 -6.37882,0.90552 -2.34545,1.44958 -5.99065,20.41764 -5.36687,27.92694 0.1439,1.73234 1.35212,2.1875 5.80671,2.1875 5.32738,0 5.625,-0.18519 5.625,-3.5 0,-6.34686 6.59203,-9.17225 8.61857,-3.69398 1.09999,2.97354 -0.46152,9.14035 -2.65821,10.49799 -0.71141,0.43968 -4.87477,0.70088 -9.25192,0.58046 -7.36934,-0.20273 -7.95844,-0.0207 -7.95844,2.4588 0,2.29652 -0.48904,2.555 -3.43494,1.81563 -1.88921,-0.47416 -3.54681,-0.97398 -3.68353,-1.11071 -0.13673,-0.13673 1.10902,-6.98163 2.76836,-15.21089 3.49279,-17.32216 3.78786,-21.8373 1.4271,-21.8373 -1.1482,0 -2.40838,4.21516 -4.01732,13.4375 -1.28936,7.39062 -2.28351,14.70312 -2.20922,16.25 0.0743,1.54687 -0.37863,2.8125 -1.0065,2.8125 -0.62786,0 -0.80195,1.35321 -0.38684,3.00715 0.56643,2.25683 0.16528,3.19423 -1.60776,3.75697 -2.16831,0.68819 -2.26279,1.41718 -1.1493,8.86785 1.64761,11.02473 5.79995,10.94654 5.79995,-0.10921 0,-2.35001 0.5625,-4.27276 1.25,-4.27276 0.6875,0 1.24139,2.67187 1.23086,5.9375 -0.0186,5.77901 -1.3794,9.6875 -3.37277,9.6875 -0.5407,0 -0.98548,0.79767 -0.98839,1.7726 -0.006,2.20311 -2.60416,3.19784 -3.70392,1.41839 -1.45621,-2.3562 -5.23162,-1.38814 -6.63982,1.70251 -1.04905,2.30241 -3.02415,3.38749 -8.32563,4.57391 C 218.12765,218.44789 215,219.7341 215,220.45066 215,222.46064 222.88407,235 224.14785,235 c 0.61579,0 0.73034,-0.98438 0.25454,-2.1875 -0.47579,-1.20313 -1.17208,-4.01563 -1.54729,-6.25 -0.8321,-4.95508 1.51998,-5.52816 2.56514,-0.625 1.13021,5.30219 5.48669,11.49394 9.03671,12.84366 1.76319,0.67037 5.27855,1.23594 7.81193,1.25685 3.92355,0.0324 4.25982,0.23922 2.26921,1.39573 -3.11548,1.81005 -12.82719,0.62085 -15.62775,-1.91364 -1.23103,-1.11405 -2.59689,-1.66689 -3.03526,-1.2285 -1.46562,1.4656 -6.76019,-3.0741 -9.94203,-8.52454 -1.73126,-2.96563 -4.03976,-8.76706 -5.13,-12.89206 -1.09024,-4.125 -2.34504,-8.76562 -2.78844,-10.3125 -0.48313,-1.68546 -0.26202,-2.8125 0.55178,-2.8125 0.74687,0 2.13634,2.67188 3.08769,5.9375 1.94505,6.67666 3.31227,7.3411 10.90101,5.29766 5.17075,-1.39233 5.23281,-1.47556 4.48289,-6.01102 -0.41825,-2.52953 -0.76665,-6.70851 -0.77422,-9.28664 -0.009,-2.81816 -0.57456,-4.56287 -1.42001,-4.375 -0.77344,0.17188 -1.66406,-0.39062 -1.97916,-1.25 -0.37115,-1.01221 0.6744,-1.5765 2.96875,-1.60225 1.94791,-0.0219 4.66666,-0.89375 6.04166,-1.93751 2.47473,-1.87856 2.46875,-1.92141 -0.59005,-4.23749 -3.33389,-2.52435 -5.62901,-2.13634 -4.51624,0.7635 0.68268,1.77904 -2.48338,3.90324 -3.8222,2.56443 -1.09196,-1.09195 1.8638,-9.15104 8.33949,-22.73818 3.27665,-6.875 6.36216,-13.8531 6.8567,-15.50689 l 0.89916,-3.00687 -8.27093,0.77235 c -11.21525,1.04729 -10.54935,-1.10465 0.79157,-2.55806 l 9.0625,-1.16143 -15.46442,-0.51955 c -13.94383,-0.46846 -15.8117,-0.27372 -18.99624,1.98045 -3.47593,2.46043 -6.20091,6.7956 -6.12633,9.74631 0.0209,0.82703 0.65512,0.44112 1.40937,-0.85758 2.12715,-3.66266 6.38047,-8.26373 7.63916,-8.26373 0.62464,0 -0.32055,1.73066 -2.10043,3.84591 -3.34306,3.97301 -4.0831,6.15409 -2.08806,6.15409 0.63142,0 2.3692,-1.97586 3.86173,-4.39081 2.66303,-4.30889 7.07238,-7.69369 8.35355,-6.41253 0.35706,0.35707 -1.31915,2.37745 -3.72493,4.48975 -4.90875,4.30994 -6.77831,9.36015 -4.4871,12.12089 1.19642,1.4416 1.10296,2.22415 -0.45123,3.77834 -3.00636,3.00636 -5.06147,0.85772 -4.09699,-4.28341 0.73877,-3.93799 0.62462,-4.20851 -1.06348,-2.52039 -1.04314,1.04312 -1.5953,3.02213 -1.23145,4.41355 0.87175,3.33354 0.1618,3.63971 -10.67626,4.60445 -5.08372,0.45252 -10.84934,1.65337 -12.8125,2.66856 -1.96316,1.01519 -3.56939,1.32457 -3.56939,0.68752 0,-0.63706 2.39063,-2.1463 5.3125,-3.35386 z M 189.96875,167.5 c 2.11055,0 2.35655,-0.58945 1.69545,-4.0625 -0.97035,-5.09773 -1.50329,-5.70948 -2.96302,-3.4013 -2.1199,3.35205 -1.4216,7.4638 1.26757,7.4638 z m 0.696,-13.05141 c 1.00939,-1.33453 1.83525,-3.13558 1.83525,-4.00233 0,-0.86675 2.05504,-3.57175 4.56675,-6.01108 5.01854,-4.87396 4.28557,-5.97438 -1.05086,-1.57773 -3.62559,2.98709 -7.27014,9.1178 -7.21844,12.14255 0.0244,1.426 0.47154,1.29396 1.8673,-0.55141 z m 38.79164,23.43777 c 0.61972,1.61496 1.15345,1.6178 4.35015,0.0231 2.00407,-0.99977 3.94371,-2.30308 4.31031,-2.89625 0.98424,-1.59253 4.42525,-25.38775 3.76656,-26.04644 -0.3099,-0.30991 -1.1693,1.06141 -1.90975,3.04739 -2.72587,7.31105 -4.42531,11.1177 -7.72006,17.29245 -1.85426,3.47512 -3.40114,6.41303 -3.4375,6.52867 -0.0364,0.11563 0.25177,1.03864 0.64029,2.0511 z m 3.98111,29.30904 c 1.6878,0.55406 2.18601,-5.36606 0.76355,-9.07298 -0.63936,-1.66612 -1.01654,-1.74897 -1.88815,-0.41473 -1.52845,2.3397 -0.75429,8.87092 1.1246,9.48771 z m 14.57,-60.9454 c 1.92708,0 5.7425,-9.83738 5.7425,-14.80601 0,-4.09225 -1.27925,-2.65244 -3.99135,4.49231 -1.67514,4.413 -1.84613,6.04611 -0.70674,6.7503 1.07483,0.66427 0.8898,1.16423 -0.64945,1.75489 -2.60642,1.00018 -2.78295,1.80851 -0.39496,1.80851 z m -62.07,-39.82756 c 1.20313,-0.64104 11.46875,-1.56315 22.8125,-2.04913 11.34375,-0.48598 21.57226,-1.38746 22.73002,-2.0033 1.69412,-0.90112 18.38191,-4.87001 20.47671,-4.87001 0.2988,0 0.54327,1.33756 0.54327,2.97235 0,3.61843 3.3799,12.02765 4.83425,12.02765 1.56102,0 7.66575,5.92519 7.66575,7.44031 0,0.72033 -0.55607,1.30969 -1.23571,1.30969 -1.21415,0 -2.75423,-1.1206 -10.50522,-7.64385 -4.90419,-4.12739 -8.32582,-5.19392 -17.32157,-5.3992 -8.77121,-0.20016 -9.63615,2.04411 -1.69181,4.38979 5.96481,1.7612 10.37915,4.44509 9.21909,5.60515 -1.62305,1.62306 -22.13049,-6.70091 -22.18253,-9.00388 -0.0177,-0.78484 -1.29787,-1.71046 -2.84475,-2.05693 -3.34406,-0.749 -24.83861,-0.0547 -30.625,0.98927 -4.47385,0.80715 -5.25681,0.094 -1.875,-1.70791 z m 58.23289,-0.5885 c 4.61915,0.74958 5.45235,-0.0205 3.44735,-3.18623 -0.79069,-1.24843 -2.38995,-1.48417 -5.76868,-0.85032 -5.54628,1.04049 -4.45578,2.93677 2.32133,4.03655 z m -46.89624,86.10356 c 0.56329,0.65313 2.61178,5.40625 4.55219,10.5625 1.94041,5.15625 4.29204,10.26304 5.22584,11.34843 2.15521,2.50506 2.15419,3.65157 -0.003,3.65157 -2.1357,0 -10.79895,-18.71325 -10.79895,-23.3265 0,-1.91195 0.45219,-2.89919 1.02415,-2.236 z m 9.49669,1.91119 c 1.3177,-0.0542 2.05598,0.24115 1.64062,0.65652 -0.41536,0.41537 -1.49349,0.45976 -2.39583,0.0986 -0.99717,-0.39903 -0.70098,-0.69523 0.75521,-0.7552 z M 213.75,175 c 0.6875,0 1.25,0.5625 1.25,1.25 0,0.6875 -0.5625,1.25 -1.25,1.25 -0.6875,0 -1.25,-0.5625 -1.25,-1.25 0,-0.6875 0.5625,-1.25 1.25,-1.25 z m 32.26155,38.9415 c 3.63859,0.34699 4.73964,0.0886 3.90549,-0.91648 -1.40149,-1.68867 0.42154,-12.6136 2.44193,-14.634 0.76507,-0.76506 1.39103,-2.57618 1.39103,-4.02472 0,-1.68362 1.24003,-3.16368 3.4375,-4.10286 l 3.4375,-1.46918 -3.91493,0.54212 c -4.57416,0.63337 -6.00057,-0.30397 -4.04617,-2.65887 C 253.6029,185.54609 257.11851,185 263.46333,185 l 9.40721,0 -0.82636,-10.3125 c -1.7891,-22.32655 -2.36823,-36.97619 -1.5851,-40.09642 1.13616,-4.52682 5.67648,-6.89819 7.7578,-4.05183 1.4138,1.93349 1.70313,1.87255 3.53645,-0.74487 2.50035,-3.56974 2.54161,-4.92503 0.12162,-3.99641 -2.85634,1.09608 -2.25384,-0.40981 1.69026,-4.2246 4.73778,-4.58245 6.66503,-8.34308 5.08525,-9.92285 -1.7075,-1.70751 -0.2064,-5.02895 2.60507,-5.76416 1.66343,-0.435 2.13488,-1.36624 1.64332,-3.24597 -0.7524,-2.87716 2.79953,-9.37882 4.53709,-8.30495 0.59187,0.3658 2.48574,-1.72565 4.20856,-4.64767 1.72283,-2.92202 4.8701,-6.96488 6.99394,-8.98413 2.12387,-2.01925 3.86156,-4.28656 3.86156,-5.03846 0,-1.83678 7.78598,-4.725 8.70946,-3.23078 0.79962,1.2938 14.8128,4.50365 24.52969,5.61874 3.50029,0.40169 9.59675,1.57233 13.54771,2.60142 21.38515,5.57013 45.80721,7.76473 62.1257,5.58271 5.06684,-0.67751 16.24369,-2.07437 24.83744,-3.10414 8.59375,-1.02976 16.88583,-2.52971 18.42683,-3.33322 2.11016,-1.10028 3.57467,-1.10879 5.93253,-0.0345 2.1415,0.97573 4.14543,1.04067 6.34207,0.20551 1.76622,-0.67151 5.50047,-1.22094 8.29832,-1.22094 2.79785,0 8.65997,-0.65835 13.02695,-1.46299 7.75719,-1.42932 7.95855,-1.56597 8.74868,-5.9375 0.98444,-5.44662 3.8485,-11.34951 5.50672,-11.34951 1.54029,0 1.53451,0.82276 -0.0263,3.73908 -0.7146,1.33525 -0.80729,3.50568 -0.21776,5.09931 l 1.02637,2.77458 2.76022,-2.96274 c 2.56313,-2.7512 2.601,-3.02233 0.53027,-3.79732 -2.61444,-0.97847 -2.37581,-1.0917 9.02006,-4.2802 14.8497,-4.15487 20.98925,-5.62513 21.47232,-5.14206 0.27036,0.27035 -4.29602,2.083 -10.14749,4.0281 -10.3266,3.43269 -10.5757,3.60691 -8.48194,5.93235 4.94553,5.49277 12.3709,5.25863 15.771,-0.49729 1.18389,-2.0041 2.82913,-3.64381 3.65614,-3.64381 0.827,0 2.20622,-1.125 3.06492,-2.5 0.8587,-1.375 2.38047,-2.5 3.3817,-2.5 1.00124,0 2.47779,-1.26562 3.28124,-2.8125 0.80344,-1.54687 4.25148,-6.60937 7.6623,-11.25 5.24498,-7.1361 6.77505,-8.4375 9.92011,-8.4375 3.10589,0 3.6528,0.44729 3.31918,2.71459 -0.21969,1.49303 -1.10295,2.94628 -1.96279,3.22945 -0.99136,0.32649 -1.28544,-0.20936 -0.80376,-1.46459 1.5791,-4.11507 -3.32243,-1.86872 -7.00005,3.2081 -4.79498,6.61927 -4.79675,8.56245 -0.008,8.56245 2.53416,0 3.75,-0.62064 3.75,-1.91423 0,-3.12528 3.41549,-3.4948 6.42105,-0.6947 1.5402,1.43491 3.78609,2.60893 4.99088,2.60893 1.2048,0 2.48152,0.47083 2.83717,1.04629 0.94331,1.52631 -2.83217,6.45371 -4.94497,6.45371 -0.99228,0 -1.80413,0.63281 -1.80413,1.40625 0,0.89583 1.36111,1.13403 3.75,0.65625 2.11539,-0.42308 3.75,-0.21875 3.75,0.46875 0,0.67031 1.30415,1.21875 2.89813,1.21875 1.59396,0 5.67526,0.82472 9.06953,1.83271 5.28375,1.56911 6.88737,1.58659 11.14895,0.12153 4.2525,-1.46194 5.48048,-1.45111 8.43047,0.0744 4.75981,2.4614 4.32102,3.32967 -1.23458,2.44298 -2.57812,-0.41147 -5.53125,-0.18828 -6.5625,0.49599 -1.30927,0.86875 -1.40356,1.29704 -0.3125,1.41952 0.85938,0.0965 2.125,0.31601 2.8125,0.48789 0.6875,0.17187 1.8457,0.38281 2.57378,0.46875 0.72807,0.0859 0.97612,0.71875 0.55122,1.40625 -1.33347,2.15761 0.6107,1.37994 6.25,-2.5 3.1849,-2.19127 7.06373,-3.75 9.3317,-3.75 4.19294,0 4.18594,0.0626 -0.83861,7.5 -2.0458,3.02822 -1.99498,3.01855 1.64126,-0.3125 5.20919,-4.77198 5.77422,-4.30784 2.28259,1.875 -6.11297,10.8246 -7.18537,16.96215 -3.77798,21.62203 1.70779,2.33554 1.9287,2.27996 6.93801,-1.74564 2.85163,-2.29163 5.9874,-3.84589 6.98605,-3.46267 2.75836,1.05847 2.16116,3.27377 -0.88253,3.27377 -1.48198,0 -4.5382,1.40625 -6.7916,3.125 -4.60989,3.51614 -7.53418,3.87413 -12.13751,1.48589 -2.13823,-1.10932 -6.93164,-1.50963 -14.83039,-1.23852 -15.07083,0.51727 -14.52782,0.52695 -20.74566,-0.36956 -8.49217,-1.22441 -11.54825,0.0532 -11.56159,4.83351 -0.009,3.04662 0.98744,4.85945 4.0545,7.38001 2.23617,1.83773 3.63812,3.76897 3.11544,4.29166 -0.52269,0.52269 -1.61597,0.28472 -2.42952,-0.52882 -2.06775,-2.06776 -4.72916,-1.845 -4.72916,0.39583 0,1.03125 0.44123,1.875 0.98049,1.875 1.0414,0 5.26951,6.59811 5.26951,8.22326 0,0.52939 -1.48341,-0.40115 -3.29647,-2.06787 -2.2581,-2.07584 -3.47214,-2.53821 -3.85417,-1.46789 -1.04851,2.93763 -2.89868,1.56927 -2.11266,-1.5625 0.43138,-1.71875 0.42299,-4.56468 -0.0186,-6.32428 -0.67719,-2.69812 -1.41328,-3.13868 -4.69912,-2.81249 -2.50632,0.2488 -4.11265,-0.24165 -4.5031,-1.37491 -0.41862,-1.21504 0.0277,-1.51812 1.4386,-0.97673 1.12504,0.43172 2.04554,0.30029 2.04554,-0.29208 0,-1.46325 -3.23025,-2.59451 -7.4085,-2.59451 -3.00462,0 -7.5915,3.19348 -7.5915,5.28535 0,0.39242 3.9375,5.68733 8.75,11.76646 4.8125,6.07913 8.72495,11.90127 8.69433,12.93808 -0.0379,1.2809 -0.73897,0.92963 -2.1875,-1.09591 -1.1725,-1.63957 -5.29087,-6.42082 -9.15192,-10.625 -3.86105,-4.20419 -7.67772,-8.9096 -8.48148,-10.45648 -1.45959,-2.8093 -5.12329,-3.92663 -5.12329,-1.5625 0,0.6875 -1.72447,1.25 -3.83217,1.25 -4.3918,0 -8.66783,1.95047 -8.66783,3.95374 0,0.89745 1.74608,1.08657 5.09199,0.55154 7.22713,-1.15567 5.07977,1.15429 -2.83901,3.05398 -4.85015,1.16353 -6.6264,1.19548 -6.98303,0.1256 -0.82468,-2.47405 -3.9882,-1.58957 -11.0283,3.08338 -6.81279,4.52207 -9.96325,8.30292 -8.66666,10.40083 0.37982,0.61457 -1.28167,2.33632 -3.6922,3.82612 -2.41054,1.48978 -4.37043,3.36596 -4.35532,4.16926 0.0151,0.8033 2.53976,3.147 5.61029,5.20821 6.11638,4.10585 7.81501,6.75164 5.34208,8.32076 -2.26341,1.43618 -7.22984,1.3033 -7.22984,-0.19342 0,-0.6875 1.54688,-1.25829 3.4375,-1.26843 3.29994,-0.0178 3.33343,-0.0803 0.83696,-1.5625 -1.4303,-0.84923 -4.52405,-2.8076 -6.875,-4.3519 -5.03331,-3.3063 -6.7912,-3.44493 -11.63715,-0.91771 -2.03436,1.06094 -6.29605,1.78909 -9.75472,1.66666 -4.4691,-0.15817 -6.71955,0.38879 -8.26231,2.00812 -1.56444,1.64207 -1.71065,2.37737 -0.55778,2.8048 0.85938,0.31861 1.5625,1.3408 1.5625,2.27153 0,1.21612 -1.15977,1.50404 -4.12197,1.02334 -3.55139,-0.5763 -7.88722,0.67213 -14.94138,4.30213 -0.51609,0.26557 -0.63199,-0.3155 -0.25755,-1.29128 0.69254,-1.80471 8.23255,-5.93476 10.83477,-5.93476 0.78599,0 2.87628,-1.68705 4.64509,-3.749 3.30293,-3.8503 8.09947,-5.04003 13.35206,-3.31185 1.71207,0.5633 3.19293,0.19626 4.22484,-1.04711 0.87385,-1.05293 3.76577,-2.26253 6.42648,-2.68799 2.77357,-0.44351 4.83766,-1.47526 4.83766,-2.41814 0,-0.90451 1.6875,-2.6414 3.75,-3.85975 4.31816,-2.5508 4.52246,-3.22924 1.68199,-5.5856 -1.4364,-1.1916 -6.1131,-1.76141 -15.3125,-1.86569 -17.14865,-0.19439 -15.89248,0.0934 -18.44333,-4.22487 -2.08396,-3.52786 -2.67613,-3.75 -9.9969,-3.75 -4.34677,0 -8.15969,0.61157 -8.638,1.38549 -0.9486,1.53488 -6.67015,-4.67575 -6.74631,-7.32299 -0.0805,-2.79727 5.84921,-1.80821 6.61041,1.1026 0.54967,2.10193 1.30687,2.48786 3.58329,1.82635 9.73768,-2.8297 10.75491,-2.61809 16.66963,3.46757 6.18515,6.36391 9.75423,7.5702 8.81256,2.97848 -0.31724,-1.54688 -0.91595,-4.92188 -1.33047,-7.5 -0.51427,-3.19865 -1.43046,-4.73356 -2.88451,-4.8325 -1.94676,-0.13248 -1.94187,-0.19439 0.0566,-0.71666 1.20312,-0.31441 2.1875,-1.37415 2.1875,-2.35499 0,-2.37857 -5.54012,-2.31467 -7.94643,0.0916 -1.03125,1.03125 -3.32144,1.875 -5.08929,1.875 -2.02381,0 -3.21428,0.69444 -3.21428,1.87499 0,1.03125 -0.84375,1.875 -1.875,1.875 -1.03125,0 -1.875,-1.07233 -1.875,-2.38297 0,-1.76756 -0.64564,-2.21414 -2.5,-1.72921 -1.375,0.35957 -2.5,0.0948 -2.5,-0.58848 0,-0.73288 -2.30644,-0.98227 -5.625,-0.60822 -5.24383,0.59105 -5.63365,0.43241 -5.75262,-2.34105 -0.10825,-2.52299 -0.32816,-2.34894 -1.44745,1.1454 -0.8424,2.62993 -1.92667,3.8876 -2.99738,3.47673 -0.9949,-0.38178 -1.69587,0.23046 -1.72254,1.50454 -0.0247,1.18154 -0.76849,7.63433 -1.65276,14.33953 -1.11924,8.48687 -1.20053,12.14511 -0.26752,12.0394 4.3006,-0.4873 4.74797,0.15207 3.92874,5.61508 -0.6454,4.30378 -0.40904,5.6286 1.10806,6.21077 1.36958,0.52556 1.92352,2.47212 1.9114,6.71676 -0.0256,8.985 -1.04146,11.60172 -4.50372,11.60172 -2.64241,0 -2.97921,0.56525 -2.97921,5 0,4.16667 -0.41667,5 -2.5,5 -1.67954,0 -2.5,-0.83333 -2.5,-2.53922 0,-2.85321 -2.72902,-4.37004 -5.76578,-3.20473 -1.70066,0.65262 -1.75574,1.08688 -0.3523,2.77792 1.43929,1.73423 1.3319,1.94052 -0.79671,1.53058 -1.35311,-0.26057 -2.46021,-1.30983 -2.46021,-2.33167 0,-2.30701 -5.16034,-3.17463 -7.47184,-1.25624 -1.26798,1.05231 -3.68735,1.05984 -9.37136,0.0291 -8.94104,-1.62132 -18.7818,-0.56757 -18.7818,2.01116 0,2.26491 -1.79787,2.21025 -3.72622,-0.11325 -1.03951,-1.25254 -3.19935,-1.69455 -6.71556,-1.37436 -2.85077,0.2596 -7.71447,0.54506 -10.80822,0.63436 -9.98975,0.28835 -2.64628,2.43176 13.62331,3.97639 13.58345,1.2896 15.42626,1.22631 17.44327,-0.59907 C 397.37863,174.72231 415,174.03173 415,176.24994 c 0,1.47839 -0.7992,1.58582 -10.625,1.42821 -4.125,-0.0661 -6.79338,0.19596 -5.92971,0.58252 0.86366,0.38653 1.25652,1.21047 0.87305,1.83096 -0.40146,0.64958 1.71626,0.79735 4.99221,0.34832 6.28105,-0.86091 7.13488,0.26678 2.92878,3.86815 -2.1824,1.86863 -6.56809,2.71445 -20.9375,4.03798 -9.99725,0.92082 -21.83308,2.3743 -26.30183,3.22995 -7.48092,1.43238 -8.15635,1.82793 -8.52053,4.98981 -0.4887,4.24297 -2.72947,4.56836 -2.72947,0.39636 0,-2.81909 -0.2861,-2.9557 -3.97461,-1.89785 -4.49296,1.28858 -5.97853,3.05038 -6.00625,7.12309 -0.01,1.54687 -0.58164,2.8125 -1.26914,2.8125 -0.6875,0 -1.25,-1.73227 -1.25,-3.84949 l 0,-3.8495 -8.4375,0.76725 c -17.37441,1.5799 -18.99244,1.96093 -20.46987,4.82034 -2.7126,5.24995 -4.93914,6.99514 -7.64668,5.99355 -2.95128,-1.09175 -13.56579,0.96444 -15.10361,2.92579 -0.69707,0.88903 -1.20833,0.90042 -1.57318,0.035 -0.7614,-1.80594 -10.72819,-0.6892 -13.18364,1.47717 -2.40447,2.12141 -16.37027,4.51169 -23.0728,3.94898 -2.58196,-0.21678 -4.94733,-1.1629 -5.25638,-2.1025 -0.4292,-1.3049 0.6348,-1.59424 4.50521,-1.22514 z M 255,206.25 c 0.6875,0 1.25,-1.40625 1.25,-3.125 0,-1.71875 -0.5625,-3.125 -1.25,-3.125 -0.6875,0 -1.25,1.40625 -1.25,3.125 0,1.71875 0.5625,3.125 1.25,3.125 z m 4.375,7.51195 c 3.74499,-0.72986 4.16284,-1.01054 1.66474,-1.1182 -3.16048,-0.13621 -7.81866,1.02574 -7.03115,1.75387 0.20152,0.18633 2.61641,-0.0998 5.36641,-0.63567 z m 2.8125,-19.0316 c 1.20313,-1.04892 6.02031,-3.16268 10.70485,-4.69723 4.68454,-1.53455 8.22887,-3.07856 7.87631,-3.43113 -0.35257,-0.35258 -2.4412,-0.0135 -4.64139,0.75348 -2.20018,0.76699 -5.29988,1.39453 -6.88821,1.39453 -1.58834,0 -4.3169,1.54112 -6.06347,3.42472 -3.65245,3.939 -4.20038,5.35619 -0.98809,2.55563 z m -1.39964,8.70715 c 0.93939,3.50534 5.00749,3.71419 6.08714,0.3125 0.92643,-2.91889 3.125,-3.3586 3.125,-0.625 0,2.4065 2.99004,2.42185 4.97879,0.0256 0.84418,-1.01718 4.28806,-2.21464 7.65305,-2.66103 6.59006,-0.8742 6.86596,-1.23065 4.67487,-6.03958 -1.29645,-2.84539 -1.96414,-3.09433 -6.5625,-2.44687 -7.3561,1.03576 -13.54737,3.03226 -15.97795,5.15241 -1.1598,1.01167 -2.70667,1.46986 -3.4375,1.01819 -1.47969,-0.9145 -1.6784,1.01926 -0.5409,5.26382 z m 13.82031,-42.996 c 0.47199,0.472 1.04225,5.72975 1.26724,11.68391 0.22499,5.95415 0.64018,11.05684 0.92263,11.3393 1.25866,1.25865 5.83108,-1.32524 5.20986,-2.94411 -0.37009,-0.96445 -1.35541,-9.04074 -2.1896,-17.94729 -0.91968,-9.81941 -1.99541,-15.89786 -2.73286,-15.4421 -0.76037,0.46993 -0.911,-1.15687 -0.40193,-4.34045 0.848,-5.30306 0.0968,-9.04076 -1.81725,-9.04076 -1.29495,0 -1.54064,25.40895 -0.25809,26.6915 z m 12.41207,46.46944 c 3.6797,-0.45975 7.01367,-1.35904 7.40882,-1.99843 0.93731,-1.51658 -0.66606,-1.46711 -10.57667,0.32636 -9.3487,1.6918 -6.98322,2.94036 3.16785,1.67207 z M 282.5,146.875 c 1.44591,0.89362 1.44591,-2.36014 0,-6.875 -0.89895,-2.80699 -1.01347,-2.65549 -1.1254,1.48872 -0.0685,2.53755 0.4379,4.96138 1.1254,5.38628 z m 2.52601,30.625 c 0.91388,4.00117 1.07584,4.13041 1.8955,1.51244 1.01058,-3.2277 6.48978,-6.51244 10.86328,-6.51244 3.98828,0 8.2121,3.19407 8.69221,6.57309 0.34761,2.44651 1.03095,2.75238 5.398,2.41627 2.75,-0.21166 8.375,-1.15654 12.5,-2.09974 4.125,-0.94318 9.58379,-2.05613 12.13063,-2.47322 3.37176,-0.55219 4.44057,-1.25363 3.93152,-2.58019 -0.38451,-1.00202 -1.15657,-1.53912 -1.7157,-1.19357 -0.55911,0.34556 -3.00761,-0.64205 -5.44111,-2.19468 -3.23064,-2.06124 -4.4388,-3.7306 -4.47743,-6.18669 -0.0291,-1.85005 -0.61541,-3.71137 -1.30291,-4.13627 -2.05096,-1.26756 -1.45258,9.77951 0.69588,12.84686 1.82411,2.60429 1.78306,2.77814 -0.65594,2.77814 -4.71817,0 -5.97399,-7.66748 -3.01981,-18.4375 0.62627,-2.2832 0.26615,-2.8125 -1.91357,-2.8125 -1.47676,0 -3.0088,0.84375 -3.40452,1.875 -0.94191,2.45457 -5.32255,2.41691 -6.27069,-0.0539 -0.97292,-2.53539 0.48209,-3.90765 2.25913,-2.13061 1.03175,1.03175 1.86975,0.92788 3.19345,-0.39584 0.98706,-0.98708 3.78878,-1.79467 6.22608,-1.79467 4.05283,0 4.38039,0.26699 3.83405,3.125 -0.32856,1.71875 -0.21828,3.125 0.24504,3.125 0.87408,0 6.3109,-11.70984 6.3109,-13.59241 0,-1.1254 9.25392,-26.49676 11.22761,-30.78259 0.63322,-1.375 2.65427,-6.84963 4.49124,-12.16585 1.83698,-5.31621 3.82145,-9.36826 4.40995,-9.00454 0.5885,0.36371 0.53503,1.61959 -0.11887,2.79084 -1.87374,3.3564 -6.25997,18.95438 -6.25997,22.26122 0,1.64633 -1.05543,4.04877 -2.34542,5.33875 -1.89993,1.89993 -5.36433,11.03879 -10.8388,28.59208 -0.81115,2.60085 0.45185,1.80481 5.67377,-3.57603 2.74273,-2.82618 4.68866,-5.62086 4.32431,-6.21038 -0.65721,-1.06347 4.10583,-15.4475 9.48737,-28.65109 3.58773,-8.80248 7.4522,-22.73324 6.66131,-24.01293 C 361.37698,89.19418 360.2919,88.75 359.30123,88.75 358.31055,88.75 357.5,88.1875 357.5,87.5 c 0,-2.06322 4.86935,-1.41316 8.48811,1.13316 1.86279,1.31074 5.4479,2.73341 7.9669,3.16148 4.16257,0.70737 4.51924,0.54588 3.91314,-1.77184 -0.36679,-1.40258 -1.86529,-2.79113 -3.33001,-3.08566 -1.46473,-0.29453 -8.28814,-1.67957 -15.16314,-3.07787 -6.875,-1.3983 -18.125,-3.41467 -25,-4.48083 -6.875,-1.06616 -13.66321,-2.24503 -15.08491,-2.61973 -5.38423,-1.41902 -20.57255,19.39989 -20.52095,28.12844 0.0417,7.05278 1.96314,6.09144 6.80336,-3.40384 2.69381,-5.28457 6.15776,-11.29581 7.69768,-13.35831 1.53991,-2.0625 2.87327,-4.3125 2.96302,-5 0.0897,-0.6875 1.11464,-1.10383 2.2775,-0.92519 9.08637,1.3959 25.01686,4.24627 26.8018,4.79553 2.7056,0.83256 2.85238,2.68223 0.25595,3.22551 -1.07577,0.22509 -3.75322,4.83467 -6.04321,10.40415 -2.2614,5.5 -5.3297,12.49628 -6.81844,15.54729 -1.48874,3.05101 -2.7068,6.44147 -2.7068,7.53436 0,1.0929 -0.83341,3.17695 -1.85202,4.63123 -1.57552,2.24935 -1.59302,2.85911 -0.11713,4.08393 1.40761,1.16822 2.3464,0.104 4.97703,-5.64206 1.78313,-3.89502 3.24212,-7.55971 3.24212,-8.14376 0,-0.58404 1.33151,-4.0317 2.95891,-7.66145 1.62742,-3.62974 3.96085,-9.28978 5.18541,-12.57786 2.23463,-6.00014 4.35568,-8.74044 4.35568,-5.62731 0,0.91679 -3.1774,9.24687 -7.06089,18.51127 -4.93182,11.76529 -7.64356,20.3308 -8.99326,28.40686 -1.79379,10.73335 -2.14182,11.5625 -4.85334,11.5625 -1.60654,0 -3.23887,-0.82845 -3.62744,-1.841 -0.38854,-1.01255 -2.6271,-2.20131 -4.97457,-2.6417 -6.88916,-1.29243 -6.85275,-3.54383 0.042,-2.59879 l 5.92317,0.81186 -3.22785,-3.8361 c -3.84377,-4.56805 -3.93248,-5.36272 -0.92475,-8.28308 2.43533,-2.36454 12.86801,-24.60879 15.99837,-34.11119 1.01916,-3.09375 2.34866,-6.55032 2.95443,-7.68127 0.92233,-1.72193 0.199,-2.1916 -4.44856,-2.88854 C 329.712,87.30363 327.5,87.9138 327.5,90.40276 c 0,0.82787 -2.85419,8.2478 -6.34262,16.48873 -3.48845,8.24093 -7.26604,17.37414 -8.39463,20.29601 -1.1286,2.92188 -2.77441,5.3125 -3.65738,5.3125 -0.88295,0 -1.60537,-0.14454 -1.60537,-0.32119 0,-0.17665 3.12911,-7.32257 6.95359,-15.87982 10.75855,-24.07224 13.80022,-34.0223 8.78092,-28.72458 -1.92065,2.02718 -11.83896,24.75081 -14.97137,34.30059 -3.12178,9.51735 -3.8639,10.35003 -6.83113,7.66472 -2.37374,-2.14821 -2.60595,-2.14719 -5.92261,0.026 l -3.45201,2.26184 0.97663,-3.10127 c 1.6462,-5.22742 2.27933,-11.10672 1.43343,-13.3111 -1.41774,-3.69456 -4.66909,2.71222 -5.11347,10.07608 l -0.39763,6.58902 6.15294,1.57695 c 6.24633,1.60088 12.40974,5.48073 10.98297,6.91376 -0.68797,0.69099 -6.26036,-1.27079 -12.54816,-4.4176 -1.34444,-0.67284 -2.59064,-0.42723 -3.52115,0.69397 -1.87722,2.26192 1.50928,4.52795 12.99024,8.69228 4.69759,1.70387 8.81124,3.36814 9.14144,3.69834 0.3302,0.3302 -0.28552,1.86515 -1.36827,3.411 -1.08276,1.54583 -1.66647,4.01457 -1.29715,5.48608 0.40388,1.60917 -0.11987,3.33222 -1.31406,4.32333 -2.95681,2.45395 -3.75529,0.65715 -2.12542,-4.78284 1.78523,-5.9586 1.82305,-7.67554 0.16902,-7.67554 -0.70469,0 -1.61622,1.67489 -2.02564,3.72196 -0.74171,3.70851 -3.65165,7.23616 -4.92155,5.96628 -0.36741,-0.36741 0.2216,-2.79717 1.3089,-5.39944 2.10329,-5.03389 0.93988,-8.25185 -1.79288,-4.95908 -0.88357,1.06463 -1.97897,3.75696 -2.43423,5.98294 -0.48749,2.38353 -1.70655,4.21649 -2.96555,4.45895 -2.78051,0.53548 -2.69765,-1.23363 0.35359,-7.54895 1.37025,-2.83611 2.2276,-5.42034 1.9052,-5.74274 -1.21993,-1.21992 -4.14904,2.51122 -6.21193,7.91282 -1.17778,3.084 -2.65741,5.60726 -3.28805,5.60726 -1.7661,0 -1.37931,-2.14346 1.35339,-7.5 1.375,-2.69523 2.48211,-5.90719 2.46025,-7.1377 -0.0362,-2.04284 -0.21074,-2.02 -2.00687,0.2627 -5.0476,6.41495 -6.10723,17.95284 -2.92737,31.875 z m 29.74577,-45 c 1.19467,-2.40625 5.81288,-12.94523 10.26268,-23.41995 C 332.17697,92.26673 335,87.19915 335,91.19103 c 0,0.65507 -3.65625,9.59725 -8.125,19.87152 -4.46875,10.27427 -8.125,19.32874 -8.125,20.12104 0,2.325 -3.70508,8.81641 -5.0321,8.81641 -1.77148,0 -1.41686,-2.52363 1.05387,-7.5 z M 350.9375,86.26914 c 0.51563,0.0105 1.76496,0.54244 2.7763,1.18204 2.27724,1.44016 0.85304,3.12974 -1.78489,2.11747 -1.94821,-0.74759 -2.72564,-3.33492 -0.99141,-3.29951 z m -59.10225,105.67945 c 1.58313,2.09309 1.8407,2.13995 1.875,0.34115 0.056,-2.94111 -1.27475,-6.03974 -2.59399,-6.03974 -1.70708,0 -1.32987,2.98976 0.71899,5.69859 z M 295,181.25 c 1.582,-2.44796 1.582,-4.10273 0,-3.125 -0.6875,0.4249 -1.24139,1.72372 -1.23086,2.88627 0.0165,1.82159 0.18661,1.85459 1.23086,0.23873 z m 4.375,1.25 c 1.03125,0 1.875,-0.91263 1.875,-2.02805 0,-1.661 -0.33936,-1.74641 -1.875,-0.47195 -1.03125,0.85586 -1.875,1.76849 -1.875,2.02805 0,0.25957 0.84375,0.47195 1.875,0.47195 z m 0.9375,11.62834 c 2.77191,2.9742 3.01996,3.0038 17.1875,2.0508 12.95185,-0.87123 19.97474,-2.12695 45.93361,-8.21312 4.30493,-1.00931 9.70532,-1.47495 12.03574,-1.03775 3.25826,0.61125 4.76326,0.23393 6.56638,-1.64627 1.2866,-1.34161 3.18302,-2.76949 4.21427,-3.17308 1.03125,-0.40357 -1.16417,-0.44608 -4.87873,-0.0945 -4.38593,0.41517 -7.06551,0.13479 -7.64307,-0.79971 -0.65016,-1.05199 -3.0361,-1.11012 -8.87127,-0.21617 -8.93946,1.36953 -11.38649,0.7579 -7.85879,-1.96433 2.1684,-1.6733 1.93833,-1.75724 -2.62314,-0.9571 -2.75,0.48239 -8.9375,1.30216 -13.75,1.82173 -4.8125,0.51956 -10.38906,1.61973 -12.39235,2.44483 -2.00329,0.82512 -9.03454,1.80758 -15.625,2.18327 -6.59046,0.3757 -12.68577,0.89941 -13.54515,1.16382 -2.4718,0.76053 -1.82294,5.14036 1.25,8.43755 z m 1.80295,-74.92956 c 0.98635,0.98635 12.44011,-22.33762 13.55754,-27.608 0.68033,-3.20887 0.61313,-3.28172 -0.90659,-0.98285 -0.90278,1.36561 -4.25959,6.99061 -7.45961,12.5 -5.57145,9.59224 -7.06393,14.21826 -5.19134,16.09085 z M 302.5,203.125 c 0.6875,-0.4249 1.25,-1.0206 1.25,-1.32378 0,-0.30317 -0.5625,-0.55122 -1.25,-0.55122 -0.6875,0 -1.25,0.5957 -1.25,1.32377 0,0.72808 0.5625,0.97613 1.25,0.55123 z M 320.10676,88.05902 c 0.65122,-0.40247 0.85473,-1.26457 0.45225,-1.91578 -0.40246,-0.65121 -1.26456,-0.85473 -1.91577,-0.45226 -0.65121,0.40247 -0.85473,1.26457 -0.45225,1.91578 0.40246,0.65121 1.26456,0.85473 1.91577,0.45226 z M 325,139.375 c 0.70895,0.43815 1.25,-0.61203 1.25,-2.42623 0,-1.75932 -0.5625,-3.19877 -1.25,-3.19877 -0.6875,0 -1.25,1.0918 -1.25,2.42622 0,1.33443 0.5625,2.77388 1.25,3.19878 z m 9.46925,22.50279 c 1.07462,-2.06097 2.84584,-4.73284 3.93604,-5.9375 1.0902,-1.20467 1.38774,-2.19029 0.6612,-2.19029 -1.64343,0 -6.51963,7.45855 -6.53773,10 -0.007,1.03125 0.86588,0.18875 1.94049,-1.87221 z m 2.98265,6.83717 c 1.27294,2.01285 1.58694,1.51685 2.94461,-4.65121 0.72228,-3.28141 -1.42481,-5.17535 -3.01712,-2.6614 -1.41397,2.23237 -1.38647,5.00561 0.0725,7.31261 z m 7.17006,5.1165 c 1.70583,2.88774 2.74766,3.45664 5.3125,2.90096 6.46766,-1.40122 6.73404,-1.597 5.00605,-3.67909 -0.87507,-1.0544 -2.25506,-1.66229 -3.06663,-1.35087 -1.87503,0.71953 -3.34264,-0.35065 -5.31138,-3.873 -2.25339,-4.03163 -1.95029,-5.94382 1.46285,-9.22886 3.63655,-3.50005 3.04069,-5.28272 -1.13049,-3.3822 -4.56995,2.0822 -5.84927,12.55875 -2.2729,18.61306 z m 5.4612,-24.40506 c 0.73324,0.45316 1.59024,0.56687 1.90443,0.25267 C 352.85944,148.80724 351.13338,145 349.86626,145 c -1.56474,0 -1.3967,3.42914 0.2169,4.4264 z m 1.43432,16.8236 c 0.6875,0 0.90856,-0.88975 0.49126,-1.97724 -0.41731,-1.08747 -0.75874,-2.24567 -0.75874,-2.57376 0,-0.3281 -0.53794,-0.26409 -1.19541,0.14226 -1.4512,0.89689 -0.28591,4.40874 1.46289,4.40874 z m 1.60752,-33.29797 c 1.03125,0.39573 1.875,1.81616 1.875,3.15651 0,4.63245 1.36291,6.41075 4.34054,5.66341 2.09438,-0.52565 3.52249,0.17024 5.49467,2.67748 1.46564,1.86325 2.68731,4.29623 2.71484,5.40665 0.13045,5.26252 6.9822,-12.59798 13.05381,-34.02746 3.41161,-12.04108 3.43501,-12.34443 1.12754,-14.61115 -1.49559,-1.46916 -5.14368,-2.62242 -9.98629,-3.15692 -6.77113,-0.74736 -7.70962,-0.58009 -8.33825,1.48615 -0.38959,1.28057 -2.44051,6.46471 -4.5576,11.52032 -2.1171,5.05561 -3.84926,9.41498 -3.84926,9.6875 0,0.27251 1.125,0.49548 2.5,0.49548 1.375,0 2.5,0.5625 2.5,1.25 0,0.6875 -1.35937,1.25 -3.02084,1.25 -2.15776,0 -3.37952,0.98212 -4.27631,3.4375 -1.72344,4.71877 -1.70669,4.94762 0.42215,5.76453 z m 11.20996,-12.1387 c 1.00924,-0.38728 2.13101,-0.22515 2.49283,0.36028 0.54789,0.88649 -1.94789,2.57639 -3.80503,2.57639 -1.34807,0 -0.31486,-2.31231 1.3122,-2.93667 z M 357.5,166.25 c 1.07709,1.66666 1.20409,1.66666 1.143,0 -0.0377,-1.03125 -0.55214,-3 -1.143,-4.375 -1.07429,-2.5 -1.07429,-2.5 -1.143,0 -0.0378,1.375 0.47655,3.34375 1.143,4.375 z m 4.32001,-16.66666 c 1.00102,0 1.53032,-0.46875 1.17623,-1.04168 -0.35408,-0.57291 -1.17309,-1.04166 -1.82001,-1.04166 -0.64693,0 -1.17623,0.46875 -1.17623,1.04166 0,0.57293 0.81901,1.04168 1.82001,1.04168 z m 0.29165,15.10416 c 0.3144,-1.20313 0.3144,-3.17188 0,-4.375 -0.31441,-1.20313 -0.57166,-0.21875 -0.57166,2.1875 0,2.40625 0.25725,3.39062 0.57166,2.1875 z m 22.75811,3.08979 c 17.14647,-0.3098 19.07194,-0.13944 17.65946,1.5625 -1.32621,1.59796 -1.20276,1.91006 0.75522,1.90932 1.61472,-6e-4 2.39645,-0.96969 2.52081,-3.125 C 405.9555,165.5204 405.42455,165 402.61776,165 c -1.85226,0 -3.9144,-0.54664 -4.58252,-1.21476 -0.66813,-0.66813 -5.19259,-1.58447 -10.05437,-2.03632 -7.50445,-0.69747 -8.95762,-0.51398 -9.621,1.21477 -0.42977,1.11997 -1.42541,2.03631 -2.21251,2.03631 -1.46597,0 -1.09682,-4.89755 0.68271,-9.05763 0.8136,-1.90196 0.40939,-2.07776 -3.14352,-1.36718 -6.02895,1.20578 -8.59606,4.04092 -8.30748,9.17481 l 0.24593,4.375 19.24478,-0.34771 z M 374.84835,151.25 c 4.12325,0 4.47056,-0.6583 9.56256,-18.125 1.80382,-6.1875 4.16015,-13.64899 5.2363,-16.58108 1.81988,-4.95848 1.80154,-5.50245 -0.26235,-7.78303 -2.97165,-3.28362 -3.85955,-2.45179 -5.65489,5.29776 -2.06325,8.90603 -9.94921,32.53269 -11.3496,34.00385 -2.02311,2.12535 -1.20072,3.1875 2.46798,3.1875 z m 4.28792,-53.83786 c 0.55621,0.0483 0.66363,-0.47464 0.23873,-1.16214 -0.4249,-0.6875 -2.00497,-1.21046 -3.51127,-1.16214 -2.64045,0.0847 -2.64903,0.1264 -0.23873,1.16214 1.375,0.59086 2.95507,1.11382 3.51127,1.16214 z m 12.42623,62.18967 c 6.35938,0.76733 12.40625,1.5927 13.4375,1.83417 1.31844,0.30871 1.99128,-0.76687 2.2667,-3.62348 0.22001,-2.28195 -0.19087,-4.0625 -0.9375,-4.0625 -0.73106,0 -1.3292,0.5625 -1.3292,1.25 0,1.78327 -3.44119,1.55142 -4.04927,-0.27281 -0.3103,-0.9309 -2.6587,-1.4519 -6.04167,-1.34038 C 380.48511,153.86231 380,153.95066 380,156.10206 c 0,1.72059 2.10981,2.35919 11.5625,3.49975 z m -6.81755,-62.48567 c 0.63057,-3.05761 4.66826,-2.11664 4.49639,1.04787 -0.0735,1.35355 -0.35477,3.20935 -0.625,4.12401 -0.27024,0.91467 0.7031,2.48289 2.16297,3.48493 2.40944,1.65383 2.71383,1.5943 3.2995,-0.64533 0.35486,-1.35697 -0.1534,-4.00652 -1.12946,-5.88788 -1.33409,-2.57147 -1.40978,-3.64617 -0.30485,-4.32904 2.48647,-1.53673 0.28594,-4.51211 -3.96601,-5.3625 -5.72088,-1.14418 -7.63142,0.77261 -5.82212,5.84116 1.0516,2.94596 1.54426,3.3964 1.88858,1.72678 z M 383.64072,148.75 c 0.62739,0 2.66171,-4.07813 4.52069,-9.0625 1.85899,-4.98437 4.75474,-12.05283 6.43502,-15.70768 3.24691,-7.06252 3.39767,-10.85482 0.43156,-10.85482 -1.22195,0 -3.52108,5.29625 -7.05418,16.25 -5.6618,17.55339 -6.0692,19.375 -4.33309,19.375 z m 6.95888,1.25 c 2.30816,0 5.53779,-6.34625 10.04764,-19.74372 2.63919,-7.84025 3.13825,-10.7208 2.04653,-11.8125 -1.09169,-1.09171 -1.44377,-0.31595 -1.44377,3.18122 0,4.50809 -2.41639,6.78695 -2.5846,2.4375 -0.0611,-1.58184 -0.46579,-1.32227 -1.46135,0.9375 -0.75721,1.71875 -2.21914,5.01563 -3.24872,7.32639 -1.0296,2.31076 -1.87199,5.09905 -1.87199,6.19617 0,1.09714 -0.74654,3.42526 -1.65898,5.17361 C 388.25334,147.8562 388.31293,150 390.5996,150 Z m 7.1383,-38.75 c 1.64299,0 0.61417,-2.84098 -1.25438,-3.46382 -0.91343,-0.30448 -1.1928,0.26698 -0.72563,1.48437 0.41777,1.0887 1.30877,1.97945 1.98001,1.97945 z m -0.0506,-9.71211 c -0.0331,2.53795 2.25025,4.3808 2.44512,1.97338 0.2341,-2.89199 -0.36158,-9.10626 -0.96759,-10.09416 -1.21406,-1.9791 -3.09834,0.72395 -2.29097,3.28646 0.46291,1.46929 0.82896,3.64473 0.81344,4.83432 z m 4.29929,47.9927 c 0.0614,-0.0856 -0.16011,-2.68684 -0.49225,-5.78059 l -0.60387,-5.625 -1.44666,5 c -1.23023,4.25192 -1.15658,5.11679 0.49225,5.78059 1.0664,0.42932 1.98915,0.71057 2.05053,0.625 z m 1.84654,-51.35419 c 1.86144,1.15043 2.87349,-0.18341 1.95509,-2.57672 -0.42382,-1.10447 -1.33706,-1.65804 -2.02942,-1.23014 -1.63943,1.01322 -1.60514,2.76889 0.0744,3.80686 z m -0.22527,14.86077 c 1.17222,0.72447 2.59642,-3.26306 2.62505,-7.34967 0.0299,-4.2721 -2.61469,0.004 -3.58794,5.80123 -0.0797,0.47505 0.35355,1.17185 0.96289,1.54844 z m 1.01777,27.75383 c 1.6225,-1.62249 5.19588,-14.80159 4.50293,-16.60739 -1.14184,-2.97559 -3.45514,-1.12791 -4.27654,3.41575 -1.11365,6.16029 -1.25192,14.21718 -0.22639,13.19164 z M 424.6875,96.38144 c 5.7999,1.02786 9.0625,2.19333 9.0625,3.23731 0,0.89719 -0.42187,1.62148 -0.9375,1.60955 -1.41486,-0.0328 -17.82874,-3.56499 -20.48769,-4.4089 C 410.62099,96.27862 410,96.70942 410,98.43219 c 0,1.92919 1.06459,2.40402 5.9375,2.64828 8.94128,0.44819 9.97851,2.09342 7.59642,12.04922 -1.07584,4.49646 -1.46734,8.47744 -0.87,8.84662 0.59734,0.36918 1.08608,-1.01627 1.08608,-3.07877 0,-2.0625 0.5625,-4.09764 1.25,-4.52254 0.7439,-0.45975 1.25,1.02869 1.25,3.67623 0,3.41088 0.51034,4.44431 2.1875,4.42963 4.11483,-0.036 5.30065,-2.0012 6.06474,-10.05081 0.93807,-9.88237 5.12561,-22.17645 8.20964,-24.10246 C 443.97034,87.54167 445,86.50681 445,86.02791 c 0,-1.17345 -8.99047,0.26715 -10.8688,1.74158 -0.82159,0.64492 -6.16534,1.41296 -11.875,1.70675 -5.70966,0.29379 -11.78745,0.8971 -13.5062,1.34068 -2.92891,0.75592 -2.81126,0.90542 1.875,2.3825 2.75,0.86678 9.07813,2.29869 14.0625,3.18202 z m 5.23591,6.11856 c 1.55024,0 3.05235,10.28178 1.99078,13.62655 -1.63467,5.15035 -3.16419,2.49098 -3.16419,-5.50155 0,-4.46875 0.52804,-8.125 1.17341,-8.125 z m -19.94722,46.25 c 1.69796,0 2.69657,-1.08035 3.17742,-3.4375 0.38569,-1.89063 1.20643,-5.32727 1.82387,-7.63699 1.06938,-4.00039 -0.41012,-8.92551 -2.68122,-8.92551 -1.40305,0 -3.78076,8.53861 -3.04026,10.91787 0.37781,1.21393 0.14589,3.05088 -0.5154,4.08213 -1.92616,3.00381 -1.43286,5 1.23559,5 z m 0.107,-29.3236 c 0.73323,0.45316 1.59024,0.56687 1.90442,0.25268 C 412.85944,118.80723 411.13338,115 409.86626,115 c -1.56474,0 -1.3967,3.42914 0.2169,4.4264 z m 3.04181,-6.39029 c 0.6875,0.0489 1.42626,-1.73923 1.6417,-3.97361 0.40847,-4.23651 -1.65017,-5.68323 -2.66809,-1.875 -0.85325,3.19219 -0.40492,5.74683 1.02639,5.84861 z m 1.25,53.96174 c 1.375,0.0676 1.65625,-0.0929 0.625,-0.3566 -1.44853,-0.37039 -1.77761,-2.03315 -1.44681,-7.31035 0.2355,-3.757 -0.0759,-6.8309 -0.69194,-6.8309 -0.61606,0 -1.09,3.23437 -1.05319,7.1875 0.0586,6.2894 0.37933,7.20285 2.56694,7.31035 z m 1.36351,-39.83076 c 1.81803,1.81802 1.95199,1.73837 1.5625,-0.92888 -0.2343,-1.60456 -1.12913,-3.14895 -1.98851,-3.43197 -2.2072,-0.72689 -1.94146,1.99337 0.42601,4.36085 z m 2.87979,-6.60459 c 1.88089,-1.99729 3.74138,-13.00168 2.34416,-13.86521 -0.68308,-0.42217 -1.73296,0.008 -2.33307,0.95507 -1.46083,2.30635 -1.47127,14.46067 -0.0113,12.91014 z m 2.40817,17.5777 c 0.99327,-0.99326 -1.26157,-3.14245 -2.4963,-2.37934 -0.83983,0.51905 -0.71198,1.16324 0.36268,1.82743 0.91286,0.56417 1.87299,0.81253 2.13362,0.55191 z m -1.49842,10.6098 c 1.736,0 1.78694,-0.31503 0.35371,-2.1875 -0.92089,-1.20313 -1.83351,-2.42188 -2.02805,-2.70834 -0.19453,-0.28645 -0.35371,0.69793 -0.35371,2.1875 0,1.66493 0.78134,2.70834 2.02805,2.70834 z M 418.75,164.375 c 0.6875,0.4249 1.25,-0.0712 1.25,-1.10246 0,-3.08185 2.6121,-3.73885 3.36829,-0.84719 2.08321,7.96621 6.04889,-4.70778 4.7679,-15.23785 -0.58605,-4.8175 -0.36049,-5.9375 1.19576,-5.9375 1.05493,0 1.91805,-1.04649 1.91805,-2.32554 0,-1.27903 0.35771,-4.93528 0.7949,-8.125 0.77218,-5.63355 0.70065,-5.79946 -2.5,-5.79946 -3.77756,0 -4.35862,2.86351 -1.38015,6.80141 2.36351,3.12483 2.34555,5.69859 -0.0398,5.69859 -1.03125,0 -1.96067,0.70312 -2.06539,1.5625 -0.10475,0.85937 -0.26021,2.125 -0.34555,2.8125 -0.0854,0.6875 -0.56397,1.90236 -1.06366,2.6997 -0.49967,0.79732 -0.57985,2.30619 -0.17814,3.353 0.48774,1.27105 -0.54901,2.56491 -3.12095,3.89491 -3.30686,1.71005 -3.85131,2.68345 -3.85131,6.88572 0,2.69177 0.5625,5.24177 1.25,5.66667 z m 6.40355,4.12241 c 4.11753,-0.42399 4.09148,-0.45005 -1.05848,-1.05847 -2.90396,-0.34309 -4.80361,-0.14748 -4.22145,0.43468 0.58217,0.58217 2.95814,0.86288 5.27993,0.62379 z M 421.25,132.5 c 1.56615,0 1.56615,-1.32655 0,-3.75 -0.97984,-1.5162 -1.21537,-1.3368 -1.23086,0.9375 -0.0105,1.54688 0.54336,2.8125 1.23086,2.8125 z m 12.97921,32.5 c 4.84763,0 6.01323,-2.25023 4.64888,-8.97485 -0.68739,-3.38804 -1.49745,-4.2259 -4.4113,-4.56269 -3.3068,-0.3822 -3.52055,-0.15237 -2.9064,3.125 0.3646,1.94565 0.2022,4.66254 -0.36089,6.03754 -1.65162,4.03312 -1.41487,4.375 3.02971,4.375 z m 0.14579,-16.25 c 1.03125,0 1.875,-0.22108 1.875,-0.49126 0,-0.2702 -0.84375,-0.81504 -1.875,-1.21078 -1.03125,-0.39572 -1.875,-0.17465 -1.875,0.49126 0,0.66593 0.84375,1.21078 1.875,1.21078 z m 18.07934,-44.34677 c 0.56736,-0.35066 1.24311,-2.8557 1.50165,-5.56676 0.53272,-5.58608 -0.18814,-5.48397 -2.22893,0.31574 -1.43142,4.06794 -1.11027,6.38668 0.72728,5.25102 z M 452.561,92.5 c 2.94303,-4.33574 3.79946,-6.80492 1.30069,-3.75 -1.40585,1.71875 -2.55999,3.6875 -2.56475,4.375 -0.005,0.6875 0.56406,0.40625 1.26406,-0.625 z m 7.1265,3.4923 c 1.66193,-0.27905 2.11035,0.38352 1.86639,2.7577 -0.54733,5.32652 0.93519,6.29932 7.23125,4.74502 3.07442,-0.75898 7.15656,-2.47077 9.07142,-3.80398 2.44143,-1.69984 3.9386,-2.0447 5.01142,-1.15435 2.58837,2.14816 11.11522,0.25399 13.7108,-3.04575 1.29397,-1.64501 3.52402,-2.99094 4.95568,-2.99094 2.56748,0 2.5705,0.0361 0.22178,2.64528 -2.3464,2.60658 -2.34467,2.63841 0.11875,2.17579 2.0497,-0.38492 2.567,-1.61918 2.872,-6.85246 l 0.37201,-6.38298 -6.29976,0.37739 c -3.46487,0.20756 -6.83207,0.70638 -7.48268,1.10847 -0.65061,0.4021 -1.71205,-0.21441 -2.35876,-1.37002 -1.04729,-1.87139 -2.52165,-1.97676 -13.48485,-0.96379 l -12.309,1.13732 -2.82141,5 c -3.41252,6.04749 -3.51935,7.09487 -0.67505,6.6173 z m 26.11046,12.7577 c 1.86039,0 3.76293,-3.35577 2.57567,-4.54304 -0.37688,-0.37687 -1.82392,-0.32382 -3.21564,0.1179 -2.81169,0.89239 -2.30078,4.42514 0.63997,4.42514 z m -1.2601,12.1875 c 0.68108,2.54145 1.51703,2.8125 8.67412,2.8125 4.35621,0 9.34501,0.6491 11.0862,1.44244 2.87707,1.31088 3.93103,0.85485 11.55586,-5 4.61452,-3.54334 9.57761,-6.44244 11.02909,-6.44244 1.45147,0 3.73093,-0.82586 5.06546,-1.83525 2.351,-1.7782 2.33297,-1.83648 -0.57983,-1.875 -2.92675,-0.0387 -2.94641,-0.10585 -0.74376,-2.53975 2.2056,-2.43716 2.18329,-2.5 -0.88769,-2.5 -1.73258,0 -4.58037,1.125 -6.3284,2.5 -3.42202,2.69177 -7.77701,3.2837 -9.04651,1.22961 -1.70651,-2.76118 -3.35368,0.50967 -2.60729,5.17738 0.59027,3.6913 0.35725,4.84301 -0.97982,4.84301 -2.02564,0 -3.6304,-5.12012 -2.51544,-8.02567 0.58749,-1.53098 -0.0915,-1.97433 -3.02387,-1.97433 -6.5991,0 -7.73598,1.03 -7.73598,7.00874 0,4.25057 -0.46202,5.49126 -2.0449,5.49126 -1.70449,0 -1.91656,-0.93642 -1.27391,-5.625 0.84639,-6.1751 -0.95107,-7.70813 -2.93119,-2.5 -1.30071,3.42115 -3.75,4.23758 -3.75,1.25 0,-1.03125 -0.84375,-1.875 -1.875,-1.875 -1.9689,0 -2.41678,3.47599 -1.08714,8.4375 z m 9.29851,-14.11588 c 1.90193,-1.17546 1.32097,-3.05353 -0.70419,-2.27641 -1.0273,0.39422 -1.55093,1.22949 -1.16363,1.85616 0.38731,0.62668 1.22783,0.81579 1.86782,0.42025 z m 6.65489,-0.57162 c 0.9577,0 2.06504,-0.84375 2.46078,-1.875 0.7212,-1.87944 -1.76283,-2.64755 -3.3687,-1.04167 -1.40153,1.40152 -0.92988,2.91667 0.90792,2.91667 z m 15.65537,-4.2285 c 7.6901,-2.28371 9.11651,-3.08445 8.18357,-4.59398 -0.39326,-0.63632 -2.07691,-0.25447 -3.77039,0.85514 -2.74311,1.79736 -3.05981,1.80356 -3.05981,0.0599 0,-1.06975 0.55948,-2.29077 1.24328,-2.71338 1.80441,-1.11518 4.03437,-5.62915 2.78087,-5.62915 -0.58509,0 -2.3559,2.29899 -3.93515,5.10887 -2.10577,3.74673 -3.48271,4.949 -5.16436,4.50924 -1.44443,-0.37773 -2.46354,0.16023 -2.75375,1.45362 -0.67315,3.00003 -0.5092,3.02407 6.47573,0.94977 z M 512.5,89.375 c 0.6875,-0.4249 1.24139,-1.44247 1.23086,-2.26127 -0.0113,-0.89452 -0.50278,-0.74034 -1.23086,0.38627 -1.55191,2.4014 -1.55191,2.83413 0,1.875 z m 0.49126,6.875 c 0.2702,0 0.82625,-0.87296 1.23569,-1.93992 0.42686,-1.11241 0.21731,-1.61415 -0.49126,-1.17623 -1.18776,0.73407 -1.75681,3.11615 -0.74443,3.11615 z m 3.91395,-6.27507 c 1.04787,-0.86965 1.57978,-1.90661 1.18203,-2.30435 -0.39774,-0.39775 -1.24648,0.10428 -1.88607,1.11562 -1.67351,2.64621 -1.46873,2.99197 0.70404,1.18873 z M 521.17913,73.75 c 1.74541,0 5.32022,-5.54188 3.88368,-6.02073 -1.59728,-0.53243 -4.9542,2.45165 -5.01526,4.45823 -0.0261,0.85938 0.48305,1.5625 1.13158,1.5625 z m 6.75104,22.87727 C 529.63596,97.28184 541.77791,82.3752 544.52813,76.25 546.12265,72.69874 552.5,66.38707 552.5,68.36023 c 0,0.7128 -1.6875,3.41945 -3.75,6.01477 -4.14554,5.21647 -4.79135,7.54208 -1.77276,6.38374 C 548.06471,80.34143 549.18971,80 549.47724,80 549.76475,80 550,79.14507 550,78.10016 c 0,-2.07647 5.41283,-11.18521 7.36298,-12.39047 3.08032,-1.90375 2.41154,2.28467 -1.03183,6.46206 -5.47242,6.63902 -5.06787,7.65039 2.57683,6.44192 3.52438,-0.55713 6.52046,-1.17625 6.65793,-1.37582 3.27939,-4.7607 5.6777,-9.98691 5.04948,-11.00341 -0.47663,-0.77118 -2.57195,-0.98067 -5.08786,-0.50868 -5.09057,0.95499 -5.64603,-0.26733 -0.93538,-2.05832 3.96786,-1.50858 10.61336,-0.33512 10.1258,1.78801 -0.18862,0.82139 0.21955,1.65063 0.90705,1.84276 0.6875,0.19213 1.56884,-0.94949 1.95851,-2.53694 0.71597,-2.91656 -2.6528,-7.28309 -5.58727,-7.24213 -0.75418,0.0105 -0.60806,0.50272 0.32471,1.09375 2.48749,1.57615 -0.47017,3.05892 -4.22287,2.11705 -2.0078,-0.50393 -2.77193,-1.37541 -2.29522,-2.61768 0.50934,-1.32733 -0.13168,-1.85736 -2.23162,-1.84519 -7.1529,0.0414 -8.41678,1.06303 -15.44624,12.48531 -0.6875,1.11713 -3.63154,4.87519 -6.5423,8.35124 -2.91077,3.47605 -6.67964,8.76252 -8.37525,11.7477 -2.43871,4.29344 -3.2545,4.98054 -3.90394,3.28815 C 528.85197,90.96276 527.98021,90 527.36626,90 c -1.78896,0 -1.28543,5.91761 0.56392,6.62727 z m 6.5005,-13.67928 c 1.64265,-2.0481 2.2977,-3.7768 1.53487,-4.05053 -1.65481,-0.59382 -6.02138,5.00092 -5.08527,6.51558 0.37662,0.60937 1.97429,-0.49991 3.5504,-2.46505 z m 4.07093,12.1081 c 2.27214,-2.27213 5.1043,-3.80609 7.02725,-3.80609 1.8017,0 3.08344,-0.64351 2.90865,-1.46031 -0.17187,-0.80317 1.09375,-2.20112 2.8125,-3.10657 2.25284,-1.1868 2.52544,-1.65141 0.97673,-1.66469 -1.52224,-0.0131 -1.90937,-0.65589 -1.32845,-2.20593 0.74055,-1.97603 0.5857,-2.01058 -1.60174,-0.35747 -3.41178,2.57838 -15.53269,15.47549 -15.02306,15.98511 0.23212,0.23212 2.13477,-1.2907 4.22812,-3.38405 z m 3.0609,9.85605 c 3.75836,-0.0621 4.60627,-0.36445 2.8984,-1.03334 -2.2585,-0.88455 -8.2109,-0.41919 -8.2109,0.64192 0,0.26361 2.39063,0.43975 5.3125,0.39142 z M 538.70603,100 c 0.66331,0 1.87014,-1.26562 2.68188,-2.8125 1.46795,-2.79742 1.46149,-2.79973 -1.20602,-0.43126 C 537.20246,99.40165 536.93023,100 538.70603,100 Z m 7.66908,0.66471 c 1.9516,0.61941 3.71549,-0.22365 6.875,-3.28597 2.33744,-2.26554 4.24989,-4.51208 4.24989,-4.99231 0,-1.53145 -8.8396,1.05718 -11.34139,3.32128 -3.08765,2.79428 -3.0383,3.92397 0.2165,4.957 z m 8.28635,-11.1595 c 0.41536,-0.41537 -0.32292,-0.7108 -1.64062,-0.65653 -1.45619,0.06 -1.75238,0.35618 -0.75522,0.75521 0.90235,0.36109 1.98048,0.31668 2.39584,-0.0987 z m 4.00078,-0.8177 c 2.01423,1.43426 3.9865,2.08311 4.3828,1.44188 0.39628,-0.64122 0.0139,-1.46251 -0.84975,-1.82508 -1.1308,-0.47471 -0.95807,-1.04674 0.61721,-2.04387 1.20312,-0.76157 2.1704,-2.62234 2.14949,-4.13505 -0.0341,-2.46926 -0.16824,-2.52679 -1.31212,-0.56289 -0.75783,1.30113 -2.76842,2.1875 -4.96198,2.1875 -4.67632,0 -4.68473,1.61995 -0.0256,4.93751 z m 4.77526,11.32956 c 1.20313,0.009 3.45313,0.35624 5,0.77079 2.27256,0.60902 2.8125,0.24236 2.8125,-1.9099 0,-2.27305 -0.54986,-2.56674 -3.75,-2.00296 -2.53277,0.44621 -3.75621,0.14769 -3.76914,-0.91967 -0.013,-1.07726 -0.40487,-0.98345 -1.23086,0.29467 -1.77335,2.74406 -1.52354,3.74787 0.9375,3.76707 z m 4.62929,-6.76576 C 571.70656,92.33778 572.37756,90 569,90 c -2.29854,0 -5.64867,2.51799 -4.66237,3.50429 0.30027,0.30027 1.9784,0.18643 3.72916,-0.25298 z m 3.87366,-13.30563 c 0.99525,-0.82598 1.80094,-2.13604 1.79041,-2.91124 -0.01,-0.77519 -0.61585,-0.56569 -1.34516,0.46556 -1.03264,1.46014 -1.47015,1.51774 -1.97742,0.26033 -0.51423,-1.27467 -1.03726,-1.29444 -2.48382,-0.0939 -1.60046,1.32826 -1.57679,1.66384 0.187,2.65091 1.30043,0.72775 2.66373,0.59542 3.82899,-0.37166 z M 570.3125,55.22556 C 574.78562,55.86085 582.5,54.84375 582.5,53.61871 582.5,53.00342 579.125,52.5 575,52.5 c -7.21576,0 -10.48676,1.90193 -4.6875,2.72556 z M 575,101.25 c 0.94423,1.46109 1.21594,1.11617 1.23086,-1.5625 C 576.24136,97.79688 575.6875,96.25 575,96.25 c -1.58051,0 -1.58051,2.55433 0,5 z m 5.9141,-32.1875 c 1.91674,-2.85103 5.3359,-3.85226 5.3359,-1.5625 0,0.6875 -0.5625,1.25 -1.25,1.25 -0.6875,0 -1.25,0.84375 -1.25,1.875 0,1.03125 0.57005,1.875 1.26678,1.875 0.74066,0 0.4811,1.8804 -0.625,4.52766 -2.17437,5.20399 -2.22149,5.47399 -0.95428,5.46766 0.51563,-0.003 1.94319,-2.45064 3.17235,-5.44013 1.22918,-2.9895 3.34926,-6.63161 4.7113,-8.0936 l 2.47645,-2.65815 -4.7113,-1.98006 -4.7113,-1.98006 -3.41159,4.06259 c -1.87637,2.23442 -3.08051,4.37904 -2.67586,4.76584 0.40465,0.38679 1.5866,-0.56237 2.62655,-2.10925 z m -1.97096,10.43187 c 0.83807,0.51796 1.10589,0.34623 0.63876,-0.4096 -0.4424,-0.71583 0.0333,-1.99661 1.05686,-2.84619 1.02368,-0.84958 1.86124,-2.1255 1.86124,-2.83537 0,-0.70987 -1.125,-0.27257 -2.5,0.97179 -2.85432,2.58313 -3.11529,3.84719 -1.05686,5.11937 z M 579.89776,90 c 0.63128,0 2.03753,0.34143 3.125,0.75874 1.29749,0.49789 1.97724,0.0682 1.97724,-1.25 0,-1.10481 -0.84375,-2.00874 -1.875,-2.00874 -1.03125,0 -1.875,-0.5625 -1.875,-1.25 0,-0.6875 -0.5625,-1.25 -1.25,-1.25 -0.6875,0 -1.25,1.125 -1.25,2.5 0,1.375 0.5165,2.5 1.14776,2.5 z M 590,90.625 c 2.44889,2.21621 2.5,2.18329 2.5,-1.60981 0,-3.9951 4.37878,-12.76519 6.37348,-12.76519 1.71615,0 1.34515,2.98312 -0.70873,5.69859 -2.20827,2.91961 -2.45984,8.25633 -0.48239,10.23378 1.0765,1.07649 2.59243,0.84055 6.10144,-0.94961 3.61984,-1.8467 4.85034,-3.34823 5.47571,-6.68177 0.44365,-2.36488 1.63552,-4.98768 2.64857,-5.82844 2.40822,-1.99865 2.34598,-4.51165 -0.13532,-5.46381 C 610.68529,72.84143 605.91748,72.5 601.17763,72.5 l -8.6179,0 -2.47462,4.6875 c -3.19026,6.04309 -3.21912,10.60125 -0.0851,13.4375 z m 12.1875,-20.66929 c 5.77859,-0.0431 5.85386,-0.0921 2.8125,-1.83071 -4.16515,-2.38102 -8.75,-2.38102 -8.75,0 0,1.40973 1.47337,1.86401 5.9375,1.83071 z m 14.375,22.12214 c 0.85938,-0.34676 0.15625,-0.63048 -1.5625,-0.63048 -1.71875,0 -2.42187,0.28372 -1.5625,0.63048 0.85938,0.34677 2.26563,0.34677 3.125,0 z m 2.13228,-2.39035 c 2.70903,1.54688 5.46776,2.8125 6.1305,2.8125 0.66273,0 1.601,-2.39062 2.08501,-5.3125 0.48402,-2.92187 1.397,-6.29687 2.02885,-7.5 0.71835,-1.36784 0.69552,-2.1875 -0.0609,-2.1875 -0.66536,0 -1.54326,1.05082 -1.95089,2.33515 -1.03071,3.24749 -5.69128,7.41909 -5.63757,5.04609 0.0219,-0.96593 0.86562,-2.84812 1.875,-4.18265 2.71082,-3.58402 2.30851,-5.94072 -0.9343,-5.47303 -2.66975,0.38505 -8.49059,7.44344 -8.47083,10.27179 0.005,0.75771 2.22612,2.64328 4.93515,4.19015 z M 625.58103,72.5 c 1.00706,0 2.41331,-1.08802 3.125,-2.41782 1.97291,-3.68642 1.58271,-4.079 -1.83103,-1.84223 -3.48334,2.28236 -4.08405,4.26005 -1.29397,4.26005 z m -374.9033,154.1818 c 3.0161,-1.15739 14.30502,0.2907 15.95835,2.04706 1.1959,1.27041 0.13588,1.39546 -5.38608,0.63535 -3.78125,-0.5205 -8.14062,-0.87792 -9.6875,-0.79429 -3.23966,0.17517 -3.70024,-0.80772 -0.88477,-1.88812 z m 5.7999,-128.45054 c 3.22571,-2.25938 7.27237,-2.62523 7.27237,-0.65749 0,0.72808 -0.53779,0.9914 -1.19509,0.58517 -0.6573,-0.40623 -2.13009,0.68839 -3.27286,2.43249 -1.67519,2.55666 -1.77727,3.53317 -0.52686,5.03983 2.3131,2.78711 3.74481,2.26699 3.74481,-1.36043 0,-2.02444 0.58294,-3.03719 1.5625,-2.71459 2.00414,0.66003 2.78735,5.84391 1.1329,7.49836 -0.85502,0.85502 1.14226,3.07679 6.14983,6.84104 7.38843,5.55399 9.07933,9.44469 2.64633,6.08914 -4.86936,-2.53993 -18.52573,-15.88756 -19.50706,-19.06602 -0.61442,-1.99011 -0.087,-3.23053 1.99313,-4.6875 z m 13.12671,1.42276 c 2.21807,-1.29591 17.67522,-2.27196 18.36275,-1.15953 0.40627,0.65737 -3.41905,1.54145 -8.76636,2.02601 -8.89332,0.80589 -11.98155,0.52705 -9.59639,-0.86648 z M 299.08484,220 c 4.63527,0 13.41516,5.36213 13.41516,8.19302 0,1.40372 1.43936,1.80699 5.9375,1.66353 8.2512,-0.26318 16.15151,2.41912 19.76154,6.7094 3.00177,3.5674 4.02677,7.18405 2.03604,7.18405 -0.55822,0 -2.30549,-1.74557 -3.88283,-3.87905 -4.20131,-5.68258 -12.57959,-9.03058 -20.03333,-8.00542 -5.31761,0.73134 -6.0514,0.54251 -6.64015,-1.70888 -0.79436,-3.03764 -7.93991,-7.64545 -11.86627,-7.65197 C 296.26563,222.50268 295,221.9375 295,221.25 c 0,-0.6875 1.83818,-1.25 4.08484,-1.25 z m 16.85266,-1.05813 c 7.57709,-3.96985 14.51592,-2.62371 21.5625,4.18313 6.34089,6.12516 9.46326,6.96589 18.22015,4.90595 10.34045,-2.43246 13.23689,-2.23856 22.11719,1.48061 5.48034,2.29524 12.37029,3.76075 23.25491,4.94643 8.50699,0.92666 15.77261,1.99021 16.14584,2.36343 1.71701,1.71702 -1.4279,2.19253 -5.81255,0.87885 -2.66233,-0.79764 -8.71283,-1.46213 -13.44556,-1.47663 -6.13109,-0.0187 -11.12057,-0.95906 -17.35498,-3.27056 -11.72105,-4.34575 -15.78035,-4.81063 -25.68589,-2.94159 -10.17155,1.91924 -13.59788,1.1806 -19.65812,-4.23781 -2.5608,-2.28959 -5.87556,-4.80172 -7.36616,-5.58251 -3.69009,-1.93288 -10.59054,-0.41425 -11.35222,2.4984 -0.80198,3.0668 -2.81261,2.96272 -2.81261,-0.1456 0,-1.35081 0.98438,-2.97175 2.1875,-3.6021 z M 325.97355,11.65451 c 0.69631,-1.09479 2.68741,-0.8657 7.79335,0.8967 8.54568,2.94967 12.91951,3.03951 17.0247,0.34968 2.56413,-1.68008 3.67483,-1.80484 5.56406,-0.625 1.29823,0.81076 4.0732,1.47411 6.16661,1.47411 3.9278,0 6.57148,3.24246 3.95974,4.85661 -0.89807,0.55504 -0.524,1.39031 1.06785,2.38444 2.02693,1.26583 2.45014,1.20444 2.45014,-0.35546 0,-2.13135 1.95484,-2.52894 3.125,-0.63559 0.4249,0.6875 4.09455,1.25 8.15479,1.25 6.07233,0 7.61675,0.43816 8.70378,2.4693 0.9846,1.83975 2.50959,2.42609 5.98148,2.2998 2.56298,-0.0932 7.7109,1.08047 11.43983,2.6082 4.79606,1.96494 6.33276,2.23896 5.2518,0.93649 -1.62706,-1.96048 0.085,-4.08451 2.22581,-2.76141 2.19458,1.35632 45.49735,8.40746 61.68001,10.04356 6.36159,0.64317 8.4375,1.32278 8.4375,2.76229 0,1.3133 -0.6828,1.64024 -2.1875,1.04744 -1.20312,-0.474 -8.9375,-1.65239 -17.1875,-2.61866 -8.25,-0.96628 -16.40625,-2.00699 -18.125,-2.31269 -10.63534,-1.89166 -12.69306,-2.04797 -11.99025,-0.91081 0.4157,0.67263 0.0543,1.45683 -0.8033,1.74267 -1.14065,0.38022 -0.99991,1.07893 0.52434,2.60318 2.45361,2.45362 6.20015,1.51661 5.1262,-1.28206 -0.5467,-1.42467 -0.12591,-1.73661 1.64142,-1.21681 1.30713,0.38444 8.00159,1.33265 14.87659,2.10713 6.875,0.77448 17.28125,2.16819 23.125,3.09712 5.84375,0.92893 16.64448,1.9813 24.0016,2.33859 12.24347,0.59459 13.43886,0.45347 14.11151,-1.66588 0.4042,-1.27352 2.82223,-3.89458 5.3734,-5.82458 2.55116,-1.93 6.03899,-4.79244 7.75071,-6.36098 1.71173,-1.56854 3.96173,-2.83303 5,-2.80998 1.09527,0.0243 -0.12237,1.68347 -2.90054,3.95213 -2.63358,2.15062 -6.85233,5.91492 -9.375,8.36512 l -4.58668,4.4549 3.4375,1.20927 c 4.91992,1.73078 4.24711,3.68516 -0.97681,2.83743 -3.98323,-0.64639 -4.96692,-0.16374 -10.07288,4.94222 -3.9609,3.9609 -6.29298,5.41306 -7.77318,4.84025 -6.24398,-2.41627 -8.85812,-2.16394 -11.93088,1.15163 -2.18979,2.36282 -3.35683,2.88863 -4.02213,1.81215 -0.56923,-0.92105 0.45582,-2.71473 2.61067,-4.56826 3.09228,-2.65987 4.32942,-2.9481 9.63373,-2.24445 5.48022,0.72697 6.44587,0.46751 9.7036,-2.60728 1.98978,-1.87802 3.33654,-3.86963 2.9928,-4.4258 C 512.07774,45.80549 506.25,46.01234 506.25,47.5 c 0,0.6875 -0.84375,1.25 -1.875,1.25 -1.03125,0 -1.875,0.84375 -1.875,1.875 0,1.03125 -0.90393,1.875 -2.00874,1.875 -1.25251,0 -1.74365,-0.6908 -1.30458,-1.83497 1.15271,-3.00393 -0.70194,-3.11422 -9.86125,-0.58643 -4.78524,1.32064 -9.96605,2.74794 -11.51293,3.17179 -3.05936,0.83827 -3.69594,-0.61695 -1.3125,-3.00039 2.8996,-2.8996 -1.1075,-1.5126 -6.11976,2.11825 -9.0643,6.56615 -12.46324,7.71169 -25.112,8.46342 C 430.94434,61.68296 422.5,59.99319 422.5,56.27559 c 0,-1.30792 -0.51174,-2.69432 -1.1372,-3.08087 -1.74539,-1.07871 -5.1128,0.61001 -5.1128,2.56402 0,0.95769 -0.5625,1.74126 -1.25,1.74126 -0.6875,0 -1.25,-0.5625 -1.25,-1.25 0,-3.18877 -6.52797,-0.96642 -11.14941,3.79564 -2.90978,2.99833 -5.22948,4.50708 -5.71695,3.71834 -0.45118,-0.73001 1.19044,-3.33805 3.64802,-5.79564 C 402.98925,55.51075 405,53.37242 405,53.21649 c 0,-0.15593 -1.6803,-0.0369 -3.734,0.26453 -2.0537,0.30142 -5.14745,0.19328 -6.875,-0.24031 -4.24702,-1.06593 -4.12815,-4.49071 0.15588,-4.49071 3.22273,0 3.18758,-0.0862 -1.5625,-3.83216 -2.67266,-2.10769 -6.94477,-6.18581 -9.49358,-9.0625 -4.8142,-5.43349 -6.12381,-4.65564 -2.84306,1.68863 1.04375,2.0184 3.31825,4.02634 5.05444,4.4621 1.73618,0.43575 2.95642,1.39312 2.71163,2.12748 -0.82577,2.47734 -3.08045,2.23511 -6.69395,-0.71917 C 379.74269,41.7979 374.46875,39.46794 370,38.23669 c -10.90773,-3.00535 -13.56299,-4.09975 -19.02883,-7.84292 -2.5596,-1.7529 -5.4947,-2.86441 -6.52246,-2.47002 -1.02776,0.39439 -2.20111,0.17913 -2.60745,-0.47834 C 341.43491,26.78793 341.73135,26.25 342.5,26.25 c 0.76865,0 1.0499,-0.5625 0.625,-1.25 -0.4249,-0.6875 -2.84872,-1.2521 -5.38627,-1.25467 -8.85822,-0.009 -15.2631,-6.59113 -11.76518,-12.09082 z m 5.16897,6.40406 c 1.64347,1.01573 19.38239,4.29048 20.00332,3.69279 1.15072,-1.1077 -1.2532,-1.98157 -7.95173,-2.89058 -3.87116,-0.52533 -7.69224,-1.60891 -8.49128,-2.40796 C 333.90378,15.65377 332.51875,15 331.625,15 c -1.86442,0 -2.18128,2.00866 -0.48248,3.05857 z m 26.47364,12.6265 c 2.12639,1.0996 4.09293,1.77251 4.37008,1.49536 1.01901,-1.01901 -5.59586,-6.16473 -6.8937,-5.36262 -1.99881,1.23534 -1.70995,1.67799 2.52362,3.86726 z m 2.65468,-7.9559 c 0.89695,-0.89696 0.97075,-1.47917 0.1875,-1.47917 -1.66848,0 -3.14674,1.47826 -2.3125,2.3125 0.3552,0.35521 1.31145,-0.0198 2.125,-0.83333 z m 3.79166,6.8875 c 1.54688,1.40386 4.5,3.60157 6.5625,4.88382 3.33904,2.07586 3.56171,2.09365 2.03188,0.16233 -1.04285,-1.31651 -1.43409,-3.58927 -0.99543,-5.78255 0.6609,-3.30454 0.38027,-3.66424 -3.28187,-4.20668 -7.29321,-1.08026 -8.91187,0.77312 -4.31708,4.94308 z M 377.75,26.5 c 1.16666,-1.16667 0.83334,-1.5 -1.5,-1.5 -2.33334,0 -2.66666,0.33333 -1.5,1.5 1.16666,1.16667 1.83334,1.16667 3,0 z m 7.32377,-0.25 c 0.72808,0 0.97613,-0.5625 0.55123,-1.25 -0.4249,-0.6875 -1.0206,-1.25 -1.32377,-1.25 -0.30318,0 -0.55123,0.5625 -0.55123,1.25 0,0.6875 0.5957,1.25 1.32377,1.25 z m 2.06317,8.5209 c 1.86281,2.53226 3.55031,4.83848 3.75,5.12493 0.19968,0.28646 0.72447,0.15943 1.16618,-0.28229 0.44173,-0.44172 0.0719,-1.68431 -0.82202,-2.76131 -1.1491,-1.38458 -1.23536,-2.34797 -0.2945,-3.28883 0.94088,-0.94087 1.95609,-0.37612 3.46579,1.92797 1.18042,1.80155 3.32845,3.27091 4.80387,3.28608 1.4678,0.0151 5.12079,1.1401 8.11774,2.5 2.99696,1.3599 6.54578,2.47255 7.88628,2.47255 1.3405,0 2.11251,0.52546 1.71558,1.1677 -0.39691,0.64223 -2.76756,0.83569 -5.26811,0.4299 -3.52584,-0.57216 -4.32216,-0.3749 -3.54739,0.87872 0.74745,1.2094 3.47224,1.42579 10.81935,0.85922 9.28965,-0.71637 13.14293,0.46232 7.00779,2.14364 -2.20895,0.60536 -2.43811,1.01193 -1.06785,1.89463 0.95955,0.61813 1.41731,1.9769 1.01722,3.01949 -1.12991,2.9445 9.76654,5.06915 20.73622,4.04325 C 458.21114,57.10281 460.65324,55 450.32378,55 c -4.22193,0 -8.02388,0.5625 -8.44878,1.25 -1.01735,1.64611 -3.125,1.60541 -3.125,-0.0603 0,-0.72069 1.82813,-2.1321 4.0625,-3.13648 l 4.0625,-1.82614 -4.49518,0.73952 c -5.60343,0.92183 -9.20339,-2.0111 -8.06003,-6.56661 0.64917,-2.58651 0.028,-3.31866 -4.59709,-5.41785 -5.65764,-2.56787 -14.17826,-3.385 -12.8477,-1.2321 0.4249,0.6875 -0.0387,1.25 -1.03044,1.25 -0.99163,0 -2.07725,-1.04878 -2.41245,-2.33062 -0.40045,-1.5313 -2.25968,-2.64021 -5.42102,-3.23328 -2.64636,-0.49646 -7.07833,-1.63528 -9.84883,-2.53071 C 392.34725,30.02601 383.75,28.6132 383.75,29.53703 c 0,0.3464 1.52412,2.70166 3.38694,5.23391 z m 12.71001,10.79882 c 0.97852,-0.97852 -2.67038,-4.31948 -4.6875,-4.29192 -1.51658,0.0207 -1.24373,0.63534 1.07187,2.4145 1.70848,1.3127 3.33552,2.15753 3.61563,1.87742 z m 6.06451,3.93549 c 0.41536,-0.41537 -0.32292,-0.7108 -1.64062,-0.65653 -1.45619,0.06 -1.75238,0.35618 -0.75522,0.75521 0.90235,0.36109 1.98048,0.31668 2.39584,-0.0987 z m 38.15104,-0.98268 c 2.23438,-0.71662 9.96875,-1.48863 17.1875,-1.71557 7.21875,-0.22694 14.10938,-0.44509 15.3125,-0.48479 1.20313,-0.0397 2.1875,-0.54763 2.1875,-1.12875 0,-1.55422 -25.19384,-4.39395 -26.11845,-2.94394 -0.4161,0.65254 -2.59046,1.58432 -4.83191,2.07062 C 444.3262,45.0737 440,47.8786 440,49.37703 c 0,0.24665 1.82813,-0.13787 4.0625,-0.8545 z m 5.3125,3.1795 c 1.03125,0.39573 1.875,0.17466 1.875,-0.49126 C 451.25,50.54485 450.40625,50 449.375,50 c -1.03125,0 -1.875,0.22107 -1.875,0.49126 0,0.2702 0.84375,0.81505 1.875,1.21077 z m 7.14867,1.10477 c 4.62369,0.67862 12.22633,-1.10326 12.22633,-2.86555 0,-1.35524 -6.53266,-1.57222 -12.34375,-0.41 -5.04639,1.00928 -4.99202,2.52564 0.11738,3.27555 z M 341.25,213.75 c 0.97984,-1.5162 1.21538,-1.3368 1.23086,0.9375 0.01,1.54687 -0.54336,2.8125 -1.23086,2.8125 -1.56615,0 -1.56615,-1.32655 0,-3.75 z M 374.82723,58.73047 c 4.68435,-4.68435 6.2781,-4.68908 8.03902,-0.0238 l 1.3991,3.70663 3.37039,-4.01913 c 1.85372,-2.21052 3.80249,-3.59504 4.33058,-3.0767 0.52812,0.51834 -0.22329,2.20584 -1.6698,3.75 -1.4465,1.54416 -3.21603,4.35445 -3.93232,6.24507 -1.51964,4.01111 -3.79519,4.54173 -4.02045,0.9375 -0.26733,-4.27724 -0.4302,-4.83645 -1.81079,-6.21704 -0.95605,-0.95604 -1.9113,-0.70438 -3.32131,0.875 -2.71944,3.0461 -3.17824,7.04622 -1.09595,9.55522 2.16791,2.61218 0.74976,4.28392 -2.11315,2.49101 -1.21695,-0.76212 -2.2941,-3.29282 -2.51668,-5.91282 -0.31501,-3.70811 0.32134,-5.29088 3.34135,-8.3109 z m 13.72028,165.1034 c 4.22737,-1.75103 18.62614,-2.16022 20.21198,-0.57438 0.65401,0.65401 -2.09074,1.11862 -6.63449,1.12304 -9.52104,0.009 -14.625,1.32362 -14.625,3.76628 0,1.01815 -0.5625,1.85119 -1.25,1.85119 -2.84298,0 -1.06431,-4.77361 2.29751,-6.16613 z M 396.875,69.46547 c 4.46581,-1.85334 16.19311,-7.15282 18.42054,-8.3241 3.6671,-1.92833 7.38622,-1.38335 7.13908,1.04613 -0.50327,4.94766 -0.028,5.53164 3.81538,4.6875 4.87764,-1.07131 4.77215,0.0322 -0.25137,2.62999 -2.20077,1.13806 -4.84753,2.91534 -5.8817,3.94951 -2.36767,2.36766 -3.56712,-0.17844 -1.34527,-2.85561 C 420.94518,67.97997 419.33458,65 415.7456,65 c -4.17826,0 -9.80384,2.19666 -11.57235,4.51874 -0.94386,1.23931 -2.91175,1.74491 -5.625,1.44521 -3.55231,-0.39238 -3.80128,-0.61533 -1.67325,-1.49848 z m 28.96336,151.73508 c 10.45723,-2.1783 35.41164,-0.1615 35.41164,2.86195 0,0.74764 -1.63266,0.91552 -4.0625,0.41775 -11.11351,-2.27675 -22.31726,-3.02202 -29.71357,-1.97656 -10.18823,1.4401 -11.14505,0.67775 -1.63557,-1.30314 z m 15.8047,-153.48266 c 3.00129,-2.81956 5.85694,-3.57633 5.85694,-1.55212 0,0.64117 -1.07304,1.50633 -2.38452,1.92258 -1.31149,0.41625 -2.70009,1.57916 -3.08577,2.58423 -0.74168,1.9328 -3.27971,2.54826 -3.27971,0.79531 0,-0.56766 1.30188,-2.25516 2.89306,-3.75 z M 443.75,176.25 c 0.6875,0 1.25,0.5625 1.25,1.25 0,0.6875 -0.5625,1.25 -1.25,1.25 -0.6875,0 -1.25,-0.5625 -1.25,-1.25 0,-0.6875 0.5625,-1.25 1.25,-1.25 z m 2.21698,-9.04731 c 3.17027,-2.76395 7.30539,-4.7096 9.88835,-4.65264 1.60716,0.0354 1.17506,0.62711 -1.48033,2.02699 -2.0625,1.08732 -4.95629,3.07586 -6.43062,4.41896 -1.47436,1.34311 -3.00797,1.91239 -3.40803,1.26506 -0.40008,-0.64732 0.24371,-2.02359 1.43063,-3.05837 z m 2.26743,-38.94671 c 5.38625,-2.0669 14.26559,1.37273 14.26559,5.52612 0,3.30476 -1.01081,3.10912 -4.07714,-0.78908 -2.11537,-2.68926 -3.28665,-3.13938 -6.7195,-2.58231 -4.35535,0.70678 -6.86446,-0.85175 -3.46895,-2.15473 z m 4.09701,5.49402 c 1.61508,0 7.66858,5.00531 7.66858,6.34072 0,1.99914 -2.24902,1.2725 -5.5606,-1.79656 -3.29344,-3.05226 -3.98551,-4.54416 -2.10798,-4.54416 z M 454,62.75 c 0.825,-0.825 2.57144,-1.5 3.88096,-1.5 1.30954,0 5.18075,-1.40625 8.6027,-3.125 C 473.62307,54.53908 475,54.31549 475,56.74209 c 0,1.41062 0.95134,1.50061 5,0.47295 2.75,-0.69802 5,-1.76321 5,-2.36709 0,-0.60387 0.84375,-1.09795 1.875,-1.09795 1.03125,0 1.875,0.49363 1.875,1.09694 0,2.2583 -3.98421,4.25515 -11.56123,5.79438 -4.29757,0.87302 -11.14307,2.5097 -15.21221,3.63706 C 454.63991,66.311 451.1145,65.6355 454,62.75 Z m 18.60891,10.30769 c 0.74742,-0.46192 1.90958,-0.2892 2.58261,0.38383 0.79825,0.79826 0.32582,1.4585 -1.35891,1.89906 -2.71411,0.70976 -3.54819,-0.84628 -1.2237,-2.28289 z M 517.37439,183.75 c 1.8462,0 13.36618,8.13523 21.33592,15.0671 6.38514,5.55362 7.94374,6.35447 10.93084,5.61659 2.32256,-0.57373 3.06719,-0.44393 2.23385,0.3894 -3.4446,3.4446 -7.46539,2.71141 -12.96671,-2.36449 -9.19516,-8.48408 -15.70059,-13.50141 -19.2609,-14.85504 -3.18958,-1.21267 -4.74729,-3.85356 -2.273,-3.85356 z m 1.29582,-26.82569 c 1.922,-1.18786 14.17864,-3.0021 12.9675,-1.91947 -1.34596,1.20315 -13.0384,4.01114 -13.74792,3.30161 -0.30586,-0.30586 0.0454,-0.92783 0.78042,-1.38214 z M 533.9873,33.89832 c 2.19301,-2.14407 4.86489,-3.89344 5.9375,-3.88748 1.25934,0.007 0.28965,1.58473 -2.7373,4.45373 -2.57812,2.44358 -4.6875,5.2512 -4.6875,6.23915 0,0.98796 -0.5625,1.79628 -1.25,1.79628 -2.62982,0 -1.08029,-4.86928 2.7373,-8.60168 z M 537.57378,61.25 c 1.41557,0 2.22612,0.5625 1.80122,1.25 -0.4249,0.6875 -1.5831,1.25 -2.57377,1.25 C 535.81055,63.75 535,63.1875 535,62.5 c 0,-0.6875 1.1582,-1.25 2.57378,-1.25 z m 2.34666,-36.82583 c 8.36762,-5.17147 12.65782,-4.63314 11.70767,1.46907 -0.47527,3.05238 -0.3366,3.23151 1.12449,1.45249 2.81615,-3.42895 10.18718,-7.33614 13.84913,-7.34106 1.96073,-0.003 3.79601,-0.8367 4.20896,-1.9128 C 572.10471,14.71968 581.72074,10 587.29733,10 592.35286,10 597.5,13.15306 597.5,16.25 c 0,1.99949 -1.30367,1.46068 -3.73721,-1.54461 -4.53568,-5.60133 -16.53399,-2.54582 -21.06998,5.36571 -1.86082,3.24561 -2.53827,3.5315 -6.76767,2.85603 -4.24058,-0.67725 -5.126,-0.29877 -9.06049,3.873 -2.39835,2.54299 -4.70376,5.99077 -5.12315,7.66174 -1.12294,4.47415 -3.21511,3.69735 -2.75896,-1.02437 0.35775,-3.7032 0.0885,-4.05814 -3.04504,-4.01322 -4.29325,0.0615 -4.48985,-1.61253 -0.3125,-2.66097 1.71875,-0.43138 3.125,-1.1921 3.125,-1.69049 0,-2.15206 -1.81746,-2.34357 -5.27464,-0.5558 -3.47055,1.79469 -6.48176,1.71604 -3.55492,-0.0928 z m 3.95954,160.59497 c 5.98928,0.0658 9.6018,10.31981 5.52386,15.67945 -1.68709,2.21732 -1.78119,1.92224 -1.09199,-3.42434 0.67956,-5.27194 0.41134,-6.16846 -2.71136,-9.0625 -2.05877,-1.90799 -2.75718,-3.20398 -1.72051,-3.19261 z m 12.1306,-32.53037 c 3.08357,-3.80376 5.03745,-2.53263 2.24192,1.45853 -2.89123,4.1278 -2.50201,13.5305 1.01375,24.4902 0.52291,1.63007 0.38204,2.8125 -0.33507,2.8125 -1.80944,0 -3.69913,-6.89297 -4.62932,-16.88623 -0.71292,-7.65906 -0.49796,-9.15293 1.70872,-11.875 z m 2.25359,33.01667 c 1.44125,0.55306 1.80798,0.23555 1.28924,-1.11627 -1.37256,-3.57681 1.08024,-1.72258 5.2138,3.94147 4.81004,6.591 6.84844,11.29583 5.30679,12.24862 -0.59426,0.36728 -1.63916,-0.93489 -2.322,-2.8937 -1.47959,-4.24432 -7.12815,-10.18556 -9.68381,-10.18556 -1,0 -1.81819,-0.62268 -1.81819,-1.38374 0,-0.76105 0.90637,-1.03592 2.01417,-0.61082 z m 10.2555,17.06012 c 2.61863,-0.10437 6.40578,2.30734 14.78363,9.41449 9.42749,7.99759 14.0231,9.20357 23.26846,6.10616 10.67865,-3.57759 17.51793,-2.86531 29.22444,3.0436 5.59415,2.82368 13.73605,6.27278 18.0931,7.66469 19.73159,6.30347 50.93108,25.33022 52.18135,31.82236 0.318,1.65128 -1.45202,0.5116 -5.61564,-3.61575 -3.344,-3.31487 -9.00006,-7.90556 -12.569,-10.20154 -5.79837,-3.73018 -31.26052,-15.54957 -33.498,-15.54957 -1.18912,0 -7.87882,-2.90533 -20.34388,-8.83531 -11.63927,-5.53713 -15.00498,-5.87215 -26.54811,-2.64254 -12.21598,3.41787 -14.78416,2.85297 -25.27937,-5.56039 -5.03371,-4.03522 -10.54484,-8.29164 -12.24693,-9.4587 -1.7021,-1.16706 -2.35462,-2.15143 -1.45005,-2.1875 z m 11.31674,-67.89247 c 0.49869,-3.27356 1.94436,-6.92981 3.21261,-8.12501 2.20018,-2.07345 2.26547,-2.05859 1.42383,0.32413 -2.42129,6.85479 -3.47472,15.81869 -2.84206,24.18385 0.45725,6.04601 0.27578,8.85051 -0.52113,8.0536 -1.61804,-1.61804 -2.4161,-16.93454 -1.27325,-24.43657 z m 9.209,-29.83119 c 3.56369,-1.90723 38.66921,-2.35735 38.04246,-0.48778 -0.26042,0.77684 -6.94456,1.27088 -17.19446,1.27088 -11.12522,0 -17.68726,0.52584 -19.49874,1.5625 -3.2813,1.87781 -4.14467,1.95207 -4.14467,0.35648 0,-0.66331 1.25794,-1.87925 2.79541,-2.70208 z m 2.28965,81.4081 c 0.50365,-1.71875 0.97182,-4.67188 1.04034,-6.5625 0.10437,-2.87846 3.83013,-8.4375 5.65499,-8.4375 0.29172,0 -0.55203,3.0797 -1.875,6.84377 -1.32296,3.76408 -2.40539,8.54533 -2.40539,10.625 0,2.07968 -0.50232,3.78123 -1.11626,3.78123 -1.72653,0 -2.30888,-2.80265 -1.29868,-6.25 z m 3.2196,-25 c 2.18677,-14.35197 3.63836,-19.84319 6.0953,-23.05781 2.37697,-3.10999 4.38545,-1.22684 3.5001,3.28166 -0.4081,2.07824 -1.27458,3.1121 -2.28371,2.72486 -1.70715,-0.6551 -4.63151,9.96229 -6.33184,22.98879 -0.47112,3.60938 -1.34662,6.5625 -1.94555,6.5625 -0.59892,0 -1.03377,-0.14063 -0.96631,-0.3125 0.0675,-0.17188 0.93686,-5.65625 1.93201,-12.1875 z m 11.7198,-45.50204 c 10.50629,-5.45813 12.13927,-5.94883 17.4517,-5.24411 5.73475,0.76074 5.97307,0.65416 11.07737,-4.95447 8.93597,-9.81887 16.09202,-13.80174 27.9738,-15.56945 18.53412,-2.75742 34.29945,-0.2283 27.92126,4.47922 -1.33453,0.98497 -3.30328,1.77296 -4.375,1.7511 -1.57714,-0.0322 -1.49632,-0.38209 0.42393,-1.8356 2.27651,-1.72317 2.23528,-1.84801 -1.01887,-3.08524 -4.31291,-1.63977 -11.67092,-1.72587 -10.04115,-0.1175 0.65313,0.64454 2.77627,1.9917 4.71809,2.99369 1.94183,1.00199 3.06683,2.1036 2.5,2.44802 C 681.13431,97.68991 672.5,93.57709 672.5,91.65707 c 0,-1.22576 -0.78164,-1.57746 -2.37905,-1.07046 -1.30849,0.4153 -5.58384,1.27668 -9.5008,1.91418 -9.28587,1.51131 -16.33315,5.76071 -23.8769,14.3974 l -6.11825,7.00466 -6.44144,-0.77625 c -5.83892,-0.70363 -7.39822,-0.29518 -16.6704,4.36678 -5.62592,2.82866 -10.81409,4.94798 -11.52926,4.70959 -0.71516,-0.23839 3.9156,-3.14314 10.29056,-6.45501 z m -5.1967,-98.71708 c 3.33679,-3.01976 12.67224,-5.63777 12.67224,-3.55377 0,0.5374 -2.60591,1.74654 -5.79091,2.68696 -3.65354,1.07876 -6.01418,2.56357 -6.39579,4.02289 -0.33269,1.27217 -1.10177,2.31304 -1.70909,2.31304 -1.92663,0 -1.19217,-3.28292 1.22355,-5.46912 z m 7.36754,185.14166 c 4.67121,-4.56133 7.8047,-5.93543 7.8047,-3.42254 0,0.6875 -0.61807,1.25 -1.37349,1.25 -0.75541,0 -2.99644,1.73738 -4.98003,3.86082 -1.98361,2.12345 -4.19824,3.66359 -4.92142,3.42253 -0.72317,-0.24105 0.83843,-2.54092 3.47024,-5.11081 z m 0.43133,-170.77049 c 3.93113,-4.21958 12.12427,-7.5928 18.51921,-7.6246 6.97751,-0.0347 5.74395,1.51046 -1.43499,1.79745 -5.42662,0.21695 -11.23716,3.12722 -14.80354,7.41452 -1.08223,1.301 -2.65367,2.13679 -3.4921,1.85732 -1.02432,-0.34144 -0.62692,-1.47146 1.21142,-3.44469 z m 1.88398,106.13301 c 3.71419,-6.75217 7.80258,-11.28506 10.17844,-11.28506 1.04543,0 0.17783,1.57543 -2.14899,3.90225 -2.14623,2.14623 -5.29272,6.64622 -6.99221,10 -1.69947,3.35376 -3.36174,6.09775 -3.69391,6.09775 -1.30739,0 -0.27591,-3.38368 2.65667,-8.71494 z m 4.28905,1.34131 c 1.37213,-3.02423 2.77284,-5.22053 3.11272,-4.88066 0.66512,0.66512 -4.15417,12.25429 -5.09587,12.25429 -1.02831,0 -0.54208,-1.80781 1.98315,-7.37362 z m 0.56083,37.85957 c 1.75865,-8.08454 5.04831,-15.39446 10.62557,-23.61094 1.86668,-2.75 4.05519,-6.25759 4.86338,-7.79465 1.39585,-2.65474 1.30717,-2.73296 -1.77139,-1.5625 -1.78244,0.67769 -4.18855,1.21426 -5.34692,1.1924 -1.83563,-0.0346 -1.79449,-0.27548 0.32028,-1.875 1.33453,-1.00939 3.32497,-1.83525 4.4232,-1.83525 1.09823,0 4.16766,-1.10678 6.82097,-2.45951 6.95355,-3.54511 7.63786,-1.97327 1.5773,3.623 -5.46592,5.04716 -13.93189,18.21425 -17.45708,27.15088 -2.81434,7.13457 -4.08046,17.3773 -2.2852,18.48683 0.7756,0.47935 1.06968,1.42249 0.6535,2.09587 -1.06024,1.71552 -4.30934,-1.18645 -4.18472,-3.73762 0.0546,-1.11895 0.84716,-5.47203 1.76111,-9.67351 z m 3.49297,-124.01058 c 1.98257,-1.64538 8.39654,-4.14743 8.39654,-3.27544 0,2.44348 -4.4967,6.80008 -7.01876,6.80008 -3.28294,0 -3.85655,-1.46744 -1.37778,-3.52464 z m 12.52535,-1.11397 c 4.0345,-4.05209 13.51741,-9.0333 17.29343,-9.08394 1.12597,-0.0151 4.90929,1.9413 8.40736,4.34755 7.3736,5.07215 10.29601,5.33095 27.0454,2.3951 6.94571,-1.21745 13.8804,-1.66877 18.125,-1.17962 8.27045,0.9531 26.66094,6.08364 36.55048,10.19677 5.59849,2.32846 9.30718,2.95968 16.875,2.87213 6.31135,-0.073 11.33692,0.58404 14.38702,1.88098 4.33431,1.84301 6.35122,4.45964 3.4375,4.45964 -0.6875,0 -1.25,-0.44583 -1.25,-0.99074 0,-1.51664 -10.58576,-4.00926 -17.02668,-4.00926 -4.58938,0 -5.59649,0.37607 -5.02129,1.875 0.86046,2.24234 0.56601,2.28526 -3.37116,0.49136 -2.30873,-1.05193 -5.0948,-0.92779 -11.62132,0.5178 -8.70533,1.92819 -14.85454,1.821 -26.01843,-0.45354 -8.32938,-1.69703 -15.71813,-0.39581 -22.62512,3.98447 -7.49613,4.7539 -7.3264,8.08312 0.38373,7.52643 2.91515,-0.21048 5.30027,0.14547 5.30027,0.791 0,1.22114 -21.03775,3.3964 -22.14446,2.28969 -0.34633,-0.34633 1.12151,-1.08363 3.26185,-1.63845 2.68194,-0.69521 4.57009,-2.36863 6.07457,-5.38376 3.29036,-6.59416 9.98957,-9.4319 21.55804,-9.13182 28.64028,0.74291 35.91565,0.65194 38.69433,-0.48382 2.8195,-1.15244 2.21151,-1.58536 -7.46943,-5.31873 -19.52071,-7.52798 -36.56349,-9.40668 -51.8499,-5.71563 -12.18376,2.94189 -16.67496,2.48586 -24.375,-2.475 -3.73489,-2.40625 -7.65341,-4.3729 -8.70785,-4.37033 -2.77444,0.007 -10.14774,4.7262 -13.90365,8.89932 -3.03456,3.37165 -6.22133,4.76687 -6.07219,2.65851 0.0365,-0.51562 1.8646,-2.74362 4.0625,-4.95111 z M 631.25,164.375 c 0.6875,0.4249 1.25,3.8331 1.25,7.57377 0,3.74068 0.5625,6.80123 1.25,6.80123 0.6875,0 1.25,0.9927 1.25,2.20601 0,1.2133 1.125,4.30502 2.5,6.87047 3.00874,5.61365 3.09144,6.41794 0.56007,5.44657 -2.12618,-0.81589 -1.52831,0.78171 1.69879,4.53945 2.66835,3.1071 -0.3519,2.78813 -3.27131,-0.34549 C 632.527,193.21586 627.60583,162.12278 631.25,164.375 Z m 3.8548,48.98964 c 4.16705,2.0788 9.18843,1.38703 16.38968,-2.25789 2.54071,-1.28599 4.91916,-1.85325 5.28545,-1.26058 0.78706,1.27349 -12.04715,6.41144 -15.95365,6.38677 -4.33825,-0.0274 -8.1052,-1.35385 -8.77083,-3.08843 -0.47067,-1.22656 0.2543,-1.17422 3.04935,0.22013 z m 6.56144,-94.36862 c 11.36726,-9.03315 17.87505,-13.10726 19.87306,-12.44125 0.86711,0.28903 -0.0854,1.5021 -2.18984,2.78884 -8.24752,5.04288 -15.22903,10.16381 -19.97446,14.65126 -2.75,2.6005 -5.42187,4.73425 -5.9375,4.74166 -2.73093,0.0392 0.0206,-3.21787 8.22874,-9.74051 z M 637.77561,80.3125 c 0.74604,-1.54687 1.83297,-2.8125 2.4154,-2.8125 0.58245,0 1.05899,-1.46885 1.05899,-3.26411 0,-3.09201 0.24595,-3.21798 4.66449,-2.38905 2.56547,0.48128 5.67497,1.41585 6.91001,2.07683 3.66359,1.96069 1.11821,3.82863 -4.03155,2.95859 -4.39809,-0.74306 -4.86964,-0.50748 -7.32956,3.6618 -3.73888,6.33691 -6.76402,6.14696 -3.68778,-0.23156 z m 8.16189,-50.03691 c 3.26563,-0.79587 9.59375,-2.04567 14.0625,-2.77734 4.46875,-0.73166 9.67188,-1.63777 11.5625,-2.01359 1.89063,-0.37581 3.4375,-0.15378 3.4375,0.4934 0,0.64719 -3.75724,1.56164 -8.34941,2.03213 -4.59219,0.47048 -12.31525,1.95441 -17.16238,3.29761 C 639.26295,34.14137 640,34.0304 640,32.73631 c 0,-0.55753 2.67188,-1.66485 5.9375,-2.46072 z M 641.19936,150.625 c 2.90508,-6.97739 13.88922,-13.22336 22.82299,-12.97797 l 5.35265,0.14702 -5.97171,1.00425 C 652.13635,140.69302 642.5,148.42981 642.5,155.58102 c 0,1.74294 -0.5625,3.16898 -1.25,3.16898 -1.48655,0 -1.51526,-4.6073 -0.0506,-8.125 z m 3.20243,11.68309 c 1.756,-3.23279 16.21356,-12.32309 19.55131,-12.29303 0.91955,0.009 -0.85935,1.45206 -3.9531,3.2084 -6.49261,3.68589 -15.18644,11.7136 -14.2778,13.18381 0.95275,1.54158 1.33996,16.09273 0.42824,16.09273 -0.76652,0 -3.70574,-12.67076 -3.60039,-15.52098 0.0275,-0.74471 0.8608,-2.84663 1.85174,-4.67093 z m 5.87262,-12.62059 c 1.49434,-2.57813 3.41712,-4.6875 4.27284,-4.6875 0.95485,0 0.29133,1.93141 -1.71774,5 -1.80047,2.75 -3.73617,5 -4.30155,5 -1.35538,0 -1.38498,0.09 1.74645,-5.3125 z m 5.62984,43.125 c 0.85348,-6.87739 2.98986,-4.56269 2.5918,2.80812 -0.24099,4.46224 -0.91876,6.87217 -1.93355,6.875 -1.53936,0.004 -1.653,-1.66734 -0.65825,-9.68312 z m 17.435,-0.083 c 2.30418,0.27293 4.09155,1.75165 5.76625,4.77052 3.02643,5.45555 4.45418,6.41038 8.3945,5.61389 1.71875,-0.34742 4.64308,0.16778 6.49851,1.14489 3.82385,2.01372 5.12193,1.10701 6.46384,-4.51506 0.92946,-3.89409 8.37813,-10.11067 10.93652,-9.1275 0.94937,0.36483 2.85113,2.75113 4.22613,5.3029 1.89005,3.50762 3.70007,4.9746 7.41876,6.01275 3.7707,1.05266 4.40054,1.57203 2.69846,2.22518 -3.39987,1.30465 -10.31173,-2.59997 -12.05579,-6.81051 -1.22977,-2.96892 -2.20028,-3.65104 -4.76603,-3.3498 -2.4846,0.29171 -3.97144,1.8822 -6.49791,6.9509 -1.80186,3.61495 -3.59427,6.89082 -3.98314,7.27968 -0.38886,0.38886 -2.41886,-0.1782 -4.51111,-1.26014 -2.09225,-1.08198 -6.02646,-1.9672 -8.74269,-1.9672 -4.34531,0 -5.2576,-0.54065 -7.59387,-4.50034 -1.4604,-2.47519 -3.76597,-4.79079 -5.12348,-5.14578 -3.68365,-0.9633 -2.9809,-3.08067 0.87105,-2.62441 z M 680.23112,25.12795 C 684.47096,24.96631 690,27.02372 690,28.76304 c 0,0.87808 -0.94854,0.81531 -2.8125,-0.18612 -1.54688,-0.83107 -4.5,-1.91829 -6.5625,-2.41603 -3.73224,-0.9007 -3.73411,-0.90559 -0.39388,-1.03294 z m 42.551,72.05955 c 2.20338,-1.89062 4.44753,-3.4375 4.98701,-3.4375 2.05798,0 0.85103,2.52744 -2.14413,4.48995 -4.0476,2.65208 -3.9542,3.99647 0.3125,4.49828 l 3.4375,0.40429 -2.8125,1.59772 c -2.06643,1.17389 -3.47568,1.2428 -5.3125,0.25976 -3.49391,-1.86988 -3.10958,-3.82965 1.53212,-7.8125 z m 8.65532,3.4375 c 2.77047,-7.52037 2.73918,-6.875 0.33339,-6.875 -1.08854,0 -1.73295,-0.70312 -1.43201,-1.5625 1.48187,-4.23177 61.42209,4.44792 70.8179,10.25485 3.33211,2.05936 -0.21648,3.80835 -7.793,3.84091 l -7.73872,0.0333 3.4375,2.13126 c 6.26126,3.882 4.46747,4.81503 -5.3125,2.76326 -3.09375,-0.64905 -9,-1.45381 -13.125,-1.78835 -6.70463,-0.54376 -7.06918,-0.45994 -3.4375,0.79035 2.23437,0.76924 4.0625,1.91294 4.0625,2.54156 0,0.62862 0.54326,0.80719 1.20724,0.39682 1.61601,-0.99874 15.04276,2.96185 15.04276,4.43728 0,0.63871 -1.00682,1.1613 -2.23738,1.1613 -3.50456,0 -16.81961,-3.69866 -18.58272,-5.16192 -0.87359,-0.72501 -6.24957,-1.59623 -11.94663,-1.93604 -5.69705,-0.3398 -12.15885,-1.16631 -14.35956,-1.83667 -2.71112,-0.82584 -4.81021,-0.78593 -6.51002,0.12378 -4.11284,2.20113 -5.17138,-1.86254 -2.42625,-9.31415 z m 5.08084,6.36828 c 18.59694,1.87947 25.68834,2.2933 25.17912,1.46937 -0.32722,-0.52946 -2.06869,-0.96265 -3.86993,-0.96265 -3.98655,0 -11.57747,-2.62338 -11.57747,-4.00111 0,-1.39016 1.36912,-1.28683 14.84662,1.12049 8.03797,1.43572 12.00783,1.69226 12.30682,0.79529 0.28155,-0.84465 3.59249,-1.09862 9.14396,-0.70142 5.10542,0.36529 8.7026,0.13135 8.7026,-0.56597 0,-1.26946 -11.65651,-3.83086 -21.75403,-4.78022 -3.37096,-0.31693 -7.02721,-1.35494 -8.125,-2.30669 -2.2877,-1.98336 -14.52445,-3.46022 -20.47765,-2.47146 -3.15133,0.52341 -4.59627,1.78598 -6.69699,5.85175 -1.47327,2.85139 -2.47754,5.39882 -2.23172,5.66096 0.24583,0.26214 2.29498,0.66339 4.55367,0.89166 z m 28.58588,-5.72621 c 3.13514,0.0302 7.39584,1.49434 7.39584,2.54146 0,0.55933 -1.7639,0.51108 -3.91977,-0.10722 -4.42784,-1.26989 -6.12701,-2.4598 -3.47607,-2.43425 z"
         style="fill:#000000;stroke:none" />
</svg>
