<?xml version="1.0" encoding="UTF-8" standalone="no"?>
<svg
     xmlns:dc="http://purl.org/dc/elements/1.1/"
     xmlns:cc="http://creativecommons.org/ns#"
     xmlns:rdf="http://www.w3.org/1999/02/22-rdf-syntax-ns#"
     xmlns:svg="http://www.w3.org/2000/svg"
     xmlns="http://www.w3.org/2000/svg"
     viewBox="0 0 493.75 302.5"
     height="302.5"
     width="493.75"
     version="1.1"
     id="svg2">
    <title
         id="title4134">J.M.W. Turner - Monogram</title>
    <metadata
         id="metadata8">
        <rdf:RDF>
            <cc:Work
                 rdf:about="">
                <dc:format>image/svg+xml</dc:format>
                <dc:type
                     rdf:resource="http://purl.org/dc/dcmitype/StillImage" />
                <dc:title>J.M.W. Turner - Monogram</dc:title>
                <cc:license
                     rdf:resource="http://creativecommons.org/publicdomain/zero/1.0/" />
                <dc:date>2016-03-18</dc:date>
            </cc:Work>
            <cc:License
                 rdf:about="http://creativecommons.org/publicdomain/zero/1.0/">
                <cc:permits
                     rdf:resource="http://creativecommons.org/ns#Reproduction" />
                <cc:permits
                     rdf:resource="http://creativecommons.org/ns#Distribution" />
                <cc:permits
                     rdf:resource="http://creativecommons.org/ns#DerivativeWorks" />
            </cc:License>
        </rdf:RDF>
    </metadata>
    <defs
         id="defs6" />
    <path
         id="path4138"
         d="m 74.533901,254.49561 c -14.426662,-2.98567 -26.06337,-14.50344 -29.180359,-28.88239 11.180084,-10.96324 14.18782,21.34064 28.89791,18.98647 16.207292,8.98839 35.093178,3.44812 51.394848,-1.10899 16.35714,-7.10562 -9.99629,8.0689 -16.11603,7.19742 -10.937934,4.63087 -23.300484,7.34449 -34.996369,3.80749 z m 304.015049,-8.8829 c -4.23381,-7.91474 -5.81943,-15.32315 -15.52872,-7.82922 -13.62519,-1.58757 13.74922,-12.23586 13.24697,-20.75736 4.12052,-13.78075 10.77127,-26.94131 13.18399,-41.2877 7.27414,-13.64144 -4.78541,-15.52732 -15.00557,-11.34859 -21.15009,-5.43106 10.45906,-24.71735 21.11198,-15.67758 11.62572,2.68117 17.40261,-11.50997 21.58861,-20.56153 6.13342,-13.43031 1.4933,-29.878552 -13.27125,-32.608824 1.82323,-7.232188 -17.07758,-4.433906 -23.56852,0.766422 -15.53608,5.717432 -23.5896,21.728492 -35.36464,32.409792 -12.15159,15.21532 -22.48309,32.0997 -30.19225,49.99701 -6.0078,13.76187 -13.42555,26.69048 -14.66399,42.08282 -0.72013,14.13141 -16.06807,14.05414 -8.9813,-1.12666 2.0908,-17.89602 3.29729,-36.1702 2.53574,-54.01764 -0.50019,-9.24901 6.58556,-30.56343 1.94004,-32.35149 -2.78532,13.6411 -18.29135,21.67385 -19.29652,36.29752 -10.4076,5.12613 -16.63451,19.14282 -23.30439,29.45036 -10.63947,10.1701 -12.19686,28.50548 -23.86873,37.17326 -9.02078,-9.40644 -3.47099,-30.30659 -7.60753,-43.94828 -0.76484,-7.45953 -2.44473,-33.76934 -9.4118,-13.92881 -10.27439,13.44115 -17.92066,28.62301 -29.44701,41.09235 -4.09549,7.54639 -12.38133,5.3266 -3.37117,-1.46664 7.78866,-12.56172 18.23799,-23.30185 24.59959,-37.18512 9.82574,-12.01449 14.51828,-24.38141 23.45555,-36.7886 7.32172,-10.17363 11.29277,-28.64976 26.09117,-28.6105 14.9738,1.59203 16.21159,19.94466 9.18917,30.18006 -6.82986,12.76511 -16.63052,19.25639 -29.27912,24.45703 -6.80438,1.11664 -1.55051,9.7516 -2.50869,14.51058 1.86124,8.48299 -0.56533,29.07586 6.17093,29.41181 8.37892,-12.39435 19.93552,-23.51915 25.84368,-37.52909 3.41262,-14.08268 19.21748,-19.78761 22.37765,-35.04312 6.35426,-9.21481 11.60048,-30.31017 22.83212,-29.30432 0.27679,19.88712 -9.66991,38.9402 -6.23925,58.98339 -2.44955,5.83584 -2.81389,30.76495 5.32122,13.61291 8.13112,-13.46886 12.86732,-26.32817 19.57785,-40.22839 9.61713,-13.52557 19.95106,-26.37327 31.85106,-37.62182 10.22645,-8.297489 19.88709,-15.47648 32.26936,-20.229652 15.89245,-9.658854 30.37866,2.488838 42.86866,11.218709 -8.47797,10.350023 -1.09555,27.270893 -11.8962,37.507863 -11.89853,12.69438 -24.96007,23.87712 -24.37011,43.12171 -1.73105,10.97084 -13.38214,25.72885 -9.84456,33.58613 6.97185,-1.86964 29.51163,-12.94384 25.41274,-0.0489 -13.99559,-2.30529 -37.38218,6.22887 -28.89919,24.40157 5.71372,13.07954 26.44279,1.99313 29.61053,-6.70444 -0.9469,-6.68718 6.56297,-20.55823 8.95185,-7.46728 -5.59759,13.30926 -21.66772,24.13883 -36.16746,26.37383 -2.96978,0.3374 -6.04595,-0.50087 -7.94249,-2.96352 z M 222.6589,163.81356 c -3.36565,-5.03748 -2.94582,4.86674 0,0 z m 18.56661,-3.487 c 12.18822,-4.84854 22.68522,-25.31167 11.4737,-35.10922 -13.31434,-0.21552 -19.79916,20.12767 -26.66709,30.6565 -3.19373,9.62278 6.74159,11.02031 15.19339,4.45272 z m -89.97554,80.17051 c -4.56943,-2.94262 2.68505,-22.46966 -4.02775,-14.8832 -0.88089,6.52633 -17.98776,22.4254 -10.21852,7.17264 7.45211,-12.5343 19.63196,-22.3243 21.24661,-37.63744 7.49518,-21.97179 18.9185,-42.50412 24.87187,-64.96039 -7.51909,-2.55948 -17.6257,21.28194 -25.46328,19.49908 5.60184,-13.49198 20.59079,-22.02589 31.51695,-31.51082 9.02968,2.46942 -4.85587,18.90049 -4.76177,27.06197 -3.16758,12.11842 -9.88366,20.77373 -13.67075,32.91544 -5.71838,4.24728 -10.97265,30.93558 -2.82945,13.81791 6.00313,-12.29659 15.95665,-26.83025 22.80351,-34.93875 6.44303,-2.77864 17.08505,-13.13208 8.47521,0.15939 -11.69192,7.67706 -16.71405,21.19724 -23.99706,32.24566 -8.95173,13.41975 -22.0753,27.6107 -17.17479,45.15115 6.15053,-2.09062 17.38983,-9.23589 7.62897,0.13134 -2.15111,3.77998 -10.30399,10.99491 -14.39975,5.77602 z m 198.49165,1.23255 c -13.91906,-2.51902 -34.87952,-7.19099 -29.38053,-26.22462 1.51618,-14.47177 13.71317,-22.81517 20.29386,-34.83862 6.836,-11.97968 5.51235,-28.93131 17.12702,-39.06933 8.9078,-8.77674 29.50607,-28.52566 39.37034,-13.74699 -6.31401,8.49531 -21.35892,-3.56192 -28.11374,9.49684 -8.63363,11.06226 -24.86418,31.49492 -10.36994,43.33511 4.94698,12.76997 -14.39539,3.85665 -18.81552,9.0022 -8.12232,8.74643 -15.41136,19.33678 -13.22208,31.97137 -1.34045,14.79753 27.78499,8.48234 24.97627,20.86248 l -0.94552,-0.15361 -0.92016,-0.63483 0,0 z M 148.2839,141.29358 C 132.99803,136.22837 118.76886,128.44774 105.18539,119.95318 94.141457,109.21682 89.756647,95.006825 84.862716,80.918058 78.346903,67.087258 83.258365,50.949705 95.241888,41.892311 107.7946,31.790676 128.12618,29.069764 141.99467,36.313559 c 12.54802,4.957443 23.59383,15.190638 34.11846,24.265169 13.40859,14.328854 32.25104,26.888545 52.86483,22.695464 15.54325,3.783428 23.471,-22.960842 37.6108,-12.008937 -1.04004,11.519443 -21.90619,11.625641 -28.2452,22.26036 -7.48895,11.598645 -19.65111,20.550835 -23.64769,34.596665 -6.54826,15.06616 -10.91544,-1.06413 -7.97449,-3.84087 9.03848,-10.92478 19.88122,-25.157522 28.44703,-37.967851 -11.39864,3.691409 -26.70397,4.746897 -38.87806,0.544965 C 176.44432,79.00092 165.27804,58.735271 146.47531,49.124476 135.12902,44.345367 123.65631,37.8606 110.50973,41.474366 91.898404,43.62343 85.486742,66.388548 92.302191,81.626059 c 6.674713,13.731856 11.273889,29.972111 25.669209,37.328671 10.9672,9.92192 29.07213,13.03049 37.9763,23.21684 -2.60143,0.55483 -5.1679,-0.30229 -7.6638,-0.87799 z"
         style="fill:#000000" />
</svg>
