<?xml version="1.0" encoding="UTF-8" standalone="no"?>
<svg
     xmlns:dc="http://purl.org/dc/elements/1.1/"
     xmlns:cc="http://creativecommons.org/ns#"
     xmlns:rdf="http://www.w3.org/1999/02/22-rdf-syntax-ns#"
     xmlns:svg="http://www.w3.org/2000/svg"
     xmlns="http://www.w3.org/2000/svg"
     id="svg2"
     viewBox="0 0 61.905927 19.433492"
     height="121.00553"
     width="385.46646"
     version="1.2">
    <metadata
         id="metadata102">
        <rdf:RDF>
            <cc:Work
                 rdf:about="">
                <dc:format>image/svg+xml</dc:format>
                <dc:type
                     rdf:resource="http://purl.org/dc/dcmitype/StillImage" />
                <dc:title></dc:title>
                <cc:license
                     rdf:resource="http://creativecommons.org/publicdomain/zero/1.0/" />
            </cc:Work>
            <cc:License
                 rdf:about="http://creativecommons.org/publicdomain/zero/1.0/">
                <cc:permits
                     rdf:resource="http://creativecommons.org/ns#Reproduction" />
                <cc:permits
                     rdf:resource="http://creativecommons.org/ns#Distribution" />
                <cc:permits
                     rdf:resource="http://creativecommons.org/ns#DerivativeWorks" />
            </cc:License>
        </rdf:RDF>
    </metadata>
    <defs
         id="defs100" />
    <!-- Page: 1/1 -->
    <text
         y="2.2120006"
         x="-5.3230872"
         style="font-size:2.20009995px;font-family:droid_serifbold;text-anchor:start;fill:currentColor"
         id="text4"
         font-size="2.2001">
        <tspan
             id="tspan6" />
    </text>
    <line
         style="stroke:currentColor;stroke-width:0.1;stroke-linecap:round;stroke-linejoin:round"
         id="line8"
         y2="12.622001"
         x2="58.643211"
         y1="12.622001"
         x1="3.2627127" />
    <line
         style="stroke:currentColor;stroke-width:0.1;stroke-linecap:round;stroke-linejoin:round"
         id="line10"
         y2="11.622001"
         x2="58.643211"
         y1="11.622001"
         x1="3.2627127" />
    <line
         style="stroke:currentColor;stroke-width:0.1;stroke-linecap:round;stroke-linejoin:round"
         id="line12"
         y2="10.622001"
         x2="58.643211"
         y1="10.622001"
         x1="3.2627127" />
    <line
         style="stroke:currentColor;stroke-width:0.1;stroke-linecap:round;stroke-linejoin:round"
         id="line14"
         y2="9.6220007"
         x2="58.643211"
         y1="9.6220007"
         x1="3.2627127" />
    <line
         style="stroke:currentColor;stroke-width:0.1;stroke-linecap:round;stroke-linejoin:round"
         id="line16"
         y2="8.6220007"
         x2="58.643211"
         y1="8.6220007"
         x1="3.2627127" />
    <path
         style="fill:currentColor"
         id="path18"
         d="m 39.977113,10.458001 -0.004,0.264 0,0.044 c 0,0.088 0.004,0.176 0.016,0.264 0.18,-0.152 0.372,-0.32 0.372,-0.556 0,-0.132 -0.056,-0.268 -0.172,-0.268 -0.124,0 -0.208,0.12 -0.212,0.252 z m -0.168,0.716 -0.048,-2.3800004 c 0.032,-0.02 0.072,-0.032 0.108,-0.032 0.036,0 0.076,0.012 0.108,0.032 l -0.028,1.3800004 c 0.1,-0.084 0.232,-0.136 0.364,-0.136 0.208,0 0.356,0.192 0.356,0.408 0,0.32 -0.344,0.468 -0.588,0.676 -0.06,0.052 -0.096,0.152 -0.18,0.152 -0.052,0 -0.092,-0.044 -0.092,-0.1 z" />
    <path
         style="fill:currentColor"
         id="path20"
         d="m 41.879113,10.174001 c -0.2,0 -0.276,0.172 -0.276,0.352 0,0.308 0.228,0.544 0.536,0.544 0.2,0 0.276,-0.172 0.276,-0.352 0,-0.308 -0.228,-0.544 -0.536,-0.544 z m 1.12,0.448 c 0,0.172 -0.14,0.304 -0.292,0.388 -0.212,0.12 -0.452,0.164 -0.696,0.164 -0.244,0 -0.488,-0.044 -0.7,-0.164 -0.152,-0.084 -0.292,-0.216 -0.292,-0.388 0,-0.172 0.14,-0.304 0.292,-0.388 0.212,-0.12 0.456,-0.164 0.7,-0.164 0.244,0 0.484,0.044 0.696,0.164 0.152,0.084 0.292,0.216 0.292,0.388 z" />
    <text
         y="15.695301"
         x="35.221012"
         style="font-size:1.74609995px;font-family:droid_serifbold;text-anchor:start;fill:currentColor"
         id="text22"
         font-size="1.7461">
        <tspan
             id="tspan24">semitone</tspan>
    </text>
    <path
         style="fill:currentColor"
         id="path26"
         d="m 36.081013,10.674001 c -0.2,0 -0.276,0.172 -0.276,0.352 0,0.308 0.228,0.544 0.536,0.544 0.2,0 0.276,-0.172 0.276,-0.352 0,-0.308 -0.228,-0.544 -0.536,-0.544 z m 1.12,0.448 c 0,0.172 -0.14,0.304 -0.292,0.388 -0.212,0.12 -0.452,0.164 -0.696,0.164 -0.244,0 -0.488,-0.044 -0.7,-0.164 -0.152,-0.084 -0.292,-0.216 -0.292,-0.388 0,-0.172 0.14,-0.304 0.292,-0.388 0.212,-0.12 0.456,-0.164 0.7,-0.164 0.244,0 0.484,0.044 0.696,0.164 0.152,0.084 0.292,0.216 0.292,0.388 z" />
    <line
         style="stroke:currentColor;stroke-width:0.1;stroke-linecap:round;stroke-linejoin:round"
         id="line28"
         y2="14.422001"
         x2="25.105013"
         y1="14.422001"
         x1="18.326912" />
    <line
         style="stroke:currentColor;stroke-width:0.1;stroke-linecap:round;stroke-linejoin:round"
         id="line30"
         y2="13.422001"
         x2="25.605013"
         y1="14.422001"
         x1="25.105013" />
    <line
         style="stroke:currentColor;stroke-width:0.1;stroke-linecap:round;stroke-linejoin:round"
         id="line32"
         y2="13.422001"
         x2="17.826912"
         y1="14.422001"
         x1="18.326912" />
    <line
         style="stroke:currentColor;stroke-width:0.1;stroke-linecap:round;stroke-linejoin:round"
         id="line34"
         y2="13.922001"
         x2="42.499111"
         y1="13.922001"
         x1="35.721012" />
    <line
         style="stroke:currentColor;stroke-width:0.1;stroke-linecap:round;stroke-linejoin:round"
         id="line36"
         y2="12.922001"
         x2="42.999111"
         y1="13.922001"
         x1="42.499111" />
    <line
         style="stroke:currentColor;stroke-width:0.1;stroke-linecap:round;stroke-linejoin:round"
         id="line38"
         y2="12.922001"
         x2="35.221012"
         y1="13.922001"
         x1="35.721012" />
    <text
         y="8.0720005"
         x="52.615211"
         style="font-size:2.20009995px;font-family:droid_serifbold;text-anchor:start;fill:currentColor"
         id="text40"
         font-size="2.2001">
        <tspan
             id="tspan42">f</tspan>
    </text>
    <path
         style="fill:currentColor"
         id="path44"
         d="m 53.475213,9.1740006 c -0.2,0 -0.276,0.172 -0.276,0.352 0,0.308 0.228,0.5440004 0.536,0.5440004 0.2,0 0.276,-0.1720004 0.276,-0.3520004 0,-0.308 -0.228,-0.544 -0.536,-0.544 z m 1.12,0.448 c 0,0.172 -0.14,0.304 -0.292,0.3880004 -0.212,0.12 -0.452,0.164 -0.696,0.164 -0.244,0 -0.488,-0.044 -0.7,-0.164 -0.152,-0.084 -0.292,-0.2160004 -0.292,-0.3880004 0,-0.172 0.14,-0.304 0.292,-0.388 0.212,-0.12 0.456,-0.164 0.7,-0.164 0.244,0 0.484,0.044 0.696,0.164 0.152,0.084 0.292,0.216 0.292,0.388 z" />
    <path
         style="fill:currentColor"
         id="path46"
         d="m 47.677113,9.6740006 c -0.2,0 -0.276,0.172 -0.276,0.3520004 0,0.308 0.228,0.544 0.536,0.544 0.2,0 0.276,-0.172 0.276,-0.352 0,-0.3080004 -0.228,-0.5440004 -0.536,-0.5440004 z m 1.12,0.4480004 c 0,0.172 -0.14,0.304 -0.292,0.388 -0.212,0.12 -0.452,0.164 -0.696,0.164 -0.244,0 -0.488,-0.044 -0.7,-0.164 -0.152,-0.084 -0.292,-0.216 -0.292,-0.388 0,-0.1720004 0.14,-0.3040004 0.292,-0.3880004 0.212,-0.12 0.456,-0.164 0.7,-0.164 0.244,0 0.484,0.044 0.696,0.164 0.152,0.084 0.292,0.216 0.292,0.3880004 z" />
    <path
         style="fill:currentColor"
         id="path48"
         d="m 18.686913,12.174001 c -0.2,0 -0.276,0.172 -0.276,0.352 0,0.308 0.228,0.544 0.536,0.544 0.2,0 0.276,-0.172 0.276,-0.352 0,-0.308 -0.228,-0.544 -0.536,-0.544 z m 1.12,0.448 c 0,0.172 -0.14,0.304 -0.292,0.388 -0.212,0.12 -0.452,0.164 -0.696,0.164 -0.244,0 -0.488,-0.044 -0.7,-0.164 -0.152,-0.084 -0.292,-0.216 -0.292,-0.388 0,-0.172 0.14,-0.304 0.292,-0.388 0.212,-0.12 0.456,-0.164 0.7,-0.164 0.244,0 0.484,0.044 0.696,0.164 0.152,0.084 0.292,0.216 0.292,0.388 z" />
    <path
         style="fill:currentColor"
         id="path50"
         d="m 6.0927128,9.0700006 c 0.224,0 0.436,0.116 0.436,0.364 0,0.288 -0.224,0.484 -0.412,0.5960004 -0.144,0.084 -0.304,0.144 -0.468,0.144 -0.224,0 -0.436,-0.116 -0.436,-0.3640004 0,-0.288 0.224,-0.484 0.412,-0.596 0.144,-0.084 0.304,-0.144 0.468,-0.144 z" />
    <path
         style="fill:currentColor"
         id="path52"
         d="m 6.0927128,12.570001 c 0.224,0 0.436,0.116 0.436,0.364 0,0.288 -0.224,0.484 -0.412,0.596 -0.144,0.084 -0.304,0.144 -0.468,0.144 -0.224,0 -0.436,-0.116 -0.436,-0.364 0,-0.288 0.224,-0.484 0.412,-0.596 0.144,-0.084 0.304,-0.144 0.468,-0.144 z" />
    <rect
         rx="0.039999999"
         style="fill:currentColor"
         id="rect54"
         ry="0.039999999"
         height="1.6799999"
         width="0.2"
         y="10.532001"
         x="5.770813" />
    <path
         style="fill:currentColor"
         id="path56"
         d="m 8.5329128,10.574001 c 0.016,0 0.036,-0.004 0.052,-0.004 0.62,0 1.024,0.512 1.024,1.044 0,0.304 -0.132,0.616 -0.428,0.84 -0.088,0.068 -0.188,0.112 -0.292,0.144 0.012,0.14 0.02,0.28 0.02,0.42 0,0.076 -0.004,0.156 -0.008,0.232 -0.028,0.48 -0.36,0.912 -0.832,0.912 -0.432,0 -0.78,-0.352 -0.78,-0.788 0,-0.232 0.212,-0.412 0.448,-0.412 0.216,0 0.38,0.188 0.38,0.412 0,0.208 -0.172,0.38 -0.38,0.38 -0.044,0 -0.084,-0.008 -0.124,-0.024 0.104,0.156 0.272,0.26 0.468,0.26 0.384,0 0.628,-0.368 0.652,-0.764 0.004,-0.072 0.008,-0.148 0.008,-0.22 0,-0.124 -0.004,-0.244 -0.016,-0.368 -0.116,0.02 -0.232,0.032 -0.356,0.032 -0.752,0 -1.332,-0.688 -1.332,-1.496 0,-0.708 0.524,-1.2240004 0.992,-1.7640004 -0.076,-0.248 -0.148,-0.5 -0.18,-0.76 -0.024,-0.208 -0.028,-0.416 -0.028,-0.624 0,-0.46 0.22,-0.896 0.596,-1.168 0.012,-0.008 0.028,-0.012 0.04,-0.012 0.016,0 0.028,0 0.04,0.012 0.284,0.336 0.532,0.98 0.532,1.432 0,0.572 -0.344,1.02 -0.72,1.456 0.084,0.2720004 0.156,0.5520004 0.224,0.8280004 z m 0.34,1.86 c 0.272,-0.096 0.452,-0.38 0.452,-0.656 0,-0.36 -0.264,-0.716 -0.692,-0.76 0.096,0.464 0.184,0.924 0.24,1.416 z m -1.548,-0.924 c 0,0.54 0.516,0.988 1.056,0.988 0.112,0 0.22,-0.008 0.328,-0.024 -0.056,-0.508 -0.148,-0.98 -0.252,-1.456 -0.316,0.032 -0.496,0.244 -0.496,0.476 0,0.176 0.1,0.364 0.324,0.492 0.02,0.02 0.028,0.04 0.028,0.06 0,0.044 -0.04,0.088 -0.088,0.088 -0.012,0 -0.024,-0.004 -0.036,-0.008 -0.32,-0.172 -0.468,-0.46 -0.468,-0.74 0,-0.352 0.232,-0.696 0.64,-0.788 -0.056,-0.232 -0.116,-0.468 -0.184,-0.7000004 -0.428,0.4840004 -0.852,0.9720004 -0.852,1.6120004 z m 1.336,-4.0680004 c -0.396,0.192 -0.648,0.596 -0.648,1.036 0,0.296 0.072,0.532 0.144,0.776 0.32,-0.388 0.584,-0.792 0.584,-1.296 0,-0.22 -0.016,-0.316 -0.08,-0.516 z" />
    <text
         y="5.0720005"
         x="12.028913"
         style="font-size:2.20009995px;font-family:droid_serifbold;text-anchor:start;fill:currentColor"
         id="text58"
         font-size="2.2001">
        <tspan
             id="tspan60">D-</tspan>
    </text>
    <text
         y="5.0720005"
         x="15.053013"
         style="font-style:italic;font-size:2.20009995px;font-family:droid_serifbold;text-anchor:start;fill:currentColor"
         id="text62"
         font-size="2.2001"
         font-style="italic">
        <tspan
             id="tspan64">Aeolian</tspan>
    </text>
    <text
         y="5.0720005"
         x="23.301113"
         style="font-size:2.20009995px;font-family:droid_serifbold;text-anchor:start;fill:currentColor"
         id="text66"
         font-size="2.2001">
        <tspan
             id="tspan68">(1</tspan>
    </text>
    <path
         style="fill:currentColor"
         id="path70"
         d="m 26.075313,4.9080006 -0.004,0.264 0,0.044 c 0,0.088 0.004,0.176 0.016,0.264 0.18,-0.152 0.372,-0.32 0.372,-0.556 0,-0.132 -0.056,-0.268 -0.172,-0.268 -0.124,0 -0.208,0.12 -0.212,0.252 z m -0.168,0.716 -0.048,-2.38 c 0.032,-0.02 0.072,-0.032 0.108,-0.032 0.036,0 0.076,0.012 0.108,0.032 l -0.028,1.38 c 0.1,-0.084 0.232,-0.136 0.364,-0.136 0.208,0 0.356,0.192 0.356,0.408 0,0.32 -0.344,0.468 -0.588,0.676 -0.06,0.052 -0.096,0.152 -0.18,0.152 -0.052,0 -0.092,-0.044 -0.092,-0.1 z" />
    <text
         y="5.0720005"
         x="27.367313"
         style="font-size:2.20009995px;font-family:droid_serifbold;text-anchor:start;fill:currentColor"
         id="text72"
         font-size="2.2001">
        <tspan
             id="tspan74">)</tspan>
    </text>
    <text
         y="8.0720005"
         x="12.028913"
         style="font-size:2.20009995px;font-family:droid_serifbold;text-anchor:start;fill:currentColor"
         id="text76"
         font-size="2.2001">
        <tspan
             id="tspan78">f</tspan>
    </text>
    <path
         style="fill:currentColor"
         id="path80"
         d="m 12.888913,12.674001 c -0.2,0 -0.276,0.172 -0.276,0.352 0,0.308 0.228,0.544 0.536,0.544 0.2,0 0.276,-0.172 0.276,-0.352 0,-0.308 -0.228,-0.544 -0.536,-0.544 z m 1.12,0.448 c 0,0.172 -0.14,0.304 -0.292,0.388 -0.212,0.12 -0.452,0.164 -0.696,0.164 -0.244,0 -0.488,-0.044 -0.7,-0.164 -0.152,-0.084 -0.292,-0.216 -0.292,-0.388 0,-0.172 0.14,-0.304 0.292,-0.388 0.212,-0.12 0.456,-0.164 0.7,-0.164 0.244,0 0.484,0.044 0.696,0.164 0.152,0.084 0.292,0.216 0.292,0.388 z" />
    <path
         style="fill:currentColor"
         id="path82"
         d="m 30.283013,11.174001 c -0.2,0 -0.276,0.172 -0.276,0.352 0,0.308 0.228,0.544 0.536,0.544 0.2,0 0.276,-0.172 0.276,-0.352 0,-0.308 -0.228,-0.544 -0.536,-0.544 z m 1.12,0.448 c 0,0.172 -0.14,0.304 -0.292,0.388 -0.212,0.12 -0.452,0.164 -0.696,0.164 -0.244,0 -0.488,-0.044 -0.7,-0.164 -0.152,-0.084 -0.292,-0.216 -0.292,-0.388 0,-0.172 0.14,-0.304 0.292,-0.388 0.212,-0.12 0.456,-0.164 0.7,-0.164 0.244,0 0.484,0.044 0.696,0.164 0.152,0.084 0.292,0.216 0.292,0.388 z" />
    <path
         style="fill:currentColor"
         id="path84"
         d="m 24.484913,11.674001 c -0.2,0 -0.276,0.172 -0.276,0.352 0,0.308 0.228,0.544 0.536,0.544 0.2,0 0.276,-0.172 0.276,-0.352 0,-0.308 -0.228,-0.544 -0.536,-0.544 z m 1.12,0.448 c 0,0.172 -0.14,0.304 -0.292,0.388 -0.212,0.12 -0.452,0.164 -0.696,0.164 -0.244,0 -0.488,-0.044 -0.7,-0.164 -0.152,-0.084 -0.292,-0.216 -0.292,-0.388 0,-0.172 0.14,-0.304 0.292,-0.388 0.212,-0.12 0.456,-0.164 0.7,-0.164 0.244,0 0.484,0.044 0.696,0.164 0.152,0.084 0.292,0.216 0.292,0.388 z" />
    <text
         y="16.195301"
         x="17.826912"
         style="font-size:1.74609995px;font-family:droid_serifbold;text-anchor:start;fill:currentColor"
         id="text86"
         font-size="1.7461">
        <tspan
             id="tspan88">semitone</tspan>
    </text>
</svg>
