<?xml version="1.0" encoding="UTF-8" standalone="no"?>
<!-- Created with Inkscape (http://www.inkscape.org/) -->

<svg
   version="1.1"
   id="svg1"
   width="832"
   height="716"
   viewBox="0 0 832 716"
   sodipodi:docname="Etemenanki_drawing.svg"
   inkscape:version="1.4 (86a8ad7, 2024-10-11)"
   xmlns:inkscape="http://www.inkscape.org/namespaces/inkscape"
   xmlns:sodipodi="http://sodipodi.sourceforge.net/DTD/sodipodi-0.dtd"
   xmlns="http://www.w3.org/2000/svg"
   xmlns:svg="http://www.w3.org/2000/svg">
  <defs
     id="defs1" />
  <sodipodi:namedview
     id="namedview1"
     pagecolor="#ffffff"
     bordercolor="#000000"
     borderopacity="0.25"
     inkscape:showpageshadow="2"
     inkscape:pageopacity="0.0"
     inkscape:pagecheckerboard="0"
     inkscape:deskcolor="#d1d1d1"
     inkscape:zoom="1.0796089"
     inkscape:cx="415.89133"
     inkscape:cy="358"
     inkscape:window-width="1920"
     inkscape:window-height="991"
     inkscape:window-x="-9"
     inkscape:window-y="-9"
     inkscape:window-maximized="1"
     inkscape:current-layer="g1" />
  <g
     inkscape:groupmode="layer"
     inkscape:label="Image"
     id="g1">
    <path
       style="fill:#000000"
       d="m -1.8525263,712.00001 v -4 h 18.4999993 18.5 v -2.5 c 0,-2.33333 0.33334,-2.5 5,-2.5 h 5 v -3.5 c 0,-3.48148 0.0238,-3.5 4.5,-3.5 h 4.5 V 577.80384 459.60768 l 3.49529,3.38777 3.4953,3.38777 3.0047,-2.8787 3.00471,-2.87869 3,2.87418 3,2.87418 3,-2.87418 3,-2.87418 3,2.87418 3,2.87418 3,-2.87418 3,-2.87418 2.99327,2.86773 2.99327,2.86773 2.506734,-2.35495 2.506733,-2.35496 v -72.02185 -72.02185 l 3.49529,3.38777 3.49529,3.38777 3.00471,-2.8787 3.00471,-2.87869 3,2.87418 3,2.87418 3,-2.87418 3,-2.87418 3,2.87418 3,2.87418 3,-2.87418 3,-2.87418 3,2.87418 3,2.87418 3,-2.87418 3,-2.87418 3,2.87418 3,2.87418 3,-2.87418 3,-2.87418 2.80472,2.68709 c 1.54259,1.4779 3.11759,2.68709 3.5,2.68709 0.3824,0 0.69528,-12.23828 0.69528,-27.19617 v -27.19616 l 3.49529,3.38777 3.49529,3.38777 3.00471,-2.8787 3.00471,-2.87869 3,2.87418 3,2.87418 3,-2.87418 3,-2.87418 3,2.87418 3,2.87418 V 247.6871 c 0,-18.45806 -0.35657,-28.68709 -1,-28.68709 -0.55,0 -1,-2.475 -1,-5.5 0,-5.30133 0.097,-5.5 2.68555,-5.5 1.47705,0 3.72705,0.97844 5,2.17431 l 2.31445,2.17432 2.31445,-2.17432 c 1.27295,-1.19587 3.52295,-2.17431 5,-2.17431 2.58855,0 2.68555,0.19867 2.68555,5.5 0,3.025 -0.45,5.5 -1,5.5 -2.16947,0 -0.67148,3.65312 2.62057,6.39075 l 3.47618,2.89074 2.95162,-2.82783 2.95163,-2.82784 2.96384,2.83954 c 2.47977,2.37577 3.21474,2.63132 4.5,1.56465 1.3068,-1.08455 1.53616,-5.01853 1.53616,-26.34862 v -25.07372 l 3.49529,3.38777 3.49529,3.38777 3.00471,-2.8787 3.00471,-2.87869 3,2.87418 3,2.87418 3,-2.87418 3,-2.87418 2.80472,2.68709 c 1.54259,1.4779 3.11759,2.68709 3.5,2.68709 0.3824,0 0.69528,-12.375 0.69528,-27.5 0,-17.66668 -0.35758,-27.50001 -1,-27.50001 -0.55,0 -1,-2.475 -1,-5.5 0,-5.30133 0.097,-5.5 2.68555,-5.5 1.47705,0 3.72705,0.97844 5,2.17431 l 2.31445,2.17432 2.31445,-2.17432 c 1.27295,-1.19587 3.52295,-2.17431 5,-2.17431 2.58855,0 2.68555,0.19867 2.68555,5.5 0,3.025 -0.45,5.5 -1,5.5 -2.16947,0 -0.67148,3.65312 2.62057,6.39075 l 3.47618,2.89074 2.95162,-2.82783 2.95163,-2.82784 2.96384,2.83954 c 2.47977,2.37577 3.21474,2.63132 4.5,1.56465 1.34577,-1.11689 1.53616,-7.76667 1.53616,-53.652456 0,-34.251702 -0.34606,-52.377555 -1,-52.377555 -0.57143,0 -1,-3 -1,-7 0,-6.531429 0.1463,-7 2.18555,-7 1.20205,0 3.22705,0.978441 4.5,2.174314 l 2.31445,2.174314 2.31445,-2.174314 c 2.948,-2.769505 6.4231,-2.769505 9.3711,0 l 2.31445,2.174314 2.31445,-2.174314 c 1.27295,-1.195873 3.29795,-2.174314 4.5,-2.174314 2.03925,0 2.18555,0.468571 2.18555,7 0,4 -0.42857,7 -1,7 -0.55869,0 -1,2.724771 -1,6.174314 v 6.174315 l 2.50673,-2.354954 2.50674,-2.354954 2.99326,2.867731 2.99327,2.867731 3,-2.874182 3,-2.874182 2.80472,2.687091 c 1.54259,1.4779 3.11759,2.687091 3.5,2.687091 0.3824,0 0.69528,-2.925 0.69528,-6.5 0,-3.666668 -0.4359,-6.500001 -1,-6.500001 -0.57143,0 -1,-3 -1,-7 0,-6.531429 0.1463,-7 2.18555,-7 1.20205,0 3.22705,0.978441 4.5,2.174314 l 2.31445,2.174314 2.31445,-2.174314 c 2.948,-2.769505 6.4231,-2.769505 9.3711,0 l 2.31445,2.174314 2.31445,-2.174314 c 1.27295,-1.195873 3.29795,-2.174314 4.5,-2.174314 2.03925,0 2.18555,0.468571 2.18555,7 0,4 -0.42857,7 -1,7 -0.55,0 -1,2.180256 -1,4.845012 0,3.588818 0.52302,5.31834 2.01723,6.670584 1.96599,1.77919 2.09301,1.752969 5,-1.032104 l 2.98277,-2.857673 3,2.874182 3,2.874182 3,-2.874182 3,-2.874182 3,2.874182 3,2.874182 3,-2.874182 3,-2.874182 2.98277,2.857673 c 2.90699,2.785073 3.03401,2.811294 5,1.032104 1.49421,-1.352244 2.01723,-3.081766 2.01723,-6.670584 0,-2.664756 -0.45,-4.845012 -1,-4.845012 -0.57143,0 -1,-3 -1,-7 0,-6.531429 0.1463,-7 2.18555,-7 1.20205,0 3.22705,0.978441 4.5,2.174314 l 2.31445,2.174314 2.31445,-2.174314 c 2.948,-2.769505 6.4231,-2.769505 9.3711,0 l 2.31445,2.174314 2.31445,-2.174314 c 1.27295,-1.195873 3.29795,-2.174314 4.5,-2.174314 2.03925,0 2.18555,0.468571 2.18555,7 0,4 -0.42857,7 -1,7 -0.5641,0 -1,2.833333 -1,6.500001 0,3.575 0.31288,6.5 0.69528,6.5 0.38241,0 1.95741,-1.209191 3.5,-2.687091 l 2.80472,-2.687091 3,2.874182 3,2.874182 2.99327,-2.867731 2.99326,-2.867731 2.50674,2.354954 2.50673,2.354954 v -6.174315 c 0,-3.449543 -0.44131,-6.174314 -1,-6.174314 -0.57143,0 -1,-3 -1,-7 0,-6.531429 0.1463,-7 2.18555,-7 1.20205,0 3.22705,0.978441 4.5,2.174314 l 2.31445,2.174314 2.31445,-2.174314 c 1.27295,-1.195873 3.38145,-2.174314 4.68555,-2.174314 1.3041,0 3.4126,0.978441 4.68555,2.174314 l 2.31445,2.174314 2.31445,-2.174314 c 1.27295,-1.195873 3.29795,-2.174314 4.5,-2.174314 2.03925,0 2.18555,0.468571 2.18555,7 0,4 -0.42857,7 -1,7 -0.65394,0 -1,18.125853 -1,52.377555 0,45.885786 0.19039,52.535566 1.53616,53.652456 1.28526,1.06667 2.02023,0.81112 4.5,-1.56465 l 2.96384,-2.83954 2.95163,2.82784 2.95162,2.82783 3.47618,-2.89074 C 534.81896,130.65312 536.31695,127 534.14748,127 c -0.55,0 -1,-2.475 -1,-5.5 0,-5.30133 0.097,-5.5 2.68555,-5.5 1.47705,0 3.72705,0.97844 5,2.17431 l 2.31445,2.17432 2.31445,-2.17432 c 1.27295,-1.19587 3.52295,-2.17431 5,-2.17431 2.58855,0 2.68555,0.19867 2.68555,5.5 0,3.025 -0.45,5.5 -1,5.5 -0.64242,0 -1,9.83333 -1,27.50001 0,15.125 0.31288,27.5 0.69528,27.5 0.38241,0 1.95741,-1.20919 3.5,-2.68709 l 2.80472,-2.68709 3,2.87418 3,2.87418 3,-2.87418 3,-2.87418 3.00471,2.87869 3.00471,2.8787 3.49529,-3.38777 3.49529,-3.38777 v 25.07372 c 0,21.33009 0.22936,25.26407 1.53616,26.34862 1.28526,1.06667 2.02023,0.81112 4.5,-1.56465 l 2.96384,-2.83954 2.95163,2.82784 2.95162,2.82783 3.47618,-2.89074 c 3.29205,-2.73763 4.79004,-6.39075 2.62057,-6.39075 -0.55,0 -1,-2.475 -1,-5.5 0,-5.30133 0.097,-5.5 2.68555,-5.5 1.47705,0 3.72705,0.97844 5,2.17431 l 2.31445,2.17432 2.31445,-2.17432 c 1.27295,-1.19587 3.52295,-2.17431 5,-2.17431 2.58855,0 2.68555,0.19867 2.68555,5.5 0,3.025 -0.45,5.5 -1,5.5 -0.64343,0 -1,10.22903 -1,28.68709 v 28.68709 l 3,-2.87418 3,-2.87418 3,2.87418 3,2.87418 3,-2.87418 3,-2.87418 3.00471,2.87869 3.00471,2.8787 3.49529,-3.38777 3.49529,-3.38777 v 27.19616 c 0,14.95789 0.31288,27.19617 0.69528,27.19617 0.38241,0 1.95741,-1.20919 3.5,-2.68709 l 2.80472,-2.68709 3,2.87418 3,2.87418 3,-2.87418 3,-2.87418 3,2.87418 3,2.87418 3,-2.87418 3,-2.87418 3,2.87418 3,2.87418 3,-2.87418 3,-2.87418 3,2.87418 3,2.87418 3,-2.87418 3,-2.87418 3.00471,2.87869 3.00471,2.8787 3.49529,-3.38777 3.49529,-3.38777 v 72.02185 72.02185 l 2.50673,2.35496 2.50674,2.35495 2.99326,-2.86773 2.99327,-2.86773 3,2.87418 3,2.87418 3,-2.87418 3,-2.87418 3,2.87418 3,2.87418 3,-2.87418 3,-2.87418 3.00471,2.87869 3.00471,2.8787 3.49529,-3.38777 3.49529,-3.38777 v 118.19616 118.19617 h 4.5 c 4.47619,0 4.5,0.0185 4.5,3.5 v 3.5 h 5 c 4.66667,0 5,0.16667 5,2.5 v 2.5 h 21.5 21.5 v 4 4 h -416 -416.0000063 z m 440.0000063,-6 v -3 h -27 -27 v 3 3 h 27 27 z M 94.147473,692.43427 c 0,-8.81752 0.44879,-16.4043 1.03519,-17.5 0.94456,-1.76494 2.21079,-1.93426 14.464817,-1.93426 12.25403,0 13.52025,0.16932 14.46482,1.93426 0.5864,1.0957 1.03518,8.68248 1.03518,17.5 v 15.56574 h 15 15 v -36.56574 c 0,-23.29335 0.37574,-37.26783 1.03518,-38.5 0.94457,-1.76494 2.21079,-1.93426 14.46482,-1.93426 12.25403,0 13.52025,0.16932 14.46482,1.93426 0.65944,1.23217 1.03518,15.20665 1.03518,38.5 v 36.56574 h 15 15 v -57.56574 c 0,-37.76918 0.35599,-58.23092 1.03518,-59.5 0.94457,-1.76494 2.21079,-1.93426 14.46482,-1.93426 12.25403,0 13.52025,0.16932 14.46482,1.93426 0.67919,1.26908 1.03518,21.73082 1.03518,59.5 v 57.56574 h 15 15 v -78.56574 c 0,-52.24501 0.3468,-79.21375 1.03518,-80.5 0.94457,-1.76494 2.21079,-1.93426 14.46482,-1.93426 12.25403,0 13.52025,0.16932 14.46482,1.93426 0.68838,1.28625 1.03518,28.25499 1.03518,80.5 v 78.56574 h 15 15 v -99.56574 c 0,-66.72084 0.34149,-100.20382 1.03518,-101.5 0.94457,-1.76494 2.21079,-1.93426 14.46482,-1.93426 12.25403,0 13.52025,0.16932 14.46482,1.93426 0.69369,1.29618 1.03518,34.77916 1.03518,101.5 v 99.56574 h 6.5 6.5 v -120.5 -120.5 h -3 c -2.66667,0 -3,0.33333 -3,3 0,2.93333 -0.11111,3 -5,3 h -5 v 3.5 3.5 h -5 -5 v 3.5 3.5 h -5 -5 v 3.5 3.5 h -5 -5 v 3.5 3.5 h -5 -5 v 3.5 3.5 h -5 -5 v 3.5 3.5 h -5 -5 v 3.5 3.5 h -5 -5 v 3.5 3.5 h -5 -5 v 3.5 3.5 h -5 -5 v 3.5 3.5 h -5 -5 v 3.5 3.5 h -5 -5 v 3.5 3.5 h -5 -5 v 3.5 3.5 h -5 -5 v 3.5 3.5 h -5 -5 v 3.5 3.5 h -5 -5 v 3.5 3.5 h -5 -5 v 3.5 3.5 h -5 -5 v 3.5 3.5 h -5 -5 v 3.5 3.5 h -5 -5 v 3.5 3.5 h -5 -5 v 3.5 3.5 h -5 -5 v 3.5 3.5 h -5 -5 v 3.5 3.5 h -5 -5 v 3.5 3.5 h -5 -5 v 3.5 3.5 h -5 -5 v 3.5 3.5 h -5 -5 v 3.5 3.5 h -5 -5.000007 v 3.5 3.5 h -5 -5 v 3.5 3.5 h -5 -5 v 3.5 3.5 h -5 -5 v 3.5 3.5 h -5 -5 v 3.5 3.5 h -5 -5 v 3.5 3.5 h -5 c -4.33333,0 -5,0.26667 -5,2 0,1.95402 0.66667,2 29,2 h 29 z m 30.000007,0.5 c 0,-8.47285 -0.453,-15.91219 -1.03518,-17 -0.93822,-1.75308 -2.19946,-1.93426 -13.46482,-1.93426 -11.265363,0 -12.526597,0.18118 -13.464817,1.93426 -0.58218,1.08781 -1.03519,8.52715 -1.03519,17 v 15.06574 h 14.500007 14.5 z m 61,-21 c 0,-22.94868 -0.37649,-36.76923 -1.03518,-38 -0.93822,-1.75308 -2.19946,-1.93426 -13.46482,-1.93426 -11.26536,0 -12.5266,0.18118 -13.46482,1.93426 -0.65869,1.23077 -1.03518,15.05132 -1.03518,38 v 36.06574 h 14.5 14.5 z m 61,-21 c 0,-37.42452 -0.3563,-57.73149 -1.03518,-59 -0.93822,-1.75308 -2.19946,-1.93426 -13.46482,-1.93426 -11.26536,0 -12.5266,0.18118 -13.46482,1.93426 -0.67888,1.26851 -1.03518,21.57548 -1.03518,59 v 57.06574 h 14.5 14.5 z m 61,-21 c 0,-51.90035 -0.34696,-78.71405 -1.03518,-80 -0.93822,-1.75308 -2.19946,-1.93426 -13.46482,-1.93426 -11.26536,0 -12.5266,0.18118 -13.46482,1.93426 -0.68822,1.28595 -1.03518,28.09965 -1.03518,80 v 78.06574 h 14.5 14.5 z m 61,-21 c 0,-66.37618 -0.34159,-99.70401 -1.03518,-101 -0.93822,-1.75308 -2.19946,-1.93426 -13.46482,-1.93426 -11.26536,0 -12.5266,0.18118 -13.46482,1.93426 -0.69359,1.29599 -1.03518,34.62382 -1.03518,101 v 99.06574 h 14.5 14.5 z m 85,-0.5 c 0,-66.72084 0.34149,-100.20382 1.03518,-101.5 0.94457,-1.76494 2.21079,-1.93426 14.46482,-1.93426 12.25403,0 13.52025,0.16932 14.46482,1.93426 0.69369,1.29618 1.03518,34.77916 1.03518,101.5 v 99.56574 h 15 15 v -78.56574 c 0,-52.24501 0.3468,-79.21375 1.03518,-80.5 0.94457,-1.76494 2.21079,-1.93426 14.46482,-1.93426 12.25403,0 13.52025,0.16932 14.46482,1.93426 0.68838,1.28625 1.03518,28.25499 1.03518,80.5 v 78.56574 h 15 15 v -57.56574 c 0,-37.76918 0.35599,-58.23092 1.03518,-59.5 0.94457,-1.76494 2.21079,-1.93426 14.46482,-1.93426 12.25403,0 13.52025,0.16932 14.46482,1.93426 0.67919,1.26908 1.03518,21.73082 1.03518,59.5 v 57.56574 h 15 15 v -36.56574 c 0,-23.29335 0.37574,-37.26783 1.03518,-38.5 0.94457,-1.76494 2.21079,-1.93426 14.46482,-1.93426 12.25403,0 13.52025,0.16932 14.46482,1.93426 0.65944,1.23217 1.03518,15.20665 1.03518,38.5 v 36.56574 h 15 15 v -15.56574 c 0,-8.81752 0.44878,-16.4043 1.03518,-17.5 0.94457,-1.76494 2.21079,-1.93426 14.46482,-1.93426 12.25403,0 13.52025,0.16932 14.46482,1.93426 0.5864,1.0957 1.03518,8.68248 1.03518,17.5 v 15.56574 h 29 c 28.33333,0 29,-0.046 29,-2 0,-1.73333 -0.66667,-2 -5,-2 h -5 v -3.5 -3.5 h -5 -5 v -3.5 -3.5 h -5 -5 v -3.5 -3.5 h -5 -5 v -3.5 -3.5 h -5 -5 v -3.5 -3.5 h -5 -5 v -3.5 -3.5 h -5 -5 v -3.5 -3.5 h -5 -5 v -3.5 -3.5 h -5 -5 v -3.5 -3.5 h -5 -5 v -3.5 -3.5 h -5 -5 v -3.5 -3.5 h -5 -5 v -3.5 -3.5 h -5 -5 v -3.5 -3.5 h -5 -5 v -3.5 -3.5 h -5 -5 v -3.5 -3.5 h -5 -5 v -3.5 -3.5 h -5 -5 v -3.5 -3.5 h -5 -5 v -3.5 -3.5 h -5 -5 v -3.5 -3.5 h -5 -5 v -3.5 -3.5 h -5 -5 v -3.5 -3.5 h -5 -5 v -3.5 -3.5 h -5 -5 v -3.5 -3.5 h -5 -5 v -3.5 -3.5 h -5 -5 v -3.5 -3.5 h -5 -5 v -3.5 -3.5 h -5 -5 v -3.5 -3.5 h -5 -5 v -3.5 -3.5 h -5 -5 v -3.5 -3.5 h -5 -5 v -3.5 -3.5 h -5 -5 v -3.5 -3.5 h -5 -5 v -3.5 -3.5 h -5 -5 v -3.5 -3.5 h -5 c -4.88889,0 -5,-0.0667 -5,-3 0,-2.66667 -0.33333,-3 -3,-3 h -3 v 120.5 120.5 h 6.5 6.5 z m 30,0.5 c 0,-66.37618 -0.34159,-99.70401 -1.03518,-101 -0.93822,-1.75308 -2.19946,-1.93426 -13.46482,-1.93426 -11.26536,0 -12.5266,0.18118 -13.46482,1.93426 -0.69359,1.29599 -1.03518,34.62382 -1.03518,101 v 99.06574 h 14.5 14.5 z m 61,21 c 0,-51.90035 -0.34696,-78.71405 -1.03518,-80 -0.93822,-1.75308 -2.19946,-1.93426 -13.46482,-1.93426 -11.26536,0 -12.5266,0.18118 -13.46482,1.93426 -0.68822,1.28595 -1.03518,28.09965 -1.03518,80 v 78.06574 h 14.5 14.5 z m 61,21 c 0,-37.42452 -0.3563,-57.73149 -1.03518,-59 -0.93822,-1.75308 -2.19946,-1.93426 -13.46482,-1.93426 -11.26536,0 -12.5266,0.18118 -13.46482,1.93426 -0.67888,1.26851 -1.03518,21.57548 -1.03518,59 v 57.06574 h 14.5 14.5 z m 61,21 c 0,-22.94868 -0.37649,-36.76923 -1.03518,-38 -0.93822,-1.75308 -2.19946,-1.93426 -13.46482,-1.93426 -11.26536,0 -12.5266,0.18118 -13.46482,1.93426 -0.65869,1.23077 -1.03518,15.05132 -1.03518,38 v 36.06574 h 14.5 14.5 z m 61,21 c 0,-8.47285 -0.453,-15.91219 -1.03518,-17 -0.93822,-1.75308 -2.19946,-1.93426 -13.46482,-1.93426 -11.26536,0 -12.5266,0.18118 -13.46482,1.93426 -0.58218,1.08781 -1.03518,8.52715 -1.03518,17 v 15.06574 h 14.5 14.5 z m -289,6.06574 v -3 h -27 -27 v 3 3 h 27 27 z m 0,-7 v -3 h -27 -27 v 3 3 h 27 27 z m -373.000007,-6.5 v -3.5 h 5 5 v -3.5 -3.5 h 5 5 v -3.5 c 0,-3.48148 0.0238,-3.5 4.5,-3.5 h 4.5 v -92.06574 c 0,-61.5509 0.34311,-92.70685 1.03519,-94 0.94456,-1.76494 2.21079,-1.93426 14.464817,-1.93426 12.25403,0 13.52025,0.16932 14.46482,1.93426 0.68822,1.28595 1.03518,28.09965 1.03518,80 v 78.06574 h 5 5 v -3.5 -3.5 h 5 5 v -3.5 -3.5 h 5 5 v -71.06574 c 0,-47.07507 0.34946,-71.71872 1.03518,-73 0.94457,-1.76494 2.21079,-1.93426 14.46482,-1.93426 12.25403,0 13.52025,0.16932 14.46482,1.93426 0.67888,1.26851 1.03518,21.57548 1.03518,59 v 57.06574 h 4.5 c 4.47619,0 4.5,-0.0185 4.5,-3.5 v -3.5 h 5 5 v -3.5 -3.5 h 4.86071 4.86071 l 0.6306,-5.25 c 0.34683,-2.8875 0.63451,-25.41708 0.63929,-50.06574 0.006,-28.96352 0.37486,-45.49993 1.04387,-46.75 0.94457,-1.76494 2.21079,-1.93426 14.46482,-1.93426 12.25403,0 13.52025,0.16932 14.46482,1.93426 0.65869,1.23077 1.03518,15.05132 1.03518,38 v 36.06574 h 4 c 3.90476,0 4,-0.0833 4,-3.5 v -3.5 h 5 5 v -3.5 -3.5 h 5 5 v -3.5 c 0,-1.925 0.45,-3.5 1,-3.5 0.64059,0 1,-9.18858 1,-25.56574 0,-15.71077 0.39904,-26.31135 1.03518,-27.5 0.94457,-1.76494 2.21079,-1.93426 14.46482,-1.93426 12.25403,0 13.52025,0.16932 14.46482,1.93426 0.58218,1.08781 1.03518,8.52715 1.03518,17 v 15.06574 h 3.5 c 3.33333,0 3.5,-0.16667 3.5,-3.5 v -3.5 h 5 5 v -3.5 -3.5 h 5 5 v -3.5 c 0,-2.44444 0.45238,-3.5 1.5,-3.5 1.11431,0 1.5,-1.17397 1.5,-4.56574 0,-6.97252 1.19311,-8.43426 6.88431,-8.43426 2.64766,0 8.25683,-0.29103 12.46481,-0.64674 l 7.65088,-0.64673 v -3.35327 -3.35326 h 5 c 4.66667,0 5,-0.16667 5,-2.5 0,-1.67787 -0.5543,-2.5 -1.68555,-2.5 -0.92705,0 -2.72705,-0.97844 -4,-2.17431 l -2.31445,-2.17432 -2.31445,2.17432 c -2.91259,2.73624 -4.45851,2.73624 -7.3711,0 l -2.31445,-2.17432 -2.31445,2.17432 c -2.91259,2.73624 -4.45851,2.73624 -7.3711,0 l -2.31445,-2.17432 -2.31445,2.17432 c -2.91259,2.73624 -4.45851,2.73624 -7.3711,0 l -2.31445,-2.17432 -2.31445,2.17432 c -2.91259,2.73624 -4.45851,2.73624 -7.3711,0 l -2.31445,-2.17432 -2.31445,2.17432 c -1.27295,1.19587 -2.93145,2.17431 -3.68555,2.17431 -0.7541,0 -2.4126,-0.97844 -3.68555,-2.17431 l -2.31445,-2.17432 -2.31445,2.17432 c -1.27295,1.19587 -2.93145,2.17431 -3.68555,2.17431 -0.7541,0 -2.4126,-0.97844 -3.68555,-2.17431 l -2.31445,-2.17432 -2.31445,2.17432 c -1.27295,1.19587 -2.93145,2.17431 -3.68555,2.17431 -0.7541,0 -2.4126,-0.97844 -3.68555,-2.17431 l -2.31445,-2.17432 -2.31445,2.17432 c -2.91259,2.73624 -4.45851,2.73624 -7.3711,0 l -2.31445,-2.17432 -2.31445,2.17432 c -2.91259,2.73624 -4.45851,2.73624 -7.3711,0 l -2.31445,-2.17432 -2.31445,2.17432 c -2.91259,2.73624 -4.45851,2.73624 -7.3711,0 l -2.31445,-2.17432 -2.31445,2.17432 c -2.91259,2.73624 -4.45851,2.73624 -7.3711,0 l -2.31445,-2.17432 -2.31445,2.17432 c -1.27295,1.19587 -2.93145,2.17431 -3.68555,2.17431 -0.7541,0 -2.4126,-0.97844 -3.68555,-2.17431 l -2.31445,-2.17432 -2.31445,2.17432 c -1.27295,1.19587 -2.93145,2.17431 -3.68555,2.17431 -0.7541,0 -2.4126,-0.97844 -3.68555,-2.17431 l -2.31445,-2.17432 -2.31445,2.17432 c -1.27295,1.19587 -2.93145,2.17431 -3.68555,2.17431 -0.7541,0 -2.4126,-0.97844 -3.68555,-2.17431 l -2.31445,-2.17432 -2.31445,2.17432 c -1.27295,1.19587 -2.93145,2.17431 -3.68555,2.17431 -0.7541,0 -2.4126,-0.97844 -3.68555,-2.17431 l -2.31445,-2.17432 -2.31445,2.17432 c -1.27295,1.19587 -2.93145,2.17431 -3.68555,2.17431 -0.7541,0 -2.4126,-0.97844 -3.68555,-2.17431 l -2.31445,-2.17432 -2.31445,2.17432 c -1.27295,1.19587 -2.93145,2.17431 -3.68555,2.17431 -0.7541,0 -2.4126,-0.97844 -3.68555,-2.17431 l -2.31445,-2.17432 -2.31445,2.17432 c -1.27295,1.19587 -2.93145,2.17431 -3.68555,2.17431 -0.7541,0 -2.4126,-0.97844 -3.68555,-2.17431 l -2.31445,-2.17432 -2.31445,2.17432 c -1.27295,1.19587 -2.93145,2.17431 -3.68555,2.17431 -0.7541,0 -2.4126,-0.97844 -3.68555,-2.17431 l -2.31445,-2.17432 -2.31445,2.17432 c -2.91259,2.73624 -4.45851,2.73624 -7.3711,0 l -2.31445,-2.17432 -2.31445,2.17432 c -1.27295,1.19587 -2.93145,2.17431 -3.68555,2.17431 -0.7541,0 -2.4126,-0.97844 -3.68555,-2.17431 l -2.31445,-2.17432 -2.31445,2.17432 c -1.27295,1.19587 -2.93145,2.17431 -3.68555,2.17431 -0.7541,0 -2.4126,-0.97844 -3.68555,-2.17431 l -2.31445,-2.17432 -2.31445,2.17432 c -2.912597,2.73624 -4.458507,2.73624 -7.371107,0 l -2.31445,-2.17432 -2.31445,2.17432 c -2.91259,2.73624 -4.4585,2.73624 -7.3711,0 l -2.31445,-2.17432 -2.31445,2.17432 c -1.27295,1.19587 -2.93144,2.17431 -3.68555,2.17431 -0.7541,0 -2.4126,-0.97844 -3.68555,-2.17431 l -2.31445,-2.17432 -2.31445,2.17432 c -2.773,2.60509 -4.41466,2.72943 -6.85681,0.51932 -1.77062,-1.60239 -1.82874,1.92502 -1.82874,111 v 112.65499 h 4.5 c 4.47619,0 4.5,-0.0185 4.5,-3.5 z M 766.14748,576.34502 c 0,-109.07498 -0.0581,-112.60239 -1.82874,-111 -2.44214,2.21011 -4.08381,2.08577 -6.85681,-0.51932 l -2.31445,-2.17432 -2.31445,2.17432 c -1.27295,1.19587 -2.93145,2.17431 -3.68555,2.17431 -0.7541,0 -2.4126,-0.97844 -3.68555,-2.17431 l -2.31445,-2.17432 -2.31445,2.17432 c -1.27295,1.19587 -2.93145,2.17431 -3.68555,2.17431 -0.7541,0 -2.4126,-0.97844 -3.68555,-2.17431 l -2.31445,-2.17432 -2.31445,2.17432 c -1.27295,1.19587 -2.93145,2.17431 -3.68555,2.17431 -0.7541,0 -2.4126,-0.97844 -3.68555,-2.17431 l -2.31445,-2.17432 -2.31445,2.17432 c -1.27295,1.19587 -2.93145,2.17431 -3.68555,2.17431 -0.7541,0 -2.4126,-0.97844 -3.68555,-2.17431 l -2.31445,-2.17432 -2.31445,2.17432 c -1.27295,1.19587 -2.93145,2.17431 -3.68555,2.17431 -0.7541,0 -2.4126,-0.97844 -3.68555,-2.17431 l -2.31445,-2.17432 -2.31445,2.17432 c -1.27295,1.19587 -2.93145,2.17431 -3.68555,2.17431 -0.7541,0 -2.4126,-0.97844 -3.68555,-2.17431 l -2.31445,-2.17432 -2.31445,2.17432 c -1.27295,1.19587 -2.93145,2.17431 -3.68555,2.17431 -0.7541,0 -2.4126,-0.97844 -3.68555,-2.17431 l -2.31445,-2.17432 -2.31445,2.17432 c -1.27295,1.19587 -2.93145,2.17431 -3.68555,2.17431 -0.7541,0 -2.4126,-0.97844 -3.68555,-2.17431 l -2.31445,-2.17432 -2.31445,2.17432 c -1.27295,1.19587 -2.93145,2.17431 -3.68555,2.17431 -0.7541,0 -2.4126,-0.97844 -3.68555,-2.17431 l -2.31445,-2.17432 -2.31445,2.17432 c -2.91259,2.73624 -4.45851,2.73624 -7.3711,0 l -2.31445,-2.17432 -2.31445,2.17432 c -2.91259,2.73624 -4.45851,2.73624 -7.3711,0 l -2.31445,-2.17432 -2.31445,2.17432 c -2.91259,2.73624 -4.45851,2.73624 -7.3711,0 l -2.31445,-2.17432 -2.31445,2.17432 c -2.91259,2.73624 -4.45851,2.73624 -7.3711,0 l -2.31445,-2.17432 -2.31445,2.17432 c -1.27295,1.19587 -2.93145,2.17431 -3.68555,2.17431 -0.7541,0 -2.4126,-0.97844 -3.68555,-2.17431 l -2.31445,-2.17432 -2.31445,2.17432 c -1.27295,1.19587 -2.93145,2.17431 -3.68555,2.17431 -0.7541,0 -2.4126,-0.97844 -3.68555,-2.17431 l -2.31445,-2.17432 -2.31445,2.17432 c -2.91259,2.73624 -4.45851,2.73624 -7.3711,0 l -2.31445,-2.17432 -2.31445,2.17432 c -2.91259,2.73624 -4.45851,2.73624 -7.3711,0 l -2.31445,-2.17432 -2.31445,2.17432 c -1.27295,1.19587 -2.93145,2.17431 -3.68555,2.17431 -0.7541,0 -2.4126,-0.97844 -3.68555,-2.17431 l -2.31445,-2.17432 -2.31445,2.17432 c -2.91259,2.73624 -4.45851,2.73624 -7.3711,0 l -2.31445,-2.17432 -2.31445,2.17432 c -1.27295,1.19587 -2.93145,2.17431 -3.68555,2.17431 -0.7541,0 -2.4126,-0.97844 -3.68555,-2.17431 l -2.31445,-2.17432 -2.31445,2.17432 c -1.27295,1.19587 -2.93145,2.17431 -3.68555,2.17431 -0.7541,0 -2.4126,-0.97844 -3.68555,-2.17431 l -2.31445,-2.17432 -2.31445,2.17432 c -1.27295,1.19587 -2.93145,2.17431 -3.68555,2.17431 -0.7541,0 -2.4126,-0.97844 -3.68555,-2.17431 l -2.31445,-2.17432 -2.31445,2.17432 c -2.91259,2.73624 -4.45851,2.73624 -7.3711,0 l -2.31445,-2.17432 -2.31445,2.17432 c -2.91259,2.73624 -4.45851,2.73624 -7.3711,0 l -2.31445,-2.17432 -2.31445,2.17432 c -1.27295,1.19587 -2.93145,2.17431 -3.68555,2.17431 -0.7541,0 -2.4126,-0.97844 -3.68555,-2.17431 l -2.31445,-2.17432 -2.31445,2.17432 c -1.27295,1.19587 -3.07295,2.17431 -4,2.17431 -1.13125,0 -1.68555,0.82213 -1.68555,2.5 0,2.33333 0.33333,2.5 5,2.5 h 5 v 3.35326 3.35327 l 7.65088,0.64673 c 4.20798,0.35571 9.81715,0.64674 12.46481,0.64674 5.6912,0 6.88431,1.46174 6.88431,8.43426 0,3.39177 0.38569,4.56574 1.5,4.56574 1.04762,0 1.5,1.05556 1.5,3.5 v 3.5 h 5 5 v 3.5 3.5 h 5 5 v 3.5 c 0,3.33333 0.16667,3.5 3.5,3.5 h 3.5 v -15.06574 c 0,-8.47285 0.453,-15.91219 1.03518,-17 0.94457,-1.76494 2.21079,-1.93426 14.46482,-1.93426 12.25403,0 13.52025,0.16932 14.46482,1.93426 0.63614,1.18865 1.03518,11.78923 1.03518,27.5 0,16.37716 0.35941,25.56574 1,25.56574 0.55,0 1,1.575 1,3.5 v 3.5 h 5 5 v 3.5 3.5 h 5 5 v 3.5 c 0,3.41667 0.0952,3.5 4,3.5 h 4 v -36.06574 c 0,-22.94868 0.37649,-36.76923 1.03518,-38 0.94457,-1.76494 2.21079,-1.93426 14.46482,-1.93426 12.25403,0 13.52025,0.16932 14.46482,1.93426 0.66901,1.25007 1.03825,17.78648 1.04387,46.75 0.005,24.64866 0.29246,47.17824 0.63929,50.06574 l 0.6306,5.25 h 4.86071 4.86071 v 3.5 3.5 h 5 5 v 3.5 c 0,3.48148 0.0238,3.5 4.5,3.5 h 4.5 v -57.06574 c 0,-37.42452 0.3563,-57.73149 1.03518,-59 0.94457,-1.76494 2.21079,-1.93426 14.46482,-1.93426 12.25403,0 13.52025,0.16932 14.46482,1.93426 0.68572,1.28128 1.03518,25.92493 1.03518,73 v 71.06574 h 5 5 v 3.5 3.5 h 5 5 v 3.5 3.5 h 5 5 v -78.06574 c 0,-51.90035 0.34696,-78.71405 1.03518,-80 0.94457,-1.76494 2.21079,-1.93426 14.46482,-1.93426 12.25403,0 13.52025,0.16932 14.46482,1.93426 0.69207,1.29315 1.03518,32.4491 1.03518,94 v 92.06574 h 4.5 c 4.47619,0 4.5,0.0185 4.5,3.5 v 3.5 h 5 5 v 3.5 3.5 h 5 5 v 3.5 c 0,3.48148 0.0238,3.5 4.5,3.5 h 4.5 z m -328,108.65499 v -3 h -27 -27 v 3 3 h 27 27 z m 0,-7 v -3 h -27 -27 v 3 3 h 27 27 z m 0,-7 v -3 h -27 -27 v 3 3 h 27 27 z m 0,-7 v -3 h -27 -27 v 3 3 h 27 27 z m -333,-6.5 v -3.5 h 5 5 v -3.5 c 0,-3.48148 0.0238,-3.5 4.5,-3.5 h 4.5 v -81.06574 c 0,-53.96832 -0.34603,-81.7123 -1.03518,-83 -0.93822,-1.75308 -2.19946,-1.93426 -13.46482,-1.93426 -11.265363,0 -12.526597,0.18118 -13.464817,1.93426 -0.6911,1.29133 -1.03519,31.2064 -1.03519,90 v 88.06574 h 5.000007 5 z m 622,-84.56574 c 0,-58.7936 -0.34408,-88.70867 -1.03518,-90 -0.93822,-1.75308 -2.19946,-1.93426 -13.46482,-1.93426 -11.26536,0 -12.5266,0.18118 -13.46482,1.93426 -0.68915,1.2877 -1.03518,29.03168 -1.03518,83 v 81.06574 h 4.5 c 4.47619,0 4.5,0.0185 4.5,3.5 v 3.5 h 5 5 v 3.5 3.5 h 5 5 z m -289,84.06574 v -3 h -27 -27 v 3 3 h 27 27 z m 0,-7 v -3 h -27 -27 v 3 3 h 27 27 z m 0,-7 v -3 h -27 -27 v 3 3 h 27 27 z m 0,-7 v -3 h -27 -27 v 3 3 h 27 27 z m 0,-7 v -3 h -27 -27 v 3 3 h 27 27 z m 0,-7 v -3 h -27 -27 v 3 3 h 27 27 z m -273,-6.5 v -3.5 h 5 5 v -3.5 -3.5 h 5 5 v -60.06574 c 0,-39.49249 -0.35456,-60.72825 -1.03518,-62 -0.93822,-1.75308 -2.19946,-1.93426 -13.46482,-1.93426 -11.26536,0 -12.5266,0.18118 -13.46482,1.93426 -0.68406,1.27818 -1.03518,24.68223 -1.03518,69 v 67.06574 h 4.5 c 4.47619,0 4.5,-0.0185 4.5,-3.5 z m 501,-63.56574 c 0,-44.31777 -0.35112,-67.72182 -1.03518,-69 -0.93822,-1.75308 -2.19946,-1.93426 -13.46482,-1.93426 -11.26536,0 -12.5266,0.18118 -13.46482,1.93426 -0.68062,1.27175 -1.03518,22.50751 -1.03518,62 v 60.06574 h 5 5 v 3.5 3.5 h 5 5 v 3.5 c 0,3.48148 0.0238,3.5 4.5,3.5 h 4.5 z m -228,63.06574 v -3 h -27 -27 v 3 3 h 27 27 z m 0,-7 v -3 h -27 -27 v 3 3 h 27 27 z m 0,-7 v -3 h -27 -27 v 3 3 h 27 27 z m 0,-7 v -3 h -27 -27 v 3 3 h 27 27 z m 0,-7 v -3 h -27 -27 v 3 3 h 27 27 z m 0,-7 v -3 h -27 -27 v 3 3 h 27 27 z m -213,-6.5 v -3.5 h 5 5 v -3.5 -3.5 h 4.86071 4.86071 l 0.6306,-5.25 c 1.081,-8.99982 0.75139,-72.68826 -0.3872,-74.81574 -0.93822,-1.75308 -2.19946,-1.93426 -13.46482,-1.93426 -11.26536,0 -12.5266,0.18118 -13.46482,1.93426 -0.6706,1.25303 -1.03518,18.15806 -1.03518,48 v 46.06574 h 4 c 3.90476,0 4,-0.0833 4,-3.5 z m 380,-42.56574 c 0,-29.84194 -0.36458,-46.74697 -1.03518,-48 -0.93822,-1.75308 -2.19946,-1.93426 -13.46482,-1.93426 -11.26536,0 -12.5266,0.18118 -13.46482,1.93426 -1.13859,2.12748 -1.4682,65.81592 -0.3872,74.81574 l 0.6306,5.25 h 4.86071 4.86071 v 3.5 3.5 h 5 5 v 3.5 c 0,3.41667 0.0952,3.5 4,3.5 h 4 z m -167,42.06574 v -3 h -27 -27 v 3 3 h 27 27 z m 0,-7 v -3 h -27 -27 v 3 3 h 27 27 z m 0,-7 v -3 h -27 -27 v 3 3 h 27 27 z m 0,-7 v -3 h -27 -27 v 3 3 h 27 27 z m 0,-7 v -3 h -27 -27 v 3 3 h 27 27 z m 0,-7 v -3 h -27 -27 v 3 3 h 27 27 z m -153,-6.5 v -3.5 h 5 5 v -3.5 -3.5 h 5 5 v -3.5 c 0,-1.925 0.45,-3.5 1,-3.5 1.35369,0 1.32138,-28.53099 -0.0352,-31.06574 -0.9382,-1.75308 -2.19944,-1.93426 -13.4648,-1.93426 -11.26536,0 -12.5266,0.18118 -13.46482,1.93426 -0.6346,1.18576 -1.03518,11.63389 -1.03518,27 v 25.06574 h 3.5 c 3.33333,0 3.5,-0.16667 3.5,-3.5 z m 259,-21.56574 c 0,-15.36611 -0.40058,-25.81424 -1.03518,-27 -0.93822,-1.75308 -2.19946,-1.93426 -13.46482,-1.93426 -11.26536,0 -12.5266,0.18118 -13.46482,1.93426 -1.35656,2.53475 -1.38887,31.06574 -0.0352,31.06574 0.55,0 1,1.575 1,3.5 v 3.5 h 5 5 v 3.5 3.5 h 5 5 v 3.5 c 0,3.33333 0.16667,3.5 3.5,3.5 h 3.5 z m -106,21.06574 v -3 h -27 -27 v 3 3 h 27 27 z m 0,-7 v -3 h -27 -27 v 3 3 h 27 27 z m 0,-6.5 v -2.5 h -27 -27 v 2.5 2.5 h 27 27 z m 0,-6.5 v -3 h -27 -27 v 3 3 h 27 27 z m 0,-7 v -3 h -27 -27 v 3 3 h 27 27 z m 0,-7 v -3 h -27 -27 v 3 3 h 27 27 z m -93,-7.5 v -3.5 h 5 c 4.66667,0 5,-0.16667 5,-2.5 0,-2.42737 -0.20235,-2.5 -6.96482,-2.5 -7.96785,0 -9.03518,0.93728 -9.03518,7.93426 0,3.85082 0.15858,4.06574 3,4.06574 2.7619,0 3,-0.27778 3,-3.5 z m 93,0.5 v -3 h -27 -27 v 3 3 h 27 27 z m 45,-1.06574 c 0,-6.99698 -1.06733,-7.93426 -9.03518,-7.93426 -6.76247,0 -6.96482,0.0726 -6.96482,2.5 0,2.33333 0.33333,2.5 5,2.5 h 5 v 3.5 c 0,3.22222 0.2381,3.5 3,3.5 2.84142,0 3,-0.21492 3,-4.06574 z m -45,-5.93426 v -3 h -27 -27 v 3 3 h 27 27 z m 0,-7 v -3 h -27 -27 v 3 3 h 27 27 z m 0,-7 v -3 h -27 -27 v 3 3 h 27 27 z m -325.80472,-5.68709 2.80472,-2.68709 3,2.87418 3,2.87418 3,-2.87418 3,-2.87418 2.91874,2.79633 c 1.60531,1.53798 3.40531,2.49561 4,2.12807 0.7565,-0.46754 1.08126,-19.5924 1.08126,-63.67498 0,-41.51978 0.35302,-63.66636 1.03518,-64.94098 0.93822,-1.75308 2.19946,-1.93426 13.46482,-1.93426 11.26536,0 12.5266,0.18118 13.46482,1.93426 0.68133,1.27308 1.03518,22.91937 1.03518,63.32568 v 61.39143 l 2.50673,2.35496 2.50674,2.35495 2.99326,-2.86773 2.99327,-2.86773 3,2.87418 3,2.87418 3,-2.87418 3,-2.87418 v -60.87865 c 0,-40.05285 0.35412,-61.54034 1.03518,-62.81291 0.93822,-1.75308 2.19946,-1.93426 13.46482,-1.93426 11.26536,0 12.5266,0.18118 13.46482,1.93426 0.68243,1.27514 1.03518,23.59487 1.03518,65.5 0,34.96116 0.31288,63.56574 0.69528,63.56574 0.38241,0 1.95741,-1.20919 3.5,-2.68709 l 2.80472,-2.68709 3,2.87418 3,2.87418 2.98277,-2.85767 c 2.90699,-2.78507 3.03401,-2.8113 5,-1.0321 l 2.01723,1.82557 v -62.72073 c 0,-41.32264 0.35317,-63.38063 1.03518,-64.65499 0.93822,-1.75308 2.19946,-1.93426 13.46482,-1.93426 11.26536,0 12.5266,0.18118 13.46482,1.93426 0.68174,1.27385 1.03518,23.1669 1.03518,64.12244 0,55.81554 0.15742,62.05755 1.53616,60.91329 1.28526,-1.06667 2.02023,-0.81112 4.5,1.56465 l 2.96384,2.83954 3,-2.87418 3,-2.87418 2.91874,2.79633 c 1.60531,1.53798 3.40531,2.49561 4,2.12807 0.7565,-0.46754 1.08126,-19.5924 1.08126,-63.67498 0,-41.51978 0.35302,-63.66636 1.03518,-64.94098 0.93822,-1.75308 2.19946,-1.93426 13.46482,-1.93426 11.26536,0 12.5266,0.18118 13.46482,1.93426 0.68133,1.27308 1.03518,22.91937 1.03518,63.32568 v 61.39143 l 2.50673,2.35496 2.50674,2.35495 2.99326,-2.86773 2.99327,-2.86773 3,2.87418 3,2.87418 3,-2.87418 3,-2.87418 v -60.87865 c 0,-40.05285 0.35412,-61.54034 1.03518,-62.81291 0.93822,-1.75308 2.19946,-1.93426 13.46482,-1.93426 11.26536,0 12.5266,0.18118 13.46482,1.93426 0.68243,1.27514 1.03518,23.59487 1.03518,65.5 v 63.56574 h 5 5 v -71.37756 c 0,-62.83486 -0.18303,-71.52945 -1.52932,-72.64677 -1.26545,-1.05023 -1.92358,-0.89882 -3.81445,0.87756 -2.88301,2.70845 -4.43565,2.70262 -7.34178,-0.0275 l -2.31445,-2.17436 -2.31445,2.17432 c -1.27295,1.19587 -2.93145,2.17431 -3.68555,2.17431 -0.7541,0 -2.4126,-0.97844 -3.68555,-2.17431 l -2.31445,-2.17432 -2.31445,2.17432 c -1.27295,1.19587 -2.93145,2.17431 -3.68555,2.17431 -0.7541,0 -2.4126,-0.97844 -3.68555,-2.17431 l -2.31445,-2.17432 -2.31445,2.17432 c -1.27295,1.19587 -2.93145,2.17431 -3.68555,2.17431 -0.7541,0 -2.4126,-0.97844 -3.68555,-2.17431 l -2.31445,-2.17432 -2.31445,2.17432 c -1.27295,1.19587 -2.93145,2.17431 -3.68555,2.17431 -0.7541,0 -2.4126,-0.97844 -3.68555,-2.17431 l -2.31445,-2.17432 -2.31445,2.17432 c -1.27295,1.19587 -2.93145,2.17431 -3.68555,2.17431 -0.7541,0 -2.4126,-0.97844 -3.68555,-2.17431 l -2.31445,-2.17432 -2.31445,2.17432 c -1.27295,1.19587 -2.93145,2.17431 -3.68555,2.17431 -0.7541,0 -2.4126,-0.97844 -3.68555,-2.17431 l -2.31445,-2.17432 -2.31445,2.17432 c -1.27295,1.19587 -2.93145,2.17431 -3.68555,2.17431 -0.7541,0 -2.4126,-0.97844 -3.68555,-2.17431 l -2.31445,-2.17432 -2.31445,2.17432 c -1.27295,1.19587 -2.93145,2.17431 -3.68555,2.17431 -0.7541,0 -2.4126,-0.97844 -3.68555,-2.17431 l -2.31445,-2.17432 -2.31445,2.17432 c -1.27295,1.19587 -2.93145,2.17431 -3.68555,2.17431 -0.7541,0 -2.4126,-0.97844 -3.68555,-2.17431 l -2.31445,-2.17432 -2.31445,2.17432 c -1.27295,1.19587 -2.93145,2.17431 -3.68555,2.17431 -0.7541,0 -2.4126,-0.97844 -3.68555,-2.17431 l -2.31445,-2.17432 -2.31445,2.17432 c -1.27295,1.19587 -2.93145,2.17431 -3.68555,2.17431 -0.7541,0 -2.4126,-0.97844 -3.68555,-2.17431 l -2.31445,-2.17432 -2.31445,2.17432 c -1.27295,1.19587 -2.93145,2.17431 -3.68555,2.17431 -0.7541,0 -2.4126,-0.97844 -3.68555,-2.17431 l -2.31445,-2.17432 -2.31445,2.17432 c -1.27295,1.19587 -2.93145,2.17431 -3.68555,2.17431 -0.7541,0 -2.4126,-0.97844 -3.68555,-2.17431 l -2.31445,-2.17432 -2.31445,2.17432 c -1.27295,1.19587 -2.93145,2.17431 -3.68555,2.17431 -0.7541,0 -2.4126,-0.97844 -3.68555,-2.17431 l -2.31445,-2.17432 -2.31445,2.17432 c -1.27295,1.19587 -2.93145,2.17431 -3.68555,2.17431 -0.7541,0 -2.4126,-0.97844 -3.68555,-2.17431 l -2.31445,-2.17432 -2.31445,2.17432 c -1.27295,1.19587 -2.93145,2.17431 -3.68555,2.17431 -0.7541,0 -2.4126,-0.97844 -3.68555,-2.17431 l -2.31445,-2.17432 -2.31445,2.17432 c -1.27295,1.19587 -2.93145,2.17431 -3.68555,2.17431 -0.7541,0 -2.4126,-0.97844 -3.68555,-2.17431 l -2.31445,-2.17432 -2.31445,2.17432 c -1.27295,1.19587 -2.93145,2.17431 -3.68555,2.17431 -0.7541,0 -2.4126,-0.97844 -3.68555,-2.17431 l -2.31445,-2.17432 -2.31445,2.17432 c -1.27295,1.19587 -2.93145,2.17431 -3.68555,2.17431 -0.7541,0 -2.4126,-0.97844 -3.68555,-2.17431 l -2.31445,-2.17432 -2.31445,2.17432 c -1.27295,1.19587 -2.93145,2.17431 -3.68555,2.17431 -0.7541,0 -2.4126,-0.97844 -3.68555,-2.17431 l -2.31445,-2.17432 -2.31445,2.17432 c -1.27295,1.19587 -2.93145,2.17431 -3.68555,2.17431 -0.7541,0 -2.4126,-0.97844 -3.68555,-2.17431 l -2.31445,-2.17432 -2.31445,2.17432 c -2.773,2.60509 -4.41467,2.72943 -6.85681,0.51932 -1.76999,-1.60182 -1.82874,0.58852 -1.82874,68.18555 v 69.84054 l 2.17431,2.31445 c 2.70238,2.87655 2.62452,2.88137 6.02097,-0.37264 z m 36,0 2.80472,-2.68709 3,2.87418 3,2.87418 3,-2.87418 3,-2.87418 v -60.37865 c 0,-39.70819 -0.35439,-61.04084 -1.03518,-62.31291 -0.93077,-1.73914 -2.18813,-1.93426 -12.46482,-1.93426 -10.27669,0 -11.53405,0.19512 -12.46482,1.93426 -0.68148,1.27337 -1.03518,23.01156 -1.03518,63.62244 0,55.72911 0.15043,61.56334 1.55729,60.39576 1.31161,-1.08855 1.97849,-0.87123 4.22727,1.37755 1.46849,1.4685 2.88059,2.66999 3.13799,2.66999 0.25741,0 1.73014,-1.20919 3.27273,-2.68709 z m 48,0 2.80472,-2.68709 3,2.87418 3,2.87418 2.98277,-2.85767 c 2.90699,-2.78507 3.03401,-2.8113 5,-1.0321 l 2.01723,1.82557 v -62.22073 c 0,-40.97798 -0.35342,-62.88111 -1.03518,-64.15499 -0.93077,-1.73914 -2.18813,-1.93426 -12.46482,-1.93426 -10.27669,0 -11.53405,0.19512 -12.46482,1.93426 -0.68099,1.27244 -1.03518,22.72049 -1.03518,62.68555 v 60.75129 l 2.17431,2.31445 c 2.70238,2.87655 2.62452,2.88137 6.02097,-0.37264 z m 48,0 2.80472,-2.68709 3,2.87418 3,2.87418 3,-2.87418 3,-2.87418 2.91874,2.79633 c 1.60531,1.53798 3.40531,2.49561 4,2.12807 1.47767,-0.91325 1.52242,-124.85738 0.0461,-127.61596 -0.93079,-1.73914 -2.18815,-1.93426 -12.46484,-1.93426 -10.27669,0 -11.53405,0.19512 -12.46482,1.93426 -1.17271,2.19123 -1.5068,128.06574 -0.3399,128.06574 0.38241,0 1.95741,-1.20919 3.5,-2.68709 z m 60,0 2.80472,-2.68709 3,2.87418 3,2.87418 3,-2.87418 3,-2.87418 v -60.37865 c 0,-39.70819 -0.35439,-61.04084 -1.03518,-62.31291 -0.93077,-1.73914 -2.18813,-1.93426 -12.46482,-1.93426 -10.27669,0 -11.53405,0.19512 -12.46482,1.93426 -0.68148,1.27337 -1.03518,23.01156 -1.03518,63.62244 0,55.72911 0.15043,61.56334 1.55729,60.39576 1.31161,-1.08855 1.97849,-0.87123 4.22727,1.37755 1.46849,1.4685 2.88059,2.66999 3.13799,2.66999 0.25741,0 1.73014,-1.20919 3.27273,-2.68709 z m 48,0 2.80472,-2.68709 3,2.87418 3,2.87418 2.98277,-2.85767 c 2.90699,-2.78507 3.03401,-2.8113 5,-1.0321 l 2.01723,1.82557 v -62.22073 c 0,-40.97798 -0.35342,-62.88111 -1.03518,-64.15499 -0.93077,-1.73914 -2.18813,-1.93426 -12.46482,-1.93426 -10.27669,0 -11.53405,0.19512 -12.46482,1.93426 -0.68099,1.27244 -1.03518,22.72049 -1.03518,62.68555 v 60.75129 l 2.17431,2.31445 c 2.70238,2.87655 2.62452,2.88137 6.02097,-0.37264 z m 97.80472,-60.87865 c 0,-41.90513 0.35275,-64.22486 1.03518,-65.5 0.93822,-1.75308 2.19946,-1.93426 13.46482,-1.93426 11.26536,0 12.5266,0.18118 13.46482,1.93426 0.68106,1.27257 1.03518,22.76006 1.03518,62.81291 v 60.87865 l 3,2.87418 3,2.87418 3,-2.87418 3,-2.87418 2.99327,2.86773 2.99326,2.86773 2.50674,-2.35495 2.50673,-2.35496 v -61.39143 c 0,-40.40631 0.35385,-62.0526 1.03518,-63.32568 0.93822,-1.75308 2.19946,-1.93426 13.46482,-1.93426 11.26536,0 12.5266,0.18118 13.46482,1.93426 0.68216,1.27462 1.03518,23.4212 1.03518,64.94098 0,44.08258 0.32476,63.20744 1.08126,63.67498 0.59469,0.36754 2.39469,-0.59009 4,-2.12807 l 2.91874,-2.79633 3,2.87418 3,2.87418 2.96384,-2.83954 c 2.47977,-2.37577 3.21474,-2.63132 4.5,-1.56465 1.37874,1.14426 1.53616,-5.09775 1.53616,-60.91329 0,-40.95554 0.35344,-62.84859 1.03518,-64.12244 0.93822,-1.75308 2.19946,-1.93426 13.46482,-1.93426 11.26536,0 12.5266,0.18118 13.46482,1.93426 0.68201,1.27436 1.03518,23.33235 1.03518,64.65499 v 62.72073 l 2.01723,-1.82557 c 1.96599,-1.7792 2.09301,-1.75297 5,1.0321 l 2.98277,2.85767 3,-2.87418 3,-2.87418 2.80472,2.68709 c 1.54259,1.4779 3.11759,2.68709 3.5,2.68709 0.3824,0 0.69528,-28.60458 0.69528,-63.56574 0,-41.90513 0.35275,-64.22486 1.03518,-65.5 0.93822,-1.75308 2.19946,-1.93426 13.46482,-1.93426 11.26536,0 12.5266,0.18118 13.46482,1.93426 0.68106,1.27257 1.03518,22.76006 1.03518,62.81291 v 60.87865 l 3,2.87418 3,2.87418 3,-2.87418 3,-2.87418 2.99327,2.86773 2.99326,2.86773 2.50674,-2.35495 2.50673,-2.35496 v -61.39143 c 0,-40.40631 0.35385,-62.0526 1.03518,-63.32568 0.93822,-1.75308 2.19946,-1.93426 13.46482,-1.93426 11.26536,0 12.5266,0.18118 13.46482,1.93426 0.68216,1.27462 1.03518,23.4212 1.03518,64.94098 0,44.08258 0.32476,63.20744 1.08126,63.67498 0.59469,0.36754 2.39469,-0.59009 4,-2.12807 l 2.91874,-2.79633 3,2.87418 3,2.87418 3,-2.87418 3,-2.87418 2.99327,2.86773 2.99326,2.86773 2.50674,-2.35495 2.50673,-2.35496 v -69.98067 c 0,-67.7328 -0.0587,-69.92751 -1.82874,-68.32569 -2.44214,2.21011 -4.08381,2.08577 -6.85681,-0.51932 l -2.31445,-2.17432 -2.31445,2.17432 c -1.27295,1.19587 -2.93145,2.17431 -3.68555,2.17431 -0.7541,0 -2.4126,-0.97844 -3.68555,-2.17431 l -2.31445,-2.17432 -2.31445,2.17432 c -1.27295,1.19587 -2.93145,2.17431 -3.68555,2.17431 -0.7541,0 -2.4126,-0.97844 -3.68555,-2.17431 l -2.31445,-2.17432 -2.31445,2.17432 c -1.27295,1.19587 -2.93145,2.17431 -3.68555,2.17431 -0.7541,0 -2.4126,-0.97844 -3.68555,-2.17431 l -2.31445,-2.17432 -2.31445,2.17432 c -1.27295,1.19587 -2.93145,2.17431 -3.68555,2.17431 -0.7541,0 -2.4126,-0.97844 -3.68555,-2.17431 l -2.31445,-2.17432 -2.31445,2.17432 c -1.27295,1.19587 -2.93145,2.17431 -3.68555,2.17431 -0.7541,0 -2.4126,-0.97844 -3.68555,-2.17431 l -2.31445,-2.17432 -2.31445,2.17432 c -1.27295,1.19587 -2.93145,2.17431 -3.68555,2.17431 -0.7541,0 -2.4126,-0.97844 -3.68555,-2.17431 l -2.31445,-2.17432 -2.31445,2.17432 c -2.91259,2.73624 -4.45851,2.73624 -7.3711,0 l -2.31445,-2.17432 -2.31445,2.17432 c -1.27295,1.19587 -2.93145,2.17431 -3.68555,2.17431 -0.7541,0 -2.4126,-0.97844 -3.68555,-2.17431 l -2.31445,-2.17432 -2.31445,2.17432 c -1.27295,1.19587 -2.93145,2.17431 -3.68555,2.17431 -0.7541,0 -2.4126,-0.97844 -3.68555,-2.17431 l -2.31445,-2.17432 -2.31445,2.17432 c -1.27295,1.19587 -2.93145,2.17431 -3.68555,2.17431 -0.7541,0 -2.4126,-0.97844 -3.68555,-2.17431 l -2.31445,-2.17432 -2.31445,2.17432 c -1.27295,1.19587 -2.93145,2.17431 -3.68555,2.17431 -0.7541,0 -2.4126,-0.97844 -3.68555,-2.17431 l -2.31445,-2.17432 -2.31445,2.17432 c -1.27295,1.19587 -2.93145,2.17431 -3.68555,2.17431 -0.7541,0 -2.4126,-0.97844 -3.68555,-2.17431 l -2.31445,-2.17432 -2.31445,2.17432 c -1.27295,1.19587 -2.93145,2.17431 -3.68555,2.17431 -0.7541,0 -2.4126,-0.97844 -3.68555,-2.17431 l -2.31445,-2.17432 -2.31445,2.17432 c -1.27295,1.19587 -2.93145,2.17431 -3.68555,2.17431 -0.7541,0 -2.4126,-0.97844 -3.68555,-2.17431 l -2.31445,-2.17432 -2.31445,2.17432 c -1.27295,1.19587 -2.93145,2.17431 -3.68555,2.17431 -0.7541,0 -2.4126,-0.97844 -3.68555,-2.17431 l -2.31445,-2.17432 -2.31445,2.17432 c -1.27295,1.19587 -2.93145,2.17431 -3.68555,2.17431 -0.7541,0 -2.4126,-0.97844 -3.68555,-2.17431 l -2.31445,-2.17432 -2.31445,2.17432 c -1.27295,1.19587 -2.93145,2.17431 -3.68555,2.17431 -0.7541,0 -2.4126,-0.97844 -3.68555,-2.17431 l -2.31445,-2.17432 -2.31445,2.17432 c -1.27295,1.19587 -2.93145,2.17431 -3.68555,2.17431 -0.7541,0 -2.4126,-0.97844 -3.68555,-2.17431 l -2.31445,-2.17432 -2.31445,2.17432 c -1.27295,1.19587 -2.93145,2.17431 -3.68555,2.17431 -0.7541,0 -2.4126,-0.97844 -3.68555,-2.17431 l -2.31445,-2.17432 -2.31445,2.17432 c -1.27295,1.19587 -2.93145,2.17431 -3.68555,2.17431 -0.7541,0 -2.4126,-0.97844 -3.68555,-2.17431 l -2.31445,-2.17432 -2.31445,2.17432 c -1.27295,1.19587 -2.93145,2.17431 -3.68555,2.17431 -0.7541,0 -2.4126,-0.97844 -3.68555,-2.17431 l -2.31445,-2.17432 -2.31445,2.17432 c -2.90613,2.73016 -4.45877,2.73599 -7.34178,0.0275 -1.89087,-1.77638 -2.549,-1.92779 -3.81445,-0.87756 -1.34629,1.11736 -1.52932,9.81195 -1.52932,72.64681 v 71.37756 h 5 5 z m 14.19528,60.87865 2.80472,-2.68709 2.99327,2.86773 2.99326,2.86773 2.50674,-2.35495 2.50673,-2.35496 v -60.89143 c 0,-40.06165 -0.35412,-61.5531 -1.03518,-62.82568 -0.93077,-1.73914 -2.18813,-1.93426 -12.46482,-1.93426 -10.27669,0 -11.53405,0.19512 -12.46482,1.93426 -0.68176,1.27388 -1.03518,23.17701 -1.03518,64.15499 v 62.22073 l 2.03795,-1.84432 c 1.99214,-1.80287 2.09838,-1.78388 4.72727,0.84501 1.47913,1.47913 2.89993,2.68933 3.15733,2.68933 0.25741,0 1.73014,-1.20919 3.27273,-2.68709 z m 48,0 2.80472,-2.68709 3,2.87418 3,2.87418 2.96384,-2.83954 c 2.47977,-2.37577 3.21474,-2.63132 4.5,-1.56465 1.37872,1.14424 1.53616,-5.04742 1.53616,-60.41329 0,-40.61088 -0.3537,-62.34907 -1.03518,-63.62244 -0.93077,-1.73914 -2.18813,-1.93426 -12.46482,-1.93426 -10.27669,0 -11.53405,0.19512 -12.46482,1.93426 -0.68072,1.27195 -1.03518,22.56818 -1.03518,62.19528 v 60.26102 l 2.68709,2.80472 c 1.4779,1.5426 2.91578,2.80472 3.19528,2.80472 0.27951,0 1.77032,-1.20919 3.31291,-2.68709 z m 48,0 2.80472,-2.68709 3,2.87418 3,2.87418 3,-2.87418 3,-2.87418 2.80472,2.68709 c 1.54259,1.4779 3.11759,2.68709 3.5,2.68709 1.1669,0 0.83281,-125.87451 -0.3399,-128.06574 -0.93077,-1.73914 -2.18813,-1.93426 -12.46482,-1.93426 -10.27669,0 -11.53405,0.19512 -12.46482,1.93426 -1.15513,2.15839 -1.51409,126.25349 -0.36851,127.39907 1.0548,1.05481 1.54881,0.83441 4.52861,-2.02042 z m 60,0 2.80472,-2.68709 2.99327,2.86773 2.99326,2.86773 2.50674,-2.35495 2.50673,-2.35496 v -60.89143 c 0,-40.06165 -0.35412,-61.5531 -1.03518,-62.82568 -0.93077,-1.73914 -2.18813,-1.93426 -12.46482,-1.93426 -10.27669,0 -11.53405,0.19512 -12.46482,1.93426 -0.68176,1.27388 -1.03518,23.17701 -1.03518,64.15499 v 62.22073 l 2.03795,-1.84432 c 1.99214,-1.80287 2.09838,-1.78388 4.72727,0.84501 1.47913,1.47913 2.89993,2.68933 3.15733,2.68933 0.25741,0 1.73014,-1.20919 3.27273,-2.68709 z m 48,0 2.80472,-2.68709 3,2.87418 3,2.87418 2.96384,-2.83954 c 2.47977,-2.37577 3.21474,-2.63132 4.5,-1.56465 1.37872,1.14424 1.53616,-5.04742 1.53616,-60.41329 0,-40.61088 -0.3537,-62.34907 -1.03518,-63.62244 -0.93077,-1.73914 -2.18813,-1.93426 -12.46482,-1.93426 -10.27669,0 -11.53405,0.19512 -12.46482,1.93426 -0.68072,1.27195 -1.03518,22.56818 -1.03518,62.19528 v 60.26102 l 2.68709,2.80472 c 1.4779,1.5426 2.91578,2.80472 3.19528,2.80472 0.27951,0 1.77032,-1.20919 3.31291,-2.68709 z m -230.19528,-1.31291 v -3 h -27 -27 v 3 3 h 27 27 z m 0,-7 v -3 h -27 -27 v 3 3 h 27 27 z m 0,-7 v -3 h -27 -27 v 3 3 h 27 27 z m 0,-7 v -3 h -27 -27 v 3 3 h 27 27 z m 0,-7 v -3 h -27 -27 v 3 3 h 27 27 z m 0,-7 v -3 h -27 -27 v 3 3 h 27 27 z m 0,-7 v -3 h -27 -27 v 3 3 h 27 27 z m 0,-7 v -3 h -27 -27 v 3 3 h 27 27 z m 0,-7 v -3 h -27 -27 v 3 3 h 27 27 z m 0,-7 v -3 h -27 -27 v 3 3 h 27 27 z m 0,-7 v -3 h -27 -27 v 3 3 h 27 27 z m 0,-7 v -3 h -27 -27 v 3 3 h 27 27 z m 0,-7 v -3 h -27 -27 v 3 3 h 27 27 z m 0,-7 v -3 h -27 -27 v 3 3 h 27 27 z m 0,-7 v -3 h -27 -27 v 3 3 h 27 27 z m 0,-7 v -3 h -27 -27 v 3 3 h 27 27 z m 0,-7 v -3 h -27 -27 v 3 3 h 27 27 z m 0,-6.5 v -2.5 h -27 -27 v 2.5 2.5 h 27 27 z m 0,-6 v -2.5 h -27 -27 v 2.5 2.5 h 27 27 z m -52,-34 c 0,-29.83333 -0.0437,-30.5 -2,-30.5 -1.94545,0 -2,0.66667 -2,24.44098 0,15.2153 0.37747,24.67427 1,25.05902 0.55,0.33992 1,3.06648 1,6.05902 0,2.99254 0.45,5.44098 1,5.44098 0.64481,0 1,-10.83333 1,-30.5 z m 5,0 c 0,-29.83333 -0.0437,-30.5 -2,-30.5 -1.95628,0 -2,0.66667 -2,30.5 0,29.83333 0.0437,30.5 2,30.5 1.95628,0 2,-0.66667 2,-30.5 z m 11,6.5 v -24 h 9 9 v 24 24 h 4.5 4.5 l -0.0553,-28.25 -0.0553,-28.25 -3.00026,-2.37209 -3.00025,-2.3721 -2.25887,2.1221 c -2.85651,2.68355 -4.41525,2.67242 -7.31551,-0.0522 l -2.31451,-2.17434 -2.31445,2.17432 c -2.90026,2.72464 -4.459,2.73577 -7.31551,0.0522 l -2.25887,-2.1221 -3.00025,2.3721 -3.00026,2.37209 -0.0553,28.25 -0.0554,28.25002 h 4.5 4.5 z m 33,-6.5 c 0,-29.83333 -0.0437,-30.5 -2,-30.5 -1.95628,0 -2,0.66667 -2,30.5 0,29.83333 0.0437,30.5 2,30.5 1.95628,0 2,-0.66667 2,-30.5 z m 3,25.05902 c 0,-2.99254 0.45,-5.7191 1,-6.05902 0.62253,-0.38475 1,-9.84372 1,-25.05902 0,-23.77431 -0.0546,-24.44098 -2,-24.44098 -1.95628,0 -2,0.66667 -2,30.5 0,19.66667 0.35519,30.5 1,30.5 0.55,0 1,-2.44844 1,-5.44098 z m -253.97231,-7.08849 c 1.30697,-1.39121 2.96041,-2.30534 3.67431,-2.03139 1.02731,0.39422 1.298,-2.53298 1.298,-14.03627 0,-8.10655 0.45781,-15.38978 1.03518,-16.46861 0.87057,-1.62667 2.13715,-1.93426 7.96482,-1.93426 5.82767,0 7.09425,0.30759 7.96482,1.93426 0.58765,1.09804 1.03518,8.73063 1.03518,17.65499 0,15.70215 0.002,15.71857 2.01723,13.89516 1.96561,-1.77885 2.09233,-1.75362 4.95163,0.98575 l 2.93439,2.81133 3.47618,-2.89074 3.47618,-2.89075 0.0722,-13.81574 c 0.0397,-7.59866 0.53803,-14.68616 1.10738,-15.75 0.87056,-1.62667 2.13714,-1.93426 7.96481,-1.93426 5.82767,0 7.09425,0.30759 7.96482,1.93426 0.59168,1.10556 1.03518,8.89198 1.03518,18.17431 v 16.24006 l 2.50673,-2.35496 2.50674,-2.35495 2.99326,2.86773 2.99327,2.86773 3,-2.87418 3,-2.87418 v -13.87865 c 0,-7.65456 0.46424,-14.7461 1.03518,-15.81291 0.87057,-1.62667 2.13715,-1.93426 7.96482,-1.93426 5.82767,0 7.09425,0.30759 7.96482,1.93426 0.59541,1.11254 1.03518,9.05128 1.03518,18.68709 v 16.75283 l 3,-2.87418 3,-2.87418 2.99327,2.86773 2.99326,2.86773 2.50674,-2.35495 c 2.45043,-2.30207 2.50673,-2.67819 2.50673,-16.74639 0,-8.00803 0.45916,-15.24937 1.03518,-16.32568 0.87057,-1.62667 2.13715,-1.93426 7.96482,-1.93426 5.82767,0 7.09425,0.30759 7.96482,1.93426 0.59407,1.11004 1.03518,8.99316 1.03518,18.5 0,9.11116 0.31288,16.56574 0.69528,16.56574 0.38241,0 1.95741,-1.20919 3.5,-2.68709 l 2.80472,-2.68709 2.98277,2.85767 c 2.90699,2.78507 3.03401,2.8113 5,1.0321 1.85116,-1.67527 2.01723,-3.0531 2.01723,-16.73632 0,-8.36601 0.45437,-15.75975 1.03518,-16.84501 0.87057,-1.62667 2.13715,-1.93426 7.96482,-1.93426 5.82767,0 7.09425,0.30759 7.96482,1.93426 0.5899,1.10224 1.03518,8.81949 1.03518,17.94098 0,10.39444 0.37911,16.24103 1.08126,16.67498 0.59469,0.36754 2.39469,-0.59009 4,-2.12807 l 2.91874,-2.79633 2.98277,2.85767 c 2.90699,2.78507 3.03401,2.8113 5,1.0321 1.91273,-1.73099 2.01723,-3.02939 2.01723,-25.06359 0,-19.04338 -0.2538,-23.33542 -1.40604,-23.77757 -0.77333,-0.29675 -2.19307,0.3301 -3.15499,1.39301 -2.27183,2.51035 -4.26711,2.44264 -7.12452,-0.24175 l -2.31445,-2.17432 -2.31445,2.17432 c -1.27295,1.19587 -2.93145,2.17431 -3.68555,2.17431 -0.7541,0 -2.4126,-0.97844 -3.68555,-2.17431 l -2.31445,-2.17432 -2.31445,2.17432 c -1.27295,1.19587 -2.93145,2.17431 -3.68555,2.17431 -0.7541,0 -2.4126,-0.97844 -3.68555,-2.17431 l -2.31445,-2.17432 -2.31445,2.17432 c -1.27295,1.19587 -2.93145,2.17431 -3.68555,2.17431 -0.7541,0 -2.4126,-0.97844 -3.68555,-2.17431 l -2.31445,-2.17432 -2.31445,2.17432 c -1.27295,1.19587 -2.93145,2.17431 -3.68555,2.17431 -0.7541,0 -2.4126,-0.97844 -3.68555,-2.17431 l -2.31445,-2.17432 -2.31445,2.17432 c -1.27295,1.19587 -2.93145,2.17431 -3.68555,2.17431 -0.7541,0 -2.4126,-0.97844 -3.68555,-2.17431 l -2.31445,-2.17432 -2.31445,2.17432 c -1.27295,1.19587 -2.93145,2.17431 -3.68555,2.17431 -0.7541,0 -2.4126,-0.97844 -3.68555,-2.17431 l -2.31445,-2.17432 -2.31445,2.17432 c -1.27295,1.19587 -2.93145,2.17431 -3.68555,2.17431 -0.7541,0 -2.4126,-0.97844 -3.68555,-2.17431 l -2.31445,-2.17432 -2.31445,2.17432 c -1.27295,1.19587 -2.93145,2.17431 -3.68555,2.17431 -0.7541,0 -2.4126,-0.97844 -3.68555,-2.17431 l -2.31445,-2.17432 -2.31445,2.17432 c -1.27295,1.19587 -2.93145,2.17431 -3.68555,2.17431 -0.7541,0 -2.4126,-0.97844 -3.68555,-2.17431 l -2.31445,-2.17432 -2.31445,2.17432 c -1.27295,1.19587 -2.93145,2.17431 -3.68555,2.17431 -0.7541,0 -2.4126,-0.97844 -3.68555,-2.17431 l -2.31445,-2.17432 -2.31445,2.17432 c -1.27295,1.19587 -2.93145,2.17431 -3.68555,2.17431 -0.7541,0 -2.4126,-0.97844 -3.68555,-2.17431 l -2.31445,-2.17432 -2.31445,2.17432 c -1.27295,1.19587 -2.93145,2.17431 -3.68555,2.17431 -0.7541,0 -2.4126,-0.97844 -3.68555,-2.17431 l -2.31445,-2.17432 -2.31445,2.17432 c -1.27295,1.19587 -2.93145,2.17431 -3.68555,2.17431 -0.7541,0 -2.4126,-0.97844 -3.68555,-2.17431 l -2.31445,-2.17432 -2.31445,2.17432 c -1.27295,1.19587 -2.93145,2.17431 -3.68555,2.17431 -0.7541,0 -2.4126,-0.97844 -3.68555,-2.17431 l -2.31445,-2.17432 -2.31445,2.17432 c -2.773,2.60509 -4.41467,2.72943 -6.85681,0.51932 -1.76678,-1.59891 -1.82874,-0.8494 -1.82874,22.12245 0,21.41085 0.155,23.64879 1.55729,22.485 1.31161,-1.08855 1.97849,-0.87123 4.22727,1.37755 1.46849,1.4685 2.93927,2.66999 3.2684,2.66999 0.32913,0 1.66775,-1.13826 2.97473,-2.52947 z m 12.16759,-0.15762 2.80472,-2.68709 2.80472,2.68709 c 1.54259,1.4779 3.11759,2.68709 3.5,2.68709 1.12494,0 0.80641,-31.92384 -0.3399,-34.06574 -0.84479,-1.57849 -2.12582,-1.93426 -6.96482,-1.93426 -4.839,0 -6.12003,0.35577 -6.96482,1.93426 -1.50379,2.80986 -1.36071,31.34021 0.16482,32.86574 1.6297,1.6297 1.79271,1.58117 4.99528,-1.48709 z m 36,0 2.80472,-2.68709 3,2.87418 3,2.87418 v -16.25283 c 0,-9.29114 -0.44341,-17.08135 -1.03518,-18.18709 -0.84479,-1.57849 -2.12582,-1.93426 -6.96482,-1.93426 -4.839,0 -6.12003,0.35577 -6.96482,1.93426 -0.57453,1.07352 -1.03518,8.26968 -1.03518,16.17126 0,11.84435 0.27813,14.54433 1.65499,16.06574 2.12254,2.34538 2.21055,2.33174 5.54029,-0.85835 z m 35.99327,0.006 2.79798,-2.68064 2.50674,2.35495 2.50673,2.35496 v -15.74006 c 0,-8.93767 -0.44738,-16.57598 -1.03518,-17.67431 -0.84479,-1.57804 -2.12582,-1.93381 -6.96482,-1.93381 -4.839,0 -6.12003,0.35577 -6.96482,1.93426 -0.56962,1.06434 -1.03518,8.11878 -1.03518,15.68555 0,12.74247 0.15951,13.92108 2.17431,16.06574 2.70191,2.87604 2.6252,2.88071 6.01424,-0.36619 z m 35.9895,0.0101 c 2.71444,-2.6006 2.84035,-2.62275 4.80472,-0.84501 2.01458,1.82317 2.01723,1.80556 2.01723,-13.39516 0,-8.57969 -0.45167,-16.06468 -1.03518,-17.15499 -0.84479,-1.57808 -2.12582,-1.93385 -6.96482,-1.93385 -4.839,0 -6.12003,0.35577 -6.96482,1.93426 -0.56935,1.06384 -1.03518,7.90172 -1.03518,15.19528 0,13.02879 0.0471,13.31014 2.68709,16.06574 1.4779,1.5426 2.91578,2.80472 3.19528,2.80472 0.27951,0 1.76256,-1.20176 3.29568,-2.67058 z m 35.98108,0.0181 c 2.3122,-2.21523 3.02177,-2.4423 4.30471,-1.37756 1.36969,1.13674 1.53616,-0.31685 1.53616,-13.41329 0,-8.21259 -0.45638,-15.54094 -1.03518,-16.62244 -0.84479,-1.57805 -2.12582,-1.93382 -6.96482,-1.93382 -4.839,0 -6.12003,0.35577 -6.96482,1.93426 -0.56935,1.06384 -1.03518,7.82018 -1.03518,15.01409 v 13.07984 l 3.25,2.95659 c 1.7875,1.62613 3.45038,2.96978 3.69528,2.98591 0.24491,0.0161 1.69114,-1.16429 3.21385,-2.62314 z m 34.64087,1.45289 c 0.86749,-0.86749 1.2,-7.93333 1.2,-25.5 0,-23.63333 -0.0549,-24.3 -2,-24.3 -1.94771,0 -2,0.66667 -2,25.5 0,14.025 0.36,25.5 0.8,25.5 0.44,0 1.34,-0.54 2,-1.2 z m 75.2,-24.3 c 0,-24.83333 -0.0523,-25.5 -2,-25.5 -1.94513,0 -2,0.66667 -2,24.3 0,23.70862 0.35852,26.7 3.2,26.7 0.44,0 0.8,-11.475 0.8,-25.5 z m 14.19528,22.81291 2.80472,-2.68709 2.91874,2.79633 c 1.60531,1.53798 3.40531,2.49561 4,2.12807 0.70215,-0.43395 1.08126,-6.28054 1.08126,-16.67498 0,-9.12149 0.44528,-16.83874 1.03518,-17.94098 0.87057,-1.62667 2.13715,-1.93426 7.96482,-1.93426 5.82767,0 7.09425,0.30759 7.96482,1.93426 0.58081,1.08526 1.03518,8.479 1.03518,16.84501 0,13.68322 0.16607,15.06105 2.01723,16.73632 1.96599,1.7792 2.09301,1.75297 5,-1.0321 l 2.98277,-2.85767 2.80472,2.68709 c 1.54259,1.4779 3.11759,2.68709 3.5,2.68709 0.3824,0 0.69528,-7.45458 0.69528,-16.56574 0,-9.50684 0.44111,-17.38996 1.03518,-18.5 0.87057,-1.62667 2.13715,-1.93426 7.96482,-1.93426 5.82767,0 7.09425,0.30759 7.96482,1.93426 0.57602,1.07631 1.03518,8.31765 1.03518,16.32568 0,14.0682 0.0563,14.44432 2.50673,16.74639 l 2.50674,2.35495 2.99326,-2.86773 2.99327,-2.86773 3,2.87418 3,2.87418 v -16.75283 c 0,-9.63581 0.43977,-17.57455 1.03518,-18.68709 0.87057,-1.62667 2.13715,-1.93426 7.96482,-1.93426 5.82767,0 7.09425,0.30759 7.96482,1.93426 0.57094,1.06681 1.03518,8.15835 1.03518,15.81291 v 13.87865 l 3,2.87418 3,2.87418 2.99327,-2.86773 2.99326,-2.86773 2.50674,2.35495 2.50673,2.35496 v -16.24006 c 0,-9.28233 0.4435,-17.06875 1.03518,-18.17431 0.87057,-1.62667 2.13715,-1.93426 7.96482,-1.93426 5.82767,0 7.09425,0.30759 7.96482,1.93426 0.56935,1.06384 1.06767,8.15134 1.10738,15.75 l 0.0722,13.81574 3.47618,2.89075 3.47618,2.89074 2.93439,-2.81133 c 2.8593,-2.73937 2.98602,-2.7646 4.95163,-0.98575 2.01485,1.82341 2.01723,1.80699 2.01723,-13.89516 0,-8.92436 0.44753,-16.55695 1.03518,-17.65499 0.87056,-1.62667 2.13714,-1.93426 7.96481,-1.93426 5.82767,0 7.09425,0.30759 7.96482,1.93426 0.57821,1.08041 1.03518,8.39014 1.03518,16.55902 0,10.22792 0.32507,14.42385 1.08126,13.9565 0.59469,-0.36754 2.39469,0.59009 4,2.12807 l 2.91874,2.79633 2.96384,-2.83954 c 2.47977,-2.37577 3.21474,-2.63132 4.5,-1.56465 1.37422,1.1405 1.53616,-1.23169 1.53616,-22.50253 0,-22.97185 -0.062,-23.72136 -1.82874,-22.12245 -2.44214,2.21011 -4.08381,2.08577 -6.85681,-0.51932 l -2.31445,-2.17432 -2.31445,2.17432 c -2.91259,2.73624 -4.45851,2.73624 -7.3711,0 l -2.31445,-2.17432 -2.31445,2.17432 c -1.27295,1.19587 -2.93145,2.17431 -3.68555,2.17431 -0.7541,0 -2.4126,-0.97844 -3.68555,-2.17431 l -2.31445,-2.17432 -2.31445,2.17432 c -1.27295,1.19587 -2.93145,2.17431 -3.68555,2.17431 -0.7541,0 -2.4126,-0.97844 -3.68555,-2.17431 l -2.31445,-2.17432 -2.31445,2.17432 c -1.27295,1.19587 -2.93145,2.17431 -3.68555,2.17431 -0.7541,0 -2.4126,-0.97844 -3.68555,-2.17431 l -2.31445,-2.17432 -2.31445,2.17432 c -1.27295,1.19587 -2.93145,2.17431 -3.68555,2.17431 -0.7541,0 -2.4126,-0.97844 -3.68555,-2.17431 l -2.31445,-2.17432 -2.31445,2.17432 c -1.27295,1.19587 -2.93145,2.17431 -3.68555,2.17431 -0.7541,0 -2.4126,-0.97844 -3.68555,-2.17431 l -2.31445,-2.17432 -2.31445,2.17432 c -1.27295,1.19587 -2.93145,2.17431 -3.68555,2.17431 -0.7541,0 -2.4126,-0.97844 -3.68555,-2.17431 l -2.31445,-2.17432 -2.31445,2.17432 c -1.27295,1.19587 -2.93145,2.17431 -3.68555,2.17431 -0.7541,0 -2.4126,-0.97844 -3.68555,-2.17431 l -2.31445,-2.17432 -2.31445,2.17432 c -1.27295,1.19587 -2.93145,2.17431 -3.68555,2.17431 -0.7541,0 -2.4126,-0.97844 -3.68555,-2.17431 l -2.31445,-2.17432 -2.31445,2.17432 c -1.27295,1.19587 -2.93145,2.17431 -3.68555,2.17431 -0.7541,0 -2.4126,-0.97844 -3.68555,-2.17431 l -2.31445,-2.17432 -2.31445,2.17432 c -1.27295,1.19587 -2.93145,2.17431 -3.68555,2.17431 -0.7541,0 -2.4126,-0.97844 -3.68555,-2.17431 l -2.31445,-2.17432 -2.31445,2.17432 c -1.27295,1.19587 -2.93145,2.17431 -3.68555,2.17431 -0.7541,0 -2.4126,-0.97844 -3.68555,-2.17431 l -2.31445,-2.17432 -2.31445,2.17432 c -1.27295,1.19587 -2.93145,2.17431 -3.68555,2.17431 -0.7541,0 -2.4126,-0.97844 -3.68555,-2.17431 l -2.31445,-2.17432 -2.31445,2.17432 c -1.27295,1.19587 -2.93145,2.17431 -3.68555,2.17431 -0.7541,0 -2.4126,-0.97844 -3.68555,-2.17431 l -2.31445,-2.17432 -2.31445,2.17432 c -2.85741,2.68439 -4.85269,2.7521 -7.12452,0.24175 -0.96192,-1.06291 -2.38166,-1.68976 -3.15499,-1.39301 -1.15182,0.44199 -1.40604,4.70972 -1.40604,23.60382 0,20.05822 0.2157,23.30261 1.65499,24.89301 2.12254,2.34538 2.21055,2.33174 5.54029,-0.85835 z m 24.55472,-0.32813 3.25,-2.95659 v -13.07984 c 0,-7.19391 -0.46583,-13.95025 -1.03518,-15.01409 -0.84479,-1.57849 -2.12582,-1.93426 -6.96482,-1.93426 -4.839,0 -6.12003,0.35577 -6.96482,1.93426 -0.5788,1.0815 -1.03518,8.40985 -1.03518,16.62244 0,13.18292 0.15959,14.55574 1.55729,13.39576 1.31161,-1.08855 1.97849,-0.87123 4.22727,1.37755 1.46849,1.4685 2.90521,2.6568 3.19271,2.64068 0.2875,-0.0161 1.98523,-1.35978 3.77273,-2.98591 z m 35.44528,0.32813 c 2.7993,-2.6819 2.80472,-2.71295 2.80472,-16.06574 0,-7.35826 -0.46583,-14.24907 -1.03518,-15.31291 -0.84479,-1.57849 -2.12582,-1.93426 -6.96482,-1.93426 -4.839,0 -6.12003,0.35577 -6.96482,1.93426 -0.58351,1.09031 -1.03518,8.5753 -1.03518,17.15499 v 15.22073 l 2.03795,-1.84432 c 1.99214,-1.80287 2.09838,-1.78388 4.72727,0.84501 1.47913,1.47913 2.89993,2.68933 3.15733,2.68933 0.25741,0 1.73014,-1.20919 3.27273,-2.68709 z m 35.49027,0.51278 c 2.20385,-2.07041 2.31445,-2.83817 2.31445,-16.06575 0,-7.66336 -0.46411,-14.75863 -1.03518,-15.82568 -0.84479,-1.57849 -2.12582,-1.93426 -6.96482,-1.93426 -4.839,0 -6.12003,0.35577 -6.96482,1.93426 -0.5878,1.09833 -1.03518,8.73664 -1.03518,17.67431 v 15.74006 l 2.52731,-2.37428 2.5273,-2.37428 2.69997,2.69996 c 1.48498,1.48498 2.90619,2.69997 3.15824,2.69997 0.25205,0 1.49978,-0.97844 2.77273,-2.17431 z m 30.29722,-0.3422 c 2.90699,2.78507 3.03401,2.8113 5,1.0321 1.8452,-1.66988 2.01723,-3.05452 2.01723,-16.23632 0,-8.02135 -0.45898,-15.26836 -1.03518,-16.34501 -0.84479,-1.57849 -2.12582,-1.93426 -6.96482,-1.93426 -4.839,0 -6.12003,0.35577 -6.96482,1.93426 -0.59177,1.10574 -1.03518,8.89595 -1.03518,18.18709 v 16.25283 l 3,-2.87418 3,-2.87418 z m 30.21251,-0.17058 2.80472,-2.68709 2.96384,2.83954 c 2.47977,2.37577 3.21474,2.63132 4.5,1.56465 1.25614,-1.0425 1.53616,-3.9989 1.53616,-16.2182 0,-8.38844 -0.45408,-15.79175 -1.03518,-16.87755 -0.84479,-1.57849 -2.12582,-1.93426 -6.96482,-1.93426 -4.839,0 -6.12003,0.35577 -6.96482,1.93426 -1.14631,2.1419 -1.46484,34.06574 -0.3399,34.06574 0.38241,0 1.95741,-1.20919 3.5,-2.68709 z M 371.14748,297.50001 c 0,-23.83333 -0.0544,-24.5 -2,-24.5 -1.94119,0 -2,0.66667 -2,22.67126 0,19.69252 0.21745,22.91153 1.65499,24.5 0.91024,1.00581 1.81024,1.82874 2,1.82874 0.18975,0 0.34501,-11.025 0.34501,-24.5 z m 84,-1.65499 c 0,-22.17834 -0.0584,-22.84501 -2,-22.84501 -1.94592,0 -2,0.66667 -2,24.65499 0,24.59164 0.005,24.65034 2,22.84501 1.88882,-1.70936 2,-3.07997 2,-24.65499 z m -74,0.4407 c 0,-22.61904 -0.0573,-23.28571 -2,-23.28571 -1.94274,0 -2,0.66667 -2,23.28571 0,22.61905 0.0573,23.28572 2,23.28572 1.94274,0 2,-0.66667 2,-23.28572 z m 64,0 c 0,-22.61904 -0.0573,-23.28571 -2,-23.28571 -1.94274,0 -2,0.66667 -2,23.28571 0,22.61905 0.0573,23.28572 2,23.28572 1.94274,0 2,-0.66667 2,-23.28572 z m -36.87895,-0.33585 c 3.56677,-1.47741 8.11027,0.10332 9.69022,3.37132 0.84588,1.74964 1.0667,0.75074 1.12105,-5.07118 l 0.0677,-7.25 h -8 -8 l 0.0677,7.25 c 0.0543,5.82192 0.27517,6.82082 1.12105,5.07118 0.57936,-1.19835 2.3489,-2.71545 3.93232,-3.37132 z m -191.9325,-22.6305 2.79798,-2.68064 2.50674,2.35495 2.50673,2.35496 v -16.24006 c 0,-9.28233 0.4435,-17.06875 1.03518,-18.17431 0.87057,-1.62667 2.13715,-1.93426 7.96482,-1.93426 5.82767,0 7.09425,0.30759 7.96482,1.93426 0.56935,1.06384 1.06767,8.15134 1.10738,15.75 l 0.0722,13.81574 3.47618,2.89075 3.47618,2.89074 2.93439,-2.81133 c 2.8593,-2.73937 2.98602,-2.7646 4.95163,-0.98575 2.01485,1.82341 2.01723,1.80699 2.01723,-13.89516 0,-8.92436 0.44753,-16.55695 1.03518,-17.65499 0.87056,-1.62667 2.13714,-1.93426 7.96481,-1.93426 5.82767,0 7.09425,0.30759 7.96482,1.93426 0.57821,1.08041 1.03518,8.39014 1.03518,16.55902 0,10.22792 0.32507,14.42385 1.08126,13.9565 0.59469,-0.36754 2.39469,0.59009 4,2.12807 l 2.91874,2.79633 2.96384,-2.83954 c 2.47977,-2.37577 3.21474,-2.63132 4.5,-1.56465 1.37008,1.13706 1.53616,-0.36718 1.53616,-13.91329 0,-8.55725 0.45195,-16.03265 1.03518,-17.12244 0.87057,-1.62667 2.13715,-1.93426 7.96482,-1.93426 5.82767,0 7.09425,0.30759 7.96482,1.93426 0.58323,1.08979 1.03518,8.56519 1.03518,17.12244 0,13.54611 0.16608,15.05035 1.53616,13.91329 1.28526,-1.06667 2.02023,-0.81112 4.5,1.56465 l 2.96384,2.83954 2.91874,-2.79633 c 1.60531,-1.53798 3.40531,-2.49561 4,-2.12807 0.75619,0.46735 1.08126,-3.72858 1.08126,-13.9565 0,-8.16888 0.45697,-15.47861 1.03518,-16.55902 0.87057,-1.62667 2.13715,-1.93426 7.96482,-1.93426 5.82767,0 7.09425,0.30759 7.96482,1.93426 0.58765,1.09804 1.03518,8.73063 1.03518,17.65499 0,15.70215 0.002,15.71857 2.01723,13.89516 1.96599,-1.7792 2.09301,-1.75297 5,1.0321 l 2.98277,2.85767 3,-2.87418 c 2.59624,-2.48735 3,-3.58923 3,-8.18709 0,-4.05592 0.35489,-5.31291 1.5,-5.31291 1.21659,0 1.5,-1.61842 1.5,-8.56574 0,-11.82707 0.43949,-12.43426 9,-12.43426 8.6808,0 9,0.49211 9,13.87524 0,10.89432 0.80786,12.59335 4.38848,9.22953 1.23223,-1.15762 3.22392,-2.10477 4.42597,-2.10477 2.03925,0 2.18555,0.46857 2.18555,7 0,4 -0.42857,7 -1,7 -0.55,0 -1,0.53419 -1,1.18709 0,0.6529 1.33373,-0.0907 2.96384,-1.65245 2.47977,-2.37577 3.21474,-2.63132 4.5,-1.56465 1.37008,1.13706 1.53616,-0.36718 1.53616,-13.91329 0,-8.55725 0.45195,-16.03265 1.03518,-17.12244 0.87057,-1.62667 2.13715,-1.93426 7.96482,-1.93426 5.82767,0 7.09425,0.30759 7.96482,1.93426 0.58323,1.08979 1.03518,8.56519 1.03518,17.12244 0,13.54611 0.16608,15.05035 1.53616,13.91329 1.28526,-1.06667 2.02023,-0.81112 4.5,1.56465 1.63011,1.56175 2.96384,2.30535 2.96384,1.65245 0,-0.6529 -0.45,-1.18709 -1,-1.18709 -0.57143,0 -1,-3 -1,-7 0,-6.53143 0.1463,-7 2.18555,-7 1.20205,0 3.19374,0.94715 4.42597,2.10477 3.58062,3.36382 4.38848,1.66479 4.38848,-9.22953 0,-13.38313 0.3192,-13.87524 9,-13.87524 8.56051,0 9,0.60719 9,12.43426 0,6.94732 0.28341,8.56574 1.5,8.56574 1.14511,0 1.5,1.25699 1.5,5.31291 0,4.59786 0.40376,5.69974 3,8.18709 l 3,2.87418 2.98277,-2.85767 c 2.90699,-2.78507 3.03401,-2.8113 5,-1.0321 2.01485,1.82341 2.01723,1.80699 2.01723,-13.89516 0,-8.92436 0.44753,-16.55695 1.03518,-17.65499 0.87057,-1.62667 2.13715,-1.93426 7.96482,-1.93426 5.82767,0 7.09425,0.30759 7.96482,1.93426 0.57821,1.08041 1.03518,8.39014 1.03518,16.55902 0,10.22792 0.32507,14.42385 1.08126,13.9565 0.59469,-0.36754 2.39469,0.59009 4,2.12807 l 2.91874,2.79633 2.96384,-2.83954 c 2.47977,-2.37577 3.21474,-2.63132 4.5,-1.56465 1.37008,1.13706 1.53616,-0.36718 1.53616,-13.91329 0,-8.55725 0.45195,-16.03265 1.03518,-17.12244 0.87057,-1.62667 2.13715,-1.93426 7.96482,-1.93426 5.82767,0 7.09425,0.30759 7.96482,1.93426 0.58323,1.08979 1.03518,8.56519 1.03518,17.12244 0,13.54611 0.16608,15.05035 1.53616,13.91329 1.28526,-1.06667 2.02023,-0.81112 4.5,1.56465 l 2.96384,2.83954 2.91874,-2.79633 c 1.60531,-1.53798 3.40531,-2.49561 4,-2.12807 0.75619,0.46735 1.08126,-3.72858 1.08126,-13.9565 0,-8.16888 0.45697,-15.47861 1.03518,-16.55902 0.87057,-1.62667 2.13715,-1.93426 7.96482,-1.93426 5.82767,0 7.09425,0.30759 7.96482,1.93426 0.58765,1.09804 1.03518,8.73063 1.03518,17.65499 0,15.70215 0.002,15.71857 2.01723,13.89516 1.96561,-1.77885 2.09233,-1.75362 4.95163,0.98575 l 2.93439,2.81133 3.47618,-2.89074 3.47618,-2.89075 0.0722,-13.81574 c 0.0397,-7.59866 0.53803,-14.68616 1.10738,-15.75 0.87056,-1.62667 2.13714,-1.93426 7.96481,-1.93426 5.82767,0 7.09425,0.30759 7.96482,1.93426 0.59168,1.10556 1.03518,8.89198 1.03518,18.17431 v 16.24006 l 2.50673,-2.35496 2.50674,-2.35495 2.99326,2.86773 2.99327,2.86773 3,-2.87418 3,-2.87418 v -22.4679 c 0,-21.70319 -0.0622,-22.41157 -1.82874,-20.81291 -2.44214,2.21011 -4.08381,2.08577 -6.85681,-0.51932 l -2.31445,-2.17432 -2.31445,2.17432 c -2.91259,2.73624 -4.45851,2.73624 -7.3711,0 l -2.31445,-2.17432 -2.31445,2.17432 c -2.91259,2.73624 -4.45851,2.73624 -7.3711,0 l -2.31445,-2.17432 -2.31445,2.17432 c -2.91259,2.73624 -4.45851,2.73624 -7.3711,0 l -2.31445,-2.17432 -2.31445,2.17432 c -1.27295,1.19587 -2.93145,2.17431 -3.68555,2.17431 -0.7541,0 -2.4126,-0.97844 -3.68555,-2.17431 l -2.31445,-2.17432 -2.31445,2.17432 c -2.91259,2.73624 -4.45851,2.73624 -7.3711,0 l -2.31445,-2.17432 -2.31445,2.17432 c -1.27295,1.19587 -2.93145,2.17431 -3.68555,2.17431 -0.7541,0 -2.4126,-0.97844 -3.68555,-2.17431 l -2.31445,-2.17432 -2.31445,2.17432 c -2.91259,2.73624 -4.45851,2.73624 -7.3711,0 l -2.31445,-2.17432 -2.31445,2.17432 c -1.27295,1.19587 -2.93145,2.17431 -3.68555,2.17431 -0.7541,0 -2.4126,-0.97844 -3.68555,-2.17431 l -2.31445,-2.17432 -2.31445,2.17432 c -2.91259,2.73624 -4.45851,2.73624 -7.3711,0 l -2.31445,-2.17432 -2.31445,2.17432 c -1.27295,1.19587 -2.93145,2.17431 -3.68555,2.17431 -0.7541,0 -2.4126,-0.97844 -3.68555,-2.17431 l -2.31445,-2.17432 -2.31445,2.17432 c -2.91259,2.73624 -4.45851,2.73624 -7.3711,0 l -2.31445,-2.17432 -2.31445,2.17432 c -1.27295,1.19587 -2.93145,2.17431 -3.68555,2.17431 -0.7541,0 -2.4126,-0.97844 -3.68555,-2.17431 l -2.31445,-2.17432 -2.31445,2.17432 c -1.27295,1.19587 -2.93145,2.17431 -3.68555,2.17431 -0.7541,0 -2.4126,-0.97844 -3.68555,-2.17431 l -2.31445,-2.17432 -2.31445,2.17432 c -1.27295,1.19587 -2.93145,2.17431 -3.68555,2.17431 -0.7541,0 -2.4126,-0.97844 -3.68555,-2.17431 l -2.31445,-2.17432 -2.31445,2.17432 c -2.87723,2.70301 -4.85371,2.75096 -7.18555,0.17431 -2.28339,-2.52312 -3.71661,-2.52312 -6,0 -2.33184,2.57665 -4.30832,2.5287 -7.18555,-0.17431 l -2.31445,-2.17432 -2.31445,2.17432 c -2.87723,2.70301 -4.85371,2.75096 -7.18555,0.17431 -0.99549,-1.1 -2.34549,-2 -3,-2 -0.65451,0 -2.00451,0.9 -3,2 -2.33184,2.57665 -4.30832,2.5287 -7.18555,-0.17431 l -2.31445,-2.17432 -2.31445,2.17432 c -1.27295,1.19587 -2.93145,2.17431 -3.68555,2.17431 -0.7541,0 -2.4126,-0.97844 -3.68555,-2.17431 l -2.31445,-2.17432 -2.31445,2.17432 c -1.27295,1.19587 -2.93145,2.17431 -3.68555,2.17431 -0.7541,0 -2.4126,-0.97844 -3.68555,-2.17431 l -2.31445,-2.17432 -2.31445,2.17432 c -1.27295,1.19587 -2.93145,2.17431 -3.68555,2.17431 -0.7541,0 -2.4126,-0.97844 -3.68555,-2.17431 l -2.31445,-2.17432 -2.31445,2.17432 c -1.27295,1.19587 -2.93145,2.17431 -3.68555,2.17431 -0.7541,0 -2.4126,-0.97844 -3.68555,-2.17431 l -2.31445,-2.17432 -2.31445,2.17432 c -1.27295,1.19587 -2.93145,2.17431 -3.68555,2.17431 -0.7541,0 -2.4126,-0.97844 -3.68555,-2.17431 l -2.31445,-2.17432 -2.31445,2.17432 c -1.27295,1.19587 -2.93145,2.17431 -3.68555,2.17431 -0.7541,0 -2.4126,-0.97844 -3.68555,-2.17431 l -2.31445,-2.17432 -2.31445,2.17432 c -1.27295,1.19587 -2.93145,2.17431 -3.68555,2.17431 -0.7541,0 -2.4126,-0.97844 -3.68555,-2.17431 l -2.31445,-2.17432 -2.31445,2.17432 c -1.27295,1.19587 -2.93145,2.17431 -3.68555,2.17431 -0.7541,0 -2.4126,-0.97844 -3.68555,-2.17431 l -2.31445,-2.17432 -2.31445,2.17432 c -1.27295,1.19587 -2.93145,2.17431 -3.68555,2.17431 -0.7541,0 -2.4126,-0.97844 -3.68555,-2.17431 l -2.31445,-2.17432 -2.31445,2.17432 c -1.27295,1.19587 -2.93145,2.17431 -3.68555,2.17431 -0.7541,0 -2.4126,-0.97844 -3.68555,-2.17431 l -2.31445,-2.17432 -2.31445,2.17432 c -1.27295,1.19587 -2.93145,2.17431 -3.68555,2.17431 -0.7541,0 -2.4126,-0.97844 -3.68555,-2.17431 l -2.31445,-2.17432 -2.31445,2.17432 c -1.27295,1.19587 -2.93145,2.17431 -3.68555,2.17431 -0.7541,0 -2.4126,-0.97844 -3.68555,-2.17431 l -2.31445,-2.17432 -2.31445,2.17432 c -1.27295,1.19587 -2.93145,2.17431 -3.68555,2.17431 -0.7541,0 -2.4126,-0.97844 -3.68555,-2.17431 l -2.31445,-2.17432 -2.31445,2.17432 c -1.27295,1.19587 -2.93145,2.17431 -3.68555,2.17431 -0.7541,0 -2.4126,-0.97844 -3.68555,-2.17431 l -2.31445,-2.17432 -2.31445,2.17432 c -2.773,2.60509 -4.41467,2.72943 -6.85681,0.51932 -1.76647,-1.59863 -1.82874,-0.89395 -1.82874,20.69528 v 22.35027 l 2.68709,2.80472 c 1.4779,1.5426 2.91578,2.80472 3.19528,2.80472 0.27951,0 1.76729,-1.20629 3.30618,-2.68064 z m 17.79422,0.16413 c 2.90699,2.78507 3.03401,2.8113 5,1.0321 1.8452,-1.66988 2.01723,-3.05452 2.01723,-16.23632 0,-8.02135 -0.45898,-15.26836 -1.03518,-16.34501 -0.84479,-1.57849 -2.12582,-1.93426 -6.96482,-1.93426 -4.839,0 -6.12003,0.35577 -6.96482,1.93426 -0.59177,1.10574 -1.03518,8.89595 -1.03518,18.18709 v 16.25283 l 3,-2.87418 3,-2.87418 z m 30.21251,-0.17058 2.80472,-2.68709 2.96384,2.83954 c 2.47977,2.37577 3.21474,2.63132 4.5,1.56465 1.25614,-1.0425 1.53616,-3.9989 1.53616,-16.2182 0,-8.38844 -0.45408,-15.79175 -1.03518,-16.87755 -0.84479,-1.57849 -2.12582,-1.93426 -6.96482,-1.93426 -4.839,0 -6.12003,0.35577 -6.96482,1.93426 -1.14631,2.1419 -1.46484,34.06574 -0.3399,34.06574 0.38241,0 1.95741,-1.20919 3.5,-2.68709 z m 36,0 2.80472,-2.68709 2.91874,2.79633 c 1.60531,1.53798 3.40531,2.49561 4,2.12807 1.42375,-0.87992 1.46499,-30.9647 0.0461,-33.61596 -0.84481,-1.57849 -2.12584,-1.93426 -6.96484,-1.93426 -4.839,0 -6.12003,0.35577 -6.96482,1.93426 -1.1306,2.11256 -1.46373,32.30386 -0.36851,33.39907 1.0548,1.05481 1.54881,0.83441 4.52861,-2.02042 z m 36,0 2.80472,-2.68709 2.80472,2.68709 c 1.54259,1.4779 3.11759,2.68709 3.5,2.68709 1.12494,0 0.80641,-31.92384 -0.3399,-34.06574 -0.84479,-1.57849 -2.12582,-1.93426 -6.96482,-1.93426 -4.839,0 -6.12003,0.35577 -6.96482,1.93426 -1.50379,2.80986 -1.36071,31.34021 0.16482,32.86574 1.6297,1.6297 1.79271,1.58117 4.99528,-1.48709 z m 72,0 2.80472,-2.68709 2.91874,2.79633 c 1.60531,1.53798 3.40531,2.49561 4,2.12807 1.42375,-0.87992 1.46499,-30.9647 0.0461,-33.61596 -0.84481,-1.57849 -2.12584,-1.93426 -6.96484,-1.93426 -4.839,0 -6.12003,0.35577 -6.96482,1.93426 -1.1306,2.11256 -1.46373,32.30386 -0.36851,33.39907 1.0548,1.05481 1.54881,0.83441 4.52861,-2.02042 z m 72,0 2.80472,-2.68709 2.96384,2.83954 c 2.47977,2.37577 3.21474,2.63132 4.5,1.56465 1.25614,-1.0425 1.53616,-3.9989 1.53616,-16.2182 0,-8.38844 -0.45408,-15.79175 -1.03518,-16.87755 -0.84479,-1.57849 -2.12582,-1.93426 -6.96482,-1.93426 -4.839,0 -6.12003,0.35577 -6.96482,1.93426 -1.14631,2.1419 -1.46484,34.06574 -0.3399,34.06574 0.38241,0 1.95741,-1.20919 3.5,-2.68709 z m 36,0 2.80472,-2.68709 2.91874,2.79633 c 1.60531,1.53798 3.40531,2.49561 4,2.12807 1.42375,-0.87992 1.46499,-30.9647 0.0461,-33.61596 -0.84481,-1.57849 -2.12584,-1.93426 -6.96484,-1.93426 -4.839,0 -6.12003,0.35577 -6.96482,1.93426 -1.1306,2.11256 -1.46373,32.30386 -0.36851,33.39907 1.0548,1.05481 1.54881,0.83441 4.52861,-2.02042 z m 36,0 2.80472,-2.68709 2.80472,2.68709 c 1.54259,1.4779 3.11759,2.68709 3.5,2.68709 1.12494,0 0.80641,-31.92384 -0.3399,-34.06574 -0.84479,-1.57849 -2.12582,-1.93426 -6.96482,-1.93426 -4.839,0 -6.12003,0.35577 -6.96482,1.93426 -1.50379,2.80986 -1.36071,31.34021 0.16482,32.86574 1.6297,1.6297 1.79271,1.58117 4.99528,-1.48709 z m 36,0 2.80472,-2.68709 3,2.87418 3,2.87418 v -16.25283 c 0,-9.29114 -0.44341,-17.08135 -1.03518,-18.18709 -0.84479,-1.57849 -2.12582,-1.93426 -6.96482,-1.93426 -4.839,0 -6.12003,0.35577 -6.96482,1.93426 -0.57453,1.07352 -1.03518,8.26968 -1.03518,16.17126 0,11.84435 0.27813,14.54433 1.65499,16.06574 2.12254,2.34538 2.21055,2.33174 5.54029,-0.85835 z M 205.14748,247.24483 v -25.63715 l 3.45902,3.35261 c 2.91109,2.82154 3.70313,3.15004 5,2.07373 0.90315,-0.74955 1.54098,-2.88386 1.54098,-5.15645 v -3.87756 h -6 -6 v 28.05902 c 0,18.45136 0.34241,27.84739 1,27.44098 0.62459,-0.38602 1,-10.24244 1,-26.25518 z m 414,-1.24482 v -28 h -6 -6 v 3.87756 c 0,2.27259 0.63783,4.4069 1.54098,5.15645 1.29687,1.07631 2.08891,0.74781 5,-2.07373 l 3.45902,-3.35261 v 25.5295 c 0,22.491 0.27124,26.86283 1.66667,26.86283 0.18333,0 0.33333,-12.6 0.33333,-28 z m -244.42526,15.91741 c 1.36901,-1.51273 2.77955,-1.97812 5.15499,-1.7008 l 3.27027,0.38179 v -8.36494 c 0,-11.33295 -0.58888,-12.23346 -8,-12.23346 -7.35225,0 -8,0.94084 -8,11.61981 0,6.58213 0.32796,8.10039 2.17431,10.06574 2.66198,2.83354 3.03158,2.84941 5.40043,0.23186 z m 78.11081,-0.0917 c 2.04006,-1.91656 2.31445,-3.10992 2.31445,-10.06577 0,-10.82826 -0.6338,-11.75994 -8,-11.75994 -7.41112,0 -8,0.90051 -8,12.23346 v 8.36494 l 3.27027,-0.38179 c 2.37544,-0.27732 3.78598,0.18807 5.15499,1.7008 2.33204,2.57687 2.42135,2.57532 5.26029,-0.0917 z m -201.497,-36.50633 2.79798,-2.68064 2.50674,2.35495 2.50673,2.35496 V 211.1086 c 0,-9.28233 0.4435,-17.06875 1.03518,-18.17431 0.87057,-1.62669 2.13715,-1.93428 7.96482,-1.93428 5.82767,0 7.09425,0.30759 7.96482,1.93426 0.56935,1.06384 1.06767,8.15134 1.10738,15.75 l 0.0722,13.81574 3.47618,2.89075 3.47618,2.89074 2.93439,-2.81133 c 2.8593,-2.73937 2.98602,-2.7646 4.95163,-0.98575 2.01485,1.82341 2.01723,1.80699 2.01723,-13.89516 0,-8.92436 0.44753,-16.55695 1.03518,-17.65499 0.87056,-1.62667 2.13714,-1.93426 7.96481,-1.93426 5.82767,0 7.09425,0.30759 7.96482,1.93426 0.57821,1.08041 1.03518,8.39014 1.03518,16.55902 0,10.22792 0.32507,14.42385 1.08126,13.9565 0.59469,-0.36754 2.39469,0.59009 4,2.12807 l 2.91874,2.79633 2.96384,-2.83954 c 2.47977,-2.37577 3.21474,-2.63132 4.5,-1.56465 1.37008,1.13706 1.53616,-0.36718 1.53616,-13.91329 0,-8.55725 0.45195,-16.03265 1.03518,-17.12244 0.87057,-1.62667 2.13715,-1.93426 7.96482,-1.93426 5.82767,0 7.09425,0.30759 7.96482,1.93426 0.58323,1.08979 1.03518,8.56519 1.03518,17.12244 0,13.54611 0.16608,15.05035 1.53616,13.91329 1.28526,-1.06667 2.02023,-0.81112 4.5,1.56465 l 2.96384,2.83954 2.96384,-2.83954 c 2.47977,-2.37577 3.21474,-2.63132 4.5,-1.56465 1.37381,1.14016 1.53616,-1.10371 1.53616,-21.23097 v -22.50587 l -2.75,-0.53646 c -1.88768,-0.36825 -3.39735,0.0656 -4.81445,1.38342 -2.66607,2.47938 -4.27218,2.42199 -7.1211,-0.25442 l -2.31445,-2.17432 -2.31445,2.17432 c -1.27295,1.19587 -2.93145,2.17431 -3.68555,2.17431 -0.7541,0 -2.4126,-0.97844 -3.68555,-2.17431 l -2.31445,-2.17432 -2.31445,2.17432 c -1.27295,1.19587 -2.93145,2.17431 -3.68555,2.17431 -0.7541,0 -2.4126,-0.97844 -3.68555,-2.17431 l -2.31445,-2.17432 -2.31445,2.17432 c -1.27295,1.19587 -2.93145,2.17431 -3.68555,2.17431 -0.7541,0 -2.4126,-0.97844 -3.68555,-2.17431 l -2.31445,-2.17432 -2.31445,2.17432 c -1.27295,1.19587 -2.93145,2.17431 -3.68555,2.17431 -0.7541,0 -2.4126,-0.97844 -3.68555,-2.17431 l -2.31445,-2.17432 -2.31445,2.17432 c -1.27295,1.19587 -2.93145,2.17431 -3.68555,2.17431 -0.7541,0 -2.4126,-0.97844 -3.68555,-2.17431 l -2.31445,-2.17432 -2.31445,2.17432 c -1.27295,1.19587 -2.93145,2.17431 -3.68555,2.17431 -0.7541,0 -2.4126,-0.97844 -3.68555,-2.17431 l -2.31445,-2.17432 -2.31445,2.17432 c -1.27295,1.19587 -2.93145,2.17431 -3.68555,2.17431 -0.7541,0 -2.4126,-0.97844 -3.68555,-2.17431 l -2.31445,-2.17432 -2.31445,2.17432 c -1.27295,1.19587 -2.93145,2.17431 -3.68555,2.17431 -0.7541,0 -2.4126,-0.97844 -3.68555,-2.17431 l -2.31445,-2.17432 -2.31445,2.17432 c -2.773,2.60509 -4.41467,2.72943 -6.85681,0.51932 -1.76618,-1.59837 -1.82874,-0.93082 -1.82874,19.5141 v 21.16908 l 3.25,2.95659 c 1.7875,1.62613 3.45038,2.96978 3.69528,2.98591 0.24491,0.0161 1.70438,-1.17698 3.24327,-2.65133 z m 17.79422,0.16413 c 2.90699,2.78507 3.03401,2.8113 5,1.0321 1.8452,-1.66988 2.01723,-3.05452 2.01723,-16.23632 0,-8.02135 -0.45898,-15.26836 -1.03518,-16.34501 -0.84479,-1.57851 -2.12582,-1.93428 -6.96482,-1.93428 -4.839,0 -6.12003,0.35577 -6.96482,1.93426 -0.59177,1.10574 -1.03518,8.89595 -1.03518,18.18709 v 16.25283 l 3,-2.87418 3,-2.87418 z m 30.21251,-0.17058 2.80472,-2.68709 2.96384,2.83954 c 2.47977,2.37577 3.21474,2.63132 4.5,1.56465 1.25614,-1.0425 1.53616,-3.9989 1.53616,-16.2182 0,-8.38844 -0.45408,-15.79175 -1.03518,-16.87755 -0.84479,-1.57851 -2.12582,-1.93428 -6.96482,-1.93428 -4.839,0 -6.12003,0.35577 -6.96482,1.93426 -1.14631,2.1419 -1.46484,34.06574 -0.3399,34.06574 0.38241,0 1.95741,-1.20919 3.5,-2.68709 z m 36,0 2.80472,-2.68709 2.91874,2.79633 c 1.60531,1.53798 3.40531,2.49561 4,2.12807 1.42375,-0.87992 1.46499,-30.9647 0.0461,-33.61596 -0.84481,-1.57851 -2.12584,-1.93428 -6.96484,-1.93428 -4.839,0 -6.12003,0.35577 -6.96482,1.93426 -1.1306,2.11256 -1.46373,32.30386 -0.36851,33.39907 1.0548,1.05481 1.54881,0.83441 4.52861,-2.02042 z m 34.60472,1.48707 c 0.86466,-0.86466 1.2,-7.71111 1.2,-24.5 0,-22.63333 -0.0572,-23.3 -2,-23.3 -1.94558,0 -2,0.66667 -2,24.5 0,13.475 0.36,24.5 0.8,24.5 0.44,0 1.34,-0.54 2,-1.2 z m 11.2,-23.3 c 0,-23.83333 -0.0544,-24.5 -2,-24.5 -1.94278,0 -2,0.66667 -2,23.3 0,22.70357 0.3731,25.7 3.2,25.7 0.44,0 0.8,-11.025 0.8,-24.5 z m 62.8,23.3 c 0.86466,-0.86466 1.2,-7.71111 1.2,-24.5 0,-22.63333 -0.0572,-23.3 -2,-23.3 -1.94558,0 -2,0.66667 -2,24.5 0,13.475 0.36,24.5 0.8,24.5 0.44,0 1.34,-0.54 2,-1.2 z m 11.2,-23.3 c 0,-23.83333 -0.0544,-24.5 -2,-24.5 -1.94278,0 -2,0.66667 -2,23.3 0,22.70357 0.3731,25.7 3.2,25.7 0.44,0 0.8,-11.025 0.8,-24.5 z m 14.15913,21.84755 c 2.3122,-2.21523 3.02177,-2.4423 4.30471,-1.37756 1.37008,1.13706 1.53616,-0.36718 1.53616,-13.91329 0,-8.55725 0.45195,-16.03265 1.03518,-17.12244 0.87057,-1.62667 2.13715,-1.93426 7.96482,-1.93426 5.82767,0 7.09425,0.30759 7.96482,1.93426 0.58323,1.08979 1.03518,8.56519 1.03518,17.12244 0,13.54611 0.16608,15.05035 1.53616,13.91329 1.28526,-1.06667 2.02023,-0.81112 4.5,1.56465 l 2.96384,2.83954 2.91874,-2.79633 c 1.60531,-1.53798 3.40531,-2.49561 4,-2.12807 0.75619,0.46735 1.08126,-3.72858 1.08126,-13.9565 0,-8.16888 0.45697,-15.47861 1.03518,-16.55902 0.87057,-1.62667 2.13715,-1.93426 7.96482,-1.93426 5.82767,0 7.09425,0.30759 7.96482,1.93426 0.58765,1.09804 1.03518,8.73063 1.03518,17.65499 0,15.70215 0.002,15.71857 2.01723,13.89516 1.96561,-1.77885 2.09233,-1.75362 4.95163,0.98575 l 2.93439,2.81133 3.47618,-2.89074 3.47618,-2.89075 0.0722,-13.81574 c 0.0397,-7.59866 0.53803,-14.68616 1.10738,-15.75 0.87056,-1.62667 2.13714,-1.93426 7.96481,-1.93426 5.82767,0 7.09425,0.30759 7.96482,1.93426 0.59168,1.10556 1.03518,8.89198 1.03518,18.17431 v 16.24006 l 2.50673,-2.35496 2.50674,-2.35495 2.94489,2.82139 2.94489,2.82138 3.47618,-2.89074 3.47618,-2.89075 0.0722,-21.40499 c 0.0697,-20.67577 0.01,-21.3486 -1.75654,-19.75 -2.44214,2.21011 -4.08381,2.08577 -6.85681,-0.51932 l -2.31446,-2.17432 -2.31445,2.17432 c -1.27295,1.19587 -2.93145,2.17431 -3.68555,2.17431 -0.7541,0 -2.4126,-0.97844 -3.68555,-2.17431 l -2.31445,-2.17432 -2.31445,2.17432 c -1.27295,1.19587 -2.93145,2.17431 -3.68555,2.17431 -0.7541,0 -2.4126,-0.97844 -3.68555,-2.17431 l -2.31445,-2.17432 -2.31445,2.17432 c -1.27295,1.19587 -2.93145,2.17431 -3.68555,2.17431 -0.7541,0 -2.4126,-0.97844 -3.68555,-2.17431 l -2.31445,-2.17432 -2.31445,2.17432 c -1.27295,1.19587 -2.93145,2.17431 -3.68555,2.17431 -0.7541,0 -2.4126,-0.97844 -3.68555,-2.17431 l -2.31445,-2.17432 -2.31445,2.17432 c -1.27295,1.19587 -2.93145,2.17431 -3.68555,2.17431 -0.7541,0 -2.4126,-0.97844 -3.68555,-2.17431 l -2.31445,-2.17432 -2.31445,2.17432 c -1.27295,1.19587 -2.93145,2.17431 -3.68555,2.17431 -0.7541,0 -2.4126,-0.97844 -3.68555,-2.17431 l -2.31445,-2.17432 -2.31445,2.17432 c -1.27295,1.19587 -2.93145,2.17431 -3.68555,2.17431 -0.7541,0 -2.4126,-0.97844 -3.68555,-2.17431 l -2.31445,-2.17432 -2.31445,2.17432 c -1.27295,1.19587 -2.93145,2.17431 -3.68555,2.17431 -0.7541,0 -2.4126,-0.97844 -3.68555,-2.17431 l -2.31445,-2.17432 -2.31445,2.17432 c -2.84892,2.67641 -4.45503,2.7338 -7.1211,0.25442 -1.4171,-1.31787 -2.92677,-1.75167 -4.81445,-1.38342 l -2.75,0.53646 v 22.50587 c 0,20.25978 0.15542,22.37688 1.55729,21.21344 1.31161,-1.08855 1.97849,-0.87123 4.22727,1.37755 1.46849,1.4685 2.88059,2.66999 3.13799,2.66999 0.25741,0 1.71387,-1.1936 3.23658,-2.65245 z m 12.03615,-0.0346 2.80472,-2.68709 2.91874,2.79633 c 1.60531,1.53798 3.40531,2.49561 4,2.12807 1.42375,-0.87992 1.46499,-30.9647 0.0461,-33.61596 -0.84481,-1.57853 -2.12584,-1.9343 -6.96484,-1.9343 -4.839,0 -6.12003,0.35577 -6.96482,1.93426 -1.1306,2.11256 -1.46373,32.30386 -0.36851,33.39907 1.0548,1.05481 1.54881,0.83441 4.52861,-2.02042 z m 36,0 2.80472,-2.68709 2.80472,2.68709 c 1.54259,1.4779 3.11759,2.68709 3.5,2.68709 1.12494,0 0.80641,-31.92384 -0.3399,-34.06574 -0.84479,-1.57853 -2.12582,-1.9343 -6.96482,-1.9343 -4.839,0 -6.12003,0.35577 -6.96482,1.93426 -1.50379,2.80986 -1.36071,31.34021 0.16482,32.86574 1.6297,1.6297 1.79271,1.58117 4.99528,-1.48709 z m 36,0 2.80472,-2.68709 3,2.87418 3,2.87418 v -16.25287 c 0,-9.29114 -0.44341,-17.08135 -1.03518,-18.18709 -0.84479,-1.57849 -2.12582,-1.93426 -6.96482,-1.93426 -4.839,0 -6.12003,0.35577 -6.96482,1.93426 -0.57453,1.07352 -1.03518,8.26968 -1.03518,16.17126 0,11.84435 0.27813,14.54433 1.65499,16.06574 2.12254,2.34538 2.21055,2.33174 5.54029,-0.85835 z M 391.14748,203.00001 c 0,-23.33333 -0.0556,-24 -2,-24 -1.93986,0 -2,0.66667 -2,22.17126 0,19.22727 0.21976,22.41409 1.65499,24 0.91024,1.00581 1.81024,1.82874 2,1.82874 0.18975,0 0.34501,-10.8 0.34501,-24 z m 9.04235,20.79437 c 1.91385,1.19522 1.95765,0.85321 1.95765,-15.2859 v -16.50847 h 9 9 v 16.50847 c 0,16.13911 0.0438,16.48112 1.95765,15.2859 1.66023,-1.03682 2.34391,-0.8597 4.5,1.16584 l 2.54235,2.38842 -0.0553,-21.92432 -0.0553,-21.92431 -3.00026,-2.37209 -3.00025,-2.3721 -2.25887,2.1221 c -2.85651,2.68355 -4.41525,2.67242 -7.31551,-0.0522 l -2.31451,-2.17434 -2.31445,2.17432 c -2.90026,2.72464 -4.459,2.73577 -7.31551,0.0522 l -2.25887,-2.1221 -3.00025,2.3721 -3.00026,2.37209 -0.0553,21.92431 -0.0553,21.92432 2.54235,-2.38842 c 2.15609,-2.02554 2.83977,-2.20266 4.5,-1.16584 z m 34.95765,-22.44936 c 0,-21.67834 -0.0597,-22.34501 -2,-22.34501 -1.9448,0 -2,0.66667 -2,24.15499 0,24.09164 0.005,24.15024 2,22.34501 1.88633,-1.7071 2,-3.07997 2,-24.15499 z m -49,-0.5 c 0,-21.17834 -0.061,-21.84501 -2,-21.84501 -1.94363,0 -2,0.66667 -2,23.65499 0,23.59164 0.005,23.65014 2,21.84501 1.88373,-1.70475 2,-3.07997 2,-23.65499 z m 54,1.65499 c 0,-22.83333 -0.0567,-23.5 -2,-23.5 -1.93847,0 -2,0.66667 -2,21.67126 0,18.76201 0.22217,21.91676 1.65499,23.5 0.91024,1.00581 1.81024,1.82874 2,1.82874 0.18975,0 0.34501,-10.575 0.34501,-23.5 z m -64,-1.21429 c 0,-21.61904 -0.0598,-22.28571 -2,-22.28571 -1.94017,0 -2,0.66667 -2,22.28571 0,21.61905 0.0598,22.28572 2,22.28572 1.94017,0 2,-0.66667 2,-22.28572 z m 74,0 c 0,-21.61904 -0.0598,-22.28571 -2,-22.28571 -1.94017,0 -2,0.66667 -2,22.28571 0,21.61905 0.0598,22.28572 2,22.28572 1.94017,0 2,-0.66667 2,-22.28572 z m -41.87895,0.66415 c 3.56677,-1.47741 8.11027,0.10332 9.69022,3.37132 0.84588,1.74964 1.0667,0.75074 1.12105,-5.07118 l 0.0677,-7.25 h -8 -8 l 0.0677,7.25 c 0.0543,5.82192 0.27517,6.82082 1.12105,5.07118 0.57936,-1.19835 2.3489,-2.71545 3.93232,-3.37132 z m -122.92577,-22.63695 2.80472,-2.68709 3,2.87418 3,2.87418 v -16.75283 c 0,-9.63581 0.43977,-17.57455 1.03518,-18.68709 0.87057,-1.62668 2.13715,-1.93427 7.96482,-1.93427 5.82767,0 7.09425,0.30759 7.96482,1.93427 0.57094,1.06681 1.03518,8.15835 1.03518,15.81291 v 13.87865 l 3,2.87418 3,2.87418 2.99327,-2.86773 2.99326,-2.86773 2.50674,2.35495 2.50673,2.35496 v -16.24006 c 0,-9.28233 0.4435,-17.06875 1.03518,-18.17431 0.87057,-1.62668 2.13715,-1.93427 7.96482,-1.93427 5.82767,0 7.09425,0.30759 7.96482,1.93427 0.56935,1.06384 1.06767,8.15134 1.10738,15.75 l 0.0722,13.81574 3.47618,2.89075 3.47618,2.89074 2.91547,-2.7932 c 2.43826,-2.336 3.16691,-2.58452 4.45162,-1.5183 1.35524,1.12475 1.53616,0.49497 1.53616,-5.34755 0,-5.21995 0.31767,-6.62244 1.5,-6.62244 1.21659,0 1.5,-1.61842 1.5,-8.56574 C 366.14748,145.6072 366.58697,145 375.14748,145 c 8.6808,0 9,0.49212 9,13.87525 0,10.89432 0.80786,12.59335 4.38848,9.22953 1.23223,-1.15762 3.22392,-2.10477 4.42597,-2.10477 2.03925,0 2.18555,0.46857 2.18555,7 0,4 -0.42857,7 -1,7 -0.55,0 -1,0.53419 -1,1.18709 0,0.6529 1.33373,-0.0907 2.96384,-1.65245 2.47977,-2.37577 3.21474,-2.63132 4.5,-1.56465 1.37008,1.13706 1.53616,-0.36718 1.53616,-13.91329 0,-8.55725 0.45195,-16.03265 1.03518,-17.12244 0.87057,-1.62668 2.13715,-1.93427 7.96482,-1.93427 5.82767,0 7.09425,0.30759 7.96482,1.93427 0.58323,1.08979 1.03518,8.56519 1.03518,17.12244 0,13.54611 0.16608,15.05035 1.53616,13.91329 1.28526,-1.06667 2.02023,-0.81112 4.5,1.56465 1.63011,1.56175 2.96384,2.30535 2.96384,1.65245 0,-0.6529 -0.45,-1.18709 -1,-1.18709 -0.57143,0 -1,-3 -1,-7 0,-6.53143 0.1463,-7 2.18555,-7 1.20205,0 3.19374,0.94715 4.42597,2.10477 3.58062,3.36382 4.38848,1.66479 4.38848,-9.22953 0,-13.38313 0.3192,-13.87525 9,-13.87525 8.56051,0 9,0.6072 9,12.43427 0,6.94732 0.28341,8.56574 1.5,8.56574 1.18233,0 1.5,1.40249 1.5,6.62244 0,5.84252 0.18092,6.4723 1.53616,5.34755 1.28471,-1.06622 2.01336,-0.8177 4.45162,1.5183 l 2.91547,2.7932 3.47618,-2.89074 3.47618,-2.89075 0.0722,-13.81574 c 0.0397,-7.59866 0.53803,-14.68616 1.10738,-15.75 0.87056,-1.62668 2.13714,-1.93427 7.96481,-1.93427 5.82767,0 7.09425,0.30759 7.96482,1.93427 0.59168,1.10556 1.03518,8.89198 1.03518,18.17431 v 16.24006 l 2.50673,-2.35496 2.50674,-2.35495 2.99326,2.86773 2.99327,2.86773 3,-2.87418 3,-2.87418 v -13.87865 c 0,-7.65456 0.46424,-14.7461 1.03518,-15.81291 0.87057,-1.62668 2.13715,-1.93427 7.96482,-1.93427 5.82767,0 7.09425,0.30759 7.96482,1.93427 0.59541,1.11254 1.03518,9.05128 1.03518,18.68709 v 16.75283 l 3,-2.87418 3,-2.87418 2.99327,2.86773 2.99326,2.86773 2.50674,-2.35495 2.50673,-2.35496 v -21.98067 c 0,-21.23119 -0.0624,-21.92425 -1.82874,-20.3257 -2.44214,2.21011 -4.08381,2.08577 -6.85681,-0.51932 l -2.31445,-2.17432 -2.31445,2.17432 C 530.56008,136.02156 528.90158,137 528.14748,137 c -0.7541,0 -2.4126,-0.97844 -3.68555,-2.17431 l -2.31445,-2.17432 -2.31445,2.17432 c -2.91259,2.73624 -4.45851,2.73624 -7.3711,0 l -2.31445,-2.17432 -2.31445,2.17432 c -2.91259,2.73624 -4.45851,2.73624 -7.3711,0 l -2.31445,-2.17432 -2.31445,2.17432 C 494.56008,136.02156 492.90158,137 492.14748,137 c -0.7541,0 -2.4126,-0.97844 -3.68555,-2.17431 l -2.31445,-2.17432 -2.31445,2.17432 c -2.91259,2.73624 -4.45851,2.73624 -7.3711,0 l -2.31445,-2.17432 -2.31445,2.17432 c -2.91259,2.73624 -4.45851,2.73624 -7.3711,0 l -2.31445,-2.17432 -2.31445,2.17432 C 458.56008,136.02156 456.90158,137 456.14748,137 c -0.7541,0 -2.4126,-0.97844 -3.68555,-2.17431 l -2.31445,-2.17432 -2.31445,2.17432 c -2.93353,2.7559 -5.43757,2.7559 -8.3711,0 l -2.31445,-2.17432 -2.31445,2.17432 c -2.88633,2.71156 -5.83259,2.7743 -8.18555,0.17431 -0.99549,-1.1 -2.34549,-2 -3,-2 -0.65451,0 -2.00451,0.9 -3,2 -2.33184,2.57665 -4.30832,2.5287 -7.18555,-0.17431 l -2.31445,-2.17432 -2.31445,2.17432 c -2.87723,2.70301 -4.85371,2.75096 -7.18555,0.17431 -0.99549,-1.1 -2.34549,-2 -3,-2 -0.65451,0 -2.00451,0.9 -3,2 -2.35296,2.59999 -5.29922,2.53725 -8.18555,-0.17431 l -2.31445,-2.17432 -2.31445,2.17432 C 381.56008,136.02156 379.67658,137 378.64748,137 c -1.0291,0 -2.9126,-0.97844 -4.18555,-2.17431 l -2.31445,-2.17432 -2.31445,2.17432 C 368.56008,136.02156 366.90158,137 366.14748,137 c -0.7541,0 -2.4126,-0.97844 -3.68555,-2.17431 l -2.31445,-2.17432 -2.31445,2.17432 C 356.56008,136.02156 354.90158,137 354.14748,137 c -0.7541,0 -2.4126,-0.97844 -3.68555,-2.17431 l -2.31445,-2.17432 -2.31445,2.17432 C 344.56008,136.02156 342.90158,137 342.14748,137 c -0.7541,0 -2.4126,-0.97844 -3.68555,-2.17431 l -2.31445,-2.17432 -2.31445,2.17432 C 332.56008,136.02156 330.90158,137 330.14748,137 c -0.7541,0 -2.4126,-0.97844 -3.68555,-2.17431 l -2.31445,-2.17432 -2.31445,2.17432 C 320.56008,136.02156 318.90158,137 318.14748,137 c -0.7541,0 -2.4126,-0.97844 -3.68555,-2.17431 l -2.31445,-2.17432 -2.31445,2.17432 C 308.56008,136.02156 306.90158,137 306.14748,137 c -0.7541,0 -2.4126,-0.97844 -3.68555,-2.17431 l -2.31445,-2.17432 -2.31445,2.17432 C 296.56008,136.02156 294.90158,137 294.14748,137 c -0.7541,0 -2.4126,-0.97844 -3.68555,-2.17431 l -2.31445,-2.17432 -2.31445,2.17432 c -2.773,2.60509 -4.41467,2.72943 -6.85681,0.51932 -1.76635,-1.59852 -1.82874,-0.90986 -1.82874,20.18556 0,21.04789 0.0789,21.92454 2.17431,24.15499 2.70238,2.87655 2.62452,2.88137 6.02097,-0.37264 z m 23.49027,0.51278 c 2.20385,-2.07041 2.31445,-2.83817 2.31445,-16.06575 0,-7.66336 -0.46411,-14.75863 -1.03518,-15.82568 -0.84479,-1.57849 -2.12582,-1.93426 -6.96482,-1.93426 -4.839,0 -6.12003,0.35577 -6.96482,1.93426 -0.5878,1.09833 -1.03518,8.73664 -1.03518,17.67431 v 15.74006 l 2.52731,-2.37428 2.5273,-2.37428 2.69997,2.69996 c 1.48498,1.48498 2.90619,2.69997 3.15824,2.69997 0.25205,0 1.49978,-0.97844 2.77273,-2.17431 z m 30.29722,-0.3422 c 2.90699,2.78507 3.03401,2.8113 5,1.0321 1.8452,-1.66988 2.01723,-3.05452 2.01723,-16.23632 0,-8.02135 -0.45898,-15.26836 -1.03518,-16.34501 -0.84479,-1.57849 -2.12582,-1.93426 -6.96482,-1.93426 -4.839,0 -6.12003,0.35577 -6.96482,1.93426 -0.59177,1.10574 -1.03518,8.89595 -1.03518,18.18709 v 16.25283 l 3,-2.87418 3,-2.87418 z m 69.21251,-0.17058 2.80472,-2.68709 2.91874,2.79633 c 1.60531,1.53798 3.40531,2.49561 4,2.12807 1.42375,-0.87992 1.46499,-30.9647 0.0461,-33.61596 -0.84481,-1.57849 -2.12584,-1.93426 -6.96484,-1.93426 -4.839,0 -6.12003,0.35577 -6.96482,1.93426 -1.1306,2.11256 -1.46373,32.30386 -0.36851,33.39907 1.0548,1.05481 1.54881,0.83441 4.52861,-2.02042 z m 75,0 2.80472,-2.68709 3,2.87418 3,2.87418 v -16.25283 c 0,-9.29114 -0.44341,-17.08135 -1.03518,-18.18709 -0.84479,-1.57849 -2.12582,-1.93426 -6.96482,-1.93426 -4.839,0 -6.12003,0.35577 -6.96482,1.93426 -0.57453,1.07352 -1.03518,8.26968 -1.03518,16.17126 0,11.84435 0.27813,14.54433 1.65499,16.06574 2.12254,2.34538 2.21055,2.33174 5.54029,-0.85835 z m 35.99327,0.006 2.79798,-2.68064 2.50674,2.35495 2.50673,2.35496 v -15.74006 c 0,-8.93767 -0.44738,-16.57598 -1.03518,-17.67431 -0.84479,-1.57804 -2.12582,-1.93381 -6.96482,-1.93381 -4.839,0 -6.12003,0.35577 -6.96482,1.93426 -0.56962,1.06434 -1.03518,8.11878 -1.03518,15.68555 0,12.74247 0.15951,13.92108 2.17431,16.06574 2.70191,2.87604 2.6252,2.88071 6.01424,-0.36619 z M 275.14748,153.74483 v -24.13716 l 3.45902,3.35261 c 2.91109,2.82154 3.70313,3.15004 5,2.07373 0.90315,-0.74955 1.54098,-2.88386 1.54098,-5.15645 V 126 h -6 -6 v 26.55903 c 0,17.45136 0.34292,26.34708 1,25.94098 0.62198,-0.3844 1,-9.74244 1,-24.75518 z m 274,-1.24482 V 126 h -6 -6 v 3.87756 c 0,2.27259 0.63783,4.4069 1.54098,5.15645 1.29687,1.07631 2.08891,0.74781 5,-2.07373 l 3.45902,-3.35261 v 24.02951 c 0,21.16362 0.27594,25.36283 1.66667,25.36283 0.18333,0 0.33333,-11.925 0.33333,-26.5 z m -174.42526,15.41741 c 1.36901,-1.51273 2.77955,-1.97812 5.15499,-1.7008 l 3.27027,0.38179 v -8.36494 c 0,-11.33295 -0.58888,-12.23346 -8,-12.23346 -7.35225,0 -8,0.94084 -8,11.61981 0,6.58213 0.32796,8.10039 2.17431,10.06574 2.66198,2.83354 3.03158,2.84941 5.40043,0.23186 z m 78.11081,-0.0917 c 2.04006,-1.91656 2.31445,-3.10992 2.31445,-10.06577 0,-10.82826 -0.6338,-11.75994 -8,-11.75994 -7.41112,0 -8,0.90051 -8,12.23346 v 8.36494 l 3.27027,-0.38179 c 2.37544,-0.27732 3.78598,0.18807 5.15499,1.7008 2.33204,2.57687 2.42135,2.57532 5.26029,-0.0917 z M 331.14748,94.934258 c 0,-26.39531 0.36981,-41.75674 1.03518,-42.999999 C 333.05323,50.30759 334.31981,50 340.14748,50 c 5.82767,0 7.09425,0.30759 7.96482,1.934259 0.66267,1.238223 1.03518,15.929185 1.03518,40.825685 v 38.891426 l 2.45818,2.30934 2.45818,2.30934 3.46962,-2.88503 3.46963,-2.88502 0.0722,-43.750001 C 361.12989,53.644562 360.85903,43 359.96193,43 c -0.65205,0 -2.22705,-0.978441 -3.5,-2.174314 l -2.31445,-2.174314 -2.31445,2.174314 C 350.56008,42.021559 348.90158,43 348.14748,43 c -0.7541,0 -2.4126,-0.978441 -3.68555,-2.174314 l -2.31445,-2.174314 -2.31445,2.174314 c -2.91259,2.736239 -4.45851,2.736239 -7.3711,0 l -2.31445,-2.174314 -2.31445,2.174314 c -2.773,2.605098 -4.41467,2.729436 -6.85681,0.519326 -1.76923,-1.601133 -1.82874,-0.09859 -1.82874,46.174313 v 47.829305 l 2.52731,-2.37428 2.5273,-2.37428 2.69997,2.69996 c 1.48498,1.48498 3.04769,2.69997 3.47269,2.69997 0.425,0 0.77273,-18.47958 0.77273,-41.065742 z m 14.19528,38.378652 2.80472,-2.68709 V 92.747166 c 0,-24.198367 -0.37387,-38.577227 -1.03518,-39.812907 -1.51784,-2.836104 -12.4118,-2.836104 -13.92964,0 -0.66374,1.240208 -1.03518,16.186828 -1.03518,41.654986 v 39.720735 l 2.03795,-1.84432 c 1.99214,-1.80287 2.09838,-1.78388 4.72727,0.84501 1.47913,1.47913 2.89993,2.68933 3.15733,2.68933 0.25741,0 1.73014,-1.20919 3.27273,-2.68709 z m 21.80472,-51.312911 c 0,-53.333333 -0.0247,-54 -2,-54 -1.97475,0 -2,0.666667 -2,52.8 0,52.446961 0.1596,55.200001 3.2,55.200001 0.44,0 0.8,-24.3 0.8,-54.000001 z m 13.8,52.800001 c 0.90303,-0.90303 1.2,-14.26667 1.2,-54.000001 0,-52.133333 -0.0253,-52.8 -2,-52.8 -1.97531,0 -2,0.666667 -2,54 0,29.700001 0.36,54.000001 0.8,54.000001 0.44,0 1.34,-0.54 2,-1.2 z m 14.42906,-1.51945 c 2.43572,-2.33357 3.1175,-2.54521 4.80472,-1.49153 1.9431,1.21349 1.96622,0.73991 1.96622,-40.280547 V 50 h 9 9 v 41.508473 c 0,41.020457 0.0231,41.494037 1.96622,40.280547 1.69221,-1.0568 2.38069,-0.83084 4.9403,1.62142 1.80419,1.72852 3.58761,2.61392 4.53378,2.25084 1.38247,-0.5305 1.5597,-5.96547 1.5597,-47.829896 0,-36.735521 -0.26667,-46.964717 -1.2,-46.031384 -1.78087,1.780873 -3.89007,1.464011 -6.48555,-0.974314 l -2.31445,-2.174314 -2.31445,2.174314 c -2.91259,2.736239 -4.45851,2.736239 -7.3711,0 l -2.31445,-2.174314 -2.31445,2.174314 c -2.91259,2.736239 -4.45851,2.736239 -7.3711,0 l -2.31445,-2.174314 -2.31445,2.174314 c -2.59548,2.438325 -4.70468,2.755187 -6.48555,0.974314 -0.93333,-0.933333 -1.2,9.251852 -1.2,45.833332 0,25.868338 0.3,47.333338 0.66667,47.699998 1.22941,1.22942 2.70485,0.68492 5.56239,-2.05278 z m 48.77094,-51.280551 c 0,-53.333333 -0.0247,-54 -2,-54 -1.97475,0 -2,0.666667 -2,52.8 0,52.446961 0.1596,55.200001 3.2,55.200001 0.44,0 0.8,-24.3 0.8,-54.000001 z m 13.8,52.800001 c 0.90303,-0.90303 1.2,-14.26667 1.2,-54.000001 0,-52.133333 -0.0253,-52.8 -2,-52.8 -1.97531,0 -2,0.666667 -2,54 0,29.700001 0.36,54.000001 0.8,54.000001 0.44,0 1.34,-0.54 2,-1.2 z m 12.88555,-0.97431 2.31445,-2.17432 V 92.759944 c 0,-24.8965 0.37251,-39.587462 1.03518,-40.825685 C 475.05323,50.30759 476.31981,50 482.14748,50 c 5.82767,0 7.09425,0.30759 7.96482,1.934259 0.66537,1.243259 1.03518,16.604689 1.03518,42.999999 0,22.586162 0.31288,41.065742 0.69528,41.065742 0.38241,0 1.95438,-1.20629 3.49327,-2.68064 l 2.79798,-2.68064 2.50674,2.35495 2.50673,2.35496 V 87.519325 c 0,-46.272907 -0.0595,-47.775446 -1.82874,-46.174313 -2.44214,2.21011 -4.08381,2.085772 -6.85681,-0.519326 l -2.31445,-2.174314 -2.31445,2.174314 C 488.56008,42.021559 486.90158,43 486.14748,43 c -0.7541,0 -2.4126,-0.978441 -3.68555,-2.174314 l -2.31445,-2.174314 -2.31445,2.174314 c -2.91259,2.736239 -4.45851,2.736239 -7.3711,0 l -2.31445,-2.174314 -2.31445,2.174314 C 464.56008,42.021559 462.98508,43 462.33303,43 c -0.8959,0 -1.18555,10.63114 -1.18555,43.514095 v 43.514095 l 3.25,2.95659 c 1.7875,1.62613 3.446,2.96978 3.68555,2.98591 0.23955,0.0161 1.47705,-0.94913 2.75,-2.145 z m 12.4925,-0.49627 c 2.71444,-2.6006 2.84035,-2.62275 4.80472,-0.84501 l 2.01723,1.82557 V 94.589245 c 0,-25.468158 -0.37144,-40.414778 -1.03518,-41.654986 -1.51784,-2.836104 -12.4118,-2.836104 -13.92964,0 -0.66115,1.235376 -1.03518,15.577997 -1.03518,39.69528 v 37.761021 l 2.68709,2.80472 c 1.4779,1.5426 2.91578,2.80472 3.19528,2.80472 0.27951,0 1.76256,-1.20176 3.29568,-2.67058 z M 318.65696,37.365266 c 1.19745,0.459501 1.49052,-0.404997 1.49052,-4.396652 0,-4.301948 -0.26835,-4.968615 -2,-4.968615 -1.97817,0 -1.99738,0.586547 -1.75964,53.75 L 316.6282,135.5 316.89732,86.146649 c 0.23582,-43.246072 0.45357,-49.28257 1.75964,-48.781383 z m 58.49052,44.134733 c 0,-52.833333 -0.0249,-53.5 -2,-53.5 -1.9742,0 -2,0.666667 -2,51.671259 0,46.677332 0.15995,51.848002 1.65499,53.500002 0.91024,1.00581 1.81024,1.82874 2,1.82874 0.18975,0 0.34501,-24.075 0.34501,-53.500001 z m 72,-1.654988 c 0,-51.178345 -0.0257,-51.845012 -2,-51.845012 -1.97515,0 -2,0.666667 -2,53.654988 0,53.591643 0.002,53.652853 2,51.845013 1.95101,-1.76564 2,-3.07997 2,-53.654989 z m 57,1.654988 c 0,-52.833333 -0.0249,-53.5 -2,-53.5 -1.73165,0 -2,0.666667 -2,4.968615 0,4.005705 0.2907,4.857065 1.5,4.393012 1.32078,-0.506832 1.5,5.291571 1.5,48.531384 0,27.00885 0.225,49.10699 0.5,49.10699 0.275,0 0.5,-24.075 0.5,-53.500001 z m -134,-2.154988 c 0,-50.678345 -0.026,-51.345012 -2,-51.345012 -1.97492,0 -2,0.666667 -2,53.154988 0,53.091643 0.002,53.152833 2,51.345013 1.95053,-1.76521 2,-3.07997 2,-53.154989 z m 82,1.654988 c 0,-52.333333 -0.0252,-53 -2,-53 -1.97394,0 -2,0.666667 -2,51.171259 0,46.212072 0.16039,51.348492 1.65499,53.000002 0.91024,1.00581 1.81024,1.82874 2,1.82874 0.18975,0 0.34501,-23.85 0.34501,-53.000001 z m -139,-0.5 c 0,-51.833333 -0.0254,-52.5 -2,-52.5 -1.97393,0 -2,0.666667 -2,51.139757 0,47.531794 0.12346,51.233484 1.75,52.468194 0.9625,0.73065 1.8625,1.34275 2,1.36025 0.1375,0.0175 0.25,-23.5932 0.25,-52.468201 z m 196,-1.240547 c 0,-50.592786 -0.026,-51.259453 -2,-51.259453 -1.97461,0 -2,0.666667 -2,52.508474 0,52.258147 0.01,52.502517 2,51.259457 1.95774,-1.22263 2,-2.33203 2,-52.508478 z m -124,0.526261 c 0,-51.119047 -0.0258,-51.785714 -2,-51.785714 -1.97425,0 -2,0.666667 -2,51.785714 0,51.119047 0.0258,51.785717 2,51.785717 1.97425,0 2,-0.66667 2,-51.785717 z m 52,0 c 0,-51.119047 -0.0258,-51.785714 -2,-51.785714 -1.97425,0 -2,0.666667 -2,51.785714 0,51.119047 0.0258,51.785717 2,51.785717 1.97425,0 2,-0.66667 2,-51.785717 z m -30.87895,18.164144 c 3.56677,-1.477405 8.11027,0.103322 9.69022,3.371323 0.76809,1.58873 1.0717,-4.930447 1.12105,-24.071181 L 419.1475,51 h -8 -8 l 0.0677,26.249999 c 0.0494,19.140734 0.35296,25.659911 1.12105,24.071181 0.57936,-1.19835 2.3489,-2.715449 3.93232,-3.371323 z M 325.14748,34.999999 c 0,-6.333333 -0.19048,-7 -2,-7 -1.77011,0 -2,0.666667 -2,5.8 0,5.301942 1.13095,8.200001 3.2,8.200001 0.44,0 0.8,-3.15 0.8,-7.000001 z m 174.8,5.800001 c 0.66,-0.66 1.2,-3.81 1.2,-7.000001 0,-5.133333 -0.22989,-5.8 -2,-5.8 -1.80952,0 -2,0.666667 -2,7 0,6.98011 0.52741,8.072594 2.8,5.800001 z m -164.8,-6.300001 c 0,-5.833333 -0.20513,-6.5 -2,-6.5 -1.71457,0 -2,0.666667 -2,4.671259 0,2.943332 0.61219,5.347723 1.65499,6.500001 0.91024,1.005808 1.81024,1.828741 2,1.828741 0.18975,0 0.34501,-2.925 0.34501,-6.500001 z m 156,-1.654988 c 0,-4.178345 -0.2752,-4.845012 -2,-4.845012 -1.79965,0 -2,0.666667 -2,6.654988 0,6.591646 0.019,6.637761 2,4.845013 1.47575,-1.335538 2,-3.079967 2,-6.654989 z m -161,-0.5 c 0,-3.678345 -0.30687,-4.345012 -2,-4.345012 -1.78337,0 -2,0.666667 -2,6.154988 0,6.091646 0.0206,6.136361 2,4.345013 1.41543,-1.280942 2,-3.079967 2,-6.154989 z m 166,1.654988 c 0,-5.333333 -0.22222,-6 -2,-6 -1.68035,0 -2,0.666667 -2,4.171259 0,3.467129 2.0363,7.828742 3.65499,7.828742 0.18975,0 0.34501,-2.7 0.34501,-6.000001 z"
       id="path1" />
  </g>
</svg>
