<?xml version="1.0" encoding="UTF-8" standalone="no"?>
<svg
   version="1.0"
   width="102.87128"
   height="109.80669"
   id="svg434"
   sodipodi:docname="favicon.svg"
   inkscape:version="1.1.2 (0a00cf5339, 2022-02-04, custom)"
   xmlns:inkscape="http://www.inkscape.org/namespaces/inkscape"
   xmlns:sodipodi="http://sodipodi.sourceforge.net/DTD/sodipodi-0.dtd"
   xmlns="http://www.w3.org/2000/svg"
   xmlns:svg="http://www.w3.org/2000/svg">
  <defs
     id="defs438" />
  <sodipodi:namedview
     id="namedview436"
     pagecolor="#ffffff"
     bordercolor="#666666"
     borderopacity="1.0"
     inkscape:pageshadow="2"
     inkscape:pageopacity="0.0"
     inkscape:pagecheckerboard="0"
     showgrid="false"
     fit-margin-top="10"
     fit-margin-right="10"
     fit-margin-bottom="10"
     fit-margin-left="10"
     inkscape:zoom="2.2444444"
     inkscape:cx="161.5099"
     inkscape:cy="40.321782"
     inkscape:window-width="1920"
     inkscape:window-height="1001"
     inkscape:window-x="-9"
     inkscape:window-y="-9"
     inkscape:window-maximized="1"
     inkscape:current-layer="svg434" />
  <path
     d="m 30.803959,97.8 c -5.6,-5.1 -2.5,-13.2 6.7,-18 3.1,-1.5 5.4,-2.2 9.4,-2.1 2.5,0.1 5.3,1.5 5.3,1.5 0,-18.1 -0.1,-52.3 -0.1,-69.1 1,0 1.7,-0.1 3.1,-0.1 0,1 0,1.8 0,2.6 0,0.9 0,1.4 0.1,2 1,6.3 2.4,8.8 9.4,16.5 8.9,9.9 11.5,15.8 11.5,23.7 -0.1,7.4 -6.6,23.2 -8,22.6 2,-5.6 4.8,-11.6 5.5,-16.6 0.9,-6.1 -1.6,-14.7 -5.6,-19.2 -3.2,-3.8 -10.8,-7.1 -12.9,-7.1 0,0 -0.1,36.4 -0.1,50.2 0,2.3 -2.1,6.4 -3.3,7.8 -5.5,6.6 -16.2,9.6 -21,5.3 z"
     id="path432" />
  <rect
     style="fill:#000000"
     id="rect462"
     width="82.425743"
     height="5.5693092"
     x="10.445543"
     y="71.607918" />
  <rect
     style="fill:#000000"
     id="rect462-9"
     width="82.425743"
     height="5.5693092"
     x="10.334157"
     y="51.447033" />
  <rect
     style="fill:#000000"
     id="rect462-9-4"
     width="82.425743"
     height="5.5693092"
     x="10"
     y="32.956932" />
</svg>
