<?xml version="1.0" encoding="UTF-8" standalone="no"?>
<!-- Created with Inkscape (http://www.inkscape.org/) -->

<svg
   width="119.204mm"
   height="191.73399mm"
   viewBox="0 0 119.204 191.73399"
   version="1.1"
   id="svg1"
   inkscape:version="1.4.2 (f4327f4, 2025-05-13)"
   sodipodi:docname="heptachorde.svg"
   xmlns:inkscape="http://www.inkscape.org/namespaces/inkscape"
   xmlns:sodipodi="http://sodipodi.sourceforge.net/DTD/sodipodi-0.dtd"
   xmlns="http://www.w3.org/2000/svg"
   xmlns:svg="http://www.w3.org/2000/svg">
  <sodipodi:namedview
     id="namedview1"
     pagecolor="#ffffff"
     bordercolor="#000000"
     borderopacity="0.25"
     inkscape:showpageshadow="2"
     inkscape:pageopacity="0.0"
     inkscape:pagecheckerboard="0"
     inkscape:deskcolor="#d1d1d1"
     inkscape:document-units="mm"
     inkscape:zoom="0.68862935"
     inkscape:cx="217.824"
     inkscape:cy="357.95744"
     inkscape:window-width="1920"
     inkscape:window-height="991"
     inkscape:window-x="-9"
     inkscape:window-y="-9"
     inkscape:window-maximized="1"
     inkscape:current-layer="layer1" />
  <defs
     id="defs1" />
  <g
     inkscape:label="Ebene 1"
     inkscape:groupmode="layer"
     id="layer1"
     transform="translate(-47.360413,-53.710415)">
    <path
       style="fill:#000000;stroke-width:0.264583"
       d="m 92.51552,245.7043 c -0.0079,-0.0627 -0.04757,-1.56932 -0.08819,-3.34797 l -0.07386,-3.23391 1.510435,1.1e-4 c 1.90714,1.4e-4 2.75065,1.03559 2.393688,2.93837 -0.213098,1.13591 -0.333031,1.23628 -1.477254,1.23628 -1.192249,0 -1.24043,0.0486 -1.13054,1.14116 0.08677,0.8627 -0.03587,1.17032 -0.502579,1.26059 -0.33955,0.0657 -0.623813,0.0681 -0.631698,0.005 z m 2.315012,-3.02988 c 0.594846,-0.42779 0.614029,-2.3891 0.02813,-2.87536 -0.736587,-0.61131 -1.270468,-0.18241 -1.270468,1.02064 0,1.77452 0.440144,2.43162 1.242343,1.85472 z m -13.259078,0.92508 c -0.01225,-0.0693 -0.05195,-1.51505 -0.0882,-3.21286 -0.06321,-2.96095 -0.03438,-3.08692 0.706554,-3.08681 0.637937,1e-4 0.791519,0.2305 0.881943,1.32304 0.08701,1.05124 0.254386,1.32292 0.815047,1.32292 0.58416,0 0.70948,-0.24279 0.728368,-1.41111 0.01392,-0.86104 0.18582,-1.39736 0.440973,-1.37583 0.229987,0.0194 0.616596,0.0591 0.859129,0.0882 0.313992,0.0377 0.440973,0.91527 0.440973,3.04763 0,3.03331 -0.240676,3.57922 -1.384467,3.14031 -0.351266,-0.1348 -0.446106,-0.54048 -0.315089,-1.34784 0.142126,-0.87583 0.04272,-1.21053 -0.411261,-1.38474 -0.947742,-0.36368 -1.333986,0.11856 -1.125243,1.4049 0.106201,0.65444 0.05731,1.18988 -0.108654,1.18988 -0.16596,0 -0.552855,0.0964 -0.859766,0.21413 -0.306912,0.11777 -0.56805,0.15746 -0.580311,0.0882 z m 47.075796,-0.46182 c -0.24575,-0.64041 0.1112,-1.25161 0.73097,-1.25161 0.53962,0 0.86696,0.67545 0.64111,1.32291 -0.21079,0.6043 -1.13118,0.55647 -1.37208,-0.0713 z m -39.930223,-0.21184 c -0.697407,-0.27977 -0.798632,-0.53834 -0.705557,-1.80231 0.156671,-2.12764 0.923634,-2.16667 1.058548,-0.0539 0.08875,1.38983 0.220594,1.67951 0.72581,1.59468 0.339548,-0.057 0.617361,0.062 0.617361,0.26459 0,0.44143 -0.590683,0.44035 -1.696162,-0.003 z m 9.260599,-0.0143 c -0.358307,-0.57975 -0.367863,-4.65833 -0.01222,-5.21906 0.237921,-0.37513 0.411409,-0.25159 0.743098,0.52917 0.248087,0.58396 0.301697,1.16154 0.125648,1.35369 -0.490431,0.53526 -0.355158,2.18439 0.218215,2.66025 0.288907,0.23977 0.438288,0.5767 0.331957,0.74875 -0.269036,0.43531 -1.119875,0.39128 -1.406691,-0.0728 z m 2.793694,-0.14356 c -0.11168,-0.29104 -0.0908,-0.80698 0.0464,-1.14653 0.22432,-0.55513 0.27897,-0.54099 0.54219,0.14029 0.35402,0.9163 1.03849,1.40336 1.07154,0.76248 0.0131,-0.25399 0.0935,-0.99985 0.1788,-1.65747 0.0852,-0.65761 -0.0139,-1.39919 -0.22036,-1.64793 -0.29009,-0.34953 -0.20962,-0.40893 0.35422,-0.26149 0.72344,0.18919 0.83574,0.46095 1.24669,3.0169 l 0.2127,1.32292 h -1.61456 c -1.10974,0 -1.67806,-0.16546 -1.81763,-0.52917 z m 5.05788,-0.0988 c -0.91913,-1.01563 -0.68613,-2.89976 0.35859,-2.89976 0.38997,0 0.47081,0.23452 0.3065,0.88918 -0.12275,0.48905 -0.0492,1.21424 0.16341,1.61152 0.36695,0.68565 0.43168,0.69279 1.27466,0.14045 0.83919,-0.54986 0.88133,-0.54633 0.76559,0.0642 -0.1754,0.92519 -2.08999,1.05495 -2.86875,0.19443 z m 5.83886,0.24698 c 0.4443,-0.25878 0.61736,-0.8079 0.61736,-1.95894 0,-1.05215 0.13935,-1.55292 0.40728,-1.46361 1.37336,0.45778 0.6382,3.8123 -0.83123,3.79286 -0.72052,-0.01 -0.74205,-0.0508 -0.19341,-0.37031 z m 3.32933,0.1532 c -0.33854,-0.33855 -0.30483,-3.92535 0.0389,-4.13779 0.73558,-0.45461 1.16557,0.45838 1.06182,2.25462 -0.10078,1.74506 -0.52059,2.4633 -1.10072,1.88317 z m 4.43178,-0.22269 c -0.61268,-0.28007 -0.79119,-0.65234 -0.78253,-1.63185 0.006,-0.69796 0.24429,-1.57716 0.52916,-1.9538 0.47525,-0.62833 0.51795,-0.52168 0.51795,1.29352 0,1.26347 0.15934,2.03521 0.44097,2.1358 0.24254,0.0866 0.3616,0.23887 0.26459,0.33833 -0.097,0.0995 -0.53358,0.0176 -0.97014,-0.182 z m 5.29166,-0.0882 c -1.4782,-1.04222 -0.71236,-4.04741 1.03144,-4.04741 0.2942,0 0.81954,0.31452 1.16743,0.69893 0.51542,0.56953 0.5508,0.79743 0.1911,1.23084 -0.5766,0.69477 -1.06705,0.36573 -1.06705,-0.71587 0,-0.53026 -0.20332,-0.86112 -0.52917,-0.86112 -0.63809,0 -0.71171,1.27824 -0.0882,1.53124 0.33956,0.13778 0.32774,0.25804 -0.0514,0.52296 -0.28462,0.19887 -0.39487,0.59813 -0.26129,0.94622 0.17133,0.44649 0.46719,0.54293 1.14426,0.373 0.66139,-0.166 0.87173,-0.10337 0.76283,0.22716 -0.22427,0.6807 -1.39971,0.72877 -2.29995,0.0941 z m -14.77386,-0.60783 c -0.32714,-0.96416 -0.2181,-1.63899 0.35791,-2.215 0.34313,-0.34314 0.43374,-0.0742 0.43374,1.2875 0,1.82964 -0.34743,2.2367 -0.79165,0.9275 z m 11.36257,-2.24612 c 0.0622,-1.67193 0.18973,-3.11658 0.28348,-3.21033 0.52638,-0.52638 0.81421,0.5657 0.85322,3.23727 0.0395,2.7026 -0.0226,3.01293 -0.60287,3.01293 -0.58599,0 -0.63622,-0.28604 -0.53383,-3.03987 z m -30.979579,0.41032 c -0.09621,-0.50328 -0.0489,-0.99296 0.10514,-1.08816 0.424318,-0.26224 0.803884,1.26914 0.411758,1.66126 -0.220779,0.22078 -0.403966,0.0177 -0.516898,-0.5731 z m 10.493729,-0.18692 c -0.26019,-0.42099 0.07,-1.06408 0.54643,-1.06408 0.42926,0 0.43205,0.95483 0.004,1.21965 -0.18062,0.11163 -0.42811,0.0416 -0.54999,-0.15557 z m 6.76128,-0.14765 c -0.2214,-0.57695 0.0388,-0.91643 0.7023,-0.91643 0.2587,0 0.47037,0.3175 0.47037,0.70555 0,0.80216 -0.88473,0.96126 -1.17267,0.21088 z m 9.14791,-0.0633 c -0.30257,-0.78848 -0.27871,-0.85309 0.31504,-0.85309 0.29398,0 0.52916,0.31358 0.52916,0.70555 0,0.84111 -0.54172,0.93578 -0.8442,0.14754 z m 2.16349,-11.64585 c -0.0484,-0.0484 -11.1204,-0.18745 -24.604371,-0.30893 -13.483971,-0.12148 -24.794123,-0.30337 -25.13367,-0.4042 -0.478708,-0.14215 -0.617363,-0.57043 -0.617363,-1.90689 0,-1.64929 0.05701,-1.74955 1.322919,-2.32656 2.943175,-1.34151 4.34064,-3.66344 2.20486,-3.66344 -0.987131,0 -1.215593,-0.26804 -1.093779,-1.28324 0.103185,-0.85995 -0.683133,-2.24492 -1.27874,-2.25229 -0.957288,-0.0119 -3.505832,-1.26043 -5.888069,-2.88468 -4.553196,-3.10445 -8.49095,-8.28177 -10.225069,-13.44381 -1.099105,-3.27176 -1.622803,-8.45647 -1.619038,-16.0288 0.0041,-8.21128 0.38417,-13.5531 1.462315,-20.55163 0.403524,-2.61937 0.863939,-6.19125 1.023147,-7.9375 0.300066,-3.29129 2.319427,-17.18023 2.652405,-18.24296 0.111273,-0.35513 -0.109545,-0.85992 -0.535842,-1.22492 -1.29571,-1.10943 -0.775642,-4.34462 0.698415,-4.34462 0.659194,0 0.693143,-0.26782 0.693143,-5.46805 0,-4.99769 -0.06069,-5.52875 -0.705557,-6.17361 -0.917215,-0.91722 -1.255511,-0.88988 -2.182617,0.17639 -0.86125,0.99052 -2.095918,1.14845 -2.756431,0.35258 -0.241631,-0.29115 -0.517277,-1.2209 -0.612545,-2.06613 -0.14935,-1.32502 -0.03401,-1.69213 0.837104,-2.66437 1.050399,-1.17232 2.695433,-1.72588 4.487667,-1.51011 0.789527,0.0951 1.133478,0.42044 1.5875,1.50179 0.318781,0.75925 0.682678,1.38206 0.808662,1.38404 0.321646,0.005 0.778185,-8.51827 0.559969,-10.45427 -0.236847,-2.10131 -0.628036,-2.46749 -2.020022,-1.89091 -1.579356,0.65419 -2.619166,0.0704 -3.248104,-1.8237 -0.765392,-2.305 -0.254984,-4.266744 1.371698,-5.272089 1.18533,-0.732573 1.36231,-0.751004 2.714979,-0.282745 1.109851,0.384205 1.594469,0.81456 2.079948,1.847057 0.776359,1.651137 1.906487,1.707037 1.730073,0.08558 -0.148494,-1.364848 0.582922,-4.297119 1.199505,-4.808837 0.273994,-0.227396 0.49817,-0.711506 0.49817,-1.075806 0,-0.364297 0.238125,-0.662358 0.529167,-0.662358 0.291042,0 0.529167,-0.236781 0.529167,-0.526177 0,-0.289398 0.31183,-0.720918 0.692954,-0.958934 0.49062,-0.306398 0.63327,-0.670558 0.488548,-1.247172 -0.136343,-0.543237 0.09816,-1.271625 0.70427,-2.18752 0.499775,-0.755208 1.003261,-1.822513 1.11886,-2.371791 0.115599,-0.549275 0.379066,-1.667877 0.58548,-2.485779 0.206415,-0.817903 0.271389,-1.757886 0.144386,-2.088851 -0.195418,-0.509254 -0.392575,-0.416231 -1.282589,0.60515 -2.952009,3.387738 -3.863019,5.636453 -3.863019,9.535369 0,1.040921 -0.139386,1.6812 -0.339114,1.557761 -0.62343,-0.3853 -0.831919,-2.7921 -0.416214,-4.804749 0.341376,-1.65278 0.315236,-2.366695 -0.153683,-4.197069 -0.406667,-1.587376 -0.497369,-2.879299 -0.323612,-4.609492 l 0.241422,-2.403959 -1.180095,-0.21636 c -0.649052,-0.119025 -2.926344,-0.16874 -5.060651,-0.110505 l -3.880553,0.105884 -0.111628,0.970137 c -0.147799,1.284502 -1.19856,1.284502 -1.844522,0 -0.268327,-0.533575 -0.78093,-1.404898 -1.139113,-1.936271 -0.593846,-0.880983 -0.604308,-1.051989 -0.118684,-1.940277 0.292907,-0.535781 0.804759,-1.483104 1.137446,-2.105165 1.055294,-1.97319 2.478218,-1.765614 2.101046,0.306501 -0.269497,1.480547 0.484942,1.833303 3.420973,1.599557 1.403437,-0.111731 2.869202,-0.06517 3.257258,0.103473 0.463095,0.201253 -0.537053,0.31514 -2.910416,0.331415 -2.967993,0.02035 -3.615973,0.119623 -3.615973,0.553963 0,0.439693 0.685959,0.529167 4.056946,0.529167 3.933579,0 4.480301,-0.141087 3.673427,-0.947963 -0.276169,-0.276169 -0.276169,-0.449858 0,-0.62054 0.580597,-0.358828 0.46169,-1.445858 -0.308078,-2.816363 -0.380375,-0.677227 -0.943123,-2.096555 -1.250548,-3.154059 -0.307424,-1.057504 -0.782201,-2.008403 -1.055057,-2.113108 -0.744551,-0.285711 -2.640148,-3.792067 -2.643934,-4.890582 -0.0019,-0.528369 0.37678,-1.639619 0.841335,-2.469444 0.672481,-1.201237 1.067721,-1.531289 1.939041,-1.619229 0.932514,-0.09412 1.204101,0.07548 1.836034,1.146528 0.478142,0.810389 1.011269,1.260968 1.500542,1.268201 1.262335,0.01866 2.060385,0.916863 2.392064,2.692254 0.183266,0.98098 0.570124,1.824424 0.928055,2.023385 0.337582,0.18765 1.050348,0.776161 1.583925,1.307803 0.844688,0.841626 0.970137,1.242316 0.970137,3.098664 0,1.966252 0.09601,2.228059 1.234723,3.366767 0.679099,0.679096 1.234724,1.478137 1.234724,1.775648 0,0.297508 0.119062,0.548225 0.264583,0.557144 5.930225,0.363495 14.065501,0.460893 14.529773,0.173958 0.302284,-0.186822 0.39406,-0.741352 0.272585,-1.647023 -0.176245,-1.31399 -0.144569,-1.365375 0.841629,-1.365375 0.90815,0 1.024763,-0.122975 1.024763,-1.080685 0,-1.006725 0.07846,-1.073119 1.146527,-0.970139 0.958299,0.0924 1.146529,0.255338 1.146529,0.992491 0,1.115923 0.36258,1.335093 2.116667,1.279469 1.400953,-0.04443 1.507651,-0.183385 1.047869,-1.36469 -0.293733,-0.754675 0.529783,-1.140614 1.769769,-0.829397 0.536665,0.134694 0.960075,0.555651 1.093467,1.087132 0.220699,0.87934 0.982207,1.17176 3.497228,1.342948 1.022154,0.06958 1.05428,0.02598 0.939742,-1.275498 -0.117454,-1.334594 -0.107291,-1.346452 1.05833,-1.234722 1.04194,0.09987 1.18961,0.244314 1.28748,1.259341 0.10079,1.045401 0.21564,1.146527 1.30209,1.146527 0.65536,0 1.28967,0.15875 1.40959,0.352777 0.11991,0.19403 0.52615,0.35278 0.90276,0.35278 0.76746,0 0.88524,-0.730073 0.29553,-1.831946 -0.29419,-0.549704 -0.28035,-0.794498 0.0567,-1.002802 0.76186,-0.470853 1.91949,0.198076 1.92585,1.112834 0.005,0.688271 0.22777,0.872236 1.23472,1.018638 1.47852,0.214963 0.97688,0.686451 -0.54084,0.508339 -1.69508,-0.198925 -2.10917,0.244861 -1.43854,1.541713 0.64057,1.238732 0.68329,1.475444 0.26628,1.475444 -0.16288,0 -0.47698,-0.396875 -0.69799,-0.881943 -0.22101,-0.485069 -0.56504,-0.881944 -0.76451,-0.881944 -0.46215,0 -1.77366,1.481212 -2.52808,2.855193 -0.55955,1.019064 -0.5479,1.123029 0.29474,2.630678 1.03444,1.85081 0.77898,2.025809 -0.61932,0.424262 -1.08486,-1.242544 -1.16454,-1.214321 -2.39691,0.849045 l -0.771135,1.291122 2.126435,0.119988 c 1.53019,0.08634 2.12625,-0.0037 2.12579,-0.320984 -2.7e-4,-0.242533 0.22874,-0.440971 0.50911,-0.440971 0.49387,0 3.3708,-3.677025 3.3708,-4.30825 0,-0.172058 0.55979,-0.88923 1.24398,-1.593712 0.68418,-0.704485 1.33351,-1.637628 1.44295,-2.073656 0.10943,-0.436026 0.42667,-0.88015 0.70496,-0.986944 0.34219,-0.13131 0.43496,-0.477218 0.28655,-1.068506 -0.18453,-0.735218 -0.0695,-0.911964 0.72272,-1.110806 0.53807,-0.135047 1.10848,-0.07016 1.32993,0.15129 0.449,0.449007 0.59939,2.171138 0.18959,2.171138 -0.52068,0 -0.27365,1.587413 0.42546,2.73403 0.86622,1.420709 1.28134,1.439031 2.04874,0.09042 0.33053,-0.580856 0.72002,-1.057106 0.86554,-1.058334 0.14552,-0.0013 0.26458,-0.334592 0.26458,-0.740812 0,-0.442111 0.28347,-0.81271 0.70617,-0.92325 0.42057,-0.109982 0.82201,-0.631669 0.99257,-1.289891 0.22224,-0.857664 0.47891,-1.105221 1.14591,-1.105221 0.67996,0 0.86083,0.184239 0.86578,0.881944 0.006,0.800653 0.15785,0.890275 1.65088,0.972315 1.47061,0.08081 1.65656,0.0062 1.75762,-0.705557 0.0917,-0.645944 0.37124,-0.817089 1.48339,-0.908244 1.2388,-0.101535 1.35189,-0.04167 1.17793,0.623568 -0.10584,0.404736 0.0214,0.949698 0.2827,1.211027 0.26133,0.261329 0.52501,1.171348 0.58596,2.022266 l 0.11081,1.547125 6.96724,0.09565 6.96723,0.09565 0.57172,-1.428861 c 0.31444,-0.785873 0.85248,-1.579123 1.19564,-1.762776 0.41206,-0.220525 0.75392,-1.071882 1.00672,-2.507046 0.21054,-1.195221 0.66474,-2.57072 1.00935,-3.056664 0.96703,-1.363662 1.04544,-1.546077 1.47455,-3.430401 0.28068,-1.23252 0.75194,-2.082711 1.56437,-2.822222 0.63948,-0.582084 1.35163,-1.504869 1.58256,-2.050635 0.35356,-0.835606 0.59726,-0.974875 1.54325,-0.881944 0.89735,0.08815 1.32158,0.429771 2.10841,1.697856 1.5474,2.49383 1.5455,2.474334 0.33356,3.422818 -0.97925,0.766377 -1.09267,1.025245 -0.89977,2.0535 0.31025,1.653766 -0.41623,4.683416 -1.44713,6.034998 -0.67843,0.889469 -0.87075,1.564153 -0.87075,3.054766 v 1.913157 l 2.44105,0.226872 c 2.92729,0.272063 3.36189,0.136824 3.9244,-1.221195 0.53444,-1.290246 1.93504,-2.432137 2.98316,-2.432137 0.91913,0 2.64583,1.254765 2.64583,1.922684 0,0.253204 0.23813,0.657993 0.52917,0.899536 0.69107,0.57354 0.69031,3.209856 -0.002,5.539761 -0.58785,1.979496 -2.31429,3.632462 -3.79393,3.632462 -1.35871,0 -3.08365,-2.256406 -3.08365,-4.033753 v -0.905137 h -3.62395 -3.62395 l -0.45325,2.028473 c -0.2493,1.115661 -0.69722,2.789143 -0.9954,3.718849 -0.49768,1.551802 -0.49245,1.79505 0.0638,2.967196 0.71947,1.516163 0.55218,4.300024 -0.37592,6.255867 -0.39279,0.827735 -0.51189,1.592627 -0.34706,2.228929 0.13802,0.53281 0.33307,1.761231 0.43345,2.729828 0.10037,0.968597 0.38985,2.057135 0.64329,2.418965 0.43366,0.61914 0.4939,0.59387 1.02296,-0.42923 0.65014,-1.257231 2.41831,-1.92678 3.55191,-1.344996 0.66395,0.340752 0.64298,0.38771 -0.35574,0.796454 -1.4462,0.591882 -2.15118,1.461372 -2.62365,3.235912 -0.46853,1.75972 -0.90521,1.92005 -1.20103,0.44097 -0.11642,-0.58208 -0.37937,-1.05833 -0.58433,-1.05833 -0.69388,0 -0.81656,1.14354 -0.40599,3.78444 0.22501,1.44733 0.31213,2.78844 0.19359,2.98024 -0.121,0.19578 -0.64573,-0.0634 -1.19646,-0.59107 -0.6696,-0.64151 -1.06105,-0.81018 -1.23334,-0.53141 -0.28039,0.45368 0.0805,3.94108 0.53025,5.12401 0.33959,0.89319 -0.0373,1.66259 -0.74035,1.51144 -0.37209,-0.08 -0.47669,0.2475 -0.4166,1.30429 0.22215,3.90649 -0.0266,5.50421 -0.96132,6.17361 -0.13546,0.097 -0.34399,1.24952 -0.46341,2.56111 l -0.21711,2.38472 0.8906,-0.22353 c 0.71255,-0.17883 0.92977,-0.0737 1.08653,0.5257 0.11224,0.42922 0.4797,0.74922 0.86034,0.74922 0.79892,0 0.80404,-0.0986 0.10871,-2.09561 -0.58542,-1.68129 -0.43404,-2.9961 0.45905,-3.98713 0.42279,-0.46915 0.53604,-1.29187 0.47834,-3.47483 -0.0516,-1.95215 0.0438,-2.78635 0.30051,-2.62769 0.20687,0.12785 0.37856,0.58028 0.38153,1.00539 0.003,0.42511 0.14581,0.99468 0.31742,1.26571 0.18561,0.29314 0.23454,-1.0254 0.12076,-3.25472 -0.12135,-2.37765 -0.056,-3.91179 0.17873,-4.19694 0.2035,-0.2472 0.48293,-1.2432 0.62096,-2.21334 0.40684,-2.85932 2.147,-5.29167 3.7858,-5.29167 0.96604,0 1.16431,-0.161 1.4576,-1.18364 0.24348,-0.84895 0.21536,-1.38237 -0.0994,-1.88644 -0.53793,-0.861341 -0.32654,-1.126224 0.65113,-0.815923 1.76408,0.559903 2.54604,4.043513 1.23324,5.494123 -0.6758,0.74676 -2.06484,0.68932 -3.39329,-0.14032 -0.3371,-0.21052 -0.73918,-0.25692 -0.89353,-0.10313 -0.41618,0.4147 -0.57294,10.83135 -0.16908,11.23521 0.21834,0.21834 0.57187,-0.0521 0.98723,-0.75529 1.84768,-3.12787 6.48056,-1.1015 6.48463,2.83631 0.002,2.4259 -2.58556,4.164 -3.87924,2.60521 -1.36916,-1.64974 -1.81658,0.57029 -1.67078,8.29028 l 0.0833,4.40972 1.14653,0.11055 c 0.98365,0.0948 1.14653,0.24608 1.14653,1.06463 0,0.52475 -0.39927,1.54167 -0.88727,2.25982 l -0.88726,1.30573 0.55203,2.67254 c 0.5418,2.62302 0.67241,3.62215 1.72874,13.22423 0.28816,2.61938 0.67648,6.11188 0.86294,7.76111 0.18646,1.64924 0.51606,4.74486 0.73245,6.87917 0.21639,2.13431 0.56711,5.15879 0.77937,6.72107 0.38641,2.84397 0.25796,8.11619 -0.35756,14.67588 -0.28768,3.06585 -0.95799,6.08831 -1.84986,8.34118 -0.17644,0.44569 -0.3208,1.08508 -0.3208,1.42086 0,1.76581 -4.242,8.46583 -7.29183,11.51707 -3.27962,3.28114 -6.30487,5.04147 -9.99429,5.81547 -2.43131,0.51006 -2.64623,0.62615 -2.65073,1.43177 -0.004,0.69143 -0.20887,0.90029 -0.97014,0.98833 -0.7903,0.0914 -0.96171,0.2832 -0.94575,1.05833 0.0149,0.72235 0.45379,1.26542 1.85208,2.29156 1.65176,1.21213 1.98926,1.32579 3.4201,1.15172 2.11133,-0.25685 2.62304,0.10185 2.33508,1.63684 -0.50496,2.69164 0.0926,2.56612 -12.36279,2.59688 -6.1285,0.0151 -11.18235,-0.0121 -11.23078,-0.0606 z m 19.98147,-2.19159 c 0.0947,-0.15318 0.0297,-0.50905 -0.14445,-0.79083 -0.26819,-0.43403 -2.81196,-0.52479 -16.64547,-0.5939 -28.947465,-0.14461 -34.165709,-0.20262 -43.140008,-0.47955 -7.959984,-0.24563 -8.86288,-0.21575 -9.265171,0.30661 -0.24515,0.31832 -0.393325,0.73597 -0.329277,0.92812 0.07247,0.21742 4.504089,0.40143 11.734617,0.48724 6.389989,0.0758 11.676232,0.19477 11.747204,0.26431 0.269449,0.26402 45.878675,0.14317 46.042555,-0.122 z m -20.28652,-2.2444 c 1.55548,-0.0565 1.53285,-0.0691 -0.48507,-0.26807 -1.58755,-0.15657 -0.5734,-0.27165 4.05694,-0.46035 3.39549,-0.13837 7.20549,-0.21618 8.46667,-0.1729 l 2.29306,0.0787 -0.0599,-1.21875 c -0.033,-0.67162 -0.32356,-1.41155 -0.64724,-1.64823 -0.4423,-0.32342 -5.04524,-0.43569 -18.63735,-0.45461 -9.92749,-0.0138 -22.760581,-0.1297 -28.517969,-0.25753 l -10.467975,-0.23241 -0.537589,1.20021 c -0.699981,1.56276 -1.419024,2.43493 -2.007433,2.43493 -0.357995,0 -0.373581,0.0991 -0.06426,0.40838 0.309325,0.30932 0.531358,0.30632 0.915369,-0.0124 0.278841,-0.23142 0.642757,-0.38915 0.808701,-0.35052 0.165944,0.0386 0.740116,-0.0528 1.27594,-0.20328 0.63559,-0.17845 1.602851,-0.0679 2.782726,0.31801 2.029809,0.66391 10.778559,0.81503 11.916846,0.20584 0.55144,-0.29512 6.145747,-0.29159 10.960924,0.007 1.562,0.0968 1.5535,0.10217 -0.52916,0.33258 -1.206843,0.13351 1.14355,0.22968 5.46806,0.22374 5.88791,-0.008 6.71658,-0.0581 3.70417,-0.22374 l -3.88056,-0.21331 4.93889,-0.0288 c 2.71639,-0.0159 4.63803,0.0482 4.27032,0.14238 -1.08824,0.27866 0.12251,0.85988 1.33003,0.63848 0.55783,-0.10228 1.74845,-0.21265 2.64583,-0.24527 z m -14.48594,-0.53447 c 0.25466,-0.1019 0.55893,-0.0894 0.67616,0.0279 0.11722,0.11722 -0.0911,0.2006 -0.46302,0.18528 -0.41097,-0.0169 -0.49456,-0.10052 -0.21314,-0.21314 z M 80.623605,222.9457 c 0.339551,-0.0887 0.895176,-0.0887 1.234723,0 0.339548,0.0887 0.06174,0.16133 -0.61736,0.16133 -0.679098,0 -0.95691,-0.0726 -0.617363,-0.16133 z m 6.70278,0 c 0.339548,-0.0887 0.895173,-0.0887 1.23472,0 0.339551,0.0887 0.06174,0.16133 -0.61736,0.16133 -0.679098,0 -0.956911,-0.0726 -0.61736,-0.16133 z m 8.999945,0.70634 c -0.337286,-0.0883 -0.972286,-0.0915 -1.411111,-0.007 -0.438824,0.0844 -0.162864,0.15662 0.613249,0.16054 0.77611,0.004 1.13515,-0.0651 0.797862,-0.15342 z m 31.39943,-0.01 c -0.5301,-0.0805 -1.4826,-0.0821 -2.11666,-0.004 -0.63407,0.0785 -0.20035,0.14437 0.96382,0.14636 1.16416,0.002 1.68294,-0.0623 1.15284,-0.14276 z m 3.34507,0.0184 c -0.24253,-0.0979 -0.63941,-0.0979 -0.88194,0 -0.24254,0.0979 -0.0441,0.17794 0.44097,0.17794 0.48507,0 0.68351,-0.0801 0.44097,-0.17794 z m 3.37637,-5.51102 c 0.30489,-0.36737 0.29729,-0.62838 -0.031,-1.06363 -0.37634,-0.49902 -1.67486,-0.60214 -9.63016,-0.7648 -5.05734,-0.10341 -12.74348,-0.18802 -17.08032,-0.18802 -4.33684,0 -7.772114,-0.11305 -7.63395,-0.25122 0.13817,-0.13817 7.74495,-0.20662 16.90394,-0.15211 18.91649,0.11257 19.95706,0.0113 24.7696,-2.41066 5.33647,-2.68563 10.94685,-9.54138 12.85366,-15.70685 2.27711,-7.3628 2.81552,-14.05053 1.98158,-24.61357 -0.31817,-4.03011 -0.6471,-7.52261 -0.73094,-7.76111 -0.0838,-0.23851 -0.55608,-3.68802 -1.04943,-7.66559 -0.49334,-3.97757 -0.97227,-7.78757 -1.0643,-8.46667 -1.06907,-7.88923 -1.13214,-8.71731 -0.73177,-9.60829 0.46326,-1.03093 -1.10431,-1.29762 -7.80803,-1.32835 -3.45179,-0.0158 -6.47049,-0.0222 -6.70822,-0.0141 -0.31909,0.0108 -0.3411,0.25437 -0.0841,0.93032 0.41263,1.08529 -0.44152,7.05797 -1.22248,8.54829 -0.85286,1.62751 -3.04682,3.93907 -4.38818,4.62338 -2.20915,1.12702 -4.8526,1.25662 -7.78975,0.3819 -1.43262,-0.42665 -2.70735,-0.63207 -2.87597,-0.46345 -0.49478,0.49478 -0.86208,18.44977 -0.37742,18.44977 0.22268,0 0.516,-0.67469 0.65183,-1.4993 l 0.24696,-1.49931 0.24277,1.15116 c 0.13352,0.63314 0.11587,3.01439 -0.0392,5.29167 -0.23459,3.44462 -0.4959,15.34847 -0.37207,16.94952 0.0197,0.25398 0.16712,0.38058 0.32772,0.28132 0.1606,-0.0993 0.33094,-4.45521 0.37854,-9.6799 0.0622,-6.82976 0.22452,-9.98226 0.5775,-11.21744 0.4468,-1.56347 0.47439,-1.0675 0.30673,5.51395 -0.10133,3.97757 -0.23711,9.41612 -0.30173,12.08568 -0.0646,2.66955 0.0108,4.93302 0.16762,5.02994 0.35322,0.2183 0.52449,-2.93913 0.64159,-11.82779 0.0499,-3.78565 0.26234,-7.51628 0.47215,-8.29028 0.20982,-0.774 0.48589,-2.67727 0.6135,-4.2295 l 0.23202,-2.82222 0.16212,3.14207 c 0.096,1.86123 0.005,3.51501 -0.22301,4.05694 -0.52944,1.25765 -1.01117,21.1996 -0.51212,21.1996 0.35406,0 0.61577,-5.32215 0.39901,-8.11389 -0.0527,-0.6791 0.0151,-3.6613 0.15072,-6.62711 0.18282,-3.99769 0.37977,-5.52556 0.76147,-5.90726 0.32312,-0.32313 0.58225,-1.53318 0.69582,-3.24927 0.0995,-1.50392 0.22827,-2.7817 0.28608,-2.83952 0.0578,-0.0578 0.21961,1.7272 0.35954,3.96669 0.27196,4.35268 0.88684,5.2575 0.89585,1.31829 0.004,-1.65421 0.10772,-2.20211 0.34738,-1.83126 0.18809,0.29104 0.3444,1.12448 0.34738,1.85208 0.01,2.3766 0.70962,1.39518 0.75477,-1.05833 0.0241,-1.30969 0.15787,-3.4925 0.29727,-4.8507 l 0.25345,-2.46944 0.13102,2.64583 c 0.14474,2.92319 0.26424,5.23298 0.30572,5.90903 0.0149,0.24253 0.18581,0.44097 0.37983,0.44097 0.19637,0 0.35278,-0.94768 0.35278,-2.13749 0,-1.33516 0.13242,-2.05564 0.35278,-1.91945 0.19403,0.11991 0.3576,1.04209 0.3635,2.04929 0.008,1.38761 0.0959,1.68525 0.36211,1.22855 0.19381,-0.33243 0.58449,-0.51326 0.87122,-0.40323 0.35657,0.13683 0.51984,-0.034 0.51984,-0.54381 0,-0.44175 -0.22577,-0.7433 -0.5565,-0.7433 -0.48651,0 -0.52762,-0.47647 -0.32695,-3.78879 0.26518,-4.3771 0.5285,-5.1884 0.53549,-1.64987 0.006,2.89546 0.29874,4.31925 0.74427,3.61639 0.16414,-0.25893 0.31307,-0.86767 0.33095,-1.35273 0.0259,-0.70264 0.12429,-0.59506 0.4839,0.52916 0.46089,1.44079 0.49314,1.42186 1.20248,-0.70555 0.34918,-1.04724 0.35317,-1.04868 0.38073,-0.13744 0.0153,0.5065 0.12032,1.69713 0.23334,2.64584 0.14391,1.20804 0.0991,1.57316 -0.1495,1.21845 -0.29414,-0.41966 -0.45032,-0.42738 -0.91105,-0.045 -0.37223,0.30892 -0.55605,0.33058 -0.55605,0.0655 0,-0.21779 -0.15875,-0.39597 -0.35278,-0.39597 -0.19403,0 -0.35278,0.28354 -0.35278,0.63009 0,0.49109 0.26873,0.62118 1.21815,0.58967 0.69593,-0.0231 1.12858,0.1045 1.00923,0.29762 -0.11491,0.18592 0.0116,0.26065 0.28115,0.16607 0.33224,-0.11659 0.46046,-0.63516 0.39809,-1.6101 -0.0506,-0.79098 0.0685,-1.5373 0.26459,-1.65851 0.34362,-0.21237 0.50476,0.87183 0.37479,2.5216 -0.0726,0.92173 0.31144,1.1872 2.02195,1.39764 0.72117,0.0887 1.36447,0.31521 1.42955,0.50331 0.0651,0.1881 0.26351,0.25227 0.44097,0.14259 0.44271,-0.27361 0.4142,-5.09665 -0.0301,-5.09665 -0.19402,0 -0.35277,0.89958 -0.35277,1.99907 0,1.09949 -0.10698,1.8921 -0.23772,1.76136 -0.13075,-0.13075 -0.19982,-1.1663 -0.1535,-2.30124 0.0782,-1.91641 0.007,-2.12837 -0.99701,-2.9733 -0.59467,-0.50038 -1.08122,-1.22455 -1.08122,-1.60926 0,-0.38472 -0.10763,-0.97996 -0.23918,-1.32277 -0.18443,-0.48064 -0.33745,-0.30557 -0.66856,0.7649 -0.41463,1.34046 -0.43066,1.28337 -0.46638,-1.66088 -0.0281,-2.31961 0.0816,-3.09459 0.45891,-3.23936 0.27275,-0.10466 0.6014,-0.67062 0.73034,-1.25768 0.54746,-2.49258 5.48048,-4.77305 8.54174,-3.94874 2.04304,0.55013 3.80443,2.59985 4.35737,5.07066 0.40627,1.81539 0.38023,2.035 -0.4121,3.47546 -0.6757,1.22842 -1.15166,1.63467 -2.36694,2.0203 -1.35842,0.43104 -1.6719,0.41471 -2.93027,-0.15274 -0.77501,-0.34948 -1.6363,-1.07475 -1.91397,-1.61169 -0.58107,-1.12368 -0.67157,-2.7752 -0.15207,-2.7752 0.19403,0 0.35278,0.3607 0.35278,0.80156 0,0.44086 0.48336,1.38797 1.07414,2.10469 0.9437,1.14487 1.21145,1.27712 2.20486,1.08902 0.6219,-0.11775 1.42203,-0.36329 1.77807,-0.54565 1.20263,-0.61594 2.63979,-4.86073 1.64571,-4.86073 -0.19403,0 -0.35278,-0.28218 -0.35278,-0.62706 0,-2.65912 -4.90821,-4.32819 -7.4356,-2.52853 -0.52998,0.37738 -1.12458,0.68614 -1.32134,0.68614 -0.19675,0 -0.72787,0.59532 -1.18026,1.32292 -0.64212,1.03277 -0.82252,1.82734 -0.82252,3.62284 0,2.09518 0.10992,2.43926 1.23472,3.86506 0.6791,0.86082 1.93535,2.20711 2.79168,2.99174 3.05775,2.80176 6.10185,6.02895 6.61351,7.0113 1.04363,2.00366 1.8837,5.31852 1.8837,7.43294 0,5.60848 -2.79303,10.74735 -7.62297,14.02543 -2.97887,2.02177 -4.97022,2.5519 -9.66314,2.57248 -4.26383,0.0187 -4.73449,-0.0896 -8.74207,-2.01114 -3.63687,-1.74381 -6.63877,-5.74843 -7.65354,-10.21004 -0.65311,-2.8715 -0.67868,-4.68562 -0.0968,-6.86458 0.35277,-1.32094 0.35277,-1.68061 0,-1.79835 -0.24254,-0.081 -0.44098,-0.34758 -0.44098,-0.59251 0,-0.29694 -0.64657,-0.46647 -1.94027,-0.50874 -1.78945,-0.0585 -1.94402,-0.001 -1.98832,0.73932 l -0.048,0.80272 -0.15289,-0.79375 c -0.18936,-0.98314 -0.80936,-1.05071 -0.80936,-0.0882 0,0.39197 -0.23519,0.70555 -0.52917,0.70555 -0.29104,0 -0.60854,0 -0.70556,0 -0.097,0 -0.17639,-0.11906 -0.17639,-0.26458 0,-0.14552 0.18521,-0.26458 0.41158,-0.26458 0.46835,0 0.86243,-0.86853 0.41157,-0.9071 -0.16169,-0.0138 -0.89354,-0.0981 -1.62634,-0.18724 -1.26247,-0.15359 -1.32112,-0.11728 -1.11794,0.69222 0.26285,1.04728 -0.0384,1.25078 -1.51845,1.02562 -0.90896,-0.13828 -1.14653,-0.34181 -1.14653,-0.98227 0,-0.71142 -0.20004,-0.82246 -1.67569,-0.9301 -3.07531,-0.22435 -3.96875,-0.009 -3.96875,0.95844 0,1.30472 -1.39259,1.19956 -1.46397,-0.11055 l -0.0529,-0.97014 -0.14697,0.97014 c -0.18363,1.21219 -0.805653,1.28028 -0.805653,0.0882 0,-0.70556 -0.176387,-0.88195 -0.881943,-0.88195 -0.667298,0 -0.891905,0.19318 -0.922867,0.79375 -0.03698,0.71731 -0.05727,0.72581 -0.210632,0.0882 -0.29841,-1.24064 -0.80454,-1.4421 -0.841944,-0.33514 -0.03417,1.01138 -0.04203,1.01585 -0.279045,0.15875 -0.359408,-1.29973 -1.632908,-1.3655 -2.091378,-0.10801 -0.323128,0.88627 -0.36385,0.90682 -0.388784,0.1962 -0.01532,-0.43656 -0.173617,-0.79375 -0.351774,-0.79375 -0.17816,0 -0.575035,-0.0964 -0.881946,-0.21413 -0.422728,-0.16222 -0.570834,0.0302 -0.610876,0.79375 -0.05259,1.00275 -0.05358,1.00317 -0.195566,0.0818 -0.108625,-0.70486 -0.346441,-0.92604 -0.995699,-0.92604 -0.939604,0 -1.509591,1.07285 -0.946113,1.78082 0.620252,0.7793 1.070401,4.59207 0.766773,6.49458 -0.720815,4.51659 -4.905496,10.22498 -8.762796,11.95347 -1.042789,0.46728 -1.955601,0.8496 -2.02847,0.8496 -0.07287,0 -0.132493,-1.18125 -0.132493,-2.62501 0,-1.44376 -0.15875,-2.72313 -0.35278,-2.84304 -0.223866,-0.13836 -0.352777,0.80508 -0.352777,2.58181 0,3.16961 -0.134778,3.37695 -2.469443,3.79901 -3.375702,0.61025 -7.005188,0.11225 -10.555481,-1.44829 -7.920796,-3.48162 -10.888998,-12.10796 -7.007844,-20.36656 1.230101,-2.6175 1.8688,-2.98677 2.135635,-1.23472 0.19545,1.28332 0.01421,1.71689 -0.422397,1.01045 -0.240202,-0.38866 -0.339288,-0.38786 -0.581887,0.005 -0.365382,0.5912 -0.461312,13.34368 -0.102047,13.56572 0.144581,0.0894 0.426556,-0.11868 0.62661,-0.46231 0.293425,-0.50402 0.365805,-0.34835 0.374459,0.80532 0.0087,1.15682 0.240845,1.65314 1.214967,2.5973 0.662334,0.64196 1.360075,1.07088 1.550535,0.95317 0.190463,-0.11771 0.441182,0.0332 0.557157,0.33548 0.115975,0.30223 0.370734,0.45069 0.566131,0.32993 0.405067,-0.25034 0.491273,-5.92156 0.09602,-6.31681 -0.142586,-0.14258 -0.450101,0.50564 -0.683368,1.44051 -0.403328,1.61643 -0.414766,1.55147 -0.233336,-1.32527 0.162031,-2.56915 0.0983,-3.11751 -0.4229,-3.63871 -0.555794,-0.55579 -0.589835,-1.17721 -0.360889,-6.58816 0.157491,-3.72219 0.126238,-5.97449 -0.0829,-5.97449 -0.374954,0 -0.765339,3.95888 -0.825216,8.36848 -0.02167,1.59524 -0.155398,3.42086 -0.297191,4.05695 -0.141793,0.63608 -0.17935,-1.41926 -0.08346,-4.56742 0.130175,-4.27374 0.06274,-5.85842 -0.266166,-6.25472 -0.362455,-0.43674 -0.276677,-0.73521 0.484066,-1.6844 1.225299,-1.52882 1.275048,-1.58218 3.377832,-3.62305 5.246804,-5.09234 5.624121,-11.40374 0.802201,-13.41847 -2.241137,-0.9364 -4.368382,-0.39491 -6.264698,1.59468 -0.927571,0.9732 -1.058334,1.36414 -1.058334,3.16412 0,1.76135 0.125561,2.15737 0.881944,2.78168 1.157774,0.9556 2.707463,1.29712 3.374366,0.74364 0.287782,-0.23884 0.638218,-0.31927 0.778746,-0.17875 0.478935,0.47894 -1.109036,1.25615 -2.566517,1.25615 -2.370801,0 -3.703262,-1.70234 -3.703262,-4.73127 0,-2.58009 1.179441,-4.17155 4.009253,-5.40982 1.236152,-0.54092 3.364418,-0.57127 4.699034,-0.067 1.158936,0.43788 2.933383,2.0386 2.933383,2.64619 0,0.69128 0.953968,1.33047 1.172564,0.78567 0.100566,-0.25063 0.195376,1.33024 0.210696,3.51306 0.01646,2.34408 -0.112033,3.96875 -0.313854,3.96875 -0.187939,0 -0.242017,-0.25979 -0.120177,-0.57731 0.149355,-0.38921 0.06581,-0.52539 -0.256421,-0.41798 -0.262874,0.0876 -0.600022,0.61575 -0.749218,1.17362 -0.149195,0.55786 -0.515038,1.15072 -0.812985,1.31745 -0.678619,0.37978 -0.800224,6.12036 -0.13435,6.34232 0.227428,0.0758 -0.142806,0.67314 -0.838192,1.35232 -1.465688,1.43152 -2.740996,3.43238 -2.742856,4.30333 -7.94e-4,0.33954 -0.16007,0.61736 -0.354097,0.61736 -0.482415,0 -0.444161,-0.40068 0.181123,-1.8972 0.293645,-0.70279 0.441055,-1.2778 0.327578,-1.2778 -0.113477,0 0.04314,-0.24947 0.348044,-0.55437 0.3049,-0.3049 0.559297,-0.82084 0.565327,-1.14653 0.006,-0.32568 0.07898,-1.57895 0.16211,-2.78502 0.160433,-2.32757 -0.212111,-3.06244 -0.951947,-1.87777 -0.247047,0.39558 -0.609428,0.71929 -0.805289,0.71934 -0.3953,1.1e-4 -0.490532,8.28592 -0.105417,9.17213 0.126476,0.29104 0.291155,1.90614 0.365953,3.58911 0.166812,3.75334 0.977333,5.1953 4.119787,7.3293 1.83637,1.24705 2.353979,1.42881 4.068979,1.42881 3.221805,0 6.137992,-0.99495 7.810395,-2.66476 2.063231,-2.06003 2.740633,-4.06296 2.54092,-7.51289 -0.126299,-2.18172 -0.362757,-3.12542 -1.097084,-4.37846 -1.014748,-1.73154 -2.691731,-3.3105 -4.07429,-3.83615 -0.662043,-0.25171 -0.772636,-0.42963 -0.460856,-0.74141 0.225623,-0.22562 0.410223,-1.3216 0.410223,-2.43551 0,-1.11391 0.15875,-2.12341 0.352777,-2.24332 0.223607,-0.1382 0.35278,0.78421 0.35278,2.51918 0,1.99755 0.105296,2.63191 0.389665,2.34754 0.214315,-0.21431 0.379055,-1.27794 0.366085,-2.36361 -0.01381,-1.15589 0.129622,-1.97395 0.346088,-1.97395 0.236175,0 0.312947,0.83889 0.212601,2.32314 -0.128947,1.90725 -0.05541,2.36119 0.410776,2.53577 0.312312,0.11696 0.754938,0.46061 0.983615,0.76368 0.603189,0.7994 0.782836,0.11254 0.916961,-3.50592 0.106966,-2.88574 0.113853,-2.85459 0.182957,0.82749 0.06195,3.30072 0.178464,3.97889 0.848558,4.93889 0.427215,0.61203 0.884349,1.19216 1.01585,1.28918 0.131503,0.097 0.435909,1.06097 0.676455,2.14212 0.457308,2.05539 0.04634,7.24635 -0.609503,7.69871 -0.170113,0.11733 -0.658106,0.7877 -1.084426,1.4897 -0.592095,0.97497 -0.775129,1.82881 -0.775129,3.61597 0,1.32455 0.153056,2.33961 0.35278,2.33961 0.194027,0 0.363934,-0.91282 0.377571,-2.02847 0.01363,-1.11566 0.171053,-2.34598 0.349813,-2.73403 0.227008,-0.49279 0.287941,-0.0432 0.202063,1.49097 -0.06763,1.2081 -0.04522,2.27427 0.0498,2.36929 0.347432,0.34743 1.491205,-1.53075 1.525365,-2.5048 0.01934,-0.55147 0.162266,-1.39956 0.317611,-1.88463 0.252074,-0.7871 0.286232,-0.73968 0.317614,0.44097 0.01934,0.72761 0.193916,1.32292 0.387943,1.32292 0.194027,0 0.355208,-0.59531 0.358179,-1.32292 0.0039,-0.96682 0.09495,-1.18127 0.338088,-0.7967 0.216132,0.34187 0.445621,0.40366 0.655044,0.17639 0.442569,-0.48028 0.847437,-11.46233 0.422572,-11.46233 -0.351274,0 -0.631092,1.28367 -0.845894,3.88056 -0.07222,0.87312 -0.09412,0.11067 -0.04866,-1.69434 l 0.08264,-3.28185 -1.098343,-0.45299 c -1.008441,-0.41592 -1.117124,-0.39273 -1.327764,0.28323 -0.144767,0.46457 -0.227293,0.15046 -0.22366,-0.85127 0.0032,-0.87313 0.07873,-1.30775 0.167923,-0.96582 0.358299,1.37358 0.814321,0.07 0.814321,-2.3279 0,-1.53959 0.186061,-2.82166 0.470548,-3.24237 0.626428,-0.92637 1.009711,-2.01495 0.625946,-1.77777 -0.172219,0.10643 -0.22825,-3.69587 -0.127875,-8.67751 l 0.178662,-8.86696 -0.838224,0.22112 c -5.535964,1.46039 -5.43561,1.44784 -7.540021,0.943 -2.467533,-0.59195 -5.13619,-2.67405 -6.199301,-4.83673 -0.944846,-1.92209 -1.487644,-5.70478 -1.209157,-8.42646 l 0.220038,-2.15046 -3.251448,-0.23079 c -3.612394,-0.25642 -10.198614,-0.31164 -10.198614,-0.0855 0,0.13784 -2.085273,12.65499 -2.796775,16.78805 -1.743303,10.12668 -2.573581,19.52231 -2.603071,29.45694 -0.02299,7.74798 0.06521,9.23974 0.726051,12.27897 1.008578,4.63848 2.958642,8.5044 6.046152,11.98626 2.701346,3.04637 4.18378,4.22713 7.424954,5.91398 3.796435,1.97583 5.292133,2.16093 18.983942,2.34941 7.155029,0.0985 12.435416,0.30817 12.435416,0.49379 0,0.19341 -5.368845,0.22888 -13.405556,0.0886 l -13.405554,-0.23403 v 0.915 c 0,0.50326 0.13738,0.99992 0.305287,1.10369 0.167907,0.10377 13.225097,0.29191 29.015978,0.41807 15.79088,0.12617 28.7381,0.24907 28.77161,0.27312 0.0335,0.0241 0.99994,0.091 2.14762,0.14883 1.45031,0.0731 2.20991,-0.0434 2.49074,-0.38171 z M 72.898568,190.63897 c 0.110419,-0.43994 0.382191,-1.64587 0.603941,-2.67986 0.221753,-1.03399 0.52346,-1.74561 0.670462,-1.58137 0.383556,0.42852 1.374013,4.64027 1.145069,4.86922 -0.105537,0.10554 -0.738264,0.19189 -1.406056,0.19189 -1.085739,0 -1.192935,-0.0846 -1.013416,-0.79988 z m 5.275834,-2.6488 c -2.156751,-3.19141 -1.919975,-3.62985 0.947659,-1.7548 1.813089,1.18553 2.022019,1.59673 1.400939,2.75722 -0.562517,1.05107 -1.122315,0.81214 -2.348598,-1.00242 z m -10.176639,0.37913 c -0.596556,-0.91046 -0.596628,-0.96935 -0.0016,-1.32291 0.342509,-0.20353 1.3265,-0.82615 2.186647,-1.38361 0.860147,-0.55746 1.669089,-0.90838 1.797645,-0.77982 0.254582,0.25458 -0.762741,2.31287 -1.78939,3.62036 -0.840148,1.06998 -1.427938,1.03406 -2.193296,-0.13402 z m 18.255226,-1.86934 c -0.01421,-2.4449 0.04936,-2.81539 0.34426,-2.00638 0.241866,0.66352 0.247642,1.65691 0.01744,2.99861 l -0.34426,2.00638 z m -25.177215,0.44097 c -0.06574,-1.11566 -0.02907,-3.2191 0.0815,-4.67431 0.170178,-2.23977 0.210783,-1.92846 0.264584,2.02848 0.06501,4.78144 -0.131646,6.28492 -0.34608,2.64583 z m 12.270512,-2.74161 c -1.102985,-1.10298 -0.478198,-2.63825 1.073658,-2.63825 1.090025,0 1.603801,1.03849 1.056693,2.13588 -0.527339,1.05774 -1.375077,1.25765 -2.130351,0.50237 z m 5.778016,-0.22824 c -1.741205,-0.49156 -2.048246,-0.92051 -0.844778,-1.18018 0.561642,-0.12118 1.362374,-0.35741 1.779408,-0.52495 1.287565,-0.51728 2.24037,-0.0494 2.24037,1.10015 0,0.88219 -0.128757,1.01297 -0.97014,0.98537 -0.533577,-0.0175 -1.525765,-0.18867 -2.20486,-0.38039 z M 66.424299,182.6194 c 0,-0.61434 0.184999,-1.05608 0.440973,-1.05298 0.904386,0.011 3.583927,0.95684 3.700383,1.30621 0.149463,0.44839 -1.067379,0.79391 -2.818439,0.80029 -1.235792,0.005 -1.322917,-0.0649 -1.322917,-1.05352 z m 20.164036,0 c 0,-0.48507 0.08007,-0.68351 0.177937,-0.44097 0.09786,0.24253 0.09786,0.63941 0,0.88194 -0.09787,0.24254 -0.177937,0.0441 -0.177937,-0.44097 z m -9.93348,-1.70124 c 0,-0.50154 2.156257,-4.29598 2.441266,-4.29598 0.442669,0 1.440032,1.24944 1.430194,1.79166 -0.005,0.27577 -0.770154,1.01733 -1.700336,1.64792 -1.749118,1.18577 -2.171124,1.35223 -2.171124,0.8564 z m 9.973863,-1.12098 c 0,-0.87313 0.0688,-1.23031 0.152882,-0.79375 0.08409,0.43656 0.08409,1.15094 0,1.5875 -0.08409,0.43656 -0.152882,0.0794 -0.152882,-0.79375 z m -16.764833,-0.36013 c -1.810644,-1.13702 -2.174235,-2.17046 -0.987145,-2.80577 0.769261,-0.4117 0.892358,-0.31286 2.315031,1.85865 1.503455,2.29482 1.182637,2.52364 -1.327886,0.94712 z m 4.171831,-1.07115 c -0.886251,-2.98433 -0.660352,-3.81225 0.904645,-3.31554 0.689967,0.21898 0.731017,0.40617 0.523814,2.38857 -0.305649,2.9243 -0.749737,3.21248 -1.428459,0.92697 z m 42.640424,1.04776 c -0.13036,-0.21093 -0.0604,-0.56018 0.15557,-0.77611 0.28828,-0.28827 0.3926,-0.18636 0.3926,0.38352 0,0.85179 -0.18326,0.98303 -0.54817,0.39259 z m -13.56295,-0.51924 c 0,-0.3025 0.15875,-0.45188 0.35278,-0.33196 0.19403,0.11991 0.35278,0.36741 0.35278,0.54998 0,0.18258 -0.15875,0.33196 -0.35278,0.33196 -0.19403,0 -0.35278,-0.24749 -0.35278,-0.54998 z m 2.82223,0.0208 c 0,-0.25552 0.36039,-0.43226 0.82312,-0.40366 0.45272,0.028 0.82313,0.20963 0.82313,0.40366 0,0.19403 -0.37041,0.37567 -0.82313,0.40365 -0.46273,0.0286 -0.82312,-0.14813 -0.82312,-0.40365 z m 5.51687,0 c 0.11168,-0.29104 0.26545,-0.52917 0.3417,-0.52917 0.0763,0 0.13865,0.23813 0.13865,0.52917 0,0.29104 -0.15377,0.52916 -0.34171,0.52916 -0.18794,0 -0.25033,-0.23812 -0.13864,-0.52916 z m -50.291807,-0.38218 c 0.01693,-0.41097 0.10052,-0.49456 0.213137,-0.21314 0.101907,0.25466 0.08937,0.55894 -0.02785,0.67616 -0.117226,0.11723 -0.200604,-0.0911 -0.185287,-0.46302 z m 34.367985,-0.14699 c 0.119914,-0.19403 0.288033,-0.35278 0.373597,-0.35278 0.08556,0 0.15557,0.15875 0.15557,0.35278 0,0.19403 -0.168119,0.35278 -0.3736,0.35278 -0.205478,0 -0.275484,-0.15875 -0.155567,-0.35278 z m -30.053187,-4.40972 c 0.0021,-1.16417 0.06784,-1.59789 0.146354,-0.96383 0.07851,0.63407 0.0769,1.58657 -0.0036,2.11667 -0.08049,0.5301 -0.144732,0.0113 -0.142754,-1.15284 z m 18.7281,-3.35139 c 0,-2.81341 0.05479,-3.96434 0.121748,-2.55764 0.06696,1.4067 0.06696,3.70857 0,5.11528 -0.06696,1.4067 -0.121748,0.25576 -0.121748,-2.55764 z m 1.129604,1.76501 c 0.108831,-1.64863 0.264522,-3.06415 0.345982,-3.14561 0.315048,-0.31504 0.118465,5.11404 -0.203274,5.61393 -0.225832,0.35088 -0.273915,-0.48075 -0.142708,-2.46832 z m -4.047067,-0.21647 c -0.02471,-1.18559 -0.127095,-2.93184 -0.227494,-3.88055 l -0.182544,-1.72494 0.559822,1.72311 c 0.442642,1.36244 0.490262,2.17471 0.227496,3.88056 l -0.332327,2.15744 z m -10.572583,0.56812 c 0,-0.48507 0.08007,-0.6835 0.177938,-0.44097 0.09786,0.24254 0.09786,0.63941 0,0.88195 -0.09787,0.24253 -0.177938,0.0441 -0.177938,-0.44098 z m -1.425072,-2.02847 c 0.03225,-1.83999 0.102949,-2.14069 0.311039,-1.32291 0.40174,1.57882 0.40174,3.70416 0,3.70416 -0.204468,0 -0.335233,-1.00111 -0.311039,-2.38125 z m 3.838816,0.0882 c 0,-2.52923 0.515228,-2.52866 0.575013,5.3e-4 0.02521,1.0668 -0.09385,1.93964 -0.264583,1.93964 -0.170736,0 -0.31043,-0.87313 -0.31043,-1.94028 z m 2.70638,1.32291 c -0.289123,-0.48575 -0.153194,-4.33164 0.159938,-4.52517 0.169775,-0.10492 0.308681,0.92985 0.308681,2.29949 0,2.35255 -0.102721,2.84042 -0.468619,2.22568 z m 1.303586,-1.7517 c 0.04477,-1.01194 0.192715,-1.95121 0.328769,-2.08727 0.325675,-0.32567 0.281704,0.76186 -0.101724,2.51606 -0.306147,1.40063 -0.307833,1.39744 -0.227045,-0.42879 z m -6.397566,0.2524 c 0,-0.6791 0.0726,-0.95691 0.161335,-0.61736 0.08873,0.33954 0.08873,0.89517 0,1.23472 -0.08873,0.33955 -0.161335,0.0617 -0.161335,-0.61736 z m 1.430165,-0.52917 c 0.0026,-0.97014 0.07116,-1.32514 0.152247,-0.7889 0.08109,0.53625 0.07892,1.33 -0.0048,1.76389 -0.08374,0.43389 -0.150079,-0.005 -0.147431,-0.97499 z m 2.424247,0.88195 c 0,-0.48508 0.08007,-0.68351 0.177935,-0.44098 0.09787,0.24254 0.09787,0.63941 0,0.88195 -0.09786,0.24253 -0.177935,0.0441 -0.177935,-0.44097 z m 65.652309,0.303 c -0.23018,-0.23018 -0.26536,-0.75457 -0.0913,-1.36134 0.17613,-0.61414 0.13853,-1.13147 -0.0995,-1.36954 -0.21042,-0.21042 -0.28582,-0.47936 -0.16754,-0.59764 0.29234,-0.29233 1.32541,1.76102 1.32541,2.6344 0,0.86272 -0.46477,1.19634 -0.96699,0.69412 z m -57.770511,-3.12523 c -0.119915,-0.19402 -0.04991,-0.35277 0.155569,-0.35277 0.205478,0 0.373597,0.15875 0.373597,0.35277 0,0.19403 -0.07001,0.35278 -0.155567,0.35278 -0.08556,0 -0.253682,-0.15875 -0.373599,-0.35278 z m 46.479251,-0.88194 c 0.004,-0.77611 0.0762,-1.05207 0.16054,-0.61325 0.0844,0.43883 0.0812,1.07383 -0.007,1.41111 -0.0883,0.33729 -0.15734,-0.0217 -0.15342,-0.79786 z m -6.30693,-0.34114 c -0.10923,-0.28464 -0.13051,-0.72121 -0.0473,-0.97014 0.0832,-0.24894 0.23492,-0.0161 0.33713,0.51753 0.19958,1.04183 0.0349,1.29894 -0.28983,0.45261 z m 1.68755,-0.89358 c 0,-0.48507 0.0801,-0.68351 0.17794,-0.44098 0.0979,0.24254 0.0979,0.63941 0,0.88195 -0.0979,0.24253 -0.17794,0.0441 -0.17794,-0.44097 z m -47.272225,-1.41111 c 0,-0.48508 0.08007,-0.68351 0.177938,-0.44098 0.09786,0.24254 0.09786,0.63941 0,0.88195 -0.09787,0.24253 -0.177938,0.0441 -0.177938,-0.44097 z m 7.027706,-0.55857 c 0.01693,-0.41097 0.100521,-0.49456 0.213135,-0.21314 0.101907,0.25467 0.08937,0.55894 -0.02785,0.67616 -0.117226,0.11723 -0.200604,-0.0911 -0.185285,-0.46302 z m 52.916669,-1.41111 c 0.0169,-0.41097 0.10052,-0.49456 0.21314,-0.21314 0.10191,0.25466 0.0894,0.55894 -0.0279,0.67616 -0.11723,0.11723 -0.20061,-0.0911 -0.18529,-0.46302 z m -9.49715,-1.5581 c 0,-0.48507 0.0801,-0.68351 0.17794,-0.44097 0.0979,0.24253 0.0979,0.6394 0,0.88194 -0.0979,0.24254 -0.17794,0.0441 -0.17794,-0.44097 z m 1.76389,0 c 0,-0.48507 0.0801,-0.68351 0.17794,-0.44097 0.0979,0.24253 0.0979,0.6394 0,0.88194 -0.0979,0.24254 -0.17794,0.0441 -0.17794,-0.44097 z m 15.8193,-0.70556 c 0,-0.19403 0.16812,-0.35278 0.3736,-0.35278 0.20548,0 0.27548,0.15875 0.15557,0.35278 -0.11992,0.19403 -0.28804,0.35278 -0.3736,0.35278 -0.0856,0 -0.15557,-0.15875 -0.15557,-0.35278 z M 60.779856,160.0416 c 0,-0.19402 0.15875,-0.35277 0.352776,-0.35277 0.194027,0 0.352777,0.15875 0.352777,0.35277 0,0.19403 -0.15875,0.35278 -0.352777,0.35278 -0.194026,0 -0.352776,-0.15875 -0.352776,-0.35278 z m 2.645833,-0.29987 -1.058333,-0.57781 0.971748,-0.11391 c 0.534464,-0.0626 1.209151,0.12348 1.499306,0.41364 1.075222,1.07522 0.319736,1.22393 -1.412721,0.27808 z m 11.549382,36.68162 c -0.10134,-1.05468 -0.01326,-1.81168 0.228196,-1.9609 0.272629,-0.16849 0.393255,0.41261 0.393255,1.89445 0,1.1898 0.156409,2.13748 0.35278,2.13748 0.199368,0 0.352776,-1.00735 0.352776,-2.31649 v -2.31648 l -0.970139,0.11162 c -0.942081,0.1084 -0.973193,0.18216 -1.075767,2.55054 -0.08922,2.06 -0.02875,2.37512 0.389168,2.02827 0.348035,-0.28884 0.445836,-0.92017 0.329731,-2.12849 z m -1.439568,1.10851 c 0.395573,-1.34018 -0.06564,-3.54391 -0.780839,-3.73094 -0.810474,-0.21194 -1.038696,0.3861 -1.038696,2.72185 0,1.69292 0.06788,1.84885 0.79375,1.82323 0.502092,-0.0177 0.87901,-0.31687 1.025785,-0.81414 z m -1.008267,-1.50692 c 0,-1.06716 0.06614,-1.50372 0.146966,-0.97014 0.08083,0.53357 0.08083,1.4067 0,1.94028 -0.08083,0.53357 -0.146966,0.097 -0.146966,-0.97014 z m 59.866514,0 c 0,-1.41111 -0.15119,-2.46945 -0.35278,-2.46945 -0.20158,0 -0.35278,1.05834 -0.35278,2.46945 0,1.41111 0.1512,2.46944 0.35278,2.46944 0.20159,0 0.35278,-1.05833 0.35278,-2.46944 z m 2.51124,2.02847 c 0.023,-0.24254 0.0124,-0.65534 -0.0236,-0.91735 -0.0366,-0.26669 0.10659,-0.37008 0.32533,-0.23489 0.2149,0.13281 0.28823,0.5644 0.16296,0.95908 -0.1627,0.51264 -0.0912,0.67119 0.25024,0.55509 0.31254,-0.10626 0.47456,-0.73125 0.46808,-1.80563 -0.006,-1.07111 0.14127,-1.64311 0.42436,-1.64311 0.31377,0 0.37629,0.48938 0.22534,1.76389 -0.14292,1.20676 -0.082,1.76389 0.19301,1.76389 0.2556,0 0.40192,-0.76284 0.40192,-2.09534 v -2.09534 l -1.49931,0.0669 -1.4993,0.0669 -0.11647,2.02847 c -0.074,1.2894 0.0224,2.02847 0.26458,2.02847 0.20959,0 0.39987,-0.19844 0.42286,-0.44097 z m 0.36668,-2.38125 c 0,-0.48507 0.0801,-0.68351 0.17794,-0.44097 0.0979,0.24253 0.0979,0.63941 0,0.88194 -0.0979,0.24254 -0.17794,0.0441 -0.17794,-0.44097 z m 4.55552,2.3401 c 0.0138,-0.0259 0.10478,-1.05577 0.20216,-2.28866 0.1221,-1.54587 0.0596,-2.16899 -0.2015,-2.00765 -0.2082,0.12868 -0.38098,0.89928 -0.38395,1.71245 -0.003,0.81316 -0.15929,1.71661 -0.34737,2.00765 -0.24701,0.38222 -0.34348,0.0581 -0.34738,-1.16735 -0.003,-1.03998 -0.14192,-1.61214 -0.35818,-1.47848 -0.36842,0.22769 -0.49846,3.08811 -0.15596,3.43061 0.1566,0.15659 1.49056,-0.0181 1.59218,-0.20857 z M 71.068504,195.8413 c 0.130373,-2.53518 0.0421,-3.09491 -0.441,-2.79633 -0.421341,0.2604 -0.421312,5.09665 2.9e-5,5.09665 0.177472,0 0.37591,-1.03515 0.440971,-2.30032 z m 6.374445,0.62463 c 0.08447,-0.92163 0.0259,-1.91382 -0.130138,-2.20486 -0.156046,-0.29104 -0.294852,-0.37042 -0.308457,-0.17639 -0.0136,0.19403 -0.0887,1.18621 -0.166875,2.20486 -0.07818,1.01865 -0.0085,1.85208 0.154874,1.85208 0.163359,0 0.366125,-0.75406 0.450596,-1.67569 z m 1.399492,-0.52917 c 0.14887,-2.45715 0.132392,-2.54854 -0.400225,-2.21936 -0.457028,0.28245 -0.508336,4.42422 -0.05481,4.42422 0.176794,0 0.381558,-0.99218 0.45503,-2.20486 z m 54.552139,0 -0.0575,-2.20486 -0.21436,1.94028 c -0.1179,1.06715 -0.16203,2.05934 -0.0981,2.20486 0.30478,0.69344 0.4225,0.076 0.36992,-1.94028 z m -63.558619,-0.61754 c 0.04703,-1.92686 -0.04983,-2.46926 -0.440973,-2.46926 -0.380378,0 -0.501243,0.53875 -0.501243,2.23426 0,2.07424 0.157673,2.7049 0.676156,2.70444 0.113184,-9e-5 0.23291,-1.11134 0.26606,-2.46944 z m 71.730009,0.15575 c 0,-1.0557 -0.15875,-1.91946 -0.35278,-1.91946 -0.19637,0 -0.35277,0.94768 -0.35277,2.13749 0,1.33516 0.13242,2.05564 0.35277,1.91946 0.19403,-0.11992 0.35278,-1.08179 0.35278,-2.13749 z m -73.196819,-0.78341 c 0.09087,-1.96055 0.0085,-2.54716 -0.357828,-2.54716 -0.356198,0 -0.479391,0.67178 -0.489829,2.67108 -0.01812,3.46952 0.685877,3.3666 0.847657,-0.12392 z m 62.613489,0.62784 c 0,-1.17593 -0.15679,-2.11666 -0.35278,-2.11666 -0.19599,0 -0.35278,0.94073 -0.35278,2.11666 0,1.17593 0.15679,2.11667 0.35278,2.11667 0.19599,0 0.35278,-0.94074 0.35278,-2.11667 z m 11.84251,-0.13261 c 0.0758,-1.07311 -0.0177,-2.04727 -0.20788,-2.16479 -0.21271,-0.13147 -0.34574,0.69923 -0.34574,2.15899 0,2.79727 0.35611,2.801 0.55362,0.006 z m -61.536141,0.92636 c 0.04119,-0.83179 0.06984,-0.85695 0.200924,-0.17639 0.08409,0.43656 0.367178,0.79375 0.629092,0.79375 0.360061,0 0.460679,-0.59608 0.412544,-2.44394 -0.09118,-3.5 -0.538647,-3.66035 -1.055603,-0.37828 -0.112059,0.71144 -0.148201,0.66029 -0.186957,-0.26458 -0.09091,-2.16965 -0.753597,-1.16143 -0.753597,1.14653 0,1.29351 0.153776,2.29305 0.352777,2.29305 0.194029,0 0.374398,-0.43656 0.40082,-0.97014 z m 63.000691,-1.87792 c 0.12208,-1.7944 0.0588,-2.46072 -0.21744,-2.28999 -0.22518,0.13917 -0.38962,1.29907 -0.38962,2.74822 0,3.16839 0.37982,2.88169 0.60706,-0.45823 z m -77.477747,1.52514 c 0.114499,-3.18505 -0.0021,-4.8398 -0.349493,-4.95556 -0.265824,-0.0886 -0.390938,0.83876 -0.390938,2.89769 0,1.78349 0.144992,3.02801 0.352777,3.02801 0.19403,0 0.368472,-0.43656 0.387654,-0.97014 z m 62.816437,-1.18222 c 0.16754,-3.01687 -0.32578,-3.69116 -0.87723,-1.19903 -0.0859,0.38806 -0.17454,-0.0485 -0.19704,-0.97013 -0.0558,-2.28628 -0.65259,-2.12386 -0.80203,0.21828 -0.20919,3.27861 0.33287,4.61715 0.87592,2.16297 0.0859,-0.38806 0.17453,-0.11025 0.19704,0.61736 0.0662,2.14046 0.67321,1.51374 0.80334,-0.82945 z m 16.16551,-1.46361 c -0.004,-2.23717 -0.11292,-3.09681 -0.34737,-2.73403 -0.45664,0.7066 -0.45664,5.99723 0,5.99723 0.21015,0 0.35059,-1.31932 0.34737,-3.2632 z m -18.69182,-1.34374 c 0,-1.8676 -0.14389,-3.15418 -0.35278,-3.15418 -0.21058,0 -0.35277,1.35926 -0.35277,3.37221 0,2.15831 0.12699,3.29373 0.35277,3.15418 0.19403,-0.11991 0.35278,-1.63741 0.35278,-3.37221 z m 20.25543,-1.2139 c 0.13892,-2.93976 0.0965,-3.91479 -0.13874,-3.19089 -0.51646,1.58913 -0.8834,8.20846 -0.43112,7.777 0.20339,-0.19402 0.45983,-2.25777 0.56986,-4.58611 z m 1.26402,2.31683 c 0,-0.37498 0.3175,-0.78255 0.70555,-0.90572 0.60991,-0.19357 0.7083,-0.54352 0.72579,-2.58141 0.027,-3.14432 0.24905,-7.49947 0.52045,-10.20678 0.13597,-1.35639 0.0879,-2.20486 -0.12502,-2.20486 -0.19422,0 -0.44169,1.81871 -0.56403,4.14514 -0.41773,7.94409 -0.61678,9.97078 -0.95856,9.75954 -0.33095,-0.20453 -0.23556,-3.08273 0.38481,-11.61163 0.15525,-2.1343 0.14794,-4.11868 -0.0162,-4.40972 -0.2424,-0.42969 -0.30726,-0.39654 -0.34503,0.17639 -0.058,0.8794 -0.21187,2.80261 -0.47989,5.99722 -0.48194,5.74427 -0.60536,12.52361 -0.228,12.52361 0.20909,0 0.38017,-0.3068 0.38017,-0.68178 z m -8.20928,-1.3068 c 3.06191,-1.45801 4.96866,-4.31101 5.29634,-7.92473 0.2441,-2.69197 -0.3874,-4.86342 -1.94284,-6.6806 -2.42226,-2.82986 -5.39037,-3.96139 -9.13064,-3.48086 -4.95416,0.63649 -8.23042,4.42466 -8.23662,9.52357 -0.009,7.45589 7.15072,11.83062 14.01376,8.56262 z m -5.16649,-0.44608 c -0.42802,-0.27856 -0.41532,-0.66566 0.0889,-2.70883 0.66288,-2.68619 0.7151,-2.77928 1.40952,-2.5128 0.32323,0.12403 0.58931,1.02323 0.75182,2.54077 0.13835,1.29184 0.19755,2.40278 0.13157,2.46876 -0.35085,0.35085 -1.94982,0.49324 -2.38179,0.2121 z m -4.35132,-1.82693 c -0.91261,-0.53155 -0.75624,-1.14864 0.52917,-2.08827 0.63059,-0.46095 1.35397,-1.12581 1.6075,-1.47745 0.43269,-0.60011 1.47931,-0.89904 1.47931,-0.42251 0,0.38782 -1.92473,3.83268 -2.29037,4.09928 -0.45689,0.33313 -0.58082,0.32275 -1.32561,-0.11105 z m 9.32375,-1.20731 c -1.05238,-0.88552 -2.09203,-2.85054 -1.71019,-3.23239 0.24773,-0.24773 3.94962,1.4434 4.26042,1.94629 0.30567,0.4946 -0.0555,1.23824 -0.83891,1.72752 -0.57296,0.35782 -0.8448,0.2877 -1.71132,-0.44142 z m -5.1799,-4.41031 c -0.92133,-1.01805 -0.24106,-2.46801 1.1579,-2.46801 1.76946,0 2.44471,1.46187 1.19687,2.59116 -0.85571,0.7744 -1.57662,0.7367 -2.35477,-0.12315 z m 6.10406,0.14764 c -0.91209,-0.28062 -1.74187,-0.64536 -1.84395,-0.81053 -0.21418,-0.34655 3.98207,-1.44915 4.60518,-1.21004 0.22826,0.0876 0.36345,0.42609 0.30042,0.75223 -0.063,0.32613 -0.12675,0.87078 -0.14159,1.21033 -0.0322,0.73586 -0.67529,0.74864 -2.92006,0.058 z m -13.10295,-0.032 c -0.41153,-0.41152 -0.24585,-2.60069 0.20921,-2.76432 0.86166,-0.30984 5.37326,1.07853 5.49097,1.68976 0.12398,0.64377 -0.37444,0.8022 -3.49532,1.11105 -1.08521,0.1074 -2.07739,0.091 -2.20486,-0.0365 z m 10.35157,-3.15371 c 0,-0.50183 2.56658,-3.66323 2.97398,-3.66323 0.54044,0 1.61213,1.13241 1.61213,1.70347 0,0.22726 -0.1517,0.41319 -0.33711,0.41319 -0.18541,0 -0.92194,0.39688 -1.63673,0.88195 -1.20213,0.81579 -2.61227,1.17456 -2.61227,0.66462 z m -4.93889,-0.44418 c -1.10249,-0.45928 -3.88055,-2.23865 -3.88055,-2.48553 0,-0.39759 1.58288,-1.79186 2.03426,-1.79186 0.40916,0 2.25403,2.50625 2.65344,3.60468 0.25891,0.71206 -0.0649,0.98192 -0.80715,0.67271 z m 2.57912,-2.60169 c -0.20758,-1.21268 -0.25349,-2.33998 -0.10203,-2.50513 0.46477,-0.50675 2.46161,0.1168 2.46355,0.76927 0.003,1.01239 -1.17984,3.94072 -1.59178,3.94072 -0.21577,0 -0.56215,-0.99219 -0.76974,-2.20486 z m 15.18391,11.46528 c 0.36496,-1.31236 0.64229,-9.33968 0.31569,-9.13783 -0.18291,0.11304 -0.44046,2.11451 -0.57232,4.44769 -0.13186,2.33319 -0.33172,4.48186 -0.44414,4.77483 -0.11243,0.29296 -0.0394,0.53267 0.16234,0.53267 0.20171,0 0.444,-0.27782 0.53843,-0.61736 z M 59.729002,181.7375 c -0.0929,-0.19403 -0.272555,0.12347 -0.399235,0.70555 -0.329189,1.51262 -0.362384,5.30142 -0.04922,5.61758 0.2911,0.29388 0.720151,-5.75567 0.448453,-6.32313 z m 62.021458,2.99861 c -0.006,-1.06716 -0.13747,-2.33716 -0.29282,-2.82222 -0.18247,-0.56976 -0.28612,0.36679 -0.29282,2.64583 -0.007,2.2707 0.0977,3.27636 0.29282,2.82222 0.16675,-0.38805 0.29852,-1.57868 0.29282,-2.64583 z m -32.000307,-1.11749 -0.312817,-1.88112 -0.03051,2.46944 c -0.02172,1.7572 0.06851,2.29976 0.312814,1.88113 0.214529,-0.36762 0.225975,-1.29403 0.03051,-2.46945 z m 58.342207,-6.7902 c 0,-1.82684 -0.11906,-3.44078 -0.26458,-3.58655 -0.14552,-0.14576 -0.27764,0.67425 -0.29359,1.82225 -0.016,1.148 -0.10376,2.54615 -0.19511,3.107 -0.17889,1.09835 0.0336,1.97889 0.47762,1.97885 0.15162,-2e-5 0.27566,-1.49472 0.27566,-3.32155 z m -37.92361,1.12005 c 0,-0.14735 -0.3175,-0.26792 -0.70556,-0.26792 -0.47136,0 -0.70555,0.23519 -0.70555,0.70855 0,0.62023 0.0879,0.65363 0.70555,0.26792 0.38806,-0.24235 0.70556,-0.56119 0.70556,-0.70855 z m -8.11389,0.26125 c 0,-0.29104 -0.15377,-0.52917 -0.34171,-0.52917 -0.18794,0 -0.25033,0.23813 -0.13864,0.52917 0.11168,0.29104 0.26545,0.52917 0.3417,0.52917 0.0763,0 0.13865,-0.23813 0.13865,-0.52917 z m 44.80278,-3.175 c 0,-1.76389 -0.14526,-2.99861 -0.35278,-2.99861 -0.20752,0 -0.35278,1.23472 -0.35278,2.99861 0,1.76389 0.14526,2.99861 0.35278,2.99861 0.20752,0 0.35278,-1.23472 0.35278,-2.99861 z m -19.40818,0.63818 c 0.003,-0.61914 -0.15335,-1.22382 -0.34738,-1.34374 -0.21849,-0.13503 -0.35072,0.49489 -0.34737,1.65488 0.004,1.33934 0.10282,1.72215 0.34737,1.34374 0.18809,-0.29105 0.34441,-1.03574 0.34738,-1.65488 z m 17.99707,-2.2465 c 0,-1.80553 -0.12874,-2.76348 -0.35278,-2.62501 -0.19403,0.11991 -0.35278,1.39928 -0.35278,2.84304 0,1.51482 0.1492,2.62501 0.35278,2.62501 0.206,0 0.35278,-1.18287 0.35278,-2.84304 z m -24.41226,0.2854 c 0.0582,-1.11566 -0.0212,-2.03054 -0.17639,-2.03307 -0.34951,-0.006 -8.25297,-0.28745 -14.3933,-0.51309 -7.411656,-0.27237 -17.716137,-0.29078 -18.134207,-0.0324 -0.547645,0.33847 -0.500282,3.96229 0.05434,4.15795 0.242533,0.0856 4.965346,0.19583 10.495137,0.24503 5.5298,0.0492 10.12403,0.15862 10.20939,0.24317 0.0854,0.0846 2.78412,0.11034 5.99723,0.0573 l 5.842,-0.0964 z m 23.32152,-1.16814 c 0.048,-1.81283 -0.0502,-2.61484 -0.30098,-2.45982 -0.20752,0.12826 -0.37217,1.40057 -0.37217,2.87585 0,3.4459 0.58043,3.08717 0.67315,-0.41603 z m -76.520378,-0.50755 c 0,-1.55222 0.01191,-2.93732 0.02646,-3.07799 0.01455,-0.14067 -0.135493,-0.30975 -0.333433,-0.37573 -0.226785,-0.0756 -0.36177,1.06281 -0.364974,3.07799 -0.0029,1.81049 0.141785,3.19795 0.333433,3.19795 0.187957,0 0.338516,-1.25519 0.338516,-2.82222 z m 40.706338,-4.32153 c 0.11013,-1.60073 0.36595,-8.14917 0.56849,-14.55208 0.20255,-6.40292 0.45562,-12.47511 0.56238,-13.49375 l 0.19412,-1.85209 h -2.49483 -2.49483 l -0.0127,4.8507 c -0.02,7.64015 -0.32479,22.60498 -0.51366,25.22361 -0.1407,1.95087 -0.0768,2.38125 0.35371,2.38125 0.28899,0 0.52545,-0.30813 0.52545,-0.68474 0,-0.3766 0.16936,-0.78941 0.37637,-0.91734 0.207,-0.12794 0.34694,-0.0182 0.31098,0.24376 -0.14004,1.02014 0.0365,1.4268 0.53607,1.23508 0.28483,-0.1093 0.6117,-0.0469 0.72638,0.13865 0.11468,0.18555 0.42301,0.33737 0.68518,0.33737 0.34569,0 0.5317,-0.79979 0.67691,-2.91042 z m 3.71121,2.33364 c 0.0792,-0.0675 0.3637,0.0597 0.63231,0.28267 0.93039,0.77215 1.20071,-0.28319 1.51541,-5.91618 0.64893,-11.61568 1.15255,-25.49456 0.94475,-26.03607 -0.16405,-0.42751 -0.72092,-0.56198 -2.3274,-0.56198 -2.1114,0 -2.11178,2e-4 -2.2868,1.14653 -0.0963,0.63059 -0.26222,4.59934 -0.36877,8.81945 -0.10654,4.2201 -0.29728,11.08691 -0.42386,15.25957 l -0.23016,7.58665 1.2003,-0.22899 c 0.66015,-0.12595 1.26506,-0.28419 1.34422,-0.35165 z m -1.26934,-4.89128 c 0.002,-1.16416 0.0678,-1.59788 0.14635,-0.96382 0.0785,0.63407 0.0769,1.58657 -0.004,2.11667 -0.0805,0.5301 -0.14474,0.0113 -0.14276,-1.15285 z m 1.75066,-2.29305 c 0,-0.87313 0.0688,-1.23032 0.15288,-0.79375 0.0841,0.43656 0.0841,1.15093 0,1.5875 -0.0841,0.43656 -0.15288,0.0794 -0.15288,-0.79375 z m 3.43169,7.36513 c 0,-0.26507 0.18382,-0.24341 0.55606,0.0655 0.46083,0.38246 0.61093,0.37475 0.87654,-0.045 0.22253,-0.35168 0.32214,-0.3717 0.32589,-0.0655 0.008,0.68623 1.05859,0.51854 1.10466,-0.17639 0.039,-0.58797 0.0486,-0.58797 0.20225,0 0.47119,1.80304 0.72726,-0.33215 1.14788,-9.57116 l 0.46385,-10.18851 -0.88818,-1.89412 c -0.48849,-1.04177 -0.98701,-2.52913 -1.1078,-3.30524 -0.25746,-1.65418 0.51685,-4.8717 1.40986,-5.85847 0.3346,-0.36973 0.53946,-0.74116 0.45523,-0.82539 -0.20655,-0.20654 -3.79885,-0.3607 -3.96091,-0.16997 -0.0706,0.0831 -0.39701,6.18355 -0.72537,13.55661 -0.32836,7.37305 -0.68652,14.63587 -0.79591,16.13958 -0.17164,2.35942 -0.12114,2.73403 0.36853,2.73403 0.31208,0 0.56742,-0.17819 0.56742,-0.39598 z m -23.362372,-16.59381 0.09735,-16.46063 -1.6105,0.0243 c -0.885778,0.0134 -1.694805,0.16076 -1.797844,0.32748 -0.103039,0.16672 0.126965,0.81617 0.511122,1.44322 1.528868,2.49554 1.277914,7.07484 -0.538102,9.81903 l -0.937913,1.41728 0.08576,9.75446 c 0.04717,5.36494 0.151484,9.86078 0.231807,9.99075 0.08032,0.12997 0.9819,0.21569 2.003504,0.1905 l 1.857457,-0.0458 z m 4.784741,16.37157 c 0.171826,-0.2829 0.513678,-13.32799 0.658659,-25.13456 l 0.08881,-7.23194 -2.19742,-0.10503 -2.197418,-0.10503 -0.01535,12.89322 c -0.0084,7.09127 -0.01535,14.32197 -0.01535,16.06822 0,1.74625 0.0069,3.29923 0.01535,3.45106 0.01987,0.35744 3.451889,0.51117 3.662709,0.16406 z m -2.644584,-5.54441 c -0.06646,-1.06112 -0.0176,-2.29143 0.108574,-2.73403 0.126183,-0.4426 0.245245,0.42558 0.264583,1.9293 0.04048,3.1471 -0.194675,3.65422 -0.373157,0.80473 z m 7.979285,4.58386 c 0.0906,-0.58689 0.34675,-7.73457 0.56915,-15.88373 0.2224,-8.14917 0.4756,-14.93573 0.56267,-15.08125 0.17116,-0.28606 0.0996,-0.29696 -2.51662,-0.38323 l -1.75134,-0.0577 -0.232937,1.41111 c -0.128116,0.77611 -0.328895,8.09476 -0.446177,16.26367 l -0.213236,14.85256 1.93185,-0.0272 c 1.871,-0.0263 1.93705,-0.0608 2.09664,-1.09423 z m 29.29954,-17.85933 c 3.44341,-1.8146 4.88773,-4.69537 4.91788,-9.80891 0.0137,-2.32031 -0.0906,-2.78575 -0.77796,-3.47313 -1.17708,-1.17708 -1.10693,-3.3945 0.13308,-4.20699 0.91014,-0.59635 0.92266,-0.65841 0.69517,-3.44772 -0.23703,-2.90635 -0.82712,-7.00872 -1.14437,-7.95571 -0.1424,-0.42507 -0.30468,-0.37303 -0.82497,0.26459 -0.89749,1.09986 -1.76541,0.99417 -3.28789,-0.40036 -1.72106,-1.57643 -1.80676,-3.32646 -0.25508,-5.20892 1.21817,-1.47784 2.57972,-1.85943 4.00495,-1.12241 0.5551,0.28705 1.10491,0.42626 1.22182,0.30935 0.33722,-0.33722 -0.94624,-8.90384 -1.56608,-10.45297 -0.47745,-1.19326 -0.67245,-1.36313 -1.31211,-1.14295 -1.94025,0.66783 -4.10272,-0.36419 -4.10272,-1.95799 0,-0.70562 1.3424,-3.292628 1.8963,-3.654459 0.67189,-0.43891 3.52274,-0.273008 4.4537,0.25918 1.16499,0.665964 1.41086,0.650613 1.41244,-0.08819 7.9e-4,-0.339548 0.31158,-1.126215 0.69079,-1.74815 0.53861,-0.883349 0.64462,-1.509564 0.48447,-2.861773 -0.17435,-1.472163 -0.0593,-1.979652 0.76961,-3.394049 0.8897,-1.518147 0.97809,-1.99118 1.01439,-5.428503 0.0333,-3.153381 0.16865,-4.019921 0.83265,-5.331011 0.43608,-0.86106 0.79288,-1.750343 0.79288,-1.976183 0,-0.507055 -4.16862,-0.862933 -10.14236,-0.865854 l -4.32153,-0.0021 -0.0612,1.322917 c -0.0337,0.727604 -0.0733,1.878541 -0.0882,2.557639 -0.0254,1.16241 -0.10316,1.241055 -1.32704,1.342848 -1.28972,0.107268 -1.30151,0.12265 -1.48658,1.940277 -0.10261,1.007684 -0.27625,5.324652 -0.38586,9.593265 -0.10962,4.26861 -0.35419,9.348606 -0.5435,11.288886 -0.25385,2.60185 -1.39932,24.42504 -1.39932,26.6595 0,0.15581 0.51594,0.33304 1.14653,0.39384 l 1.14653,0.11055 v 2.11666 c 0,1.82886 -0.10336,2.16205 -0.76012,2.45042 -1.01843,0.44718 -1.45714,2.10653 -1.70942,6.46563 l -0.20976,3.62437 1.33965,1.63552 c 2.32674,2.84061 5.84943,3.72314 8.7532,2.19291 z m -46.130918,-0.74467 1.146527,-0.68867 v -7.20317 c 0,-6.96798 -0.02305,-7.20317 -0.705554,-7.20317 -0.58692,0 -0.705557,-0.23519 -0.705557,-1.3987 0,-0.99556 0.186521,-1.49852 0.647142,-1.74504 0.707094,-0.37842 0.676265,2.69771 0.336188,-33.545146 -0.05189,-5.529791 -0.03173,-11.482916 0.0448,-13.229166 l 0.139141,-3.175 -1.086532,-0.108585 c -1.514698,-0.151379 -1.907339,-0.735748 -1.484644,-2.209602 0.736153,-2.56682 0.625854,-2.713799 -2.21207,-2.947619 -2.906908,-0.239501 -6.549276,-0.337788 -9.532561,-0.257228 -1.824424,0.04926 -2.079403,0.150162 -2.453299,0.970775 -0.353012,0.774774 -0.323853,0.968068 0.18936,1.255278 1.971193,1.103135 2.519643,3.267686 1.603092,6.326868 -0.338474,1.129715 -0.308894,1.49275 0.182771,2.243121 0.322628,0.492395 0.682591,1.595602 0.799915,2.451571 0.209859,1.531102 -0.376179,4.953942 -0.979117,5.718667 -0.437116,0.554408 0.0419,2.608144 0.60833,2.608144 0.259963,0 0.638923,-0.310669 0.842134,-0.690375 0.514149,-0.960694 2.429372,-1.250521 3.980603,-0.602377 1.529787,0.639186 2.376718,1.844535 2.631676,3.745384 0.248298,1.8512 -0.352063,2.61993 -1.855563,2.37594 -1.280173,-0.20774 -1.594744,-0.0387 -2.17488,1.16865 -0.753851,1.56888 -1.158039,3.63274 -1.388639,7.09065 l -0.225838,3.38649 1.433089,0.19221 c 2.651054,0.35559 4.310457,2.40496 4.310457,5.32345 0,2.1172 -0.491919,2.47535 -1.997001,1.45398 -0.671028,-0.45537 -1.454584,-0.73795 -1.741239,-0.62795 -1.271079,0.48776 -2.577377,4.93314 -2.59937,8.84575 -0.01111,1.9781 0.0606,2.20486 0.697334,2.20486 0.635285,0 0.685046,0.15433 0.474427,1.47147 -0.129416,0.80931 -0.605629,2.119 -1.058254,2.91042 -2.03022,3.54985 -0.150141,10.61351 3.58273,13.46071 2.079012,1.58574 6.272909,1.79538 8.5504,0.42741 z m 3.036342,-2.91988 c 0.807313,-2.10383 0.632608,-6.56682 -0.305567,-7.80597 -0.44472,-0.58739 -0.504785,-0.14009 -0.514694,3.83292 -0.01016,4.06901 0.267457,5.41364 0.820261,3.97305 z M 115.98958,136.5819 c 0,-0.19403 -1.15094,-0.39942 -2.55764,-0.45642 -2.57793,-0.10448 -3.63247,0.44728 -1.41111,0.73832 1.87301,0.2454 3.96875,0.0965 3.96875,-0.2819 z m 5.82084,0.21414 c 0,-0.50258 -0.97373,-0.7433 -3.00665,-0.7433 -1.77685,0 -2.55527,0.31771 -2.04024,0.83274 0.34938,0.34938 5.04689,0.26613 5.04689,-0.0894 z m 31.75,-0.0377 c 0,-0.22515 -2.99168,-0.35278 -8.26946,-0.35278 -5.13244,0 -8.35217,0.13383 -8.48749,0.35278 -0.14304,0.23145 2.70097,0.35278 8.26946,0.35278 5.42314,0 8.48749,-0.12737 8.48749,-0.35278 z m -55.033342,-0.51487 c 0,-0.43318 -0.4611,-0.54346 -2.272236,-0.54346 -2.37639,0 -3.522594,0.57872 -1.526821,0.7709 3.505409,0.33754 3.799057,0.31996 3.799057,-0.22744 z m 5.644452,-0.0143 c 0,-0.4161 -0.48997,-0.52917 -2.29306,-0.52917 -1.80309,0 -2.293058,0.11307 -2.293058,0.52917 0,0.4161 0.489968,0.52917 2.293058,0.52917 1.80309,0 2.29306,-0.11307 2.29306,-0.52917 z m 5.55698,0.0882 c -0.16219,-0.48902 -4.49865,-0.78914 -4.49865,-0.31134 0,0.59382 0.53885,0.75232 2.55764,0.75232 1.51263,0 2.047,-0.12141 1.94101,-0.44098 z M 92.974887,135.8764 c 0.107201,-0.44949 -1.964148,-0.65361 -3.571923,-0.35199 -0.928412,0.17418 -1.109011,0.31276 -0.729255,0.55961 0.653042,0.4245 4.191151,0.25371 4.301178,-0.20762 z m -20.553365,-0.12356 c 0,-0.37371 -5.216694,-0.75838 -10.284751,-0.75838 -5.118774,0 -5.002514,0.6491 0.142388,0.79498 8.973918,0.25446 10.142363,0.25024 10.142363,-0.0366 z m 81.807288,-0.6183 c 1.78144,-0.37776 0.0422,-0.78099 -4.36884,-1.01287 -2.8722,-0.15098 -4.68051,-0.39513 -4.84529,-0.65419 -0.1446,-0.22731 -0.26533,-1.56424 -0.26831,-2.97094 -0.003,-1.4067 -0.13954,-2.55764 -0.3035,-2.55764 -0.16396,0 -0.58543,0.3175 -0.93662,0.70556 -0.35119,0.38805 -0.73901,0.70555 -0.86183,0.70555 -0.12283,0 -0.0811,-1.43809 0.0927,-3.19577 0.17381,-1.75767 0.21588,-3.2959 0.0935,-3.4183 -0.1224,-0.12239 -0.47538,0.13846 -0.78441,0.57967 -0.80311,1.14659 -1.1345,0.58092 -1.53841,-2.62596 -0.24684,-1.95987 -0.53921,-2.94309 -0.97046,-3.26357 -0.52619,-0.39102 -0.63524,-0.36502 -0.73963,0.17639 -0.23091,1.19769 -0.72224,1.30745 -1.60222,0.35793 -1.6826,-1.81556 -4.32593,-1.66523 -4.87283,0.27711 -0.42932,1.5248 -0.0413,3.26816 0.78575,3.53067 0.9916,0.31472 1.49182,-0.12624 1.24749,-1.09971 -0.25832,-1.02923 0.43042,-1.13049 1.53793,-0.22609 1.1726,0.95755 2.14538,5.71011 2.28544,11.16565 0.0293,1.14282 0.16987,1.39659 0.82907,1.49709 0.75137,0.11456 0.79732,-0.006 0.86046,-2.25802 l 0.0667,-2.37903 0.12906,2.11667 c 0.071,1.16416 0.27908,2.26747 0.46246,2.4518 0.36912,0.37104 0.44159,-0.0176 0.34212,-1.83444 -0.0345,-0.63059 0.0994,-1.14653 0.29771,-1.14653 0.19826,0 0.40886,0.75406 0.468,1.67569 0.0999,1.55754 0.18214,1.68782 1.16585,1.84764 0.58209,0.0946 -0.43715,0.25331 -2.26496,0.35277 -2.16711,0.11793 -3.37286,0.33092 -3.46578,0.61223 -0.10708,0.32417 1.1574,0.4557 5.08718,0.52917 2.87632,0.0538 6.57905,0.12991 8.22829,0.16919 1.64923,0.0393 3.37876,-0.009 3.84339,-0.10772 z m -15.40322,-4.02064 c 0,-0.6791 0.0726,-0.95691 0.16134,-0.61736 0.0887,0.33954 0.0887,0.89517 0,1.23472 -0.0887,0.33955 -0.16134,0.0617 -0.16134,-0.61736 z m -0.23118,-2.55764 c -0.48102,-2.34548 -0.58641,-3.58994 -0.27636,-3.2632 0.18412,0.19403 0.42711,1.18622 0.54,2.20486 0.20651,1.86362 0.0392,2.53516 -0.26364,1.05834 z m -22.49896,5.66455 c 0.0835,-0.43525 -0.20244,-0.65213 -1.05401,-0.79958 -2.04058,-0.35333 -3.96943,-0.0794 -4.09629,0.58174 -0.0905,0.47148 0.20345,0.62087 1.4067,0.71498 2.89189,0.22618 3.62355,0.12902 3.7436,-0.49714 z m 5.65131,-0.0201 c -0.10266,-0.72281 -0.30981,-0.7963 -2.31759,-0.82224 -2.08212,-0.0269 -2.20486,0.0173 -2.20486,0.79375 0,0.77769 0.12555,0.82224 2.31759,0.82224 2.20164,0 2.31195,-0.0397 2.20486,-0.79375 z m -24.013432,0.093 c 0.436563,-0.003 0.79375,-0.22033 0.79375,-0.48373 0,-0.66636 -4.251534,-1.12078 -4.637847,-0.49571 -0.460996,0.7459 0.911831,1.40306 2.344791,1.12243 0.388056,-0.076 1.062744,-0.14034 1.499306,-0.14299 z m 6.438202,-0.3282 c 0,-0.85862 -0.26558,-0.9381 -2.64117,-0.7905 -1.636071,0.10165 -1.944948,0.22771 -1.944948,0.79375 0,0.593 0.272272,0.6729 2.293058,0.6729 2.02464,0 2.29306,-0.0791 2.29306,-0.67615 z m 5.64444,0.0106 c 0,-0.75537 -1.23466,-1.05966 -3.31443,-0.81686 -0.95961,0.11203 -1.27168,0.31213 -1.27168,0.81542 0,0.58569 0.27942,0.66696 2.29306,0.66696 2.01188,0 2.29305,-0.0816 2.29305,-0.66552 z m -35.983335,0.1652 c 0,-0.93722 -0.578006,-1.26389 -2.242606,-1.26745 -0.997886,-0.002 -2.391783,-0.0994 -3.097543,-0.2161 -1.257691,-0.20801 -1.269965,-0.22546 -0.617363,-0.87807 0.366215,-0.3662 0.824593,-0.66583 1.018622,-0.66583 0.194027,0 0.355209,-0.51594 0.35818,-1.14653 0.003,-0.63059 0.175493,-1.38465 0.383379,-1.6757 0.297624,-0.41667 0.336684,-0.34393 0.183731,0.34215 -0.259601,1.16447 0.0985,2.48008 0.675069,2.48008 0.305451,0 0.54297,-0.69755 0.690708,-2.02848 0.123844,-1.11565 0.367795,-2.34597 0.54211,-2.73402 0.174316,-0.38806 0.362225,-1.18181 0.417576,-1.76389 0.05535,-0.58209 0.272439,-1.02753 0.48242,-0.98987 0.209984,0.0377 0.658032,-0.55766 0.995662,-1.32292 0.368802,-0.8359 0.854001,-1.39138 1.215353,-1.39138 0.330811,0 1.022283,-0.47956 1.536607,-1.06569 0.898035,-1.02343 1.634461,-0.91958 1.215797,0.17144 -0.15549,0.4052 0.733208,1.11244 1.023308,0.81436 0.285687,-0.29354 -0.724794,-4.0461 -1.189675,-4.41803 -0.303154,-0.24253 -1.145037,-0.44097 -1.87085,-0.44097 -1.053986,0 -1.466546,0.20628 -2.049243,1.0246 -0.401267,0.56353 -0.729575,1.19853 -0.729575,1.41111 0,0.4837 -0.940745,0.5094 -1.234723,0.0337 -0.451528,-0.73059 -1.19451,-0.30883 -1.5953,0.90558 -0.228415,0.6921 -0.499142,1.17451 -0.601615,1.07204 -0.102479,-0.10248 0.06489,-0.95437 0.371935,-1.89309 0.307041,-0.93872 0.711885,-2.57208 0.899655,-3.62968 0.434761,-2.44876 1.381514,-5.65075 1.422948,-4.81251 0.06238,1.26211 0.649128,0.2217 0.887235,-1.57322 0.23183,-1.74763 0.721275,-3.09249 1.264563,-3.47468 0.137908,-0.097 0.51432,-0.69083 0.836475,-1.31959 0.322151,-0.62877 0.985276,-1.405 1.47361,-1.72497 0.834062,-0.54649 0.916831,-0.54216 1.365594,0.0716 0.405394,0.55441 0.563607,0.58203 1.045059,0.18247 0.312036,-0.25897 0.56734,-0.83699 0.56734,-1.28448 0,-1.054849 -2.150414,-3.333316 -3.14598,-3.333316 -1.463633,0 -2.890483,1.057357 -3.604223,2.670886 -0.777026,1.75659 -1.248331,1.96851 -1.565704,0.70399 -0.148648,-0.59227 -0.385489,-0.79321 -0.763801,-0.64804 -0.471901,0.18108 -0.517594,0.81716 -0.327764,4.56262 0.208704,4.11787 0.184497,4.3522 -0.449611,4.3522 -0.877816,0 -1.20686,1.49988 -0.888336,4.04927 0.258313,2.06746 -0.143846,2.57828 -0.97812,1.2424 -0.988065,-1.58214 -1.2725,-0.41142 -0.553328,2.27748 0.363847,1.36038 0.336484,1.76374 -0.195308,2.87892 -0.928941,1.94801 -1.418132,1.05754 -1.727594,-3.14475 -0.145775,-1.97953 -0.286157,-3.83727 -0.311959,-4.12832 -0.0258,-0.29104 0.0757,-1.60073 0.225567,-2.91041 0.240041,-2.09773 0.202359,-2.38125 -0.316473,-2.38125 -0.323924,0 -0.680331,0.23812 -0.792014,0.52916 -0.498684,1.29956 -0.796804,0.28198 -0.78277,-2.67184 0.0084,-1.76056 -0.07508,-3.2913 -0.185439,-3.40165 -0.110357,-0.11036 -0.446447,0.003 -0.746865,0.25267 -0.300422,0.24933 -0.593506,0.39101 -0.651299,0.31485 -0.05779,-0.0762 -0.532992,-0.88585 -1.055992,-1.79933 -0.776763,-1.356708 -1.182205,-1.704262 -2.213901,-1.89781 -1.049858,-0.196954 -1.398886,-0.09527 -2.068277,0.602535 -0.881057,0.918464 -1.481288,2.779755 -0.896421,2.779755 0.197726,0 0.3595,-0.21869 0.3595,-0.48597 0,-0.60429 0.990264,-1.463583 1.313804,-1.14004 0.13113,0.13113 0.238419,0.78875 0.238419,1.46138 0,1.14227 0.07496,1.22295 1.136137,1.22295 0.975532,0 1.168995,0.14961 1.368583,1.05834 0.12785,0.58208 0.352346,1.05833 0.498883,1.05833 0.510799,0 2.211329,5.69024 1.988359,6.65336 -0.124518,0.53785 -0.09218,0.74776 0.07653,0.49681 0.369192,-0.54914 1.30293,3.47908 1.039741,4.48552 -0.102338,0.39135 -0.04218,0.71153 0.133681,0.71153 0.175863,0 0.319752,0.47625 0.319752,1.05834 0,0.58208 0.144057,1.05833 0.320127,1.05833 0.176072,0 0.407067,0.83344 0.513323,1.85208 0.340723,3.26638 0.64421,4.85019 0.967703,5.05012 0.173532,0.10725 0.316397,-0.0922 0.317479,-0.44319 0.0026,-0.8221 0.612301,-2.96126 1.029737,-3.61247 0.267594,-0.41746 0.48006,-0.35639 1.22736,0.35278 0.889767,0.84436 1.236123,2.09235 0.580689,2.09235 -0.184388,0 -0.491212,-0.27782 -0.681831,-0.61736 -0.289849,-0.5163 -0.371933,-0.53074 -0.501431,-0.0882 -0.428254,1.46349 -1.292624,7.84643 -1.103908,8.15178 0.140447,0.22725 -1.369406,0.33081 -4.276621,0.29333 -3.806831,-0.0491 -4.542377,0.029 -4.812088,0.51098 -0.250542,0.4477 -0.145524,0.57748 0.492902,0.60913 0.446204,0.0221 2.875029,0.15399 5.397392,0.29304 5.750049,0.31699 10.406946,0.41757 10.406946,0.22476 z m 4.233333,-33.18995 c 0,-0.32338 0.170656,-0.53108 0.379235,-0.46155 0.208579,0.0695 0.379236,0.27722 0.379236,0.46155 0,0.18432 -0.170657,0.39202 -0.379236,0.46155 -0.208579,0.0695 -0.379235,-0.13817 -0.379235,-0.46155 z m 14.816667,32.63193 c 0,-0.64283 -0.235186,-0.70555 -2.645834,-0.70555 -2.410647,0 -2.645833,0.0627 -2.645833,0.70555 0,0.64284 0.235186,0.70556 2.645833,0.70556 2.410648,0 2.645834,-0.0627 2.645834,-0.70556 z m 54.327785,-1.43193 c 0,-0.57063 -0.15573,-1.03751 -0.34606,-1.03751 -0.44009,0 -0.85481,1.60064 -0.54472,2.10237 0.39108,0.63279 0.89078,0.0354 0.89078,-1.06486 z m 2.66746,-2.36042 c -0.13806,-2.36641 -0.0863,-3.99133 0.13774,-4.32153 0.35463,-0.52274 0.5582,2.10564 0.49864,6.4382 -0.0127,0.92163 0.11191,1.67569 0.27684,1.67569 0.16493,0 0.29987,-1.88333 0.29987,-4.18518 0,-2.30185 0.16112,-5.03474 0.35804,-6.07309 0.43038,-2.2694 1.68796,-4.99649 2.16744,-4.70015 0.18966,0.11721 0.25963,0.43519 0.15548,0.7066 -0.29383,0.7657 0.0145,0.5967 1.35247,-0.74123 1.37087,-1.37088 2.10259,-1.54192 2.64109,-0.61737 0.30349,0.52107 0.36125,0.45583 0.37031,-0.41823 0.0129,-1.24384 -1.21307,-2.66857 -2.29625,-2.66857 -0.87592,0 -2.62956,1.24893 -2.63649,1.87769 -0.003,0.22845 -0.4819,1.36786 -1.06529,2.53203 l -1.06071,2.11667 0.18996,-1.76389 c 0.22273,-2.06824 -0.22822,-3.16113 -0.83587,-2.02574 -0.52813,0.98682 -0.59785,4.1827 -0.10422,4.77749 0.22283,0.26849 0.30069,0.59262 0.17302,0.72029 -0.36361,0.36361 -1.52565,0.27171 -1.52565,-0.12065 0,-0.59066 -1.0122,-0.39338 -1.35747,0.26458 -0.34785,0.6629 0.0522,4.47212 0.65387,6.22625 0.19296,0.56254 0.35083,1.71347 0.35083,2.55764 0,1.3227 0.10212,1.53486 0.7388,1.53486 0.71779,0 0.73251,-0.10787 0.51755,-3.79236 z m -28.58048,2.70789 c 0.2379,-0.38492 0.44454,-3.97697 1.38869,-24.13914 0.29075,-6.20889 0.64768,-13.511385 0.79318,-16.227773 0.14549,-2.716389 0.26609,-5.970764 0.26798,-7.231946 l 0.003,-2.293053 -2.25722,-0.106389 c -1.24148,-0.05851 -2.38916,0.02556 -2.55042,0.186798 -0.23841,0.238413 -0.3174,4.227751 -0.27781,14.030701 0.002,0.388056 -0.078,1.419931 -0.1768,2.293056 -0.0988,0.873125 -0.26963,3.571866 -0.3796,5.997216 -0.61101,13.47623 -0.88454,20.89727 -0.88454,23.99838 v 3.47963 l 1.67569,0.13213 c 0.92164,0.0727 1.78539,0.16074 1.91946,0.19572 0.13407,0.035 0.34915,-0.10693 0.47795,-0.31533 z m -23.235499,-0.24971 c 0.288229,-0.1833 0.476554,-2.54809 0.610624,-7.66751 0.21305,-8.13531 0.330332,-41.804777 0.146151,-41.957235 -0.06337,-0.05245 -1.186771,-0.190926 -2.496458,-0.307721 l -2.38125,-0.212357 v 25.014613 25.01462 l 1.675694,0.13213 c 0.921631,0.0727 1.755068,0.15832 1.852083,0.19032 0.09701,0.032 0.363934,-0.0611 0.593156,-0.20686 z m 6.150019,-8.01443 c 0.19151,-7.16811 0.78482,-36.181544 0.82602,-40.393052 l 0.0155,-1.5875 -2.29305,0.123015 c -1.26119,0.06766 -2.32716,0.154673 -2.36884,0.193371 -0.0921,0.08551 -0.34666,13.086464 -0.66286,33.853716 -0.197344,12.96134 -0.156519,15.52442 0.251527,15.79032 0.267913,0.17459 1.280863,0.27616 2.251003,0.22572 l 1.76389,-0.0917 z m 6.02705,-7.05556 c 0.13564,-8.34319 0.40255,-19.532738 0.59313,-24.865663 0.19058,-5.332926 0.29668,-9.74606 0.23577,-9.806961 -0.2118,-0.211802 -3.73264,-0.359746 -4.40112,-0.184936 -0.61343,0.160417 -0.66782,0.507645 -0.6163,3.934812 0.0311,2.067377 -0.13829,10.426369 -0.37637,18.575528 -0.23808,8.14917 -0.43542,17.72111 -0.43854,21.27098 l -0.006,6.45431 2.38125,-0.10431 2.38125,-0.10431 z m 5.73373,14.90487 c 0.0756,-0.24254 0.23048,-3.2191 0.34429,-6.61459 0.11381,-3.39548 0.28351,-8.15798 0.37712,-10.58333 0.20484,-5.30734 0.54489,-19.675865 0.6387,-26.987496 l 0.0679,-5.291666 h -2.61938 -2.61938 l -0.10405,5.468053 c -0.0572,3.007432 -0.18838,8.246182 -0.29147,11.641667 -0.10308,3.395482 -0.26925,10.777362 -0.36926,16.404162 -0.10001,5.62681 -0.24825,11.61962 -0.32943,13.31736 l -0.1476,3.08681 h 2.45761 c 1.65764,0 2.50232,-0.14354 2.59497,-0.44097 z m -54.044685,-1.5875 c -0.09092,-0.24254 0.01439,-0.44098 0.234027,-0.44098 0.219638,0 0.49459,0.47625 0.611007,1.05834 0.138189,0.69095 0.425458,1.05833 0.827543,1.05833 0.503719,0 0.659863,-0.44641 0.857419,-2.45129 0.266097,-2.70046 -0.05701,-6.62159 -0.571847,-6.93977 -0.180699,-0.11168 -0.609237,0.051 -0.952306,0.36144 -0.343067,0.31047 -0.716698,0.47156 -0.830289,0.35796 -0.113591,-0.11359 -0.120219,-1.34775 -0.01474,-2.74258 0.148823,-1.96776 0.07656,-2.6317 -0.3225,-2.96289 -0.413711,-0.34335 -0.675894,-0.27629 -1.340475,0.34286 -0.786714,0.73294 -0.844319,0.73903 -1.20623,0.1275 -1.406805,-2.37712 -1.891945,-2.86938 -3.132674,-3.17862 -1.10063,-0.27432 -1.476529,-0.21044 -2.28119,0.38767 -0.607923,0.45187 -0.991809,1.09375 -1.040363,1.73955 -0.04232,0.5629 0.01061,0.82501 0.117594,0.58248 0.106998,-0.24254 0.419436,-0.44098 0.694309,-0.44098 0.616699,0 0.666078,1.28521 0.0588,1.53026 -0.317963,0.12829 -0.323771,0.1857 -0.02082,0.20578 0.231082,0.0153 0.518263,-0.1309 0.63818,-0.32493 0.119917,-0.19402 0.89843,-0.35277 1.730034,-0.35277 1.535475,0 2.320134,0.52529 2.799964,1.87444 0.125134,0.35185 0.387389,0.54091 0.582789,0.42015 0.532046,-0.32882 0.632931,8.39895 0.117729,10.185 -0.123401,0.42779 -0.05282,0.57625 0.199745,0.42015 0.214815,-0.13276 0.393004,-0.5892 0.395975,-1.01431 0.003,-0.42511 0.176697,-1.01106 0.386057,-1.3021 0.316058,-0.43937 0.344857,-0.41894 0.169706,0.12038 -0.11602,0.35725 0.05707,1.21434 0.384641,1.90465 0.509537,1.07377 0.630086,1.15831 0.834403,0.58517 0.13135,-0.36846 0.164428,-0.86836 0.07351,-1.11089 z m -0.559062,-1.6757 c 0.26733,-1.74384 0.470998,-2.04073 0.463833,-0.67616 -0.003,0.56592 -0.157221,1.26706 -0.342778,1.55811 -0.229754,0.36035 -0.26837,0.079 -0.121055,-0.88195 z m 31.427854,-21.78403 0.09056,-24.959019 h -2.278691 -2.278692 l 0.01521,24.781549 c 0.01127,18.38878 0.120722,24.85099 0.424244,25.05074 0.22497,0.14804 1.202788,0.2279 2.172925,0.17747 l 1.76389,-0.0917 z m -33.72398,21.97669 c 0.06574,-1.15522 0.02093,-1.98866 -0.09958,-1.85209 -0.36244,0.41075 -0.653458,3.95249 -0.324769,3.95249 0.167654,0 0.358611,-0.94518 0.424352,-2.1004 z m 84.367653,-9.01613 c 0.32832,-2.01314 0.34914,-4.4163 0.0409,-4.72451 -0.11509,-0.11508 -0.43275,0.0964 -0.70592,0.47 -0.27318,0.37359 -0.56056,0.61147 -0.63862,0.52862 -0.20821,-0.22097 0.30301,-2.92948 1.15652,-6.12734 0.8242,-3.08806 0.63434,-3.77992 -0.78251,-2.85157 -0.84173,0.55153 -0.91229,0.54827 -1.19853,-0.0553 -0.32023,-0.67529 -0.33913,-5.2815 -0.023,-5.59766 0.28963,-0.28962 0.93123,2.60533 0.73972,3.33767 -0.0945,0.36137 -0.0389,0.73569 0.1235,0.83182 0.50632,0.29967 1.88281,-0.39827 1.88281,-0.95466 0,-0.32569 -0.20365,-0.45131 -0.52916,-0.3264 -0.43047,0.16518 -0.52917,-0.15542 -0.52917,-1.71884 0,-1.7919 -0.10673,-2.03489 -1.57785,-3.592307 -1.64147,-1.737765 -2.30271,-1.837071 -2.30271,-0.345824 0,0.614789 0.1703,0.84563 0.57019,0.77293 0.32456,-0.059 0.69672,0.230516 0.86392,0.672101 0.22559,0.59578 0.17934,0.73187 -0.19933,0.58655 -0.33173,-0.12729 -0.59087,0.18819 -0.79194,0.96414 -0.37752,1.45688 -1.05196,1.70835 -1.35403,0.50483 -0.24429,-0.97335 -2.37463,-2.654892 -3.36346,-2.654892 -0.836,0 -1.82454,1.662362 -1.57642,2.650952 0.13642,0.54353 0.5552,0.89732 1.24026,1.04778 1.43085,0.31427 1.76206,0.83196 2.17576,3.40081 0.41131,2.55402 0.67116,3.07877 0.67116,1.35536 0,-0.66479 0.12914,-1.04013 0.29331,-0.85254 0.57379,0.65561 1.11781,3.27121 1.11781,5.3743 0,2.25717 0.22642,3.25111 0.74061,3.25111 0.1718,0 0.71044,0.34613 1.19698,0.76918 0.74928,0.65149 0.88463,1.07428 0.88463,2.76342 0,2.13513 0.18071,2.54903 1.04113,2.3846 0.35638,-0.0681 0.64617,-0.71636 0.83338,-1.86428 z m -2.76752,-4.93486 c -0.0909,-0.29104 -0.23971,-0.76729 -0.33064,-1.05834 -0.0909,-0.29104 -0.0296,-0.52916 0.13635,-0.52916 0.16592,0 0.37156,0.47625 0.457,1.05833 0.16422,1.11894 0.0153,1.41897 -0.26271,0.52917 z m -1.30703,-1.5875 c -0.3998,-1.35737 -0.34325,-2.33163 0.10907,-1.8793 0.20816,0.20816 0.32723,0.91459 0.26458,1.56986 -0.10722,1.12159 -0.1291,1.13972 -0.37365,0.30944 z m -75.411074,7.21112 c 0,-0.30249 -0.161341,-0.45027 -0.358532,-0.3284 -0.197194,0.12187 -0.2672,0.36937 -0.15557,0.54999 0.302414,0.48932 0.514102,0.39808 0.514102,-0.22159 z m 85.019444,-0.15557 c 0,-0.38805 -0.0609,-0.70555 -0.13524,-0.70555 -0.0744,0 -0.21827,0.3175 -0.31975,0.70555 -0.10148,0.38806 -0.0406,0.70556 0.13524,0.70556 0.17587,0 0.31975,-0.3175 0.31975,-0.70556 z m -10.84182,-5.37986 c -0.19064,-1.49367 -0.33933,-1.92558 -0.56676,-1.6463 -0.23391,0.28725 0.19859,3.14561 0.47596,3.14561 0.15519,0 0.19604,-0.67469 0.0908,-1.49931 z m -75.6239,-0.35278 c -0.02987,-1.27367 -0.07767,-1.36658 -0.317614,-0.61736 -0.406583,1.26956 -0.406583,2.11667 0,2.11667 0.194027,0 0.336955,-0.67469 0.317614,-1.49931 z m 82.40389,-2.01305 c 0.12047,-0.37957 0.10666,-1.28914 -0.0307,-2.02127 l -0.24972,-1.33114 -0.64117,1.93308 c -0.35264,1.06319 -0.64563,1.97277 -0.6511,2.02127 -0.005,0.0485 0.29687,0.0882 0.67185,0.0882 0.37498,0 0.78035,-0.31056 0.90083,-0.69014 z m -7.20537,-1.51472 c -0.14146,-1.22354 -0.19668,-1.31539 -0.30021,-0.49937 -0.1144,0.90165 0.0859,1.99867 0.36497,1.99867 0.0597,0 0.0306,-0.67468 -0.0648,-1.4993 z m -70.330243,-0.4742 c -0.02674,-0.94354 0.175599,-1.42752 0.790853,-1.89161 0.783106,-0.59069 0.813234,-0.76123 0.570209,-3.22757 -0.141121,-1.43216 -0.427665,-2.70965 -0.63676,-2.83888 -0.25219,-0.15586 -0.182774,-0.43236 0.206206,-0.82134 0.725564,-0.72556 0.753105,-1.24154 0.06627,-1.24154 -0.28606,0 -0.751919,0.43656 -1.035243,0.97014 -0.283327,0.53358 -0.922404,1.39977 -1.420172,1.92488 -0.981176,1.03506 -1.162281,1.69345 -0.464061,1.68704 0.242533,-0.002 0.744625,-0.63784 1.115756,-1.41248 0.371131,-0.77464 0.752033,-1.33119 0.84645,-1.23677 0.283339,0.28333 0.263747,2.65374 -0.02193,2.65351 -0.145521,-1.1e-4 -0.267013,-0.19865 -0.269984,-0.44118 -0.0042,-0.34317 -0.06917,-0.34048 -0.292899,0.0121 -0.158123,0.24921 -0.317532,1.36046 -0.35424,2.46945 -0.03671,1.10899 -0.154792,2.44903 -0.262408,2.97787 -0.222184,1.09186 0.03264,1.68431 0.724463,1.68431 0.314907,0 0.461394,-0.42456 0.437489,-1.26795 z m -1.037603,-10.1154 c 0.08963,-1.197152 0.56388,-2.73495 1.373203,-4.452752 1.036762,-2.20054 2.017062,-5.317948 1.754767,-5.580242 -0.282958,-0.282959 -2.032508,1.085302 -3.789357,2.963515 -1.488569,1.5914 -1.622724,1.890893 -1.827024,4.078695 -0.161505,1.729513 -0.07687,2.704934 0.316388,3.646124 l 0.536882,1.28493 0.801296,-0.75278 c 0.440714,-0.41402 0.815943,-0.9484 0.833845,-1.18749 z m 77.916196,-4.540681 c -0.21147,-2.275226 -0.17998,-2.473568 0.32603,-2.053622 0.30805,0.255664 0.85982,1.031785 1.22615,1.724716 0.36633,0.69293 0.67306,0.998013 0.68164,0.677963 0.031,-1.157658 -3.93529,-6.206858 -4.93543,-6.28292 -0.10369,-0.0079 -0.46087,0.44672 -0.79375,1.010232 -0.66488,1.125553 -0.8078,3.04193 -0.25245,3.385153 0.19403,0.119914 0.34162,0.486473 0.32798,0.81457 -0.0204,0.489836 -0.082,0.470337 -0.34468,-0.109014 -0.26845,-0.592103 -0.30701,-0.535373 -0.23979,0.352777 0.056,0.740569 0.26547,1.059418 0.69747,1.061945 0.33955,0.0019 1.02066,0.438547 1.51358,0.970137 0.49292,0.531591 1.15071,0.966528 1.46176,0.966528 0.48793,0 0.53343,-0.34567 0.33149,-2.518465 z m -73.950595,0.930966 c 0,-0.291042 -0.06239,-0.529167 -0.138644,-0.529167 -0.07626,0 -0.230023,0.238125 -0.341707,0.529167 -0.111683,0.291041 -0.04929,0.529166 0.138647,0.529166 0.187937,0 0.341704,-0.238125 0.341704,-0.529166 z m 0.240988,-7.650867 c -0.112614,-0.281424 -0.196209,-0.197831 -0.213135,0.213135 -0.01532,0.371888 0.06806,0.580248 0.185285,0.463021 0.117224,-0.117223 0.129757,-0.421494 0.02785,-0.676156 z m 74.330367,-1.080383 c 0.18145,-0.662144 0.27512,-0.706012 0.56491,-0.264584 0.73686,1.122458 0.35655,-0.732488 -0.70754,-3.450963 -1.9379,-4.950862 -2.72814,-5.117478 -3.06628,-0.646504 l -0.20413,2.699107 1.37432,1.213663 c 1.6393,1.447673 1.75794,1.473819 2.03872,0.449281 z M 70.304855,87.172198 c 0,-0.302493 -0.15875,-0.451874 -0.352776,-0.331957 -0.194027,0.119914 -0.352777,0.367408 -0.352777,0.549987 0,0.182575 0.15875,0.331956 0.352777,0.331956 0.194026,0 0.352776,-0.247493 0.352776,-0.549986 z m 77.258335,-3.506957 c 0,-0.291042 -0.0624,-0.529167 -0.13864,-0.529167 -0.0763,0 -0.23002,0.238125 -0.34171,0.529167 -0.11168,0.291042 -0.0493,0.529167 0.13865,0.529167 0.18794,0 0.3417,-0.238125 0.3417,-0.529167 z M 64.921471,83.400658 c 0.87295,-1.107917 2.631959,-9.836381 2.091246,-10.377094 -0.355735,-0.355735 -1.199367,0.821577 -2.374583,3.31379 -0.783365,1.661245 -1.036058,2.70822 -1.036058,4.292677 0,2.933007 0.448829,3.875513 1.319395,2.770627 z m 80.953449,-3.615974 0.12277,-1.41111 0.42093,1.234721 c 0.36833,1.080455 0.3953,0.869606 0.21581,-1.687611 -0.12664,-1.804283 -0.46903,-3.468581 -0.89493,-4.350099 l -0.68982,-1.427763 -0.65634,0.756761 c -1.11071,1.280663 -1.36584,5.650378 -0.32989,5.650378 0.17861,0 0.32474,0.307166 0.32474,0.682591 0,1.116177 0.69903,2.640666 1.04787,2.285272 0.17385,-0.177114 0.37134,-0.957029 0.43886,-1.73314 z m -47.346887,0.178171 c -0.444613,-0.830765 -0.493268,-1.826218 -0.05554,-1.136362 0.158062,0.249108 0.512821,0.363159 0.78835,0.25345 0.676267,-0.269272 2.441237,-2.797371 2.441237,-3.496762 0,-0.30855 0.20993,-0.560996 0.4665,-0.560996 0.54267,0 2.35573,-2.632784 2.35573,-3.420793 0,-0.343141 -0.20029,-0.458396 -0.55802,-0.321117 -0.30692,0.117771 -1.18004,0.214133 -1.94028,0.214133 -1.19002,0 -1.38613,0.110392 -1.41011,0.79375 -0.0153,0.436562 -0.10792,0.595312 -0.20579,0.352777 -0.3836,-0.950656 -1.401446,-0.372481 -2.470911,1.403569 -1.0498,1.743393 -1.082056,1.899952 -0.588179,2.855005 0.587163,1.135449 0.451953,1.596297 -0.227973,0.777034 -0.66839,-0.80536 -1.142418,-0.662221 -2.201145,0.66467 -1.539465,1.929392 -1.443284,2.12661 1.135737,2.328783 2.726343,0.213723 2.93176,0.154922 2.470398,-0.707141 z m 2.321537,-5.873107 c -0.29534,-0.769641 0.0968,-1.127374 0.51351,-0.468458 0.41718,0.659646 0.42606,1.048118 0.024,1.048118 -0.17327,0 -0.41513,-0.260848 -0.53747,-0.57966 z m 16.36363,5.665713 c -0.19233,-0.505835 -0.19423,-0.85272 -0.005,-0.85272 0.17573,0 0.37024,0.355566 0.43224,0.790146 0.20737,1.453497 1.14516,1.063641 2.68136,-1.114689 0.81858,-1.160735 1.48832,-2.208647 1.48832,-2.328688 0,-0.120042 -0.51594,-0.953609 -1.14653,-1.852369 -0.63059,-0.898761 -1.2559,-1.794177 -1.38957,-1.989812 -0.3376,-0.494067 -1.49352,0.617744 -2.59324,2.494282 -0.83559,1.425821 -0.8619,1.597343 -0.35593,2.319727 0.82329,1.175403 0.65608,1.55467 -0.29253,0.663503 l -0.8389,-0.788106 -1.10137,1.336159 c -1.70807,2.072182 -1.52434,2.431888 1.17109,2.292707 2.24213,-0.115774 2.26942,-0.129355 1.94976,-0.97014 z m -25.036122,0.524653 c 0,-0.441544 -1.371227,-2.487787 -1.916139,-2.859397 -0.199445,-0.136017 -0.67724,0.260858 -1.061765,0.881944 -0.384524,0.621085 -0.863989,1.248309 -1.065477,1.39383 -0.636471,0.459679 0.588981,0.959001 2.367688,0.964737 0.982736,0.0032 1.675693,-0.154435 1.675693,-0.381114 z m 18.697232,0.158922 c 0,-0.48374 -1.9589,-3.298727 -2.29306,-3.295187 -0.29852,0.0031 -1.12263,1.060262 -2.39878,3.076959 -0.21753,0.343762 0.28721,0.44582 2.20486,0.44582 1.36784,0 2.48698,-0.102415 2.48698,-0.227592 z m 13.40555,-0.0966 c 0,-0.616984 -1.23638,-2.493581 -1.64433,-2.495801 -0.45581,-0.0024 -2.23622,1.983388 -2.23622,2.49428 0,0.179141 0.87312,0.32571 1.94027,0.32571 1.06716,0 1.94028,-0.145883 1.94028,-0.324189 z m -36.945543,-1.43239 c 0.37701,-0.675079 0.984081,-1.607037 1.34905,-2.071015 0.440708,-0.560274 0.596079,-1.155142 0.46261,-1.771198 -0.155987,-0.719989 -0.116972,-0.809162 0.174329,-0.398425 0.31328,0.441727 0.606803,0.26685 1.776359,-1.058334 0.770586,-0.873125 1.355614,-1.74625 1.300062,-1.940279 -0.05555,-0.194027 -0.961136,-0.352777 -2.01241,-0.352777 h -1.911405 l 0.05616,1.184688 0.05617,1.18469 -1.170136,-1.134139 c -1.136563,-1.101603 -1.18119,-1.113483 -1.555472,-0.414131 -0.211937,0.396004 -0.385337,2.40896 -0.385337,4.473233 0,3.31174 0.06908,3.739809 0.587272,3.639164 0.323001,-0.06273 0.895734,-0.666398 1.272744,-1.341477 z m 25.754713,-0.448278 c 0.662,-0.824619 1.31306,-1.691376 1.44681,-1.926127 0.28862,-0.5066 -1.88544,-3.967403 -2.49806,-3.976563 -0.23321,-0.0035 -0.91899,0.71307 -1.52395,1.592347 l -1.09992,1.598684 0.99422,2.105483 c 0.54682,1.158015 1.1029,2.105482 1.23574,2.105482 0.13284,0 0.78317,-0.674687 1.44516,-1.499306 z m 12.87553,-2.183813 c 0.031,-1.85484 -0.0883,-3.372437 -0.26509,-3.372437 -0.17676,0 -0.60272,0.47625 -0.94656,1.058333 -0.34384,0.582084 -0.73118,1.058334 -0.86074,1.058334 -0.12957,0 -0.3226,0.332777 -0.42896,0.739502 -0.20403,0.780211 1.72176,4.335727 2.19122,4.045582 0.13961,-0.08628 0.27916,-1.674473 0.31013,-3.529314 z m -57.599981,2.272006 c 0.301005,-0.582083 0.46791,-1.058333 0.370895,-1.058333 -0.09701,0 -0.422666,0.47625 -0.723675,1.058333 -0.301006,0.582084 -0.46791,1.058334 -0.370896,1.058334 0.09701,0 0.422667,-0.47625 0.723676,-1.058334 z m 25.456996,-0.264583 c 0.331335,-0.533575 0.910704,-1.319247 1.287486,-1.745938 0.376783,-0.426691 0.590582,-1.022003 0.47511,-1.322916 -0.124021,-0.323192 -0.02027,-0.547116 0.253471,-0.547116 0.655894,0 1.533612,-1.064348 1.818251,-2.204863 0.237558,-0.951868 0.21183,-0.970137 -1.366097,-0.970137 -0.900925,0 -1.732285,0.193937 -1.890326,0.44097 -0.155162,0.242536 -0.589151,0.440973 -0.96442,0.440973 -0.718923,0 -2.590294,2.672559 -2.641354,3.772197 -0.03982,0.857601 1.364158,3.10697 1.939261,3.10697 0.267404,0 0.757283,-0.436563 1.088618,-0.97014 z m 65.886615,-0.142393 c 0.30525,-0.611894 0.555,-1.821035 0.555,-2.686979 0,-1.400762 0.0778,-1.554091 0.70556,-1.389938 0.78295,0.204745 0.79536,0.189521 0.49142,-0.602531 -0.67303,-1.753896 -2.60809,1.204923 -2.60809,3.98793 0,0.992227 0.0677,1.804051 0.15055,1.804051 0.0828,0 0.40031,-0.500639 0.70556,-1.112533 z m -3.1335,-1.382255 c 0.11807,-0.191048 -0.98184,-0.327435 -2.64068,-0.327435 -1.56367,0 -2.84304,0.135035 -2.84304,0.30008 0,0.41044 5.23083,0.436536 5.48372,0.02736 z M 69.138215,75.117093 c -0.08944,-0.343241 -0.168508,-0.147825 -0.175697,0.434258 -0.0072,0.582084 0.06599,0.862918 0.162627,0.624076 0.09663,-0.238842 0.102515,-0.715092 0.01307,-1.058334 z m 73.133315,1.011375 c 0,-0.498411 -2.93566,-0.753507 -8.67147,-0.753507 -4.91098,0 -6.1886,0.191781 -5.54765,0.832739 0.34553,0.345533 14.21912,0.268224 14.21912,-0.07923 z M 64.453862,74.095807 c 1.066102,-1.907463 1.107686,-2.327728 0.345435,-3.491069 -0.560014,-0.854694 -0.548394,-1.708123 0.06416,-4.711524 0.426379,-2.090561 -0.525656,-1.105828 -1.659655,1.716659 -1.175136,2.92488 -1.439473,6.033174 -0.624104,7.338784 0.267599,0.428495 0.593534,0.779084 0.724302,0.779084 0.130765,0 0.648205,-0.734372 1.149862,-1.631934 z m 20.314883,0.709948 c 0,-0.400679 -1.275834,-0.489127 -7.055556,-0.489127 -4.468519,0 -7.055554,0.129352 -7.055554,0.35278 0,0.194027 0.03969,0.37887 0.08819,0.410763 0.217535,0.143023 12.186242,0.457485 13.052776,0.342945 0.533578,-0.07053 0.97014,-0.34834 0.97014,-0.617361 z m -33.34178,-0.848828 c -0.197769,-0.319998 -0.32887,-0.31024 -0.545709,0.04061 -0.371941,0.601816 -0.0065,1.193091 0.453234,0.733346 0.194027,-0.194027 0.235641,-0.542309 0.09248,-0.773957 z m 72.444305,-0.494263 c 0.57888,-0.857739 0.96054,-1.651489 0.84814,-1.763889 -0.28113,-0.281136 -4.3201,-0.259424 -4.3201,0.02323 0,0.3849 1.92513,3.298883 2.17986,3.299555 0.13178,2.65e-4 0.71322,-0.701154 1.2921,-1.55889 z m 24.71874,0.207296 c 0.92112,-1.721117 -0.0146,-7.467219 -1.21604,-7.467219 -1.33639,0 -1.57628,5.430216 -0.31619,7.157254 0.81309,1.114394 1.07352,1.167077 1.53223,0.309965 z M 67.482632,72.199961 c 0,-0.194026 -0.15875,-0.352776 -0.352776,-0.352776 -0.194027,0 -0.352777,0.15875 -0.352777,0.352776 0,0.19403 0.15875,0.35278 0.352777,0.35278 0.194026,0 0.352776,-0.15875 0.352776,-0.35278 z m -5.793218,-5.605486 c -0.112202,-0.851699 -0.206434,-1.883574 -0.209405,-2.293055 -0.004,-0.545883 -0.08545,-0.618211 -0.305451,-0.271103 -0.478589,0.755107 -0.721828,-1.242287 -0.325903,-2.676209 0.224391,-0.812674 0.219324,-1.354355 -0.01487,-1.588537 -0.238625,-0.238624 -0.479894,0.107138 -0.734473,1.052568 -0.680506,2.527205 -0.566658,4.127127 0.569844,8.008189 0.197924,0.675895 0.205652,0.675895 0.712171,0 0.354689,-0.473294 0.449376,-1.159256 0.308075,-2.231853 z m 89.396156,-2.264638 c -0.007,-3.680439 -0.2908,-4.183491 -1.52998,-2.710817 -1.31691,1.565063 -1.18615,3.92846 0.29955,5.414164 0.95875,0.958743 1.23614,0.349297 1.23043,-2.703347 z M 62.78473,63.314372 c -0.112614,-0.281422 -0.196207,-0.197829 -0.213135,0.213137 -0.01532,0.371887 0.06806,0.580246 0.185285,0.463021 0.117227,-0.117225 0.129757,-0.421496 0.02785,-0.676158 z m -4.8022,-4.278093 c -0.198118,-0.521085 -0.541973,-0.947427 -0.764122,-0.947427 -0.577265,0 -0.236691,4.010686 0.40681,4.790726 0.45947,0.55696 0.518922,0.446469 0.613164,-1.139555 0.0574,-0.965974 -0.05774,-2.182659 -0.255852,-2.703744 z m 95.22511,0.480125 c 0,-0.712344 -0.46077,-1.427552 -0.91969,-1.427552 -0.32737,0 -0.49142,0.416326 -0.49142,1.247134 0,1.137816 0.0618,1.214035 0.70555,0.869532 0.38806,-0.207681 0.70556,-0.517782 0.70556,-0.689114 z m -2.79437,20.59166 c 0.0169,-0.410967 0.10052,-0.49456 0.21313,-0.213136 0.10191,0.254662 0.0894,0.558933 -0.0279,0.676156 -0.11722,0.117227 -0.2006,-0.09113 -0.18528,-0.46302 z m -35.65841,-8.966436 c 0,-0.194027 0.2475,-0.352777 0.54999,-0.352777 0.30249,0 0.45187,0.15875 0.33196,0.352777 -0.11992,0.19403 -0.36742,0.35278 -0.54999,0.35278 -0.18258,0 -0.33196,-0.15875 -0.33196,-0.35278 z"
       id="path1" />
  </g>
</svg>
