<?xml version="1.0" encoding="UTF-8" standalone="no"?>
<svg
   width="191"
   height="281"
   id="svg2"
   sodipodi:version="0.32"
   inkscape:version="1.3.2 (091e20e, 2023-11-25, custom)"
   version="1.0"
   inkscape:output_extension="org.inkscape.output.svg.inkscape"
   sodipodi:docname="Mutation_and_selection_diagram_fi.svg"
   viewBox="0 0 191 281"
   xmlns:inkscape="http://www.inkscape.org/namespaces/inkscape"
   xmlns:sodipodi="http://sodipodi.sourceforge.net/DTD/sodipodi-0.dtd"
   xmlns="http://www.w3.org/2000/svg"
   xmlns:svg="http://www.w3.org/2000/svg">
  <sodipodi:namedview
     id="namedview1"
     pagecolor="#ffffff"
     bordercolor="#000000"
     borderopacity="0.25"
     inkscape:showpageshadow="2"
     inkscape:pageopacity="0.0"
     inkscape:pagecheckerboard="0"
     inkscape:deskcolor="#d1d1d1"
     inkscape:zoom="2.6066667"
     inkscape:cx="160.35805"
     inkscape:cy="140.79284"
     inkscape:window-width="1920"
     inkscape:window-height="991"
     inkscape:window-x="-9"
     inkscape:window-y="-9"
     inkscape:window-maximized="1"
     inkscape:current-layer="Layer1" />
  <defs
     id="defs4" />
  <metadata
     id="metadata7" />
  <g
     inkscape:label="Layer 1"
     inkscape:groupmode="layer"
     id="Layer1"
     transform="translate(-9.5,-9.5)">
    <g
       id="Lines"
       style="fill:none;stroke:#000000;stroke-width:1px"
       transform="translate(10,10)">
      <path
         id="path2221"
         d="M 95,15 55,65"
         inkscape:connector-curvature="0" />
      <path
         d="M 95,15 V 65"
         id="path2223"
         inkscape:connector-curvature="0" />
      <path
         id="path2229"
         d="m 95,15 40,50"
         inkscape:connector-curvature="0" />
      <path
         id="path2231"
         d="m 55,65 v 50"
         inkscape:connector-curvature="0" />
      <path
         d="m 95,65 v 50"
         id="path2233"
         inkscape:connector-curvature="0" />
      <path
         id="path2235"
         d="m 135,65 v 50"
         inkscape:connector-curvature="0" />
      <path
         d="M 95,115 35,165"
         id="path2237"
         inkscape:connector-curvature="0" />
      <path
         id="path2239"
         d="M 95,115 75,165"
         inkscape:connector-curvature="0" />
      <path
         d="m 135,115 -20,50"
         id="path2241"
         inkscape:connector-curvature="0" />
      <path
         id="path2243"
         d="m 135,115 20,50"
         inkscape:connector-curvature="0" />
      <path
         d="m 35,165 v 50"
         id="path2245"
         inkscape:connector-curvature="0" />
      <path
         id="path2247"
         d="m 75,165 v 50"
         inkscape:connector-curvature="0" />
      <path
         d="m 115,165 v 50"
         id="path2249"
         inkscape:connector-curvature="0" />
      <path
         id="path2251"
         d="m 155,165 v 50"
         inkscape:connector-curvature="0" />
      <path
         d="M 115,215 15,265"
         id="path2253"
         inkscape:connector-curvature="0" />
      <path
         id="path2255"
         d="M 115,215 55,265"
         inkscape:connector-curvature="0" />
      <path
         d="M 155,215 95,265"
         id="path2257"
         inkscape:connector-curvature="0" />
      <path
         id="path2259"
         d="m 155,215 -20,50"
         inkscape:connector-curvature="0" />
      <path
         d="m 155,215 20,50"
         id="path2261"
         inkscape:connector-curvature="0" />
    </g>
    <g
       id="Circles"
       style="stroke:#000000;stroke-width:1px"
       transform="translate(10,10)">
      <circle
         style="fill:#c0c0c0"
         id="Gen1LightGrey"
         transform="translate(95,15)"
         cx="0"
         cy="0"
         r="15" />
      <circle
         style="fill:#ffffff"
         id="Gen2White"
         transform="translate(55,65)"
         cx="0"
         cy="0"
         r="15" />
      <circle
         transform="translate(95,65)"
         id="Gen2LightGrey"
         style="fill:#c0c0c0"
         cx="0"
         cy="0"
         r="15" />
      <circle
         style="fill:#808080"
         id="Gen2MediumGrey"
         transform="translate(135,65)"
         cx="0"
         cy="0"
         r="15" />
      <circle
         transform="translate(55,115)"
         id="Gen3White"
         style="fill:#ffffff"
         cx="0"
         cy="0"
         r="15" />
      <circle
         style="fill:#c0c0c0"
         id="Gen3LightGrey"
         transform="translate(95,115)"
         cx="0"
         cy="0"
         r="15" />
      <circle
         transform="translate(135,115)"
         id="Gen3MediumGrey"
         style="fill:#808080"
         cx="0"
         cy="0"
         r="15" />
      <circle
         transform="translate(35,165)"
         id="Gen4LightLightGrey"
         style="fill:#d0d0d0"
         cx="0"
         cy="0"
         r="15" />
      <circle
         style="fill:#b0b0b0"
         id="Gen4DarkLightGrey"
         transform="translate(75,165)"
         cx="0"
         cy="0"
         r="15" />
      <circle
         style="fill:#909090"
         id="Gen4LightMediumGrey"
         transform="translate(115,165)"
         cx="0"
         cy="0"
         r="15" />
      <circle
         style="fill:#707070"
         id="Gen4DarkMediumGrey"
         transform="translate(155,165)"
         cx="0"
         cy="0"
         r="15" />
      <circle
         style="fill:#d0d0d0"
         id="Gen5LightLightGrey"
         transform="translate(35,215)"
         cx="0"
         cy="0"
         r="15" />
      <circle
         transform="translate(75,215)"
         id="Gen5DarkLightGrey"
         style="fill:#b0b0b0"
         cx="0"
         cy="0"
         r="15" />
      <circle
         transform="translate(115,215)"
         id="Gen5LightMediumGrey"
         style="fill:#909090"
         cx="0"
         cy="0"
         r="15" />
      <circle
         style="fill:#707070"
         id="Gen5DarkMediumGrey"
         transform="translate(155,215)"
         cx="0"
         cy="0"
         r="15" />
      <circle
         style="fill:#909090"
         id="Gen6LightMediumGrey1"
         transform="translate(15,265)"
         cx="0"
         cy="0"
         r="15" />
      <circle
         transform="translate(55,265)"
         id="Gen6LightMediumGrey2"
         style="fill:#909090"
         cx="0"
         cy="0"
         r="15" />
      <circle
         style="fill:#707070"
         id="Gen6DarkMediumGrey1"
         transform="translate(95,265)"
         cx="0"
         cy="0"
         r="15" />
      <circle
         transform="translate(135,265)"
         id="Gen6DarkMediumGrey2"
         style="fill:#707070"
         cx="0"
         cy="0"
         r="15" />
      <circle
         style="fill:#707070"
         id="Gen6DarkMediumGrey3"
         transform="translate(175,265)"
         cx="0"
         cy="0"
         r="15" />
    </g>
    <g
       id="Crosses"
       style="fill:none;stroke:#cc0000;stroke-width:3px"
       transform="translate(10,-40)">
      <path
         id="path2199"
         d="m -15,-15 30,30 m 0,-30 -30,30"
         transform="translate(55,165)"
         inkscape:connector-curvature="0" />
      <path
         id="path2212"
         d="m -15,-15 30,30 m 0,-30 -30,30"
         transform="translate(35,265)"
         inkscape:connector-curvature="0" />
      <path
         id="path2214"
         d="m -15,-15 30,30 m 0,-30 -30,30"
         transform="translate(75,265)"
         inkscape:connector-curvature="0" />
    </g>
  </g>
</svg>
