<?xml version="1.0" encoding="UTF-8" standalone="no"?>
<svg
     xmlns:dc="http://purl.org/dc/elements/1.1/"
     xmlns:cc="http://creativecommons.org/ns#"
     xmlns:rdf="http://www.w3.org/1999/02/22-rdf-syntax-ns#"
     xmlns:svg="http://www.w3.org/2000/svg"
     xmlns="http://www.w3.org/2000/svg"
     id="svg2"
     viewBox="0 0 124.31785 20.560316"
     height="36.130627mm"
     width="218.46368mm"
     version="1.2">
    <title
         id="title4398">Babylonian Tonal System - nīd qablim</title>
    <metadata
         id="metadata270">
        <rdf:RDF>
            <cc:Work
                 rdf:about="">
                <dc:format>image/svg+xml</dc:format>
                <dc:type
                     rdf:resource="http://purl.org/dc/dcmitype/StillImage" />
                <dc:title>Babylonian Tonal System - nīd qablim</dc:title>
                <cc:license
                     rdf:resource="http://creativecommons.org/licenses/by-sa/3.0/" />
                <dc:date>2016-01-01</dc:date>
                <dc:creator>
                    <cc:Agent>
                        <dc:title>Jürgen Lange</dc:title>
                    </cc:Agent>
                </dc:creator>
            </cc:Work>
            <cc:License
                 rdf:about="http://creativecommons.org/licenses/by-sa/3.0/">
                <cc:permits
                     rdf:resource="http://creativecommons.org/ns#Reproduction" />
                <cc:permits
                     rdf:resource="http://creativecommons.org/ns#Distribution" />
                <cc:requires
                     rdf:resource="http://creativecommons.org/ns#Notice" />
                <cc:requires
                     rdf:resource="http://creativecommons.org/ns#Attribution" />
                <cc:permits
                     rdf:resource="http://creativecommons.org/ns#DerivativeWorks" />
                <cc:requires
                     rdf:resource="http://creativecommons.org/ns#ShareAlike" />
            </cc:License>
        </rdf:RDF>
    </metadata>
    <defs
         id="defs256" />
    <!-- Page: 1/1 -->
    <text
         y="1.966749"
         x="-14.225732"
         style="font-size:2.20009995px;font-family:droid_serifbold, Times, serif;text-anchor:start;fill:currentColor"
         id="text4"
         font-size="2.2001">
        <tspan
             id="tspan6" />
    </text>
    <rect
         rx="0.1"
         style="fill:currentColor"
         id="rect8"
         ry="0.1"
         height="0.2"
         width="2.97"
         y="13.515549"
         x="62.71637" />
    <rect
         rx="0.1"
         style="fill:currentColor"
         id="rect10"
         ry="0.1"
         height="0.2"
         width="2.97"
         y="13.515549"
         x="68.514366" />
    <line
         style="stroke:currentColor;stroke-width:0.1;stroke-linecap:round;stroke-linejoin:round"
         id="line12"
         y2="12.615549"
         x2="121.42187"
         y1="12.615549"
         x1="2.895968" />
    <line
         style="stroke:currentColor;stroke-width:0.1;stroke-linecap:round;stroke-linejoin:round"
         id="line14"
         y2="11.615549"
         x2="121.42187"
         y1="11.615549"
         x1="2.895968" />
    <line
         style="stroke:currentColor;stroke-width:0.1;stroke-linecap:round;stroke-linejoin:round"
         id="line16"
         y2="10.615549"
         x2="121.42187"
         y1="10.615549"
         x1="2.895968" />
    <line
         style="stroke:currentColor;stroke-width:0.1;stroke-linecap:round;stroke-linejoin:round"
         id="line18"
         y2="9.6155491"
         x2="121.42187"
         y1="9.6155491"
         x1="2.895968" />
    <line
         style="stroke:currentColor;stroke-width:0.1;stroke-linecap:round;stroke-linejoin:round"
         id="line20"
         y2="8.6155491"
         x2="121.42187"
         y1="8.6155491"
         x1="2.895968" />
    <text
         y="4.4667487"
         x="80.605469"
         style="font-size:2.20009995px;font-family:droid_serifbold, Times, serif;text-anchor:start;fill:currentColor"
         id="text22"
         font-size="2.2001">
        <tspan
             id="tspan24">E</tspan>
    </text>
    <text
         y="4.4667487"
         x="82.810165"
         style="font-size:2.20009995px;font-family:droid_serifbold, Times, serif;text-anchor:start;fill:currentColor"
         id="text26"
         font-size="2.2001">
        <tspan
             id="tspan28">-</tspan>
    </text>
    <text
         y="4.4667487"
         x="84.127266"
         style="font-style:italic;font-size:2.20009995px;font-family:droid_serifbold, Times, serif;text-anchor:start;fill:currentColor"
         id="text30"
         font-size="2.2001"
         font-style="italic">
        <tspan
             id="tspan32">nīd qablim</tspan>
    </text>
    <text
         y="4.4667487"
         x="95.809166"
         style="font-size:2.20009995px;font-family:droid_serifbold, Times, serif;text-anchor:start;fill:currentColor"
         id="text46"
         font-size="2.2001">
        <tspan
             id="tspan48">(5</tspan>
    </text>
    <path
         style="fill:currentColor"
         id="path50"
         d="m 99.219368,5.714749 c 0,0.04 -0.032,0.076 -0.072,0.076 -0.04,0 -0.076,-0.036 -0.076,-0.076 l 0,-0.58 -0.332,0.124 0,0.632 c 0,0.04 -0.036,0.076 -0.076,0.076 -0.04,0 -0.072,-0.036 -0.072,-0.076 l 0,-0.58 -0.128,0.048 c -0.008,0.004 -0.02,0.004 -0.028,0.004 -0.044,0 -0.08,-0.036 -0.08,-0.08 l 0,-0.24 c 0,-0.032 0.02,-0.064 0.052,-0.076 l 0.184,-0.064 0,-0.64 -0.128,0.044 c -0.008,0.004 -0.02,0.004 -0.028,0.004 -0.044,0 -0.08,-0.036 -0.08,-0.08 l 0,-0.24 c 0,-0.032 0.02,-0.06 0.052,-0.072 l 0.184,-0.068 0,-0.632 c 0,-0.04 0.032,-0.076 0.072,-0.076 0.04,0 0.076,0.036 0.076,0.076 l 0,0.58 0.332,-0.124 0,-0.632 c 0,-0.04 0.036,-0.076 0.076,-0.076 0.04,0 0.072,0.036 0.072,0.076 l 0,0.58 0.128,-0.048 c 0.008,-0.004 0.02,-0.004 0.028,-0.004 0.044,0 0.08,0.036 0.08,0.08 l 0,0.24 c 0,0.032 -0.02,0.064 -0.052,0.076 l -0.184,0.064 0,0.64 0.128,-0.044 c 0.008,-0.004 0.02,-0.004 0.028,-0.004 0.044,0 0.08,0.036 0.08,0.08 l 0,0.24 c 0,0.032 -0.02,0.06 -0.052,0.072 l -0.184,0.068 0,0.632 z m -0.48,-1.508 0,0.64 0.332,-0.12 0,-0.64 z" />
    <text
         y="4.4667487"
         x="100.05537"
         style="font-size:2.20009995px;font-family:droid_serifbold, Times, serif;text-anchor:start;fill:currentColor"
         id="text52"
         font-size="2.2001">
        <tspan
             id="tspan54">)</tspan>
    </text>
    <text
         y="8.0655489"
         x="80.605469"
         style="font-size:2.20009995px;font-family:droid_serifbold, Times, serif;text-anchor:start;fill:currentColor"
         id="text56"
         font-size="2.2001">
        <tspan
             id="tspan58">f</tspan>
    </text>
    <path
         style="fill:currentColor"
         id="path60"
         d="m 81.465468,12.167549 c -0.2,0 -0.276,0.172 -0.276,0.352 0,0.308 0.228,0.544 0.536,0.544 0.2,0 0.276,-0.172 0.276,-0.352 0,-0.308 -0.228,-0.544 -0.536,-0.544 z m 1.12,0.448 c 0,0.172 -0.14,0.304 -0.292,0.388 -0.212,0.12 -0.452,0.164 -0.696,0.164 -0.244,0 -0.488,-0.044 -0.7,-0.164 -0.152,-0.084 -0.292,-0.216 -0.292,-0.388 0,-0.172 0.14,-0.304 0.292,-0.388 0.212,-0.12 0.456,-0.164 0.7,-0.164 0.244,0 0.484,0.044 0.696,0.164 0.152,0.084 0.292,0.216 0.292,0.388 z" />
    <path
         style="fill:currentColor"
         id="path62"
         d="m 87.263568,11.667549 c -0.2,0 -0.276,0.172 -0.276,0.352 0,0.308 0.228,0.544 0.536,0.544 0.2,0 0.276,-0.172 0.276,-0.352 0,-0.308 -0.228,-0.544 -0.536,-0.544 z m 1.12,0.448 c 0,0.172 -0.14,0.304 -0.292,0.388 -0.212,0.12 -0.452,0.164 -0.696,0.164 -0.244,0 -0.488,-0.044 -0.7,-0.164 -0.152,-0.084 -0.292,-0.216 -0.292,-0.388 0,-0.172 0.14,-0.304 0.292,-0.388 0.212,-0.12 0.456,-0.164 0.7,-0.164 0.244,0 0.484,0.044 0.696,0.164 0.152,0.084 0.292,0.216 0.292,0.388 z" />
    <path
         style="fill:currentColor"
         id="path64"
         d="m 85.817568,13.363549 c 0,0.04 -0.032,0.076 -0.072,0.076 -0.04,0 -0.076,-0.036 -0.076,-0.076 l 0,-0.58 -0.332,0.124 0,0.632 c 0,0.04 -0.036,0.076 -0.076,0.076 -0.04,0 -0.072,-0.036 -0.072,-0.076 l 0,-0.58 -0.128,0.048 c -0.008,0.004 -0.02,0.004 -0.028,0.004 -0.044,0 -0.08,-0.036 -0.08,-0.08 l 0,-0.24 c 0,-0.032 0.02,-0.064 0.052,-0.076 l 0.184,-0.064 0,-0.64 -0.128,0.044 c -0.008,0.004 -0.02,0.004 -0.028,0.004 -0.044,0 -0.08,-0.036 -0.08,-0.08 l 0,-0.24 c 0,-0.032 0.02,-0.06 0.052,-0.072 l 0.184,-0.068 0,-0.632 c 0,-0.04 0.032,-0.076 0.072,-0.076 0.04,0 0.076,0.036 0.076,0.076 l 0,0.58 0.332,-0.124 0,-0.632 c 0,-0.04 0.036,-0.076 0.076,-0.076 0.04,0 0.072,0.036 0.072,0.076 l 0,0.58 0.128,-0.048 c 0.008,-0.004 0.02,-0.004 0.028,-0.004 0.044,0 0.08,0.036 0.08,0.08 l 0,0.24 c 0,0.032 -0.02,0.064 -0.052,0.076 l -0.184,0.064 0,0.64 0.128,-0.044 c 0.008,-0.004 0.02,-0.004 0.028,-0.004 0.044,0 0.08,0.036 0.08,0.08 l 0,0.24 c 0,0.032 -0.02,0.06 -0.052,0.072 l -0.184,0.068 0,0.632 z m -0.48,-1.508 0,0.64 0.332,-0.12 0,-0.64 z" />
    <path
         style="fill:currentColor"
         id="path66"
         d="m 93.061568,11.167549 c -0.2,0 -0.276,0.172 -0.276,0.352 0,0.308 0.228,0.544 0.536,0.544 0.2,0 0.276,-0.172 0.276,-0.352 0,-0.308 -0.228,-0.544 -0.536,-0.544 z m 1.12,0.448 c 0,0.172 -0.14,0.304 -0.292,0.388 -0.212,0.12 -0.452,0.164 -0.696,0.164 -0.244,0 -0.488,-0.044 -0.7,-0.164 -0.152,-0.084 -0.292,-0.216 -0.292,-0.388 0,-0.172 0.14,-0.304 0.292,-0.388 0.212,-0.12 0.456,-0.164 0.7,-0.164 0.244,0 0.484,0.044 0.696,0.164 0.152,0.084 0.292,0.216 0.292,0.388 z" />
    <path
         style="fill:currentColor"
         id="path68"
         d="m 64.071368,13.667549 c -0.2,0 -0.276,0.172 -0.276,0.352 0,0.308 0.228,0.544 0.536,0.544 0.2,0 0.276,-0.172 0.276,-0.352 0,-0.308 -0.228,-0.544 -0.536,-0.544 z m 1.12,0.448 c 0,0.172 -0.14,0.304 -0.292,0.388 -0.212,0.12 -0.452,0.164 -0.696,0.164 -0.244,0 -0.488,-0.044 -0.7,-0.164 -0.152,-0.084 -0.292,-0.216 -0.292,-0.388 0,-0.172 0.14,-0.304 0.292,-0.388 0.212,-0.12 0.456,-0.164 0.7,-0.164 0.244,0 0.484,0.044 0.696,0.164 0.152,0.084 0.292,0.216 0.292,0.388 z" />
    <text
         y="8.0655489"
         x="63.211369"
         style="font-size:2.20009995px;font-family:droid_serifbold, Times, serif;text-anchor:start;fill:currentColor"
         id="text70"
         font-size="2.2001">
        <tspan
             id="tspan72">f</tspan>
    </text>
    <text
         y="17.688848"
         x="63.211369"
         style="font-size:1.74609995px;font-family:droid_serifbold, Times, serif;text-anchor:start;fill:currentColor"
         id="text74"
         font-size="1.7461">
        <tspan
             id="tspan76">semitone</tspan>
    </text>
    <path
         style="fill:currentColor"
         id="path78"
         d="m 61.231268,11.611549 c 0,0.328 -0.224,0.672 -0.564,0.788 0.008,0.108 0.012,0.216 0.012,0.324 0,0.064 0,0.132 -0.004,0.196 -0.024,0.396 -0.3,0.744 -0.692,0.744 -0.348,0 -0.636,-0.288 -0.636,-0.64 0,-0.184 0.168,-0.332 0.36,-0.332 0.172,0 0.304,0.152 0.304,0.332 0,0.168 -0.136,0.304 -0.304,0.304 -0.016,0 -0.024,0 -0.04,-0.004 0.076,0.104 0.188,0.168 0.324,0.168 0.3,0 0.496,-0.288 0.516,-0.596 0.004,-0.06 0.004,-0.12 0.004,-0.18 0,-0.092 -0.004,-0.184 -0.012,-0.276 -0.088,0.016 -0.176,0.024 -0.268,0.024 -0.604,0 -1.064,-0.556 -1.064,-1.208 0,-0.576 0.404,-1.016 0.764,-1.468 -0.064,-0.212 -0.124,-0.42 -0.148,-0.64 -0.02,-0.168 -0.02,-0.34 -0.02,-0.512 0,-0.372 0.168,-0.724 0.46,-0.956 0.012,-0.008 0.024,-0.012 0.036,-0.012 0.016,0 0.032,0.004 0.044,0.016 0.228,0.276 0.428,0.808 0.428,1.18 0,0.46 -0.252,0.828 -0.54,1.188 0.068,0.236 0.132,0.476 0.188,0.716 l 0.004,0 c 0.008,0 0.016,-0.004 0.024,-0.004 0.504,0 0.824,0.42 0.824,0.848 z m -0.58,0.624 c 0.2,-0.08 0.324,-0.3 0.324,-0.5 0,-0.272 -0.192,-0.544 -0.508,-0.588 0.076,0.356 0.14,0.712 0.184,1.088 z m -1.24,-0.696 c 0,0.416 0.408,0.752 0.832,0.752 0.084,0 0.16,-0.004 0.24,-0.016 -0.044,-0.392 -0.112,-0.764 -0.192,-1.132 -0.236,0.028 -0.372,0.192 -0.372,0.368 0,0.136 0.084,0.28 0.256,0.38 0.02,0.02 0.024,0.04 0.024,0.06 0,0.044 -0.036,0.088 -0.084,0.088 -0.012,0 -0.024,-0.004 -0.036,-0.008 -0.26,-0.14 -0.38,-0.372 -0.38,-0.6 0,-0.284 0.184,-0.564 0.512,-0.644 -0.044,-0.192 -0.096,-0.38 -0.152,-0.572 -0.328,0.404 -0.648,0.808 -0.648,1.324 z m 1.024,-3.364 c -0.304,0.176 -0.492,0.496 -0.492,0.844 0,0.224 0.06,0.416 0.116,0.604 0.236,-0.316 0.428,-0.648 0.428,-1.044 0,-0.172 -0.008,-0.244 -0.052,-0.404 z" />
    <path
         style="fill:currentColor"
         id="path80"
         d="m 69.869368,13.167549 c -0.2,0 -0.276,0.172 -0.276,0.352 0,0.308 0.228,0.544 0.536,0.544 0.2,0 0.276,-0.172 0.276,-0.352 0,-0.308 -0.228,-0.544 -0.536,-0.544 z m 1.12,0.448 c 0,0.172 -0.14,0.304 -0.292,0.388 -0.212,0.12 -0.452,0.164 -0.696,0.164 -0.244,0 -0.488,-0.044 -0.7,-0.164 -0.152,-0.084 -0.292,-0.216 -0.292,-0.388 0,-0.172 0.14,-0.304 0.292,-0.388 0.212,-0.12 0.456,-0.164 0.7,-0.164 0.244,0 0.484,0.044 0.696,0.164 0.152,0.084 0.292,0.216 0.292,0.388 z" />
    <path
         style="fill:currentColor"
         id="path82"
         d="m 75.667468,12.667549 c -0.2,0 -0.276,0.172 -0.276,0.352 0,0.308 0.228,0.544 0.536,0.544 0.2,0 0.276,-0.172 0.276,-0.352 0,-0.308 -0.228,-0.544 -0.536,-0.544 z m 1.12,0.448 c 0,0.172 -0.14,0.304 -0.292,0.388 -0.212,0.12 -0.452,0.164 -0.696,0.164 -0.244,0 -0.488,-0.044 -0.7,-0.164 -0.152,-0.084 -0.292,-0.216 -0.292,-0.388 0,-0.172 0.14,-0.304 0.292,-0.388 0.212,-0.12 0.456,-0.164 0.7,-0.164 0.244,0 0.484,0.044 0.696,0.164 0.152,0.084 0.292,0.216 0.292,0.388 z" />
    <path
         style="fill:currentColor"
         id="path84"
         d="m 110.45567,9.667549 c -0.2,0 -0.276,0.172 -0.276,0.352 0,0.308 0.228,0.544 0.536,0.544 0.2,0 0.276,-0.172 0.276,-0.352 0,-0.308 -0.228,-0.544 -0.536,-0.544 z m 1.12,0.448 c 0,0.172 -0.14,0.304 -0.292,0.388 -0.212,0.12 -0.452,0.164 -0.696,0.164 -0.244,0 -0.488,-0.044 -0.7,-0.164 -0.152,-0.084 -0.292,-0.216 -0.292,-0.388 0,-0.172 0.14,-0.304 0.292,-0.388 0.212,-0.12 0.456,-0.164 0.7,-0.164 0.244,0 0.484,0.044 0.696,0.164 0.152,0.084 0.292,0.216 0.292,0.388 z" />
    <path
         style="fill:currentColor"
         id="path86"
         d="m 109.00967,11.363549 c 0,0.04 -0.032,0.076 -0.072,0.076 -0.04,0 -0.076,-0.036 -0.076,-0.076 l 0,-0.58 -0.332,0.124 0,0.632 c 0,0.04 -0.036,0.076 -0.076,0.076 -0.04,0 -0.072,-0.036 -0.072,-0.076 l 0,-0.58 -0.128,0.048 c -0.008,0.004 -0.02,0.004 -0.028,0.004 -0.044,0 -0.08,-0.036 -0.08,-0.08 l 0,-0.24 c 0,-0.032 0.02,-0.064 0.052,-0.076 l 0.184,-0.064 0,-0.64 -0.128,0.044 c -0.008,0.004 -0.02,0.004 -0.028,0.004 -0.044,0 -0.08,-0.036 -0.08,-0.08 l 0,-0.24 c 0,-0.032 0.02,-0.06 0.052,-0.072 l 0.184,-0.068 0,-0.632 c 0,-0.04 0.032,-0.076 0.072,-0.076 0.04,0 0.076,0.036 0.076,0.076 l 0,0.58 0.332,-0.124 0,-0.632 c 0,-0.04 0.036,-0.076 0.076,-0.076 0.04,0 0.072,0.036 0.072,0.076 l 0,0.58 0.128,-0.048 c 0.008,-0.004 0.02,-0.004 0.028,-0.004 0.044,0 0.08,0.036 0.08,0.08 l 0,0.24 c 0,0.032 -0.02,0.064 -0.052,0.076 l -0.184,0.064 0,0.64 0.128,-0.044 c 0.008,-0.004 0.02,-0.004 0.028,-0.004 0.044,0 0.08,0.036 0.08,0.08 l 0,0.24 c 0,0.032 -0.02,0.06 -0.052,0.072 l -0.184,0.068 0,0.632 z m -0.48,-1.508 0,0.64 0.332,-0.12 0,-0.64 z" />
    <path
         style="fill:currentColor"
         id="path88"
         d="m 116.25377,9.167549 c -0.2,0 -0.276,0.172 -0.276,0.352 0,0.308 0.228,0.544 0.536,0.544 0.2,0 0.276,-0.172 0.276,-0.352 0,-0.308 -0.228,-0.544 -0.536,-0.544 z m 1.12,0.448 c 0,0.172 -0.14,0.304 -0.292,0.388 -0.212,0.12 -0.452,0.164 -0.696,0.164 -0.244,0 -0.488,-0.044 -0.7,-0.164 -0.152,-0.084 -0.292,-0.216 -0.292,-0.388 0,-0.172 0.14,-0.304 0.292,-0.388 0.212,-0.12 0.456,-0.164 0.7,-0.164 0.244,0 0.484,0.044 0.696,0.164 0.152,0.084 0.292,0.216 0.292,0.388 z" />
    <text
         y="8.0655489"
         x="115.39377"
         style="font-size:2.20009995px;font-family:droid_serifbold, Times, serif;text-anchor:start;fill:currentColor"
         id="text90"
         font-size="2.2001">
        <tspan
             id="tspan92">f</tspan>
    </text>
    <path
         style="fill:currentColor"
         id="path94"
         d="m 114.80777,10.863549 c 0,0.04 -0.032,0.076 -0.072,0.076 -0.04,0 -0.076,-0.036 -0.076,-0.076 l 0,-0.58 -0.332,0.124 0,0.632 c 0,0.04 -0.036,0.076 -0.076,0.076 -0.04,0 -0.072,-0.036 -0.072,-0.076 l 0,-0.58 -0.128,0.048 c -0.008,0.004 -0.02,0.004 -0.028,0.004 -0.044,0 -0.08,-0.036 -0.08,-0.08 l 0,-0.24 c 0,-0.032 0.02,-0.064 0.052,-0.076 l 0.184,-0.064 0,-0.64 -0.128,0.044 c -0.008,0.004 -0.02,0.004 -0.028,0.004 -0.044,0 -0.08,-0.036 -0.08,-0.08 l 0,-0.24 c 0,-0.032 0.02,-0.06 0.052,-0.072 l 0.184,-0.068 0,-0.632 c 0,-0.04 0.032,-0.076 0.072,-0.076 0.04,0 0.076,0.036 0.076,0.076 l 0,0.58 0.332,-0.124 0,-0.632 c 0,-0.04 0.036,-0.076 0.076,-0.076 0.04,0 0.072,0.036 0.072,0.076 l 0,0.58 0.128,-0.048 c 0.008,-0.004 0.02,-0.004 0.028,-0.004 0.044,0 0.08,0.036 0.08,0.08 l 0,0.24 c 0,0.032 -0.02,0.064 -0.052,0.076 l -0.184,0.064 0,0.64 0.128,-0.044 c 0.008,-0.004 0.02,-0.004 0.028,-0.004 0.044,0 0.08,0.036 0.08,0.08 l 0,0.24 c 0,0.032 -0.02,0.06 -0.052,0.072 l -0.184,0.068 0,0.632 z m -0.48,-1.508 0,0.64 0.332,-0.12 0,-0.64 z" />
    <line
         style="stroke:currentColor;stroke-width:0.1;stroke-linecap:round;stroke-linejoin:round"
         id="line96"
         y2="13.915549"
         x2="105.27767"
         y1="13.915549"
         x1="98.499565" />
    <line
         style="stroke:currentColor;stroke-width:0.1;stroke-linecap:round;stroke-linejoin:round"
         id="line98"
         y2="12.915549"
         x2="105.77767"
         y1="13.915549"
         x1="105.27767" />
    <line
         style="stroke:currentColor;stroke-width:0.1;stroke-linecap:round;stroke-linejoin:round"
         id="line100"
         y2="12.915549"
         x2="97.999565"
         y1="13.915549"
         x1="98.499565" />
    <line
         style="stroke:currentColor;stroke-width:0.1;stroke-linecap:round;stroke-linejoin:round"
         id="line102"
         y2="15.915549"
         x2="70.489471"
         y1="15.915549"
         x1="63.711369" />
    <line
         style="stroke:currentColor;stroke-width:0.1;stroke-linecap:round;stroke-linejoin:round"
         id="line104"
         y2="14.915549"
         x2="70.989471"
         y1="15.915549"
         x1="70.489471" />
    <line
         style="stroke:currentColor;stroke-width:0.1;stroke-linecap:round;stroke-linejoin:round"
         id="line106"
         y2="14.915549"
         x2="63.211369"
         y1="15.915549"
         x1="63.711369" />
    <line
         style="stroke:currentColor;stroke-width:0.1;stroke-linecap:round;stroke-linejoin:round"
         id="line108"
         y2="13.915549"
         x2="33.318169"
         y1="13.915549"
         x1="26.540068" />
    <line
         style="stroke:currentColor;stroke-width:0.1;stroke-linecap:round;stroke-linejoin:round"
         id="line110"
         y2="12.915549"
         x2="33.818169"
         y1="13.915549"
         x1="33.318169" />
    <line
         style="stroke:currentColor;stroke-width:0.1;stroke-linecap:round;stroke-linejoin:round"
         id="line112"
         y2="12.915549"
         x2="26.040068"
         y1="13.915549"
         x1="26.540068" />
    <path
         style="fill:currentColor"
         id="path114"
         d="m 91.615568,12.863549 c 0,0.04 -0.032,0.076 -0.072,0.076 -0.04,0 -0.076,-0.036 -0.076,-0.076 l 0,-0.58 -0.332,0.124 0,0.632 c 0,0.04 -0.036,0.076 -0.076,0.076 -0.04,0 -0.072,-0.036 -0.072,-0.076 l 0,-0.58 -0.128,0.048 c -0.008,0.004 -0.02,0.004 -0.028,0.004 -0.044,0 -0.08,-0.036 -0.08,-0.08 l 0,-0.24 c 0,-0.032 0.02,-0.064 0.052,-0.076 l 0.184,-0.064 0,-0.64 -0.128,0.044 c -0.008,0.004 -0.02,0.004 -0.028,0.004 -0.044,0 -0.08,-0.036 -0.08,-0.08 l 0,-0.24 c 0,-0.032 0.02,-0.06 0.052,-0.072 l 0.184,-0.068 0,-0.632 c 0,-0.04 0.032,-0.076 0.072,-0.076 0.04,0 0.076,0.036 0.076,0.076 l 0,0.58 0.332,-0.124 0,-0.632 c 0,-0.04 0.036,-0.076 0.076,-0.076 0.04,0 0.072,0.036 0.072,0.076 l 0,0.58 0.128,-0.048 c 0.008,-0.004 0.02,-0.004 0.028,-0.004 0.044,0 0.08,0.036 0.08,0.08 l 0,0.24 c 0,0.032 -0.02,0.064 -0.052,0.076 l -0.184,0.064 0,0.64 0.128,-0.044 c 0.008,-0.004 0.02,-0.004 0.028,-0.004 0.044,0 0.08,0.036 0.08,0.08 l 0,0.24 c 0,0.032 -0.02,0.06 -0.052,0.072 l -0.184,0.068 0,0.632 z m -0.48,-1.508 0,0.64 0.332,-0.12 0,-0.64 z" />
    <path
         style="fill:currentColor"
         id="path116"
         d="m 98.859568,10.667549 c -0.2,0 -0.276,0.172 -0.276,0.352 0,0.308 0.228,0.544 0.536,0.544 0.2,0 0.276,-0.172 0.276,-0.352 0,-0.308 -0.228,-0.544 -0.536,-0.544 z m 1.12,0.448 c 0,0.172 -0.14,0.304 -0.292,0.388 -0.212,0.12 -0.452,0.164 -0.696,0.164 -0.244,0 -0.488,-0.044 -0.7,-0.164 -0.152,-0.084 -0.292,-0.216 -0.292,-0.388 0,-0.172 0.14,-0.304 0.292,-0.388 0.212,-0.12 0.456,-0.164 0.7,-0.164 0.244,0 0.484,0.044 0.696,0.164 0.152,0.084 0.292,0.216 0.292,0.388 z" />
    <text
         y="8.0655489"
         x="97.999565"
         style="font-size:2.20009995px;font-family:droid_serifbold, Times, serif;text-anchor:start;fill:currentColor"
         id="text118"
         font-size="2.2001">
        <tspan
             id="tspan120">f</tspan>
    </text>
    <text
         y="15.688848"
         x="97.999565"
         style="font-size:1.74609995px;font-family:droid_serifbold, Times, serif;text-anchor:start;fill:currentColor"
         id="text122"
         font-size="1.7461">
        <tspan
             id="tspan124">semitone</tspan>
    </text>
    <path
         style="fill:currentColor"
         id="path126"
         d="m 97.413568,12.363549 c 0,0.04 -0.032,0.076 -0.072,0.076 -0.04,0 -0.076,-0.036 -0.076,-0.076 l 0,-0.58 -0.332,0.124 0,0.632 c 0,0.04 -0.036,0.076 -0.076,0.076 -0.04,0 -0.072,-0.036 -0.072,-0.076 l 0,-0.58 -0.128,0.048 c -0.008,0.004 -0.02,0.004 -0.028,0.004 -0.044,0 -0.08,-0.036 -0.08,-0.08 l 0,-0.24 c 0,-0.032 0.02,-0.064 0.052,-0.076 l 0.184,-0.064 0,-0.64 -0.128,0.044 c -0.008,0.004 -0.02,0.004 -0.028,0.004 -0.044,0 -0.08,-0.036 -0.08,-0.08 l 0,-0.24 c 0,-0.032 0.02,-0.06 0.052,-0.072 l 0.184,-0.068 0,-0.632 c 0,-0.04 0.032,-0.076 0.072,-0.076 0.04,0 0.076,0.036 0.076,0.076 l 0,0.58 0.332,-0.124 0,-0.632 c 0,-0.04 0.036,-0.076 0.076,-0.076 0.04,0 0.072,0.036 0.072,0.076 l 0,0.58 0.128,-0.048 c 0.008,-0.004 0.02,-0.004 0.028,-0.004 0.044,0 0.08,0.036 0.08,0.08 l 0,0.24 c 0,0.032 -0.02,0.064 -0.052,0.076 l -0.184,0.064 0,0.64 0.128,-0.044 c 0.008,-0.004 0.02,-0.004 0.028,-0.004 0.044,0 0.08,0.036 0.08,0.08 l 0,0.24 c 0,0.032 -0.02,0.06 -0.052,0.072 l -0.184,0.068 0,0.632 z m -0.48,-1.508 0,0.64 0.332,-0.12 0,-0.64 z" />
    <path
         style="fill:currentColor"
         id="path128"
         d="m 104.65767,10.167549 c -0.2,0 -0.276,0.172 -0.276,0.352 0,0.308 0.228,0.544 0.536,0.544 0.2,0 0.276,-0.172 0.276,-0.352 0,-0.308 -0.228,-0.544 -0.536,-0.544 z m 1.12,0.448 c 0,0.172 -0.14,0.304 -0.292,0.388 -0.212,0.12 -0.452,0.164 -0.696,0.164 -0.244,0 -0.488,-0.044 -0.7,-0.164 -0.152,-0.084 -0.292,-0.216 -0.292,-0.388 0,-0.172 0.14,-0.304 0.292,-0.388 0.212,-0.12 0.456,-0.164 0.7,-0.164 0.244,0 0.484,0.044 0.696,0.164 0.152,0.084 0.292,0.216 0.292,0.388 z" />
    <path
         style="fill:currentColor"
         id="path130"
         d="m 21.101968,11.167549 c -0.2,0 -0.276,0.172 -0.276,0.352 0,0.308 0.228,0.544 0.536,0.544 0.2,0 0.276,-0.172 0.276,-0.352 0,-0.308 -0.228,-0.544 -0.536,-0.544 z m 1.12,0.448 c 0,0.172 -0.14,0.304 -0.292,0.388 -0.212,0.12 -0.452,0.164 -0.696,0.164 -0.244,0 -0.488,-0.044 -0.7,-0.164 -0.152,-0.084 -0.292,-0.216 -0.292,-0.388 0,-0.172 0.14,-0.304 0.292,-0.388 0.212,-0.12 0.456,-0.164 0.7,-0.164 0.244,0 0.484,0.044 0.696,0.164 0.152,0.084 0.292,0.216 0.292,0.388 z" />
    <path
         style="fill:currentColor"
         id="path132"
         d="m 19.199968,11.451549 -0.004,0.264 0,0.044 c 0,0.088 0.004,0.176 0.016,0.264 0.18,-0.152 0.372,-0.32 0.372,-0.556 0,-0.132 -0.056,-0.268 -0.172,-0.268 -0.124,0 -0.208,0.12 -0.212,0.252 z m -0.168,0.716 -0.048,-2.38 c 0.032,-0.02 0.072,-0.032 0.108,-0.032 0.036,0 0.076,0.012 0.108,0.032 l -0.028,1.38 c 0.1,-0.084 0.232,-0.136 0.364,-0.136 0.208,0 0.356,0.192 0.356,0.408 0,0.32 -0.344,0.468 -0.588,0.676 -0.06,0.052 -0.096,0.152 -0.18,0.152 -0.052,0 -0.092,-0.044 -0.092,-0.1 z" />
    <path
         style="fill:currentColor"
         id="path134"
         d="m 26.900068,10.667549 c -0.2,0 -0.276,0.172 -0.276,0.352 0,0.308 0.228,0.544 0.536,0.544 0.2,0 0.276,-0.172 0.276,-0.352 0,-0.308 -0.228,-0.544 -0.536,-0.544 z m 1.12,0.448 c 0,0.172 -0.14,0.304 -0.292,0.388 -0.212,0.12 -0.452,0.164 -0.696,0.164 -0.244,0 -0.488,-0.044 -0.7,-0.164 -0.152,-0.084 -0.292,-0.216 -0.292,-0.388 0,-0.172 0.14,-0.304 0.292,-0.388 0.212,-0.12 0.456,-0.164 0.7,-0.164 0.244,0 0.484,0.044 0.696,0.164 0.152,0.084 0.292,0.216 0.292,0.388 z" />
    <text
         y="8.0655489"
         x="26.040068"
         style="font-size:2.20009995px;font-family:droid_serifbold, Times, serif;text-anchor:start;fill:currentColor"
         id="text136"
         font-size="2.2001">
        <tspan
             id="tspan138">f</tspan>
    </text>
    <text
         y="15.688848"
         x="26.040068"
         style="font-size:1.74609995px;font-family:droid_serifbold, Times, serif;text-anchor:start;fill:currentColor"
         id="text140"
         font-size="1.7461">
        <tspan
             id="tspan142">semitone</tspan>
    </text>
    <path
         style="fill:currentColor"
         id="path144"
         d="m 32.698068,10.167549 c -0.2,0 -0.276,0.172 -0.276,0.352 0,0.308 0.228,0.544 0.536,0.544 0.2,0 0.276,-0.172 0.276,-0.352 0,-0.308 -0.228,-0.544 -0.536,-0.544 z m 1.12,0.448 c 0,0.172 -0.14,0.304 -0.292,0.388 -0.212,0.12 -0.452,0.164 -0.696,0.164 -0.244,0 -0.488,-0.044 -0.7,-0.164 -0.152,-0.084 -0.292,-0.216 -0.292,-0.388 0,-0.172 0.14,-0.304 0.292,-0.388 0.212,-0.12 0.456,-0.164 0.7,-0.164 0.244,0 0.484,0.044 0.696,0.164 0.152,0.084 0.292,0.216 0.292,0.388 z" />
    <path
         style="fill:currentColor"
         id="path146"
         d="m 30.796068,10.451549 -0.004,0.264 0,0.044 c 0,0.088 0.004,0.176 0.016,0.264 0.18,-0.152 0.372,-0.32 0.372,-0.556 0,-0.132 -0.056,-0.268 -0.172,-0.268 -0.124,0 -0.208,0.12 -0.212,0.252 z m -0.168,0.716 -0.048,-2.38 c 0.032,-0.02 0.072,-0.032 0.108,-0.032 0.036,0 0.076,0.012 0.108,0.032 l -0.028,1.38 c 0.1,-0.084 0.232,-0.136 0.364,-0.136 0.208,0 0.356,0.192 0.356,0.408 0,0.32 -0.344,0.468 -0.588,0.676 -0.06,0.052 -0.096,0.152 -0.18,0.152 -0.052,0 -0.092,-0.044 -0.092,-0.1 z" />
    <path
         style="fill:currentColor"
         id="path148"
         d="m 9.505968,12.167549 c -0.2,0 -0.276,0.172 -0.276,0.352 0,0.308 0.228,0.544 0.536,0.544 0.2,0 0.276,-0.172 0.276,-0.352 0,-0.308 -0.228,-0.544 -0.536,-0.544 z m 1.12,0.448 c 0,0.172 -0.14,0.304 -0.292,0.388 -0.212,0.12 -0.452,0.164 -0.696,0.164 -0.244,0 -0.488,-0.044 -0.7,-0.164 -0.152,-0.084 -0.292,-0.216 -0.292,-0.388 0,-0.172 0.14,-0.304 0.292,-0.388 0.212,-0.12 0.456,-0.164 0.7,-0.164 0.244,0 0.484,0.044 0.696,0.164 0.152,0.084 0.292,0.216 0.292,0.388 z" />
    <text
         y="8.0655489"
         x="8.6459684"
         style="font-size:2.20009995px;font-family:droid_serifbold, Times, serif;text-anchor:start;fill:currentColor"
         id="text150"
         font-size="2.2001">
        <tspan
             id="tspan152">f</tspan>
    </text>
    <text
         y="5.0655489"
         x="8.6459684"
         style="font-size:2.20009995px;font-family:droid_serifbold, Times, serif;text-anchor:start;fill:currentColor"
         id="text154"
         font-size="2.2001">
        <tspan
             id="tspan156">G</tspan>
    </text>
    <path
         style="fill:currentColor"
         id="path158"
         d="m 11.181068,4.901549 -0.004,0.264 0,0.044 c 0,0.088 0.004,0.176 0.016,0.264 0.18,-0.152 0.372,-0.32 0.372,-0.556 0,-0.132 -0.056,-0.268 -0.172,-0.268 -0.124,0 -0.208,0.12 -0.212,0.252 z m -0.168,0.716 -0.048,-2.38 c 0.032,-0.02 0.072,-0.032 0.108,-0.032 0.036,0 0.076,0.012 0.108,0.032 l -0.028,1.38 c 0.1,-0.084 0.232,-0.136 0.364,-0.136 0.208,0 0.356,0.192 0.356,0.408 0,0.32 -0.344,0.468 -0.588,0.676 -0.06,0.052 -0.096,0.152 -0.18,0.152 -0.052,0 -0.092,-0.044 -0.092,-0.1 z" />
    <text
         y="5.0655489"
         x="12.473068"
         style="font-size:2.20009995px;font-family:droid_serifbold, Times, serif;text-anchor:start;fill:currentColor"
         id="text160"
         font-size="2.2001">
        <tspan
             id="tspan162">-</tspan>
    </text>
    <text
         y="5.0655489"
         x="13.790068"
         style="font-style:italic;font-size:2.20009995px;font-family:droid_serifbold, Times, serif;text-anchor:start;fill:currentColor"
         id="text164"
         font-size="2.2001"
         font-style="italic">
        <tspan
             id="tspan166">nīd qablim</tspan>
    </text>
    <text
         y="5.0655489"
         x="25.472069"
         style="font-size:2.20009995px;font-family:droid_serifbold, Times, serif;text-anchor:start;fill:currentColor"
         id="text180"
         font-size="2.2001">
        <tspan
             id="tspan182">(5</tspan>
    </text>
    <path
         style="fill:currentColor"
         id="path184"
         d="m 28.246268,4.901549 -0.004,0.264 0,0.044 c 0,0.088 0.004,0.176 0.016,0.264 0.18,-0.152 0.372,-0.32 0.372,-0.556 0,-0.132 -0.056,-0.268 -0.172,-0.268 -0.124,0 -0.208,0.12 -0.212,0.252 z m -0.168,0.716 -0.048,-2.38 c 0.032,-0.02 0.072,-0.032 0.108,-0.032 0.036,0 0.076,0.012 0.108,0.032 l -0.028,1.38 c 0.1,-0.084 0.232,-0.136 0.364,-0.136 0.208,0 0.356,0.192 0.356,0.408 0,0.32 -0.344,0.468 -0.588,0.676 -0.06,0.052 -0.096,0.152 -0.18,0.152 -0.052,0 -0.092,-0.044 -0.092,-0.1 z" />
    <text
         y="5.0655489"
         x="29.538267"
         style="font-size:2.20009995px;font-family:droid_serifbold, Times, serif;text-anchor:start;fill:currentColor"
         id="text186"
         font-size="2.2001">
        <tspan
             id="tspan188">)</tspan>
    </text>
    <path
         style="fill:currentColor"
         id="path190"
         d="m 5.873968,10.115549 c 0,-0.112 0.092,-0.204 0.204,-0.204 0.112,0 0.204,0.092 0.204,0.204 0,0.112 -0.092,0.204 -0.204,0.204 -0.112,0 -0.204,-0.092 -0.204,-0.204 z m 0,-1 c 0,-0.112 0.092,-0.204 0.204,-0.204 0.112,0 0.204,0.092 0.204,0.204 0,0.112 -0.092,0.204 -0.204,0.204 -0.112,0 -0.204,-0.092 -0.204,-0.204 z m -1.3,-0.552 c 0.688,0 1.172,0.352 1.172,1.004 0,1.052 -1.052,1.656 -2.064,2.084 -0.012,0.012 -0.024,0.016 -0.036,0.016 -0.028,0 -0.052,-0.024 -0.052,-0.052 0,-0.012 0.004,-0.024 0.016,-0.036 0.808,-0.472 1.648,-1.06 1.648,-1.972 0,-0.48 -0.252,-0.94 -0.684,-0.94 -0.296,0 -0.516,0.216 -0.616,0.504 0.044,-0.02 0.088,-0.032 0.136,-0.032 0.22,0 0.4,0.18 0.4,0.4 0,0.232 -0.176,0.424 -0.4,0.424 -0.24,0 -0.448,-0.188 -0.448,-0.424 0,-0.532 0.408,-0.976 0.928,-0.976 z" />
    <path
         style="fill:currentColor"
         id="path192"
         d="m 7.603968,12.451549 -0.004,0.264 0,0.044 c 0,0.088 0.004,0.176 0.016,0.264 0.18,-0.152 0.372,-0.32 0.372,-0.556 0,-0.132 -0.056,-0.268 -0.172,-0.268 -0.124,0 -0.208,0.12 -0.212,0.252 z m -0.168,0.716 -0.048,-2.38 c 0.032,-0.02 0.072,-0.032 0.108,-0.032 0.036,0 0.076,0.012 0.108,0.032 l -0.028,1.38 c 0.1,-0.084 0.232,-0.136 0.364,-0.136 0.208,0 0.356,0.192 0.356,0.408 0,0.32 -0.344,0.468 -0.588,0.676 -0.06,0.052 -0.096,0.152 -0.18,0.152 -0.052,0 -0.092,-0.044 -0.092,-0.1 z" />
    <path
         style="fill:currentColor"
         id="path194"
         d="m 15.303968,11.667549 c -0.2,0 -0.276,0.172 -0.276,0.352 0,0.308 0.228,0.544 0.536,0.544 0.2,0 0.276,-0.172 0.276,-0.352 0,-0.308 -0.228,-0.544 -0.536,-0.544 z m 1.12,0.448 c 0,0.172 -0.14,0.304 -0.292,0.388 -0.212,0.12 -0.452,0.164 -0.696,0.164 -0.244,0 -0.488,-0.044 -0.7,-0.164 -0.152,-0.084 -0.292,-0.216 -0.292,-0.388 0,-0.172 0.14,-0.304 0.292,-0.388 0.212,-0.12 0.456,-0.164 0.7,-0.164 0.244,0 0.484,0.044 0.696,0.164 0.152,0.084 0.292,0.216 0.292,0.388 z" />
    <path
         style="fill:currentColor"
         id="path196"
         d="m 13.401968,11.951549 -0.004,0.264 0,0.044 c 0,0.088 0.004,0.176 0.016,0.264 0.18,-0.152 0.372,-0.32 0.372,-0.556 0,-0.132 -0.056,-0.268 -0.172,-0.268 -0.124,0 -0.208,0.12 -0.212,0.252 z m -0.168,0.716 -0.048,-2.38 c 0.032,-0.02 0.072,-0.032 0.108,-0.032 0.036,0 0.076,0.012 0.108,0.032 l -0.028,1.38 c 0.1,-0.084 0.232,-0.136 0.364,-0.136 0.208,0 0.356,0.192 0.356,0.408 0,0.32 -0.344,0.468 -0.588,0.676 -0.06,0.052 -0.096,0.152 -0.18,0.152 -0.052,0 -0.092,-0.044 -0.092,-0.1 z" />
    <path
         style="fill:currentColor"
         id="path198"
         d="m 44.294168,9.167549 c -0.2,0 -0.276,0.172 -0.276,0.352 0,0.308 0.228,0.544 0.536,0.544 0.2,0 0.276,-0.172 0.276,-0.352 0,-0.308 -0.228,-0.544 -0.536,-0.544 z m 1.12,0.448 c 0,0.172 -0.14,0.304 -0.292,0.388 -0.212,0.12 -0.452,0.164 -0.696,0.164 -0.244,0 -0.488,-0.044 -0.7,-0.164 -0.152,-0.084 -0.292,-0.216 -0.292,-0.388 0,-0.172 0.14,-0.304 0.292,-0.388 0.212,-0.12 0.456,-0.164 0.7,-0.164 0.244,0 0.484,0.044 0.696,0.164 0.152,0.084 0.292,0.216 0.292,0.388 z" />
    <text
         y="8.0655489"
         x="43.43417"
         style="font-size:2.20009995px;font-family:droid_serifbold, Times, serif;text-anchor:start;fill:currentColor"
         id="text200"
         font-size="2.2001">
        <tspan
             id="tspan202">f</tspan>
    </text>
    <text
         y="5.0655489"
         x="43.43417"
         style="font-size:2.20009995px;font-family:droid_serifbold, Times, serif;text-anchor:start;fill:currentColor"
         id="text204"
         font-size="2.2001">
        <tspan
             id="tspan206">F</tspan>
    </text>
    <text
         y="5.0655489"
         x="45.502369"
         style="font-size:2.20009995px;font-family:droid_serifbold, Times, serif;text-anchor:start;fill:currentColor"
         id="text208"
         font-size="2.2001">
        <tspan
             id="tspan210">-</tspan>
    </text>
    <text
         y="5.0655489"
         x="46.819366"
         style="font-style:italic;font-size:2.20009995px;font-family:droid_serifbold, Times, serif;text-anchor:start;fill:currentColor"
         id="text212"
         font-size="2.2001"
         font-style="italic">
        <tspan
             id="tspan214">nīd qablim</tspan>
    </text>
    <text
         y="5.0655489"
         x="58.501369"
         style="font-size:2.20009995px;font-family:droid_serifbold, Times, serif;text-anchor:start;fill:currentColor"
         id="text228"
         font-size="2.2001">
        <tspan
             id="tspan230">(0</tspan>
    </text>
    <path
         style="fill:currentColor"
         id="path232"
         d="m 61.275568,4.901549 -0.004,0.264 0,0.044 c 0,0.088 0.004,0.176 0.016,0.264 0.18,-0.152 0.372,-0.32 0.372,-0.556 0,-0.132 -0.056,-0.268 -0.172,-0.268 -0.124,0 -0.208,0.12 -0.212,0.252 z m -0.168,0.716 -0.048,-2.38 c 0.032,-0.02 0.072,-0.032 0.108,-0.032 0.036,0 0.076,0.012 0.108,0.032 l -0.028,1.38 c 0.1,-0.084 0.232,-0.136 0.364,-0.136 0.208,0 0.356,0.192 0.356,0.408 0,0.32 -0.344,0.468 -0.588,0.676 -0.06,0.052 -0.096,0.152 -0.18,0.152 -0.052,0 -0.092,-0.044 -0.092,-0.1 z" />
    <text
         y="5.0655489"
         x="62.56757"
         style="font-size:2.20009995px;font-family:droid_serifbold, Times, serif;text-anchor:start;fill:currentColor"
         id="text234"
         font-size="2.2001">
        <tspan
             id="tspan236">)</tspan>
    </text>
    <path
         style="fill:currentColor"
         id="path238"
         d="m 50.092268,8.667549 c -0.2,0 -0.276,0.172 -0.276,0.352 0,0.308 0.228,0.544 0.536,0.544 0.2,0 0.276,-0.172 0.276,-0.352 0,-0.308 -0.228,-0.544 -0.536,-0.544 z m 1.12,0.448 c 0,0.172 -0.14,0.304 -0.292,0.388 -0.212,0.12 -0.452,0.164 -0.696,0.164 -0.244,0 -0.488,-0.044 -0.7,-0.164 -0.152,-0.084 -0.292,-0.216 -0.292,-0.388 0,-0.172 0.14,-0.304 0.292,-0.388 0.212,-0.12 0.456,-0.164 0.7,-0.164 0.244,0 0.484,0.044 0.696,0.164 0.152,0.084 0.292,0.216 0.292,0.388 z" />
    <path
         style="fill:currentColor"
         id="path240"
         d="m 55.890268,8.167549 c -0.2,0 -0.276,0.172 -0.276,0.352 0,0.308 0.228,0.544 0.536,0.544 0.2,0 0.276,-0.172 0.276,-0.352 0,-0.308 -0.228,-0.544 -0.536,-0.544 z m 1.12,0.448 c 0,0.172 -0.14,0.304 -0.292,0.388 -0.212,0.12 -0.452,0.164 -0.696,0.164 -0.244,0 -0.488,-0.044 -0.7,-0.164 -0.152,-0.084 -0.292,-0.216 -0.292,-0.388 0,-0.172 0.14,-0.304 0.292,-0.388 0.212,-0.12 0.456,-0.164 0.7,-0.164 0.244,0 0.484,0.044 0.696,0.164 0.152,0.084 0.292,0.216 0.292,0.388 z" />
    <path
         style="fill:currentColor"
         id="path242"
         d="m 38.496168,9.667549 c -0.2,0 -0.276,0.172 -0.276,0.352 0,0.308 0.228,0.544 0.536,0.544 0.2,0 0.276,-0.172 0.276,-0.352 0,-0.308 -0.228,-0.544 -0.536,-0.544 z m 1.12,0.448 c 0,0.172 -0.14,0.304 -0.292,0.388 -0.212,0.12 -0.452,0.164 -0.696,0.164 -0.244,0 -0.488,-0.044 -0.7,-0.164 -0.152,-0.084 -0.292,-0.216 -0.292,-0.388 0,-0.172 0.14,-0.304 0.292,-0.388 0.212,-0.12 0.456,-0.164 0.7,-0.164 0.244,0 0.484,0.044 0.696,0.164 0.152,0.084 0.292,0.216 0.292,0.388 z" />
    <path
         style="fill:currentColor"
         id="path244"
         d="m 36.594168,9.951549 -0.004,0.264 0,0.044 c 0,0.088 0.004,0.176 0.016,0.264 0.18,-0.152 0.372,-0.32 0.372,-0.556 0,-0.132 -0.056,-0.268 -0.172,-0.268 -0.124,0 -0.208,0.12 -0.212,0.252 z m -0.168,0.716 -0.048,-2.38 c 0.032,-0.02 0.072,-0.032 0.108,-0.032 0.036,0 0.076,0.012 0.108,0.032 l -0.028,1.38 c 0.1,-0.084 0.232,-0.136 0.364,-0.136 0.208,0 0.356,0.192 0.356,0.408 0,0.32 -0.344,0.468 -0.588,0.676 -0.06,0.052 -0.096,0.152 -0.18,0.152 -0.052,0 -0.092,-0.044 -0.092,-0.1 z" />
</svg>
