<?xml version="1.0" encoding="UTF-8" standalone="no"?>
<svg
     xmlns:dc="http://purl.org/dc/elements/1.1/"
     xmlns:cc="http://creativecommons.org/ns#"
     xmlns:rdf="http://www.w3.org/1999/02/22-rdf-syntax-ns#"
     xmlns:svg="http://www.w3.org/2000/svg"
     xmlns="http://www.w3.org/2000/svg"
     xmlns:xlink="http://www.w3.org/1999/xlink"
     id="svg2"
     viewBox="0 0 124.31785 19.060316"
     height="33.494678mm"
     width="218.46368mm"
     version="1.2">
    <title
         id="title4386">Babylonian Tonal System - nīš tuḫrim</title>
    <metadata
         id="metadata258">
        <rdf:RDF>
            <cc:Work
                 rdf:about="">
                <dc:format>image/svg+xml</dc:format>
                <dc:type
                     rdf:resource="http://purl.org/dc/dcmitype/StillImage" />
                <dc:title>Babylonian Tonal System - nīš tuḫrim</dc:title>
                <cc:license
                     rdf:resource="http://creativecommons.org/licenses/by-sa/3.0/" />
                <dc:date>2016-01-20</dc:date>
                <dc:creator>
                    <cc:Agent>
                        <dc:title>Jürgen Lange</dc:title>
                    </cc:Agent>
                </dc:creator>
            </cc:Work>
            <cc:License
                 rdf:about="http://creativecommons.org/licenses/by-sa/3.0/">
                <cc:permits
                     rdf:resource="http://creativecommons.org/ns#Reproduction" />
                <cc:permits
                     rdf:resource="http://creativecommons.org/ns#Distribution" />
                <cc:requires
                     rdf:resource="http://creativecommons.org/ns#Notice" />
                <cc:requires
                     rdf:resource="http://creativecommons.org/ns#Attribution" />
                <cc:permits
                     rdf:resource="http://creativecommons.org/ns#DerivativeWorks" />
                <cc:requires
                     rdf:resource="http://creativecommons.org/ns#ShareAlike" />
            </cc:License>
        </rdf:RDF>
    </metadata>
    <defs
         id="defs256" />
    <!-- Page: 1/1 -->
    <text
         y="1.966749"
         x="-14.225732"
         style="font-size:2.20009995px;font-family:droid_serifbold, Times, serif;text-anchor:start;fill:currentColor"
         id="text4"
         font-size="2.2001">
        <tspan
             id="tspan6" />
    </text>
    <rect
         rx="0.1"
         style="fill:currentColor"
         id="rect8"
         ry="0.1"
         height="0.2"
         width="2.97"
         y="13.515549"
         x="45.32217" />
    <rect
         rx="0.1"
         style="fill:currentColor"
         id="rect10"
         ry="0.1"
         height="0.2"
         width="2.6500001"
         y="7.5155492"
         x="115.21877" />
    <line
         style="stroke:currentColor;stroke-width:0.1;stroke-linecap:round;stroke-linejoin:round"
         id="line12"
         y2="12.615549"
         x2="121.42187"
         y1="12.615549"
         x1="2.895968" />
    <line
         style="stroke:currentColor;stroke-width:0.1;stroke-linecap:round;stroke-linejoin:round"
         id="line14"
         y2="11.615549"
         x2="121.42187"
         y1="11.615549"
         x1="2.895968" />
    <line
         style="stroke:currentColor;stroke-width:0.1;stroke-linecap:round;stroke-linejoin:round"
         id="line16"
         y2="10.615549"
         x2="121.42187"
         y1="10.615549"
         x1="2.895968" />
    <line
         style="stroke:currentColor;stroke-width:0.1;stroke-linecap:round;stroke-linejoin:round"
         id="line18"
         y2="9.6155491"
         x2="121.42187"
         y1="9.6155491"
         x1="2.895968" />
    <line
         style="stroke:currentColor;stroke-width:0.1;stroke-linecap:round;stroke-linejoin:round"
         id="line20"
         y2="8.6155491"
         x2="121.42187"
         y1="8.6155491"
         x1="2.895968" />
    <text
         y="4.4667487"
         x="80.605469"
         style="font-size:2.20009995px;font-family:droid_serifbold, Times, serif;text-anchor:start;fill:currentColor"
         id="text22"
         font-size="2.2001">
        <tspan
             id="tspan24">B</tspan>
    </text>
    <text
         y="4.4667487"
         x="82.810165"
         style="font-size:2.20009995px;font-family:droid_serifbold, Times, serif;text-anchor:start;fill:currentColor"
         id="text26"
         font-size="2.2001">
        <tspan
             id="tspan28">-</tspan>
    </text>
    <text
         y="4.4667487"
         x="84.127266"
         style="font-style:italic;font-size:2.20009995px;font-family:droid_serifbold, Times, serif;text-anchor:start;fill:currentColor"
         id="text30"
         font-size="2.2001"
         font-style="italic">
        <tspan
             id="tspan32">nīš tuḫrim</tspan>
    </text>
    <text
         y="4.4667487"
         x="96.082367"
         style="font-size:2.20009995px;font-family:droid_serifbold, Times, serif;text-anchor:start;fill:currentColor"
         id="text46"
         font-size="2.2001">
        <tspan
             id="tspan48">(5</tspan>
    </text>
    <path
         style="fill:currentColor"
         id="path50"
         d="m 99.492568,5.714749 c 0,0.04 -0.032,0.076 -0.072,0.076 -0.04,0 -0.076,-0.036 -0.076,-0.076 l 0,-0.58 -0.332,0.124 0,0.632 c 0,0.04 -0.036,0.076 -0.076,0.076 -0.04,0 -0.072,-0.036 -0.072,-0.076 l 0,-0.58 -0.128,0.048 c -0.008,0.004 -0.02,0.004 -0.028,0.004 -0.044,0 -0.08,-0.036 -0.08,-0.08 l 0,-0.24 c 0,-0.032 0.02,-0.064 0.052,-0.076 l 0.184,-0.064 0,-0.64 -0.128,0.044 c -0.008,0.004 -0.02,0.004 -0.028,0.004 -0.044,0 -0.08,-0.036 -0.08,-0.08 l 0,-0.24 c 0,-0.032 0.02,-0.06 0.052,-0.072 l 0.184,-0.068 0,-0.632 c 0,-0.04 0.032,-0.076 0.072,-0.076 0.04,0 0.076,0.036 0.076,0.076 l 0,0.58 0.332,-0.124 0,-0.632 c 0,-0.04 0.036,-0.076 0.076,-0.076 0.04,0 0.072,0.036 0.072,0.076 l 0,0.58 0.128,-0.048 c 0.008,-0.004 0.02,-0.004 0.028,-0.004 0.044,0 0.08,0.036 0.08,0.08 l 0,0.24 c 0,0.032 -0.02,0.064 -0.052,0.076 l -0.184,0.064 0,0.64 0.128,-0.044 c 0.008,-0.004 0.02,-0.004 0.028,-0.004 0.044,0 0.08,0.036 0.08,0.08 l 0,0.24 c 0,0.032 -0.02,0.06 -0.052,0.072 l -0.184,0.068 0,0.632 z m -0.48,-1.508 0,0.64 0.332,-0.12 0,-0.64 z" />
    <text
         y="4.4667487"
         x="100.32857"
         style="font-style:italic;font-size:2.20009995px;font-family:droid_serifbold, Times, serif;text-anchor:start;fill:currentColor"
         id="text52"
         font-size="2.2001">
        <tspan
             id="tspan54">)</tspan>
    </text>
    <text
         y="8.0655489"
         x="80.605469"
         style="font-size:2.20009995px;font-family:droid_serifbold, Times, serif;text-anchor:start;fill:currentColor"
         id="text56"
         font-size="2.2001">
        <tspan
             id="tspan58">f</tspan>
    </text>
    <path
         style="fill:currentColor"
         id="path60"
         d="m 81.465468,10.167549 c -0.2,0 -0.276,0.172 -0.276,0.352 0,0.308 0.228,0.544 0.536,0.544 0.2,0 0.276,-0.172 0.276,-0.352 0,-0.308 -0.228,-0.544 -0.536,-0.544 z m 1.12,0.448 c 0,0.172 -0.14,0.304 -0.292,0.388 -0.212,0.12 -0.452,0.164 -0.696,0.164 -0.244,0 -0.488,-0.044 -0.7,-0.164 -0.152,-0.084 -0.292,-0.216 -0.292,-0.388 0,-0.172 0.14,-0.304 0.292,-0.388 0.212,-0.12 0.456,-0.164 0.7,-0.164 0.244,0 0.484,0.044 0.696,0.164 0.152,0.084 0.292,0.216 0.292,0.388 z" />
    <path
         style="fill:currentColor"
         id="path62"
         d="m 87.263568,9.667549 c -0.2,0 -0.276,0.172 -0.276,0.352 0,0.308 0.228,0.544 0.536,0.544 0.2,0 0.276,-0.172 0.276,-0.352 0,-0.308 -0.228,-0.544 -0.536,-0.544 z m 1.12,0.448 c 0,0.172 -0.14,0.304 -0.292,0.388 -0.212,0.12 -0.452,0.164 -0.696,0.164 -0.244,0 -0.488,-0.044 -0.7,-0.164 -0.152,-0.084 -0.292,-0.216 -0.292,-0.388 0,-0.172 0.14,-0.304 0.292,-0.388 0.212,-0.12 0.456,-0.164 0.7,-0.164 0.244,0 0.484,0.044 0.696,0.164 0.152,0.084 0.292,0.216 0.292,0.388 z" />
    <path
         style="fill:currentColor"
         id="path64"
         d="m 85.817568,11.363549 c 0,0.04 -0.032,0.076 -0.072,0.076 -0.04,0 -0.076,-0.036 -0.076,-0.076 l 0,-0.58 -0.332,0.124 0,0.632 c 0,0.04 -0.036,0.076 -0.076,0.076 -0.04,0 -0.072,-0.036 -0.072,-0.076 l 0,-0.58 -0.128,0.048 c -0.008,0.004 -0.02,0.004 -0.028,0.004 -0.044,0 -0.08,-0.036 -0.08,-0.08 l 0,-0.24 c 0,-0.032 0.02,-0.064 0.052,-0.076 l 0.184,-0.064 0,-0.64 -0.128,0.044 c -0.008,0.004 -0.02,0.004 -0.028,0.004 -0.044,0 -0.08,-0.036 -0.08,-0.08 l 0,-0.24 c 0,-0.032 0.02,-0.06 0.052,-0.072 l 0.184,-0.068 0,-0.632 c 0,-0.04 0.032,-0.076 0.072,-0.076 0.04,0 0.076,0.036 0.076,0.076 l 0,0.58 0.332,-0.124 0,-0.632 c 0,-0.04 0.036,-0.076 0.076,-0.076 0.04,0 0.072,0.036 0.072,0.076 l 0,0.58 0.128,-0.048 c 0.008,-0.004 0.02,-0.004 0.028,-0.004 0.044,0 0.08,0.036 0.08,0.08 l 0,0.24 c 0,0.032 -0.02,0.064 -0.052,0.076 l -0.184,0.064 0,0.64 0.128,-0.044 c 0.008,-0.004 0.02,-0.004 0.028,-0.004 0.044,0 0.08,0.036 0.08,0.08 l 0,0.24 c 0,0.032 -0.02,0.06 -0.052,0.072 l -0.184,0.068 0,0.632 z m -0.48,-1.508 0,0.64 0.332,-0.12 0,-0.64 z" />
    <path
         style="fill:currentColor"
         id="path66"
         d="m 93.061568,9.167549 c -0.2,0 -0.276,0.172 -0.276,0.352 0,0.308 0.228,0.544 0.536,0.544 0.2,0 0.276,-0.172 0.276,-0.352 0,-0.308 -0.228,-0.544 -0.536,-0.544 z m 1.12,0.448 c 0,0.172 -0.14,0.304 -0.292,0.388 -0.212,0.12 -0.452,0.164 -0.696,0.164 -0.244,0 -0.488,-0.044 -0.7,-0.164 -0.152,-0.084 -0.292,-0.216 -0.292,-0.388 0,-0.172 0.14,-0.304 0.292,-0.388 0.212,-0.12 0.456,-0.164 0.7,-0.164 0.244,0 0.484,0.044 0.696,0.164 0.152,0.084 0.292,0.216 0.292,0.388 z" />
    <text
         y="15.688848"
         x="92.201569"
         style="font-size:1.74609995px;font-family:droid_serifbold, Times, serif;text-anchor:start;fill:currentColor"
         id="text68"
         font-size="1.7461">
        <tspan
             id="tspan70">semitone</tspan>
    </text>
    <path
         style="fill:currentColor"
         id="path72"
         d="m 64.071368,11.667549 c -0.2,0 -0.276,0.172 -0.276,0.352 0,0.308 0.228,0.544 0.536,0.544 0.2,0 0.276,-0.172 0.276,-0.352 0,-0.308 -0.228,-0.544 -0.536,-0.544 z m 1.12,0.448 c 0,0.172 -0.14,0.304 -0.292,0.388 -0.212,0.12 -0.452,0.164 -0.696,0.164 -0.244,0 -0.488,-0.044 -0.7,-0.164 -0.152,-0.084 -0.292,-0.216 -0.292,-0.388 0,-0.172 0.14,-0.304 0.292,-0.388 0.212,-0.12 0.456,-0.164 0.7,-0.164 0.244,0 0.484,0.044 0.696,0.164 0.152,0.084 0.292,0.216 0.292,0.388 z" />
    <text
         y="8.0655489"
         x="63.211369"
         style="font-size:2.20009995px;font-family:droid_serifbold, Times, serif;text-anchor:start;fill:currentColor"
         id="text74"
         font-size="2.2001">
        <tspan
             id="tspan76">f</tspan>
    </text>
    <path
         style="fill:currentColor"
         id="path78"
         d="m 69.869368,11.167549 c -0.2,0 -0.276,0.172 -0.276,0.352 0,0.308 0.228,0.544 0.536,0.544 0.2,0 0.276,-0.172 0.276,-0.352 0,-0.308 -0.228,-0.544 -0.536,-0.544 z m 1.12,0.448 c 0,0.172 -0.14,0.304 -0.292,0.388 -0.212,0.12 -0.452,0.164 -0.696,0.164 -0.244,0 -0.488,-0.044 -0.7,-0.164 -0.152,-0.084 -0.292,-0.216 -0.292,-0.388 0,-0.172 0.14,-0.304 0.292,-0.388 0.212,-0.12 0.456,-0.164 0.7,-0.164 0.244,0 0.484,0.044 0.696,0.164 0.152,0.084 0.292,0.216 0.292,0.388 z" />
    <path
         style="fill:currentColor"
         id="path80"
         d="m 75.667468,10.667549 c -0.2,0 -0.276,0.172 -0.276,0.352 0,0.308 0.228,0.544 0.536,0.544 0.2,0 0.276,-0.172 0.276,-0.352 0,-0.308 -0.228,-0.544 -0.536,-0.544 z m 1.12,0.448 c 0,0.172 -0.14,0.304 -0.292,0.388 -0.212,0.12 -0.452,0.164 -0.696,0.164 -0.244,0 -0.488,-0.044 -0.7,-0.164 -0.152,-0.084 -0.292,-0.216 -0.292,-0.388 0,-0.172 0.14,-0.304 0.292,-0.388 0.212,-0.12 0.456,-0.164 0.7,-0.164 0.244,0 0.484,0.044 0.696,0.164 0.152,0.084 0.292,0.216 0.292,0.388 z" />
    <path
         style="fill:currentColor"
         id="path82"
         d="m 110.45567,7.667549 c -0.2,0 -0.276,0.172 -0.276,0.352 0,0.308 0.228,0.544 0.536,0.544 0.2,0 0.276,-0.172 0.276,-0.352 0,-0.308 -0.228,-0.544 -0.536,-0.544 z m 1.12,0.448 c 0,0.172 -0.14,0.304 -0.292,0.388 -0.212,0.12 -0.452,0.164 -0.696,0.164 -0.244,0 -0.488,-0.044 -0.7,-0.164 -0.152,-0.084 -0.292,-0.216 -0.292,-0.388 0,-0.172 0.14,-0.304 0.292,-0.388 0.212,-0.12 0.456,-0.164 0.7,-0.164 0.244,0 0.484,0.044 0.696,0.164 0.152,0.084 0.292,0.216 0.292,0.388 z" />
    <path
         style="fill:currentColor"
         id="path84"
         d="m 109.00967,9.363549 c 0,0.04 -0.032,0.076 -0.072,0.076 -0.04,0 -0.076,-0.036 -0.076,-0.076 l 0,-0.58 -0.332,0.124 0,0.632 c 0,0.04 -0.036,0.076 -0.076,0.076 -0.04,0 -0.072,-0.036 -0.072,-0.076 l 0,-0.58 -0.128,0.048 c -0.008,0.004 -0.02,0.004 -0.028,0.004 -0.044,0 -0.08,-0.036 -0.08,-0.08 l 0,-0.24 c 0,-0.032 0.02,-0.064 0.052,-0.076 l 0.184,-0.064 0,-0.64 -0.128,0.044 c -0.008,0.004 -0.02,0.004 -0.028,0.004 -0.044,0 -0.08,-0.036 -0.08,-0.08 l 0,-0.24 c 0,-0.032 0.02,-0.06 0.052,-0.072 l 0.184,-0.068 0,-0.632 c 0,-0.04 0.032,-0.076 0.072,-0.076 0.04,0 0.076,0.036 0.076,0.076 l 0,0.58 0.332,-0.124 0,-0.632 c 0,-0.04 0.036,-0.076 0.076,-0.076 0.04,0 0.072,0.036 0.072,0.076 l 0,0.58 0.128,-0.048 c 0.008,-0.004 0.02,-0.004 0.028,-0.004 0.044,0 0.08,0.036 0.08,0.08 l 0,0.24 c 0,0.032 -0.02,0.064 -0.052,0.076 l -0.184,0.064 0,0.64 0.128,-0.044 c 0.008,-0.004 0.02,-0.004 0.028,-0.004 0.044,0 0.08,0.036 0.08,0.08 l 0,0.24 c 0,0.032 -0.02,0.06 -0.052,0.072 l -0.184,0.068 0,0.632 z m -0.48,-1.508 0,0.64 0.332,-0.12 0,-0.64 z" />
    <path
         style="fill:currentColor"
         id="path86"
         d="m 116.25377,7.167549 c -0.2,0 -0.276,0.172 -0.276,0.352 0,0.308 0.228,0.544 0.536,0.544 0.2,0 0.276,-0.172 0.276,-0.352 0,-0.308 -0.228,-0.544 -0.536,-0.544 z m 1.12,0.448 c 0,0.172 -0.14,0.304 -0.292,0.388 -0.212,0.12 -0.452,0.164 -0.696,0.164 -0.244,0 -0.488,-0.044 -0.7,-0.164 -0.152,-0.084 -0.292,-0.216 -0.292,-0.388 0,-0.172 0.14,-0.304 0.292,-0.388 0.212,-0.12 0.456,-0.164 0.7,-0.164 0.244,0 0.484,0.044 0.696,0.164 0.152,0.084 0.292,0.216 0.292,0.388 z" />
    <text
         y="6.4095488"
         x="115.39377"
         style="font-size:2.20009995px;font-family:droid_serifbold, Times, serif;text-anchor:start;fill:currentColor"
         id="text88"
         font-size="2.2001">
        <tspan
             id="tspan90">f</tspan>
    </text>
    <path
         style="fill:currentColor"
         id="path92"
         d="m 114.80777,8.863549 c 0,0.04 -0.032,0.076 -0.072,0.076 -0.04,0 -0.076,-0.036 -0.076,-0.076 l 0,-0.58 -0.332,0.124 0,0.632 c 0,0.04 -0.036,0.076 -0.076,0.076 -0.04,0 -0.072,-0.036 -0.072,-0.076 l 0,-0.58 -0.128,0.048 c -0.008,0.004 -0.02,0.004 -0.028,0.004 -0.044,0 -0.08,-0.036 -0.08,-0.08 l 0,-0.24 c 0,-0.032 0.02,-0.064 0.052,-0.076 l 0.184,-0.064 0,-0.64 -0.128,0.044 c -0.008,0.004 -0.02,0.004 -0.028,0.004 -0.044,0 -0.08,-0.036 -0.08,-0.08 l 0,-0.24 c 0,-0.032 0.02,-0.06 0.052,-0.072 l 0.184,-0.068 0,-0.632 c 0,-0.04 0.032,-0.076 0.072,-0.076 0.04,0 0.076,0.036 0.076,0.076 l 0,0.58 0.332,-0.124 0,-0.632 c 0,-0.04 0.036,-0.076 0.076,-0.076 0.04,0 0.072,0.036 0.072,0.076 l 0,0.58 0.128,-0.048 c 0.008,-0.004 0.02,-0.004 0.028,-0.004 0.044,0 0.08,0.036 0.08,0.08 l 0,0.24 c 0,0.032 -0.02,0.064 -0.052,0.076 l -0.184,0.064 0,0.64 0.128,-0.044 c 0.008,-0.004 0.02,-0.004 0.028,-0.004 0.044,0 0.08,0.036 0.08,0.08 l 0,0.24 c 0,0.032 -0.02,0.06 -0.052,0.072 l -0.184,0.068 0,0.632 z m -0.48,-1.508 0,0.64 0.332,-0.12 0,-0.64 z" />
    <line
         style="stroke:currentColor;stroke-width:0.1;stroke-linecap:round;stroke-linejoin:round"
         id="line94"
         y2="13.915549"
         x2="99.479668"
         y1="13.915549"
         x1="92.701569" />
    <line
         style="stroke:currentColor;stroke-width:0.1;stroke-linecap:round;stroke-linejoin:round"
         id="line96"
         y2="12.915549"
         x2="99.979668"
         y1="13.915549"
         x1="99.479668" />
    <line
         style="stroke:currentColor;stroke-width:0.1;stroke-linecap:round;stroke-linejoin:round"
         id="line98"
         y2="12.915549"
         x2="92.201569"
         y1="13.915549"
         x1="92.701569" />
    <line
         style="stroke:currentColor;stroke-width:0.1;stroke-linecap:round;stroke-linejoin:round"
         id="line100"
         y2="14.415549"
         x2="64.691368"
         y1="14.415549"
         x1="57.913269" />
    <line
         style="stroke:currentColor;stroke-width:0.1;stroke-linecap:round;stroke-linejoin:round"
         id="line102"
         y2="13.415549"
         x2="65.191368"
         y1="14.415549"
         x1="64.691368" />
    <line
         style="stroke:currentColor;stroke-width:0.1;stroke-linecap:round;stroke-linejoin:round"
         id="line104"
         y2="13.415549"
         x2="57.413269"
         y1="14.415549"
         x1="57.913269" />
    <line
         style="stroke:currentColor;stroke-width:0.1;stroke-linecap:round;stroke-linejoin:round"
         id="line106"
         y2="13.915549"
         x2="27.520067"
         y1="13.915549"
         x1="20.741968" />
    <line
         style="stroke:currentColor;stroke-width:0.1;stroke-linecap:round;stroke-linejoin:round"
         id="line108"
         y2="12.915549"
         x2="28.020067"
         y1="13.915549"
         x1="27.520067" />
    <line
         style="stroke:currentColor;stroke-width:0.1;stroke-linecap:round;stroke-linejoin:round"
         id="line110"
         y2="12.915549"
         x2="20.241968"
         y1="13.915549"
         x1="20.741968" />
    <path
         style="fill:currentColor"
         id="path112"
         d="m 91.615568,10.863549 c 0,0.04 -0.032,0.076 -0.072,0.076 -0.04,0 -0.076,-0.036 -0.076,-0.076 l 0,-0.58 -0.332,0.124 0,0.632 c 0,0.04 -0.036,0.076 -0.076,0.076 -0.04,0 -0.072,-0.036 -0.072,-0.076 l 0,-0.58 -0.128,0.048 c -0.008,0.004 -0.02,0.004 -0.028,0.004 -0.044,0 -0.08,-0.036 -0.08,-0.08 l 0,-0.24 c 0,-0.032 0.02,-0.064 0.052,-0.076 l 0.184,-0.064 0,-0.64 -0.128,0.044 c -0.008,0.004 -0.02,0.004 -0.028,0.004 -0.044,0 -0.08,-0.036 -0.08,-0.08 l 0,-0.24 c 0,-0.032 0.02,-0.06 0.052,-0.072 l 0.184,-0.068 0,-0.632 c 0,-0.04 0.032,-0.076 0.072,-0.076 0.04,0 0.076,0.036 0.076,0.076 l 0,0.58 0.332,-0.124 0,-0.632 c 0,-0.04 0.036,-0.076 0.076,-0.076 0.04,0 0.072,0.036 0.072,0.076 l 0,0.58 0.128,-0.048 c 0.008,-0.004 0.02,-0.004 0.028,-0.004 0.044,0 0.08,0.036 0.08,0.08 l 0,0.24 c 0,0.032 -0.02,0.064 -0.052,0.076 l -0.184,0.064 0,0.64 0.128,-0.044 c 0.008,-0.004 0.02,-0.004 0.028,-0.004 0.044,0 0.08,0.036 0.08,0.08 l 0,0.24 c 0,0.032 -0.02,0.06 -0.052,0.072 l -0.184,0.068 0,0.632 z m -0.48,-1.508 0,0.64 0.332,-0.12 0,-0.64 z" />
    <path
         style="fill:currentColor"
         id="path114"
         d="m 98.859568,8.667549 c -0.2,0 -0.276,0.172 -0.276,0.352 0,0.308 0.228,0.544 0.536,0.544 0.2,0 0.276,-0.172 0.276,-0.352 0,-0.308 -0.228,-0.544 -0.536,-0.544 z m 1.12,0.448 c 0,0.172 -0.14,0.304 -0.292,0.388 -0.212,0.12 -0.452,0.164 -0.696,0.164 -0.244,0 -0.488,-0.044 -0.7,-0.164 -0.152,-0.084 -0.292,-0.216 -0.292,-0.388 0,-0.172 0.14,-0.304 0.292,-0.388 0.212,-0.12 0.456,-0.164 0.7,-0.164 0.244,0 0.484,0.044 0.696,0.164 0.152,0.084 0.292,0.216 0.292,0.388 z" />
    <text
         y="8.0655489"
         x="97.999565"
         style="font-size:2.20009995px;font-family:droid_serifbold, Times, serif;text-anchor:start;fill:currentColor"
         id="text116"
         font-size="2.2001">
        <tspan
             id="tspan118">f</tspan>
    </text>
    <path
         style="fill:currentColor"
         id="path120"
         d="m 104.65767,8.167549 c -0.2,0 -0.276,0.172 -0.276,0.352 0,0.308 0.228,0.544 0.536,0.544 0.2,0 0.276,-0.172 0.276,-0.352 0,-0.308 -0.228,-0.544 -0.536,-0.544 z m 1.12,0.448 c 0,0.172 -0.14,0.304 -0.292,0.388 -0.212,0.12 -0.452,0.164 -0.696,0.164 -0.244,0 -0.488,-0.044 -0.7,-0.164 -0.152,-0.084 -0.292,-0.216 -0.292,-0.388 0,-0.172 0.14,-0.304 0.292,-0.388 0.212,-0.12 0.456,-0.164 0.7,-0.164 0.244,0 0.484,0.044 0.696,0.164 0.152,0.084 0.292,0.216 0.292,0.388 z" />
    <path
         style="fill:currentColor"
         id="path122"
         d="m 103.21167,9.863549 c 0,0.04 -0.032,0.076 -0.072,0.076 -0.04,0 -0.076,-0.036 -0.076,-0.076 l 0,-0.58 -0.332,0.124 0,0.632 c 0,0.04 -0.036,0.076 -0.076,0.076 -0.04,0 -0.072,-0.036 -0.072,-0.076 l 0,-0.58 -0.128,0.048 c -0.008,0.004 -0.02,0.004 -0.028,0.004 -0.044,0 -0.08,-0.036 -0.08,-0.08 l 0,-0.24 c 0,-0.032 0.02,-0.064 0.052,-0.076 l 0.184,-0.064 0,-0.64 -0.128,0.044 c -0.008,0.004 -0.02,0.004 -0.028,0.004 -0.044,0 -0.08,-0.036 -0.08,-0.08 l 0,-0.24 c 0,-0.032 0.02,-0.06 0.052,-0.072 l 0.184,-0.068 0,-0.632 c 0,-0.04 0.032,-0.076 0.072,-0.076 0.04,0 0.076,0.036 0.076,0.076 l 0,0.58 0.332,-0.124 0,-0.632 c 0,-0.04 0.036,-0.076 0.076,-0.076 0.04,0 0.072,0.036 0.072,0.076 l 0,0.58 0.128,-0.048 c 0.008,-0.004 0.02,-0.004 0.028,-0.004 0.044,0 0.08,0.036 0.08,0.08 l 0,0.24 c 0,0.032 -0.02,0.064 -0.052,0.076 l -0.184,0.064 0,0.64 0.128,-0.044 c 0.008,-0.004 0.02,-0.004 0.028,-0.004 0.044,0 0.08,0.036 0.08,0.08 l 0,0.24 c 0,0.032 -0.02,0.06 -0.052,0.072 l -0.184,0.068 0,0.632 z m -0.48,-1.508 0,0.64 0.332,-0.12 0,-0.64 z" />
    <path
         style="fill:currentColor"
         id="path124"
         d="m 21.101968,9.167549 c -0.2,0 -0.276,0.172 -0.276,0.352 0,0.308 0.228,0.544 0.536,0.544 0.2,0 0.276,-0.172 0.276,-0.352 0,-0.308 -0.228,-0.544 -0.536,-0.544 z m 1.12,0.448 c 0,0.172 -0.14,0.304 -0.292,0.388 -0.212,0.12 -0.452,0.164 -0.696,0.164 -0.244,0 -0.488,-0.044 -0.7,-0.164 -0.152,-0.084 -0.292,-0.216 -0.292,-0.388 0,-0.172 0.14,-0.304 0.292,-0.388 0.212,-0.12 0.456,-0.164 0.7,-0.164 0.244,0 0.484,0.044 0.696,0.164 0.152,0.084 0.292,0.216 0.292,0.388 z" />
    <text
         y="15.688848"
         x="20.241968"
         style="font-size:1.74609995px;font-family:droid_serifbold, Times, serif;text-anchor:start;fill:currentColor"
         id="text126"
         font-size="1.7461">
        <tspan
             id="tspan128">semitone</tspan>
    </text>
    <path
         style="fill:currentColor"
         id="path130"
         d="m 26.900068,8.667549 c -0.2,0 -0.276,0.172 -0.276,0.352 0,0.308 0.228,0.544 0.536,0.544 0.2,0 0.276,-0.172 0.276,-0.352 0,-0.308 -0.228,-0.544 -0.536,-0.544 z m 1.12,0.448 c 0,0.172 -0.14,0.304 -0.292,0.388 -0.212,0.12 -0.452,0.164 -0.696,0.164 -0.244,0 -0.488,-0.044 -0.7,-0.164 -0.152,-0.084 -0.292,-0.216 -0.292,-0.388 0,-0.172 0.14,-0.304 0.292,-0.388 0.212,-0.12 0.456,-0.164 0.7,-0.164 0.244,0 0.484,0.044 0.696,0.164 0.152,0.084 0.292,0.216 0.292,0.388 z" />
    <text
         y="8.0655489"
         x="26.040068"
         style="font-size:2.20009995px;font-family:droid_serifbold, Times, serif;text-anchor:start;fill:currentColor"
         id="text132"
         font-size="2.2001">
        <tspan
             id="tspan134">f</tspan>
    </text>
    <path
         style="fill:currentColor"
         id="path136"
         d="m 24.998068,8.951549 -0.004,0.264 0,0.044 c 0,0.088 0.004,0.176 0.016,0.264 0.18,-0.152 0.372,-0.32 0.372,-0.556 0,-0.132 -0.056,-0.268 -0.172,-0.268 -0.124,0 -0.208,0.12 -0.212,0.252 z m -0.168,0.716 -0.048,-2.38 c 0.032,-0.02 0.072,-0.032 0.108,-0.032 0.036,0 0.076,0.012 0.108,0.032 l -0.028,1.38 c 0.1,-0.084 0.232,-0.136 0.364,-0.136 0.208,0 0.356,0.192 0.356,0.408 0,0.32 -0.344,0.468 -0.588,0.676 -0.06,0.052 -0.096,0.152 -0.18,0.152 -0.052,0 -0.092,-0.044 -0.092,-0.1 z" />
    <path
         style="fill:currentColor"
         id="path138"
         d="m 32.698068,8.167549 c -0.2,0 -0.276,0.172 -0.276,0.352 0,0.308 0.228,0.544 0.536,0.544 0.2,0 0.276,-0.172 0.276,-0.352 0,-0.308 -0.228,-0.544 -0.536,-0.544 z m 1.12,0.448 c 0,0.172 -0.14,0.304 -0.292,0.388 -0.212,0.12 -0.452,0.164 -0.696,0.164 -0.244,0 -0.488,-0.044 -0.7,-0.164 -0.152,-0.084 -0.292,-0.216 -0.292,-0.388 0,-0.172 0.14,-0.304 0.292,-0.388 0.212,-0.12 0.456,-0.164 0.7,-0.164 0.244,0 0.484,0.044 0.696,0.164 0.152,0.084 0.292,0.216 0.292,0.388 z" />
    <path
         style="fill:currentColor"
         id="path140"
         d="m 30.796068,8.451549 -0.004,0.264 0,0.044 c 0,0.088 0.004,0.176 0.016,0.264 0.18,-0.152 0.372,-0.32 0.372,-0.556 0,-0.132 -0.056,-0.268 -0.172,-0.268 -0.124,0 -0.208,0.12 -0.212,0.252 z m -0.168,0.716 -0.048,-2.38 c 0.032,-0.02 0.072,-0.032 0.108,-0.032 0.036,0 0.076,0.012 0.108,0.032 l -0.028,1.38 c 0.1,-0.084 0.232,-0.136 0.364,-0.136 0.208,0 0.356,0.192 0.356,0.408 0,0.32 -0.344,0.468 -0.588,0.676 -0.06,0.052 -0.096,0.152 -0.18,0.152 -0.052,0 -0.092,-0.044 -0.092,-0.1 z" />
    <path
         style="fill:currentColor"
         id="path142"
         d="m 9.505968,10.167549 c -0.2,0 -0.276,0.172 -0.276,0.352 0,0.308 0.228,0.544 0.536,0.544 0.2,0 0.276,-0.172 0.276,-0.352 0,-0.308 -0.228,-0.544 -0.536,-0.544 z m 1.12,0.448 c 0,0.172 -0.14,0.304 -0.292,0.388 -0.212,0.12 -0.452,0.164 -0.696,0.164 -0.244,0 -0.488,-0.044 -0.7,-0.164 -0.152,-0.084 -0.292,-0.216 -0.292,-0.388 0,-0.172 0.14,-0.304 0.292,-0.388 0.212,-0.12 0.456,-0.164 0.7,-0.164 0.244,0 0.484,0.044 0.696,0.164 0.152,0.084 0.292,0.216 0.292,0.388 z" />
    <text
         y="8.0655489"
         x="8.6459684"
         style="font-size:2.20009995px;font-family:droid_serifbold, Times, serif;text-anchor:start;fill:currentColor"
         id="text144"
         font-size="2.2001">
        <tspan
             id="tspan146">f</tspan>
    </text>
    <text
         y="5.0655489"
         x="8.6459684"
         style="font-size:2.20009995px;font-family:droid_serifbold, Times, serif;text-anchor:start;fill:currentColor"
         id="text148"
         font-size="2.2001">
        <tspan
             id="tspan150">D</tspan>
    </text>
    <path
         style="fill:currentColor"
         id="path152"
         d="m 11.181068,4.901549 -0.004,0.264 0,0.044 c 0,0.088 0.004,0.176 0.016,0.264 0.18,-0.152 0.372,-0.32 0.372,-0.556 0,-0.132 -0.056,-0.268 -0.172,-0.268 -0.124,0 -0.208,0.12 -0.212,0.252 z m -0.168,0.716 -0.048,-2.38 c 0.032,-0.02 0.072,-0.032 0.108,-0.032 0.036,0 0.076,0.012 0.108,0.032 l -0.028,1.38 c 0.1,-0.084 0.232,-0.136 0.364,-0.136 0.208,0 0.356,0.192 0.356,0.408 0,0.32 -0.344,0.468 -0.588,0.676 -0.06,0.052 -0.096,0.152 -0.18,0.152 -0.052,0 -0.092,-0.044 -0.092,-0.1 z" />
    <text
         y="5.0655489"
         x="12.473068"
         style="font-size:2.20009995px;font-family:droid_serifbold, Times, serif;text-anchor:start;fill:currentColor"
         id="text154"
         font-size="2.2001">
        <tspan
             id="tspan156">-</tspan>
    </text>
    <text
         y="5.0655489"
         x="13.790068"
         style="font-style:italic;font-size:2.20009995px;font-family:droid_serifbold, Times, serif;text-anchor:start;fill:currentColor"
         id="text158"
         font-size="2.2001"
         font-style="italic">
        <tspan
             id="tspan160">nīš tuḫrim</tspan>
    </text>
    <text
         y="5.0655489"
         x="25.745268"
         style="font-size:2.20009995px;font-family:droid_serifbold, Times, serif;text-anchor:start;fill:currentColor"
         id="text174"
         font-size="2.2001">
        <tspan
             id="tspan176">(5</tspan>
    </text>
    <path
         style="fill:currentColor"
         id="path178"
         d="m 28.519468,4.901549 -0.004,0.264 0,0.044 c 0,0.088 0.004,0.176 0.016,0.264 0.18,-0.152 0.372,-0.32 0.372,-0.556 0,-0.132 -0.056,-0.268 -0.172,-0.268 -0.124,0 -0.208,0.12 -0.212,0.252 z m -0.168,0.716 -0.048,-2.38 c 0.032,-0.02 0.072,-0.032 0.108,-0.032 0.036,0 0.076,0.012 0.108,0.032 l -0.028,1.38 c 0.1,-0.084 0.232,-0.136 0.364,-0.136 0.208,0 0.356,0.192 0.356,0.408 0,0.32 -0.344,0.468 -0.588,0.676 -0.06,0.052 -0.096,0.152 -0.18,0.152 -0.052,0 -0.092,-0.044 -0.092,-0.1 z" />
    <text
         y="5.0655489"
         x="29.811468"
         style="font-size:2.20009995px;font-family:droid_serifbold, Times, serif;text-anchor:start;fill:currentColor"
         id="text180"
         font-size="2.2001">
        <tspan
             id="tspan182">)</tspan>
    </text>
    <path
         style="fill:currentColor"
         id="path184"
         d="m 5.873968,10.115549 c 0,-0.112 0.092,-0.204 0.204,-0.204 0.112,0 0.204,0.092 0.204,0.204 0,0.112 -0.092,0.204 -0.204,0.204 -0.112,0 -0.204,-0.092 -0.204,-0.204 z m 0,-1 c 0,-0.112 0.092,-0.204 0.204,-0.204 0.112,0 0.204,0.092 0.204,0.204 0,0.112 -0.092,0.204 -0.204,0.204 -0.112,0 -0.204,-0.092 -0.204,-0.204 z m -1.3,-0.552 c 0.688,0 1.172,0.352 1.172,1.004 0,1.052 -1.052,1.656 -2.064,2.084 -0.012,0.012 -0.024,0.016 -0.036,0.016 -0.028,0 -0.052,-0.024 -0.052,-0.052 0,-0.012 0.004,-0.024 0.016,-0.036 0.808,-0.472 1.648,-1.06 1.648,-1.972 0,-0.48 -0.252,-0.94 -0.684,-0.94 -0.296,0 -0.516,0.216 -0.616,0.504 0.044,-0.02 0.088,-0.032 0.136,-0.032 0.22,0 0.4,0.18 0.4,0.4 0,0.232 -0.176,0.424 -0.4,0.424 -0.24,0 -0.448,-0.188 -0.448,-0.424 0,-0.532 0.408,-0.976 0.928,-0.976 z" />
    <path
         style="fill:currentColor"
         id="path186"
         d="m 7.603968,10.451549 -0.004,0.264 0,0.044 c 0,0.088 0.004,0.176 0.016,0.264 0.18,-0.152 0.372,-0.32 0.372,-0.556 0,-0.132 -0.056,-0.268 -0.172,-0.268 -0.124,0 -0.208,0.12 -0.212,0.252 z m -0.168,0.716 -0.048,-2.38 c 0.032,-0.02 0.072,-0.032 0.108,-0.032 0.036,0 0.076,0.012 0.108,0.032 l -0.028,1.38 c 0.1,-0.084 0.232,-0.136 0.364,-0.136 0.208,0 0.356,0.192 0.356,0.408 0,0.32 -0.344,0.468 -0.588,0.676 -0.06,0.052 -0.096,0.152 -0.18,0.152 -0.052,0 -0.092,-0.044 -0.092,-0.1 z" />
    <path
         style="fill:currentColor"
         id="path188"
         d="m 15.303968,9.667549 c -0.2,0 -0.276,0.172 -0.276,0.352 0,0.308 0.228,0.544 0.536,0.544 0.2,0 0.276,-0.172 0.276,-0.352 0,-0.308 -0.228,-0.544 -0.536,-0.544 z m 1.12,0.448 c 0,0.172 -0.14,0.304 -0.292,0.388 -0.212,0.12 -0.452,0.164 -0.696,0.164 -0.244,0 -0.488,-0.044 -0.7,-0.164 -0.152,-0.084 -0.292,-0.216 -0.292,-0.388 0,-0.172 0.14,-0.304 0.292,-0.388 0.212,-0.12 0.456,-0.164 0.7,-0.164 0.244,0 0.484,0.044 0.696,0.164 0.152,0.084 0.292,0.216 0.292,0.388 z" />
    <path
         style="fill:currentColor"
         id="path190"
         d="m 13.401968,9.951549 -0.004,0.264 0,0.044 c 0,0.088 0.004,0.176 0.016,0.264 0.18,-0.152 0.372,-0.32 0.372,-0.556 0,-0.132 -0.056,-0.268 -0.172,-0.268 -0.124,0 -0.208,0.12 -0.212,0.252 z m -0.168,0.716 -0.048,-2.38 c 0.032,-0.02 0.072,-0.032 0.108,-0.032 0.036,0 0.076,0.012 0.108,0.032 l -0.028,1.38 c 0.1,-0.084 0.232,-0.136 0.364,-0.136 0.208,0 0.356,0.192 0.356,0.408 0,0.32 -0.344,0.468 -0.588,0.676 -0.06,0.052 -0.096,0.152 -0.18,0.152 -0.052,0 -0.092,-0.044 -0.092,-0.1 z" />
    <path
         style="fill:currentColor"
         id="path192"
         d="m 46.677168,13.167549 c -0.2,0 -0.276,0.172 -0.276,0.352 0,0.308 0.228,0.544 0.536,0.544 0.2,0 0.276,-0.172 0.276,-0.352 0,-0.308 -0.228,-0.544 -0.536,-0.544 z m 1.12,0.448 c 0,0.172 -0.14,0.304 -0.292,0.388 -0.212,0.12 -0.452,0.164 -0.696,0.164 -0.244,0 -0.488,-0.044 -0.7,-0.164 -0.152,-0.084 -0.292,-0.216 -0.292,-0.388 0,-0.172 0.14,-0.304 0.292,-0.388 0.212,-0.12 0.456,-0.164 0.7,-0.164 0.244,0 0.484,0.044 0.696,0.164 0.152,0.084 0.292,0.216 0.292,0.388 z" />
    <text
         y="8.0655489"
         x="45.817169"
         style="font-size:2.20009995px;font-family:droid_serifbold, Times, serif;text-anchor:start;fill:currentColor"
         id="text194"
         font-size="2.2001">
        <tspan
             id="tspan196">f</tspan>
    </text>
    <text
         y="5.0655489"
         x="45.817169"
         style="font-size:2.20009995px;font-family:droid_serifbold, Times, serif;text-anchor:start;fill:currentColor"
         id="text198"
         font-size="2.2001">
        <tspan
             id="tspan200">C</tspan>
    </text>
    <text
         y="5.0655489"
         x="48.021969"
         style="font-size:2.20009995px;font-family:droid_serifbold, Times, serif;text-anchor:start;fill:currentColor"
         id="text202"
         font-size="2.2001">
        <tspan
             id="tspan204">-</tspan>
    </text>
    <text
         y="5.0655489"
         x="49.338966"
         style="font-style:italic;font-size:2.20009995px;font-family:droid_serifbold, Times, serif;text-anchor:start;fill:currentColor"
         id="text206"
         font-size="2.2001"
         font-style="italic">
        <tspan
             id="tspan208">nīš tuḫrim</tspan>
    </text>
    <text
         y="5.0655489"
         x="61.294067"
         style="font-size:2.20009995px;font-family:droid_serifbold, Times, serif;text-anchor:start;fill:currentColor"
         id="text222"
         font-size="2.2001">
        <tspan
             id="tspan224">(0</tspan>
    </text>
    <path
         style="fill:currentColor"
         id="path226"
         d="m 64.068268,4.901549 -0.004,0.264 0,0.044 c 0,0.088 0.004,0.176 0.016,0.264 0.18,-0.152 0.372,-0.32 0.372,-0.556 0,-0.132 -0.056,-0.268 -0.172,-0.268 -0.124,0 -0.208,0.12 -0.212,0.252 z m -0.168,0.716 -0.048,-2.38 c 0.032,-0.02 0.072,-0.032 0.108,-0.032 0.036,0 0.076,0.012 0.108,0.032 l -0.028,1.38 c 0.1,-0.084 0.232,-0.136 0.364,-0.136 0.208,0 0.356,0.192 0.356,0.408 0,0.32 -0.344,0.468 -0.588,0.676 -0.06,0.052 -0.096,0.152 -0.18,0.152 -0.052,0 -0.092,-0.044 -0.092,-0.1 z" />
    <text
         y="5.0655489"
         x="65.360268"
         style="font-style:italic;font-size:2.20009995px;font-family:droid_serifbold, Times, serif;text-anchor:start;fill:currentColor"
         id="text228"
         font-size="2.2001">
        <tspan
             id="tspan230">)</tspan>
    </text>
    <path
         style="fill:currentColor"
         id="path232"
         d="m 43.837168,11.611549 c 0,0.328 -0.224,0.672 -0.564,0.788 0.008,0.108 0.012,0.216 0.012,0.324 0,0.064 0,0.132 -0.004,0.196 -0.024,0.396 -0.3,0.744 -0.692,0.744 -0.348,0 -0.636,-0.288 -0.636,-0.64 0,-0.184 0.168,-0.332 0.36,-0.332 0.172,0 0.304,0.152 0.304,0.332 0,0.168 -0.136,0.304 -0.304,0.304 -0.016,0 -0.024,0 -0.04,-0.004 0.076,0.104 0.188,0.168 0.324,0.168 0.3,0 0.496,-0.288 0.516,-0.596 0.004,-0.06 0.004,-0.12 0.004,-0.18 0,-0.092 -0.004,-0.184 -0.012,-0.276 -0.088,0.016 -0.176,0.024 -0.268,0.024 -0.604,0 -1.064,-0.556 -1.064,-1.208 0,-0.576 0.404,-1.016 0.764,-1.468 -0.064,-0.212 -0.124,-0.42 -0.148,-0.64 -0.02,-0.168 -0.02,-0.34 -0.02,-0.512 0,-0.372 0.168,-0.724 0.46,-0.956 0.012,-0.008 0.024,-0.012 0.036,-0.012 0.016,0 0.032,0.004 0.044,0.016 0.228,0.276 0.428,0.808 0.428,1.18 0,0.46 -0.252,0.828 -0.54,1.188 0.068,0.236 0.132,0.476 0.188,0.716 l 0.004,0 c 0.008,0 0.016,-0.004 0.024,-0.004 0.504,0 0.824,0.42 0.824,0.848 z m -0.58,0.624 c 0.2,-0.08 0.324,-0.3 0.324,-0.5 0,-0.272 -0.192,-0.544 -0.508,-0.588 0.076,0.356 0.14,0.712 0.184,1.088 z m -1.24,-0.696 c 0,0.416 0.408,0.752 0.832,0.752 0.084,0 0.16,-0.004 0.24,-0.016 -0.044,-0.392 -0.112,-0.764 -0.192,-1.132 -0.236,0.028 -0.372,0.192 -0.372,0.368 0,0.136 0.084,0.28 0.256,0.38 0.02,0.02 0.024,0.04 0.024,0.06 0,0.044 -0.036,0.088 -0.084,0.088 -0.012,0 -0.024,-0.004 -0.036,-0.008 -0.26,-0.14 -0.38,-0.372 -0.38,-0.6 0,-0.284 0.184,-0.564 0.512,-0.644 -0.044,-0.192 -0.096,-0.38 -0.152,-0.572 -0.328,0.404 -0.648,0.808 -0.648,1.324 z m 1.024,-3.364 c -0.304,0.176 -0.492,0.496 -0.492,0.844 0,0.224 0.06,0.416 0.116,0.604 0.236,-0.316 0.428,-0.648 0.428,-1.044 0,-0.172 -0.008,-0.244 -0.052,-0.404 z" />
    <path
         style="fill:currentColor"
         id="path234"
         d="m 52.475268,12.667549 c -0.2,0 -0.276,0.172 -0.276,0.352 0,0.308 0.228,0.544 0.536,0.544 0.2,0 0.276,-0.172 0.276,-0.352 0,-0.308 -0.228,-0.544 -0.536,-0.544 z m 1.12,0.448 c 0,0.172 -0.14,0.304 -0.292,0.388 -0.212,0.12 -0.452,0.164 -0.696,0.164 -0.244,0 -0.488,-0.044 -0.7,-0.164 -0.152,-0.084 -0.292,-0.216 -0.292,-0.388 0,-0.172 0.14,-0.304 0.292,-0.388 0.212,-0.12 0.456,-0.164 0.7,-0.164 0.244,0 0.484,0.044 0.696,0.164 0.152,0.084 0.292,0.216 0.292,0.388 z" />
    <path
         style="fill:currentColor"
         id="path236"
         d="m 58.273268,12.167549 c -0.2,0 -0.276,0.172 -0.276,0.352 0,0.308 0.228,0.544 0.536,0.544 0.2,0 0.276,-0.172 0.276,-0.352 0,-0.308 -0.228,-0.544 -0.536,-0.544 z m 1.12,0.448 c 0,0.172 -0.14,0.304 -0.292,0.388 -0.212,0.12 -0.452,0.164 -0.696,0.164 -0.244,0 -0.488,-0.044 -0.7,-0.164 -0.152,-0.084 -0.292,-0.216 -0.292,-0.388 0,-0.172 0.14,-0.304 0.292,-0.388 0.212,-0.12 0.456,-0.164 0.7,-0.164 0.244,0 0.484,0.044 0.696,0.164 0.152,0.084 0.292,0.216 0.292,0.388 z" />
    <text
         y="16.188848"
         x="57.413269"
         style="font-size:1.74609995px;font-family:droid_serifbold, Times, serif;text-anchor:start;fill:currentColor"
         id="text238"
         font-size="1.7461">
        <tspan
             id="tspan240">semitone</tspan>
    </text>
    <path
         style="fill:currentColor"
         id="path242"
         d="m 38.496168,7.667549 c -0.2,0 -0.276,0.172 -0.276,0.352 0,0.308 0.228,0.544 0.536,0.544 0.2,0 0.276,-0.172 0.276,-0.352 0,-0.308 -0.228,-0.544 -0.536,-0.544 z m 1.12,0.448 c 0,0.172 -0.14,0.304 -0.292,0.388 -0.212,0.12 -0.452,0.164 -0.696,0.164 -0.244,0 -0.488,-0.044 -0.7,-0.164 -0.152,-0.084 -0.292,-0.216 -0.292,-0.388 0,-0.172 0.14,-0.304 0.292,-0.388 0.212,-0.12 0.456,-0.164 0.7,-0.164 0.244,0 0.484,0.044 0.696,0.164 0.152,0.084 0.292,0.216 0.292,0.388 z" />
    <path
         style="fill:currentColor"
         id="path244"
         d="m 36.594168,7.951549 -0.004,0.264 0,0.044 c 0,0.088 0.004,0.176 0.016,0.264 0.18,-0.152 0.372,-0.32 0.372,-0.556 0,-0.132 -0.056,-0.268 -0.172,-0.268 -0.124,0 -0.208,0.12 -0.212,0.252 z m -0.168,0.716 -0.048,-2.38 c 0.032,-0.02 0.072,-0.032 0.108,-0.032 0.036,0 0.076,0.012 0.108,0.032 l -0.028,1.38 c 0.1,-0.084 0.232,-0.136 0.364,-0.136 0.208,0 0.356,0.192 0.356,0.408 0,0.32 -0.344,0.468 -0.588,0.676 -0.06,0.052 -0.096,0.152 -0.18,0.152 -0.052,0 -0.092,-0.044 -0.092,-0.1 z" />
    <a
         id="a246"
         xlink:href="http://lilypond.org/"
         transform="translate(65.606968,327.02235)">
        <rect
             style="fill:none;stroke:none;stroke-width:0"
             id="rect248"
             height="2.0827"
             width="56.5755"
             y="-0.44389999"
             x="0" />
    </a>
</svg>
