<?xml version="1.0" encoding="UTF-8" standalone="no"?>
<!-- Created with Inkscape (http://www.inkscape.org/) -->

<svg
   width="224.008mm"
   height="82.117973mm"
   viewBox="0 0 252.6444 92.615668"
   version="1.1"
   id="svg1"
   inkscape:version="1.4 (86a8ad7, 2024-10-11)"
   sodipodi:docname="norgardinfinityseries.svg"
   xmlns:inkscape="http://www.inkscape.org/namespaces/inkscape"
   xmlns:sodipodi="http://sodipodi.sourceforge.net/DTD/sodipodi-0.dtd"
   xmlns="http://www.w3.org/2000/svg"
   xmlns:svg="http://www.w3.org/2000/svg">
  <sodipodi:namedview
     id="namedview1"
     pagecolor="#ffffff"
     bordercolor="#000000"
     borderopacity="0.25"
     inkscape:showpageshadow="2"
     inkscape:pageopacity="0.0"
     inkscape:pagecheckerboard="0"
     inkscape:deskcolor="#d1d1d1"
     inkscape:document-units="mm"
     showgrid="false"
     inkscape:zoom="1"
     inkscape:cx="395"
     inkscape:cy="236.5"
     inkscape:window-width="1920"
     inkscape:window-height="991"
     inkscape:window-x="-9"
     inkscape:window-y="-9"
     inkscape:window-maximized="1"
     inkscape:current-layer="layer1">
    <inkscape:grid
       id="grid1"
       units="mm"
       originx="4.4979177"
       originy="-43.665916"
       spacingx="0.99999998"
       spacingy="1"
       empcolor="#0099e5"
       empopacity="0.30196078"
       color="#0099e5"
       opacity="0.14901961"
       empspacing="5"
       enabled="true"
       visible="false" />
  </sodipodi:namedview>
  <defs
     id="defs1">
    <rect
       x="284.62335"
       y="168.45056"
       width="59.538559"
       height="50.8256"
       id="rect2" />
    <rect
       x="344.16193"
       y="85.677437"
       width="49.37344"
       height="45.01696"
       id="rect1" />
  </defs>
  <g
     inkscape:label="Ebene 1"
     inkscape:groupmode="layer"
     id="layer1"
     transform="translate(4.4979177,-43.665918)">
    <path
       id="path25"
       style="stroke-width:0.4"
       d="M 126.67925 48.708526 C 126.07062 48.708526 125.62293 48.926661 125.33584 49.363039 C 125.04875 49.797122 124.90513 50.470145 124.90513 51.381948 C 124.90513 52.28686 125.04635 52.957483 125.32884 53.393862 C 125.61364 53.830241 126.06372 54.048375 126.67925 54.048375 C 127.28559 54.048375 127.73208 53.833259 128.01917 53.40377 C 128.30856 52.971985 128.45337 52.295944 128.45337 51.374954 C 128.45337 50.481525 128.31096 49.813919 128.02616 49.372947 C 127.74367 48.929678 127.29478 48.708526 126.67925 48.708526 z M 126.67925 49.276781 C 126.89744 49.276781 127.07532 49.321841 127.21312 49.411414 C 127.35322 49.500984 127.46378 49.633801 127.54416 49.81065 C 127.62686 49.989795 127.6815 50.207929 127.7091 50.465163 C 127.739 50.722396 127.75398 51.02585 127.75398 51.374954 C 127.75398 51.72865 127.739 52.031521 127.7091 52.284162 C 127.6815 52.534506 127.628 52.75264 127.54766 52.938675 C 127.46956 53.120117 127.35901 53.255915 127.21661 53.345488 C 127.07421 53.435058 126.89514 53.479537 126.67925 53.479537 C 126.44958 53.479537 126.2645 53.432657 126.1244 53.338494 C 125.98659 53.244324 125.88021 53.107912 125.80443 52.928767 C 125.72173 52.738138 125.66767 52.521822 125.6424 52.280665 C 125.6171 52.039508 125.60452 51.740238 125.60452 51.381948 C 125.60452 51.055812 125.6184 50.755959 125.6459 50.482648 C 125.6758 50.209336 125.7298 49.987601 125.80793 49.817643 C 125.89063 49.636201 126.00178 49.500986 126.14188 49.411414 C 126.28428 49.321844 126.46336 49.276781 126.67925 49.276781 z M 127.01554 64.728074 C 127.00654 64.877361 126.97084 64.996939 126.90888 65.086512 C 126.84918 65.173782 126.76625 65.245903 126.6606 65.303323 C 126.5756 65.349253 126.45062 65.384713 126.28526 65.40998 C 126.11989 65.43295 125.96486 65.444367 125.82016 65.444367 L 125.82016 65.912958 L 126.8879 65.912958 L 126.8879 69.35163 L 125.82016 69.35163 L 125.82016 69.875008 L 128.59675 69.875008 L 128.59675 69.35163 L 127.54941 69.35163 L 127.54941 64.728074 L 127.01554 64.728074 z M 181.49576 78.65178 C 181.24082 78.65178 180.97642 78.684843 180.70311 78.751443 C 180.4321 78.818053 180.21517 78.891948 180.0521 78.972334 L 180.0521 79.695621 L 180.08648 79.695621 C 180.31846 79.544037 180.55641 79.43166 180.79986 79.358165 C 181.04332 79.284665 181.26927 79.247428 181.47827 79.247428 C 181.79293 79.247428 182.0375 79.323728 182.21205 79.475313 C 182.3889 79.6246 182.47782 79.831932 182.47782 80.098354 C 182.47782 80.390038 182.39612 80.662252 182.23303 80.914892 C 182.06996 81.165236 181.76771 81.504149 181.32674 81.931341 C 181.11774 82.13575 180.89178 82.341264 180.64833 82.54797 C 180.40717 82.754676 180.16619 82.961391 179.92504 83.168097 L 179.92504 83.888469 L 183.39752 83.888469 L 183.39752 83.299232 L 180.63784 83.299232 C 180.86521 83.106307 181.10978 82.897191 181.37161 82.672112 C 181.63344 82.444735 181.88762 82.210381 182.13337 81.969224 C 182.30562 81.801562 182.45105 81.648927 182.57049 81.511123 C 182.69221 81.373319 182.79797 81.233303 182.88754 81.090906 C 182.98394 80.939321 183.05609 80.779484 183.10436 80.611823 C 183.15486 80.441865 183.18071 80.259189 183.18071 80.063967 C 183.18071 79.629884 183.03109 79.286755 182.73251 79.034114 C 182.43394 78.779177 182.02171 78.65178 181.49576 78.65178 z M 65.41669 78.741535 C 65.40749 78.890823 65.37205 79.009818 65.310033 79.09939 C 65.250313 79.18666 65.167398 79.259364 65.061749 79.316784 C 64.976769 79.362714 64.851774 79.398174 64.686409 79.423441 C 64.521045 79.446411 64.366008 79.457828 64.221314 79.457828 L 64.221314 79.92642 L 65.289051 79.92642 L 65.289051 83.364509 L 64.221314 83.364509 L 64.221314 83.888469 L 66.997896 83.888469 L 66.997896 83.364509 L 65.950558 83.364509 L 65.950558 78.741535 L 65.41669 78.741535 z M 60.586813 81.332196 L 60.586813 81.955819 L 62.736274 81.955819 L 62.736274 81.332196 L 60.586813 81.332196 z M 150.49409 96.379007 C 150.23915 96.379007 149.97475 96.41207 149.70145 96.47867 C 149.43043 96.54528 149.21351 96.618593 149.05043 96.698979 L 149.05043 97.422848 L 149.08482 97.422848 C 149.31679 97.271264 149.55474 97.158305 149.7982 97.084809 C 150.04165 97.011309 150.26761 96.974655 150.47661 96.974655 C 150.79126 96.974655 151.03583 97.050375 151.21038 97.201957 C 151.38723 97.351244 151.47557 97.559159 151.47557 97.825581 C 151.47557 98.117265 151.39447 98.389479 151.23137 98.64212 C 151.0683 98.892464 150.76605 99.231376 150.32507 99.658568 C 150.11607 99.862976 149.89012 100.06849 149.64666 100.2752 C 149.4055 100.4819 149.16395 100.68862 148.92279 100.89532 L 148.92279 101.61511 L 152.39585 101.61511 L 152.39585 101.02646 L 149.63617 101.02646 C 149.86355 100.83353 150.10812 100.62442 150.36995 100.39934 C 150.63178 100.17196 150.88537 99.937605 151.13112 99.696451 C 151.30337 99.52879 151.44939 99.376154 151.56882 99.23835 C 151.69055 99.100546 151.79631 98.96053 151.88588 98.818133 C 151.98228 98.666549 152.05442 98.506712 152.10269 98.33905 C 152.15319 98.169092 152.17846 97.986416 152.17846 97.791194 C 152.17846 97.357111 152.02942 97.013981 151.73085 96.761341 C 151.43227 96.506404 151.02004 96.379007 150.49409 96.379007 z M 209.59087 96.379007 C 209.33594 96.379007 209.07212 96.413267 208.79881 96.482167 C 208.5278 96.548777 208.31086 96.62209 208.14779 96.702476 L 208.14779 97.422848 L 208.18218 97.422848 C 208.40037 97.280451 208.63232 97.169892 208.87807 97.091803 C 209.12382 97.013713 209.35578 96.974655 209.57397 96.974655 C 209.71636 96.974655 209.84376 96.986072 209.9563 97.009042 C 210.06884 97.032012 210.1746 97.073472 210.27336 97.133184 C 210.36756 97.192894 210.44087 97.269817 210.49367 97.363983 C 210.54647 97.455853 210.57293 97.56401 210.57293 97.688034 C 210.57293 97.968235 210.46838 98.181569 210.25937 98.328559 C 210.05266 98.473253 209.77503 98.545953 209.42593 98.545953 L 209.18464 98.545953 L 209.18464 99.117705 L 209.4947 99.117705 C 209.66466 99.117705 209.8233 99.131526 209.97029 99.159086 C 210.11728 99.184346 210.24228 99.232426 210.34563 99.303627 C 210.449 99.372527 210.52952 99.468067 210.58692 99.589794 C 210.64662 99.709224 210.67667 99.86066 210.67667 100.0444 C 210.67667 100.23044 210.65021 100.38427 210.59741 100.506 C 210.54691 100.62772 210.46877 100.7389 210.36311 100.83996 C 210.26206 100.93406 210.12986 101.00559 209.96679 101.05385 C 209.80373 101.10205 209.64989 101.12612 209.5052 101.12612 C 209.25944 101.12612 209.00465 101.08342 208.74053 100.99848 C 208.47641 100.91348 208.24627 100.80713 208.05104 100.67851 L 207.99976 100.67851 L 207.99976 101.3983 C 208.1766 101.4787 208.40256 101.55201 208.67817 101.61861 C 208.95377 101.68751 209.2338 101.72235 209.5186 101.72235 C 209.7965 101.72235 210.05188 101.68445 210.28385 101.6087 C 210.51812 101.5306 210.72123 101.41103 210.89349 101.25026 C 211.04737 101.10557 211.16694 100.93552 211.25192 100.74029 C 211.33692 100.54507 211.37898 100.33054 211.37898 100.09627 C 211.37898 99.859706 211.34348 99.666811 211.27232 99.517524 C 211.20112 99.368236 211.11038 99.243857 211.00014 99.145098 C 210.90134 99.057828 210.78061 98.985707 210.63821 98.928287 C 210.49581 98.868577 210.36962 98.829507 210.25937 98.811139 L 210.25937 98.762764 C 210.53268 98.707644 210.76944 98.574245 210.96925 98.362946 C 211.17137 98.14935 211.27232 97.900558 211.27232 97.615763 C 211.27232 97.406761 211.22962 97.224085 211.14468 97.067907 C 211.05968 96.91173 210.9347 96.778332 210.76934 96.668089 C 210.61546 96.567031 210.443 96.493714 210.25238 96.447781 C 210.06175 96.401851 209.84122 96.379007 209.59087 96.379007 z M 93.315974 96.382504 C 92.707341 96.382504 92.25907 96.600639 91.971978 97.037017 C 91.684887 97.4711 91.54127 98.14354 91.54127 99.055343 C 91.54127 99.960256 91.682486 100.63146 91.964984 101.06784 C 92.249779 101.50422 92.70045 101.72235 93.315974 101.72235 C 93.922311 101.72235 94.368798 101.50724 94.65589 101.07775 C 94.945278 100.64596 95.090096 99.969918 95.090096 99.048932 C 95.090096 98.155503 94.947679 97.487898 94.662884 97.046926 C 94.380386 96.603656 93.931499 96.382504 93.315974 96.382504 z M 34.16674 96.46818 C 34.15754 96.617468 34.1221 96.737045 34.060083 96.826617 C 34.000373 96.913897 33.917449 96.986009 33.8118 97.043429 C 33.72682 97.089359 33.601824 97.125399 33.43646 97.150669 C 33.271095 97.173639 33.116059 97.185055 32.971365 97.185055 L 32.971365 97.653647 L 34.039102 97.653647 L 34.039102 101.09174 L 32.971365 101.09174 L 32.971365 101.61511 L 35.747947 101.61511 L 35.747947 101.09174 L 34.700609 101.09174 L 34.700609 96.46818 L 34.16674 96.46818 z M 93.315974 96.950759 C 93.534164 96.950759 93.712038 96.995239 93.849842 97.084809 C 93.989943 97.174379 94.099919 97.30778 94.180305 97.484628 C 94.262985 97.663773 94.318267 97.881907 94.345827 98.139141 C 94.375687 98.396375 94.390705 98.699829 94.390705 99.048932 C 94.390705 99.402629 94.375687 99.7055 94.345827 99.95814 C 94.318267 100.20848 94.264187 100.42662 94.183802 100.61265 C 94.105712 100.7941 93.995737 100.92989 93.853339 101.01947 C 93.710942 101.10907 93.531867 101.15352 93.315974 101.15352 C 93.086301 101.15352 92.901225 101.10662 92.761124 101.01247 C 92.62332 100.91827 92.516362 100.78189 92.44057 100.60275 C 92.35789 100.41212 92.303811 100.1958 92.278544 99.954643 C 92.253274 99.713486 92.240661 99.413633 92.240661 99.055343 C 92.240661 98.729207 92.254481 98.429937 92.282041 98.156626 C 92.311901 97.883315 92.365981 97.66158 92.444067 97.491622 C 92.526747 97.31018 92.637925 97.174382 92.778026 97.084809 C 92.920423 96.995239 93.100081 96.950759 93.315974 96.950759 z M 145.69161 99.05884 L 145.69161 99.682463 L 147.84107 99.682463 L 147.84107 99.05884 L 145.69161 99.05884 z M 46.690499 113.84105 C 46.435562 113.84105 46.171167 113.87465 45.897856 113.94129 C 45.626842 114.00789 45.409908 114.08122 45.24684 114.1616 L 45.24684 114.88489 L 45.281227 114.88489 C 45.513197 114.73331 45.751152 114.62093 45.994606 114.54743 C 46.238059 114.47393 46.464012 114.43728 46.673015 114.43728 C 46.987667 114.43728 47.23224 114.51298 47.406792 114.66458 C 47.58364 114.81387 47.672561 115.02178 47.672561 115.2882 C 47.672561 115.57989 47.590841 115.8521 47.427774 116.10474 C 47.264706 116.35508 46.962452 116.694 46.52148 117.12119 C 46.312477 117.32561 46.086525 117.53112 45.843071 117.73782 L 45.119201 118.35795 L 45.119201 119.07774 L 48.59226 119.07774 L 48.59226 118.4885 L 45.83258 118.4885 C 46.059957 118.29557 46.30453 118.08704 46.566358 117.86196 C 46.828185 117.63458 47.081778 117.40023 47.327528 117.15908 C 47.499783 116.99142 47.6458 116.83878 47.76523 116.70097 C 47.886957 116.56317 47.992715 116.42257 48.082287 116.28017 C 48.178747 116.12859 48.250865 115.96933 48.299098 115.80167 C 48.349628 115.63171 48.374866 115.44904 48.374866 115.25382 C 48.374866 114.81974 48.225831 114.47661 47.927256 114.22397 C 47.628681 113.96903 47.216451 113.84105 46.690499 113.84105 z M 139.5224 113.84105 C 139.26746 113.84105 139.00306 113.87465 138.72975 113.94129 C 138.45873 114.00789 138.2418 114.08122 138.07874 114.1616 L 138.07874 114.88489 L 138.11312 114.88489 C 138.3451 114.73331 138.58247 114.62093 138.82592 114.54743 C 139.06937 114.47393 139.29591 114.43728 139.50491 114.43728 C 139.81957 114.43728 140.06414 114.51298 140.23869 114.66458 C 140.41554 114.81387 140.50388 115.02178 140.50388 115.2882 C 140.50388 115.57989 140.42218 115.8521 140.25909 116.10474 C 140.09602 116.35508 139.79435 116.694 139.35338 117.12119 C 139.14437 117.32561 138.91784 117.53112 138.67439 117.73782 C 138.43323 117.94453 138.19226 118.15124 137.9511 118.35795 L 137.9511 119.07774 L 141.42357 119.07774 L 141.42357 118.4885 L 138.66448 118.4885 C 138.89185 118.29557 139.13643 118.08704 139.39826 117.86196 C 139.66009 117.63458 139.91368 117.40023 140.15943 117.15908 C 140.33168 116.99142 140.47769 116.83878 140.59713 116.70097 C 140.71885 116.56317 140.82461 116.42257 140.91418 116.28017 C 141.01058 116.12859 141.08273 115.96933 141.131 115.80167 C 141.1815 115.63171 141.20676 115.44904 141.20676 115.25382 C 141.20676 114.81974 141.05773 114.47661 140.75915 114.22397 C 140.46058 113.96903 140.04835 113.84105 139.5224 113.84105 z M 197.11024 113.84163 C 196.85531 113.84163 196.59149 113.87593 196.31818 113.94479 C 196.04717 114.01139 195.82965 114.08471 195.66658 114.1651 L 195.66658 114.88547 L 195.70155 114.88547 C 195.91974 114.74308 196.15169 114.63252 196.39744 114.55443 C 196.64319 114.47633 196.87515 114.43728 197.09334 114.43728 C 197.23573 114.43728 197.36313 114.44867 197.47567 114.47167 C 197.58821 114.49457 197.69397 114.53607 197.79273 114.59581 C 197.88693 114.65551 197.96024 114.73244 198.01304 114.82661 C 198.06584 114.91851 198.0923 115.02663 198.0923 115.15066 C 198.0923 115.43086 197.98775 115.6442 197.77874 115.79118 C 197.57204 115.93588 197.29382 116.00858 196.94472 116.00858 L 196.70401 116.00858 L 196.70401 116.58033 L 197.01407 116.58033 C 197.18403 116.58033 197.34209 116.59411 197.48908 116.62171 C 197.63607 116.64701 197.76165 116.69501 197.865 116.76625 C 197.96837 116.83515 198.04831 116.93069 198.10571 117.05242 C 198.16541 117.17185 198.19546 117.32329 198.19546 117.50702 C 198.19546 117.69306 198.169 117.84689 198.1162 117.96862 C 198.0657 118.09035 197.98756 118.20153 197.8819 118.30258 C 197.78085 118.39668 197.64865 118.46821 197.48558 118.51648 C 197.32251 118.56468 197.16868 118.58875 197.02398 118.58875 C 196.77823 118.58875 196.52344 118.54605 196.25932 118.46111 C 195.9952 118.37611 195.76564 118.26917 195.57042 118.14055 L 195.51854 118.14055 L 195.51854 118.86093 C 195.69539 118.94133 195.92193 119.01463 196.19754 119.08123 C 196.47314 119.15013 196.75317 119.18439 197.03797 119.18439 C 197.31587 119.18439 197.57066 119.14659 197.80264 119.07074 C 198.0369 118.99264 198.24002 118.87366 198.41227 118.71289 C 198.56615 118.5682 198.68573 118.39814 198.77071 118.20292 C 198.85571 118.0077 198.89835 117.79258 198.89835 117.55831 C 198.89835 117.32174 198.86285 117.12885 198.79169 116.97957 C 198.72049 116.83028 198.62975 116.70648 198.51951 116.60772 C 198.42071 116.52042 198.29998 116.44831 198.15758 116.39091 C 198.01519 116.33121 197.88899 116.29211 197.77874 116.27376 L 197.77874 116.22539 C 198.05206 116.17029 198.28881 116.03686 198.48862 115.82557 C 198.69074 115.61197 198.79169 115.36318 198.79169 115.07839 C 198.79169 114.86939 198.74899 114.68671 198.66405 114.53053 C 198.57905 114.37435 198.45407 114.24095 198.28871 114.13071 C 198.13483 114.02965 197.96237 113.95634 197.77175 113.9104 C 197.58112 113.8645 197.36059 113.84163 197.11024 113.84163 z M 81.062063 113.84455 C 80.453429 113.84455 80.005741 114.06268 79.71865 114.49906 C 79.431559 114.93315 79.287942 115.60617 79.287942 116.51797 C 79.287942 117.42288 79.429158 118.0935 79.711656 118.52988 C 79.996451 118.96626 80.446539 119.18439 81.062063 119.18439 C 81.668401 119.18439 82.115471 118.96987 82.402563 118.54037 C 82.691951 118.10859 82.836185 117.43196 82.836185 116.51097 C 82.836185 115.61755 82.693769 114.95052 82.408974 114.50955 C 82.126476 114.06628 81.677587 113.84455 81.062063 113.84455 z M 22.388998 113.9308 C 22.379798 114.08009 22.343768 114.19967 22.281758 114.28924 C 22.222048 114.37654 22.139707 114.44865 22.034057 114.50605 C 21.949077 114.55195 21.8235 114.58745 21.658135 114.61271 C 21.49277 114.63571 21.337734 114.64768 21.19304 114.64768 L 21.19304 115.11569 L 22.261359 115.11569 L 22.261359 118.55436 L 21.19304 118.55436 L 21.19304 119.07774 L 23.970205 119.07774 L 23.970205 118.55436 L 22.922867 118.55436 L 22.922867 113.9308 L 22.388998 113.9308 z M 105.29829 113.9308 C 105.28929 114.08009 105.25359 114.19967 105.19163 114.28924 C 105.13193 114.37654 105.04899 114.44865 104.94335 114.50605 C 104.85835 114.55195 104.73337 114.58745 104.56801 114.61271 C 104.40264 114.63571 104.24761 114.64768 104.10291 114.64768 L 104.10291 115.11569 L 105.17123 115.11569 L 105.17123 118.55436 L 104.10291 118.55436 L 104.10291 119.07774 L 106.87949 119.07774 L 106.87949 118.55436 L 105.83216 118.55436 L 105.83216 113.9308 L 105.29829 113.9308 z M 164.60255 113.9308 C 164.59355 114.08009 164.55735 114.19967 164.49531 114.28924 C 164.43561 114.37654 164.35326 114.44865 164.24761 114.50605 C 164.16261 114.55195 164.03764 114.58745 163.87227 114.61271 C 163.70691 114.63571 163.55187 114.64768 163.40718 114.64768 L 163.40718 115.11569 L 164.47491 115.11569 L 164.47491 118.55436 L 163.40718 118.55436 L 163.40718 119.07774 L 166.18376 119.07774 L 166.18376 118.55436 L 165.13642 118.55436 L 165.13642 113.9308 L 164.60255 113.9308 z M 222.02196 113.94829 L 219.53796 116.84202 L 219.53796 117.63408 L 221.99398 117.63408 L 221.99398 119.07774 L 222.65549 119.07774 L 222.65549 117.63408 L 223.41725 117.63408 L 223.41725 117.08331 L 222.65549 117.08331 L 222.65549 113.94829 L 222.02196 113.94829 z M 81.062063 114.41338 C 81.280253 114.41338 81.458128 114.45788 81.595932 114.54743 C 81.736032 114.63703 81.846591 114.7704 81.926977 114.94725 C 82.009657 115.12639 82.064939 115.34453 82.092499 115.60177 C 82.122359 115.859 82.136794 116.16187 82.136794 116.51097 C 82.136794 116.86467 82.122359 117.16812 82.092499 117.42076 C 82.064939 117.6711 82.010859 117.88924 81.930474 118.07528 C 81.852384 118.25672 81.741827 118.39252 81.599429 118.48209 C 81.457031 118.57169 81.277956 118.61614 81.062063 118.61614 C 80.83239 118.61614 80.647896 118.56924 80.507796 118.4751 C 80.369992 118.3809 80.263035 118.24393 80.187242 118.06479 C 80.104562 117.87416 80.050483 117.65843 80.025216 117.41727 C 79.999946 117.17611 79.987333 116.87626 79.987333 116.51797 C 79.987333 116.19183 80.001153 115.89198 80.028713 115.61867 C 80.058573 115.34535 80.112653 115.1242 80.190739 114.95425 C 80.273419 114.7728 80.384597 114.63701 80.524698 114.54743 C 80.667095 114.45783 80.846171 114.41338 81.062063 114.41338 z M 221.99398 114.76774 L 221.99398 117.08331 L 220.00655 117.08331 L 221.99398 114.76774 z M 17.558539 116.52146 L 17.558539 117.14509 L 19.708583 117.14509 L 19.708583 116.52146 L 17.558539 116.52146 z M 159.77209 116.52146 L 159.77209 117.14509 L 161.92214 117.14509 L 161.92214 116.52146 L 159.77209 116.52146 z M 192.26638 116.52146 L 192.26638 117.14509 L 194.41642 117.14509 L 194.41642 116.52146 L 192.26638 116.52146 z M 40.989298 125.48299 C 40.734362 125.48299 40.470549 125.51606 40.197238 125.58266 C 39.926223 125.64926 39.709289 125.72316 39.546222 125.80355 L 39.546222 126.52683 L 39.580609 126.52683 C 39.812579 126.37525 40.04995 126.26288 40.293404 126.18938 C 40.536858 126.11588 40.763394 126.07922 40.972396 126.07922 C 41.287048 126.07922 41.531622 126.15492 41.706174 126.30653 C 41.883022 126.45581 41.97136 126.66373 41.97136 126.93015 C 41.97136 127.22184 41.88964 127.49346 41.726573 127.7461 C 41.563505 127.99644 41.261834 128.33536 40.820862 128.76255 C 40.611859 128.96697 40.385324 129.17248 40.14187 129.37918 L 39.418583 129.99931 L 39.418583 130.71968 L 42.891059 130.71968 L 42.891059 130.13044 L 40.131962 130.13044 C 40.359338 129.93752 40.603912 129.7284 40.865739 129.50332 C 41.127567 129.27594 41.381159 129.04159 41.62691 128.80044 C 41.799164 128.63278 41.945182 128.48014 42.064612 128.34234 C 42.186338 128.20453 42.291513 128.06451 42.381086 127.92212 C 42.477546 127.77053 42.550247 127.6107 42.59848 127.44304 C 42.64901 127.27308 42.674247 127.0904 42.674247 126.89518 C 42.674247 126.4611 42.524629 126.11797 42.226054 125.86533 C 41.927479 125.61039 41.51525 125.48299 40.989298 125.48299 z M 52.957624 125.48299 C 52.702687 125.48299 52.438875 125.51729 52.165564 125.58615 C 51.89455 125.65275 51.677616 125.72666 51.514548 125.80704 L 51.514548 126.52683 L 51.548935 126.52683 C 51.767124 126.38444 51.999078 126.27446 52.244829 126.19637 C 52.490579 126.11827 52.722532 126.07922 52.940722 126.07922 C 53.08312 126.07922 53.210517 126.09071 53.323056 126.11361 C 53.435596 126.13661 53.541354 126.17801 53.640113 126.23775 C 53.734283 126.29745 53.807595 126.37438 53.860421 126.46855 C 53.913251 126.56045 53.939686 126.66799 53.939686 126.79202 C 53.939686 127.07222 53.835128 127.28614 53.626126 127.43313 C 53.41942 127.57783 53.141788 127.64994 52.792685 127.64994 L 52.551395 127.64994 L 52.551395 128.22169 L 52.861458 128.22169 C 53.031417 128.22169 53.18947 128.23547 53.336461 128.26307 C 53.483452 128.28837 53.609031 128.33637 53.712384 128.40761 C 53.815735 128.47651 53.896254 128.57205 53.953674 128.69378 C 54.013384 128.81321 54.042846 128.96465 54.042846 129.14838 C 54.042846 129.33442 54.016402 129.48825 53.963582 129.60998 C 53.913052 129.73171 53.834935 129.84347 53.729286 129.94452 C 53.62823 130.03862 53.496615 130.10957 53.333547 130.15784 C 53.170479 130.20604 53.01606 130.23011 52.871366 130.23011 C 52.625616 130.23011 52.370823 130.18801 52.106699 130.10305 C 51.842575 130.01805 51.613022 129.91112 51.417799 129.7825 L 51.365927 129.7825 L 51.365927 130.50229 C 51.542775 130.58269 51.769311 130.65658 52.044919 130.72318 C 52.320527 130.79208 52.600559 130.82634 52.885354 130.82634 C 53.163259 130.82634 53.418051 130.78844 53.650021 130.71269 C 53.884288 130.63459 54.087985 130.51502 54.26024 130.35425 C 54.414121 130.20956 54.533116 130.0395 54.618095 129.84428 C 54.703075 129.64906 54.745734 129.43452 54.745734 129.20025 C 54.745734 128.96369 54.710274 128.7708 54.639077 128.62151 C 54.567947 128.47237 54.476988 128.34838 54.366897 128.24967 C 54.268137 128.16237 54.14736 128.08967 54.004962 128.03227 C 53.862565 127.97257 53.736369 127.93347 53.626126 127.91512 L 53.626126 127.86733 C 53.899437 127.81223 54.136192 127.67881 54.336007 127.46751 C 54.53812 127.25391 54.639077 127.00454 54.639077 126.71975 C 54.639077 126.51075 54.596417 126.32807 54.511438 126.17189 C 54.426458 126.01571 54.301463 125.8829 54.136098 125.77266 C 53.982217 125.6716 53.80976 125.5977 53.619132 125.55177 C 53.428503 125.50587 53.207968 125.48299 52.957624 125.48299 z M 111.26934 125.48299 C 111.0144 125.48299 110.75058 125.51606 110.47728 125.58266 C 110.20626 125.64926 109.98875 125.72316 109.82568 125.80355 L 109.82568 126.52683 L 109.86065 126.52683 C 110.09261 126.37525 110.32999 126.26288 110.57344 126.18938 C 110.8169 126.11588 111.04344 126.07864 111.25244 126.07864 C 111.56709 126.07864 111.81166 126.15494 111.98621 126.30653 C 112.16306 126.45581 112.2514 126.66315 112.2514 126.92957 C 112.2514 127.22125 112.1697 127.49346 112.00661 127.7461 C 111.84355 127.99644 111.54187 128.33536 111.1009 128.76255 C 110.8919 128.96697 110.66536 129.17248 110.42191 129.37918 C 110.18075 129.58589 109.93978 129.7926 109.69862 129.99931 L 109.69862 130.71968 L 113.1711 130.71968 L 113.1711 130.13044 L 110.41142 130.13044 C 110.6388 129.93752 110.88337 129.7284 111.1452 129.50332 C 111.40702 129.27594 111.6612 129.04159 111.90695 128.80044 C 112.07921 128.63278 112.22464 128.48014 112.34407 128.34234 C 112.46579 128.20453 112.57155 128.06451 112.66113 127.92212 C 112.75753 127.77053 112.83025 127.6107 112.87852 127.44304 C 112.92902 127.27308 112.95429 127.0904 112.95429 126.89518 C 112.95429 126.4611 112.80467 126.11797 112.50609 125.86533 C 112.20752 125.61039 111.79529 125.48299 111.26934 125.48299 z M 133.84159 125.48299 C 133.58666 125.48299 133.32285 125.51606 133.04953 125.58266 C 132.77852 125.64926 132.56158 125.72316 132.39852 125.80355 L 132.39852 126.52683 L 132.4329 126.52683 C 132.66487 126.37525 132.90225 126.26288 133.1457 126.18938 C 133.38915 126.11588 133.61569 126.07864 133.82469 126.07864 C 134.13934 126.07864 134.38392 126.15494 134.55847 126.30653 C 134.73532 126.45581 134.82366 126.66315 134.82366 126.92957 C 134.82366 127.22125 134.74196 127.49346 134.57887 127.7461 C 134.4158 127.99644 134.11413 128.33536 133.67316 128.76255 C 133.46416 128.96697 133.23762 129.17248 132.99417 129.37918 C 132.75301 129.58589 132.51203 129.7926 132.27088 129.99931 L 132.27088 130.71968 L 135.74336 130.71968 L 135.74336 130.13044 L 132.98426 130.13044 C 133.21164 129.93752 133.45621 129.7284 133.71804 129.50332 C 133.97986 129.27594 134.23346 129.04159 134.47921 128.80044 C 134.65147 128.63278 134.79748 128.48014 134.91691 128.34234 C 135.03863 128.20453 135.14381 128.06451 135.23338 127.92212 C 135.32978 127.77053 135.40251 127.6107 135.45078 127.44304 C 135.50128 127.27308 135.52654 127.0904 135.52654 126.89518 C 135.52654 126.4611 135.37692 126.11797 135.07835 125.86533 C 134.77978 125.61039 134.36755 125.48299 133.84159 125.48299 z M 145.80992 125.48299 C 145.55498 125.48299 145.29117 125.51729 145.01786 125.58615 C 144.74685 125.65275 144.52933 125.72666 144.36626 125.80704 L 144.36626 126.52683 L 144.40123 126.52683 C 144.61942 126.38444 144.85138 126.27446 145.09713 126.19637 C 145.34288 126.11827 145.57483 126.07922 145.79302 126.07922 C 145.93542 126.07922 146.06281 126.09071 146.17535 126.11361 C 146.28789 126.13661 146.39365 126.17801 146.49241 126.23775 C 146.58661 126.29745 146.65992 126.37438 146.71272 126.46855 C 146.76552 126.56045 146.79198 126.66799 146.79198 126.79202 C 146.79198 127.07222 146.68743 127.28614 146.47842 127.43313 C 146.27172 127.57783 145.99351 127.64994 145.6444 127.64994 L 145.40369 127.64994 L 145.40369 128.22169 L 145.71375 128.22169 C 145.88371 128.22169 146.04176 128.23547 146.18876 128.26307 C 146.33574 128.28837 146.46133 128.33637 146.56468 128.40761 C 146.66805 128.47651 146.74799 128.57205 146.80539 128.69378 C 146.86509 128.81321 146.89514 128.96465 146.89514 129.14838 C 146.89514 129.33442 146.86868 129.48825 146.81588 129.60998 C 146.76538 129.73171 146.68723 129.84347 146.58158 129.94452 C 146.48052 130.03862 146.34891 130.10957 146.18584 130.15784 C 146.02278 130.20604 145.86836 130.23011 145.72366 130.23011 C 145.47791 130.23011 145.22312 130.18801 144.959 130.10305 C 144.69487 130.01805 144.46532 129.91112 144.2701 129.7825 L 144.21822 129.7825 L 144.21822 130.50229 C 144.39507 130.58269 144.62161 130.65658 144.89722 130.72318 C 145.17283 130.79208 145.45286 130.82634 145.73765 130.82634 C 146.01556 130.82634 146.27035 130.78844 146.50232 130.71269 C 146.73658 130.63459 146.94028 130.51502 147.11254 130.35425 C 147.26642 130.20956 147.38541 130.0395 147.47039 129.84428 C 147.55539 129.64906 147.59803 129.43452 147.59803 129.20025 C 147.59803 128.96369 147.56253 128.7708 147.49137 128.62151 C 147.42027 128.47237 147.32929 128.34838 147.21919 128.24967 C 147.12039 128.16237 146.99965 128.08967 146.85726 128.03227 C 146.71486 127.97257 146.58867 127.93347 146.47842 127.91512 L 146.47842 127.86733 C 146.75174 127.81223 146.98849 127.67881 147.1883 127.46751 C 147.39042 127.25391 147.49137 127.00454 147.49137 126.71975 C 147.49137 126.51075 147.44867 126.32807 147.36373 126.17189 C 147.27873 126.01571 147.15376 125.8829 146.98839 125.77266 C 146.83451 125.6716 146.66206 125.5977 146.47143 125.55177 C 146.2808 125.50587 146.06026 125.48299 145.80992 125.48299 z M 191.51278 125.48299 C 191.25784 125.48299 190.99345 125.51729 190.72014 125.58615 C 190.44912 125.65275 190.23219 125.72666 190.06912 125.80704 L 190.06912 126.52683 L 190.10351 126.52683 C 190.3217 126.38444 190.55366 126.27446 190.7994 126.19637 C 191.04516 126.11827 191.27711 126.07922 191.4953 126.07922 C 191.6377 126.07922 191.76509 126.09071 191.87763 126.11361 C 191.99017 126.13661 192.09593 126.17801 192.19469 126.23775 C 192.28889 126.29745 192.36278 126.37438 192.41558 126.46855 C 192.46838 126.56045 192.49426 126.66799 192.49426 126.79202 C 192.49426 127.07222 192.39028 127.28614 192.18128 127.43313 C 191.97458 127.57783 191.69637 127.64994 191.34726 127.64994 L 191.10597 127.64994 L 191.10597 128.22169 L 191.41603 128.22169 C 191.58599 128.22169 191.74463 128.23547 191.89162 128.26307 C 192.03861 128.28837 192.16361 128.33637 192.26696 128.40761 C 192.37033 128.47651 192.45085 128.57205 192.50825 128.69378 C 192.56795 128.81321 192.598 128.96465 192.598 129.14838 C 192.598 129.33442 192.57154 129.48825 192.51874 129.60998 C 192.46824 129.73171 192.39009 129.84347 192.28444 129.94452 C 192.18339 130.03862 192.0512 130.10957 191.88812 130.15784 C 191.72506 130.20604 191.57122 130.23011 191.42652 130.23011 C 191.18077 130.23011 190.92598 130.18801 190.66186 130.10305 C 190.39773 130.01805 190.16818 129.91112 189.97296 129.7825 L 189.92109 129.7825 L 189.92109 130.50229 C 190.09794 130.58269 190.32389 130.65658 190.59949 130.72318 C 190.8751 130.79208 191.15572 130.82634 191.44051 130.82634 C 191.71842 130.82634 191.97321 130.78844 192.20518 130.71269 C 192.43945 130.63459 192.64256 130.51502 192.81482 130.35425 C 192.9687 130.20956 193.08828 130.0395 193.17325 129.84428 C 193.25825 129.64906 193.30089 129.43452 193.30089 129.20025 C 193.30089 128.96369 193.26489 128.7708 193.19365 128.62151 C 193.12255 128.47249 193.03204 128.34834 192.92205 128.24967 C 192.82325 128.16237 192.70251 128.08967 192.56012 128.03227 C 192.41772 127.97257 192.29152 127.93347 192.18128 127.91512 L 192.18128 127.86733 C 192.45459 127.81223 192.69076 127.67881 192.89058 127.46751 C 193.0927 127.25391 193.19423 127.00454 193.19423 126.71975 C 193.19423 126.51075 193.15153 126.32807 193.0666 126.17189 C 192.9816 126.01571 192.85662 125.8829 192.69126 125.77266 C 192.53738 125.6716 192.36492 125.5977 192.17429 125.55177 C 191.98366 125.50587 191.76312 125.48299 191.51278 125.48299 z M 204.12163 125.48299 C 203.8667 125.48299 203.60289 125.51606 203.32957 125.58266 C 203.05856 125.64926 202.84162 125.72316 202.67856 125.80355 L 202.67856 126.52683 L 202.71294 126.52683 C 202.94491 126.37525 203.18229 126.26288 203.42574 126.18938 C 203.66919 126.11588 203.89573 126.07864 204.10473 126.07864 C 204.41939 126.07864 204.66396 126.15494 204.83851 126.30653 C 205.01536 126.45581 205.1037 126.66315 205.1037 126.92957 C 205.1037 127.22125 205.022 127.49346 204.85891 127.7461 C 204.69584 127.99644 204.39417 128.33536 203.9532 128.76255 C 203.7442 128.96697 203.51766 129.17248 203.27421 129.37918 C 203.03305 129.58589 202.79207 129.7926 202.55092 129.99931 L 202.55092 130.71968 L 206.02339 130.71968 L 206.02339 130.13044 L 203.26371 130.13044 C 203.49109 129.93752 203.73625 129.7284 203.99807 129.50332 C 204.2599 129.27594 204.51349 129.04159 204.75925 128.80044 C 204.9315 128.63278 205.07752 128.48014 205.19695 128.34234 C 205.31867 128.20453 205.42385 128.06451 205.51342 127.92212 C 205.60992 127.77053 205.68262 127.6107 205.73082 127.44304 C 205.78132 127.27308 205.80658 127.0904 205.80658 126.89518 C 205.80658 126.4611 205.65697 126.11797 205.35839 125.86533 C 205.05982 125.61039 204.64759 125.48299 204.12163 125.48299 z M 28.459711 125.48707 C 27.851077 125.48707 27.403389 125.70521 27.116298 126.14159 C 26.829206 126.57568 26.68559 127.24869 26.68559 128.16049 C 26.68559 129.0654 26.826806 129.73603 27.109304 130.17241 C 27.394098 130.60879 27.844186 130.82692 28.459711 130.82692 C 29.066048 130.82692 29.512535 130.61239 29.799627 130.1829 C 30.089015 129.75111 30.233832 129.07448 30.233832 128.1535 C 30.233832 127.26007 30.091416 126.59306 29.806621 126.15208 C 29.524123 125.70881 29.075235 125.48707 28.459711 125.48707 z M 74.885859 125.48707 C 74.277225 125.48707 73.829537 125.70521 73.542446 126.14159 C 73.255354 126.57568 73.111738 127.24869 73.111738 128.16049 C 73.111738 129.0654 73.252954 129.73603 73.535452 130.17241 C 73.820247 130.60879 74.270335 130.82692 74.885859 130.82692 C 75.492196 130.82692 75.938684 130.61182 76.225776 130.18232 C 76.515164 129.75054 76.659981 129.07448 76.659981 128.1535 C 76.659981 127.26007 76.517564 126.59306 76.232769 126.15208 C 75.950271 125.70881 75.501383 125.48707 74.885859 125.48707 z M 169.74308 125.48707 C 169.13444 125.48707 168.68675 125.70521 168.39966 126.14159 C 168.11257 126.57568 167.96895 127.24869 167.96895 128.16049 C 167.96895 129.0654 168.11017 129.73603 168.39267 130.17241 C 168.67746 130.60879 169.12756 130.82692 169.74308 130.82692 C 170.34942 130.82692 170.79648 130.61182 171.08358 130.18232 C 171.37296 129.75054 171.5172 129.07448 171.5172 128.1535 C 171.5172 127.26007 171.37478 126.59306 171.08999 126.15208 C 170.80749 125.70881 170.3586 125.48707 169.74308 125.48707 z M 86.719553 125.57275 C 86.710353 125.72204 86.674913 125.84162 86.612896 125.93119 C 86.553176 126.01849 86.470261 126.09118 86.364612 126.14858 C 86.279632 126.19448 86.154637 126.22999 85.989272 126.25524 C 85.823907 126.27824 85.668871 126.28962 85.524177 126.28962 L 85.524177 126.75821 L 86.592497 126.75821 L 86.592497 130.1963 L 85.524177 130.1963 L 85.524177 130.72026 L 88.300759 130.72026 L 88.300759 130.1963 L 87.254004 130.1963 L 87.254004 125.57275 L 86.719553 125.57275 z M 99.370368 125.57275 C 99.361168 125.72204 99.325138 125.84162 99.263128 125.93119 C 99.203408 126.01849 99.121076 126.09118 99.015427 126.14858 C 98.930447 126.19448 98.804869 126.22999 98.639504 126.25524 C 98.47414 126.27824 98.319103 126.28962 98.174409 126.28962 L 98.174409 126.75821 L 99.242729 126.75821 L 99.242729 130.1963 L 98.174409 130.1963 L 98.174409 130.72026 L 100.95157 130.72026 L 100.95157 130.1963 L 99.904236 130.1963 L 99.904236 125.57275 L 99.370368 125.57275 z M 157.72346 125.57275 C 157.71446 125.72204 157.67826 125.84162 157.61622 125.93119 C 157.55652 126.01849 157.47417 126.09118 157.36852 126.14858 C 157.28352 126.19448 157.15796 126.22999 156.9926 126.25524 C 156.82723 126.27824 156.6722 126.28962 156.5275 126.28962 L 156.5275 126.75821 L 157.59582 126.75821 L 157.59582 130.1963 L 156.5275 130.1963 L 156.5275 130.72026 L 159.30467 130.72026 L 159.30467 130.1963 L 158.25733 130.1963 L 158.25733 125.57275 L 157.72346 125.57275 z M 16.439513 125.57333 C 16.430313 125.72261 16.394873 125.84162 16.332856 125.93119 C 16.273146 126.01849 16.190805 126.09118 16.085155 126.14858 C 16.000175 126.19448 15.874597 126.22999 15.709233 126.25524 C 15.543868 126.27824 15.388832 126.28962 15.244138 126.28962 L 15.244138 126.75821 L 16.312457 126.75821 L 16.312457 130.1963 L 15.244138 130.1963 L 15.244138 130.72026 L 18.021302 130.72026 L 18.021302 130.1963 L 16.973965 130.1963 L 16.973965 125.57333 L 16.439513 125.57333 z M 217.39549 125.59023 L 214.91207 128.48396 L 214.91207 129.2766 L 217.3681 129.2766 L 217.3681 130.72026 L 218.0296 130.72026 L 218.0296 129.2766 L 218.79077 129.2766 L 218.79077 128.72525 L 218.0296 128.72525 L 218.0296 125.59023 L 217.39549 125.59023 z M 227.43816 125.59023 L 227.43816 128.23276 C 227.57367 128.20516 227.73471 128.1776 227.92074 128.15 C 228.10907 128.1225 228.30378 128.10862 228.5059 128.10862 C 228.7172 128.10862 228.90828 128.12719 229.07823 128.16399 C 229.25049 128.19839 229.39592 128.2591 229.51535 128.34642 C 229.62328 128.41992 229.7074 128.51726 229.76713 128.63899 C 229.82913 128.76072 229.8598 128.91035 229.8598 129.08719 C 229.8598 129.26863 229.83392 129.42789 229.78112 129.56569 C 229.73062 129.7035 229.65429 129.82187 229.55323 129.92063 C 229.4338 130.03547 229.29739 130.11599 229.14351 130.16192 C 228.99193 130.20782 228.83449 130.23069 228.67142 130.23069 C 228.42797 130.23069 228.17979 130.18919 227.92715 130.10655 C 227.67451 130.02155 227.45398 129.91941 227.26564 129.79998 L 227.21785 129.79998 L 227.21785 130.52735 C 227.397 130.61005 227.61633 130.67977 227.87586 130.73717 C 228.13539 130.79687 228.40521 130.82692 228.68541 130.82692 C 228.98628 130.82692 229.25009 130.78422 229.47747 130.69928 C 229.70714 130.61198 229.90484 130.4882 230.0702 130.32744 C 230.22179 130.17815 230.34137 129.99429 230.42864 129.77609 C 230.51594 129.55791 230.55919 129.32954 230.55919 129.09068 L 230.55919 129.0901 C 230.55919 128.78922 230.50869 128.53923 230.40766 128.33942 C 230.3066 128.1396 230.16419 127.97617 229.98045 127.84985 C 229.80589 127.73042 229.6142 127.64809 229.4052 127.60215 C 229.1962 127.55395 228.95282 127.52988 228.67492 127.52988 C 228.59912 127.52988 228.50959 127.53187 228.40623 127.53687 C 228.30288 127.54187 228.20192 127.54807 228.10316 127.55727 L 228.10316 126.19287 L 230.5248 126.19287 L 230.5248 125.59023 L 227.43816 125.59023 z M 28.459711 126.05533 C 28.6779 126.05533 28.855775 126.10042 28.993579 126.18996 C 29.13368 126.27956 29.244239 126.41235 29.324624 126.5892 C 29.407304 126.76834 29.462004 126.98647 29.489564 127.24371 C 29.519424 127.50095 29.534442 127.8044 29.534442 128.1535 C 29.534442 128.50719 29.519424 128.81006 29.489564 129.06271 C 29.462004 129.31305 29.408504 129.53177 29.328121 129.7178 C 29.250031 129.89925 29.139474 130.03446 28.997076 130.12403 C 28.854679 130.21363 28.675604 130.25867 28.459711 130.25867 C 28.230038 130.25867 28.044962 130.21116 27.904861 130.11704 C 27.767057 130.02284 27.660682 129.88646 27.58489 129.70731 C 27.50221 129.51668 27.448131 129.30095 27.422864 129.05979 C 27.397594 128.81864 27.38498 128.51878 27.38498 128.16049 C 27.38498 127.83436 27.398801 127.5345 27.426361 127.26119 C 27.456221 126.98788 27.509711 126.76614 27.587804 126.59619 C 27.670484 126.41474 27.782245 126.27953 27.922346 126.18996 C 28.064743 126.10036 28.243818 126.05533 28.459711 126.05533 z M 74.885859 126.05533 C 75.104049 126.05533 75.281924 126.10042 75.419728 126.18996 C 75.559828 126.27956 75.670387 126.41235 75.750773 126.5892 C 75.833453 126.76834 75.888152 126.98647 75.915712 127.24371 C 75.945572 127.50095 75.96059 127.8044 75.96059 128.1535 C 75.96059 128.50719 75.945572 128.81006 75.915712 129.06271 C 75.888152 129.31305 75.834652 129.53177 75.75427 129.7178 C 75.67618 129.89925 75.565622 130.03446 75.423225 130.12403 C 75.280827 130.21363 75.101752 130.25867 74.885859 130.25867 C 74.656186 130.25867 74.47111 130.21116 74.331009 130.11704 C 74.193205 130.02284 74.08683 129.88646 74.011038 129.70731 C 73.928358 129.51668 73.874279 129.30095 73.849012 129.05979 C 73.823742 128.81864 73.811129 128.51878 73.811129 128.16049 C 73.811129 127.83436 73.824949 127.5345 73.852509 127.26119 C 73.882369 126.98788 73.935859 126.76614 74.013952 126.59619 C 74.096632 126.41474 74.208393 126.27953 74.348494 126.18996 C 74.490891 126.10036 74.669966 126.05533 74.885859 126.05533 z M 169.74308 126.05533 C 169.96127 126.05533 170.13914 126.10042 170.27694 126.18996 C 170.41705 126.27956 170.52761 126.41235 170.60799 126.5892 C 170.69069 126.76834 170.74598 126.98647 170.77351 127.24371 C 170.80341 127.50095 170.81781 127.8044 170.81781 128.1535 C 170.81781 128.50719 170.80341 128.81006 170.77351 129.06271 C 170.74591 129.31305 170.69191 129.53177 170.61149 129.7178 C 170.53339 129.89925 170.42284 130.03446 170.28044 130.12403 C 170.13804 130.21363 169.95897 130.25867 169.74308 130.25867 C 169.5134 130.25867 169.32891 130.21116 169.18881 130.11704 C 169.05101 130.02284 168.94405 129.88646 168.86825 129.70731 C 168.78555 129.51668 168.7315 129.30095 168.70623 129.05979 C 168.68093 128.81864 168.66835 128.51878 168.66835 128.16049 C 168.66835 127.83436 168.68213 127.5345 168.70973 127.26119 C 168.73953 126.98788 168.79363 126.76614 168.87175 126.59619 C 168.95445 126.41474 169.06561 126.27953 169.20571 126.18996 C 169.34811 126.10036 169.52719 126.05533 169.74308 126.05533 z M 217.3681 126.41027 L 217.3681 128.72525 L 215.38008 128.72525 L 217.3681 126.41027 z M 36.186814 128.16399 L 36.186814 128.78761 L 38.336858 128.78761 L 38.336858 128.16399 L 36.186814 128.16399 z M 94.539908 128.16399 L 94.539908 128.78761 L 96.689952 128.78761 L 96.689952 128.16399 L 94.539908 128.16399 z M 129.03911 128.16399 L 129.03911 128.78761 L 131.18915 128.78761 L 131.18915 128.16399 L 129.03911 128.16399 z M 199.31915 128.16399 L 199.31915 128.78761 L 201.46919 128.78761 L 201.46919 128.16399 L 199.31915 128.16399 z M 211.96997 128.16399 L 211.96997 128.78761 L 214.11943 128.78761 L 214.11943 128.16399 L 211.96997 128.16399 z " />
  </g>
</svg>
