<?xml version="1.0" encoding="UTF-8" standalone="no"?>
<svg
     xmlns:dc="http://purl.org/dc/elements/1.1/"
     xmlns:cc="http://creativecommons.org/ns#"
     xmlns:rdf="http://www.w3.org/1999/02/22-rdf-syntax-ns#"
     xmlns:svg="http://www.w3.org/2000/svg"
     xmlns="http://www.w3.org/2000/svg"
     id="svg2"
     viewBox="0 0 204.86124 29.198578"
     height="51.310638mm"
     width="360.00253mm"
     version="1.2">
    <title
         id="title4836">Babylonian Tonal System - qablītum</title>
    <metadata
         id="metadata708">
        <rdf:RDF>
            <cc:Work
                 rdf:about="">
                <dc:format>image/svg+xml</dc:format>
                <dc:type
                     rdf:resource="http://purl.org/dc/dcmitype/StillImage" />
                <dc:title>Babylonian Tonal System - qablītum</dc:title>
                <dc:date>2016-01-01</dc:date>
                <dc:creator>
                    <cc:Agent>
                        <dc:title>Jürgen Lange</dc:title>
                    </cc:Agent>
                </dc:creator>
                <cc:license
                     rdf:resource="http://creativecommons.org/licenses/by-sa/3.0/" />
            </cc:Work>
            <cc:License
                 rdf:about="http://creativecommons.org/licenses/by-sa/3.0/">
                <cc:permits
                     rdf:resource="http://creativecommons.org/ns#Reproduction" />
                <cc:permits
                     rdf:resource="http://creativecommons.org/ns#Distribution" />
                <cc:requires
                     rdf:resource="http://creativecommons.org/ns#Notice" />
                <cc:requires
                     rdf:resource="http://creativecommons.org/ns#Attribution" />
                <cc:permits
                     rdf:resource="http://creativecommons.org/ns#DerivativeWorks" />
                <cc:requires
                     rdf:resource="http://creativecommons.org/ns#ShareAlike" />
            </cc:License>
        </rdf:RDF>
    </metadata>
    <defs
         id="defs706" />
    <!-- Page: 1/1 -->
    <text
         y="1.8452765"
         x="-14.225722"
         style="font-size:2.20009995px;font-family:droid_serifbold, Times, serif;text-anchor:start;fill:currentColor"
         id="text4"
         font-size="2.2001">
        <tspan
             id="tspan6" />
    </text>
    <rect
         rx="0.1"
         style="fill:currentColor"
         id="rect8"
         ry="0.1"
         height="0.2"
         width="2.97"
         y="19.155277"
         x="8.1509771" />
    <rect
         rx="0.1"
         style="fill:currentColor"
         id="rect10"
         ry="0.1"
         height="0.2"
         width="2.97"
         y="20.155277"
         x="8.1509771" />
    <rect
         rx="0.1"
         style="fill:currentColor"
         id="rect12"
         ry="0.1"
         height="0.2"
         width="2.97"
         y="21.155277"
         x="8.1509771" />
    <rect
         rx="0.1"
         style="fill:currentColor"
         id="rect14"
         ry="0.1"
         height="0.2"
         width="2.97"
         y="22.155277"
         x="8.1509771" />
    <rect
         rx="0.1"
         style="fill:currentColor"
         id="rect16"
         ry="0.1"
         height="0.2"
         width="2.6500001"
         y="23.155277"
         x="8.4709768" />
    <rect
         rx="0.1"
         style="fill:currentColor"
         id="rect18"
         ry="0.1"
         height="0.2"
         width="2.97"
         y="19.155277"
         x="12.553077" />
    <rect
         rx="0.1"
         style="fill:currentColor"
         id="rect20"
         ry="0.1"
         height="0.2"
         width="2.97"
         y="20.155277"
         x="12.553077" />
    <rect
         rx="0.1"
         style="fill:currentColor"
         id="rect22"
         ry="0.1"
         height="0.2"
         width="2.97"
         y="21.155277"
         x="12.553077" />
    <rect
         rx="0.1"
         style="fill:currentColor"
         id="rect24"
         ry="0.1"
         height="0.2"
         width="2.97"
         y="22.155277"
         x="12.553077" />
    <rect
         rx="0.1"
         style="fill:currentColor"
         id="rect26"
         ry="0.1"
         height="0.2"
         width="2.6500001"
         y="23.155277"
         x="12.873078" />
    <rect
         rx="0.1"
         style="fill:currentColor"
         id="rect28"
         ry="0.1"
         height="0.2"
         width="2.97"
         y="19.155277"
         x="16.955276" />
    <rect
         rx="0.1"
         style="fill:currentColor"
         id="rect30"
         ry="0.1"
         height="0.2"
         width="2.97"
         y="20.155277"
         x="16.955276" />
    <rect
         rx="0.1"
         style="fill:currentColor"
         id="rect32"
         ry="0.1"
         height="0.2"
         width="2.97"
         y="21.155277"
         x="16.955276" />
    <rect
         rx="0.1"
         style="fill:currentColor"
         id="rect34"
         ry="0.1"
         height="0.2"
         width="2.6500001"
         y="22.155277"
         x="17.275276" />
    <rect
         rx="0.1"
         style="fill:currentColor"
         id="rect36"
         ry="0.1"
         height="0.2"
         width="2.97"
         y="19.155277"
         x="21.357376" />
    <rect
         rx="0.1"
         style="fill:currentColor"
         id="rect38"
         ry="0.1"
         height="0.2"
         width="2.97"
         y="20.155277"
         x="21.357376" />
    <rect
         rx="0.1"
         style="fill:currentColor"
         id="rect40"
         ry="0.1"
         height="0.2"
         width="2.97"
         y="21.155277"
         x="21.357376" />
    <rect
         rx="0.1"
         style="fill:currentColor"
         id="rect42"
         ry="0.1"
         height="0.2"
         width="2.6500001"
         y="22.155277"
         x="21.677376" />
    <rect
         rx="0.1"
         style="fill:currentColor"
         id="rect44"
         ry="0.1"
         height="0.2"
         width="2.97"
         y="19.155277"
         x="25.759575" />
    <rect
         rx="0.1"
         style="fill:currentColor"
         id="rect46"
         ry="0.1"
         height="0.2"
         width="2.97"
         y="20.155277"
         x="25.759575" />
    <rect
         rx="0.1"
         style="fill:currentColor"
         id="rect48"
         ry="0.1"
         height="0.2"
         width="2.6500001"
         y="21.155277"
         x="26.079578" />
    <rect
         rx="0.1"
         style="fill:currentColor"
         id="rect50"
         ry="0.1"
         height="0.2"
         width="2.97"
         y="19.155277"
         x="30.16168" />
    <rect
         rx="0.1"
         style="fill:currentColor"
         id="rect52"
         ry="0.1"
         height="0.2"
         width="2.97"
         y="20.155277"
         x="30.16168" />
    <rect
         rx="0.1"
         style="fill:currentColor"
         id="rect54"
         ry="0.1"
         height="0.2"
         width="2.6500001"
         y="21.155277"
         x="30.48168" />
    <rect
         rx="0.1"
         style="fill:currentColor"
         id="rect56"
         ry="0.1"
         height="0.2"
         width="2.97"
         y="19.155277"
         x="34.563881" />
    <rect
         rx="0.1"
         style="fill:currentColor"
         id="rect58"
         ry="0.1"
         height="0.2"
         width="2.97"
         y="20.155277"
         x="34.563881" />
    <rect
         rx="0.1"
         style="fill:currentColor"
         id="rect60"
         ry="0.1"
         height="0.2"
         width="2.97"
         y="19.155277"
         x="38.965981" />
    <rect
         rx="0.1"
         style="fill:currentColor"
         id="rect62"
         ry="0.1"
         height="0.2"
         width="2.6500001"
         y="20.155277"
         x="39.28598" />
    <rect
         rx="0.1"
         style="fill:currentColor"
         id="rect64"
         ry="0.1"
         height="0.2"
         width="2.6500001"
         y="19.155277"
         x="43.688179" />
    <rect
         rx="0.1"
         style="fill:currentColor"
         id="rect66"
         ry="0.1"
         height="0.2"
         width="2.97"
         y="19.155277"
         x="47.770279" />
    <rect
         rx="0.1"
         style="fill:currentColor"
         id="rect68"
         ry="0.1"
         height="0.2"
         width="2.97"
         y="19.155277"
         x="95.11528" />
    <rect
         rx="0.1"
         style="fill:currentColor"
         id="rect70"
         ry="0.1"
         height="0.2"
         width="2.97"
         y="20.155277"
         x="95.11528" />
    <rect
         rx="0.1"
         style="fill:currentColor"
         id="rect72"
         ry="0.1"
         height="0.2"
         width="2.97"
         y="19.155277"
         x="99.517479" />
    <rect
         rx="0.1"
         style="fill:currentColor"
         id="rect74"
         ry="0.1"
         height="0.2"
         width="2.97"
         y="19.155277"
         x="103.91958" />
    <rect
         rx="0.1"
         style="fill:currentColor"
         id="rect76"
         ry="0.1"
         height="0.2"
         width="2.6500001"
         y="13.155277"
         x="157.06538" />
    <rect
         rx="0.1"
         style="fill:currentColor"
         id="rect78"
         ry="0.1"
         height="0.2"
         width="2.6500001"
         y="13.155277"
         x="161.46758" />
    <rect
         rx="0.1"
         style="fill:currentColor"
         id="rect80"
         ry="0.1"
         height="0.2"
         width="2.97"
         y="13.155277"
         x="165.54968" />
    <rect
         rx="0.1"
         style="fill:currentColor"
         id="rect82"
         ry="0.1"
         height="0.2"
         width="2.97"
         y="12.155276"
         x="165.54968" />
    <rect
         rx="0.1"
         style="fill:currentColor"
         id="rect84"
         ry="0.1"
         height="0.2"
         width="2.97"
         y="13.155277"
         x="169.95187" />
    <rect
         rx="0.1"
         style="fill:currentColor"
         id="rect86"
         ry="0.1"
         height="0.2"
         width="2.6500001"
         y="12.155276"
         x="170.27188" />
    <rect
         rx="0.1"
         style="fill:currentColor"
         id="rect88"
         ry="0.1"
         height="0.2"
         width="2.97"
         y="13.155277"
         x="174.35397" />
    <rect
         rx="0.1"
         style="fill:currentColor"
         id="rect90"
         ry="0.1"
         height="0.2"
         width="2.97"
         y="12.155276"
         x="174.35397" />
    <rect
         rx="0.1"
         style="fill:currentColor"
         id="rect92"
         ry="0.1"
         height="0.2"
         width="2.6500001"
         y="11.155276"
         x="174.67398" />
    <rect
         rx="0.1"
         style="fill:currentColor"
         id="rect94"
         ry="0.1"
         height="0.2"
         width="2.97"
         y="13.155277"
         x="178.75618" />
    <rect
         rx="0.1"
         style="fill:currentColor"
         id="rect96"
         ry="0.1"
         height="0.2"
         width="2.97"
         y="12.155276"
         x="178.75618" />
    <rect
         rx="0.1"
         style="fill:currentColor"
         id="rect98"
         ry="0.1"
         height="0.2"
         width="2.97"
         y="11.155276"
         x="178.75618" />
    <rect
         rx="0.1"
         style="fill:currentColor"
         id="rect100"
         ry="0.1"
         height="0.2"
         width="2.97"
         y="13.155277"
         x="183.15828" />
    <rect
         rx="0.1"
         style="fill:currentColor"
         id="rect102"
         ry="0.1"
         height="0.2"
         width="2.97"
         y="12.155276"
         x="183.15828" />
    <rect
         rx="0.1"
         style="fill:currentColor"
         id="rect104"
         ry="0.1"
         height="0.2"
         width="2.97"
         y="11.155276"
         x="183.15828" />
    <rect
         rx="0.1"
         style="fill:currentColor"
         id="rect106"
         ry="0.1"
         height="0.2"
         width="2.6500001"
         y="10.155276"
         x="183.47827" />
    <rect
         rx="0.1"
         style="fill:currentColor"
         id="rect108"
         ry="0.1"
         height="0.2"
         width="2.97"
         y="13.155277"
         x="187.56047" />
    <rect
         rx="0.1"
         style="fill:currentColor"
         id="rect110"
         ry="0.1"
         height="0.2"
         width="2.97"
         y="12.155276"
         x="187.56047" />
    <rect
         rx="0.1"
         style="fill:currentColor"
         id="rect112"
         ry="0.1"
         height="0.2"
         width="2.97"
         y="11.155276"
         x="187.56047" />
    <rect
         rx="0.1"
         style="fill:currentColor"
         id="rect114"
         ry="0.1"
         height="0.2"
         width="2.6500001"
         y="10.155276"
         x="187.88048" />
    <rect
         rx="0.1"
         style="fill:currentColor"
         id="rect116"
         ry="0.1"
         height="0.2"
         width="2.97"
         y="13.155277"
         x="191.96257" />
    <rect
         rx="0.1"
         style="fill:currentColor"
         id="rect118"
         ry="0.1"
         height="0.2"
         width="2.97"
         y="12.155276"
         x="191.96257" />
    <rect
         rx="0.1"
         style="fill:currentColor"
         id="rect120"
         ry="0.1"
         height="0.2"
         width="2.97"
         y="11.155276"
         x="191.96257" />
    <rect
         rx="0.1"
         style="fill:currentColor"
         id="rect122"
         ry="0.1"
         height="0.2"
         width="2.97"
         y="10.155276"
         x="191.96257" />
    <rect
         rx="0.1"
         style="fill:currentColor"
         id="rect124"
         ry="0.1"
         height="0.2"
         width="2.6500001"
         y="9.1552763"
         x="192.28258" />
    <rect
         rx="0.1"
         style="fill:currentColor"
         id="rect126"
         ry="0.1"
         height="0.2"
         width="2.97"
         y="13.155277"
         x="196.36478" />
    <rect
         rx="0.1"
         style="fill:currentColor"
         id="rect128"
         ry="0.1"
         height="0.2"
         width="2.97"
         y="12.155276"
         x="196.36478" />
    <rect
         rx="0.1"
         style="fill:currentColor"
         id="rect130"
         ry="0.1"
         height="0.2"
         width="2.97"
         y="11.155276"
         x="196.36478" />
    <rect
         rx="0.1"
         style="fill:currentColor"
         id="rect132"
         ry="0.1"
         height="0.2"
         width="2.97"
         y="10.155276"
         x="196.36478" />
    <rect
         rx="0.1"
         style="fill:currentColor"
         id="rect134"
         ry="0.1"
         height="0.2"
         width="2.6500001"
         y="9.1552763"
         x="196.68478" />
    <line
         style="stroke:currentColor;stroke-width:0.1;stroke-linecap:round;stroke-linejoin:round"
         id="line136"
         y2="18.255276"
         x2="201.96527"
         y1="18.255276"
         x1="2.8959775" />
    <line
         style="stroke:currentColor;stroke-width:0.1;stroke-linecap:round;stroke-linejoin:round"
         id="line138"
         y2="17.255276"
         x2="201.96527"
         y1="17.255276"
         x1="2.8959775" />
    <line
         style="stroke:currentColor;stroke-width:0.1;stroke-linecap:round;stroke-linejoin:round"
         id="line140"
         y2="16.255276"
         x2="201.96527"
         y1="16.255276"
         x1="2.8959775" />
    <line
         style="stroke:currentColor;stroke-width:0.1;stroke-linecap:round;stroke-linejoin:round"
         id="line142"
         y2="15.255276"
         x2="201.96527"
         y1="15.255276"
         x1="2.8959775" />
    <line
         style="stroke:currentColor;stroke-width:0.1;stroke-linecap:round;stroke-linejoin:round"
         id="line144"
         y2="14.255276"
         x2="201.96527"
         y1="14.255276"
         x1="2.8959775" />
    <path
         style="fill:currentColor"
         id="path146"
         d="m 136.08967,15.307277 c -0.2,0 -0.276,0.172 -0.276,0.352 0,0.308 0.228,0.544 0.536,0.544 0.2,0 0.276,-0.172 0.276,-0.352 0,-0.308 -0.228,-0.544 -0.536,-0.544 z m 1.12,0.448 c 0,0.172 -0.14,0.304 -0.292,0.388 -0.212,0.12 -0.452,0.164 -0.696,0.164 -0.244,0 -0.488,-0.044 -0.7,-0.164 -0.152,-0.084 -0.292,-0.216 -0.292,-0.388 0,-0.172 0.14,-0.304 0.292,-0.388 0.212,-0.12 0.456,-0.164 0.7,-0.164 0.244,0 0.484,0.044 0.696,0.164 0.152,0.084 0.292,0.216 0.292,0.388 z" />
    <path
         style="fill:currentColor"
         id="path148"
         d="m 140.49177,14.807277 c -0.2,0 -0.276,0.172 -0.276,0.352 0,0.308 0.228,0.544 0.536,0.544 0.2,0 0.276,-0.172 0.276,-0.352 0,-0.308 -0.228,-0.544 -0.536,-0.544 z m 1.12,0.448 c 0,0.172 -0.14,0.304 -0.292,0.388 -0.212,0.12 -0.452,0.164 -0.696,0.164 -0.244,0 -0.488,-0.044 -0.7,-0.164 -0.152,-0.084 -0.292,-0.216 -0.292,-0.388 0,-0.172 0.14,-0.304 0.292,-0.388 0.212,-0.12 0.456,-0.164 0.7,-0.164 0.244,0 0.484,0.044 0.696,0.164 0.152,0.084 0.292,0.216 0.292,0.388 z" />
    <text
         y="21.328577"
         x="139.63179"
         style="font-size:1.74609995px;font-family:droid_serifbold, Times, serif;text-anchor:start;fill:currentColor"
         id="text150"
         font-size="1.7461">
        <tspan
             id="tspan152">semitone</tspan>
    </text>
    <path
         style="fill:currentColor"
         id="path154"
         d="m 131.68747,15.807277 c -0.2,0 -0.276,0.172 -0.276,0.352 0,0.308 0.228,0.544 0.536,0.544 0.2,0 0.276,-0.172 0.276,-0.352 0,-0.308 -0.228,-0.544 -0.536,-0.544 z m 1.12,0.448 c 0,0.172 -0.14,0.304 -0.292,0.388 -0.212,0.12 -0.452,0.164 -0.696,0.164 -0.244,0 -0.488,-0.044 -0.7,-0.164 -0.152,-0.084 -0.292,-0.216 -0.292,-0.388 0,-0.172 0.14,-0.304 0.292,-0.388 0.212,-0.12 0.456,-0.164 0.7,-0.164 0.244,0 0.484,0.044 0.696,0.164 0.152,0.084 0.292,0.216 0.292,0.388 z" />
    <text
         y="13.705276"
         x="130.82748"
         style="font-size:2.20009995px;font-family:droid_serifbold, Times, serif;text-anchor:start;fill:currentColor"
         id="text156"
         font-size="2.2001">
        <tspan
             id="tspan158">f</tspan>
    </text>
    <path
         style="fill:currentColor"
         id="path160"
         d="m 129.78547,16.091277 -0.004,0.264 0,0.044 c 0,0.088 0.004,0.176 0.016,0.264 0.18,-0.152 0.372,-0.32 0.372,-0.556 0,-0.132 -0.056,-0.268 -0.172,-0.268 -0.124,0 -0.208,0.12 -0.212,0.252 z m -0.168,0.716 -0.048,-2.38 c 0.032,-0.02 0.072,-0.032 0.108,-0.032 0.036,0 0.076,0.012 0.108,0.032 l -0.028,1.38 c 0.1,-0.084 0.232,-0.136 0.364,-0.136 0.208,0 0.356,0.192 0.356,0.408 0,0.32 -0.344,0.468 -0.588,0.676 -0.06,0.052 -0.096,0.152 -0.18,0.152 -0.052,0 -0.092,-0.044 -0.092,-0.1 z" />
    <path
         style="fill:currentColor"
         id="path162"
         d="m 149.29607,13.807277 c -0.2,0 -0.276,0.172 -0.276,0.352 0,0.308 0.228,0.544 0.536,0.544 0.2,0 0.276,-0.172 0.276,-0.352 0,-0.308 -0.228,-0.544 -0.536,-0.544 z m 1.12,0.448 c 0,0.172 -0.14,0.304 -0.292,0.388 -0.212,0.12 -0.452,0.164 -0.696,0.164 -0.244,0 -0.488,-0.044 -0.7,-0.164 -0.152,-0.084 -0.292,-0.216 -0.292,-0.388 0,-0.172 0.14,-0.304 0.292,-0.388 0.212,-0.12 0.456,-0.164 0.7,-0.164 0.244,0 0.484,0.044 0.696,0.164 0.152,0.084 0.292,0.216 0.292,0.388 z" />
    <path
         style="fill:currentColor"
         id="path164"
         d="m 153.69827,13.307277 c -0.2,0 -0.276,0.172 -0.276,0.352 0,0.308 0.228,0.544 0.536,0.544 0.2,0 0.276,-0.172 0.276,-0.352 0,-0.308 -0.228,-0.544 -0.536,-0.544 z m 1.12,0.448 c 0,0.172 -0.14,0.304 -0.292,0.388 -0.212,0.12 -0.452,0.164 -0.696,0.164 -0.244,0 -0.488,-0.044 -0.7,-0.164 -0.152,-0.084 -0.292,-0.216 -0.292,-0.388 0,-0.172 0.14,-0.304 0.292,-0.388 0.212,-0.12 0.456,-0.164 0.7,-0.164 0.244,0 0.484,0.044 0.696,0.164 0.152,0.084 0.292,0.216 0.292,0.388 z" />
    <text
         y="21.328577"
         x="152.83829"
         style="font-size:1.74609995px;font-family:droid_serifbold, Times, serif;text-anchor:start;fill:currentColor"
         id="text166"
         font-size="1.7461">
        <tspan
             id="tspan168">semitone</tspan>
    </text>
    <path
         style="fill:currentColor"
         id="path170"
         d="m 144.89397,14.307277 c -0.2,0 -0.276,0.172 -0.276,0.352 0,0.308 0.228,0.544 0.536,0.544 0.2,0 0.276,-0.172 0.276,-0.352 0,-0.308 -0.228,-0.544 -0.536,-0.544 z m 1.12,0.448 c 0,0.172 -0.14,0.304 -0.292,0.388 -0.212,0.12 -0.452,0.164 -0.696,0.164 -0.244,0 -0.488,-0.044 -0.7,-0.164 -0.152,-0.084 -0.292,-0.216 -0.292,-0.388 0,-0.172 0.14,-0.304 0.292,-0.388 0.212,-0.12 0.456,-0.164 0.7,-0.164 0.244,0 0.484,0.044 0.696,0.164 0.152,0.084 0.292,0.216 0.292,0.388 z" />
    <text
         y="13.705276"
         x="144.03398"
         style="font-size:2.20009995px;font-family:droid_serifbold, Times, serif;text-anchor:start;fill:currentColor"
         id="text172"
         font-size="2.2001">
        <tspan
             id="tspan174">f</tspan>
    </text>
    <text
         y="7.705276"
         x="144.03398"
         style="font-size:2.20009995px;font-family:droid_serifbold, Times, serif;text-anchor:start;fill:currentColor"
         id="text176"
         font-size="2.2001">
        <tspan
             id="tspan178">E</tspan>
    </text>
    <path
         style="fill:currentColor"
         id="path180"
         d="m 146.46667,7.5412767 -0.004,0.264 0,0.044 c 0,0.088 0.004,0.176 0.016,0.264 0.18,-0.152 0.372,-0.32 0.372,-0.556 0,-0.132 -0.056,-0.268 -0.172,-0.268 -0.124,0 -0.208,0.12 -0.212,0.252 z m -0.168,0.716 -0.048,-2.3800004 c 0.032,-0.02 0.072,-0.032 0.108,-0.032 0.036,0 0.076,0.012 0.108,0.032 l -0.028,1.3800004 c 0.1,-0.084 0.232,-0.1360004 0.364,-0.1360004 0.208,0 0.356,0.1920004 0.356,0.4080004 0,0.32 -0.344,0.468 -0.588,0.676 -0.06,0.052 -0.096,0.152 -0.18,0.152 -0.052,0 -0.092,-0.044 -0.092,-0.1 z" />
    <text
         y="7.705276"
         x="147.75868"
         style="font-size:2.20009995px;font-family:droid_serifbold, Times, serif;text-anchor:start;fill:currentColor"
         id="text182"
         font-size="2.2001">
        <tspan
             id="tspan184">-</tspan>
    </text>
    <text
         y="7.705276"
         x="149.07579"
         style="font-style:italic;font-size:2.20009995px;font-family:droid_serifbold, Times, serif;text-anchor:start;fill:currentColor"
         id="text186"
         font-size="2.2001"
         font-style="italic">
        <tspan
             id="tspan188">qablītum</tspan>
    </text>
    <text
         y="7.705276"
         x="158.89438"
         style="font-size:2.20009995px;font-family:droid_serifbold, Times, serif;text-anchor:start;fill:currentColor"
         id="text198"
         font-size="2.2001">
        <tspan
             id="tspan200">(4</tspan>
    </text>
    <path
         style="fill:currentColor"
         id="path202"
         d="m 161.66857,7.5412767 -0.004,0.264 0,0.044 c 0,0.088 0.004,0.176 0.016,0.264 0.18,-0.152 0.372,-0.32 0.372,-0.556 0,-0.132 -0.056,-0.268 -0.172,-0.268 -0.124,0 -0.208,0.12 -0.212,0.252 z m -0.168,0.716 -0.048,-2.3800004 c 0.032,-0.02 0.072,-0.032 0.108,-0.032 0.036,0 0.076,0.012 0.108,0.032 l -0.028,1.3800004 c 0.1,-0.084 0.232,-0.1360004 0.364,-0.1360004 0.208,0 0.356,0.1920004 0.356,0.4080004 0,0.32 -0.344,0.468 -0.588,0.676 -0.06,0.052 -0.096,0.152 -0.18,0.152 -0.052,0 -0.092,-0.044 -0.092,-0.1 z" />
    <text
         y="7.705276"
         x="162.96059"
         style="font-size:2.20009995px;font-family:droid_serifbold, Times, serif;text-anchor:start;fill:currentColor"
         id="text204"
         font-size="2.2001">
        <tspan
             id="tspan206">)</tspan>
    </text>
    <path
         style="fill:currentColor"
         id="path208"
         d="m 142.99197,14.591277 -0.004,0.264 0,0.044 c 0,0.088 0.004,0.176 0.016,0.264 0.18,-0.152 0.372,-0.32 0.372,-0.556 0,-0.132 -0.056,-0.268 -0.172,-0.268 -0.124,0 -0.208,0.12 -0.212,0.252 z m -0.168,0.716 -0.048,-2.38 c 0.032,-0.02 0.072,-0.032 0.108,-0.032 0.036,0 0.076,0.012 0.108,0.032 l -0.028,1.38 c 0.1,-0.084 0.232,-0.136 0.364,-0.136 0.208,0 0.356,0.192 0.356,0.408 0,0.32 -0.344,0.468 -0.588,0.676 -0.06,0.052 -0.096,0.152 -0.18,0.152 -0.052,0 -0.092,-0.044 -0.092,-0.1 z" />
    <path
         style="fill:currentColor"
         id="path210"
         d="m 109.67677,18.307277 c -0.2,0 -0.276,0.172 -0.276,0.352 0,0.308 0.228,0.544 0.536,0.544 0.2,0 0.276,-0.172 0.276,-0.352 0,-0.308 -0.228,-0.544 -0.536,-0.544 z m 1.12,0.448 c 0,0.172 -0.14,0.304 -0.292,0.388 -0.212,0.12 -0.452,0.164 -0.696,0.164 -0.244,0 -0.488,-0.044 -0.7,-0.164 -0.152,-0.084 -0.292,-0.216 -0.292,-0.388 0,-0.172 0.14,-0.304 0.292,-0.388 0.212,-0.12 0.456,-0.164 0.7,-0.164 0.244,0 0.484,0.044 0.696,0.164 0.152,0.084 0.292,0.216 0.292,0.388 z" />
    <path
         style="fill:currentColor"
         id="path212"
         d="m 114.07887,17.807277 c -0.2,0 -0.276,0.172 -0.276,0.352 0,0.308 0.228,0.544 0.536,0.544 0.2,0 0.276,-0.172 0.276,-0.352 0,-0.308 -0.228,-0.544 -0.536,-0.544 z m 1.12,0.448 c 0,0.172 -0.14,0.304 -0.292,0.388 -0.212,0.12 -0.452,0.164 -0.696,0.164 -0.244,0 -0.488,-0.044 -0.7,-0.164 -0.152,-0.084 -0.292,-0.216 -0.292,-0.388 0,-0.172 0.14,-0.304 0.292,-0.388 0.212,-0.12 0.456,-0.164 0.7,-0.164 0.244,0 0.484,0.044 0.696,0.164 0.152,0.084 0.292,0.216 0.292,0.388 z" />
    <path
         style="fill:currentColor"
         id="path214"
         d="m 100.87247,19.307277 c -0.2,0 -0.276,0.172 -0.276,0.352 0,0.308 0.228,0.544 0.536,0.544 0.2,0 0.276,-0.172 0.276,-0.352 0,-0.308 -0.228,-0.544 -0.536,-0.544 z m 1.12,0.448 c 0,0.172 -0.14,0.304 -0.292,0.388 -0.212,0.12 -0.452,0.164 -0.696,0.164 -0.244,0 -0.488,-0.044 -0.7,-0.164 -0.152,-0.084 -0.292,-0.216 -0.292,-0.388 0,-0.172 0.14,-0.304 0.292,-0.388 0.212,-0.12 0.456,-0.164 0.7,-0.164 0.244,0 0.484,0.044 0.696,0.164 0.152,0.084 0.292,0.216 0.292,0.388 z" />
    <text
         y="23.328577"
         x="100.01247"
         style="font-size:1.74609995px;font-family:droid_serifbold, Times, serif;text-anchor:start;fill:currentColor"
         id="text216"
         font-size="1.7461">
        <tspan
             id="tspan218">semitone</tspan>
    </text>
    <path
         style="fill:currentColor"
         id="path220"
         d="m 105.27457,18.807277 c -0.2,0 -0.276,0.172 -0.276,0.352 0,0.308 0.228,0.544 0.536,0.544 0.2,0 0.276,-0.172 0.276,-0.352 0,-0.308 -0.228,-0.544 -0.536,-0.544 z m 1.12,0.448 c 0,0.172 -0.14,0.304 -0.292,0.388 -0.212,0.12 -0.452,0.164 -0.696,0.164 -0.244,0 -0.488,-0.044 -0.7,-0.164 -0.152,-0.084 -0.292,-0.216 -0.292,-0.388 0,-0.172 0.14,-0.304 0.292,-0.388 0.212,-0.12 0.456,-0.164 0.7,-0.164 0.244,0 0.484,0.044 0.696,0.164 0.152,0.084 0.292,0.216 0.292,0.388 z" />
    <text
         y="13.705276"
         x="104.41457"
         style="font-size:2.20009995px;font-family:droid_serifbold, Times, serif;text-anchor:start;fill:currentColor"
         id="text222"
         font-size="2.2001">
        <tspan
             id="tspan224">f</tspan>
    </text>
    <path
         style="fill:currentColor"
         id="path226"
         d="m 122.88317,16.807277 c -0.2,0 -0.276,0.172 -0.276,0.352 0,0.308 0.228,0.544 0.536,0.544 0.2,0 0.276,-0.172 0.276,-0.352 0,-0.308 -0.228,-0.544 -0.536,-0.544 z m 1.12,0.448 c 0,0.172 -0.14,0.304 -0.292,0.388 -0.212,0.12 -0.452,0.164 -0.696,0.164 -0.244,0 -0.488,-0.044 -0.7,-0.164 -0.152,-0.084 -0.292,-0.216 -0.292,-0.388 0,-0.172 0.14,-0.304 0.292,-0.388 0.212,-0.12 0.456,-0.164 0.7,-0.164 0.244,0 0.484,0.044 0.696,0.164 0.152,0.084 0.292,0.216 0.292,0.388 z" />
    <path
         style="fill:currentColor"
         id="path228"
         d="m 127.28537,16.307277 c -0.2,0 -0.276,0.172 -0.276,0.352 0,0.308 0.228,0.544 0.536,0.544 0.2,0 0.276,-0.172 0.276,-0.352 0,-0.308 -0.228,-0.544 -0.536,-0.544 z m 1.12,0.448 c 0,0.172 -0.14,0.304 -0.292,0.388 -0.212,0.12 -0.452,0.164 -0.696,0.164 -0.244,0 -0.488,-0.044 -0.7,-0.164 -0.152,-0.084 -0.292,-0.216 -0.292,-0.388 0,-0.172 0.14,-0.304 0.292,-0.388 0.212,-0.12 0.456,-0.164 0.7,-0.164 0.244,0 0.484,0.044 0.696,0.164 0.152,0.084 0.292,0.216 0.292,0.388 z" />
    <text
         y="21.328577"
         x="126.42538"
         style="font-size:1.74609995px;font-family:droid_serifbold, Times, serif;text-anchor:start;fill:currentColor"
         id="text230"
         font-size="1.7461">
        <tspan
             id="tspan232">semitone</tspan>
    </text>
    <text
         y="21.828577"
         x="113.21887"
         style="font-size:1.74609995px;font-family:droid_serifbold, Times, serif;text-anchor:start;fill:currentColor"
         id="text234"
         font-size="1.7461">
        <tspan
             id="tspan236">semitone</tspan>
    </text>
    <path
         style="fill:currentColor"
         id="path238"
         d="m 118.48107,17.307277 c -0.2,0 -0.276,0.172 -0.276,0.352 0,0.308 0.228,0.544 0.536,0.544 0.2,0 0.276,-0.172 0.276,-0.352 0,-0.308 -0.228,-0.544 -0.536,-0.544 z m 1.12,0.448 c 0,0.172 -0.14,0.304 -0.292,0.388 -0.212,0.12 -0.452,0.164 -0.696,0.164 -0.244,0 -0.488,-0.044 -0.7,-0.164 -0.152,-0.084 -0.292,-0.216 -0.292,-0.388 0,-0.172 0.14,-0.304 0.292,-0.388 0.212,-0.12 0.456,-0.164 0.7,-0.164 0.244,0 0.484,0.044 0.696,0.164 0.152,0.084 0.292,0.216 0.292,0.388 z" />
    <text
         y="13.705276"
         x="117.62108"
         style="font-size:2.20009995px;font-family:droid_serifbold, Times, serif;text-anchor:start;fill:currentColor"
         id="text240"
         font-size="2.2001">
        <tspan
             id="tspan242">f</tspan>
    </text>
    <text
         y="10.705276"
         x="117.62108"
         style="font-size:2.20009995px;font-family:droid_serifbold, Times, serif;text-anchor:start;fill:currentColor"
         id="text244"
         font-size="2.2001">
        <tspan
             id="tspan246">F</tspan>
    </text>
    <text
         y="10.705276"
         x="119.68929"
         style="font-size:2.20009995px;font-family:droid_serifbold, Times, serif;text-anchor:start;fill:currentColor"
         id="text248"
         font-size="2.2001">
        <tspan
             id="tspan250">-</tspan>
    </text>
    <text
         y="10.705276"
         x="121.00628"
         style="font-style:italic;font-size:2.20009995px;font-family:droid_serifbold, Times, serif;text-anchor:start;fill:currentColor"
         id="text252"
         font-size="2.2001"
         font-style="italic">
        <tspan
             id="tspan254">qablītum</tspan>
    </text>
    <text
         y="10.705276"
         x="130.82498"
         style="font-size:2.20009995px;font-family:droid_serifbold, Times, serif;text-anchor:start;fill:currentColor"
         id="text264"
         font-size="2.2001">
        <tspan
             id="tspan266">(2</tspan>
    </text>
    <path
         style="fill:currentColor"
         id="path268"
         d="m 133.59907,10.541277 -0.004,0.264 0,0.044 c 0,0.088 0.004,0.176 0.016,0.264 0.18,-0.152 0.372,-0.32 0.372,-0.556 0,-0.132 -0.056,-0.268 -0.172,-0.268 -0.124,0 -0.208,0.12 -0.212,0.252 z m -0.168,0.716 -0.048,-2.3800003 c 0.032,-0.02 0.072,-0.032 0.108,-0.032 0.036,0 0.076,0.012 0.108,0.032 l -0.028,1.3800003 c 0.1,-0.084 0.232,-0.136 0.364,-0.136 0.208,0 0.356,0.192 0.356,0.408 0,0.32 -0.344,0.468 -0.588,0.676 -0.06,0.052 -0.096,0.152 -0.18,0.152 -0.052,0 -0.092,-0.044 -0.092,-0.1 z" />
    <text
         y="10.705276"
         x="134.89108"
         style="font-size:2.20009995px;font-family:droid_serifbold, Times, serif;text-anchor:start;fill:currentColor"
         id="text270"
         font-size="2.2001">
        <tspan
             id="tspan272">)</tspan>
    </text>
    <path
         style="fill:currentColor"
         id="path274"
         d="m 187.01347,9.5912767 -0.004,0.264 0,0.044 c 0,0.088 0.004,0.1760003 0.016,0.2640003 0.18,-0.152 0.372,-0.3200003 0.372,-0.5560003 0,-0.132 -0.056,-0.268 -0.172,-0.268 -0.124,0 -0.208,0.12 -0.212,0.252 z m -0.168,0.7160003 -0.048,-2.3800003 c 0.032,-0.02 0.072,-0.032 0.108,-0.032 0.036,0 0.076,0.012 0.108,0.032 l -0.028,1.38 c 0.1,-0.084 0.232,-0.136 0.364,-0.136 0.208,0 0.356,0.192 0.356,0.408 0,0.32 -0.344,0.4680003 -0.588,0.6760003 -0.06,0.052 -0.096,0.152 -0.18,0.152 -0.052,0 -0.092,-0.044 -0.092,-0.1 z" />
    <path
         style="fill:currentColor"
         id="path276"
         d="m 193.31757,8.8072767 c -0.2,0 -0.276,0.172 -0.276,0.352 0,0.308 0.228,0.544 0.536,0.544 0.2,0 0.276,-0.172 0.276,-0.352 0,-0.308 -0.228,-0.544 -0.536,-0.544 z m 1.12,0.448 c 0,0.172 -0.14,0.304 -0.292,0.388 -0.212,0.12 -0.452,0.164 -0.696,0.164 -0.244,0 -0.488,-0.044 -0.7,-0.164 -0.152,-0.084 -0.292,-0.216 -0.292,-0.388 0,-0.172 0.14,-0.304 0.292,-0.388 0.212,-0.12 0.456,-0.164 0.7,-0.164 0.244,0 0.484,0.044 0.696,0.164 0.152,0.084 0.292,0.216 0.292,0.388 z" />
    <text
         y="21.328577"
         x="192.45758"
         style="font-size:1.74609995px;font-family:droid_serifbold, Times, serif;text-anchor:start;fill:currentColor"
         id="text278"
         font-size="1.7461">
        <tspan
             id="tspan280">semitone</tspan>
    </text>
    <path
         style="fill:currentColor"
         id="path282"
         d="m 191.41557,9.0912767 -0.004,0.264 0,0.044 c 0,0.088 0.004,0.176 0.016,0.264 0.18,-0.152 0.372,-0.32 0.372,-0.556 0,-0.132 -0.056,-0.268 -0.172,-0.268 -0.124,0 -0.208,0.12 -0.212,0.252 z m -0.168,0.716 -0.048,-2.38 c 0.032,-0.02 0.072,-0.032 0.108,-0.032 0.036,0 0.076,0.012 0.108,0.032 l -0.028,1.38 c 0.1,-0.084 0.232,-0.136 0.364,-0.136 0.208,0 0.356,0.192 0.356,0.408 0,0.32 -0.344,0.468 -0.588,0.676 -0.06,0.052 -0.096,0.152 -0.18,0.152 -0.052,0 -0.092,-0.044 -0.092,-0.1 z" />
    <path
         style="fill:currentColor"
         id="path284"
         d="m 184.51327,9.8072767 c -0.2,0 -0.276,0.172 -0.276,0.3520003 0,0.308 0.228,0.544 0.536,0.544 0.2,0 0.276,-0.172 0.276,-0.352 0,-0.308 -0.228,-0.5440003 -0.536,-0.5440003 z m 1.12,0.4480003 c 0,0.172 -0.14,0.304 -0.292,0.388 -0.212,0.12 -0.452,0.164 -0.696,0.164 -0.244,0 -0.488,-0.044 -0.7,-0.164 -0.152,-0.084 -0.292,-0.216 -0.292,-0.388 0,-0.172 0.14,-0.3040003 0.292,-0.3880003 0.212,-0.12 0.456,-0.164 0.7,-0.164 0.244,0 0.484,0.044 0.696,0.164 0.152,0.084 0.292,0.2160003 0.292,0.3880003 z" />
    <text
         y="9.2451763"
         x="183.65329"
         style="font-size:2.20009995px;font-family:droid_serifbold, Times, serif;text-anchor:start;fill:currentColor"
         id="text286"
         font-size="2.2001">
        <tspan
             id="tspan288">f</tspan>
    </text>
    <path
         style="fill:currentColor"
         id="path290"
         d="m 182.61127,10.091277 -0.004,0.264 0,0.044 c 0,0.088 0.004,0.176 0.016,0.264 0.18,-0.152 0.372,-0.32 0.372,-0.556 0,-0.1320003 -0.056,-0.2680003 -0.172,-0.2680003 -0.124,0 -0.208,0.12 -0.212,0.2520003 z m -0.168,0.716 -0.048,-2.3800003 c 0.032,-0.02 0.072,-0.032 0.108,-0.032 0.036,0 0.076,0.012 0.108,0.032 l -0.028,1.38 c 0.1,-0.084 0.232,-0.136 0.364,-0.136 0.208,0 0.356,0.192 0.356,0.4080003 0,0.32 -0.344,0.468 -0.588,0.676 -0.06,0.052 -0.096,0.152 -0.18,0.152 -0.052,0 -0.092,-0.044 -0.092,-0.1 z" />
    <path
         style="fill:currentColor"
         id="path292"
         d="m 188.91547,9.3072767 c -0.2,0 -0.276,0.172 -0.276,0.352 0,0.308 0.228,0.5440003 0.536,0.5440003 0.2,0 0.276,-0.172 0.276,-0.3520003 0,-0.308 -0.228,-0.544 -0.536,-0.544 z m 1.12,0.448 c 0,0.172 -0.14,0.3040003 -0.292,0.3880003 -0.212,0.12 -0.452,0.164 -0.696,0.164 -0.244,0 -0.488,-0.044 -0.7,-0.164 -0.152,-0.084 -0.292,-0.2160003 -0.292,-0.3880003 0,-0.172 0.14,-0.304 0.292,-0.388 0.212,-0.12 0.456,-0.164 0.7,-0.164 0.244,0 0.484,0.044 0.696,0.164 0.152,0.084 0.292,0.216 0.292,0.388 z" />
    <line
         style="stroke:currentColor;stroke-width:0.1;stroke-linecap:round;stroke-linejoin:round"
         id="line294"
         y2="19.555277"
         x2="198.33978"
         y1="19.555277"
         x1="192.95758" />
    <line
         style="stroke:currentColor;stroke-width:0.1;stroke-linecap:round;stroke-linejoin:round"
         id="line296"
         y2="18.555277"
         x2="198.83978"
         y1="19.555277"
         x1="198.33978" />
    <line
         style="stroke:currentColor;stroke-width:0.1;stroke-linecap:round;stroke-linejoin:round"
         id="line298"
         y2="18.555277"
         x2="192.45758"
         y1="19.555277"
         x1="192.95758" />
    <line
         style="stroke:currentColor;stroke-width:0.1;stroke-linecap:round;stroke-linejoin:round"
         id="line300"
         y2="19.555277"
         x2="185.13338"
         y1="19.555277"
         x1="179.75119" />
    <line
         style="stroke:currentColor;stroke-width:0.1;stroke-linecap:round;stroke-linejoin:round"
         id="line302"
         y2="18.555277"
         x2="185.63338"
         y1="19.555277"
         x1="185.13338" />
    <line
         style="stroke:currentColor;stroke-width:0.1;stroke-linecap:round;stroke-linejoin:round"
         id="line304"
         y2="18.555277"
         x2="179.25119"
         y1="19.555277"
         x1="179.75119" />
    <line
         style="stroke:currentColor;stroke-width:0.1;stroke-linecap:round;stroke-linejoin:round"
         id="line306"
         y2="19.555277"
         x2="171.92688"
         y1="19.555277"
         x1="166.54468" />
    <line
         style="stroke:currentColor;stroke-width:0.1;stroke-linecap:round;stroke-linejoin:round"
         id="line308"
         y2="18.555277"
         x2="172.42688"
         y1="19.555277"
         x1="171.92688" />
    <line
         style="stroke:currentColor;stroke-width:0.1;stroke-linecap:round;stroke-linejoin:round"
         id="line310"
         y2="18.555277"
         x2="166.04468"
         y1="19.555277"
         x1="166.54468" />
    <line
         style="stroke:currentColor;stroke-width:0.1;stroke-linecap:round;stroke-linejoin:round"
         id="line312"
         y2="19.555277"
         x2="158.72049"
         y1="19.555277"
         x1="153.33829" />
    <line
         style="stroke:currentColor;stroke-width:0.1;stroke-linecap:round;stroke-linejoin:round"
         id="line314"
         y2="18.555277"
         x2="159.22049"
         y1="19.555277"
         x1="158.72049" />
    <line
         style="stroke:currentColor;stroke-width:0.1;stroke-linecap:round;stroke-linejoin:round"
         id="line316"
         y2="18.555277"
         x2="152.83829"
         y1="19.555277"
         x1="153.33829" />
    <line
         style="stroke:currentColor;stroke-width:0.1;stroke-linecap:round;stroke-linejoin:round"
         id="line318"
         y2="19.555277"
         x2="145.51398"
         y1="19.555277"
         x1="140.13179" />
    <line
         style="stroke:currentColor;stroke-width:0.1;stroke-linecap:round;stroke-linejoin:round"
         id="line320"
         y2="18.555277"
         x2="146.01398"
         y1="19.555277"
         x1="145.51398" />
    <line
         style="stroke:currentColor;stroke-width:0.1;stroke-linecap:round;stroke-linejoin:round"
         id="line322"
         y2="18.555277"
         x2="139.63179"
         y1="19.555277"
         x1="140.13179" />
    <line
         style="stroke:currentColor;stroke-width:0.1;stroke-linecap:round;stroke-linejoin:round"
         id="line324"
         y2="19.555277"
         x2="132.30759"
         y1="19.555277"
         x1="126.92538" />
    <line
         style="stroke:currentColor;stroke-width:0.1;stroke-linecap:round;stroke-linejoin:round"
         id="line326"
         y2="18.555277"
         x2="132.80759"
         y1="19.555277"
         x1="132.30759" />
    <line
         style="stroke:currentColor;stroke-width:0.1;stroke-linecap:round;stroke-linejoin:round"
         id="line328"
         y2="18.555277"
         x2="126.42538"
         y1="19.555277"
         x1="126.92538" />
    <line
         style="stroke:currentColor;stroke-width:0.1;stroke-linecap:round;stroke-linejoin:round"
         id="line330"
         y2="20.055277"
         x2="119.10107"
         y1="20.055277"
         x1="113.71887" />
    <line
         style="stroke:currentColor;stroke-width:0.1;stroke-linecap:round;stroke-linejoin:round"
         id="line332"
         y2="19.055277"
         x2="119.60107"
         y1="20.055277"
         x1="119.10107" />
    <line
         style="stroke:currentColor;stroke-width:0.1;stroke-linecap:round;stroke-linejoin:round"
         id="line334"
         y2="19.055277"
         x2="113.21887"
         y1="20.055277"
         x1="113.71887" />
    <line
         style="stroke:currentColor;stroke-width:0.1;stroke-linecap:round;stroke-linejoin:round"
         id="line336"
         y2="21.555277"
         x2="105.89467"
         y1="21.555277"
         x1="100.51247" />
    <line
         style="stroke:currentColor;stroke-width:0.1;stroke-linecap:round;stroke-linejoin:round"
         id="line338"
         y2="20.555277"
         x2="106.39467"
         y1="21.555277"
         x1="105.89467" />
    <line
         style="stroke:currentColor;stroke-width:0.1;stroke-linecap:round;stroke-linejoin:round"
         id="line340"
         y2="20.555277"
         x2="100.01247"
         y1="21.555277"
         x1="100.51247" />
    <line
         style="stroke:currentColor;stroke-width:0.1;stroke-linecap:round;stroke-linejoin:round"
         id="line342"
         y2="19.555277"
         x2="89.364677"
         y1="19.555277"
         x1="83.982475" />
    <line
         style="stroke:currentColor;stroke-width:0.1;stroke-linecap:round;stroke-linejoin:round"
         id="line344"
         y2="18.555277"
         x2="89.864677"
         y1="19.555277"
         x1="89.364677" />
    <line
         style="stroke:currentColor;stroke-width:0.1;stroke-linecap:round;stroke-linejoin:round"
         id="line346"
         y2="18.555277"
         x2="83.482475"
         y1="19.555277"
         x1="83.982475" />
    <line
         style="stroke:currentColor;stroke-width:0.1;stroke-linecap:round;stroke-linejoin:round"
         id="line348"
         y2="19.555277"
         x2="76.158272"
         y1="19.555277"
         x1="70.776077" />
    <line
         style="stroke:currentColor;stroke-width:0.1;stroke-linecap:round;stroke-linejoin:round"
         id="line350"
         y2="18.555277"
         x2="76.658272"
         y1="19.555277"
         x1="76.158272" />
    <line
         style="stroke:currentColor;stroke-width:0.1;stroke-linecap:round;stroke-linejoin:round"
         id="line352"
         y2="18.555277"
         x2="70.276077"
         y1="19.555277"
         x1="70.776077" />
    <line
         style="stroke:currentColor;stroke-width:0.1;stroke-linecap:round;stroke-linejoin:round"
         id="line354"
         y2="20.055277"
         x2="62.951778"
         y1="20.055277"
         x1="57.56958" />
    <line
         style="stroke:currentColor;stroke-width:0.1;stroke-linecap:round;stroke-linejoin:round"
         id="line356"
         y2="19.055277"
         x2="63.451778"
         y1="20.055277"
         x1="62.951778" />
    <line
         style="stroke:currentColor;stroke-width:0.1;stroke-linecap:round;stroke-linejoin:round"
         id="line358"
         y2="19.055277"
         x2="57.06958"
         y1="20.055277"
         x1="57.56958" />
    <line
         style="stroke:currentColor;stroke-width:0.1;stroke-linecap:round;stroke-linejoin:round"
         id="line360"
         y2="21.555277"
         x2="49.74538"
         y1="21.555277"
         x1="44.363178" />
    <line
         style="stroke:currentColor;stroke-width:0.1;stroke-linecap:round;stroke-linejoin:round"
         id="line362"
         y2="20.555277"
         x2="50.24538"
         y1="21.555277"
         x1="49.74538" />
    <line
         style="stroke:currentColor;stroke-width:0.1;stroke-linecap:round;stroke-linejoin:round"
         id="line364"
         y2="20.555277"
         x2="43.863178"
         y1="21.555277"
         x1="44.363178" />
    <line
         style="stroke:currentColor;stroke-width:0.1;stroke-linecap:round;stroke-linejoin:round"
         id="line366"
         y2="23.055277"
         x2="36.538879"
         y1="23.055277"
         x1="31.156675" />
    <line
         style="stroke:currentColor;stroke-width:0.1;stroke-linecap:round;stroke-linejoin:round"
         id="line368"
         y2="22.055277"
         x2="37.038879"
         y1="23.055277"
         x1="36.538879" />
    <line
         style="stroke:currentColor;stroke-width:0.1;stroke-linecap:round;stroke-linejoin:round"
         id="line370"
         y2="22.055277"
         x2="30.656675"
         y1="23.055277"
         x1="31.156675" />
    <line
         style="stroke:currentColor;stroke-width:0.1;stroke-linecap:round;stroke-linejoin:round"
         id="line372"
         y2="24.555277"
         x2="23.332478"
         y1="24.555277"
         x1="17.950277" />
    <line
         style="stroke:currentColor;stroke-width:0.1;stroke-linecap:round;stroke-linejoin:round"
         id="line374"
         y2="23.555277"
         x2="23.832478"
         y1="24.555277"
         x1="23.332478" />
    <line
         style="stroke:currentColor;stroke-width:0.1;stroke-linecap:round;stroke-linejoin:round"
         id="line376"
         y2="23.555277"
         x2="17.450277"
         y1="24.555277"
         x1="17.950277" />
    <path
         style="fill:currentColor"
         id="path378"
         d="m 197.71977,8.3072767 c -0.2,0 -0.276,0.172 -0.276,0.352 0,0.308 0.228,0.544 0.536,0.544 0.2,0 0.276,-0.172 0.276,-0.352 0,-0.308 -0.228,-0.544 -0.536,-0.544 z m 1.12,0.448 c 0,0.172 -0.14,0.304 -0.292,0.388 -0.212,0.12 -0.452,0.164 -0.696,0.164 -0.244,0 -0.488,-0.044 -0.7,-0.164 -0.152,-0.084 -0.292,-0.216 -0.292,-0.388 0,-0.172 0.14,-0.304 0.292,-0.388 0.212,-0.12 0.456,-0.164 0.7,-0.164 0.244,0 0.484,0.044 0.696,0.164 0.152,0.084 0.292,0.216 0.292,0.388 z" />
    <text
         y="7.7451758"
         x="196.85979"
         style="font-size:2.20009995px;font-family:droid_serifbold, Times, serif;text-anchor:start;fill:currentColor"
         id="text380"
         font-size="2.2001">
        <tspan
             id="tspan382">f</tspan>
    </text>
    <path
         style="fill:currentColor"
         id="path384"
         d="m 195.81777,8.5912767 -0.004,0.264 0,0.044 c 0,0.088 0.004,0.176 0.016,0.264 0.18,-0.152 0.372,-0.32 0.372,-0.556 0,-0.132 -0.056,-0.268 -0.172,-0.268 -0.124,0 -0.208,0.12 -0.212,0.252 z m -0.168,0.716 -0.048,-2.3800004 c 0.032,-0.02 0.072,-0.032 0.108,-0.032 0.036,0 0.076,0.012 0.108,0.032 l -0.028,1.3800004 c 0.1,-0.084 0.232,-0.136 0.364,-0.136 0.208,0 0.356,0.192 0.356,0.408 0,0.32 -0.344,0.468 -0.588,0.676 -0.06,0.052 -0.096,0.152 -0.18,0.152 -0.052,0 -0.092,-0.044 -0.092,-0.1 z" />
    <path
         style="fill:currentColor"
         id="path386"
         d="m 160.60057,12.591277 -0.004,0.264 0,0.044 c 0,0.088 0.004,0.176 0.016,0.264 0.18,-0.152 0.372,-0.32 0.372,-0.556 0,-0.132 -0.056,-0.268 -0.172,-0.268 -0.124,0 -0.208,0.12 -0.212,0.252 z m -0.168,0.716 -0.048,-2.38 c 0.032,-0.02 0.072,-0.032 0.108,-0.032 0.036,0 0.076,0.012 0.108,0.032 l -0.028,1.38 c 0.1,-0.084 0.232,-0.136 0.364,-0.136 0.208,0 0.356,0.192 0.356,0.408 0,0.32 -0.344,0.468 -0.588,0.676 -0.06,0.052 -0.096,0.152 -0.18,0.152 -0.052,0 -0.092,-0.044 -0.092,-0.1 z" />
    <path
         style="fill:currentColor"
         id="path388"
         d="m 166.90467,11.807277 c -0.2,0 -0.276,0.172 -0.276,0.352 0,0.308 0.228,0.544 0.536,0.544 0.2,0 0.276,-0.172 0.276,-0.352 0,-0.308 -0.228,-0.544 -0.536,-0.544 z m 1.12,0.448 c 0,0.172 -0.14,0.304 -0.292,0.388 -0.212,0.12 -0.452,0.164 -0.696,0.164 -0.244,0 -0.488,-0.044 -0.7,-0.164 -0.152,-0.084 -0.292,-0.216 -0.292,-0.388 0,-0.172 0.14,-0.304 0.292,-0.388 0.212,-0.12 0.456,-0.164 0.7,-0.164 0.244,0 0.484,0.044 0.696,0.164 0.152,0.084 0.292,0.216 0.292,0.388 z" />
    <text
         y="21.328577"
         x="166.04468"
         style="font-size:1.74609995px;font-family:droid_serifbold, Times, serif;text-anchor:start;fill:currentColor"
         id="text390"
         font-size="1.7461">
        <tspan
             id="tspan392">semitone</tspan>
    </text>
    <path
         style="fill:currentColor"
         id="path394"
         d="m 158.10037,12.807277 c -0.2,0 -0.276,0.172 -0.276,0.352 0,0.308 0.228,0.544 0.536,0.544 0.2,0 0.276,-0.172 0.276,-0.352 0,-0.308 -0.228,-0.544 -0.536,-0.544 z m 1.12,0.448 c 0,0.172 -0.14,0.304 -0.292,0.388 -0.212,0.12 -0.452,0.164 -0.696,0.164 -0.244,0 -0.488,-0.044 -0.7,-0.164 -0.152,-0.084 -0.292,-0.216 -0.292,-0.388 0,-0.172 0.14,-0.304 0.292,-0.388 0.212,-0.12 0.456,-0.164 0.7,-0.164 0.244,0 0.484,0.044 0.696,0.164 0.152,0.084 0.292,0.216 0.292,0.388 z" />
    <text
         y="12.245176"
         x="157.24039"
         style="font-size:2.20009995px;font-family:droid_serifbold, Times, serif;text-anchor:start;fill:currentColor"
         id="text396"
         font-size="2.2001">
        <tspan
             id="tspan398">f</tspan>
    </text>
    <path
         style="fill:currentColor"
         id="path400"
         d="m 156.19837,13.091277 -0.004,0.264 0,0.044 c 0,0.088 0.004,0.176 0.016,0.264 0.18,-0.152 0.372,-0.32 0.372,-0.556 0,-0.132 -0.056,-0.268 -0.172,-0.268 -0.124,0 -0.208,0.12 -0.212,0.252 z m -0.168,0.716 -0.048,-2.38 c 0.032,-0.02 0.072,-0.032 0.108,-0.032 0.036,0 0.076,0.012 0.108,0.032 l -0.028,1.38 c 0.1,-0.084 0.232,-0.136 0.364,-0.136 0.208,0 0.356,0.192 0.356,0.408 0,0.32 -0.344,0.468 -0.588,0.676 -0.06,0.052 -0.096,0.152 -0.18,0.152 -0.052,0 -0.092,-0.044 -0.092,-0.1 z" />
    <path
         style="fill:currentColor"
         id="path402"
         d="m 162.50257,12.307277 c -0.2,0 -0.276,0.172 -0.276,0.352 0,0.308 0.228,0.544 0.536,0.544 0.2,0 0.276,-0.172 0.276,-0.352 0,-0.308 -0.228,-0.544 -0.536,-0.544 z m 1.12,0.448 c 0,0.172 -0.14,0.304 -0.292,0.388 -0.212,0.12 -0.452,0.164 -0.696,0.164 -0.244,0 -0.488,-0.044 -0.7,-0.164 -0.152,-0.084 -0.292,-0.216 -0.292,-0.388 0,-0.172 0.14,-0.304 0.292,-0.388 0.212,-0.12 0.456,-0.164 0.7,-0.164 0.244,0 0.484,0.044 0.696,0.164 0.152,0.084 0.292,0.216 0.292,0.388 z" />
    <path
         style="fill:currentColor"
         id="path404"
         d="m 173.80697,11.091277 -0.004,0.264 0,0.044 c 0,0.088 0.004,0.176 0.016,0.264 0.18,-0.152 0.372,-0.32 0.372,-0.556 0,-0.132 -0.056,-0.268 -0.172,-0.268 -0.124,0 -0.208,0.12 -0.212,0.252 z m -0.168,0.716 -0.048,-2.3800003 c 0.032,-0.02 0.072,-0.032 0.108,-0.032 0.036,0 0.076,0.012 0.108,0.032 l -0.028,1.3800003 c 0.1,-0.084 0.232,-0.136 0.364,-0.136 0.208,0 0.356,0.192 0.356,0.408 0,0.32 -0.344,0.468 -0.588,0.676 -0.06,0.052 -0.096,0.152 -0.18,0.152 -0.052,0 -0.092,-0.044 -0.092,-0.1 z" />
    <path
         style="fill:currentColor"
         id="path406"
         d="m 180.11117,10.307277 c -0.2,0 -0.276,0.172 -0.276,0.352 0,0.308 0.228,0.544 0.536,0.544 0.2,0 0.276,-0.172 0.276,-0.352 0,-0.308 -0.228,-0.544 -0.536,-0.544 z m 1.12,0.448 c 0,0.172 -0.14,0.304 -0.292,0.388 -0.212,0.12 -0.452,0.164 -0.696,0.164 -0.244,0 -0.488,-0.044 -0.7,-0.164 -0.152,-0.084 -0.292,-0.216 -0.292,-0.388 0,-0.172 0.14,-0.304 0.292,-0.388 0.212,-0.12 0.456,-0.164 0.7,-0.164 0.244,0 0.484,0.044 0.696,0.164 0.152,0.084 0.292,0.216 0.292,0.388 z" />
    <text
         y="21.328577"
         x="179.25119"
         style="font-size:1.74609995px;font-family:droid_serifbold, Times, serif;text-anchor:start;fill:currentColor"
         id="text408"
         font-size="1.7461">
        <tspan
             id="tspan410">semitone</tspan>
    </text>
    <path
         style="fill:currentColor"
         id="path412"
         d="m 171.30687,11.307277 c -0.2,0 -0.276,0.172 -0.276,0.352 0,0.308 0.228,0.544 0.536,0.544 0.2,0 0.276,-0.172 0.276,-0.352 0,-0.308 -0.228,-0.544 -0.536,-0.544 z m 1.12,0.448 c 0,0.172 -0.14,0.304 -0.292,0.388 -0.212,0.12 -0.452,0.164 -0.696,0.164 -0.244,0 -0.488,-0.044 -0.7,-0.164 -0.152,-0.084 -0.292,-0.216 -0.292,-0.388 0,-0.172 0.14,-0.304 0.292,-0.388 0.212,-0.12 0.456,-0.164 0.7,-0.164 0.244,0 0.484,0.044 0.696,0.164 0.152,0.084 0.292,0.216 0.292,0.388 z" />
    <text
         y="10.745176"
         x="170.44688"
         style="font-size:2.20009995px;font-family:droid_serifbold, Times, serif;text-anchor:start;fill:currentColor"
         id="text414"
         font-size="2.2001">
        <tspan
             id="tspan416">f</tspan>
    </text>
    <text
         y="4.705276"
         x="170.44688"
         style="font-size:2.20009995px;font-family:droid_serifbold, Times, serif;text-anchor:start;fill:currentColor"
         id="text418"
         font-size="2.2001">
        <tspan
             id="tspan420">D</tspan>
    </text>
    <path
         style="fill:currentColor"
         id="path422"
         d="m 172.98207,4.5412763 -0.004,0.264 0,0.044 c 0,0.088 0.004,0.176 0.016,0.264 0.18,-0.152 0.372,-0.32 0.372,-0.556 0,-0.132 -0.056,-0.268 -0.172,-0.268 -0.124,0 -0.208,0.12 -0.212,0.252 z m -0.168,0.716 -0.048,-2.38 c 0.032,-0.02 0.072,-0.032 0.108,-0.032 0.036,0 0.076,0.012 0.108,0.032 l -0.028,1.38 c 0.1,-0.084 0.232,-0.136 0.364,-0.136 0.208,0 0.356,0.192 0.356,0.408 0,0.32 -0.344,0.468 -0.588,0.676 -0.06,0.052 -0.096,0.152 -0.18,0.152 -0.052,0 -0.092,-0.044 -0.092,-0.1 z" />
    <text
         y="4.705276"
         x="174.27408"
         style="font-size:2.20009995px;font-family:droid_serifbold, Times, serif;text-anchor:start;fill:currentColor"
         id="text424"
         font-size="2.2001">
        <tspan
             id="tspan426">-</tspan>
    </text>
    <text
         y="4.705276"
         x="175.59108"
         style="font-style:italic;font-size:2.20009995px;font-family:droid_serifbold, Times, serif;text-anchor:start;fill:currentColor"
         id="text428"
         font-size="2.2001"
         font-style="italic">
        <tspan
             id="tspan430">qablītum</tspan>
    </text>
    <text
         y="4.705276"
         x="185.40979"
         style="font-size:2.20009995px;font-family:droid_serifbold, Times, serif;text-anchor:start;fill:currentColor"
         id="text440"
         font-size="2.2001">
        <tspan
             id="tspan442">(6</tspan>
    </text>
    <path
         style="fill:currentColor"
         id="path444"
         d="m 188.18397,4.5412763 -0.004,0.264 0,0.044 c 0,0.088 0.004,0.176 0.016,0.264 0.18,-0.152 0.372,-0.32 0.372,-0.556 0,-0.132 -0.056,-0.268 -0.172,-0.268 -0.124,0 -0.208,0.12 -0.212,0.252 z m -0.168,0.716 -0.048,-2.38 c 0.032,-0.02 0.072,-0.032 0.108,-0.032 0.036,0 0.076,0.012 0.108,0.032 l -0.028,1.38 c 0.1,-0.084 0.232,-0.136 0.364,-0.136 0.208,0 0.356,0.192 0.356,0.408 0,0.32 -0.344,0.468 -0.588,0.676 -0.06,0.052 -0.096,0.152 -0.18,0.152 -0.052,0 -0.092,-0.044 -0.092,-0.1 z" />
    <text
         y="4.705276"
         x="189.47598"
         style="font-size:2.20009995px;font-family:droid_serifbold, Times, serif;text-anchor:start;fill:currentColor"
         id="text446"
         font-size="2.2001">
        <tspan
             id="tspan448">)</tspan>
    </text>
    <path
         style="fill:currentColor"
         id="path450"
         d="m 169.40487,11.591277 -0.004,0.264 0,0.044 c 0,0.088 0.004,0.176 0.016,0.264 0.18,-0.152 0.372,-0.32 0.372,-0.556 0,-0.132 -0.056,-0.268 -0.172,-0.268 -0.124,0 -0.208,0.12 -0.212,0.252 z m -0.168,0.716 -0.048,-2.3800003 c 0.032,-0.02 0.072,-0.032 0.108,-0.032 0.036,0 0.076,0.012 0.108,0.032 l -0.028,1.3800003 c 0.1,-0.084 0.232,-0.136 0.364,-0.136 0.208,0 0.356,0.192 0.356,0.408 0,0.32 -0.344,0.468 -0.588,0.676 -0.06,0.052 -0.096,0.152 -0.18,0.152 -0.052,0 -0.092,-0.044 -0.092,-0.1 z" />
    <path
         style="fill:currentColor"
         id="path452"
         d="m 175.70897,10.807277 c -0.2,0 -0.276,0.172 -0.276,0.352 0,0.308 0.228,0.544 0.536,0.544 0.2,0 0.276,-0.172 0.276,-0.352 0,-0.308 -0.228,-0.544 -0.536,-0.544 z m 1.12,0.448 c 0,0.172 -0.14,0.304 -0.292,0.388 -0.212,0.12 -0.452,0.164 -0.696,0.164 -0.244,0 -0.488,-0.044 -0.7,-0.164 -0.152,-0.084 -0.292,-0.216 -0.292,-0.388 0,-0.172 0.14,-0.304 0.292,-0.388 0.212,-0.12 0.456,-0.164 0.7,-0.164 0.244,0 0.484,0.044 0.696,0.164 0.152,0.084 0.292,0.216 0.292,0.388 z" />
    <path
         style="fill:currentColor"
         id="path454"
         d="m 40.320978,19.807277 c -0.2,0 -0.276,0.172 -0.276,0.352 0,0.308 0.228,0.544 0.536,0.544 0.2,0 0.276,-0.172 0.276,-0.352 0,-0.308 -0.228,-0.544 -0.536,-0.544 z m 1.12,0.448 c 0,0.172 -0.14,0.304 -0.292,0.388 -0.212,0.12 -0.452,0.164 -0.696,0.164 -0.244,0 -0.488,-0.044 -0.7,-0.164 -0.152,-0.084 -0.292,-0.216 -0.292,-0.388 0,-0.172 0.14,-0.304 0.292,-0.388 0.212,-0.12 0.456,-0.164 0.7,-0.164 0.244,0 0.484,0.044 0.696,0.164 0.152,0.084 0.292,0.216 0.292,0.388 z" />
    <path
         style="fill:currentColor"
         id="path456"
         d="m 38.874978,21.503277 c 0,0.04 -0.032,0.076 -0.072,0.076 -0.04,0 -0.076,-0.036 -0.076,-0.076 l 0,-0.58 -0.332,0.124 0,0.632 c 0,0.04 -0.036,0.076 -0.076,0.076 -0.04,0 -0.072,-0.036 -0.072,-0.076 l 0,-0.58 -0.128,0.048 c -0.008,0.004 -0.02,0.004 -0.028,0.004 -0.044,0 -0.08,-0.036 -0.08,-0.08 l 0,-0.24 c 0,-0.032 0.02,-0.064 0.052,-0.076 l 0.184,-0.064 0,-0.64 -0.128,0.044 c -0.008,0.004 -0.02,0.004 -0.028,0.004 -0.044,0 -0.08,-0.036 -0.08,-0.08 l 0,-0.24 c 0,-0.032 0.02,-0.06 0.052,-0.072 l 0.184,-0.068 0,-0.632 c 0,-0.04 0.032,-0.076 0.072,-0.076 0.04,0 0.076,0.036 0.076,0.076 l 0,0.58 0.332,-0.124 0,-0.632 c 0,-0.04 0.036,-0.076 0.076,-0.076 0.04,0 0.072,0.036 0.072,0.076 l 0,0.58 0.128,-0.048 c 0.008,-0.004 0.02,-0.004 0.028,-0.004 0.044,0 0.08,0.036 0.08,0.08 l 0,0.24 c 0,0.032 -0.02,0.064 -0.052,0.076 l -0.184,0.064 0,0.64 0.128,-0.044 c 0.008,-0.004 0.02,-0.004 0.028,-0.004 0.044,0 0.08,0.036 0.08,0.08 l 0,0.24 c 0,0.032 -0.02,0.06 -0.052,0.072 l -0.184,0.068 0,0.632 z m -0.48,-1.508 0,0.64 0.332,-0.12 0,-0.64 z" />
    <text
         y="24.828577"
         x="30.656675"
         style="font-size:1.74609995px;font-family:droid_serifbold, Times, serif;text-anchor:start;fill:currentColor"
         id="text458"
         font-size="1.7461">
        <tspan
             id="tspan460">semitone</tspan>
    </text>
    <path
         style="fill:currentColor"
         id="path462"
         d="m 30.070678,22.503277 c 0,0.04 -0.032,0.076 -0.072,0.076 -0.04,0 -0.076,-0.036 -0.076,-0.076 l 0,-0.58 -0.332,0.124 0,0.632 c 0,0.04 -0.036,0.076 -0.076,0.076 -0.04,0 -0.072,-0.036 -0.072,-0.076 l 0,-0.58 -0.128,0.048 c -0.008,0.004 -0.02,0.004 -0.028,0.004 -0.044,0 -0.08,-0.036 -0.08,-0.08 l 0,-0.24 c 0,-0.032 0.02,-0.064 0.052,-0.076 l 0.184,-0.064 0,-0.64 -0.128,0.044 c -0.008,0.004 -0.02,0.004 -0.028,0.004 -0.044,0 -0.08,-0.036 -0.08,-0.08 l 0,-0.24 c 0,-0.032 0.02,-0.06 0.052,-0.072 l 0.184,-0.068 0,-0.632 c 0,-0.04 0.032,-0.076 0.072,-0.076 0.04,0 0.076,0.036 0.076,0.076 l 0,0.58 0.332,-0.124 0,-0.632 c 0,-0.04 0.036,-0.076 0.076,-0.076 0.04,0 0.072,0.036 0.072,0.076 l 0,0.58 0.128,-0.048 c 0.008,-0.004 0.02,-0.004 0.028,-0.004 0.044,0 0.08,0.036 0.08,0.08 l 0,0.24 c 0,0.032 -0.02,0.064 -0.052,0.076 l -0.184,0.064 0,0.64 0.128,-0.044 c 0.008,-0.004 0.02,-0.004 0.028,-0.004 0.044,0 0.08,0.036 0.08,0.08 l 0,0.24 c 0,0.032 -0.02,0.06 -0.052,0.072 l -0.184,0.068 0,0.632 z m -0.48,-1.508 0,0.64 0.332,-0.12 0,-0.64 z" />
    <path
         style="fill:currentColor"
         id="path464"
         d="m 35.918878,20.307277 c -0.2,0 -0.276,0.172 -0.276,0.352 0,0.308 0.228,0.544 0.536,0.544 0.2,0 0.276,-0.172 0.276,-0.352 0,-0.308 -0.228,-0.544 -0.536,-0.544 z m 1.12,0.448 c 0,0.172 -0.14,0.304 -0.292,0.388 -0.212,0.12 -0.452,0.164 -0.696,0.164 -0.244,0 -0.488,-0.044 -0.7,-0.164 -0.152,-0.084 -0.292,-0.216 -0.292,-0.388 0,-0.172 0.14,-0.304 0.292,-0.388 0.212,-0.12 0.456,-0.164 0.7,-0.164 0.244,0 0.484,0.044 0.696,0.164 0.152,0.084 0.292,0.216 0.292,0.388 z" />
    <text
         y="13.705276"
         x="35.05888"
         style="font-size:2.20009995px;font-family:droid_serifbold, Times, serif;text-anchor:start;fill:currentColor"
         id="text466"
         font-size="2.2001">
        <tspan
             id="tspan468">f</tspan>
    </text>
    <text
         y="10.705276"
         x="35.05888"
         style="font-size:2.20009995px;font-family:droid_serifbold, Times, serif;text-anchor:start;fill:currentColor"
         id="text470"
         font-size="2.2001">
        <tspan
             id="tspan472">B</tspan>
    </text>
    <text
         y="10.705276"
         x="37.26358"
         style="font-size:2.20009995px;font-family:droid_serifbold, Times, serif;text-anchor:start;fill:currentColor"
         id="text474"
         font-size="2.2001">
        <tspan
             id="tspan476">-</tspan>
    </text>
    <text
         y="10.705276"
         x="38.580578"
         style="font-style:italic;font-size:2.20009995px;font-family:droid_serifbold, Times, serif;text-anchor:start;fill:currentColor"
         id="text478"
         font-size="2.2001"
         font-style="italic">
        <tspan
             id="tspan480">qablītum</tspan>
    </text>
    <text
         y="10.705276"
         x="48.399281"
         style="font-size:2.20009995px;font-family:droid_serifbold, Times, serif;text-anchor:start;fill:currentColor"
         id="text490"
         font-size="2.2001">
        <tspan
             id="tspan492">(4</tspan>
    </text>
    <path
         style="fill:currentColor"
         id="path494"
         d="m 51.809478,11.953277 c 0,0.04 -0.032,0.076 -0.072,0.076 -0.04,0 -0.076,-0.036 -0.076,-0.076 l 0,-0.58 -0.332,0.124 0,0.632 c 0,0.04 -0.036,0.076 -0.076,0.076 -0.04,0 -0.072,-0.036 -0.072,-0.076 l 0,-0.58 -0.128,0.048 c -0.008,0.004 -0.02,0.004 -0.028,0.004 -0.044,0 -0.08,-0.036 -0.08,-0.08 l 0,-0.24 c 0,-0.032 0.02,-0.064 0.052,-0.076 l 0.184,-0.064 0,-0.64 -0.128,0.044 c -0.008,0.004 -0.02,0.004 -0.028,0.004 -0.044,0 -0.08,-0.036 -0.08,-0.08 l 0,-0.24 c 0,-0.032 0.02,-0.06 0.052,-0.072 l 0.184,-0.068 0,-0.6320003 c 0,-0.04 0.032,-0.076 0.072,-0.076 0.04,0 0.076,0.036 0.076,0.076 l 0,0.5800003 0.332,-0.1240003 0,-0.632 c 0,-0.04 0.036,-0.076 0.076,-0.076 0.04,0 0.072,0.036 0.072,0.076 l 0,0.58 0.128,-0.048 c 0.008,-0.004 0.02,-0.004 0.028,-0.004 0.044,0 0.08,0.036 0.08,0.08 l 0,0.2400003 c 0,0.032 -0.02,0.064 -0.052,0.076 l -0.184,0.064 0,0.64 0.128,-0.044 c 0.008,-0.004 0.02,-0.004 0.028,-0.004 0.044,0 0.08,0.036 0.08,0.08 l 0,0.24 c 0,0.032 -0.02,0.06 -0.052,0.072 l -0.184,0.068 0,0.632 z m -0.48,-1.508 0,0.64 0.332,-0.12 0,-0.64 z" />
    <text
         y="10.705276"
         x="52.645477"
         style="font-size:2.20009995px;font-family:droid_serifbold, Times, serif;text-anchor:start;fill:currentColor"
         id="text496"
         font-size="2.2001">
        <tspan
             id="tspan498">)</tspan>
    </text>
    <path
         style="fill:currentColor"
         id="path500"
         d="m 53.527478,18.307277 c -0.2,0 -0.276,0.172 -0.276,0.352 0,0.308 0.228,0.544 0.536,0.544 0.2,0 0.276,-0.172 0.276,-0.352 0,-0.308 -0.228,-0.544 -0.536,-0.544 z m 1.12,0.448 c 0,0.172 -0.14,0.304 -0.292,0.388 -0.212,0.12 -0.452,0.164 -0.696,0.164 -0.244,0 -0.488,-0.044 -0.7,-0.164 -0.152,-0.084 -0.292,-0.216 -0.292,-0.388 0,-0.172 0.14,-0.304 0.292,-0.388 0.212,-0.12 0.456,-0.164 0.7,-0.164 0.244,0 0.484,0.044 0.696,0.164 0.152,0.084 0.292,0.216 0.292,0.388 z" />
    <path
         style="fill:currentColor"
         id="path502"
         d="m 52.081478,20.003277 c 0,0.04 -0.032,0.076 -0.072,0.076 -0.04,0 -0.076,-0.036 -0.076,-0.076 l 0,-0.58 -0.332,0.124 0,0.632 c 0,0.04 -0.036,0.076 -0.076,0.076 -0.04,0 -0.072,-0.036 -0.072,-0.076 l 0,-0.58 -0.128,0.048 c -0.008,0.004 -0.02,0.004 -0.028,0.004 -0.044,0 -0.08,-0.036 -0.08,-0.08 l 0,-0.24 c 0,-0.032 0.02,-0.064 0.052,-0.076 l 0.184,-0.064 0,-0.64 -0.128,0.044 c -0.008,0.004 -0.02,0.004 -0.028,0.004 -0.044,0 -0.08,-0.036 -0.08,-0.08 l 0,-0.24 c 0,-0.032 0.02,-0.06 0.052,-0.072 l 0.184,-0.068 0,-0.632 c 0,-0.04 0.032,-0.076 0.072,-0.076 0.04,0 0.076,0.036 0.076,0.076 l 0,0.58 0.332,-0.124 0,-0.632 c 0,-0.04 0.036,-0.076 0.076,-0.076 0.04,0 0.072,0.036 0.072,0.076 l 0,0.58 0.128,-0.048 c 0.008,-0.004 0.02,-0.004 0.028,-0.004 0.044,0 0.08,0.036 0.08,0.08 l 0,0.24 c 0,0.032 -0.02,0.064 -0.052,0.076 l -0.184,0.064 0,0.64 0.128,-0.044 c 0.008,-0.004 0.02,-0.004 0.028,-0.004 0.044,0 0.08,0.036 0.08,0.08 l 0,0.24 c 0,0.032 -0.02,0.06 -0.052,0.072 l -0.184,0.068 0,0.632 z m -0.48,-1.508 0,0.64 0.332,-0.12 0,-0.64 z" />
    <path
         style="fill:currentColor"
         id="path504"
         d="m 44.723178,19.307277 c -0.2,0 -0.276,0.172 -0.276,0.352 0,0.308 0.228,0.544 0.536,0.544 0.2,0 0.276,-0.172 0.276,-0.352 0,-0.308 -0.228,-0.544 -0.536,-0.544 z m 1.12,0.448 c 0,0.172 -0.14,0.304 -0.292,0.388 -0.212,0.12 -0.452,0.164 -0.696,0.164 -0.244,0 -0.488,-0.044 -0.7,-0.164 -0.152,-0.084 -0.292,-0.216 -0.292,-0.388 0,-0.172 0.14,-0.304 0.292,-0.388 0.212,-0.12 0.456,-0.164 0.7,-0.164 0.244,0 0.484,0.044 0.696,0.164 0.152,0.084 0.292,0.216 0.292,0.388 z" />
    <text
         y="23.328577"
         x="43.863178"
         style="font-size:1.74609995px;font-family:droid_serifbold, Times, serif;text-anchor:start;fill:currentColor"
         id="text506"
         font-size="1.7461">
        <tspan
             id="tspan508">semitone</tspan>
    </text>
    <path
         style="fill:currentColor"
         id="path510"
         d="m 43.277178,21.003277 c 0,0.04 -0.032,0.076 -0.072,0.076 -0.04,0 -0.076,-0.036 -0.076,-0.076 l 0,-0.58 -0.332,0.124 0,0.632 c 0,0.04 -0.036,0.076 -0.076,0.076 -0.04,0 -0.072,-0.036 -0.072,-0.076 l 0,-0.58 -0.128,0.048 c -0.008,0.004 -0.02,0.004 -0.028,0.004 -0.044,0 -0.08,-0.036 -0.08,-0.08 l 0,-0.24 c 0,-0.032 0.02,-0.064 0.052,-0.076 l 0.184,-0.064 0,-0.64 -0.128,0.044 c -0.008,0.004 -0.02,0.004 -0.028,0.004 -0.044,0 -0.08,-0.036 -0.08,-0.08 l 0,-0.24 c 0,-0.032 0.02,-0.06 0.052,-0.072 l 0.184,-0.068 0,-0.632 c 0,-0.04 0.032,-0.076 0.072,-0.076 0.04,0 0.076,0.036 0.076,0.076 l 0,0.58 0.332,-0.124 0,-0.632 c 0,-0.04 0.036,-0.076 0.076,-0.076 0.04,0 0.072,0.036 0.072,0.076 l 0,0.58 0.128,-0.048 c 0.008,-0.004 0.02,-0.004 0.028,-0.004 0.044,0 0.08,0.036 0.08,0.08 l 0,0.24 c 0,0.032 -0.02,0.064 -0.052,0.076 l -0.184,0.064 0,0.64 0.128,-0.044 c 0.008,-0.004 0.02,-0.004 0.028,-0.004 0.044,0 0.08,0.036 0.08,0.08 l 0,0.24 c 0,0.032 -0.02,0.06 -0.052,0.072 l -0.184,0.068 0,0.632 z m -0.48,-1.508 0,0.64 0.332,-0.12 0,-0.64 z" />
    <path
         style="fill:currentColor"
         id="path512"
         d="m 49.125278,18.807277 c -0.2,0 -0.276,0.172 -0.276,0.352 0,0.308 0.228,0.544 0.536,0.544 0.2,0 0.276,-0.172 0.276,-0.352 0,-0.308 -0.228,-0.544 -0.536,-0.544 z m 1.12,0.448 c 0,0.172 -0.14,0.304 -0.292,0.388 -0.212,0.12 -0.452,0.164 -0.696,0.164 -0.244,0 -0.488,-0.044 -0.7,-0.164 -0.152,-0.084 -0.292,-0.216 -0.292,-0.388 0,-0.172 0.14,-0.304 0.292,-0.388 0.212,-0.12 0.456,-0.164 0.7,-0.164 0.244,0 0.484,0.044 0.696,0.164 0.152,0.084 0.292,0.216 0.292,0.388 z" />
    <text
         y="13.705276"
         x="48.265278"
         style="font-size:2.20009995px;font-family:droid_serifbold, Times, serif;text-anchor:start;fill:currentColor"
         id="text514"
         font-size="2.2001">
        <tspan
             id="tspan516">f</tspan>
    </text>
    <path
         style="fill:currentColor"
         id="path518"
         d="m 13.908078,22.807277 c -0.2,0 -0.276,0.172 -0.276,0.352 0,0.308 0.228,0.544 0.536,0.544 0.2,0 0.276,-0.172 0.276,-0.352 0,-0.308 -0.228,-0.544 -0.536,-0.544 z m 1.12,0.448 c 0,0.172 -0.14,0.304 -0.292,0.388 -0.212,0.12 -0.452,0.164 -0.696,0.164 -0.244,0 -0.488,-0.044 -0.7,-0.164 -0.152,-0.084 -0.292,-0.216 -0.292,-0.388 0,-0.172 0.14,-0.304 0.292,-0.388 0.212,-0.12 0.456,-0.164 0.7,-0.164 0.244,0 0.484,0.044 0.696,0.164 0.152,0.084 0.292,0.216 0.292,0.388 z" />
    <path
         style="fill:currentColor"
         id="path520"
         d="m 12.462078,24.503277 c 0,0.04 -0.032,0.076 -0.072,0.076 -0.04,0 -0.076,-0.036 -0.076,-0.076 l 0,-0.58 -0.332,0.124 0,0.632 c 0,0.04 -0.036,0.076 -0.076,0.076 -0.04,0 -0.072,-0.036 -0.072,-0.076 l 0,-0.58 -0.128,0.048 c -0.008,0.004 -0.02,0.004 -0.028,0.004 -0.044,0 -0.08,-0.036 -0.08,-0.08 l 0,-0.24 c 0,-0.032 0.02,-0.064 0.052,-0.076 l 0.184,-0.064 0,-0.64 -0.128,0.044 c -0.008,0.004 -0.02,0.004 -0.028,0.004 -0.044,0 -0.08,-0.036 -0.08,-0.08 l 0,-0.24 c 0,-0.032 0.02,-0.06 0.052,-0.072 l 0.184,-0.068 0,-0.632 c 0,-0.04 0.032,-0.076 0.072,-0.076 0.04,0 0.076,0.036 0.076,0.076 l 0,0.58 0.332,-0.124 0,-0.632 c 0,-0.04 0.036,-0.076 0.076,-0.076 0.04,0 0.072,0.036 0.072,0.076 l 0,0.58 0.128,-0.048 c 0.008,-0.004 0.02,-0.004 0.028,-0.004 0.044,0 0.08,0.036 0.08,0.08 l 0,0.24 c 0,0.032 -0.02,0.064 -0.052,0.076 l -0.184,0.064 0,0.64 0.128,-0.044 c 0.008,-0.004 0.02,-0.004 0.028,-0.004 0.044,0 0.08,0.036 0.08,0.08 l 0,0.24 c 0,0.032 -0.02,0.06 -0.052,0.072 l -0.184,0.068 0,0.632 z m -0.48,-1.508 0,0.64 0.332,-0.12 0,-0.64 z" />
    <path
         style="fill:currentColor"
         id="path522"
         d="m 18.310278,22.307277 c -0.2,0 -0.276,0.172 -0.276,0.352 0,0.308 0.228,0.544 0.536,0.544 0.2,0 0.276,-0.172 0.276,-0.352 0,-0.308 -0.228,-0.544 -0.536,-0.544 z m 1.12,0.448 c 0,0.172 -0.14,0.304 -0.292,0.388 -0.212,0.12 -0.452,0.164 -0.696,0.164 -0.244,0 -0.488,-0.044 -0.7,-0.164 -0.152,-0.084 -0.292,-0.216 -0.292,-0.388 0,-0.172 0.14,-0.304 0.292,-0.388 0.212,-0.12 0.456,-0.164 0.7,-0.164 0.244,0 0.484,0.044 0.696,0.164 0.152,0.084 0.292,0.216 0.292,0.388 z" />
    <text
         y="26.328577"
         x="17.450277"
         style="font-size:1.74609995px;font-family:droid_serifbold, Times, serif;text-anchor:start;fill:currentColor"
         id="text524"
         font-size="1.7461">
        <tspan
             id="tspan526">semitone</tspan>
    </text>
    <path
         style="fill:currentColor"
         id="path528"
         d="m 9.5059783,23.307277 c -0.2,0 -0.276,0.172 -0.276,0.352 0,0.308 0.228,0.544 0.536,0.544 0.2,0 0.2759997,-0.172 0.2759997,-0.352 0,-0.308 -0.2279997,-0.544 -0.5359997,-0.544 z m 1.1199997,0.448 c 0,0.172 -0.14,0.304 -0.292,0.388 -0.212,0.12 -0.4519997,0.164 -0.6959997,0.164 -0.244,0 -0.488,-0.044 -0.7,-0.164 -0.152,-0.084 -0.292,-0.216 -0.292,-0.388 0,-0.172 0.14,-0.304 0.292,-0.388 0.212,-0.12 0.456,-0.164 0.7,-0.164 0.244,0 0.4839997,0.044 0.6959997,0.164 0.152,0.084 0.292,0.216 0.292,0.388 z" />
    <text
         y="13.705276"
         x="8.645978"
         style="font-size:2.20009995px;font-family:droid_serifbold, Times, serif;text-anchor:start;fill:currentColor"
         id="text530"
         font-size="2.2001">
        <tspan
             id="tspan532">f</tspan>
    </text>
    <text
         y="10.705276"
         x="8.645978"
         style="font-size:2.20009995px;font-family:droid_serifbold, Times, serif;text-anchor:start;fill:currentColor"
         id="text534"
         font-size="2.2001">
        <tspan
             id="tspan536">C</tspan>
    </text>
    <path
         style="fill:currentColor"
         id="path538"
         d="m 11.714678,11.953277 c 0,0.04 -0.032,0.076 -0.072,0.076 -0.04,0 -0.076,-0.036 -0.076,-0.076 l 0,-0.58 -0.332,0.124 0,0.632 c 0,0.04 -0.036,0.076 -0.076,0.076 -0.04,0 -0.072,-0.036 -0.072,-0.076 l 0,-0.58 -0.128,0.048 c -0.008,0.004 -0.02,0.004 -0.028,0.004 -0.044,0 -0.08,-0.036 -0.08,-0.08 l 0,-0.24 c 0,-0.032 0.02,-0.064 0.052,-0.076 l 0.184,-0.064 0,-0.64 -0.128,0.044 c -0.008,0.004 -0.02,0.004 -0.028,0.004 -0.044,0 -0.08,-0.036 -0.08,-0.08 l 0,-0.24 c 0,-0.032 0.02,-0.06 0.052,-0.072 l 0.184,-0.068 0,-0.6320003 c 0,-0.04 0.032,-0.076 0.072,-0.076 0.04,0 0.076,0.036 0.076,0.076 l 0,0.5800003 0.332,-0.1240003 0,-0.632 c 0,-0.04 0.036,-0.076 0.076,-0.076 0.04,0 0.072,0.036 0.072,0.076 l 0,0.58 0.128,-0.048 c 0.008,-0.004 0.02,-0.004 0.028,-0.004 0.044,0 0.08,0.036 0.08,0.08 l 0,0.2400003 c 0,0.032 -0.02,0.064 -0.052,0.076 l -0.184,0.064 0,0.64 0.128,-0.044 c 0.008,-0.004 0.02,-0.004 0.028,-0.004 0.044,0 0.08,0.036 0.08,0.08 l 0,0.24 c 0,0.032 -0.02,0.06 -0.052,0.072 l -0.184,0.068 0,0.632 z m -0.48,-1.508 0,0.64 0.332,-0.12 0,-0.64 z" />
    <text
         y="10.705276"
         x="12.550678"
         style="font-size:2.20009995px;font-family:droid_serifbold, Times, serif;text-anchor:start;fill:currentColor"
         id="text540"
         font-size="2.2001">
        <tspan
             id="tspan542">-</tspan>
    </text>
    <text
         y="10.705276"
         x="13.867679"
         style="font-style:italic;font-size:2.20009995px;font-family:droid_serifbold, Times, serif;text-anchor:start;fill:currentColor"
         id="text544"
         font-size="2.2001"
         font-style="italic">
        <tspan
             id="tspan546">qablītum</tspan>
    </text>
    <text
         y="10.705276"
         x="23.686377"
         style="font-size:2.20009995px;font-family:droid_serifbold, Times, serif;text-anchor:start;fill:currentColor"
         id="text556"
         font-size="2.2001">
        <tspan
             id="tspan558">(6</tspan>
    </text>
    <path
         style="fill:currentColor"
         id="path560"
         d="m 27.096578,11.953277 c 0,0.04 -0.032,0.076 -0.072,0.076 -0.04,0 -0.076,-0.036 -0.076,-0.076 l 0,-0.58 -0.332,0.124 0,0.632 c 0,0.04 -0.036,0.076 -0.076,0.076 -0.04,0 -0.072,-0.036 -0.072,-0.076 l 0,-0.58 -0.128,0.048 c -0.008,0.004 -0.02,0.004 -0.028,0.004 -0.044,0 -0.08,-0.036 -0.08,-0.08 l 0,-0.24 c 0,-0.032 0.02,-0.064 0.052,-0.076 l 0.184,-0.064 0,-0.64 -0.128,0.044 c -0.008,0.004 -0.02,0.004 -0.028,0.004 -0.044,0 -0.08,-0.036 -0.08,-0.08 l 0,-0.24 c 0,-0.032 0.02,-0.06 0.052,-0.072 l 0.184,-0.068 0,-0.6320003 c 0,-0.04 0.032,-0.076 0.072,-0.076 0.04,0 0.076,0.036 0.076,0.076 l 0,0.5800003 0.332,-0.1240003 0,-0.632 c 0,-0.04 0.036,-0.076 0.076,-0.076 0.04,0 0.072,0.036 0.072,0.076 l 0,0.58 0.128,-0.048 c 0.008,-0.004 0.02,-0.004 0.028,-0.004 0.044,0 0.08,0.036 0.08,0.08 l 0,0.2400003 c 0,0.032 -0.02,0.064 -0.052,0.076 l -0.184,0.064 0,0.64 0.128,-0.044 c 0.008,-0.004 0.02,-0.004 0.028,-0.004 0.044,0 0.08,0.036 0.08,0.08 l 0,0.24 c 0,0.032 -0.02,0.06 -0.052,0.072 l -0.184,0.068 0,0.632 z m -0.48,-1.508 0,0.64 0.332,-0.12 0,-0.64 z" />
    <text
         y="10.705276"
         x="27.932577"
         style="font-size:2.20009995px;font-family:droid_serifbold, Times, serif;text-anchor:start;fill:currentColor"
         id="text562"
         font-size="2.2001">
        <tspan
             id="tspan564">)</tspan>
    </text>
    <path
         style="fill:currentColor"
         id="path566"
         d="m 5.8739778,15.755277 c 0,-0.112 0.092,-0.204 0.204,-0.204 0.112,0 0.204,0.092 0.204,0.204 0,0.112 -0.092,0.204 -0.204,0.204 -0.112,0 -0.204,-0.092 -0.204,-0.204 z m 0,-1 c 0,-0.112 0.092,-0.204 0.204,-0.204 0.112,0 0.204,0.092 0.204,0.204 0,0.112 -0.092,0.204 -0.204,0.204 -0.112,0 -0.204,-0.092 -0.204,-0.204 z m -1.3,-0.552 c 0.688,0 1.172,0.352 1.172,1.004 0,1.052 -1.052,1.656 -2.064,2.084 -0.012,0.012 -0.024,0.016 -0.036,0.016 -0.028,0 -0.052,-0.024 -0.052,-0.052 0,-0.012 0.004,-0.024 0.016,-0.036 0.808,-0.472 1.648,-1.06 1.648,-1.972 0,-0.48 -0.252,-0.94 -0.684,-0.94 -0.296,0 -0.516,0.216 -0.616,0.504 0.044,-0.02 0.088,-0.032 0.136,-0.032 0.22,0 0.4,0.18 0.4,0.4 0,0.232 -0.176,0.424 -0.4,0.424 -0.24,0 -0.448,-0.188 -0.448,-0.424 0,-0.532 0.408,-0.976 0.928,-0.976 z" />
    <path
         style="fill:currentColor"
         id="path568"
         d="m 8.0599783,25.003277 c 0,0.04 -0.032,0.076 -0.072,0.076 -0.04,0 -0.076,-0.036 -0.076,-0.076 l 0,-0.58 -0.332,0.124 0,0.632 c 0,0.04 -0.036,0.076 -0.076,0.076 -0.04,0 -0.072,-0.036 -0.072,-0.076 l 0,-0.58 -0.128,0.048 c -0.008,0.004 -0.02,0.004 -0.028,0.004 -0.044,0 -0.08,-0.036 -0.08,-0.08 l 0,-0.24 c 0,-0.032 0.02,-0.064 0.052,-0.076 l 0.184,-0.064 0,-0.64 -0.128,0.044 c -0.008,0.004 -0.02,0.004 -0.028,0.004 -0.044,0 -0.08,-0.036 -0.08,-0.08 l 0,-0.24 c 0,-0.032 0.02,-0.06 0.052,-0.072 l 0.184,-0.068 0,-0.632 c 0,-0.04 0.032,-0.076 0.072,-0.076 0.04,0 0.076,0.036 0.076,0.076 l 0,0.58 0.332,-0.124 0,-0.632 c 0,-0.04 0.036,-0.076 0.076,-0.076 0.04,0 0.072,0.036 0.072,0.076 l 0,0.58 0.128,-0.048 c 0.008,-0.004 0.02,-0.004 0.028,-0.004 0.044,0 0.08,0.036 0.08,0.08 l 0,0.24 c 0,0.032 -0.02,0.064 -0.052,0.076 l -0.184,0.064 0,0.64 0.128,-0.044 c 0.008,-0.004 0.02,-0.004 0.028,-0.004 0.044,0 0.08,0.036 0.08,0.08 l 0,0.24 c 0,0.032 -0.02,0.06 -0.052,0.072 l -0.184,0.068 0,0.632 z m -0.48,-1.508 0,0.64 0.332,-0.12 0,-0.64 z" />
    <path
         style="fill:currentColor"
         id="path570"
         d="m 27.114578,21.307277 c -0.2,0 -0.276,0.172 -0.276,0.352 0,0.308 0.228,0.544 0.536,0.544 0.2,0 0.276,-0.172 0.276,-0.352 0,-0.308 -0.228,-0.544 -0.536,-0.544 z m 1.12,0.448 c 0,0.172 -0.14,0.304 -0.292,0.388 -0.212,0.12 -0.452,0.164 -0.696,0.164 -0.244,0 -0.488,-0.044 -0.7,-0.164 -0.152,-0.084 -0.292,-0.216 -0.292,-0.388 0,-0.172 0.14,-0.304 0.292,-0.388 0.212,-0.12 0.456,-0.164 0.7,-0.164 0.244,0 0.484,0.044 0.696,0.164 0.152,0.084 0.292,0.216 0.292,0.388 z" />
    <path
         style="fill:currentColor"
         id="path572"
         d="m 25.668578,23.003277 c 0,0.04 -0.032,0.076 -0.072,0.076 -0.04,0 -0.076,-0.036 -0.076,-0.076 l 0,-0.58 -0.332,0.124 0,0.632 c 0,0.04 -0.036,0.076 -0.076,0.076 -0.04,0 -0.072,-0.036 -0.072,-0.076 l 0,-0.58 -0.128,0.048 c -0.008,0.004 -0.02,0.004 -0.028,0.004 -0.044,0 -0.08,-0.036 -0.08,-0.08 l 0,-0.24 c 0,-0.032 0.02,-0.064 0.052,-0.076 l 0.184,-0.064 0,-0.64 -0.128,0.044 c -0.008,0.004 -0.02,0.004 -0.028,0.004 -0.044,0 -0.08,-0.036 -0.08,-0.08 l 0,-0.24 c 0,-0.032 0.02,-0.06 0.052,-0.072 l 0.184,-0.068 0,-0.632 c 0,-0.04 0.032,-0.076 0.072,-0.076 0.04,0 0.076,0.036 0.076,0.076 l 0,0.58 0.332,-0.124 0,-0.632 c 0,-0.04 0.036,-0.076 0.076,-0.076 0.04,0 0.072,0.036 0.072,0.076 l 0,0.58 0.128,-0.048 c 0.008,-0.004 0.02,-0.004 0.028,-0.004 0.044,0 0.08,0.036 0.08,0.08 l 0,0.24 c 0,0.032 -0.02,0.064 -0.052,0.076 l -0.184,0.064 0,0.64 0.128,-0.044 c 0.008,-0.004 0.02,-0.004 0.028,-0.004 0.044,0 0.08,0.036 0.08,0.08 l 0,0.24 c 0,0.032 -0.02,0.06 -0.052,0.072 l -0.184,0.068 0,0.632 z m -0.48,-1.508 0,0.64 0.332,-0.12 0,-0.64 z" />
    <path
         style="fill:currentColor"
         id="path574"
         d="m 31.516678,20.807277 c -0.2,0 -0.276,0.172 -0.276,0.352 0,0.308 0.228,0.544 0.536,0.544 0.2,0 0.276,-0.172 0.276,-0.352 0,-0.308 -0.228,-0.544 -0.536,-0.544 z m 1.12,0.448 c 0,0.172 -0.14,0.304 -0.292,0.388 -0.212,0.12 -0.452,0.164 -0.696,0.164 -0.244,0 -0.488,-0.044 -0.7,-0.164 -0.152,-0.084 -0.292,-0.216 -0.292,-0.388 0,-0.172 0.14,-0.304 0.292,-0.388 0.212,-0.12 0.456,-0.164 0.7,-0.164 0.244,0 0.484,0.044 0.696,0.164 0.152,0.084 0.292,0.216 0.292,0.388 z" />
    <path
         style="fill:currentColor"
         id="path576"
         d="m 16.864278,24.003277 c 0,0.04 -0.032,0.076 -0.072,0.076 -0.04,0 -0.076,-0.036 -0.076,-0.076 l 0,-0.58 -0.332,0.124 0,0.632 c 0,0.04 -0.036,0.076 -0.076,0.076 -0.04,0 -0.072,-0.036 -0.072,-0.076 l 0,-0.58 -0.128,0.048 c -0.008,0.004 -0.02,0.004 -0.028,0.004 -0.044,0 -0.08,-0.036 -0.08,-0.08 l 0,-0.24 c 0,-0.032 0.02,-0.064 0.052,-0.076 l 0.184,-0.064 0,-0.64 -0.128,0.044 c -0.008,0.004 -0.02,0.004 -0.028,0.004 -0.044,0 -0.08,-0.036 -0.08,-0.08 l 0,-0.24 c 0,-0.032 0.02,-0.06 0.052,-0.072 l 0.184,-0.068 0,-0.632 c 0,-0.04 0.032,-0.076 0.072,-0.076 0.04,0 0.076,0.036 0.076,0.076 l 0,0.58 0.332,-0.124 0,-0.632 c 0,-0.04 0.036,-0.076 0.076,-0.076 0.04,0 0.072,0.036 0.072,0.076 l 0,0.58 0.128,-0.048 c 0.008,-0.004 0.02,-0.004 0.028,-0.004 0.044,0 0.08,0.036 0.08,0.08 l 0,0.24 c 0,0.032 -0.02,0.064 -0.052,0.076 l -0.184,0.064 0,0.64 0.128,-0.044 c 0.008,-0.004 0.02,-0.004 0.028,-0.004 0.044,0 0.08,0.036 0.08,0.08 l 0,0.24 c 0,0.032 -0.02,0.06 -0.052,0.072 l -0.184,0.068 0,0.632 z m -0.48,-1.508 0,0.64 0.332,-0.12 0,-0.64 z" />
    <path
         style="fill:currentColor"
         id="path578"
         d="m 22.712378,21.807277 c -0.2,0 -0.276,0.172 -0.276,0.352 0,0.308 0.228,0.544 0.536,0.544 0.2,0 0.276,-0.172 0.276,-0.352 0,-0.308 -0.228,-0.544 -0.536,-0.544 z m 1.12,0.448 c 0,0.172 -0.14,0.304 -0.292,0.388 -0.212,0.12 -0.452,0.164 -0.696,0.164 -0.244,0 -0.488,-0.044 -0.7,-0.164 -0.152,-0.084 -0.292,-0.216 -0.292,-0.388 0,-0.172 0.14,-0.304 0.292,-0.388 0.212,-0.12 0.456,-0.164 0.7,-0.164 0.244,0 0.484,0.044 0.696,0.164 0.152,0.084 0.292,0.216 0.292,0.388 z" />
    <text
         y="13.705276"
         x="21.852377"
         style="font-size:2.20009995px;font-family:droid_serifbold, Times, serif;text-anchor:start;fill:currentColor"
         id="text580"
         font-size="2.2001">
        <tspan
             id="tspan582">f</tspan>
    </text>
    <path
         style="fill:currentColor"
         id="path584"
         d="m 21.266378,23.503277 c 0,0.04 -0.032,0.076 -0.072,0.076 -0.04,0 -0.076,-0.036 -0.076,-0.076 l 0,-0.58 -0.332,0.124 0,0.632 c 0,0.04 -0.036,0.076 -0.076,0.076 -0.04,0 -0.072,-0.036 -0.072,-0.076 l 0,-0.58 -0.128,0.048 c -0.008,0.004 -0.02,0.004 -0.028,0.004 -0.044,0 -0.08,-0.036 -0.08,-0.08 l 0,-0.24 c 0,-0.032 0.02,-0.064 0.052,-0.076 l 0.184,-0.064 0,-0.64 -0.128,0.044 c -0.008,0.004 -0.02,0.004 -0.028,0.004 -0.044,0 -0.08,-0.036 -0.08,-0.08 l 0,-0.24 c 0,-0.032 0.02,-0.06 0.052,-0.072 l 0.184,-0.068 0,-0.632 c 0,-0.04 0.032,-0.076 0.072,-0.076 0.04,0 0.076,0.036 0.076,0.076 l 0,0.58 0.332,-0.124 0,-0.632 c 0,-0.04 0.036,-0.076 0.076,-0.076 0.04,0 0.072,0.036 0.072,0.076 l 0,0.58 0.128,-0.048 c 0.008,-0.004 0.02,-0.004 0.028,-0.004 0.044,0 0.08,0.036 0.08,0.08 l 0,0.24 c 0,0.032 -0.02,0.064 -0.052,0.076 l -0.184,0.064 0,0.64 0.128,-0.044 c 0.008,-0.004 0.02,-0.004 0.028,-0.004 0.044,0 0.08,0.036 0.08,0.08 l 0,0.24 c 0,0.032 -0.02,0.06 -0.052,0.072 l -0.184,0.068 0,0.632 z m -0.48,-1.508 0,0.64 0.332,-0.12 0,-0.64 z" />
    <path
         style="fill:currentColor"
         id="path586"
         d="m 79.940378,15.307277 c -0.2,0 -0.276,0.172 -0.276,0.352 0,0.308 0.228,0.544 0.536,0.544 0.2,0 0.276,-0.172 0.276,-0.352 0,-0.308 -0.228,-0.544 -0.536,-0.544 z m 1.12,0.448 c 0,0.172 -0.14,0.304 -0.292,0.388 -0.212,0.12 -0.452,0.164 -0.696,0.164 -0.244,0 -0.488,-0.044 -0.7,-0.164 -0.152,-0.084 -0.292,-0.216 -0.292,-0.388 0,-0.172 0.14,-0.304 0.292,-0.388 0.212,-0.12 0.456,-0.164 0.7,-0.164 0.244,0 0.484,0.044 0.696,0.164 0.152,0.084 0.292,0.216 0.292,0.388 z" />
    <text
         y="13.705276"
         x="74.678177"
         style="font-size:2.20009995px;font-family:droid_serifbold, Times, serif;text-anchor:start;fill:currentColor"
         id="text588"
         font-size="2.2001">
        <tspan
             id="tspan590">f</tspan>
    </text>
    <path
         style="fill:currentColor"
         id="path592"
         d="m 75.538178,15.807277 c -0.2,0 -0.276,0.172 -0.276,0.352 0,0.308 0.228,0.544 0.536,0.544 0.2,0 0.276,-0.172 0.276,-0.352 0,-0.308 -0.228,-0.544 -0.536,-0.544 z m 1.12,0.448 c 0,0.172 -0.14,0.304 -0.292,0.388 -0.212,0.12 -0.452,0.164 -0.696,0.164 -0.244,0 -0.488,-0.044 -0.7,-0.164 -0.152,-0.084 -0.292,-0.216 -0.292,-0.388 0,-0.172 0.14,-0.304 0.292,-0.388 0.212,-0.12 0.456,-0.164 0.7,-0.164 0.244,0 0.484,0.044 0.696,0.164 0.152,0.084 0.292,0.216 0.292,0.388 z" />
    <path
         style="fill:currentColor"
         id="path594"
         d="m 69.690078,18.003277 c 0,0.04 -0.032,0.076 -0.072,0.076 -0.04,0 -0.076,-0.036 -0.076,-0.076 l 0,-0.58 -0.332,0.124 0,0.632 c 0,0.04 -0.036,0.076 -0.076,0.076 -0.04,0 -0.072,-0.036 -0.072,-0.076 l 0,-0.58 -0.128,0.048 c -0.008,0.004 -0.02,0.004 -0.028,0.004 -0.044,0 -0.08,-0.036 -0.08,-0.08 l 0,-0.24 c 0,-0.032 0.02,-0.064 0.052,-0.076 l 0.184,-0.064 0,-0.64 -0.128,0.044 c -0.008,0.004 -0.02,0.004 -0.028,0.004 -0.044,0 -0.08,-0.036 -0.08,-0.08 l 0,-0.24 c 0,-0.032 0.02,-0.06 0.052,-0.072 l 0.184,-0.068 0,-0.632 c 0,-0.04 0.032,-0.076 0.072,-0.076 0.04,0 0.076,0.036 0.076,0.076 l 0,0.58 0.332,-0.124 0,-0.632 c 0,-0.04 0.036,-0.076 0.076,-0.076 0.04,0 0.072,0.036 0.072,0.076 l 0,0.58 0.128,-0.048 c 0.008,-0.004 0.02,-0.004 0.028,-0.004 0.044,0 0.08,0.036 0.08,0.08 l 0,0.24 c 0,0.032 -0.02,0.064 -0.052,0.076 l -0.184,0.064 0,0.64 0.128,-0.044 c 0.008,-0.004 0.02,-0.004 0.028,-0.004 0.044,0 0.08,0.036 0.08,0.08 l 0,0.24 c 0,0.032 -0.02,0.06 -0.052,0.072 l -0.184,0.068 0,0.632 z m -0.48,-1.508 0,0.64 0.332,-0.12 0,-0.64 z" />
    <text
         y="21.328577"
         x="70.276077"
         style="font-size:1.74609995px;font-family:droid_serifbold, Times, serif;text-anchor:start;fill:currentColor"
         id="text596"
         font-size="1.7461">
        <tspan
             id="tspan598">semitone</tspan>
    </text>
    <path
         style="fill:currentColor"
         id="path600"
         d="m 71.136078,16.307277 c -0.2,0 -0.276,0.172 -0.276,0.352 0,0.308 0.228,0.544 0.536,0.544 0.2,0 0.276,-0.172 0.276,-0.352 0,-0.308 -0.228,-0.544 -0.536,-0.544 z m 1.12,0.448 c 0,0.172 -0.14,0.304 -0.292,0.388 -0.212,0.12 -0.452,0.164 -0.696,0.164 -0.244,0 -0.488,-0.044 -0.7,-0.164 -0.152,-0.084 -0.292,-0.216 -0.292,-0.388 0,-0.172 0.14,-0.304 0.292,-0.388 0.212,-0.12 0.456,-0.164 0.7,-0.164 0.244,0 0.484,0.044 0.696,0.164 0.152,0.084 0.292,0.216 0.292,0.388 z" />
    <path
         style="fill:currentColor"
         id="path602"
         d="m 94.085678,17.251277 c 0,0.328 -0.224,0.672 -0.564,0.788 0.008,0.108 0.012,0.216 0.012,0.324 0,0.064 0,0.132 -0.004,0.196 -0.024,0.396 -0.3,0.744 -0.692,0.744 -0.348,0 -0.636,-0.288 -0.636,-0.64 0,-0.184 0.168,-0.332 0.36,-0.332 0.172,0 0.304,0.152 0.304,0.332 0,0.168 -0.136,0.304 -0.304,0.304 -0.016,0 -0.024,0 -0.04,-0.004 0.076,0.104 0.188,0.168 0.324,0.168 0.3,0 0.496,-0.288 0.516,-0.596 0.004,-0.06 0.004,-0.12 0.004,-0.18 0,-0.092 -0.004,-0.184 -0.012,-0.276 -0.088,0.016 -0.176,0.024 -0.268,0.024 -0.604,0 -1.064,-0.556 -1.064,-1.208 0,-0.576 0.404,-1.016 0.764,-1.468 -0.064,-0.212 -0.124,-0.42 -0.148,-0.64 -0.02,-0.168 -0.02,-0.34 -0.02,-0.512 0,-0.372 0.168,-0.724 0.46,-0.956 0.012,-0.008 0.024,-0.012 0.036,-0.012 0.016,0 0.032,0.004 0.044,0.016 0.228,0.276 0.428,0.808 0.428,1.18 0,0.46 -0.252,0.828 -0.54,1.188 0.068,0.236 0.132,0.476 0.188,0.716 l 0.004,0 c 0.008,0 0.016,-0.004 0.024,-0.004 0.504,0 0.824,0.42 0.824,0.848 z m -0.58,0.624 c 0.2,-0.08 0.324,-0.3 0.324,-0.5 0,-0.272 -0.192,-0.544 -0.508,-0.588 0.076,0.356 0.14,0.712 0.184,1.088 z m -1.24,-0.696 c 0,0.416 0.408,0.752 0.832,0.752 0.084,0 0.16,-0.004 0.24,-0.016 -0.044,-0.392 -0.112,-0.764 -0.192,-1.132 -0.236,0.028 -0.372,0.192 -0.372,0.368 0,0.136 0.084,0.28 0.256,0.38 0.02,0.02 0.024,0.04 0.024,0.06 0,0.044 -0.036,0.088 -0.084,0.088 -0.012,0 -0.024,-0.004 -0.036,-0.008 -0.26,-0.14 -0.38,-0.372 -0.38,-0.6 0,-0.284 0.184,-0.564 0.512,-0.644 -0.044,-0.192 -0.096,-0.38 -0.152,-0.572 -0.328,0.404 -0.648,0.808 -0.648,1.324 z m 1.024,-3.364 c -0.304,0.176 -0.492,0.496 -0.492,0.844 0,0.224 0.06,0.416 0.116,0.604 0.236,-0.316 0.428,-0.648 0.428,-1.044 0,-0.172 -0.008,-0.244 -0.052,-0.404 z" />
    <path
         style="fill:currentColor"
         id="path604"
         d="m 96.470278,19.807277 c -0.2,0 -0.276,0.172 -0.276,0.352 0,0.308 0.228,0.544 0.536,0.544 0.2,0 0.276,-0.172 0.276,-0.352 0,-0.308 -0.228,-0.544 -0.536,-0.544 z m 1.119996,0.448 c 0,0.172 -0.14,0.304 -0.292,0.388 -0.211996,0.12 -0.451996,0.164 -0.695996,0.164 -0.244,0 -0.488,-0.044 -0.7,-0.164 -0.152,-0.084 -0.292,-0.216 -0.292,-0.388 0,-0.172 0.14,-0.304 0.292,-0.388 0.212,-0.12 0.456,-0.164 0.7,-0.164 0.244,0 0.484,0.044 0.695996,0.164 0.152,0.084 0.292,0.216 0.292,0.388 z" />
    <path
         style="fill:currentColor"
         id="path606"
         d="m 84.342478,14.807277 c -0.2,0 -0.276,0.172 -0.276,0.352 0,0.308 0.228,0.544 0.536,0.544 0.2,0 0.276,-0.172 0.276,-0.352 0,-0.308 -0.228,-0.544 -0.536,-0.544 z m 1.12,0.448 c 0,0.172 -0.14,0.304 -0.292,0.388 -0.212,0.12 -0.452,0.164 -0.696,0.164 -0.244,0 -0.488,-0.044 -0.7,-0.164 -0.152,-0.084 -0.292,-0.216 -0.292,-0.388 0,-0.172 0.14,-0.304 0.292,-0.388 0.212,-0.12 0.456,-0.164 0.7,-0.164 0.244,0 0.484,0.044 0.696,0.164 0.152,0.084 0.292,0.216 0.292,0.388 z" />
    <text
         y="21.328577"
         x="83.482475"
         style="font-size:1.74609995px;font-family:droid_serifbold, Times, serif;text-anchor:start;fill:currentColor"
         id="text608"
         font-size="1.7461">
        <tspan
             id="tspan610">semitone</tspan>
    </text>
    <path
         style="fill:currentColor"
         id="path612"
         d="m 82.896478,16.503277 c 0,0.04 -0.032,0.076 -0.072,0.076 -0.04,0 -0.076,-0.036 -0.076,-0.076 l 0,-0.58 -0.332,0.124 0,0.632 c 0,0.04 -0.036,0.076 -0.076,0.076 -0.04,0 -0.072,-0.036 -0.072,-0.076 l 0,-0.58 -0.128,0.048 c -0.008,0.004 -0.02,0.004 -0.028,0.004 -0.044,0 -0.08,-0.036 -0.08,-0.08 l 0,-0.24 c 0,-0.032 0.02,-0.064 0.052,-0.076 l 0.184,-0.064 0,-0.64 -0.128,0.044 c -0.008,0.004 -0.02,0.004 -0.028,0.004 -0.044,0 -0.08,-0.036 -0.08,-0.08 l 0,-0.24 c 0,-0.032 0.02,-0.06 0.052,-0.072 l 0.184,-0.068 0,-0.632 c 0,-0.04 0.032,-0.076 0.072,-0.076 0.04,0 0.076,0.036 0.076,0.076 l 0,0.58 0.332,-0.124 0,-0.632 c 0,-0.04 0.036,-0.076 0.076,-0.076 0.04,0 0.072,0.036 0.072,0.076 l 0,0.58 0.128,-0.048 c 0.008,-0.004 0.02,-0.004 0.028,-0.004 0.044,0 0.08,0.036 0.08,0.08 l 0,0.24 c 0,0.032 -0.02,0.064 -0.052,0.076 l -0.184,0.064 0,0.64 0.128,-0.044 c 0.008,-0.004 0.02,-0.004 0.028,-0.004 0.044,0 0.08,0.036 0.08,0.08 l 0,0.24 c 0,0.032 -0.02,0.06 -0.052,0.072 l -0.184,0.068 0,0.632 z m -0.48,-1.508 0,0.64 0.332,-0.12 0,-0.64 z" />
    <path
         style="fill:currentColor"
         id="path614"
         d="m 88.744678,14.307277 c -0.2,0 -0.276,0.172 -0.276,0.352 0,0.308 0.228,0.544 0.536,0.544 0.2,0 0.276,-0.172 0.276,-0.352 0,-0.308 -0.228,-0.544 -0.536,-0.544 z m 1.12,0.448 c 0,0.172 -0.14,0.304 -0.292,0.388 -0.212,0.12 -0.452,0.164 -0.696,0.164 -0.244,0 -0.488,-0.044 -0.7,-0.164 -0.152,-0.084 -0.292,-0.216 -0.292,-0.388 0,-0.172 0.14,-0.304 0.292,-0.388 0.212,-0.12 0.456,-0.164 0.7,-0.164 0.244,0 0.484,0.044 0.696,0.164 0.152,0.084 0.292,0.216 0.292,0.388 z" />
    <text
         y="13.705276"
         x="87.884674"
         style="font-size:2.20009995px;font-family:droid_serifbold, Times, serif;text-anchor:start;fill:currentColor"
         id="text616"
         font-size="2.2001">
        <tspan
             id="tspan618">f</tspan>
    </text>
    <text
         y="10.705276"
         x="87.884674"
         style="font-size:2.20009995px;font-family:droid_serifbold, Times, serif;text-anchor:start;fill:currentColor"
         id="text620"
         font-size="2.2001">
        <tspan
             id="tspan622">G</tspan>
    </text>
    <text
         y="10.705276"
         x="90.191772"
         style="font-size:2.20009995px;font-family:droid_serifbold, Times, serif;text-anchor:start;fill:currentColor"
         id="text624"
         font-size="2.2001">
        <tspan
             id="tspan626">-</tspan>
    </text>
    <text
         y="10.705276"
         x="91.508774"
         style="font-style:italic;font-size:2.20009995px;font-family:droid_serifbold, Times, serif;text-anchor:start;fill:currentColor"
         id="text628"
         font-size="2.2001"
         font-style="italic">
        <tspan
             id="tspan630">qablītum</tspan>
    </text>
    <text
         y="10.705276"
         x="101.32747"
         style="font-size:2.20009995px;font-family:droid_serifbold, Times, serif;text-anchor:start;fill:currentColor"
         id="text640"
         font-size="2.2001">
        <tspan
             id="tspan642">(0</tspan>
    </text>
    <path
         style="fill:currentColor"
         id="path644"
         d="m 104.10167,10.541277 -0.004,0.264 0,0.044 c 0,0.088 0.004,0.176 0.016,0.264 0.18,-0.152 0.372,-0.32 0.372,-0.556 0,-0.132 -0.056,-0.268 -0.172,-0.268 -0.124,0 -0.208,0.12 -0.212,0.252 z m -0.168,0.716 -0.048,-2.3800003 c 0.032,-0.02 0.072,-0.032 0.108,-0.032 0.036,0 0.076,0.012 0.108,0.032 l -0.028,1.3800003 c 0.1,-0.084 0.232,-0.136 0.364,-0.136 0.208,0 0.356,0.192 0.356,0.408 0,0.32 -0.344,0.468 -0.588,0.676 -0.06,0.052 -0.096,0.152 -0.18,0.152 -0.052,0 -0.092,-0.044 -0.092,-0.1 z" />
    <text
         y="10.705276"
         x="105.39368"
         style="font-size:2.20009995px;font-family:droid_serifbold, Times, serif;text-anchor:start;fill:currentColor"
         id="text646"
         font-size="2.2001">
        <tspan
             id="tspan648">)</tspan>
    </text>
    <path
         style="fill:currentColor"
         id="path650"
         d="m 66.733878,16.807277 c -0.2,0 -0.276,0.172 -0.276,0.352 0,0.308 0.228,0.544 0.536,0.544 0.2,0 0.276,-0.172 0.276,-0.352 0,-0.308 -0.228,-0.544 -0.536,-0.544 z m 1.12,0.448 c 0,0.172 -0.14,0.304 -0.292,0.388 -0.212,0.12 -0.452,0.164 -0.696,0.164 -0.244,0 -0.488,-0.044 -0.7,-0.164 -0.152,-0.084 -0.292,-0.216 -0.292,-0.388 0,-0.172 0.14,-0.304 0.292,-0.388 0.212,-0.12 0.456,-0.164 0.7,-0.164 0.244,0 0.484,0.044 0.696,0.164 0.152,0.084 0.292,0.216 0.292,0.388 z" />
    <path
         style="fill:currentColor"
         id="path652"
         d="m 56.483578,19.503277 c 0,0.04 -0.032,0.076 -0.072,0.076 -0.04,0 -0.076,-0.036 -0.076,-0.076 l 0,-0.58 -0.332,0.124 0,0.632 c 0,0.04 -0.036,0.076 -0.076,0.076 -0.04,0 -0.072,-0.036 -0.072,-0.076 l 0,-0.58 -0.128,0.048 c -0.008,0.004 -0.02,0.004 -0.028,0.004 -0.044,0 -0.08,-0.036 -0.08,-0.08 l 0,-0.24 c 0,-0.032 0.02,-0.064 0.052,-0.076 l 0.184,-0.064 0,-0.64 -0.128,0.044 c -0.008,0.004 -0.02,0.004 -0.028,0.004 -0.044,0 -0.08,-0.036 -0.08,-0.08 l 0,-0.24 c 0,-0.032 0.02,-0.06 0.052,-0.072 l 0.184,-0.068 0,-0.632 c 0,-0.04 0.032,-0.076 0.072,-0.076 0.04,0 0.076,0.036 0.076,0.076 l 0,0.58 0.332,-0.124 0,-0.632 c 0,-0.04 0.036,-0.076 0.076,-0.076 0.04,0 0.072,0.036 0.072,0.076 l 0,0.58 0.128,-0.048 c 0.008,-0.004 0.02,-0.004 0.028,-0.004 0.044,0 0.08,0.036 0.08,0.08 l 0,0.24 c 0,0.032 -0.02,0.064 -0.052,0.076 l -0.184,0.064 0,0.64 0.128,-0.044 c 0.008,-0.004 0.02,-0.004 0.028,-0.004 0.044,0 0.08,0.036 0.08,0.08 l 0,0.24 c 0,0.032 -0.02,0.06 -0.052,0.072 l -0.184,0.068 0,0.632 z m -0.48,-1.508 0,0.64 0.332,-0.12 0,-0.64 z" />
    <text
         y="10.705276"
         x="61.471783"
         style="font-size:2.20009995px;font-family:droid_serifbold, Times, serif;text-anchor:start;fill:currentColor"
         id="text654"
         font-size="2.2001">
        <tspan
             id="tspan656">A</tspan>
    </text>
    <text
         y="10.705276"
         x="63.676479"
         style="font-size:2.20009995px;font-family:droid_serifbold, Times, serif;text-anchor:start;fill:currentColor"
         id="text658"
         font-size="2.2001">
        <tspan
             id="tspan660">-</tspan>
    </text>
    <text
         y="10.705276"
         x="64.993477"
         style="font-style:italic;font-size:2.20009995px;font-family:droid_serifbold, Times, serif;text-anchor:start;fill:currentColor"
         id="text662"
         font-size="2.2001"
         font-style="italic">
        <tspan
             id="tspan664">qablītum</tspan>
    </text>
    <text
         y="10.705276"
         x="74.812172"
         style="font-size:2.20009995px;font-family:droid_serifbold, Times, serif;text-anchor:start;fill:currentColor"
         id="text674"
         font-size="2.2001">
        <tspan
             id="tspan676">(2</tspan>
    </text>
    <path
         style="fill:currentColor"
         id="path678"
         d="m 78.222378,11.953277 c 0,0.04 -0.032,0.076 -0.072,0.076 -0.04,0 -0.076,-0.036 -0.076,-0.076 l 0,-0.58 -0.332,0.124 0,0.632 c 0,0.04 -0.036,0.076 -0.076,0.076 -0.04,0 -0.072,-0.036 -0.072,-0.076 l 0,-0.58 -0.128,0.048 c -0.008,0.004 -0.02,0.004 -0.028,0.004 -0.044,0 -0.08,-0.036 -0.08,-0.08 l 0,-0.24 c 0,-0.032 0.02,-0.064 0.052,-0.076 l 0.184,-0.064 0,-0.64 -0.128,0.044 c -0.008,0.004 -0.02,0.004 -0.028,0.004 -0.044,0 -0.08,-0.036 -0.08,-0.08 l 0,-0.24 c 0,-0.032 0.02,-0.06 0.052,-0.072 l 0.184,-0.068 0,-0.6320003 c 0,-0.04 0.032,-0.076 0.072,-0.076 0.04,0 0.076,0.036 0.076,0.076 l 0,0.5800003 0.332,-0.1240003 0,-0.632 c 0,-0.04 0.036,-0.076 0.076,-0.076 0.04,0 0.072,0.036 0.072,0.076 l 0,0.58 0.128,-0.048 c 0.008,-0.004 0.02,-0.004 0.028,-0.004 0.044,0 0.08,0.036 0.08,0.08 l 0,0.2400003 c 0,0.032 -0.02,0.064 -0.052,0.076 l -0.184,0.064 0,0.64 0.128,-0.044 c 0.008,-0.004 0.02,-0.004 0.028,-0.004 0.044,0 0.08,0.036 0.08,0.08 l 0,0.24 c 0,0.032 -0.02,0.06 -0.052,0.072 l -0.184,0.068 0,0.632 z m -0.48,-1.508 0,0.64 0.332,-0.12 0,-0.64 z" />
    <text
         y="10.705276"
         x="79.058372"
         style="font-size:2.20009995px;font-family:droid_serifbold, Times, serif;text-anchor:start;fill:currentColor"
         id="text680"
         font-size="2.2001">
        <tspan
             id="tspan682">)</tspan>
    </text>
    <text
         y="21.828577"
         x="57.06958"
         style="font-size:1.74609995px;font-family:droid_serifbold, Times, serif;text-anchor:start;fill:currentColor"
         id="text684"
         font-size="1.7461">
        <tspan
             id="tspan686">semitone</tspan>
    </text>
    <path
         style="fill:currentColor"
         id="path688"
         d="m 57.929578,17.807277 c -0.2,0 -0.276,0.172 -0.276,0.352 0,0.308 0.228,0.544 0.536,0.544 0.2,0 0.276,-0.172 0.276,-0.352 0,-0.308 -0.228,-0.544 -0.536,-0.544 z m 1.12,0.448 c 0,0.172 -0.14,0.304 -0.292,0.388 -0.212,0.12 -0.452,0.164 -0.696,0.164 -0.244,0 -0.488,-0.044 -0.7,-0.164 -0.152,-0.084 -0.292,-0.216 -0.292,-0.388 0,-0.172 0.14,-0.304 0.292,-0.388 0.212,-0.12 0.456,-0.164 0.7,-0.164 0.244,0 0.484,0.044 0.696,0.164 0.152,0.084 0.292,0.216 0.292,0.388 z" />
    <text
         y="13.705276"
         x="61.471783"
         style="font-size:2.20009995px;font-family:droid_serifbold, Times, serif;text-anchor:start;fill:currentColor"
         id="text690"
         font-size="2.2001">
        <tspan
             id="tspan692">f</tspan>
    </text>
    <path
         style="fill:currentColor"
         id="path694"
         d="m 62.331778,17.307277 c -0.2,0 -0.276,0.172 -0.276,0.352 0,0.308 0.228,0.544 0.536,0.544 0.2,0 0.276,-0.172 0.276,-0.352 0,-0.308 -0.228,-0.544 -0.536,-0.544 z m 1.12,0.448 c 0,0.172 -0.14,0.304 -0.292,0.388 -0.212,0.12 -0.452,0.164 -0.696,0.164 -0.244,0 -0.488,-0.044 -0.7,-0.164 -0.152,-0.084 -0.292,-0.216 -0.292,-0.388 0,-0.172 0.14,-0.304 0.292,-0.388 0.212,-0.12 0.456,-0.164 0.7,-0.164 0.244,0 0.484,0.044 0.696,0.164 0.152,0.084 0.292,0.216 0.292,0.388 z" />
</svg>
