<?xml version="1.0" encoding="UTF-8" standalone="no"?>
<svg
     xmlns:dc="http://purl.org/dc/elements/1.1/"
     xmlns:cc="http://creativecommons.org/ns#"
     xmlns:rdf="http://www.w3.org/1999/02/22-rdf-syntax-ns#"
     xmlns:svg="http://www.w3.org/2000/svg"
     xmlns="http://www.w3.org/2000/svg"
     viewBox="0 0 1058.3389 793.22196"
     height="223.86487mm"
     width="298.68677mm"
     version="1.1"
     id="svg2">
    <title
         id="title4216">D05376</title>
    <metadata
         id="metadata8">
        <rdf:RDF>
            <cc:Work
                 rdf:about="">
                <dc:format>image/svg+xml</dc:format>
                <dc:type
                     rdf:resource="http://purl.org/dc/dcmitype/StillImage" />
                <dc:title>D05376</dc:title>
                <cc:license
                     rdf:resource="http://creativecommons.org/publicdomain/zero/1.0/" />
            </cc:Work>
            <cc:License
                 rdf:about="http://creativecommons.org/publicdomain/zero/1.0/">
                <cc:permits
                     rdf:resource="http://creativecommons.org/ns#Reproduction" />
                <cc:permits
                     rdf:resource="http://creativecommons.org/ns#Distribution" />
                <cc:permits
                     rdf:resource="http://creativecommons.org/ns#DerivativeWorks" />
            </cc:License>
        </rdf:RDF>
    </metadata>
    <defs
         id="defs6" />
    <path
         id="path4214"
         d="m 348.78365,721.42353 c -0.68173,-1.1068 0.89263,-2.3021 1.81422,-1.3773 0.94891,0.9522 0.77206,2.3096 -0.30091,2.3096 -0.51652,0 -1.19751,-0.4195 -1.51331,-0.9323 z m -180.18596,-28.2101 c 0,-0.6053 -0.6449,-2.5207 -1.4332,-4.2564 -2.0088,-4.4232 -3.5502,-10.6278 -3.521,-14.1723 0.036,-4.3325 1.5345,-1.2408 2.4274,5.0075 0.4101,2.8694 1.5285,5.7724 2.6193,6.7991 1.9733,1.8573 2.6611,7.7226 0.9055,7.7226 -0.5489,0 -0.998,-0.4952 -0.998,-1.1005 z m 104.7925,-0.3665 c 0,-0.8698 0.8668,-1.5375 1.9961,-1.5375 1.0978,0 1.996,0.2095 1.996,0.4655 0,0.256 -0.8982,0.9479 -1.996,1.5375 -1.5932,0.8556 -1.9961,0.7616 -1.9961,-0.4655 z m -55.244,-6.2946 c -0.2679,-0.964 -0.7906,-5.2988 -1.1615,-9.6331 -0.4803,-5.6123 -0.3594,-7.685 0.4199,-7.2017 0.6019,0.3732 1.0943,1.9899 1.0943,3.5926 0,2.2803 0.3532,2.7779 1.6244,2.2884 1.3595,-0.5235 1.5549,-0.028 1.1984,3.036 -0.2343,2.0138 -0.067,3.6614 0.3717,3.6614 0.4387,0 0.7976,1.352 0.7976,3.0045 0,2.3019 -0.451,3.0045 -1.9288,3.0045 -1.0608,0 -2.148,-0.7887 -2.416,-1.7526 z m 597.61133,-10.7343 c -1.0655,-0.8087 -2.6015,-1.4847 -3.4132,-1.5022 -0.8117,-0.018 -4.5831,-1.2234 -8.3809,-2.6796 -6.7773,-2.5988 -15.6325,-9.8152 -15.5646,-12.684 0.016,-0.6562 1.9873,0.9221 4.3816,3.5073 5.1849,5.5983 17.5284,11.5357 21.1125,10.1556 0.7834,-0.3017 1.4243,-0.08 1.4243,0.4927 0,0.5726 0.8982,1.3272 1.9961,1.6769 1.0978,0.3496 1.996,1.056 1.996,1.5697 0,1.3502 -1.331,1.1492 -3.5518,-0.5364 z m -434.0817,-2.5356 c 0.3392,-0.5508 1.462,-1.0015 2.495,-1.0015 1.0331,0 2.1559,0.4507 2.4951,1.0015 0.3608,0.5859 -0.6746,1.0015 -2.4951,1.0015 -1.8204,0 -2.8558,-0.4156 -2.495,-1.0015 z m 12.0387,-1.111 c -6.5502,-0.9582 -8.9001,-2.3292 -5.7253,-3.3404 1.1128,-0.3544 3.683,0.052 5.7115,0.902 2.0285,0.8505 4.7827,1.5464 6.1203,1.5464 1.3672,0 2.162,0.4385 1.8153,1.0015 -0.3393,0.5508 -0.9272,0.9466 -1.3065,0.8794 -0.3793,-0.067 -3.3562,-0.5122 -6.6153,-0.9889 z m 475.9363,-1.4065 c 1.0655,-0.8186 2.8245,-1.4885 3.9089,-1.4885 2.5299,0 1.9784,0.4314 -2.3531,1.8406 -3.1742,1.0326 -3.3163,1.0005 -1.5558,-0.3521 z m -671.76783,-4.0399 c -0.3259,-0.8525 -0.2578,-3.4439 0.1516,-5.7587 0.4093,-2.3147 0.6838,-6.1526 0.61,-8.5287 -0.074,-2.3761 0.276,-5.0558 0.7774,-5.9549 1.5849,-2.8419 2.4006,11.3947 1.2055,21.0411 -0.1682,1.3578 -2.1391,0.7841 -2.7445,-0.7988 z m 224.37033,-0.4531 c 0,-1.377 0.2266,-1.9404 0.5034,-1.2518 0.2769,0.6885 0.2769,1.8152 0,2.5037 -0.2768,0.6885 -0.5034,0.1252 -0.5034,-1.2519 z m 456.5348,1.158 c -0.3454,-0.5608 -0.1416,-1.3212 0.4528,-1.6898 1.5344,-0.9516 2.5244,0.3519 1.2435,1.6373 -0.7168,0.7192 -1.275,0.7365 -1.6963,0.053 z m -717.09783,-1.7422 c 0.048,-1.1667 0.2844,-1.404 0.603,-0.605 0.2883,0.7229 0.2528,1.5867 -0.079,1.9195 -0.3317,0.3328 -0.5675,-0.2587 -0.5242,-1.3145 z m -1.2042,-4.6736 c -0.1752,-3.1005 -0.5455,-5.1844 -2.3296,-13.1095 -0.8481,-3.7676 -1.2982,-7.2461 -1.0002,-7.7299 0.298,-0.4839 -0.1894,-3.4854 -1.0832,-6.6701 -3.2565,-11.6031 -8.8415,-42.2698 -7.8749,-43.2398 1.2167,-1.2209 2.4752,2.1546 3.8832,10.4154 2.0814,12.2114 4.2507,19.7815 5.9406,20.7305 0.773,0.4341 1.7059,3.1566 2.0731,6.0501 0.3674,2.8935 1.3696,7.8611 2.2272,11.0392 1.4497,5.3722 1.438,5.9127 -0.1664,7.6917 -1.4647,1.624 -1.6186,3.0605 -1.0178,9.4946 0.3894,4.1696 0.4306,7.5811 0.092,7.5811 -0.339,0 -0.6736,-1.014 -0.7436,-2.2533 z m 261.32893,1.6378 c -1.1602,-1.1643 -0.8205,-23.0989 0.3994,-25.7855 0.8755,-1.9281 0.7842,-3.1279 -0.4225,-5.5553 -1.0743,-2.1609 -1.1855,-3.0981 -0.3682,-3.1027 0.6441,0 -0.1763,-0.902 -1.823,-1.9964 -3.6847,-2.4488 -4.4697,-2.4918 -4.5678,-0.2504 -0.042,0.964 -0.6773,3.5554 -1.4113,5.7587 l -1.3345,4.0059 0.5562,-5.8064 c 0.3088,-3.2228 0.1596,-5.6949 -0.3353,-5.5558 -0.4903,0.1378 -2.6097,-0.093 -4.7097,-0.5126 -2.5171,-0.5031 -4.3027,-0.3597 -5.2397,0.4206 -0.8258,0.6878 -1.4213,0.7643 -1.4213,0.1827 0,-0.581 -1.9895,-0.8387 -4.7407,-0.614 l -4.7406,0.3871 5.1854,-1.9329 c 2.8519,-1.0631 6.1079,-1.6907 7.2356,-1.3948 1.2435,0.3263 2.0504,0.056 2.0504,-0.6874 0,-1.1363 0.4848,-1.0717 4.4911,0.5986 0.6107,0.2545 0.8909,-1.6291 0.7222,-4.8532 -0.1518,-2.8981 -0.2839,-7.748 -0.2937,-10.7775 -0.023,-6.9801 -0.8142,-12.2065 -1.76,-11.6199 -1.1266,0.6987 -0.7999,-4.808 0.3335,-5.6198 0.618,-0.4427 0.3357,-1.3797 -0.7414,-2.4608 -2.254,-2.2624 -3.8738,-0.7505 -4.0897,3.8174 -0.105,2.2209 0.2649,3.2792 1.0885,3.1139 0.6861,-0.1377 1.2475,0.2003 1.2475,0.7512 0,0.5508 -0.3463,1.0015 -0.7696,1.0015 -0.4232,0 -0.7084,2.474 -0.6337,5.4978 0.088,3.5675 -0.3424,5.8961 -1.2265,6.6323 -1.0908,0.9085 -1.3623,0.623 -1.3623,-1.4327 0,-1.412 -0.4503,-2.8465 -1.0007,-3.1879 -0.6113,-0.3791 -0.6578,-1.279 -0.1195,-2.3124 0.9982,-1.9165 0.3118,-8.2016 -0.8957,-8.2016 -0.4352,0 -0.5629,0.8765 -0.2837,1.9478 0.4013,1.5399 -0.1931,2.1338 -2.838,2.8358 -4.2411,1.1256 -4.8063,-0.1543 -1.4475,-3.278 1.4262,-1.3263 2.593,-2.9738 2.593,-3.6611 0,-0.9719 -0.2661,-0.9825 -1.1976,-0.048 -0.6587,0.661 -2.3002,1.2018 -3.6478,1.2018 -2.3928,0 -2.4076,-0.047 -0.6305,-2.0176 2.1966,-2.4357 2.6073,-6.0115 0.8885,-7.7363 -1.662,-1.6677 -2.3988,-1.5941 -2.3988,0.2397 0,0.8263 -0.4491,1.5023 -0.998,1.5023 -0.5489,0 -0.998,-0.6537 -0.998,-1.4525 0,-0.7989 -0.786,-1.9173 -1.7465,-2.4854 -1.4034,-0.83 -1.484,-1.2066 -0.4103,-1.9166 0.9941,-0.6573 1.1727,-2.3933 0.6976,-6.7784 -1.3194,-12.178 -1.6195,-13.2981 -3.7435,-13.9745 -1.4971,-0.4769 -1.7045,-0.8646 -0.7719,-1.443 0.759,-0.4707 0.9927,-1.53 0.5772,-2.6166 -0.5445,-1.4237 -0.8786,-1.5326 -1.5179,-0.4946 -0.5193,0.8431 -1.6173,1.0769 -2.9959,0.6379 -2.042,-0.6504 -2.1681,-0.3946 -2.0455,4.1492 0.1783,6.6065 -1.8211,22.3728 -3.1783,25.0627 -0.6087,1.2064 -0.8191,3.6369 -0.4674,5.4012 0.3697,1.8549 0.1698,3.7755 -0.474,4.5539 -1.5483,1.8721 -0.3623,4.3761 2.0727,4.3761 2.2502,0 2.676,-1.953 0.8298,-3.8057 -1.6044,-1.6099 -0.3052,-1.5184 2.9937,0.2111 2.8776,1.5085 9.096,7.6006 7.7582,7.6006 -0.4396,0 -2.5112,-0.9655 -4.6035,-2.1455 l -3.8042,-2.1455 -2.4189,2.822 -2.4189,2.8219 -3.1563,-2.2553 c -1.7359,-1.2404 -2.9232,-2.6336 -2.6383,-3.0961 0.2848,-0.4625 0.078,-2.0009 -0.4588,-3.4187 -0.56,-1.478 -0.6205,-3.5435 -0.1418,-4.8411 0.7815,-2.1184 0.882,-2.0486 1.5695,1.0905 0.4889,2.2318 1.0679,3.0194 1.7308,2.3541 0.548,-0.5498 0.6881,-1.974 0.3114,-3.1648 -0.3766,-1.1909 -0.8166,-6.081 -0.9778,-10.867 -0.1611,-4.7859 -0.6019,-9.3777 -0.9796,-10.2039 -1.2856,-2.8125 -6.4929,-6.2443 -8.31026,-5.4768 -0.94659,0.3998 -2.75783,0.7976 -4.02497,0.8841 -1.26715,0.086 -2.66427,0.7423 -3.10469,1.4574 -0.61295,0.9953 -0.98759,0.8694 -1.59714,-0.5363 -0.43799,-1.0102 -0.7204,-2.1886 -0.62758,-2.6188 0.0928,-0.4303 -1.19639,-0.074 -2.86493,0.792 -1.66854,0.8658 -3.45191,1.3149 -3.96305,0.9979 -1.17693,-0.7299 1.97807,-4.513 3.76373,-4.513 0.73376,0 1.03764,-0.4814 0.67527,-1.0698 -0.36238,-0.5883 -1.24649,-0.8435 -1.96469,-0.5669 -0.7182,0.2766 -2.13239,-0.6345 -3.14263,-2.0246 -3.46562,-4.7686 -9.34178,-5.1571 -8.86777,-0.5863 0.41013,3.9548 2.78369,7.3161 11.05073,15.6493 8.94919,9.0209 11.44924,10.6313 16.50468,10.6313 3.4337,0 3.9549,1.6979 0.6836,2.2265 -6.89515,1.1144 -18.43962,-6.8958 -28.93296,-20.0752 -0.95522,-1.1997 -2.19028,-2.1813 -2.74456,-2.1813 -1.7771,0 -1.07704,4.3037 1.07376,6.6011 1.72249,1.8399 1.88509,2.5918 0.94258,4.359 -0.67798,1.2713 -0.88061,3.8647 -0.50062,6.4074 0.60449,4.0451 1.04429,4.5191 8.28915,8.9335 4.20792,2.5639 9.33494,5.3626 11.39337,6.2193 2.05842,0.8566 3.74259,1.734 3.74259,1.9498 0,0.9687 -11.23292,-2.685 -15.13272,-4.9222 -2.38081,-1.3658 -5.48792,-2.4887 -6.90467,-2.4954 -1.64031,-0.01 -3.01428,-0.8305 -3.78282,-2.2654 -0.6638,-1.2394 -2.75014,-3.2646 -4.63631,-4.5005 -5.72347,-3.7504 -10.46247,-15.9952 -10.46247,-27.0334 0,-4.6051 -0.43828,-5.8083 -3.24357,-8.9049 -3.37628,-3.7267 -8.07288,-6.7096 -9.03868,-5.7404 -0.3074,0.3085 -2.2731,0.4924 -4.3681,0.4085 -2.095,-0.084 -6.6898,-0.2416 -10.2106,-0.3505 -3.7384,-0.1157 -6.5603,-0.6731 -6.7833,-1.3399 -0.5273,-1.5771 8.0279,-4.4102 9.8056,-3.2472 0.7607,0.4978 2.955,0.6547 4.8762,0.3488 1.9759,-0.3147 5.2924,0.081 7.6355,0.9113 3.7408,1.3253 9.71809,1.9584 16.19726,1.7156 2.29053,-0.086 2.23713,-0.2463 -1.49703,-4.5014 -2.12976,-2.4268 -4.60658,-4.4548 -5.50405,-4.5067 -0.89746,-0.052 -2.36743,-1.221 -3.26658,-2.5981 -1.8784,-2.8768 -2.8606,-3.0874 -4.8918,-1.0492 -0.7972,0.8 -1.7359,1.1672 -2.086,0.8159 -1.3942,-1.3991 -8.0949,-3.1837 -8.417,-2.2417 -0.183,0.535 -0.7924,0.9728 -1.3543,0.9728 -0.5619,0 -0.7788,-0.635 -0.4821,-1.411 0.4053,-1.0598 -1.0169,-1.683 -5.7136,-2.5038 -3.4392,-0.601 -7.8107,-1.0927 -9.7144,-1.0927 -1.9037,0 -4.0114,-0.5521 -4.6838,-1.2268 -0.9647,-0.9681 -1.6515,-0.958 -3.2566,0.048 -1.1371,0.7126 -5.1497,1.2846 -9.0994,1.2971 -4.6579,0.015 -7.8671,0.5496 -9.4183,1.5695 -2.3035,1.5146 -3.0478,0.9093 -1.5892,-1.2923 3.3788,-5.0998 32.2588,-4.2122 51.4173,1.5803 4.1607,1.258 7.7004,0.6104 7.7004,-1.4088 0,-0.7156 -3.1438,-4.1254 -6.9862,-7.5774 -3.8424,-3.4521 -6.9861,-6.8547 -6.9861,-7.5615 0,-0.7068 -0.5614,-1.4834 -1.2476,-1.7257 -1.4835,-0.5239 5.6953,-7.7383 7.7002,-7.7383 0.7263,0 2.7628,-1.352 4.5256,-3.0045 1.7629,-1.6525 3.4276,-3.0045 3.6993,-3.0045 0.27183,0 3.78036,-2.5914 7.79678,-5.7586 11.32917,-8.9339 19.35912,-13.5976 23.16517,-13.454 2.60692,0.098 4.22169,-0.7707 7.76844,-4.1809 2.50312,-2.4068 4.47745,-5.2265 4.47745,-6.3947 0,-1.2305 1.90407,-3.7714 4.63162,-6.1806 2.54739,-2.2501 3.99453,-4.0911 3.21587,-4.0911 -0.77866,0 -2.18482,0.9013 -3.12481,2.003 -1.80277,2.1128 -6.16693,2.7076 -7.2278,0.9851 -0.91511,-1.4858 -2.485,-0.1776 -2.485,2.0708 0,2.0862 -3.72896,6.959 -5.32539,6.959 -0.53535,0 -2.36308,1.0565 -4.06163,2.3476 -6.21642,4.7256 -8.1803,4.8644 -3.26538,0.2308 4.93852,-4.6558 5.30262,-6.5844 1.24309,-6.5844 -2.51294,0 -9.62649,3.0442 -13.43611,5.7498 -2.36342,1.6786 -2.37453,1.6727 -1.00431,-0.529 1.72484,-2.7715 12.4505,-8.2253 16.1763,-8.2253 2.79726,0 13.97582,-5.2679 16.56497,-7.8063 0.77132,-0.7562 2.45548,-1.7767 3.74259,-2.2677 1.2871,-0.4911 2.34018,-1.5886 2.34018,-2.439 0,-1.1792 0.65136,-1.3893 2.7446,-0.8854 3.2417,0.7804 4.1669,1.5013 2.6366,2.0544 -0.6083,0.2199 -1.9387,1.0108 -2.9564,1.7575 -1.5546,1.1407 -1.64147,1.6105 -0.5434,2.9382 1.1759,1.4218 1.6713,1.3321 4.9347,-0.8931 1.9951,-1.3605 4.3092,-2.4719 5.1424,-2.4698 0.8331,0 0.1675,0.8304 -1.4793,1.8407 -1.6467,1.0103 -3.6104,2.586 -4.3638,3.5015 -0.7533,0.9155 -2.1346,1.6645 -3.0696,1.6645 -2.09177,0 -6.03987,4.0637 -6.03987,6.2168 0,0.8695 0.71039,1.8545 1.57866,2.1888 2.48121,0.9555 7.40351,0.7104 7.40351,-0.3685 0,-0.5509 1.3051,-0.7146 2.9941,-0.3756 1.9073,0.3828 2.9941,0.192 2.9941,-0.5258 0,-0.6197 0.9285,-1.1267 2.0633,-1.1267 1.6142,0 1.9244,0.4392 1.4251,2.0179 -0.5637,1.7821 -0.1344,1.6737 3.6753,-0.9285 2.3725,-1.6204 5.1034,-3.8902 6.0687,-5.0438 1.699,-2.0305 1.675,-2.1281 -0.7485,-3.0528 -1.9809,-0.7557 -2.497,-1.64 -2.4719,-4.2348 0.047,-4.8218 1.8653,-6.479 8.6539,-7.8861 5.3747,-1.114 6.3859,-1.0656 8.6346,0.4129 2.5773,1.6946 4.4874,7.5127 3.1692,9.6531 -1.0603,1.7215 -2.2755,0.3281 -2.2755,-2.6091 0,-3.8251 -2.8557,-5.6325 -7.7048,-4.8764 -2.1792,0.3398 -4.2002,0.9675 -4.4911,1.3949 -0.2909,0.4274 -1.3149,1.0681 -2.2755,1.4238 -0.9606,0.3556 -1.7465,1.1054 -1.7465,1.6661 0,1.553 7.1702,4.2216 9.6589,3.5948 4.1823,-1.0533 7.2828,3.0567 8.9368,11.8465 0.8133,4.3222 2.3513,9.4923 3.4178,11.4891 2.4959,4.673 2.4576,7.6888 -0.1204,9.5009 -1.96,1.3776 -1.6948,1.6308 5.4891,5.2419 4.1517,2.0869 7.5486,4.077 7.5486,4.4225 0,0.3455 1.5151,2.288 3.3669,4.3167 1.8518,2.0288 3.9273,5.0462 4.6122,6.7055 0.6849,1.6593 1.6051,3.0168 2.0448,3.0168 0.4398,0 1.342,1.6901 2.0051,3.7557 1.4107,4.3949 2.7176,6.2593 4.3878,6.2593 0.7678,0 1.0432,-1.0852 0.7625,-3.0045 -0.3315,-2.2664 -0.049,-3.0045 1.1519,-3.0045 2.2713,0 3.1582,4.5731 1.4017,7.2278 -1.2694,1.9185 -1.2645,2.6629 0.04,5.9941 1.7813,4.5505 2.6529,4.7312 4.5996,0.9535 2.1806,-4.2314 2.2344,-11.3833 0.121,-16.0862 -2.0133,-4.4804 -4.3921,-5.7815 -7.5095,-4.1073 -2.4915,1.338 -4.0092,0.5608 -4.0092,-2.053 0,-1.0691 -0.5613,-1.958 -1.2475,-1.9753 -2.0246,-0.051 -4.3445,-4.0876 -5.7377,-9.9835 -0.7159,-3.0296 -1.9099,-6.4473 -2.6533,-7.595 -1.0499,-1.6208 -1.1057,-2.7947 -0.25,-5.2579 1.2741,-3.6676 1.4917,-3.7238 5.8912,-1.5214 2.6941,1.3487 3.8732,1.4401 6.4618,0.5008 4.7153,-1.711 7.0983,-1.4138 10.2047,1.2727 2.593,2.2426 2.7946,2.9442 2.7246,9.4832 -0.068,6.3902 -0.3254,7.2587 -2.704,9.1362 -2.6281,2.0745 -2.6282,2.075 -0.6331,4.077 4.4395,4.4549 5.8601,13.504 3.3682,21.4541 -0.9278,2.9599 -2.3078,5.6208 -3.0667,5.913 -1.5762,0.6069 -1.8937,3.5987 -0.3819,3.5987 0.5489,0 0.998,1.1408 0.998,2.5352 0,1.3943 0.6799,2.797 1.5109,3.1169 0.831,0.32 2.009,2.5669 2.6178,4.9931 0.6088,2.4262 1.6131,4.7378 2.2317,5.1369 0.6186,0.399 6.2896,0.7712 12.6021,0.8271 6.3125,0.056 12.4346,0.4111 13.6046,0.7895 3.0556,0.9881 3.6117,-1.4408 1.5858,-6.926 l -1.6966,-4.5936 2.4848,-1.9158 c 4.7199,-3.639 10.968,-1.9168 10.968,3.0233 0,1.6006 0.4491,3.1887 0.998,3.5291 1.5077,0.9351 1.205,3.6759 -0.8532,7.7271 l -1.8513,3.6438 4.9784,2.0762 c 2.7382,1.1419 6.3782,2.083 8.089,2.0913 6.5983,0.032 14.6033,3.6265 11.8626,5.3263 -1.7082,1.0594 -15.455,-2.3443 -23.3709,-5.7867 -4.5035,-1.9584 -9.1197,-3.5767 -10.2581,-3.5962 -1.1384,-0.02 -3.1926,-0.6796 -4.5648,-1.4668 -3.6568,-2.0976 -5.1796,-1.8598 -4.8101,0.7511 0.2686,1.898 1.8931,2.7654 10.2992,5.4992 5.4891,1.7853 13.7977,3.7675 18.4634,4.4049 4.6658,0.6375 8.9958,1.5574 9.6222,2.0443 0.6264,0.4868 2.872,0.8225 4.9901,0.7459 2.1182,-0.077 6.995,0.4174 10.8373,1.0977 3.8424,0.6804 9.0072,1.3829 11.4773,1.561 2.4701,0.1782 7.6349,0.5403 11.4773,0.8046 3.8424,0.2644 9.4563,0.7863 12.4753,1.1598 3.019,0.3735 8.763,0.823 12.7644,0.999 4.0013,0.176 8.4925,0.5608 9.9802,0.855 1.4878,0.2942 5.8488,0.7868 9.6912,1.0946 3.8424,0.3078 9.0071,0.8582 11.4772,1.223 2.4702,0.3648 9.3191,0.5964 15.2199,0.5145 8.8217,-0.1224 10.7288,0.1118 10.7288,1.3174 0,1.1891 -1.8388,1.4604 -9.7308,1.4353 -5.3519,-0.017 -13.099,-0.5099 -17.2159,-1.0952 -4.1168,-0.5854 -9.2816,-1.2064 -11.4773,-1.3802 -9.8092,-0.7761 -19.9755,-1.7166 -32.9347,-3.0469 -7.6848,-0.7888 -17.1162,-1.6431 -20.9585,-1.8985 -3.8424,-0.2553 -12.151,-1.1771 -18.4635,-2.0484 -6.3125,-0.8714 -15.0702,-2.0455 -19.4615,-2.6092 -8.7666,-1.1253 -13.5271,-2.1257 -20.709,-4.3522 -4.5284,-1.4039 -4.7406,-1.3828 -4.7406,0.4711 0,6.7256 4.4638,18.0054 7.6979,19.4524 1.1779,0.527 2.8032,2.6481 3.6117,4.7135 1.0975,2.8035 2.1903,3.9021 4.312,4.3344 1.563,0.3185 4.3351,1.0555 6.1602,1.6377 1.825,0.5823 3.5661,0.81 3.8691,0.506 0.303,-0.304 1.7289,0.045 3.1689,0.7752 1.4399,0.7303 5.0881,1.8981 8.1071,2.5949 5.4041,1.2475 7.9842,2.5378 7.9842,3.993 0,0.8607 -5.0172,0.096 -6.4871,-0.989 -0.8699,-0.642 -7.1037,-2.1518 -9.9803,-2.4172 -0.5489,-0.051 -1.8962,-0.6014 -2.9941,-1.224 -1.0978,-0.6225 -4.3283,-1.4479 -7.1789,-1.8341 l -5.1829,-0.7022 0.9423,3.4243 c 3.1143,11.3185 -5.835,22.0163 -17.1444,20.4942 -5.6152,-0.7558 -7.5658,0.046 -8.2309,3.3829 -0.3196,1.6037 -1.0895,2.9158 -1.7109,2.9158 -0.6845,0 -0.8464,-0.6907 -0.4107,-1.7526 1.7532,-4.2736 1.5903,-4.7561 -1.9821,-5.8683 -4.1157,-1.2813 -4.9188,-0.5949 -3.5454,3.0301 1.1866,3.1319 0.1208,6.2995 -3.1058,9.2308 -4.7695,4.3329 -12.614,6.8655 -15.5759,5.0286 -0.6858,-0.4253 -1.2469,-0.5055 -1.2469,-0.1782 0,0.3273 -0.8294,0.1496 -1.8432,-0.3948 -1.2331,-0.6622 -2.1868,-0.645 -2.8814,0.052 -0.719,0.7215 -1.2571,0.6866 -1.7499,-0.1135 -0.3913,-0.6355 -0.5442,-1.3233 -0.3396,-1.5286 0.8251,-0.828 6.2006,-1.3757 7.22,-0.7357 2.2172,1.3921 4.1977,1.1834 8.8104,-0.9284 2.6786,-1.2263 5.02,-3.0683 5.4058,-4.2527 1.091,-3.3492 1.0776,-6.9174 -0.035,-9.46 -0.7945,-1.8151 -0.6963,-2.628 0.4232,-3.5053 1.8749,-1.4693 2.7626,-16.6654 0.9735,-16.6654 -0.7546,0 -1.0564,-1.501 -0.8559,-4.2564 0.2732,-3.7545 0.047,-4.2941 -1.9198,-4.5764 -2.0157,-0.2893 -2.2294,0.1 -2.2294,4.0561 0,2.4068 0.5614,4.983 1.2475,5.7248 1.0102,1.0921 0.9779,1.1943 -0.1696,0.5368 -1.0525,-0.6031 -1.2531,-0.3832 -0.7798,0.8546 0.3505,0.9165 0.2503,1.6665 -0.2227,1.6665 -1.4005,0 -2.2232,3.2528 -1.1061,4.3737 0.5669,0.5689 1.0307,2.2963 1.0307,3.8386 0,2.1365 -0.4753,2.8042 -1.9961,2.8042 -1.0978,0 -2.046,-0.5634 -2.1071,-1.2519 -0.5029,-5.6679 -0.2759,-9.647 0.6715,-11.7676 0.6152,-1.3771 0.8034,-3.6304 0.4183,-5.0075 -0.3852,-1.3771 -0.4932,-3.6884 -0.24,-5.1364 0.4052,-2.3171 -1.1491,-4.8006 -2.2887,-3.657 -0.7913,0.794 -1.6183,8.7073 -2.3352,22.3444 -0.1151,2.1894 -5.8817,5.0907 -7.2964,3.671 -1.3809,-1.3856 -2.189,-15.8565 -0.9291,-16.6379 1.9576,-1.2141 1.2345,-2.5871 -1.3626,-2.5871 -1.3723,0 -2.5423,0.5633 -2.6001,1.2519 -0.058,0.6885 -0.266,5.9839 -0.4628,11.7676 -0.5299,15.5771 -1.4193,25.1524 -2.5298,27.2346 -0.5427,1.0176 -0.7784,2.1886 -0.5237,2.6021 0.2547,0.4136 -0.09,5.6997 -0.7667,11.7469 -0.6764,6.0473 -0.9401,12.5984 -0.586,14.558 0.6815,3.7722 -0.09,7.5465 -1.2949,6.3372 z m 1.0827,-42.6618 c 0.2411,-2.8359 -0.2174,-3.9741 -2.2456,-5.575 -3.1434,-2.4812 -3.2398,-3.4479 -0.3029,-3.0381 1.8476,0.2578 2.2155,-0.1305 2.0761,-2.1905 -0.093,-1.377 -0.2754,-4.8865 -0.4047,-7.7987 -0.2496,-5.6195 -1.8129,-8.2728 -2.0781,-3.5272 -0.219,3.9185 -0.1732,4.455 0.6468,7.5703 0.5834,2.2169 0.3908,2.7541 -0.9872,2.7541 -1.1117,0 -1.5106,-0.5267 -1.1375,-1.5022 0.3159,-0.8262 0.1394,-1.5022 -0.3923,-1.5022 -0.9666,0 -1.0572,0.3207 -1.4154,5.0074 -0.1052,1.3771 -0.5239,4.6445 -0.9305,7.2609 -0.674,4.3382 -0.5631,4.7571 1.2592,4.7571 1.0991,0 2.2905,0.4745 2.6477,1.0544 1.2363,2.0073 2.9628,0.2777 3.2644,-3.2703 z m 56.9704,-8.9111 c 4.0999,-1.4342 7.54,-7.7921 6.7752,-12.5216 -0.8229,-5.0888 -3.6893,-10.4023 -5.6115,-10.4023 -0.9438,0 -2.0528,-0.338 -2.4645,-0.7511 -0.4117,-0.4132 -1.9462,-0.8118 -3.4099,-0.8859 -1.4638,-0.074 -3.6719,-0.4647 -4.907,-0.8679 -1.8407,-0.601 -2.2455,-0.3596 -2.2455,1.3395 0,2.8288 -1.9706,6.9503 -3.6283,7.5886 -1.7794,0.6852 -1.7241,-0.8123 0.1655,-4.479 1.8718,-3.6323 0.5256,-6.9517 -2.8194,-6.9517 -2.975,0 -4.6794,3.0249 -5.2491,9.3158 -0.2594,2.8632 -0.7131,7.0906 -1.0082,9.394 -0.731,5.7039 1.0108,8.3261 5.5439,8.346 1.9263,0.01 4.1761,0.4522 4.9995,0.9861 2.0307,1.317 9.9595,1.2537 13.8593,-0.1105 z m -14.8573,-7.9606 c 0,-1.1341 0.4295,-1.7957 0.9544,-1.4701 0.525,0.3255 0.7015,1.2535 0.3923,2.0621 -0.7917,2.0702 -1.3467,1.8262 -1.3467,-0.592 z m -28.5253,0.4528 c 1.1419,-0.4398 1.5786,-1.9637 1.5786,-5.5083 0,-7.5487 -2.7988,-6.2808 -4.0244,1.8232 -0.6584,4.3536 -0.3799,4.7732 2.4458,3.6851 z m -15.7986,-14.1592 c -1.0902,-1.094 -1.8378,0.6458 -1.055,2.4555 0.7422,1.7159 0.796,1.7144 1.2095,-0.035 0.238,-1.0071 0.1685,-2.0962 -0.1545,-2.4203 z m -4.9999,-2.8021 c -0.6793,-2.7162 -2.5735,-3.3732 -2.5735,-0.8927 0,0.8624 0.5244,2.5513 1.1653,3.7529 1.4082,2.6404 2.3205,0.7873 1.4082,-2.8602 z m 23.3752,2.5467 c 0,-0.5508 -0.4491,-1.0015 -0.9981,-1.0015 -0.5489,0 -0.998,0.4507 -0.998,1.0015 0,0.5508 0.4491,1.0015 0.998,1.0015 0.549,0 0.9981,-0.4507 0.9981,-1.0015 z m 42.915,-4.5068 c 0,-0.8262 -0.8016,-1.5022 -1.7814,-1.5022 -1.3586,0 -2.0779,-1.367 -3.0302,-5.7586 -0.6867,-3.1673 -1.3807,-6.8114 -1.5421,-8.0982 -0.1614,-1.2867 -0.8121,-2.6611 -1.4459,-3.0542 -0.6338,-0.3931 -1.2715,-2.3814 -1.417,-4.4186 -0.1657,-2.3194 -0.7708,-3.7046 -1.6189,-3.7059 -0.7941,-10e-4 -1.1167,0.6194 -0.7799,1.5003 0.6437,1.6833 -0.459,2.0032 -1.9078,0.5535 -1.1067,-1.1074 -1.2525,20.867 -0.1503,22.6566 0.3856,0.6262 1.4867,0.9419 2.4467,0.7015 1.3289,-0.3326 7.1397,1.0061 10.9773,2.5291 0.1372,0.054 0.2495,-0.577 0.2495,-1.4033 z m -50.9145,-3.3139 c 0.01,-0.7211 -0.4338,-1.0325 -0.9827,-0.6921 -0.549,0.3405 -0.9912,1.6064 -0.9828,2.8133 0.013,1.7839 0.1962,1.9133 0.9828,0.692 0.5321,-0.8262 0.9743,-2.0922 0.9827,-2.8132 z m 33.4117,-1.132 c 0.3186,-0.5174 0.2877,-2.7708 -0.069,-5.0075 -0.4454,-2.7948 -1.1545,-4.0768 -2.2671,-4.0986 -1.4655,-0.029 -1.4602,-0.153 0.056,-1.3096 1.1299,-0.862 1.3862,-1.7459 0.788,-2.7173 -1.6647,-2.7029 -3.8932,2.0147 -3.9279,8.3151 -0.03,5.4464 0.1003,5.7586 2.4044,5.7586 1.3399,0 2.6969,-0.4233 3.0156,-0.9407 z m -10.9409,-1.8288 c 1.3164,-0.9705 1.8304,-6.6507 1.0025,-11.0792 -0.8325,-4.4528 -2.4616,-2.4543 -2.4842,3.0474 -0.011,2.6852 -0.5707,4.0186 -2.0114,4.7923 -3.1709,1.703 -2.5226,2.9614 1.9961,3.8745 0.2744,0.055 0.9481,-0.2303 1.497,-0.635 z m -125.17516,-3.5962 c -0.91208,-1.7102 -1.01829,-3.9763 -0.38714,-8.2608 0.47836,-3.2473 0.50042,-8.1734 0.049,-10.9469 -0.61208,-3.7607 -0.4394,-5.9248 0.67924,-8.5127 l 1.49996,-3.4701 0.15399,4.006 c 0.0847,2.2033 0.0808,4.7548 -0.009,5.6699 -0.0895,0.9151 0.30792,1.9558 0.8831,2.3125 0.64267,0.3985 1.04578,-0.5419 1.04578,-2.4398 0,-2.3962 0.57559,-3.308 2.56802,-4.0682 l 2.56802,-0.9797 -3.31653,-2.7511 c -1.8241,-1.5131 -4.04147,-3.626 -4.9275,-4.6953 -1.32244,-1.5961 -2.97579,-1.9605 -9.23172,-2.0349 -4.19142,-0.05 -7.62077,0.097 -7.62077,0.3271 0,0.2298 1.13924,1.4773 2.53166,2.7723 2.09122,1.9448 2.63237,2.091 3.11062,0.8404 1.04958,-2.7447 3.1801,0.3056 2.67699,3.8326 -1.33336,9.3475 -1.42207,15.1195 -0.27753,18.0594 2.771,7.1176 4.47623,10.2776 6.40092,11.8617 2.57006,2.1152 3.21555,1.502 1.60255,-1.5224 z m 78.76706,1.2991 c 0,-1.1342 -0.4491,-1.7836 -0.998,-1.4431 -0.5489,0.3404 -0.998,1.2683 -0.998,2.0621 0,0.7937 0.4491,1.4431 0.998,1.4431 0.5489,0 0.998,-0.9279 0.998,-2.0621 z m 38.76,-1.9032 c 0.1848,-1.2683 0.032,-3.9319 -0.3394,-5.9189 l -0.6754,-3.6129 -1.4072,3.3583 c -1.5115,3.6072 -1.8315,7.3761 -0.721,8.4905 1.2155,1.2197 2.7976,0.053 3.143,-2.317 z m -51.7343,1.5207 c 0,-0.2429 -0.4491,-0.7202 -0.998,-1.0606 -0.5489,-0.3405 -0.9981,-0.1417 -0.9981,0.4416 0,0.5833 0.4492,1.0606 0.9981,1.0606 0.5489,0 0.998,-0.1987 0.998,-0.4416 z m 44.9803,-5.0666 c 0.3928,-5.0923 -10e-4,-6.5092 -1.8158,-6.5251 -1.4952,-0.013 -1.5311,-0.1573 -0.2495,-1.0015 1.2558,-0.8272 1.2754,-1.1295 0.1217,-1.8757 -0.7565,-0.4892 -1.0726,-1.3813 -0.7024,-1.9823 0.3702,-0.601 0.144,-2.0847 -0.5025,-3.2969 -1.1353,-2.1288 -1.2223,-2.1401 -2.5412,-0.3301 -0.7512,1.0308 -1.3657,1.3374 -1.3657,0.6813 0,-2.4654 -2.0698,-1.0735 -2.6372,1.7734 -0.3251,1.6315 -1.6041,3.6323 -2.8422,4.4464 -1.6569,1.0894 -2.1227,2.1536 -1.7648,4.0324 0.2675,1.4039 0.9321,2.2759 1.4771,1.938 0.6162,-0.3822 0.7221,0.235 0.2802,1.6324 -0.5223,1.6511 -0.3521,2.131 0.6416,1.81 0.7437,-0.2403 1.777,-2.3298 2.2962,-4.6433 1.2227,-5.4486 3.0481,-4.7992 3.0481,1.0845 0,5.4282 1.1202,7.0004 3.0757,4.3168 1.3669,-1.8759 1.4154,-1.8604 1.4154,0.4523 0,3.3872 1.7769,1.2254 2.0653,-2.5126 z m -3.0633,-3.5053 c 0,-0.5508 0.4491,-1.0015 0.998,-1.0015 0.5489,0 0.998,0.4507 0.998,1.0015 0,0.5508 -0.4491,1.0015 -0.998,1.0015 -0.5489,0 -0.998,-0.4507 -0.998,-1.0015 z m -9.4812,-2.003 c 0.3392,-0.5508 0.8148,-1.0015 1.0569,-1.0015 0.2421,0 0.4401,0.4507 0.4401,1.0015 0,0.5508 -0.4756,1.0015 -1.0569,1.0015 -0.5813,0 -0.7794,-0.4507 -0.4401,-1.0015 z m 5.0847,-3.8524 c -0.3202,-0.5198 0.1532,-1.2284 1.052,-1.5744 2.2058,-0.8494 2.7216,-0.1383 0.9624,1.3268 -0.854,0.7111 -1.6673,0.8111 -2.0144,0.2476 z m -33.5638,7.0482 c -0.02,-1.4823 -0.6248,-3.7619 -1.3453,-5.0659 -1.1175,-2.0226 -1.4034,-2.1266 -1.9459,-0.708 -0.5248,1.3724 -1.0137,1.4601 -2.7981,0.5018 -1.8704,-1.0045 -2.0744,-0.9317 -1.5118,0.5395 0.3577,0.9353 0.6503,2.351 0.6503,3.1458 0,0.7948 1.1228,1.8735 2.4951,2.397 1.3723,0.5236 2.495,1.4404 2.495,2.0373 0,0.597 0.4491,0.8069 0.9981,0.4665 0.5489,-0.3405 0.9821,-1.8318 0.9626,-3.314 z m 19.9959,-1.5864 c 0,-0.7673 -0.6737,-1.6545 -1.4971,-1.9715 -1.5006,-0.5779 -2.1138,1.4123 -0.8317,2.699 1.119,1.1229 2.3288,0.745 2.3288,-0.7275 z m -13.4974,-5.5055 c 0.3484,-1.592 0.3902,-5.468 0.093,-8.6133 -0.375,-3.9661 -0.1241,-6.3156 0.8187,-7.6663 1.2858,-1.8421 1.397,-1.8502 2.0546,-0.1497 0.6216,1.6074 0.8423,1.5326 2.0847,-0.706 1.5103,-2.7214 1.6178,-2.5938 1.8978,2.2533 0.1034,1.7902 -0.481,4.0542 -1.2988,5.0312 -2.1488,2.5671 -0.2325,4.0286 4.1903,3.196 4.2633,-0.8026 5.8407,-3.8816 3.0409,-5.9359 -0.9873,-0.7245 -2.3754,-1.0939 -3.0845,-0.8208 -0.8162,0.3143 -1.2894,-0.3229 -1.2894,-1.7363 0,-1.8914 0.2337,-2.0382 1.5283,-0.9601 1.2609,1.0502 1.7581,0.9573 2.8426,-0.5311 0.723,-0.9921 1.8249,-1.4872 2.4489,-1.1003 1.2224,0.7581 0.7891,-3.382 -0.9241,-8.8293 -0.7402,-2.3537 -0.5533,-3.2659 0.9586,-4.6794 1.0329,-0.9656 2.189,-3.8366 2.5691,-6.3799 0.38,-2.5433 1.599,-7.3997 2.7088,-10.7921 1.9233,-5.8791 1.9351,-6.2287 0.2522,-7.4636 -1.4789,-1.0851 -2.0831,-1.0122 -3.7197,0.449 -1.0747,0.9595 -2.5589,3.1785 -3.2982,4.931 -0.7393,1.7525 -1.8001,3.4691 -2.3573,3.8147 -1.6125,1.0001 -1.1978,6.2337 0.5472,6.9056 2.0332,0.783 0.8809,2.618 -1.6439,2.618 -1.1532,0 -2.3377,-0.9919 -2.8736,-2.4065 -1.4855,-3.9207 -2.5553,-3.7885 -6.7472,0.8336 -2.1897,2.4145 -5.7927,5.3173 -8.0066,6.4506 -4.9148,2.5161 -6.2359,5.7792 -5.7063,14.0945 0.4744,7.4497 5.9248,17.9435 8.1565,15.704 0.3162,-0.3173 0.01,-1.2638 -0.6876,-2.1033 -1.0418,-1.2597 -0.9828,-1.5265 0.3378,-1.5265 1.7183,0 3.1976,4.0981 2.3136,6.4096 -0.5521,1.444 0.075,2.6039 1.4077,2.6039 0.4138,0 1.0375,-1.3025 1.386,-2.8946 z m 3.5171,-21.1413 c 0,-0.5509 0.4491,-1.0015 0.998,-1.0015 0.549,0 0.9981,0.4506 0.9981,1.0015 0,0.5508 -0.4491,1.0015 -0.9981,1.0015 -0.5489,0 -0.998,-0.4507 -0.998,-1.0015 z m 8.9822,20.4955 c 0,-0.8069 -0.4491,-1.4671 -0.998,-1.4671 -0.5489,0 -0.998,0.7026 -0.998,1.5614 0,0.8587 -0.4491,1.2828 -0.998,0.9424 -0.5489,-0.3404 -0.9981,0.1 -0.9981,0.9776 0,1.2863 0.388,1.3882 1.9961,0.5246 1.0978,-0.5896 1.996,-1.7321 1.996,-2.5389 z m 27.9266,1.5472 c 2.7365,-1.4697 1.2398,-6.1815 -2.262,-7.1212 -2.6001,-0.6978 -2.6338,-0.6498 -1.3672,1.9461 0.7144,1.4639 1.1206,3.4503 0.9028,4.4142 -0.4527,2.004 0.1161,2.1627 2.7264,0.7609 z m -83.32523,-4.17 c 1.26423,-1.1889 -1.16244,-2.814 -4.23326,-2.8349 -2.18928,-0.015 -3.17917,2.7199 -1.56922,4.3355 0.78274,0.7855 4.35337,-0.138 5.80248,-1.5006 z m 64.38093,0.7369 c 0,-0.7812 0.2726,-2.1332 0.6057,-3.0045 0.3976,-1.0395 0.054,-1.5842 -0.998,-1.5842 -1.1166,0 -1.6038,0.9126 -1.6038,3.0045 0,1.6525 0.4491,3.0045 0.998,3.0045 0.5489,0 0.9981,-0.6391 0.9981,-1.4203 z m -15.4694,-1.5842 c 0.3392,-0.5508 0.1412,-1.0015 -0.4401,-1.0015 -0.5813,0 -1.057,0.4507 -1.057,1.0015 0,0.5509 0.1981,1.0015 0.4402,1.0015 0.242,0 0.7176,-0.4506 1.0569,-1.0015 z m 5.564,-0.2754 c -0.1235,-1.1975 -1.4924,-0.9656 -1.9212,0.3255 -0.2196,0.661 0.1397,1.0215 0.7984,0.8012 0.6587,-0.2203 1.1639,-0.7273 1.1228,-1.1267 z m 39.451,-2.4578 c -1.0145,-1.0181 -1.8516,0.5146 -1.0192,1.8662 0.6288,1.0209 0.8639,1.0217 1.2019,0 0.2312,-0.6959 0.149,-1.5375 -0.1827,-1.8703 z m -103.52382,-4.1966 c -0.94197,-2.1355 -2.05651,-3.0851 -3.62077,-3.0851 -2.03878,0 -2.137,0.2121 -1.00389,2.1688 3.50314,6.0492 7.21306,6.7842 4.62466,0.9163 z m 79.96632,0.044 c 0,-0.482 0.3027,-2.3953 0.6728,-4.2519 0.6291,-3.1565 0.5643,-3.2668 -0.998,-1.699 -1.8077,1.814 -2.3018,6.8272 -0.6728,6.8272 0.5489,0 0.998,-0.3943 0.998,-0.8763 z m -3.8836,-2.1877 c -0.2147,-0.7935 -0.3198,-2.6821 -0.2336,-4.1969 0.086,-1.5147 -0.2092,-2.7541 -0.6566,-2.7541 -1.186,0 -3.451,6.8111 -2.6808,8.0616 0.9532,1.5477 4.0314,0.5904 3.571,-1.1106 z m 6.8777,1.061 c 0,-0.5508 -0.4756,-1.0015 -1.057,-1.0015 -0.5813,0 -0.7793,0.4507 -0.4401,1.0015 0.3393,0.5508 0.8149,1.0015 1.057,1.0015 0.242,0 0.4401,-0.4507 0.4401,-1.0015 z m 54.8844,-3.9893 c 1.7764,-4.3035 0.5165,-9.8416 -2.5588,-11.2477 -2.0611,-0.9423 -2.6965,-0.8136 -3.9354,0.7972 -0.8125,1.0566 -1.2307,2.8224 -0.9292,3.9241 0.3015,1.1016 0.8084,3.693 1.1266,5.7586 0.4702,3.0534 0.9977,3.7556 2.8209,3.7556 1.548,0 2.6246,-0.9253 3.4759,-2.9878 z m -106.0539,1.3812 c -0.3317,-0.3327 -1.1925,-0.3683 -1.9129,-0.079 -0.7962,0.3197 -0.5597,0.5571 0.6029,0.6051 1.0521,0.043 1.6416,-0.1932 1.31,-0.526 z m -5.357,-2.9001 c 0.316,-0.8263 1.5171,-1.5023 2.6691,-1.5023 1.6405,0 1.9573,-0.4343 1.4611,-2.003 -0.3634,-1.149 -0.1793,-2.003 0.4318,-2.003 1.8638,0 1.1492,-2.5762 -1.3746,-4.9554 -1.7624,-1.6615 -3.1247,-2.1275 -4.9069,-1.6787 -2.1631,0.5448 -2.4672,1.1722 -2.4672,5.0906 0,2.4581 -0.2884,4.9376 -0.641,5.5101 -0.3526,0.5725 -0.3636,1.4916 -0.024,2.0424 0.9417,1.5291 4.2045,1.1924 4.852,-0.5007 z m 4.6292,1.0606 c 0,-0.2429 -0.4491,-0.7202 -0.998,-1.0606 -0.5489,-0.3405 -0.998,-0.1417 -0.998,0.4416 0,0.5833 0.4491,1.0606 0.998,1.0606 0.5489,0 0.998,-0.1987 0.998,-0.4416 z m 3.9921,-1.0015 c 0,-0.2429 -0.4491,-0.7202 -0.998,-1.0606 -0.5489,-0.3405 -0.998,-0.1417 -0.998,0.4416 0,0.5834 0.4491,1.0606 0.998,1.0606 0.5489,0 0.998,-0.1987 0.998,-0.4416 z m -18.3906,-3.0851 c -2.051,-1.5571 -3.1971,-1.3096 -2.1099,0.4556 0.3618,0.5875 1.4173,1.0538 2.3455,1.0363 1.4817,-0.028 1.453,-0.21 -0.2356,-1.4919 z m 75.278,-2.4823 c 0,-0.5508 -0.4491,-1.0015 -0.998,-1.0015 -0.549,0 -0.9981,0.4507 -0.9981,1.0015 0,0.5509 0.4491,1.0015 0.9981,1.0015 0.5489,0 0.998,-0.4506 0.998,-1.0015 z m -14.9704,-0.4416 c 0,-0.2429 -0.4491,-0.7202 -0.998,-1.0606 -0.5489,-0.3404 -0.998,-0.1417 -0.998,0.4416 0,0.5834 0.4491,1.0606 0.998,1.0606 0.5489,0 0.998,-0.1987 0.998,-0.4416 z m -100.30138,-1.5614 c -0.33924,-0.5508 -1.06592,-1.0015 -1.61483,-1.0015 -0.54891,0 -0.72046,0.4507 -0.38121,1.0015 0.33924,0.5509 1.06592,1.0015 1.61483,1.0015 0.54891,0 0.72046,-0.4506 0.38121,-1.0015 z m 3.19763,-3.3688 c -2.43833,-3.7346 -3.30938,-3.3811 -1.75807,0.7134 0.55336,1.4605 1.67021,2.6554 2.48189,2.6554 1.15891,0 1.0035,-0.7233 -0.72382,-3.3688 z m 103.67685,0.144 c 4.0391,-3.8231 4.2576,-5.9573 0.9735,-9.5113 -2.0713,-2.2415 -2.6694,-2.4375 -4.0162,-1.3159 -0.8704,0.7249 -1.8758,1.0238 -2.2341,0.6642 -0.3584,-0.3596 0.1746,-1.26 1.1843,-2.0009 1.2605,-0.9249 1.6054,-1.9418 1.1005,-3.2445 -0.6935,-1.7897 -0.8467,-1.7604 -2.6978,0.5172 -2.1863,2.69 -2.4286,10.4148 -0.4818,15.3619 1.3805,3.5082 2.0193,3.4595 6.1716,-0.4707 z m -98.39127,-3.6785 c 0,-0.4919 -0.7104,-1.1679 -1.57867,-1.5022 -2.23064,-0.859 -2.41343,-0.7913 -2.41343,0.8943 0,0.8346 0.88714,1.5023 1.99605,1.5023 1.09783,0 1.99605,-0.4025 1.99605,-0.8944 z m 39.37927,-1.0394 c 0.3159,-0.5128 0.1178,-1.2154 -0.4401,-1.5614 -1.7307,-1.0734 -1.1168,-2.5138 1.0713,-2.5138 1.1471,0 2.8802,0.9847 3.8515,2.1883 1.5327,1.8994 2.2126,2.0598 5.1501,1.2145 2.6093,-0.7508 3.4115,-1.5386 3.5036,-3.4402 0.066,-1.3565 0.468,-4.4328 0.8941,-6.8362 0.7249,-4.0887 0.6531,-4.304 -1.1174,-3.3468 -1.0407,0.5626 -2.981,2.191 -4.3117,3.6187 -2.9952,3.2133 -8.2352,3.4608 -12.5508,0.5927 -1.6468,-1.0944 -3.5555,-1.9928 -4.2416,-1.9964 -1.4824,-0.01 -1.6831,3.6111 -0.2495,4.5001 0.5489,0.3404 0.998,1.4937 0.998,2.5629 0,1.0691 0.5656,1.9439 1.257,1.9439 0.6913,0 1.8179,0.9013 2.5035,2.003 1.3408,2.1544 2.7603,2.5672 3.682,1.0707 z m -35.28358,-4.3719 c -1.28096,-1.2854 -2.57994,-0.2919 -1.63161,1.2479 0.36735,0.5964 1.12512,0.8009 1.68393,0.4543 0.68165,-0.4227 0.66444,-0.9829 -0.0523,-1.7022 z m 61.65878,-4.5729 c 5.3008,-6.3532 5.2261,-8.0172 -0.1918,-4.2765 -5.1836,3.5788 -6.2027,4.796 -7.0728,8.4474 -0.6039,2.5346 -0.4833,2.7071 1.2443,1.7792 1.0522,-0.565 3.7613,-3.2426 6.0203,-5.9501 z m -27.4166,-7.0087 c 0.8155,-1.3241 -0.3191,-1.9798 -2.4556,-1.4192 -1.0598,0.2781 -1.681,0.9051 -1.3803,1.3933 0.6987,1.1345 3.143,1.151 3.8359,0.026 z m 8.0378,-6.9016 c 1.6288,-2.6154 3.4922,-5.206 4.1408,-5.7568 1.6596,-1.4096 2.6431,-5.2261 1.5253,-5.9194 -0.514,-0.3188 -1.9919,0.3101 -3.2842,1.3976 -1.9254,1.6204 -2.0945,2.1457 -0.9367,2.9104 1.1425,0.7546 0.8084,1.5395 -1.7465,4.1034 -1.7377,1.7436 -3.1593,3.5494 -3.1593,4.0128 0,0.4634 -0.2726,1.5554 -0.6058,2.4267 -1.2739,3.3313 1.2338,1.3734 4.0664,-3.1747 z m -79.31043,1.7544 c 0,-0.5508 -0.4491,-1.0015 -0.9981,-1.0015 -0.5489,0 -0.998,0.4507 -0.998,1.0015 0,0.5508 0.4491,1.0015 0.998,1.0015 0.549,0 0.9981,-0.4507 0.9981,-1.0015 z m 114.58523,-3.0295 c 3.2975,-3.8522 3.3012,-3.8684 1.5107,-6.6754 -2.2378,-3.5084 -3.7704,-4.8091 -8.8084,-7.4757 l -3.9921,-2.1129 1.9961,2.3076 c 1.0978,1.2693 1.5469,2.0807 0.998,1.8032 -5.0178,-2.5364 -8.748,-3.9139 -9.246,-3.4142 -0.3303,0.3315 0.3965,1.8347 1.6151,3.3404 1.2187,1.5058 2.9792,3.9525 3.9122,5.4371 0.9331,1.4847 2.4883,2.9072 3.4561,3.1611 1.1752,0.3084 1.7596,1.4353 1.7596,3.3931 0,5.5379 2.1946,5.614 6.7987,0.2357 z m -105.60305,0.4666 c 0,-0.8587 -0.45643,-1.2782 -1.0143,-0.9323 -0.55786,0.346 -0.75592,1.0486 -0.44011,1.5614 0.85554,1.3891 1.45441,1.1301 1.45441,-0.6291 z m -11.97628,-1.4431 c 0,-0.5508 -0.198,-1.0015 -0.4401,-1.0015 -0.2421,0 -0.7177,0.4507 -1.0569,1.0015 -0.3393,0.5508 -0.1412,1.0015 0.4401,1.0015 0.5813,0 1.0569,-0.4507 1.0569,-1.0015 z m 33.25772,0.2504 c 0.81265,-1.385 -1.23936,-5.2579 -2.78584,-5.2579 -1.81691,0 -2.03087,3.102 -0.33156,4.8072 1.37089,1.3757 2.48052,1.5361 3.1174,0.4507 z m 7.71514,-3.8208 c 1.53427,-1.8551 1.92151,-6.078 0.83569,-9.1135 -1.31353,-3.672 1.00804,-9.4902 5.39094,-13.5105 2.2406,-2.0552 4.55102,-3.4648 5.1343,-3.1323 0.58326,0.3324 0.73945,0.2475 0.34708,-0.1886 -0.39237,-0.4362 -0.26429,-1.6351 0.28463,-2.6643 0.85018,-1.5941 0.63057,-1.8713 -1.48257,-1.8713 -1.36432,0 -2.83973,0.588 -3.27869,1.3068 -0.43896,0.7187 -2.48227,2.3328 -4.5407,3.5869 -2.05842,1.2541 -3.74259,2.6251 -3.74259,3.0467 0,0.4216 -0.90871,1.818 -2.01935,3.103 -2.27302,2.6299 -2.09336,4.6279 0.37635,4.1855 2.12997,-0.3815 2.13808,1.3916 0.0101,2.211 -1.51147,0.582 -1.51131,0.7636 0.002,2.4418 2.1396,2.3725 0.83544,3.6473 -1.53187,1.4974 -1.93202,-1.7545 -2.20965,-1.5107 -1.22175,1.0727 0.33318,0.8713 1.45596,1.5841 2.49506,1.5841 1.0786,0 1.88927,0.6983 1.88927,1.6275 0,1.2829 -0.68666,1.5092 -3.24357,1.0692 -1.78397,-0.307 -2.70742,-0.3342 -2.05212,-0.061 0.65531,0.2738 0.94409,1.1446 0.64174,1.9353 -0.30234,0.7906 -0.026,1.4375 0.61398,1.4375 0.64004,0 0.88614,0.4507 0.54689,1.0015 -1.01511,1.6482 3.14189,1.1306 4.54499,-0.5659 z m 33.17007,-6.4446 c -0.2871,-1.1016 -0.9187,-2.003 -1.4036,-2.003 -0.4849,0 -0.8816,0.9014 -0.8816,2.003 0,1.1017 0.6316,2.003 1.4036,2.003 0.9122,0 1.2209,-0.7012 0.8816,-2.003 z m -25.13035,-0.7511 c 0.0602,-0.4131 0.23109,-2.1942 0.37982,-3.9579 0.14872,-1.7638 1.02658,-3.9656 1.95079,-4.8931 1.20125,-1.2054 1.37364,-1.994 0.6046,-2.7657 -0.76904,-0.7717 -1.74341,-0.376 -3.41714,1.3878 -1.91482,2.0178 -2.25687,3.2427 -1.87762,6.7237 0.25506,2.341 0.86568,4.2563 1.35695,4.2563 0.49125,0 0.94242,-0.338 1.0026,-0.7511 z m 82.72655,-5.2264 c 0,-4.902 -0.2694,-5.8739 -1.497,-5.4011 -1.7478,0.673 -2.034,6.4976 -0.4639,9.4415 1.6262,3.0491 1.9609,2.3594 1.9609,-4.0404 z m 10.3412,4.4753 c 0.3907,-1.0218 -0.054,-1.5023 -1.3903,-1.5023 -1.9611,0 -2.5581,1.0737 -1.2994,2.3369 1.0779,1.0815 2.0753,0.7721 2.6897,-0.8346 z m -65.3755,-2.3939 c 0.944,-0.6002 1.0196,-1.0685 0.2496,-1.546 -1.266,-0.7851 -3.1007,0.1 -3.1007,1.4952 0,1.1645 1.0696,1.1836 2.8511,0.051 z m -14.8274,-6.8605 c 0,-0.6938 -0.3592,-1.2614 -0.7984,-1.2614 -1.24688,0 -3.19365,2.264 -3.19365,3.7141 0,1.0597 0.38187,1.0711 1.99605,0.06 1.0978,-0.688 1.996,-1.8185 1.996,-2.5123 z m 19.5026,1.6765 c 0.3618,-0.5875 -0.1731,-1.6934 -1.1887,-2.4575 -1.5968,-1.2016 -2.0151,-1.1667 -3.094,0.258 -0.6861,0.9061 -1.2475,2.012 -1.2475,2.4576 0,1.2038 4.7668,0.9814 5.5302,-0.2581 z m 14.8476,-0.5413 c 0.8683,-0.3343 1.5787,-1.4696 1.5787,-2.5228 0,-1.5406 0.4859,-1.7925 2.4858,-1.2889 3.4477,0.8684 4.21,-1.6907 1.9811,-6.6507 -2.1334,-4.7475 -5.9129,-5.5344 -7.4241,-1.5457 -0.5015,1.3236 -1.4069,2.7135 -2.0119,3.0888 -0.6051,0.3753 -0.8093,1.602 -0.4538,2.7261 0.3928,1.2421 0.1152,2.3949 -0.7079,2.9392 -1.0924,0.7223 -0.9797,1.1824 0.5829,2.3787 2.2452,1.719 1.9484,1.6535 3.9692,0.8753 z m 45.2727,-4.5582 c -0.4623,-1.3919 -4.7711,-2.2228 -4.7711,-0.92 0,0.9862 1.6987,1.8747 3.8258,2.0011 0.7319,0.043 1.1573,-0.443 0.9453,-1.0811 z m -60.1188,-1.7751 c -0.7209,-1.1706 1.076,-2.3258 3.8357,-2.4659 2.4832,-0.126 3.4268,-3.9204 1.5418,-6.1996 -1.0287,-1.2437 -1.651,-0.7239 -3.9623,3.31 -2.438,4.2548 -2.8712,6.2877 -1.34,6.2877 0.2745,0 0.2406,-0.4195 -0.075,-0.9322 z m 5.4465,-0.069 c 0,-0.5509 -0.4491,-1.0015 -0.998,-1.0015 -0.5489,0 -0.998,0.4506 -0.998,1.0015 0,0.5508 0.4491,1.0014 0.998,1.0014 0.5489,0 0.998,-0.4506 0.998,-1.0014 z m -27.48447,-1.0647 c -0.36063,-0.5855 0.13158,-1.9375 1.0938,-3.0044 1.56307,-1.7333 1.57727,-1.9399 0.13288,-1.9399 -0.88913,0 -2.10229,0.9106 -2.69589,2.0237 -1.12353,2.1066 -0.59233,3.9853 1.12686,3.9853 0.54891,0 0.70296,-0.4791 0.34235,-1.0647 z m 19.50037,-6.4152 c 0,-0.8959 -0.5852,-1.2455 -1.4971,-0.8943 -0.8234,0.3171 -1.497,0.9789 -1.497,1.4708 0,0.4919 0.6736,0.8944 1.497,0.8944 0.8234,0 1.4971,-0.6619 1.4971,-1.4709 z m 12.9743,-1.4502 c 0,-0.5049 -0.5614,-1.1523 -1.2476,-1.4388 -0.6861,-0.2864 -0.1262,-0.4366 1.2443,-0.3338 1.8939,0.1421 2.5692,-0.3539 2.814,-2.0665 0.2103,-1.471 -0.1928,-2.2533 -1.1611,-2.2533 -0.8158,0 -1.6722,-0.5634 -1.9032,-1.2519 -0.3273,-0.976 -0.7856,-0.9489 -2.0792,0.1226 -1.6403,1.3588 -2.2817,6.1799 -0.994,7.4721 0.9834,0.9869 3.3268,0.8105 3.3268,-0.2504 z m -33.76192,-2.7424 c 1.90234,-1.7276 2.4703,-4.3515 0.94188,-4.3515 -0.84268,0 -4.10688,4.35 -4.10688,5.473 0,1.0103 1.34067,0.5352 3.165,-1.1215 z m 22.29122,-3.8351 c 2.7409,-2.47 4.6406,-4.4981 4.2214,-4.5067 -2.1174,-0.044 -10.7152,6.5228 -10.7152,8.1836 0,1.6345 1.6144,0.7204 6.4938,-3.6769 z m 19.9878,-4.3207 c -0.8048,-4.7802 -4.0312,-7.0824 -7.3944,-5.2762 -2.8414,1.526 -2.6712,2.7344 0.6262,4.4455 1.5108,0.784 3.6039,2.3757 4.6513,3.5371 2.4632,2.7312 2.9316,2.1324 2.1169,-2.7064 z m 9.5174,203.9126 c 0.039,-0.721 0.4562,-2.2123 0.9279,-3.3139 0.7659,-1.7885 0.8653,-1.7144 0.9279,0.692 0.039,1.4822 -0.379,2.9735 -0.9279,3.314 -0.5489,0.3404 -0.9664,0.029 -0.9279,-0.6921 z m -197.07303,-1.3928 c -0.3332,-0.8713 -0.5774,-3.012 -0.5426,-4.7571 0.06,-2.9922 0.1167,-3.0393 1,-0.8271 0.5152,1.2902 0.6726,2.7746 0.3498,3.2987 -0.3228,0.5241 -0.044,1.6092 0.6193,2.4113 0.7113,0.8601 0.7904,1.4583 0.1927,1.4583 -0.5574,0 -1.2861,-0.7128 -1.6192,-1.5841 z m 136.93286,-2.1533 c -0.33719,-1.2294 -0.45388,-3.4828 -0.25933,-5.0075 0.19455,-1.5248 0.66664,-6.1352 1.04909,-10.2454 0.59205,-6.3627 0.84578,-7.1067 1.70764,-5.0075 1.20678,2.9394 1.03582,7.1985 -0.64166,15.9859 -0.90727,4.7527 -1.40815,5.9064 -1.85574,4.2745 z m 60.65187,-3.1386 c -0.4299,-0.6981 -0.5122,-1.5397 -0.1827,-1.8702 0.8932,-0.8963 1.867,0.4219 1.3846,1.8742 -0.338,1.0177 -0.5731,1.0169 -1.2019,0 z m -243.37463,-4.7917 c -0.2884,-1.5139 -0.1204,-3.8188 0.3734,-5.1219 0.4937,-1.303 0.8976,-5.9453 0.8976,-10.316 0,-10.8466 1.9385,-10.348 2.2002,0.5659 0.4047,16.8762 0.3969,16.9784 -1.326,17.3113 -1.0905,0.2108 -1.7923,-0.5873 -2.1452,-2.4393 z m 44.3806,-1.8525 c 0.02,-1.6525 0.244,-2.2072 0.4971,-1.2328 0.253,0.9744 0.2364,2.3265 -0.037,3.0045 -0.2734,0.678 -0.4805,-0.1192 -0.4601,-1.7717 z m 236.60563,-0.1933 c 0.9711,-0.2539 2.3184,-0.2372 2.9941,0.037 0.6757,0.2744 -0.1188,0.4821 -1.7656,0.4617 -1.6467,-0.02 -2.1995,-0.2448 -1.2285,-0.4988 z m 293.4711,-5.5653 c -5.6977,-5.8736 -6.7919,-8.368 -5.8593,-13.3569 0.4684,-2.5054 1.16,-3.4182 2.5899,-3.4182 2.3654,0 2.5746,1.5485 0.3261,2.4144 -3.7872,1.4583 1.5532,13.2524 7.1618,15.8167 2.608,1.1924 4.0714,3.8019 2.1322,3.8019 -0.6877,0 -3.5455,-2.3661 -6.3507,-5.2579 z m -544.24363,-8.7631 c 0,-5.141 0.1932,-9.1534 0.4294,-8.9165 0.7136,0.7161 0.9139,16.9159 0.2177,17.6144 -0.3559,0.3572 -0.6471,-3.5569 -0.6471,-8.6979 z m 213.57713,6.0681 c 0,-2.4182 0.555,-2.6621 1.3467,-0.5919 0.3092,0.8086 0.1327,1.7365 -0.3922,2.0621 -0.525,0.3255 -0.9545,-0.336 -0.9545,-1.4702 z m 25.4496,-5.0666 c 0.3393,-0.5508 0.8149,-1.0015 1.057,-1.0015 0.242,0 0.4401,0.4507 0.4401,1.0015 0,0.5508 -0.4757,1.0015 -1.057,1.0015 -0.5813,0 -0.7793,-0.4507 -0.4401,-1.0015 z m -204.01713,-1.5857 c 0.048,-1.1667 0.2844,-1.404 0.603,-0.6051 0.2883,0.723 0.2529,1.5868 -0.079,1.9196 -0.3316,0.3327 -0.5675,-0.2588 -0.5242,-1.3145 z m 39.4329,-0.2717 c -0.29,-0.4708 0.5877,-1.907 1.9503,-3.1916 1.7836,-1.6813 2.7814,-2.0307 3.5622,-1.2472 0.7808,0.7835 0.4975,1.6775 -1.0113,3.1916 -2.2344,2.2422 -3.6473,2.6337 -4.5012,1.2472 z m 108.36863,-3.3438 c 0.1794,-1.2705 0.9625,-2.31 1.7402,-2.31 2.2621,0 2.2672,1.904 0.01,3.3193 -1.8937,1.1867 -2.0469,1.0983 -1.7492,-1.0093 z m 97.6777,-5.7864 c -6.3337,-2.5159 -6.556,-4.0354 -0.7926,-5.4177 2.2886,-0.549 2.7446,-0.33 2.7446,1.3184 0,2.8101 5.2992,3.6017 10.8542,1.6213 2.4019,-0.8563 5.2694,-1.5569 6.3723,-1.5569 1.8701,0 1.8448,0.1221 -0.375,1.8134 -2.6133,1.9911 -9.5168,4.2552 -12.4762,4.0918 -1.0342,-0.057 -3.8814,-0.8988 -6.3273,-1.8703 z m 235.4896,0.9694 c -0.8234,-0.4878 -5.7636,-2.0615 -10.9783,-3.4972 -8.946,-2.4629 -14.8828,-5.5131 -10.7305,-5.5131 0.9204,0 4.0481,0.8411 6.9505,1.8692 2.9024,1.028 7.298,2.478 9.7682,3.2222 2.4701,0.7443 6.5121,2.1354 8.9822,3.0916 l 4.4911,1.7383 -3.4931,-0.012 c -1.9212,-0.01 -4.1668,-0.4111 -4.9901,-0.899 z m -338.3301,-1.9998 c 0,-2.5352 2.3714,-2.5352 6.9861,0 l 3.4931,1.9191 -5.2396,0.042 c -4.5882,0.037 -5.2396,-0.2071 -5.2396,-1.9611 z m -178.02253,0.2026 c -0.2707,-0.4394 -0.079,-1.4535 0.4248,-2.2534 0.7159,-1.1355 0.9202,-0.9604 0.9322,0.7989 0.016,2.3165 -0.4914,2.86 -1.357,1.4545 z m -31.0814,-8.9657 c -0.3828,-4.8197 -1.4937,-12.8192 -2.4685,-17.7766 -0.9749,-4.9574 -1.5692,-9.3588 -1.3207,-9.7809 1.0489,-1.7815 2.3126,0.6871 2.3456,4.5822 0.02,2.3085 0.6856,6.9013 1.4801,10.2062 2.0049,8.3402 3.0535,21.5322 1.7115,21.5322 -0.6041,0 -1.3483,-3.7311 -1.748,-8.7631 z m 265.07203,7.1774 c 0.048,-1.1667 0.2844,-1.404 0.603,-0.6051 0.2883,0.723 0.2528,1.5868 -0.079,1.9196 -0.3317,0.3328 -0.5676,-0.2587 -0.5242,-1.3145 z m -234.61443,-11.0999 c 0,-4.223 0.2907,-7.3865 0.6459,-7.03 0.9137,0.9169 1.0099,14.7075 0.1026,14.7078 -0.4117,2e-4 -0.7485,-3.4548 -0.7485,-7.6778 z m 245.51393,5.616 c 0,-0.5833 0.4491,-0.782 0.998,-0.4416 0.5489,0.3404 0.998,0.8177 0.998,1.0606 0,0.2429 -0.4491,0.4416 -0.998,0.4416 -0.5489,0 -0.998,-0.4772 -0.998,-1.0606 z m -10.8207,-2.9454 c 0,-1.377 0.2265,-1.9404 0.5034,-1.2518 0.2768,0.6885 0.2768,1.8152 0,2.5037 -0.2769,0.6885 -0.5034,0.1252 -0.5034,-1.2519 z m 4.8325,0.4417 c 0,-0.8588 0.4565,-1.2783 1.0143,-0.9323 0.5579,0.346 0.7559,1.0486 0.4401,1.5613 -0.8555,1.3892 -1.4544,1.1301 -1.4544,-0.629 z m 6.4872,-1.4432 c -0.3393,-0.5508 0.3079,-1.0015 1.4381,-1.0015 1.1302,0 2.055,0.4507 2.055,1.0015 0,0.5509 -0.6472,1.0015 -1.4382,1.0015 -0.7909,0 -1.7157,-0.4506 -2.0549,-1.0015 z m -40.3412,-1.5857 c 0.048,-1.1667 0.2844,-1.404 0.603,-0.605 0.2883,0.7229 0.2528,1.5867 -0.079,1.9195 -0.3317,0.3328 -0.5675,-0.2587 -0.5242,-1.3145 z m 174.0764,-2.4354 c -2.7446,-0.4457 -9.0321,-1.1222 -13.9724,-1.5033 -4.9402,-0.3811 -10.3295,-0.8336 -11.9762,-1.0055 -4.1327,-0.4313 -26.6763,-5.3837 -27.2843,-5.9937 -1.7558,-1.762 2.5817,-1.516 14.6212,0.8291 7.5701,1.4746 14.9009,2.6811 16.2907,2.6811 1.3898,0 2.8217,0.2958 3.182,0.6574 0.3603,0.3616 4.3649,0.7802 8.899,0.9303 4.5342,0.1501 10.714,0.3535 13.7331,0.4521 9.3353,0.305 12.9743,0.01 12.9743,-1.0706 0,-0.5686 -1.0105,-1.4769 -2.2456,-2.0184 -1.6814,-0.7373 -0.9919,-0.8354 2.7446,-0.3904 2.7446,0.3268 6.0006,1.2454 7.2357,2.0414 2.4577,1.5841 2.9637,3.9348 0.998,4.6369 -2.1649,0.7733 -19.9941,0.5989 -25.2001,-0.2464 z m -179.1453,-5.0515 c 0,-1.1341 0.4295,-1.7957 0.9544,-1.4701 0.525,0.3255 0.7015,1.2535 0.3923,2.0621 -0.7917,2.0702 -1.3467,1.8262 -1.3467,-0.592 z m -97.57823,-4.0488 c -3.9913,-2.1018 -7.3277,-4.178 -7.4142,-4.6139 -0.5888,-2.9683 10.7284,1.3359 14.4868,5.5097 3.07922,3.4196 0.503,3.0933 -7.0726,-0.8958 z m -93.5434,2.105 c -0.3392,-0.5509 -0.1677,-1.0015 0.3812,-1.0015 0.5489,0 1.2756,0.4506 1.6149,1.0015 0.3392,0.5508 0.1677,1.0015 -0.3813,1.0015 -0.5489,0 -1.2755,-0.4507 -1.6148,-1.0015 z m 172.65813,0 c -0.3392,-0.5509 -0.4024,-1.0015 -0.1405,-1.0015 0.262,0 1.1867,-0.2736 2.055,-0.6079 1.0359,-0.3989 1.5786,-0.055 1.5786,1.0015 0,1.7668 -2.5102,2.2036 -3.4931,0.6079 z m 479.0516,-3.4691 c -3.4136,-1.5685 -2.8964,-1.7819 3.7611,-1.5522 3.4703,0.1198 5.9975,-0.5303 9.3319,-2.4005 2.5151,-1.4105 9.1311,-4.6284 14.7024,-7.1507 5.5712,-2.5224 13.3343,-6.5849 17.2514,-9.0278 3.917,-2.4429 7.4276,-4.4417 7.8013,-4.4417 0.3736,0 2.1965,-1.1613 4.0509,-2.5806 2.0697,-1.5841 4.26,-2.4266 5.6721,-2.1818 2.2985,0.3985 2.2982,0.3998 -0.2893,1.4953 -1.4243,0.603 -3.2857,1.7948 -4.1363,2.6484 -0.8507,0.8536 -3.9519,2.7218 -6.8916,4.1514 -2.9396,1.4297 -7.8858,4.0364 -10.9914,5.7927 -11.1835,6.3247 -13.8974,7.7001 -15.1929,7.7001 -0.7242,0 -3.0682,1.2587 -5.2089,2.7971 -4.3278,3.11 -11.8885,6.2406 -14.904,6.1712 -1.0795,-0.025 -3.31,-0.6643 -4.9567,-1.4209 z m -409.6889,-7.5474 c 0,-0.5508 0.4756,-1.0015 1.0569,-1.0015 0.5813,0 0.7794,0.4507 0.4401,1.0015 -0.3392,0.5508 -0.8148,1.0015 -1.0569,1.0015 -0.242,0 -0.4401,-0.4507 -0.4401,-1.0015 z m 348.935,-0.5335 c -0.89,-2.3272 -0.9306,-2.2608 2.4622,-4.0214 3.8221,-1.9834 4.8083,-1.167 2.8404,2.3512 -1.7659,3.1571 -4.4149,3.9915 -5.3026,1.6702 z m -650.33823,-0.5596 c -1.1266,-0.7995 -1.1883,-1.1881 -0.2495,-1.5704 0.6861,-0.2794 1.2475,-1.8975 1.2475,-3.5959 0,-4.3154 1.0338,-2.8253 1.487,2.1434 0.3925,4.3023 0,4.7839 -2.485,3.0229 z m 750.51403,0.2098 c 0,-0.5508 0.4491,-1.28 0.998,-1.6205 0.5489,-0.3404 0.998,-0.1682 0.998,0.3826 0,0.5508 -0.4491,1.28 -0.998,1.6204 -0.5489,0.3405 -0.998,0.1683 -0.998,-0.3825 z m -585.53751,-2.8174 c -3.15342,-8.7095 -19.14042,-20.7339 -32.30642,-24.2989 -4.4794,-1.2129 -9.1693,-1.9471 -10.4218,-1.6317 -1.5379,0.3874 -2.4731,0.062 -2.8804,-1.0034 -1.013,-2.6492 -0.7414,-3.7721 0.6445,-2.6637 0.6861,0.5488 3.4214,1.3137 6.0784,1.6998 7.1525,1.0394 7.6661,1.1729 13.6132,3.5376 12.1472,4.8299 27.6367,19.5542 26.75187,25.4302 -0.27165,1.804 -0.49807,1.6403 -1.47935,-1.0699 z m -117.07142,0.1954 c 0,-0.8262 0.1766,-1.5022 0.3923,-1.5022 0.2157,0 0.6507,0.676 0.9667,1.5022 0.3159,0.8263 0.1394,1.5023 -0.3923,1.5023 -0.5316,0 -0.9667,-0.676 -0.9667,-1.5023 z m 9.965,-3.7556 c -0.01,-2.8918 -0.3452,-5.7505 -0.7485,-6.3526 -1.0972,-1.638 -7.3157,1.244 -7.9519,3.6855 -0.2864,1.0988 -1.0202,1.8308 -1.6307,1.6266 -1.2884,-0.431 -0.9206,-7.4688 0.5083,-9.7256 0.6939,-1.0958 0.7787,-0.8725 0.3137,0.8256 -0.5786,2.1129 -0.3756,2.2795 2.1979,1.8035 6.1446,-1.1363 7.3265,-1.8216 7.3265,-4.2481 0,-1.3129 0.3868,-2.387 0.8596,-2.387 0.4728,0 0.6461,1.1211 0.385,2.4913 -0.3211,1.6856 0.046,2.6919 1.1365,3.1117 2.0862,0.8033 2.0822,2.409 -0.01,2.409 -1.3591,0 -1.5479,0.9584 -1.1839,6.009 0.2382,3.3049 0.068,6.009 -0.379,6.009 -0.4468,0 -0.8191,-2.3661 -0.8275,-5.2579 z m 171.67543,3.8147 c 0,-0.8587 0.4491,-1.5613 0.998,-1.5613 0.5489,0 0.998,0.4241 0.998,0.9424 0,0.5183 -0.4491,1.2209 -0.998,1.5613 -0.5489,0.3405 -0.998,-0.084 -0.998,-0.9424 z m -289.331728,-2.8132 c -0.4612,-1.2393 -0.4754,-3.221 -0.032,-4.4038 0.4438,-1.1827 0.5355,-2.4227 0.2038,-2.7556 -0.3318,-0.3329 -0.078,-1.7312 0.5627,-3.1075 3.6933,-7.9267 3.6192,-7.3178 1.1363,-9.3353 -2.1273,-1.7286 -2.2185,-2.1566 -1.058,-4.9681 1.5507,-3.7567 3.6443,-5.7417 7.5765,-7.1835 l 2.9923,-1.0971 -3.6579,3.2808 c -4.602,4.1277 -6.4443,7.565 -4.8903,9.1244 1.502,1.5073 4.1436,-0.1771 5.8943,-3.7585 0.7361,-1.5057 1.5074,-2.568 1.7141,-2.3605 0.2067,0.2074 -1.7063,4.6356 -4.2511,9.8405 -3.4233,7.0016 -4.6481,10.7006 -4.7081,14.2198 -0.045,2.616 -0.208,4.7567 -0.3629,4.7571 -0.1549,4e-4 -0.659,-1.0133 -1.1201,-2.2527 z m 56.822498,-1.1718 c -1.7507,-4.6205 -2.4025,-10.5958 -1.156,-10.5958 0.6191,0 1.1256,1.2423 1.1256,2.7607 0,1.5184 0.4414,4.3053 0.981,6.1931 1.1917,4.1696 0.4756,5.4064 -0.9506,1.642 z m 17.5202,-0.8424 c -0.3524,-1.2332 -0.8954,-5.8475 -1.2067,-10.2541 -0.3113,-4.4066 -0.9003,-10.6214 -1.309,-13.8106 -0.4087,-3.1892 -0.4255,-5.9955 -0.037,-6.2363 0.8088,-0.5016 1.9499,6.8421 2.0084,12.9258 0.022,2.2641 0.615,7.4073 1.3182,11.4292 0.7032,4.022 0.961,7.5097 0.5729,7.7504 -0.3882,0.2407 -0.9941,-0.5713 -1.3465,-1.8044 z m 568.78853,0.8164 c 1.6467,-0.8063 3.6677,-1.4819 4.4911,-1.5013 1.6739,-0.04 16.4586,-4.8364 19.2803,-6.2554 0.9982,-0.502 7.9594,-1.6813 15.4694,-2.6205 14.3343,-1.7928 29.9951,-1.4031 34.1921,0.8509 3.2894,1.7665 1.8018,1.9861 -4.1117,0.6067 -4.5582,-1.0631 -8.3809,-0.9945 -23.4121,0.4206 -15.3555,1.4455 -19.5064,2.2185 -28.5813,5.3222 -5.8393,1.9971 -12.8005,3.8587 -15.4694,4.1369 -4.841,0.5046 -4.8454,0.5023 -1.8584,-0.9601 z m 154.0477,-7.5061 c -4.4144,-0.8634 -6.8392,-3.1051 -6.8392,-6.3228 0,-2.6565 3.2678,-6.1534 6.7367,-7.209 2.9522,-0.8984 2.8493,0.1891 -0.2495,2.6351 -1.3723,1.0832 -2.4951,2.838 -2.4951,3.8997 0,2.7127 3.5227,5.9363 6.4872,5.9363 1.3723,0 2.495,0.4507 2.495,1.0015 0,1.103 -0.7609,1.1103 -6.1351,0.059 z m 8.1312,0.085 c 0,-0.9117 8.1083,-2.3559 8.8799,-1.5817 0.7451,0.7477 -0.2519,1.137 -4.6383,1.8112 -2.3329,0.3586 -4.2416,0.2553 -4.2416,-0.2295 z m -716.42433,-1.993 c -2.1692,-1.6743 -2.253,-2.0888 -1.1598,-5.7363 0.6481,-2.1624 2.2595,-5.2837 3.5808,-6.9361 3.2653,-4.0839 3.154,-1.0596 -0.1402,3.805 -2.6457,3.907 -2.6087,7.0478 0.095,8.089 1.4943,0.5754 2.0588,2.6455 0.7106,2.6054 -0.4117,-0.012 -1.8007,-0.8344 -3.0867,-1.827 z m 728.89963,-0.1537 c 0.3392,-0.5508 1.0394,-1.0015 1.5559,-1.0015 0.5165,0 0.9391,0.4507 0.9391,1.0015 0,0.5508 -0.7001,1.0015 -1.5559,1.0015 -0.8558,0 -1.2784,-0.4507 -0.9391,-1.0015 z m -800.82153,-3.3931 c -1.1474,-1.3873 -0.8136,-2.8349 2.1357,-9.2625 1.1891,-2.5915 13.2964,-11.6956 14.8588,-11.173 0.6116,0.2046 -0.6249,1.5373 -2.7479,2.9617 -8.2918,5.5629 -14.8432,13.8083 -12.2496,15.4168 1.1594,0.719 1.182,3.4471 0.028,3.4471 -0.4817,0 -1.3932,-0.6256 -2.0255,-1.3901 z m 35.5885,-5.8707 c -0.9125,-2.8919 -1.9104,-7.0606 -2.2177,-9.2639 -0.5454,-3.9112 -0.5237,-3.9467 0.918,-1.5023 0.8121,1.3771 1.4925,3.983 1.512,5.7908 0.02,1.8079 0.6861,4.8499 1.4814,6.7601 0.7954,1.9102 1.113,3.4731 0.7057,3.4731 -0.4072,0 -1.487,-2.366 -2.3994,-5.2578 z m 215.4599,2.7541 c -0.71974,-1.8822 0.29064,-1.8707 2.79722,0.032 1.903,1.4443 1.90048,1.4704 -0.14273,1.4704 -1.14401,0 -2.33853,-0.676 -2.65449,-1.5023 z m -209.2241,-0.5599 c 0,-0.5833 0.4491,-0.7821 0.998,-0.4416 0.5489,0.3404 0.998,0.8177 0.998,1.0606 0,0.2429 -0.4491,0.4416 -0.998,0.4416 -0.5489,0 -0.998,-0.4773 -0.998,-1.0606 z m 235.69383,-2.4917 c -1.5076,-3.3205 -1.4624,-4.4597 0.1771,-4.4597 0.8357,0 1.3845,1.3115 1.4666,3.5053 0.1566,4.1776 -0.1099,4.3324 -1.6437,0.9544 z m 507.6951,-4.4577 c 1.2958,-1.1027 3.0799,-2.005 3.9646,-2.005 1.2994,0 1.2302,0.2568 -0.36,1.3359 -1.0828,0.7347 -2.8669,1.6369 -3.9647,2.0049 -1.7321,0.5807 -1.6845,0.4041 0.3601,-1.3358 z m -189.942,0.067 c -1,-1.6236 1.1729,-2.117 2.4615,-0.5589 1.0028,1.2125 0.9417,1.4912 -0.327,1.4912 -0.8582,0 -1.8187,-0.4195 -2.1345,-0.9323 z m -624.306628,-2.0722 c 0,-0.5508 -0.6579,-1.0015 -1.462,-1.0015 -3.5001,0 -4.7653,-8.3755 -1.7816,-11.7942 1.9021,-2.1794 7.9277,-4.5377 9.3464,-3.6579 1.5831,0.9819 0.9333,2.4632 -1.4853,3.3859 -3.1674,1.2085 -4.1989,5.5215 -2.0922,8.748 0.8902,1.3632 1.3738,3.1182 1.0749,3.8999 -0.615,1.6084 -3.6002,1.9565 -3.6002,0.4198 z m 820.874728,-1.0015 c 0.3392,-0.5508 1.2904,-1.0015 2.1138,-1.0015 0.8234,0 1.2195,0.4507 0.8802,1.0015 -0.3392,0.5509 -1.2904,1.0015 -2.1138,1.0015 -0.8234,0 -1.2195,-0.4506 -0.8802,-1.0015 z m -713.08813,-1.0015 c 0,-0.5508 0.4296,-1.0015 0.9546,-1.0015 0.5251,0 2.8829,-1.797 5.2396,-3.9935 2.3568,-2.1964 5.2233,-3.9991 6.3702,-4.0059 1.1469,-0.01 3.617,-1.7017 5.4891,-3.7662 3.6198,-3.9917 3.5869,-3.9242 3.7782,-7.7636 0.069,-1.377 0.5739,-2.5037 1.1228,-2.5037 0.5489,0 0.998,1.1267 0.998,2.5037 0,2.9648 1.4391,3.1501 6.7028,0.8627 5.8563,-2.5448 7.4685,-3.147 11.7607,-4.3922 2.1956,-0.6371 5.3713,-1.5682 7.057,-2.0692 4.8032,-1.4277 13.9774,-1.1271 15.3248,0.5021 0.7355,0.8893 0.8063,1.6378 0.1911,2.0193 -0.5376,0.3334 -1.2762,0.1212 -1.6413,-0.4716 -1.6668,-2.7062 -26.3734,3.1561 -35.1535,8.3411 -4.4173,2.6085 -4.0965,4.4356 0.9981,5.6855 2.3328,0.5724 5.6208,1.4911 7.3065,2.0416 1.6857,0.5505 4.0435,1.001 5.2396,1.001 1.1961,0 2.1747,0.4711 2.1747,1.0468 0,0.6169 -1.3325,0.8399 -3.2436,0.5429 -3.3264,-0.5169 -10.1064,-1.2455 -19.5932,-2.1055 -7.0281,-0.6371 -12.2138,1.0134 -16.2218,5.163 -3.2997,3.4163 -4.8544,4.1731 -4.8544,2.3632 z m 718.07823,-1.0015 c 0.3392,-0.5508 1.681,-1.0015 2.9817,-1.0015 1.3006,0 3.0385,-0.676 3.8619,-1.5022 0.8233,-0.8262 2.0156,-1.5022 2.6495,-1.5022 0.6338,0 0.965,-0.5634 0.7358,-1.2519 -0.4149,-1.2465 1.8163,-1.9186 17.5521,-5.2877 3.7523,-0.8033 7.1206,-1.6324 7.4851,-1.8422 0.9069,-0.5222 18.3672,1.1479 25.1143,2.4022 3.019,0.5612 6.7242,1.0023 8.2337,0.9803 1.5095,-0.022 2.7445,0.4517 2.7445,1.0527 0,1.3891 -10.9805,0.5458 -13.9984,-1.075 -2.9265,-1.5716 -21.874,-1.7355 -24.4254,-0.2112 -1.7425,1.0409 -1.584,1.1151 1.2475,0.5837 1.998,-0.375 3.2435,-0.2019 3.2435,0.4509 0,0.5828 -1.3317,1.0217 -2.9594,0.9753 -1.6277,-0.047 -3.6487,0.4895 -4.4911,1.1911 -1.0974,0.9139 -1.895,0.9729 -2.8133,0.2081 -1.4851,-1.2368 -4.2154,-0.6238 -16.6828,3.7451 -9.1233,3.1971 -11.4494,3.6598 -10.4792,2.0845 z m -799.91623,-0.9662 c 0,-0.5315 0.9322,-1.4669 2.0716,-2.0788 1.8953,-1.0179 1.9772,-0.9357 0.9629,0.9662 -1.1398,2.1371 -3.0345,2.8318 -3.0345,1.1126 z m 759.29453,-1.909 c -3.679,-0.3465 -7.2718,-1.244 -7.9842,-1.9944 -1.083,-1.1408 -0.8867,-1.2399 1.1978,-0.6048 3.5094,1.0693 16.5877,1.2812 21.5587,0.3493 6.6054,-1.2383 25.7833,-1.5171 26.3484,-0.3831 0.3144,0.631 -4.8555,1.235 -13.9723,1.6324 -7.9593,0.347 -15.8187,0.8559 -17.4655,1.1308 -1.6467,0.2749 -6.004,0.2163 -9.6829,-0.1302 z m 45.1128,-2.5495 c 0,-0.8721 0.7111,-1.5857 1.5802,-1.5857 1.7624,0 1.4555,2.156 -0.3951,2.775 -0.6518,0.218 -1.1851,-0.3171 -1.1851,-1.1893 z m -769.34063,-0.7848 c -0.075,-0.9366 -0.8672,-2.1136 -1.7611,-2.6155 -0.9819,-0.5514 -1.2205,-1.1637 -0.6029,-1.5467 0.6595,-0.409 0.7135,-1.9686 0.152,-4.395 -0.4787,-2.0685 -0.8138,-5.3383 -0.7446,-7.2662 0.1172,-3.2679 0.1501,-3.3018 0.4856,-0.5007 0.198,1.6525 0.8691,4.6728 1.4914,6.7119 l 1.1315,3.7074 6.9387,-0.022 c 3.8162,-0.012 7.1947,0.2349 7.5076,0.549 0.3129,0.314 -0.8532,0.5709 -2.5914,0.5709 -1.7383,0 -3.1605,0.4366 -3.1605,0.9701 0,0.5335 -0.6746,0.7103 -1.4992,0.3928 -2.6738,-1.0296 -6.3247,0.5296 -6.7788,2.8952 -0.2676,1.3936 -0.4841,1.6027 -0.5683,0.5488 z m 707.46313,-0.5009 c -1.9212,-0.8935 -3.7176,-1.6866 -3.9921,-1.7626 -3.0553,-0.8455 -4.9901,-1.8349 -4.9901,-2.5518 0,-1.6687 1.6208,-1.8654 4.0478,-0.4913 1.3416,0.7596 3.899,2.0612 5.6829,2.8923 1.784,0.8312 3.2436,1.9849 3.2436,2.5638 0,1.2822 0.2513,1.3231 -3.9921,-0.6504 z m -550.90923,-0.2285 c 0,-0.8683 2.7315,-4.0775 3.4705,-4.0775 0.1836,0 -0.1853,1.1232 -0.8198,2.496 -1.1431,2.4731 -2.6507,3.3726 -2.6507,1.5815 z m 652.20863,-1.073 c -0.3393,-0.5508 -0.1412,-1.0015 0.4401,-1.0015 0.5813,0 1.0569,0.4507 1.0569,1.0015 0,0.5508 -0.198,1.0015 -0.4401,1.0015 -0.242,0 -0.7177,-0.4507 -1.0569,-1.0015 z m -70.6268,-0.6009 c -0.3293,-0.3305 -2.2019,-0.6009 -4.1612,-0.6009 -1.9593,0 -3.8122,-0.4056 -4.1175,-0.9013 -0.3054,-0.4958 -1.433,-0.9014 -2.5059,-0.9014 -1.0728,0 -2.7305,-0.4008 -3.6837,-0.8906 -0.9531,-0.4899 -4.2031,-2.076 -7.2221,-3.5248 -9.4906,-4.5542 -24.8625,-16.8108 -27.6104,-22.0147 l -1.5287,-2.895 -7.6365,0.6111 c -4.2,0.3361 -9.0298,1.1493 -10.7329,1.8069 -1.8081,0.6983 -3.8843,0.8571 -4.9901,0.3818 -2.683,-1.1532 6.8301,-3.4439 16.7221,-4.0266 7.2795,-0.4287 14.9581,1.0618 23.5977,4.5807 1.2609,0.5136 3.2865,0.9338 4.5013,0.9338 2.6013,0 7.6775,4.4027 7.6775,6.6588 0,2.056 -4.6362,1.0016 -7.5375,-1.7143 -2.8627,-2.6797 -13.8208,-7.0607 -14.3013,-5.7176 -0.3649,1.0201 3.5902,4.7105 5.0981,4.7568 0.3985,0.012 3.3539,2.6136 6.5674,5.7809 3.2135,3.1672 7.5634,6.8003 9.6665,8.0734 4.834,2.9264 17.4173,7.1994 21.201,7.1994 1.5823,0 3.7487,0.6617 4.8142,1.4704 1.8653,1.4158 1.8414,1.4716 -0.6409,1.5023 -1.4181,0.017 -2.8477,-0.2386 -3.1771,-0.5691 z m 6.6706,-0.5349 c -0.2938,-0.4769 0.1335,-0.8672 0.9494,-0.8672 0.8159,0 2.4414,-1.222 3.6121,-2.7155 1.7259,-2.2017 2.2966,-2.443 3.0161,-1.2748 0.5798,0.9415 0.3653,2.0196 -0.6189,3.111 -1.7301,1.9184 -6.167,3.032 -6.9587,1.7465 z m -351.7208,-0.7399 c -2.4412,-0.4889 0.4043,-0.8996 9.4491,-1.3638 12.0215,-0.617 14.5561,-0.4854 13.3802,0.6945 -0.8368,0.8398 -19.2783,1.3804 -22.8293,0.6693 z m -371.62583,-1.6296 c -0.7194,-1.8815 0.2802,-4.675 1.42,-3.9681 0.4674,0.2898 0.5968,1.1886 0.2876,1.9972 -0.3092,0.8086 -0.065,1.4702 0.5426,1.4702 0.6077,0 1.1048,0.4506 1.1048,1.0015 0,1.5746 -2.7164,1.1691 -3.355,-0.5008 z m 395.57843,0.7644 c 0,-0.5342 3.3021,-1.2513 7.338,-1.5937 4.0358,-0.3423 8.0778,-0.9073 8.9822,-1.2556 0.9043,-0.3482 1.6443,-0.1831 1.6443,0.3669 0,1.2373 -2.5705,1.8692 -11.2278,2.7603 -4.1607,0.4282 -6.7367,0.3219 -6.7367,-0.2779 z m 135.7313,-0.5418 c -1.3723,-0.6732 -3.736,-2.0684 -5.2527,-3.1004 -2.6626,-1.8118 -3.2127,-1.8191 -15.9684,-0.2133 -19.3913,2.4411 -27.2484,1.2376 -39.1143,-5.9915 -4.1416,-2.5232 -7.5302,-4.7792 -7.5302,-5.0134 0,-1.1992 3.1503,-0.1263 6.5973,2.2467 9.9914,6.8784 19.9554,8.8448 34.1455,6.7386 19.7886,-2.9372 19.149,-2.9496 25.5806,0.4945 6.7657,3.6229 9.6616,3.8669 13.4836,1.1359 1.5225,-1.0879 3.8374,-2.3967 5.1441,-2.9083 3.5331,-1.3834 10.8592,-8.0523 10.8592,-9.8849 0,-0.8777 -0.7433,-2.4199 -1.6518,-3.4272 -1.5839,-1.7564 -1.3872,-1.8315 4.7948,-1.8315 5.56,0 7.1251,-0.4409 11.3824,-3.2068 10.3527,-6.7258 14.6964,-8.5779 24.647,-10.5089 2.0794,-0.4035 2.7446,-0.141 2.7446,1.0833 0,0.8888 -0.786,1.6734 -1.7466,1.7437 -5.2416,0.3836 -6.5215,0.7922 -8.5898,2.742 -1.2472,1.1758 -3.3954,2.1377 -4.7739,2.1377 -1.3829,0 -3.5568,1.1222 -4.8502,2.5038 -1.2892,1.377 -2.7982,2.5037 -3.3532,2.5037 -0.5551,0 -2.0046,0.9383 -3.2211,2.0851 -1.2164,1.1468 -4.0523,2.3328 -6.3019,2.6356 -3.3832,0.4554 -4.0902,0.9316 -4.0902,2.7548 0,2.3773 -6.7598,8.5485 -9.3638,8.5485 -0.8232,0 -1.7846,0.4674 -2.1364,1.0387 -1.1304,1.8353 -10.827,6.044 -14.9475,6.4877 -2.1956,0.2365 -5.1148,-0.1209 -6.4871,-0.7941 z m -115.7708,-1.5625 c 0,-0.4615 2.021,-0.9158 4.4911,-1.0095 2.4701,-0.094 4.4911,0.2838 4.4911,0.8391 0,0.5553 -2.021,1.0096 -4.4911,1.0096 -2.4701,0 -4.4911,-0.3776 -4.4911,-0.8392 z m -490.080428,-7.2725 c -3.5743,-7.0306 -1.481,-12.6722 9.4583,-25.4902 3.702,-4.3378 3.8536,-4.7715 2.7446,-7.8493 -1.3867,-3.8481 -1.5421,-9.2788 -0.2877,-10.0567 0.4874,-0.3023 1.1795,1.413 1.5379,3.8117 0.3585,2.3987 1.264,5.2014 2.0122,6.2282 1.319498,1.8109 1.415798,1.8048 3.202598,-0.2023 1.0133,-1.1381 3.8632,-2.9185 6.3334,-3.9565 2.4701,-1.038 4.8443,-2.4528 5.276,-3.1441 0.6002,-0.961 4.0059,-1.1052 14.4713,-0.6127 22.7779,1.0721 29.8803,0.4814 33.748,-2.8069 0.899,-0.7644 5.286,-3.221 9.7489,-5.4593 6.564,-3.292 8.0724,-4.4692 7.8941,-6.161 -0.1212,-1.1503 0.4933,-2.6858 1.3655,-3.4122 1.3584,-1.1313 1.9269,-0.8939 3.9621,1.6543 l 2.3761,2.975 8.4863,-4.5067 c 5.6721,-3.0123 8.3164,-4.9589 7.9738,-5.8702 -0.3702,-0.9849 -0.025,-1.1471 1.2454,-0.5843 0.9668,0.4285 3.1051,0.724 4.7519,0.6567 2.8358,-0.1159 2.8916,-0.045 1.0568,1.3355 -1.0655,0.8018 -3.0254,1.4578 -4.3553,1.4578 -2.5509,0 -8.5942,2.9644 -13.7621,6.7508 -1.6986,1.2444 -3.5414,2.2626 -4.0951,2.2626 -0.9821,0 -0.785,7.6866 0.3338,13.0183 0.5081,2.4218 0.5707,2.4399 1.9408,0.5597 0.7786,-1.0685 1.4157,-2.758 1.4157,-3.7544 0,-2.7528 2.8681,-2.1632 3.5939,0.7388 0.6948,2.7779 -0.2687,4.6152 -1.4308,2.7285 -0.4508,-0.732 -1.6179,0.5211 -3.1045,3.3331 -2.0673,3.9105 -2.5711,4.3165 -3.8115,3.0718 -0.7968,-0.7996 -1.8152,-4.8869 -2.3012,-9.236 -0.4796,-4.2909 -1.4313,-8.1486 -2.1151,-8.5727 -1.623,-1.0065 -3.8051,0.8533 -3.8051,3.2431 0,1.0342 -0.4757,1.8803 -1.057,1.8803 -0.5813,0 -0.7672,0.4704 -0.4131,1.0454 0.3541,0.575 0.1249,1.6728 -0.5093,2.4397 -0.8538,1.0324 -0.865,1.9349 -0.043,3.4763 0.8917,1.6719 0.7986,2.2019 -0.4728,2.6915 -2.6693,1.0278 -2.9254,-0.4298 -1.0978,-6.2478 0.9647,-3.0712 1.489,-5.8501 1.165,-6.1752 -0.324,-0.3251 -4.2898,1.2918 -8.8129,3.5932 -4.5231,2.3015 -8.8003,4.1844 -9.5049,4.1844 -0.7046,0 -2.4104,0.7425 -3.7906,1.6501 -2.139,1.4063 -3.9393,1.5275 -12.1907,0.8204 -19.4703,-1.6684 -26.7215,-0.7156 -34.0756,4.4779 -1.4037,0.9913 -3.5627,2.1172 -4.7978,2.5019 -2.6767,0.834 -2.9392,3.144 -0.499,4.392 0.9606,0.4913 4.6152,1.4434 8.1214,2.1157 3.5061,0.6723 7.099,1.5832 7.9842,2.0242 3.7563,1.8713 9.2376,4.0508 10.1876,4.0508 0.6496,0 0.7785,-1.6514 0.3518,-4.5068 -0.4555,-3.0478 -0.3137,-4.5067 0.4378,-4.5067 0.6113,0 1.1632,0.7887 1.2265,1.7526 0.063,0.964 0.2195,2.2033 0.347,2.7541 0.1275,0.5509 0.3003,1.7316 0.3839,2.624 0.148,1.5793 2.2416,2.3683 13.1263,4.9469 5.2096,1.2342 5.1653,1.2319 10.7158,0.5395 3.4932,-0.4358 4.6693,-0.1178 6.7617,1.8282 1.733,1.6116 4.3323,2.5812 8.2293,3.0698 3.1329,0.3928 7.9496,1.908 10.7037,3.3672 2.7541,1.4591 5.9013,2.6616 6.9936,2.6722 1.0923,0.011 2.1358,0.7993 2.3187,1.7526 0.4976,2.5926 -3.602,2.2144 -9.3958,-0.8668 -2.6891,-1.4301 -5.3383,-2.9573 -5.8872,-3.3938 -1.5717,-1.2497 -11.7135,-3.2625 -14.4714,-2.8721 -2.2287,0.3156 -2.5576,0.9412 -3.0809,5.8616 -0.5904,5.5511 -0.7553,4.9577 -1.2524,-4.5068 -0.1566,-2.9808 -0.2247,-3.0147 -8.641,-4.2957 -4.6658,-0.7101 -9.8898,-1.5419 -11.6089,-1.8483 -1.8153,-0.3237 -3.4146,-0.088 -3.8148,0.5615 -0.4586,0.7448 -1.2488,0.4393 -2.3634,-0.9134 -1.8676,-2.2667 -10.2558,-4.736 -18.3257,-5.3945 -5.4606,-0.4456 -12.5169,-2.023 -13.510698,-3.0203 -0.3092,-0.3102 -0.027,-1.2109 0.6266,-2.0014 0.696698,-0.8424 0.803398,-1.6762 0.2577,-2.0146 -1.4737,-0.9141 -8.5161,7.4197 -11.5796,13.7031 -2.5525,5.2353 -2.6967,6.1107 -1.6767,10.1757 2.1466,8.5546 0.5954,10.3889 -2.9267,3.461 z m 797.970828,3.1041 c -0.3392,-0.5508 -0.1412,-1.0015 0.4401,-1.0015 0.5813,0 1.0569,0.4507 1.0569,1.0015 0,0.5509 -0.198,1.0015 -0.4401,1.0015 -0.242,0 -0.7176,-0.4506 -1.0569,-1.0015 z m 57.3863,-3.6214 c 0,-2.8027 5.3559,-10.8156 9.7828,-14.636 1.4809,-1.278 3.9617,-4.9037 5.513,-8.0571 1.5512,-3.1534 3.2618,-5.7334 3.8014,-5.7334 0.5396,0 0.7418,-0.3885 0.4494,-0.8633 -0.6845,-1.1115 2.4426,-9.1517 3.5594,-9.1517 0.4656,0 0.8466,0.4507 0.8466,1.0015 0,0.5508 -0.4491,1.0015 -0.998,1.0015 -0.5489,0 -0.9997,1.2394 -1.0018,2.7541 0,1.5148 -0.9328,4.2834 -2.0683,6.1525 -1.2486,2.0552 -1.8432,4.2836 -1.5045,5.6379 0.3411,1.3637 -0.1496,3.1678 -1.2549,4.6136 -0.9982,1.3058 -2.1008,3.1602 -2.4503,4.1209 -0.3773,1.0375 -1.4872,1.6475 -2.7331,1.5023 -1.6028,-0.1869 -2.3943,0.6039 -3.3542,3.351 -1.375,3.935 -6.3069,10.9261 -7.7079,10.9261 -0.4838,0 -0.8796,-1.1789 -0.8796,-2.6199 z m -366.7737,-0.1141 c -1.6468,-0.2369 -3.8923,-1.2488 -4.9902,-2.2485 -1.0978,-0.9997 -3.5679,-2.7646 -5.4891,-3.922 -2.8343,-1.7075 -3.0949,-2.1052 -1.3821,-2.1082 1.161,0 3.182,0.8339 4.4911,1.8576 3.6095,2.8228 8.5216,5.1491 10.8727,5.1491 1.1575,0 1.8269,0.4507 1.4877,1.0015 -0.3393,0.5509 -0.9272,0.934 -1.3064,0.8515 -0.3793,-0.082 -2.037,-0.344 -3.6837,-0.581 z m 314.8765,-2.1458 c 0,-1.2388 4.7566,-2.6988 5.702,-1.7502 0.8674,0.8704 0.2014,1.3544 -2.9594,2.1505 -1.7343,0.4367 -2.7426,0.2896 -2.7426,-0.4003 z m -9.6358,-1.6731 c -0.3251,-0.85 -0.3129,-1.8245 0.027,-2.1657 0.8517,-0.8546 5.6166,1.4259 5.6166,2.6882 0,1.64 -4.9935,1.1777 -5.6437,-0.5225 z m -745.18053,-3.8306 c -0.4317,-1.5797 -0.5385,-3.1195 -0.2374,-3.4217 1.0411,-1.0447 1.6946,0.6134 1.3591,3.4484 l -0.3368,2.8456 z m 773.27983,0.3686 c 0.3392,-0.5508 1.0659,-1.0015 1.6148,-1.0015 0.5489,0 0.7205,0.4507 0.3812,1.0015 -0.3392,0.5508 -1.0659,1.0015 -1.6148,1.0015 -0.5489,0 -0.7205,-0.4507 -0.3812,-1.0015 z m -49.9012,-1.0015 c -0.3393,-0.5508 -0.1412,-1.0015 0.4401,-1.0015 0.5813,0 1.0569,0.4507 1.0569,1.0015 0,0.5508 -0.198,1.0015 -0.4401,1.0015 -0.2421,0 -0.7177,-0.4507 -1.0569,-1.0015 z m 55.3903,-0.5007 c 0,-0.8263 0.7287,-1.5023 1.6192,-1.5023 1.3262,0 1.3944,0.2719 0.3769,1.5023 -0.6834,0.8262 -1.412,1.5022 -1.6193,1.5022 -0.2072,0 -0.3768,-0.676 -0.3768,-1.5022 z m 43.8791,-1.0426 c -1.4988,-1.8122 -0.3869,-3.4626 2.3384,-3.4707 3.5313,-0.01 11.5189,-7.6649 14.5492,-13.9426 4.4776,-9.2755 6.5007,-18.479 4.1048,-18.6736 -3.5444,-0.2879 -3.9921,-0.5043 -3.9921,-1.929 0,-0.8262 0.7326,-1.5022 1.6279,-1.5022 1.4385,0 1.5575,-1.1937 1.0233,-10.2654 -0.8261,-14.0274 -0.8023,-13.9241 -3.8987,-16.9799 -3.1514,-3.1101 -3.3389,-4.0632 -1.218,-6.1914 1.5657,-1.5712 1.1068,-6.6232 -0.6016,-6.6232 -1.2512,0 -3.1147,-3.8828 -2.4115,-5.0246 1.2892,-2.0932 6.0991,1.8137 7.3368,5.9595 0.8637,2.8928 1.7616,4.0725 3.0996,4.0725 2.6328,0 6.1792,-4.8499 5.8185,-7.9572 -0.2752,-2.3702 -0.6177,-2.5329 -4.6542,-2.2106 -3.3135,0.2645 -4.251,0.025 -3.9139,-1.0015 0.2438,-0.7422 1.3549,-1.485 2.4692,-1.6508 3.5967,-0.5352 4.8142,-4.6676 4.6803,-15.8863 -0.068,-5.6936 0.234,-10.352 0.6712,-10.352 1.6887,0 2.7344,6.9117 2.4244,16.024 -0.2715,7.9771 0,10.1797 1.7041,13.6331 2.4104,4.8957 1.5621,7.4306 -3.141,9.3855 -1.6677,0.6932 -3.0587,1.9944 -3.0911,2.8915 -0.033,0.8971 -0.2049,3.4338 -0.3832,5.6371 -0.1784,2.2033 0.114,7.6114 0.6497,12.018 0.5357,4.4065 1.0689,9.5893 1.1848,11.5172 0.374,6.2186 -5.3947,21.8868 -13.0666,35.4899 -3.1863,5.6496 -11.0276,9.7928 -13.3103,7.0327 z m -38.3873,-1.4569 c -0.5718,-0.9284 1.1212,-1.9163 5.9855,-3.4927 1.0978,-0.3558 2.1083,-0.6178 2.2455,-0.5822 0.58,0.1502 0.1876,1.0752 -0.499,1.1762 -0.4117,0.061 -1.9406,0.9619 -3.3976,2.003 -3.0409,2.1729 -3.4906,2.2658 -4.3344,0.8957 z m -403.1519,-3.0539 c -7.8412,-3.8257 -13.1245,-4.5745 -17.9628,-2.5459 -4.6185,1.9365 -4.5452,1.9347 -4.5452,0.113 0,-0.8121 1.2351,-2.1159 2.7446,-2.8973 4.8149,-2.4925 18.6209,0.9981 26.0832,6.5947 3.5314,2.6485 0.4274,2.0275 -6.3198,-1.2645 z m -330.93313,-1.121 c -1.1428,-2.2362 -1.1161,-2.263 0.6083,-0.6104 0.992,0.9509 1.53,2.0035 1.1954,2.3392 -0.3345,0.3357 -1.1462,-0.4423 -1.8037,-1.7288 z m 744.56163,-0.8369 c 0,-0.5508 0.9247,-1.0015 2.0549,-1.0015 1.1303,0 1.7774,0.4507 1.4382,1.0015 -0.3393,0.5508 -1.264,1.0015 -2.055,1.0015 -0.7909,0 -1.4381,-0.4507 -1.4381,-1.0015 z m -748.51803,-3.0636 c 0,-0.5833 0.4491,-0.7821 0.9981,-0.4416 0.5489,0.3404 0.998,0.8177 0.998,1.0606 0,0.2429 -0.4491,0.4416 -0.998,0.4416 -0.549,0 -0.9981,-0.4773 -0.9981,-1.0606 z m 726.56153,-0.012 c 0,-1.6275 2.1146,-3.3655 5.9881,-4.9214 1.9212,-0.7717 3.7176,-1.6876 3.9921,-2.0354 0.2745,-0.3477 2.52,-1.7111 4.9901,-3.0296 2.4701,-1.3185 5.1648,-2.8985 5.9882,-3.5112 0.8233,-0.6126 3.7426,-1.9399 6.4871,-2.9494 3.8612,-1.4203 9.6424,-4.4569 13.1427,-6.9031 0.093,-0.065 0.4774,-1.3532 0.8551,-2.8633 l 0.6867,-2.7457 -3.7493,1.572 c -3.4265,1.4367 -9.5718,4.8477 -17.7619,9.8589 -1.7344,1.0612 -5.8482,3.3458 -9.1417,5.0767 -3.2934,1.731 -6.9391,3.7506 -8.1014,4.488 -2.2607,1.4341 -5.911,0.7071 -4.8772,-0.9714 0.3416,-0.5547 1.6624,-1.0085 2.9351,-1.0085 1.2727,0 2.873,-0.676 3.5564,-1.5023 0.6833,-0.8262 1.9444,-1.5022 2.8024,-1.5022 0.858,0 2.4872,-0.8124 3.6204,-1.8053 2.834,-2.4831 25.9116,-16.2217 27.2486,-16.2217 2.0209,0 5.9622,-5.8068 6.5822,-9.6978 0.3396,-2.131 1.2933,-4.7642 2.1194,-5.8515 1.2994,-1.7101 1.6391,-1.7742 2.5173,-0.4747 1.2258,1.8139 0.3307,6.9044 -1.6016,9.1081 -1.5142,1.7269 -4.6591,12.2759 -4.5473,15.253 0.072,1.9283 -5.0645,4.6824 -8.7336,4.6824 -1.0961,0 -2.4541,0.8647 -3.0178,1.9216 -0.5636,1.0568 -2.3448,2.2125 -3.9582,2.5681 -1.6134,0.3556 -3.432,1.2493 -4.0413,1.9861 -0.6094,0.7368 -2.3246,1.6456 -3.8116,2.0195 -3.1933,0.8031 -13.3908,6.8688 -15.1756,9.0269 -1.4287,1.7275 -4.9934,2.0367 -4.9934,0.4332 z m 27.9446,0.2911 c 0,-1.1189 5.8856,-3.1992 6.4515,-2.2804 0.2597,0.4216 -0.6577,1.283 -2.0386,1.9144 -2.9303,1.3397 -4.4129,1.4627 -4.4129,0.366 z m -756.83483,-2.8902 c -0.9682,-0.9716 -0.8149,-3.3383 0.2163,-3.3383 0.4849,0 1.1165,0.9013 1.4036,2.003 0.513,1.9686 -0.3115,2.6483 -1.6199,1.3353 z m 18.2971,-9.3473 c 0,-2.7542 0.4574,-5.0075 1.0164,-5.0075 0.5778,0 0.9401,2.1606 0.8397,5.0075 -0.097,2.7541 -0.5545,5.0075 -1.0163,5.0075 -0.4619,0 -0.8398,-2.2534 -0.8398,-5.0075 z m -20.9585,0 c 0,-0.5509 0.4491,-1.0015 0.998,-1.0015 0.549,0 0.9981,0.4506 0.9981,1.0015 0,0.5508 -0.4491,1.0015 -0.9981,1.0015 -0.5489,0 -0.998,-0.4507 -0.998,-1.0015 z m 398.96013,0.4236 c -0.4117,-0.4166 -0.7485,-1.5355 -0.7485,-2.4864 0,-0.9509 -0.7243,-2.0078 -1.6095,-2.3487 -1.316,-0.5067 -1.3809,-0.896 -0.3559,-2.1354 1.1188,-1.3528 1.4343,-1.3515 2.9356,0.012 1.0114,0.9185 3.5753,1.5275 6.4307,1.5275 4.3599,0 4.8413,-0.246 5.8789,-3.0045 1.2486,-3.3194 2.6885,-3.9844 2.6885,-1.2416 0,0.9696 -1.1409,2.9976 -2.5354,4.5067 -2.021,2.1871 -3.4238,2.7439 -6.913,2.7439 -3.2003,0 -4.4643,0.4282 -4.7002,1.5921 -0.1775,0.8757 -0.6595,1.2512 -1.0712,0.8346 z m 196.2312,-2.677 c 0.3309,-1.2394 0.6079,-2.5914 0.6154,-3.0045 0.01,-0.4131 0.8744,-0.7511 1.9265,-0.7511 1.0521,0 2.068,-0.4669 2.2575,-1.0376 0.453,-1.3635 7.8435,-3.8925 9.5053,-3.2527 2.1458,0.8263 1.4571,2.2873 -1.0782,2.2873 -1.3051,0 -2.932,0.676 -3.6153,1.5022 -0.6833,0.8263 -1.789,1.5023 -2.4571,1.5023 -0.668,0 -1.7262,1.1267 -2.3514,2.5037 -1.5236,3.3556 -5.69,3.5728 -4.8027,0.2504 z m -155.8682,-7.0105 c 0.1359,-9.6351 -0.7978,-22.2156 -2.0631,-27.7979 -0.6156,-2.7158 -0.6847,-6.0184 -0.1735,-8.2927 0.5753,-2.56 0.4019,-5.4663 -0.5375,-9.0071 -1.6291,-6.1405 -1.7538,-7.5148 -0.5609,-6.179 1.7963,2.0116 4.3486,14.1486 4.2575,20.2459 -0.056,3.7767 0.4909,7.5229 1.3399,9.1704 0.7895,1.532 1.4153,3.6409 1.3908,4.6865 -0.025,1.0456 0.5105,5.8687 1.1889,10.718 1.3478,9.6344 0.4066,13.7168 -3.1622,13.7168 -1.5567,0 -1.7694,-0.9195 -1.6799,-7.2609 z m 44.7185,3.335 c 0,-0.4792 1.7847,-1.0421 3.9661,-1.2508 4.5779,-0.4381 4.0756,0.6143 -0.7225,1.5139 -1.784,0.3345 -3.2436,0.2161 -3.2436,-0.2631 z m 25.2191,-5.7817 c 0.9711,-0.2539 2.3184,-0.2372 2.9941,0.037 0.6757,0.2744 -0.1188,0.4821 -1.7656,0.4617 -1.6467,-0.02 -2.1995,-0.2449 -1.2285,-0.4988 z m 219.197,0.1933 c -0.813,-4.0791 1.1027,-16.5247 2.5435,-16.5247 1.9285,0 2.621,1.2069 1.4824,2.5835 -0.7397,0.8945 -0.664,1.8848 0.2582,3.3776 1.0838,1.7542 1.0718,2.2575 -0.071,2.971 -0.7565,0.4724 -1.051,1.3856 -0.6546,2.0293 1.0946,1.7772 -0.306,6.0641 -1.9811,6.0641 -0.8129,0 -1.5229,-0.2254 -1.5778,-0.5008 z m -331.2289,-3.2549 c -0.01,-1.2393 0.4338,-2.2533 0.9828,-2.2533 1.2504,0 1.2504,1.0628 0,3.0045 -0.7824,1.2147 -0.9704,1.071 -0.9828,-0.7512 z m 127.2328,-1.2518 c 0.3392,-0.5508 1.0659,-1.0015 1.6148,-1.0015 0.5489,0 0.7205,0.4507 0.3812,1.0015 -0.3392,0.5508 -1.0659,1.0015 -1.6148,1.0015 -0.5489,0 -0.7205,-0.4507 -0.3812,-1.0015 z m 194.1157,-6.009 c 0,-4.4201 0.3615,-6.009 1.3672,-6.009 1.9458,0 2.8604,8.9202 1.0961,10.6906 -2.1676,2.1752 -2.4633,1.6132 -2.4633,-4.6816 z m -219.5653,1.5857 c 0,-0.8721 0.7111,-1.5857 1.5802,-1.5857 1.7624,0 1.4555,2.156 -0.3951,2.775 -0.6518,0.218 -1.1851,-0.3172 -1.1851,-1.1893 z m 174.3485,-0.1707 c -1.7731,-6.2515 -1.8227,-8.4374 -0.2057,-9.0601 2.2339,-0.8602 3.9605,1.0632 2.9815,3.3214 -0.4339,1.001 -0.6976,2.3866 -0.586,3.0792 0.1115,0.6927 -0.2133,2.0054 -0.7218,2.9173 -0.8343,1.4961 -0.9777,1.4709 -1.468,-0.2578 z m 120.1726,-1.3293 c -1.8861,-1.1984 -0.5722,-4.3281 1.6395,-3.9051 2.0632,0.3946 3.0508,4.8286 1.0704,4.8056 -0.7243,-0.01 -1.9438,-0.4137 -2.7099,-0.9005 z m -652.81172,-1.0872 c 0,-0.5508 0.67366,-1.0015 1.49703,-1.0015 0.82337,0 1.49704,0.4507 1.49704,1.0015 0,0.5508 -0.67367,1.0015 -1.49704,1.0015 -0.82337,0 -1.49703,-0.4507 -1.49703,-1.0015 z m 407.61992,-1.5238 c 2.051,-1.5571 3.1971,-1.3096 2.1099,0.4557 -0.3618,0.5874 -1.4172,1.0538 -2.3455,1.0362 -1.4817,-0.028 -1.4529,-0.21 0.2356,-1.4919 z m -21.9643,-0.6102 c -0.8507,-1.3812 1.103,-3.2861 2.4887,-2.4267 0.5968,0.3701 1.085,1.0488 1.085,1.5082 0,1.3322 -2.8654,2.0687 -3.5737,0.9185 z m 10.5599,-0.3328 c -2.3834,-1.332 -2.4058,-1.4279 -0.499,-2.1449 1.0978,-0.4127 2.2605,-1.1431 2.5838,-1.6231 0.8042,-1.194 9.8915,-1.8581 9.8915,-0.7229 0,0.5008 -1.0804,1.1826 -2.4008,1.5152 -1.3204,0.3325 -2.6257,1.4678 -2.9006,2.5228 -0.5845,2.2427 -3.1596,2.4174 -6.6749,0.4529 z m 16.4162,0.3807 c -0.6301,-1.0231 4.2326,-3.1919 5.9035,-2.633 0.5823,0.1948 -0.3799,1.0744 -2.1384,1.9547 -1.8052,0.9036 -3.4444,1.199 -3.7651,0.6783 z m 87.8324,-3.1784 c -0.3121,-0.8162 -0.4297,-3.909 -0.2613,-6.8729 0.281,-4.9461 0.5043,-5.3888 2.7181,-5.3888 2.0929,0 2.4106,0.4636 2.4024,3.5052 -0.012,4.4013 -0.9828,7.4849 -2.8451,9.0359 -1.1465,0.9548 -1.5643,0.8969 -2.0141,-0.2794 z m 166.7976,-0.6101 c -0.4299,-0.698 -0.5121,-1.5396 -0.1827,-1.8702 0.8932,-0.8963 1.867,0.4219 1.3847,1.8742 -0.3381,1.0177 -0.5732,1.0169 -1.202,0 z m -243.3172,-0.9813 c 0.7047,-0.4488 1.0211,-1.4963 0.703,-2.328 -0.906,-2.3694 1.6352,-3.7293 8.0616,-4.3142 3.2573,-0.2964 5.2487,-0.2744 4.4254,0.049 -0.8234,0.3234 -2.1707,0.8645 -2.9941,1.2025 -0.8234,0.338 -1.9462,0.667 -2.4951,0.7311 -2.7622,0.3226 -5.4493,1.756 -4.9157,2.6224 0.3764,0.6112 1.1396,0.5306 2.0346,-0.2148 0.7878,-0.6561 1.6878,-0.9365 2,-0.6232 0.6728,0.6751 -4.9325,3.7285 -6.804,3.7064 -1.0513,-0.012 -1.0543,-0.1699 -0.016,-0.8312 z m -411.96824,-0.8787 c 0,-1.2601 2.85272,-3.758 3.52333,-3.085 0.26455,0.2654 -0.41997,1.3009 -1.52116,2.3009 -1.10119,1 -2.00217,1.3529 -2.00217,0.7841 z m -95.63839,-2.3933 c -4.2888,-1.5661 -6.0261,-1.7441 -8.9822,-0.9202 -5.1304,1.43 -7.2432,1.1384 -3.665,-0.5057 4.9192,-2.2603 12.5876,-1.3597 17.0125,1.998 2.4367,1.849 2.1693,1.814 -4.3653,-0.5721 z m 62.892,0.841 c -1.0427,-1.2607 -0.8556,-2.1133 1.0718,-4.8836 1.2843,-1.8458 2.9542,-3.4958 3.711,-3.6665 0.7567,-0.1707 2.5575,-1.1548 4.0018,-2.1868 1.4443,-1.032 3.8379,-2.1816 5.3192,-2.5547 1.4812,-0.373 2.93988,-1.079 3.24156,-1.5688 0.70721,-1.1483 2.42672,-1.1558 2.42672,-0.011 0,0.484 -1.45961,1.462 -3.24358,2.1734 -5.3995,2.1532 -12.7405,8.0157 -14.0405,11.2128 -1.0614,2.6103 -1.3933,2.8084 -2.488,1.4847 z m 455.90853,-1.73 c 0,-0.5508 0.4756,-1.0015 1.0569,-1.0015 0.5814,0 0.7794,0.4507 0.4402,1.0015 -0.3393,0.5508 -0.8149,1.0015 -1.057,1.0015 -0.242,0 -0.4401,-0.4507 -0.4401,-1.0015 z m 98.9539,-3.7682 c -2.0503,-3.2199 -2.2089,-4.1283 -1.2597,-7.2185 1.0658,-3.4698 0.9903,-3.6233 -4.0965,-8.3245 -2.8503,-2.6343 -6.3009,-5.0713 -7.668,-5.4156 -4.7127,-1.1869 -21.4336,3.7236 -25.2839,7.4253 -2.3889,2.2966 -3.0051,2.5023 -3.7752,1.26 -0.7574,-1.2218 -1.2767,-1.2631 -2.9333,-0.2328 -1.1071,0.6885 -2.8502,1.2518 -3.8736,1.2518 -4.728,0 -7.9725,2.1054 -8.8261,5.7272 -0.8298,3.5209 -3.5728,6.3636 -4.8772,5.0546 -0.3643,-0.3655 -0.1653,-2.0951 0.4421,-3.8435 1.0936,-3.1482 1.0765,-3.1734 -1.7643,-2.6033 -1.5777,0.3166 -4.1107,0.8886 -5.6289,1.2709 -1.9559,0.4926 -2.5544,0.3608 -2.0536,-0.4523 0.3887,-0.6312 1.7031,-1.1476 2.9209,-1.1476 1.2177,0 3.1,-0.612 4.1827,-1.3601 1.0827,-0.7481 3.7568,-1.6895 5.9423,-2.0919 5.5512,-1.0222 7.2492,-2.136 7.2851,-4.7786 0.067,-4.9455 2.2239,-15.1922 3.3441,-15.8869 2.601,-1.6131 3.8114,0.1617 3.1938,4.6831 -0.3702,2.7106 -0.2125,4.412 0.4089,4.412 1.8812,0 3.1133,-2.5232 3.4328,-7.0302 0.2733,-3.855 0.6532,-4.5346 2.6969,-4.8246 2.371,-0.3365 2.3773,-0.3105 1.9091,7.8062 -0.358,6.205 -0.1762,8.0306 0.7636,7.6687 0.6785,-0.2612 4.086,-1.0227 7.5723,-1.6922 6.679,-1.2826 11.8278,-3.3943 11.8278,-4.851 0,-0.4777 -3.7051,-2.0944 -8.2337,-3.5926 -4.5285,-1.4983 -8.4582,-2.9612 -8.7327,-3.2511 -1.3367,-1.4116 9.1371,1.1614 13.8792,3.4096 5.1529,2.4431 5.6698,2.5004 11.4773,1.2732 3.3447,-0.7068 7.3337,-2.0435 8.8645,-2.9705 l 2.7832,-1.6854 -3.0161,-1.2536 c -1.7492,-0.7271 -4.4576,-0.9823 -6.448,-0.6076 -3.8217,0.7194 -5.5994,-0.7275 -2.86,-2.3279 2.3214,-1.3561 0.7109,-1.4005 -1.8044,-0.05 -1.2809,0.6879 -2.5346,0.7109 -3.677,0.067 -1.6034,-0.9033 -1.5837,-1.0286 0.2628,-1.6716 1.0978,-0.3823 4.2416,-1.7181 6.9861,-2.9683 6.2722,-2.8573 12.0712,-4.4705 16.0957,-4.4777 1.7168,0 3.6337,-0.625 4.2599,-1.3822 0.6262,-0.7571 3.2636,-1.6325 5.8608,-1.9453 5.2507,-0.6324 18.8817,-4.4382 26.9237,-7.5172 2.9409,-1.1259 5.4835,-1.6008 5.802,-1.0837 0.3118,0.5063 -0.2475,1.2004 -1.2429,1.5426 -0.9954,0.3422 -4.4639,1.9163 -7.7079,3.4982 -3.2439,1.5818 -6.4707,2.876 -7.1707,2.876 -0.6999,0 -2.5369,0.4857 -4.0822,1.0793 l -2.8095,1.0793 2.3382,1.9107 c 1.7504,1.4303 2.8003,1.6625 4.176,0.9237 2.7629,-1.4838 2.9777,-1.2366 1.4663,1.6867 -0.9404,1.8191 -1.0801,3.2403 -0.4371,4.446 0.6429,1.2055 0.5642,2.0085 -0.2461,2.5111 -0.668,0.4142 -1.3902,0.1403 -1.6439,-0.6235 -0.2489,-0.7494 -2.0719,-2.8554 -4.051,-4.6802 -3.7065,-3.4174 -8.743,-5.0636 -11.8246,-3.8648 -1.6279,0.6332 -1.6105,0.7828 0.242,2.0788 1.0978,0.7682 2.5385,1.8627 3.2014,2.4323 0.663,0.5696 2.1226,1.0356 3.2436,1.0356 1.121,0 2.0382,0.6261 2.0382,1.3913 0,0.7652 0.8186,2.4057 1.819,3.6456 1.5861,1.9655 2.3997,2.1669 6.3505,1.5724 2.6298,-0.3957 8.188,-2.7859 13.2453,-5.6958 7.9966,-4.6011 9.0796,-4.9589 13.1543,-4.3457 5.2964,0.797 5.2585,2.5491 -0.079,3.662 -2.083,0.4343 -5.7776,2.1376 -8.2104,3.7852 -2.4327,1.6475 -4.9301,2.9955 -5.5498,2.9955 -1.561,0 -7.838,2.0273 -10.2505,3.3107 -1.0979,0.584 -3.7925,1.405 -5.9882,1.8244 -11.9408,2.2812 -15.2472,4.3128 -10.1173,6.2167 1.5191,0.5638 1.6336,0.9623 0.6263,2.1803 -0.678,0.8197 -1.9636,1.4761 -2.857,1.4587 -1.549,-0.03 -7.1134,-4.2767 -7.1134,-5.4286 0,-0.8595 -3.639,-4.2946 -5.7513,-5.429 -1.8635,-1.0008 -5.7202,-0.5609 -7.7221,0.8808 -0.5489,0.3953 -2.2331,1.0148 -3.7426,1.3767 -1.5095,0.3618 -2.7445,1.2712 -2.7445,2.0207 0,1.7666 9.9736,9.3243 13.4654,10.2038 2.3892,0.6017 2.6235,1.0277 2.09,3.8003 -0.3304,1.7175 -0.8867,5.1507 -1.2362,7.6294 -0.9973,7.0742 -3.5906,7.8832 -7.1835,2.2408 z m -42.2497,-18.5924 c 0.1737,-1.4722 -0.1632,-2.6768 -0.7485,-2.6768 -0.5854,0 -1.0705,0.338 -1.078,0.7511 -0.01,0.4131 -0.3001,1.8255 -0.6503,3.1386 -0.4748,1.78 -0.2809,2.2699 0.7621,1.9257 0.7694,-0.2539 1.541,-1.6663 1.7147,-3.1386 z m 66.5241,-10.7867 c 1.9579,-1.8951 1.9569,-1.9166 -0.2012,-4.0821 -2.1541,-2.1617 -2.1981,-2.164 -6.2581,-0.3269 -5.1191,2.3165 -5.4758,2.9134 -3.2795,5.4875 2.1039,2.4657 6.5903,1.9689 9.7388,-1.0785 z m -8.6219,-6.0661 c 0.183,-0.4656 0.969,-0.8465 1.7466,-0.8465 2.6355,0 1.4312,-1.523 -2.5851,-3.269 -5.0549,-2.1976 -7.0607,-2.1663 -14.4645,0.2254 -4.9316,1.5931 -6.5572,2.6724 -3.2649,2.1678 1.0409,-0.1595 11.9531,2.7506 12.5464,3.346 0.7094,0.7119 5.6245,-0.6134 6.0215,-1.6237 z m -663.48443,36.2748 c -1.2644,-2.3708 -1.3231,-3.3684 -0.1556,-2.6443 0.8806,0.5461 2.2539,4.5814 1.5592,4.5814 -0.2038,0 -0.8354,-0.8717 -1.4036,-1.9371 z m 256.20973,1.3551 c -0.8349,-0.8378 0.2747,-3.5241 2.4079,-5.829 0.9694,-1.0474 1.5858,-2.1911 1.3699,-2.5416 -0.2158,-0.3506 0.9225,-1.2214 2.5296,-1.9353 1.6072,-0.7139 2.9221,-1.9362 2.9221,-2.7163 0,-0.78 0.5425,-1.4183 1.2055,-1.4183 0.663,0 2.9349,-1.69 5.0486,-3.7556 2.6488,-2.5884 3.6256,-3.1331 3.143,-1.7526 -0.7997,2.2878 -4.855,6.5097 -6.2527,6.5097 -0.8873,0 -2.0277,1.9317 -1.7737,3.0045 0.065,0.2754 -0.8902,1.9224 -2.1231,3.6599 -1.2329,1.7375 -2.2417,3.6528 -2.2417,4.2563 0,0.6035 -0.8084,1.0973 -1.7964,1.0973 -0.988,0 -2.253,0.4582 -2.8111,1.0182 -0.5581,0.56 -1.2906,0.7413 -1.6279,0.4028 z m -226.30413,-3.8656 c 0,-1.3446 0.3678,-2.6728 0.8174,-2.9516 0.4496,-0.2789 0.6232,0.8212 0.3858,2.4446 -0.5235,3.5793 -1.2032,3.8656 -1.2032,0.507 z m 529.76363,1.7605 c 0.7204,-0.2893 1.5812,-0.2537 1.9128,0.079 0.3317,0.3328 -0.2578,0.5695 -1.3099,0.526 -1.1626,-0.048 -1.3991,-0.2854 -0.6029,-0.6051 z m 4.1792,-1.3189 c 0,-0.5508 0.4756,-1.0015 1.0569,-1.0015 0.5813,0 0.7794,0.4507 0.4401,1.0015 -0.3392,0.5508 -0.8149,1.0015 -1.0569,1.0015 -0.2421,0 -0.4401,-0.4507 -0.4401,-1.0015 z m -579.84203,-2.9771 c -1.1049,-0.701 -0.7839,-0.8683 1.2491,-0.6507 1.505,0.161 3.035,0.5924 3.4,0.9588 1.0202,1.0237 -2.9663,0.7595 -4.6491,-0.3081 z m 558.88353,-0.4055 c 0,-2.1596 2.4397,-3.6742 8.1798,-5.0781 2.9114,-0.712 6.0794,-1.6266 7.04,-2.0323 1.0477,-0.4426 1.7466,-0.2989 1.7466,0.359 0,0.6033 -1.839,1.392 -4.0867,1.7526 -2.4185,0.3881 -5.3611,1.8238 -7.2086,3.5171 -3.3682,3.0871 -5.6711,3.6888 -5.6711,1.4817 z m 27.9446,0.3781 c 0,-0.5508 0.7002,-1.0015 1.556,-1.0015 0.8557,0 1.2784,0.4507 0.9391,1.0015 -0.3392,0.5508 -1.0394,1.0015 -1.5559,1.0015 -0.5166,0 -0.9392,-0.4507 -0.9392,-1.0015 z m 104.5963,0.2504 c -0.1728,-0.4131 -0.3115,-4.5819 -0.3084,-9.2639 l 0.01,-8.5127 2.994,0 2.9941,0 -0.189,5.7298 c -0.243,7.3618 -4.0063,15.6103 -5.4964,12.0468 z m -676.34923,-2.7541 c -0.046,-1.6525 0.3512,-3.6805 0.8833,-4.5068 0.797,-1.2375 0.9526,-1.1493 0.8832,0.5008 -0.046,1.1016 -0.4438,3.1297 -0.8832,4.5067 -0.7831,2.4536 -0.8008,2.4435 -0.8833,-0.5007 z m 215.45843,0.5007 c 0,-0.5508 0.4491,-1.0015 0.998,-1.0015 0.5489,0 0.998,0.4507 0.998,1.0015 0,0.5509 -0.4491,1.0015 -0.998,1.0015 -0.5489,0 -0.998,-0.4506 -0.998,-1.0015 z m 211.5811,-2.003 c 0,-1.1016 0.4491,-2.003 0.998,-2.003 0.5489,0 0.998,0.9014 0.998,2.003 0,1.1017 -0.4491,2.003 -0.998,2.003 -0.5489,0 -0.998,-0.9013 -0.998,-2.003 z m 318.5122,-4.7571 c -1.2968,-2.4553 -0.6995,-35.5014 0.6849,-37.8945 0.6093,-1.0533 1.1345,-1.6897 1.1671,-1.4143 0.033,0.2754 0.2366,8.0131 0.4535,17.1949 0.3164,13.3975 0.7218,17.1959 2.0532,19.2348 0.9124,1.3974 1.3691,3.0112 1.0149,3.5862 -1.0196,1.6556 -4.3577,1.2164 -5.3736,-0.7071 z m -179.7869,0.3575 c 0,-0.2164 0.6737,-0.653 1.497,-0.97 0.8234,-0.3171 1.4971,-0.14 1.4971,0.3936 0,0.5335 -0.6737,0.97 -1.4971,0.97 -0.8233,0 -1.497,-0.1771 -1.497,-0.3936 z m 6.799,-2.2935 c 0.7205,-0.2893 1.5813,-0.2537 1.9129,0.079 0.3317,0.3328 -0.2578,0.5695 -1.3099,0.526 -1.1626,-0.048 -1.3991,-0.2854 -0.603,-0.6051 z m -569.60573,-2.9046 c 0.048,-1.1667 0.2844,-1.404 0.603,-0.605 0.2883,0.7229 0.2528,1.5867 -0.079,1.9195 -0.3317,0.3328 -0.5676,-0.2587 -0.5242,-1.3145 z m 559.31363,0.5842 c -0.8354,-1.3563 0.2919,-3.0044 2.055,-3.0044 0.7909,0 1.4381,0.9013 1.4381,2.003 0,2.0734 -2.4077,2.7637 -3.4931,1.0014 z m 9.7308,0.3383 c -2.0026,-0.8109 -1.4357,-3.3427 0.7485,-3.3427 1.3307,0 1.996,0.6676 1.996,2.003 0,2.0241 -0.478,2.2574 -2.7445,1.3397 z m -471.81583,-1.3397 c 0.3392,-0.5509 0.8148,-1.0015 1.0569,-1.0015 0.2421,0 0.4401,0.4506 0.4401,1.0015 0,0.5508 -0.4756,1.0014 -1.0569,1.0014 -0.5813,0 -0.7794,-0.4506 -0.4401,-1.0014 z m 474.31083,-3.7639 c -3.3088,-2.0586 -3.5182,-3.8668 -0.557,-4.8099 1.6806,-0.5352 2.7075,-0.042 4.4317,2.1276 3.4994,4.404 1.3188,5.9135 -3.8747,2.6823 z m -566.12913,-3.2466 c 0.3393,-0.5509 1.264,-1.0015 2.055,-1.0015 0.791,0 1.4381,0.4506 1.4381,1.0015 0,0.5508 -0.9247,1.0015 -2.0549,1.0015 -1.1302,0 -1.7774,-0.4507 -1.4382,-1.0015 z m 400.97853,-3.0045 c 0,-2.4787 0.1946,-3.4928 0.4325,-2.2534 0.2379,1.2394 0.2379,3.2674 0,4.5067 -0.2379,1.2394 -0.4325,0.2254 -0.4325,-2.2533 z m -184.0925,-3.7556 c -0.1013,-1.5148 -0.2342,-3.7512 -0.2952,-4.9699 -0.061,-1.2186 -0.3498,-2.4554 -0.6417,-2.7484 -0.96,-0.9634 0.3022,-6.4077 1.6015,-6.9081 0.8668,-0.3338 1.6281,1.2919 2.3916,5.1071 1.2469,6.2304 0.9607,7.2033 -1.5164,5.1552 -1.5265,-1.2621 -1.624,-1.1419 -1.0264,1.2665 0.3632,1.4636 0.9349,3.379 1.2704,4.2564 0.3355,0.8774 0.1129,1.5953 -0.4948,1.5953 -0.6076,0 -1.1877,-1.2394 -1.289,-2.7541 z m 196.1712,-2.3786 c 0.3431,-1.7213 0.6238,-4.6883 0.6238,-6.5932 0,-2.3298 0.4083,-3.3244 1.2475,-3.0386 2.0906,0.7121 0.7314,12.7615 -1.4396,12.7615 -0.6499,0 -0.8158,-1.2027 -0.4317,-3.1297 z m 290.6297,0.3724 c -0.3285,-0.3297 0.3781,-1.6412 1.5702,-2.9145 1.5298,-1.6341 2.523,-2.0191 3.376,-1.3087 1.1424,0.9514 8.7903,-3.3846 13.6153,-7.7192 1.9627,-1.7634 5.8101,-0.9211 5.8101,1.272 0,0.8183 -1.3058,1.7218 -2.9717,2.0562 -1.6344,0.328 -3.4858,1.2181 -4.1143,1.9779 -0.6284,0.7599 -1.7268,1.3816 -2.4408,1.3816 -0.7141,0 -2.5678,1.0579 -4.1194,2.3508 -2.7377,2.2813 -9.5167,4.1167 -10.7254,2.9039 z m 53.7775,-0.3054 c -0.359,-0.5828 -0.4978,-4.3008 -0.3084,-8.2623 0.2085,-4.3644 -0.049,-7.2027 -0.6538,-7.2027 -0.549,0 -1.0351,1.1266 -1.0804,2.5037 -0.1802,5.4806 -0.4253,6.1542 -2.1195,5.8268 -2.1251,-0.4107 -3.0598,-3.6683 -3.1878,-11.1094 -0.091,-5.29 0.1134,-5.8647 2.3956,-6.7354 1.3722,-0.5235 2.495,-1.4137 2.495,-1.9782 0,-0.5644 0.8659,-1.0263 1.9242,-1.0263 1.584,0 2.0456,0.9742 2.6101,5.5083 0.5584,4.4849 1.0353,5.5082 2.5668,5.5082 1.3915,0 1.92,0.782 2.0308,3.0045 0.082,1.6525 0.1946,3.5303 0.2495,4.1729 0.055,0.6426 -0.4616,1.3562 -1.1477,1.5857 -0.6927,0.2317 -1.2543,-0.3992 -1.2628,-1.4188 -0.01,-1.0098 -0.4895,-2.5121 -1.0692,-3.3383 -0.7697,-1.0972 -0.8817,-0.2064 -0.4151,3.3041 0.9777,7.3582 -0.8508,13.1912 -3.0273,9.6572 z m 9.7196,-7.6433 c 0.07,-4.7277 -2.8971,-17.1901 -4.983,-20.9305 -0.5824,-1.0442 -1.8783,-1.902 -2.8799,-1.9061 -2.338,-0.01 -2.9342,-3.7575 -0.8711,-5.4757 1.7547,-1.4614 2.0586,-7.5682 0.5719,-11.4922 -0.7487,-1.9761 -1.6699,-2.5689 -3.9921,-2.5689 -3.4376,0 -6.2983,2.4588 -8.4206,7.2378 -0.8006,1.8028 -2.355,4.4016 -3.4541,5.7751 -1.7637,2.2039 -2.0757,2.2952 -2.6563,0.7769 -0.3883,-1.0154 0.01,-2.3893 0.9689,-3.3528 0.8947,-0.8979 2.4929,-3.2755 3.5514,-5.2836 3.0458,-5.7783 3.476,-6.2109 7.5843,-7.6282 2.5766,-0.8889 4.4772,-1.0231 5.6405,-0.3983 2.3646,1.2699 4.7454,7.2621 4.7454,11.9437 0,2.1001 0.4984,5.0872 1.1076,6.6378 1.3501,3.437 4.8525,17.295 4.8688,19.2652 0.01,0.7828 0.6447,2.1348 1.4182,3.0044 0.7735,0.8697 1.5595,3.1585 1.7465,5.0864 0.3066,3.16 0.076,3.5358 -2.3387,3.8158 -2.5863,0.2998 -2.6764,0.144 -2.6077,-4.5068 z m -22.1591,0.1588 c 0,-1.6145 2.6563,-3.1451 3.6783,-2.1195 0.7108,0.7133 -1.5445,3.6532 -2.8025,3.6532 -0.4817,0 -0.8758,-0.6902 -0.8758,-1.5337 z m -453.4638,-1.9716 c 0.316,-0.8262 1.0305,-1.5022 1.5879,-1.5022 0.5842,0 0.4872,0.6364 -0.2289,1.5022 -0.6834,0.8263 -1.398,1.5023 -1.588,1.5023 -0.19,0 -0.087,-0.676 0.229,-1.5023 z m 392.201,-1.4379 c -1.6237,-0.5919 -1.4249,-0.9069 1.4566,-2.3073 3.3199,-1.6135 5.4657,-1.4645 4.3766,0.3038 -1.0505,1.7057 -3.9338,2.696 -5.8332,2.0035 z m -54.7575,-1.8834 c -2.5378,-0.2931 -4.0289,-2.1869 -1.7218,-2.1869 1.6474,0 2.8597,-3.5965 6.0764,-18.027 2.8263,-12.6794 6.2508,-23.9331 6.6566,-21.8756 0.18,0.9128 -0.3492,4.2591 -1.176,7.4363 -0.8268,3.1771 -1.3041,6.1 -1.0607,6.4952 0.2435,0.3953 -0.4523,3.5298 -1.5461,6.9656 -1.0938,3.4358 -1.9887,8.5768 -1.9887,11.4244 0,2.8476 -0.4056,5.6057 -0.9012,6.1289 -0.4956,0.5233 -1.057,1.6275 -1.2475,2.4537 -0.2284,0.9907 -1.2811,1.3943 -3.091,1.1854 z m -25.8862,-3.8725 c 0.7204,-0.2893 1.5812,-0.2538 1.9129,0.079 0.3316,0.3328 -0.2579,0.5695 -1.3099,0.526 -1.1627,-0.048 -1.3992,-0.2854 -0.603,-0.6051 z m -534.25473,-2.3204 c -0.3392,-0.5508 -0.1412,-1.0015 0.4401,-1.0015 0.5813,0 1.0569,0.4507 1.0569,1.0015 0,0.5508 -0.198,1.0015 -0.4401,1.0015 -0.242,0 -0.7176,-0.4507 -1.0569,-1.0015 z m 128.85873,-0.083 c -0.9983,-3.1432 -1.2712,-6.8352 -0.4685,-6.3374 0.4696,0.2912 0.8539,1.3667 0.8539,2.39 0,1.0232 0.5614,2.067 1.2475,2.3194 0.9809,0.3609 0.9879,0.7357 0.033,1.7532 -0.9905,1.0552 -1.2981,1.032 -1.6656,-0.1252 z m 501.856,-0.9777 c -0.3951,-0.6415 -0.099,-1.5597 0.6571,-2.0405 2.1096,-1.3409 3.0514,-1.0737 2.6961,0.7648 -0.4017,2.0781 -2.3925,2.8356 -3.3532,1.2757 z m -295.8777,-3.4461 c 0,-1.3771 0.4491,-2.5038 0.998,-2.5038 0.5489,0 0.9981,1.1267 0.9981,2.5038 0,1.3771 -0.4492,2.5037 -0.9981,2.5037 -0.5489,0 -0.998,-1.1266 -0.998,-2.5037 z m 256.7265,-0.7181 c -1.7314,-2.0936 -4.437,-8.9187 -3.792,-9.5659 0.7749,-0.7776 4.6045,2.8617 4.4051,4.186 -0.09,0.5998 0.1735,1.8643 0.5863,2.8101 1.1079,2.5382 0.2662,4.3418 -1.1994,2.5698 z m 73.2816,-2.2242 c -3.3114,-3.0796 -7.7435,-4.0211 -12.1145,-2.5735 -1.9123,0.6333 -3.9909,0.8328 -4.619,0.4432 -1.318,-0.8174 5.2855,-3.3649 9.0872,-3.5055 1.3722,-0.051 4.516,0.4598 6.9861,1.1346 6.9654,1.903 8.729,3.9333 5.1065,5.8787 -1.4744,0.7918 -2.433,0.4948 -4.4463,-1.3775 z m -96.4705,-0.4978 c 0,-1.0657 0.5198,-3.2064 1.1551,-4.7571 1.0194,-2.4879 1.2079,-2.5838 1.6045,-0.8163 0.2471,1.1017 0.9051,2.5664 1.4621,3.2549 0.6968,0.8612 0.6252,1.7206 -0.2296,2.7541 -1.7478,2.1133 -3.9921,1.8685 -3.9921,-0.4356 z m -565.18403,-1.4604 c -0.4084,-1.0428 -0.5074,-2.1319 -0.22,-2.4203 0.9102,-0.9134 1.7112,0.5835 1.3297,2.4853 -0.3495,1.7429 -0.4029,1.7398 -1.1097,-0.065 z m 122.56043,0.3937 c -0.3393,-0.5508 -0.1412,-1.0015 0.4401,-1.0015 0.5813,0 1.0569,0.4507 1.0569,1.0015 0,0.5509 -0.198,1.0015 -0.4401,1.0015 -0.242,0 -0.7177,-0.4506 -1.0569,-1.0015 z m 474.1939,-2.089 c -0.3473,-1.7429 -0.6315,-4.9924 -0.6315,-7.2212 0,-2.418 -0.6884,-4.8156 -1.7069,-5.9449 -1.3709,-1.5201 -1.4474,-2.0535 -0.3885,-2.7102 2.1182,-1.3137 5.0706,-0.016 6.4134,2.8198 1.3745,2.9025 1.0945,8.135 -0.4354,8.135 -0.5362,0 -0.8432,1.6426 -0.6822,3.6501 0.3657,4.5612 -1.7086,5.5878 -2.5689,1.2714 z m 34.1848,1.653 c -0.3374,-0.3456 -1.6517,-0.8289 -2.9208,-1.0742 -3.8848,-0.7507 -4.5042,-2.2205 -1.8651,-4.4255 2.851,-2.3819 4.7589,-2.6102 5.5052,-0.6586 0.6951,1.8178 0.091,6.9883 -0.7193,6.1583 z m 2.1426,-6.0349 c -0.9352,-1.1308 -0.9453,-2.2694 -0.045,-5.0075 1.4852,-4.5157 4.4769,-4.9761 3.5058,-0.5395 -0.5661,2.5866 -0.3689,3.0044 1.4178,3.0044 2.4294,0 2.7967,2.5125 0.4967,3.3981 -2.51,0.9665 -4.0745,0.7175 -5.3755,-0.8555 z m -512.367,-2.0097 c -0.3092,-0.8086 -0.1327,-1.7366 0.3922,-2.0621 0.525,-0.3256 0.9545,0.336 0.9545,1.4701 0,2.4182 -0.555,2.6622 -1.3467,0.592 z m 520.9845,0.8025 c -0.3659,-0.3672 -0.6654,-1.5315 -0.6654,-2.5872 0,-2.5974 2.4105,-1.6723 2.814,1.0799 0.3088,2.1056 -0.7866,2.874 -2.1486,1.5073 z m -30.6061,-1.7526 c 0,-0.8722 0.7111,-1.5857 1.5802,-1.5857 1.7625,0 1.4555,2.1559 -0.395,2.7749 -0.6519,0.2181 -1.1852,-0.3171 -1.1852,-1.1892 z m -6.658,-6.4787 c 0.6618,-5.8718 1.1984,-6.9953 2.6469,-5.5417 0.5956,0.5976 0.3751,2.6109 -0.5956,5.4382 -2.1691,6.3179 -2.7549,6.3475 -2.0513,0.1035 z m 60.2394,4.2462 c -0.3774,-0.3787 -0.6861,-2.003 -0.6861,-3.6096 0,-1.8994 -0.4364,-2.7701 -1.2476,-2.4895 -0.6861,0.2374 -1.2298,1.627 -1.2082,3.088 0.05,3.3769 -1.2949,3.424 -2.5583,0.089 -0.7514,-1.9834 -0.5756,-3.1119 0.7733,-4.9649 2.2895,-3.1452 3.8939,-3.7191 6.257,-2.2382 2.5568,1.6023 2.9221,2.7779 2.1066,6.7793 -0.6721,3.2978 -2.0995,4.6872 -3.4367,3.3453 z m -335.9434,-3.9434 c 0.048,-1.1667 0.2844,-1.404 0.603,-0.6051 0.2883,0.7229 0.2528,1.5867 -0.079,1.9195 -0.3316,0.3328 -0.5675,-0.2587 -0.5242,-1.3144 z m -62.4553,-13.4368 c 0.3393,-0.5508 0.8149,-1.0015 1.057,-1.0015 0.242,0 0.4401,0.4507 0.4401,1.0015 0,0.5508 -0.4756,1.0015 -1.0569,1.0015 -0.5814,0 -0.7794,-0.4507 -0.4402,-1.0015 z m 301.2544,-1.4739 c 0.3674,-0.961 0.93,-5.4166 1.2501,-9.9013 0.6317,-8.85134 1.3487,-11.32246 1.4698,-5.06607 l 0.076,3.92254 1.2599,-3.50525 c 0.693,-1.92788 1.9295,-3.63614 2.7478,-3.79612 1.1752,-0.22977 0.8313,1.75487 -1.6374,9.44815 -1.7188,5.35645 -3.7347,9.94295 -4.4797,10.19215 -0.9403,0.3145 -1.1503,-0.081 -0.6865,-1.2941 z m -435.0369,-6.7469 c -0.9868,-2.36387 -1.9221,-6.69332 -2.0785,-9.62102 -0.2441,-4.57203 -0.044,-5.27353 1.4198,-4.97189 1.1962,0.24652 1.6184,1.16133 1.4168,3.06971 -0.2012,1.9035 0.1728,2.71852 1.2475,2.71852 0.8442,0 1.5348,-0.44552 1.5348,-0.99005 0,-1.2422 3.171,-5.01893 4.2139,-5.01893 0.4269,0 0.7762,1.05684 0.7762,2.34852 0,2.50452 -3.2921,6.21577 -4.7253,5.3269 -0.4725,-0.29302 -1.4233,-0.18285 -2.1129,0.24484 -0.9918,0.61509 -1.0072,1.76055 -0.074,5.48052 1.5347,6.11628 0.6627,6.87748 -1.6186,1.41288 z m 380.7935,3.2133 c 0,-0.5508 0.4491,-1.0015 0.998,-1.0015 0.5489,0 0.998,0.4507 0.998,1.0015 0,0.5508 -0.4491,1.0015 -0.998,1.0015 -0.5489,0 -0.998,-0.4507 -0.998,-1.0015 z m -172.6429,-2.1943 c -0.01,-0.9314 0.4338,-1.972 0.9828,-2.3124 1.263,-0.78339 1.263,0.5424 0,2.5037 -0.8338,1.2946 -0.9696,1.2682 -0.9828,-0.1913 z m 233.941,-17.58529 c 0.3583,-1.51476 0.8614,-4.10614 1.118,-5.75861 0.2566,-1.65247 1.3329,-6.83523 2.3918,-11.51723 1.059,-4.682 2.4689,-11.34264 3.1331,-14.80141 0.6643,-3.45877 1.5617,-6.50818 1.9943,-6.77645 1.4939,-0.9265 1.9329,1.38921 0.7997,4.21797 -1.2508,3.12213 -4.7943,21.53499 -5.3656,27.88021 -0.1985,2.20582 -0.8298,5.24787 -1.4028,6.76011 -1.3883,3.66424 -3.5353,3.66055 -2.6685,-0.005 z m -440.8013,-2.58565 c -0.8965,-2.21065 -0.9798,-8.90222 -0.1382,-11.10303 0.3332,-0.8713 1.2838,-1.58416 2.1125,-1.58416 1.1128,0 1.3164,0.58908 0.7787,2.25337 -0.4003,1.23935 -1.0161,4.50674 -1.3684,7.26086 -0.4573,3.57491 -0.8535,4.48265 -1.3846,3.17296 z m -5.7257,-3.64734 c -1.1856,-0.75218 -1.2364,-1.19762 -0.2495,-2.18796 0.9869,-0.99033 1.2391,-0.91387 1.2391,0.37559 0,0.89049 0.5614,1.8464 1.2476,2.12423 0.6861,0.27782 0.7984,0.53381 0.2495,0.56887 -0.5489,0.0351 -1.668,-0.36128 -2.4867,-0.88073 z m 196.6023,-0.45225 c 0,-0.35208 1.0105,-1.04774 2.2456,-1.54591 1.3975,-0.56369 1.6574,-0.92971 0.6881,-0.96922 -1.3047,-0.0532 -1.567,-1.77367 -1.616,-10.60111 -0.06,-10.80795 1.1181,-14.88487 2.0973,-7.25834 1.0277,8.00395 1.3533,19.79896 0.5466,19.79896 -0.4423,0 -1.5146,0.27355 -2.3829,0.6079 -0.8683,0.33434 -1.5787,0.31982 -1.5787,-0.0323 z m 8.6931,-6.58461 c 0.2871,-1.10164 0.6941,-2.00299 0.9046,-2.00299 0.2104,0 0.3826,0.90135 0.3826,2.00299 0,1.10165 -0.4071,2.003 -0.9046,2.003 -0.4975,0 -0.6697,-0.90135 -0.3826,-2.003 z m 0.4467,-7.01048 c 0,-1.37706 0.2266,-1.94041 0.5034,-1.25188 0.2769,0.68853 0.2769,1.81522 0,2.50375 -0.2768,0.68853 -0.5034,0.12519 -0.5034,-1.25187 z m -10.6707,-14.07602 c -0.982,-1.59444 -1.1623,-14.59918 -0.2156,-15.55055 1.5633,-1.57103 2.1337,0.90045 1.9195,8.31676 -0.2326,8.04958 -0.5006,9.1875 -1.7039,7.23379 z m 256.3008,-19.49677 c 0.577,-9.70522 4.6383,-23.51261 6.916,-23.51261 0.5649,0 0.7893,1.01402 0.4986,2.25337 -0.2907,1.23936 -1.4102,5.85877 -2.4878,10.26536 -2.7242,11.14009 -3.2575,15.33855 -2.0017,15.75863 1.6075,0.5377 -0.092,4.77208 -1.9157,4.77208 -1.3659,0 -1.5007,-1.27373 -1.0094,-9.53683 z m 6.2221,-1.73002 c 0.4072,-1.23936 1.021,-4.95742 1.3639,-8.26236 0.4042,-3.89574 0.8772,-5.38877 1.3448,-4.24541 0.3968,0.96996 0.5279,2.99799 0.2913,4.50674 -0.2365,1.50874 -0.6938,4.43319 -1.0161,6.49878 -0.3223,2.06559 -1.0671,3.75562 -1.6552,3.75562 -0.6628,0 -0.7878,-0.8564 -0.3287,-2.25337 z m -242.4548,-1.07294 c -1.7479,-1.28345 -1.4465,-1.4223 3.3213,-1.5301 3.7511,-0.0848 5.1287,0.23318 4.8396,1.11705 -0.5863,1.79249 -5.915,2.06219 -8.1609,0.41305 z m 232.9649,-1.62207 c 0,-2.41819 0.555,-2.66215 1.3467,-0.59194 0.3092,0.8086 0.1327,1.73655 -0.3923,2.06211 -0.5249,0.32556 -0.9544,-0.33602 -0.9544,-1.47017 z m -467.0752,-0.0591 c 0,-0.55083 0.4491,-1.0015 0.998,-1.0015 0.5489,0 0.998,0.45067 0.998,1.0015 0,0.55082 -0.4491,1.0015 -0.998,1.0015 -0.5489,0 -0.998,-0.45068 -0.998,-1.0015 z m 216.0223,-2.92467 c -1.881,-1.82845 -18.7731,-10.14072 -19.8281,-9.75698 -0.5943,0.21615 -1.7546,0.0475 -2.5784,-0.37481 -0.8238,-0.42231 -5.2492,-1.03976 -9.8344,-1.37213 -8.7304,-0.63283 -10.1253,-1.01762 -10.1253,-2.7932 0,-1.24312 17.7507,-0.2419 21.3096,1.20196 1.1792,0.47841 3.7357,1.12688 5.6811,1.44104 1.9454,0.31416 5.9676,2.14253 8.9382,4.06306 2.9706,1.92052 6.8706,3.76848 8.6666,4.10659 2.8317,0.53308 3.1312,0.86657 2.2544,2.51044 -1.0903,2.04437 -2.964,2.4514 -4.4837,0.97403 z m 14.5212,-2.08282 c 0,-0.55083 0.4124,-1.0015 0.9164,-1.0015 0.504,0 1.6319,-0.27551 2.5064,-0.61226 1.1637,-0.44812 1.4245,-0.17964 0.9728,1.0015 -0.6663,1.74242 -4.3956,2.26186 -4.3956,0.61226 z m 236.3306,-4.25698 c -0.7014,-9.3691 0.8572,-29.96442 2.3371,-30.88226 1.6319,-1.01206 2.4036,-0.23553 3.2172,3.23726 0.4324,1.84584 0.1738,2.8218 -0.8524,3.21696 -0.8102,0.31198 -1.2272,1.21032 -0.9266,1.9963 0.3005,0.78598 -0.078,4.52111 -0.841,8.30027 -0.7632,3.77917 -1.2585,9.4467 -1.1007,12.59452 0.3623,7.22918 -1.3029,8.62499 -1.8336,1.53695 z m -260.0836,-7.9613 c -1.4429,-1.448 -1.5565,-2.80419 -0.2347,-2.80419 0.5296,0 1.4436,0.90134 2.0312,2.00299 1.1764,2.20591 0.087,2.69162 -1.7965,0.8012 z m 278.2049,-14.37489 c -0.9013,-1.08977 -0.9592,-1.84397 -0.2,-2.60576 1.2791,-1.28356 3.2383,-0.28062 3.2383,1.65773 0,2.14021 -1.6313,2.64922 -3.0383,0.94803 z m -272.7853,-5.70515 c -0.331,-1.23935 -0.6079,-3.32257 -0.6154,-4.62936 -0.011,-1.99894 0.2239,-2.17815 1.4834,-1.12925 1.5909,1.32496 2.1046,8.01198 0.6154,8.01198 -0.4849,0 -1.1524,-1.01401 -1.4834,-2.25337 z m 270.8652,-12.51873 c 0.03,-2.63801 0.093,-2.67216 1.497,-0.81009 1.8671,2.47711 1.8575,3.56421 -0.032,3.56421 -0.9754,0 -1.4859,-0.95953 -1.4653,-2.75412 z m -271.4904,-1.25904 c 0.5854,-1.09771 1.7223,-1.99583 2.5263,-1.99583 2.2991,0 1.7108,1.56771 -1.0644,2.83657 -2.351,1.07494 -2.4525,1.0166 -1.4619,-0.84074 z m -7.988,-2.9659 c 0,-0.53353 0.6736,-0.71066 1.497,-0.3936 0.8234,0.31706 1.497,0.75358 1.497,0.97007 0,0.21647 -0.6736,0.3936 -1.497,0.3936 -0.8234,0 -1.497,-0.43654 -1.497,-0.97007 z m 1.6783,-24.72 c -1.2281,-1.23238 -0.7115,-3.35338 0.8167,-3.35338 1.663,0 1.8704,0.86369 0.6651,2.76917 -0.4408,0.69681 -1.1076,0.9597 -1.4818,0.58421 z m -2.1132,-57.14071 c -0.5416,-1.42733 -0.427,-1.54237 0.5587,-0.56064 0.6821,0.67936 0.9887,1.48747 0.6814,1.79582 -0.3073,0.30835 -0.8653,-0.24748 -1.2401,-1.23518 z m -1.9536,-6.55294 c -1.2057,-9.97036 -1.402,-15.7736 -0.5335,-15.7736 0.8483,0 1.0331,0.59366 1.3251,4.25637 0.055,0.68853 0.5021,1.54439 0.9938,1.90193 0.4916,0.35752 0.5284,1.48421 0.082,2.50374 -0.4467,1.01953 -0.6954,3.9944 -0.5527,6.61081 0.3223,5.90862 -0.6172,6.26652 -1.3145,0.50075 z m -289.03453,-6.76011 c 0,-0.55083 0.4491,-1.0015 0.998,-1.0015 0.5489,0 0.998,0.45067 0.998,1.0015 0,0.55082 -0.4491,1.0015 -0.998,1.0015 -0.5489,0 -0.998,-0.45068 -0.998,-1.0015 z M 589.36462,72.784069 c -0.7706,-3.86516 1.4156,-1.05908 1.1448,1.18804 -0.2745,0.27541 -0.7896,-0.25921 -1.1448,-1.18804 z"
         style="fill:#000000" />
</svg>
